<svg width="19" height="20" viewBox="0 0 19 20" fill="none" xmlns="http://www.w3.org/2000/svg">
<rect y="0.558105" width="19" height="19" rx="9.5" fill="#C6C5C8"/>
<path d="M11.0655 8.09674L11.0753 8.07349V8.04826C11.0753 7.99129 11.0475 7.94297 11.025 7.91084C10.9999 7.87503 10.9657 7.83794 10.9259 7.80011C10.8474 7.72546 10.7664 7.6663 10.6842 7.64026L10.6386 7.62583L10.5951 7.64544C10.252 7.7999 9.75147 7.98184 9.09076 8.19122C8.4376 8.38082 7.76621 8.50163 7.07641 8.55359C7.01487 8.55613 6.97555 8.59464 6.95632 8.62075C6.93641 8.64779 6.92393 8.67922 6.91533 8.70648C6.89765 8.7625 6.88513 8.83821 6.87569 8.92796L6.875 8.92789V8.94104C6.875 9.02299 6.87965 9.0943 6.89149 9.15058C6.8974 9.17866 6.90618 9.20843 6.92045 9.23555C6.93443 9.26213 6.95911 9.29633 7.00159 9.31652L7.02705 9.32862H7.05525C7.37182 9.32862 7.61628 9.35675 7.79345 9.40888C7.97055 9.46098 8.06346 9.53183 8.10563 9.6047C8.11532 9.624 8.13063 9.67006 8.1484 9.75452C8.16589 9.83768 8.18383 9.94798 8.20203 10.0864C8.23872 10.3654 8.25622 10.5688 8.25622 10.7003V12.9585C8.25622 13.3945 8.24473 13.7451 8.22213 14.0114C8.20041 14.2675 8.16925 14.4328 8.1348 14.5213C8.13164 14.5245 8.12736 14.5284 8.12173 14.5331C8.10862 14.544 8.09029 14.5573 8.06569 14.5729C8.01723 14.6036 7.95007 14.6398 7.86262 14.6815C7.70013 14.7421 7.43497 14.7767 7.05525 14.7767H6.97976L6.94462 14.8435C6.89291 14.9418 6.875 15.0815 6.875 15.243C6.875 15.3259 6.87979 15.3994 6.89069 15.4615C6.90123 15.5216 6.91922 15.5818 6.95291 15.6299L6.99467 15.6894L7.06708 15.6825C7.98479 15.5953 8.81871 15.5518 9.56906 15.5518C10.2269 15.5518 11.0146 15.5953 11.9329 15.6825L12.0053 15.6894L12.0471 15.6299C12.0808 15.5819 12.0988 15.5216 12.1093 15.4615C12.1202 15.3994 12.125 15.3259 12.125 15.243C12.125 15.0815 12.1071 14.9418 12.0554 14.8435L12.0202 14.7767H11.9448C11.7521 14.7767 11.569 14.7602 11.3953 14.7277C11.2934 14.6953 11.2 14.663 11.115 14.631C11.055 14.5944 11.0003 14.5322 10.9552 14.4333C10.9475 14.4126 10.9373 14.3684 10.9275 14.2917C10.9177 14.2149 10.9093 14.1143 10.9024 13.989C10.8888 13.7384 10.8819 13.3953 10.8819 12.9585V9.03002C10.9271 8.75528 10.9655 8.53919 10.9969 8.38119C11.0298 8.21579 11.053 8.1265 11.0655 8.09674ZM8.34705 5.77237L8.34699 5.77243L8.35034 5.77562C8.6323 6.04363 8.97657 6.17763 9.37569 6.17763C9.77481 6.17763 10.1191 6.04363 10.401 5.77562C10.6832 5.50737 10.8267 5.17722 10.8267 4.79224C10.8267 4.4078 10.6835 4.0851 10.3994 3.83353C10.1177 3.56658 9.77402 3.43311 9.37569 3.43311C8.97657 3.43311 8.6323 3.56711 8.35034 3.83512C8.08449 4.08783 7.95235 4.41018 7.95235 4.79224C7.95235 5.1742 8.08427 5.50338 8.34705 5.77237Z" fill="#FFFAF7" stroke="#FFFAF7" stroke-width="0.25"/>
</svg>
