<svg width="18" height="12" viewBox="0 0 18 12" fill="none" xmlns="http://www.w3.org/2000/svg">
<path d="M2 4.75C1.30964 4.75 0.75 5.30964 0.75 6C0.75 6.69036 1.30964 7.25 2 7.25L2 4.75ZM16 7.25C16.6904 7.25 17.25 6.69036 17.25 6C17.25 5.30965 16.6904 4.75 16 4.75L16 7.25ZM2 7.25L16 7.25L16 4.75L2 4.75L2 7.25Z" fill="white"/>
<path d="M12.8839 1.11612C12.3957 0.627961 11.6043 0.627961 11.1161 1.11612C10.628 1.60427 10.628 2.39573 11.1161 2.88388L12.8839 1.11612ZM16 6L16.8839 6.88388C17.372 6.39573 17.372 5.60427 16.8839 5.11612L16 6ZM11.1161 9.11612C10.628 9.60427 10.628 10.3957 11.1161 10.8839C11.6043 11.372 12.3957 11.372 12.8839 10.8839L11.1161 9.11612ZM11.1161 2.88388L15.1161 6.88388L16.8839 5.11612L12.8839 1.11612L11.1161 2.88388ZM15.1161 5.11612L11.1161 9.11612L12.8839 10.8839L16.8839 6.88388L15.1161 5.11612Z" fill="white"/>
</svg>
