<svg width="16" height="15" viewBox="0 0 16 15" fill="none" xmlns="http://www.w3.org/2000/svg">
<path d="M1 6.5C0.447715 6.5 5.96046e-08 6.94772 0 7.5C0 8.05228 0.447715 8.5 1 8.5L1 6.5ZM13 7.5L13.7144 8.19978C14.0952 7.81099 14.0952 7.18901 13.7144 6.80022L13 7.5ZM10.2858 3.30022C9.89931 2.90569 9.26618 2.89916 8.87165 3.28564C8.47712 3.67212 8.47059 4.30525 8.85707 4.69978L10.2858 3.30022ZM8.85707 10.3002C8.47059 10.6947 8.47712 11.3279 8.87165 11.7144C9.26618 12.1008 9.89931 12.0943 10.2858 11.6998L8.85707 10.3002ZM1 8.5L13 8.5V6.5L1 6.5L1 8.5ZM8.85707 4.69978L12.2856 8.19978L13.7144 6.80022L10.2858 3.30022L8.85707 4.69978ZM12.2856 6.80022L8.85707 10.3002L10.2858 11.6998L13.7144 8.19978L12.2856 6.80022Z" fill="#F94E1E"/>
</svg>
