<svg width="56" height="64" viewBox="0 0 56 64" fill="none" xmlns="http://www.w3.org/2000/svg">
<path d="M15.7784 26.985C15.7784 27.6641 15.8529 28.2147 15.9833 28.6185C16.1323 29.0222 16.3185 29.4627 16.5793 29.9399C16.6724 30.0868 16.7096 30.2336 16.7096 30.3621C16.7096 30.5456 16.5979 30.7291 16.3558 30.9127L15.1824 31.6835C15.0148 31.7937 14.8471 31.8487 14.6981 31.8487C14.5119 31.8487 14.3256 31.7569 14.1394 31.5918C13.8786 31.3165 13.6551 31.0228 13.4689 30.7291C13.2826 30.4171 13.0964 30.0684 12.8915 29.6463C11.4388 31.3348 9.61351 32.1791 7.41575 32.1791C5.85125 32.1791 4.60338 31.7386 3.69075 30.8576C2.77813 29.9766 2.3125 28.802 2.3125 27.3337C2.3125 25.7736 2.87125 24.5072 4.00738 23.5528C5.1435 22.5984 6.65213 22.1212 8.5705 22.1212C9.20375 22.1212 9.85563 22.1763 10.5448 22.2681C11.2339 22.3598 11.9416 22.5067 12.6866 22.6719V21.332C12.6866 19.9372 12.3886 18.9644 11.8113 18.3954C11.2153 17.8265 10.2095 17.5512 8.77538 17.5512C8.1235 17.5512 7.453 17.6246 6.76388 17.7898C6.07475 17.9549 5.40425 18.1568 4.75238 18.4138C4.45438 18.5423 4.23088 18.6157 4.1005 18.6524C3.97013 18.6891 3.877 18.7075 3.8025 18.7075C3.54175 18.7075 3.41138 18.5239 3.41138 18.1385V17.2392C3.41138 16.9455 3.44863 16.7252 3.54175 16.5968C3.63488 16.4683 3.8025 16.3398 4.06325 16.2113C4.71513 15.881 5.49738 15.6057 6.41 15.3854C7.32263 15.1468 8.29113 15.0367 9.31551 15.0367C11.5319 15.0367 13.1523 15.5323 14.1953 16.5234C15.2196 17.5145 15.7411 19.0195 15.7411 21.0384V26.985H15.7784ZM8.21663 29.7747C8.83125 29.7747 9.46451 29.6646 10.135 29.4444C10.8055 29.2241 11.4015 28.8204 11.9044 28.2697C12.2024 27.921 12.4259 27.5356 12.5376 27.0951C12.6494 26.6546 12.7239 26.1224 12.7239 25.4983V24.7275C12.1838 24.599 11.6064 24.4889 11.0104 24.4155C10.4144 24.342 9.83701 24.3053 9.25963 24.3053C8.01175 24.3053 7.09913 24.5439 6.4845 25.0395C5.86988 25.535 5.57188 26.2325 5.57188 27.1502C5.57188 28.0128 5.79538 28.6552 6.261 29.0957C6.708 29.5545 7.35988 29.7747 8.21663 29.7747ZM23.1725 31.7569C22.8373 31.7569 22.6138 31.7019 22.4648 31.5734C22.3158 31.4633 22.1854 31.2063 22.0736 30.8576L17.6968 16.6702C17.585 16.3031 17.5291 16.0645 17.5291 15.936C17.5291 15.6424 17.6781 15.4772 17.9761 15.4772H19.8014C20.1553 15.4772 20.3974 15.5323 20.5278 15.6607C20.6768 15.7709 20.7885 16.0278 20.9003 16.3765L24.0293 28.5267L26.9348 16.3765C27.0279 16.0095 27.1396 15.7709 27.2886 15.6607C27.4376 15.5506 27.6984 15.4772 28.0336 15.4772H29.5236C29.8775 15.4772 30.1196 15.5323 30.2686 15.6607C30.4176 15.7709 30.548 16.0278 30.6225 16.3765L33.5653 28.6735L36.7874 16.3765C36.8991 16.0095 37.0295 15.7709 37.1599 15.6607C37.3089 15.5506 37.551 15.4772 37.8863 15.4772H39.6184C39.9164 15.4772 40.084 15.624 40.084 15.936C40.084 16.0278 40.0654 16.1196 40.0468 16.2297C40.0282 16.3398 39.9909 16.4867 39.9164 16.6885L35.4278 30.876C35.316 31.243 35.1856 31.4816 35.0366 31.5918C34.8876 31.7019 34.6455 31.7753 34.3289 31.7753H32.7271C32.3733 31.7753 32.1311 31.7202 31.9821 31.5918C31.8331 31.4633 31.7028 31.2247 31.6283 30.8576L28.7414 19.0195L25.8731 30.8393C25.78 31.2063 25.6683 31.4449 25.5193 31.5734C25.3703 31.7019 25.1095 31.7569 24.7743 31.7569H23.1725ZM47.1057 32.2525C46.1372 32.2525 45.1687 32.1424 44.2374 31.9221C43.3062 31.7019 42.5798 31.4633 42.0955 31.188C41.7975 31.0228 41.5927 30.8393 41.5182 30.6741C41.4437 30.5089 41.4064 30.3254 41.4064 30.1602V29.2241C41.4064 28.8387 41.5554 28.6552 41.8348 28.6552C41.9465 28.6552 42.0583 28.6735 42.17 28.7102C42.2818 28.7469 42.4494 28.8204 42.6357 28.8938C43.2689 29.1691 43.958 29.3893 44.6844 29.5361C45.4294 29.683 46.1558 29.7564 46.9008 29.7564C48.0742 29.7564 48.9868 29.5545 49.62 29.1507C50.2533 28.7469 50.5885 28.1596 50.5885 27.4071C50.5885 26.8932 50.4209 26.4711 50.0857 26.1224C49.7504 25.7736 49.1172 25.4616 48.2045 25.168L45.5039 24.342C44.1443 23.9199 43.1385 23.2959 42.5239 22.47C41.9093 21.6624 41.5927 20.7631 41.5927 19.8087C41.5927 19.0378 41.7603 18.3587 42.0955 17.7714C42.4308 17.1841 42.8778 16.6702 43.4365 16.2664C43.9953 15.8443 44.6285 15.5323 45.3735 15.312C46.1185 15.0918 46.9008 15 47.7203 15C48.13 15 48.5584 15.0184 48.9682 15.0734C49.3965 15.1285 49.7877 15.2019 50.1788 15.2753C50.5513 15.3671 50.9052 15.4588 51.2404 15.569C51.5757 15.6791 51.8364 15.7892 52.0227 15.8993C52.2834 16.0462 52.4697 16.193 52.5814 16.3582C52.6932 16.505 52.749 16.7069 52.749 16.9638V17.8265C52.749 18.2119 52.6 18.4138 52.3207 18.4138C52.1717 18.4138 51.9295 18.3404 51.6129 18.1935C50.5513 17.7164 49.3593 17.4778 48.0369 17.4778C46.9753 17.4778 46.1372 17.6429 45.5598 17.9917C44.9824 18.3404 44.6844 18.8726 44.6844 19.6251C44.6844 20.139 44.8707 20.5795 45.2432 20.9283C45.6157 21.277 46.3048 21.6257 47.2919 21.9377L49.9367 22.7636C51.2777 23.1858 52.2462 23.7731 52.8235 24.5256C53.4009 25.2781 53.6803 26.1407 53.6803 27.0951C53.6803 27.8843 53.5127 28.6001 53.196 29.2241C52.8608 29.8482 52.4138 30.3988 51.8364 30.8393C51.259 31.2981 50.5699 31.6285 49.769 31.8671C48.9309 32.124 48.0555 32.2525 47.1057 32.2525Z" fill="#F94E1E"/>
<path fill-rule="evenodd" clip-rule="evenodd" d="M50.6287 41.1726C44.5011 45.6325 35.5984 48.0002 27.9435 48.0002C17.2155 48.0002 7.54909 44.0908 0.248088 37.5936C-0.329287 37.0797 0.192213 36.3823 0.881339 36.7861C8.77834 41.3011 18.5192 44.0358 28.5954 44.0358C35.3935 44.0358 42.8621 42.6409 49.7347 39.7777C50.7591 39.3189 51.6345 40.4384 50.6287 41.1726Z" fill="#F94E1E"/>
<path fill-rule="evenodd" clip-rule="evenodd" d="M53.1799 38.3094C52.3977 37.3183 48.0021 37.8322 46.0093 38.0708C45.4133 38.1442 45.3201 37.6303 45.8603 37.2449C49.3618 34.8222 55.1169 35.5196 55.7874 36.3272C56.4579 37.1531 55.6012 42.8244 52.3232 45.5407C51.8203 45.9629 51.336 45.7426 51.5595 45.192C52.3045 43.375 53.9622 39.2821 53.1799 38.3094Z" fill="#F94E1E"/>
</svg>
