<svg width="72" height="64" viewBox="0 0 72 64" fill="none" xmlns="http://www.w3.org/2000/svg">
<g clip-path="url(#clip0_2854_7641)">
<path d="M3.21786 0.424993C2.88997 0.420737 2.56513 0.488597 2.26615 0.623808C1.96717 0.759018 1.7013 0.958301 1.48722 1.20766C1.27313 1.45702 1.11602 1.75041 1.02691 2.06722C0.937805 2.38404 0.918868 2.7166 0.971429 3.04154L10.5079 61.1613C10.6267 61.8726 10.9914 62.519 11.5378 62.9872C12.0842 63.4553 12.7775 63.7152 13.4958 63.7212H59.2461C59.7845 63.7281 60.3075 63.5406 60.7198 63.1929C61.132 62.8452 61.4062 62.3603 61.4923 61.8267L71.0291 3.05282C71.0816 2.72789 71.0625 2.39537 70.9734 2.0786C70.8842 1.76183 70.7271 1.4685 70.513 1.2192C70.2989 0.969901 70.033 0.770675 69.734 0.635514C69.435 0.500353 69.1102 0.432533 68.7824 0.436817L3.21786 0.424993ZM43.3743 42.4305H28.7719L24.8181 21.6928H46.9127L43.3743 42.4305Z" fill="#F94E1E"/>
<path d="M67.9383 21.6637H46.8719L43.3363 42.3849H28.7457L11.5176 62.9145C12.0636 63.3884 12.7598 63.652 13.4816 63.658H59.2067C59.7448 63.6649 60.2674 63.4776 60.6794 63.1302C61.0914 62.7828 61.3655 62.2984 61.4515 61.7651L67.9383 21.6637Z" fill="#FF756C"/>
</g>
<defs>
<clipPath id="clip0_2854_7641">
<rect width="70.6448" height="64" fill="white" transform="translate(0.677734)"/>
</clipPath>
</defs>
</svg>
