<svg width="56" height="64" viewBox="0 0 56 64" fill="none" xmlns="http://www.w3.org/2000/svg">
<path d="M27.9954 49.1373C27.3734 49.1373 26.7557 48.9686 26.2104 48.6439L20.5285 45.1649C19.6798 44.6741 20.0939 44.5005 20.3738 44.4005C21.5053 43.9907 21.735 43.8982 22.9428 43.1888C23.0697 43.1139 23.2359 43.1404 23.3658 43.2197L27.7309 45.8985C27.8885 45.9866 28.1122 45.9866 28.2583 45.8985L45.278 35.7384C45.4356 35.6459 45.5379 35.4564 45.5379 35.2625V14.9511C45.5379 14.7484 45.4356 14.5678 45.2746 14.4664L28.2617 4.3151C28.1041 4.21816 27.8953 4.21816 27.7377 4.3151L10.7282 14.4664C10.5633 14.5633 10.4585 14.7528 10.4585 14.9467V35.2581C10.4585 35.452 10.5607 35.637 10.7226 35.7296L15.3833 38.5141C17.9139 39.8227 19.4604 38.2806 19.4604 36.7297V16.6826C19.4604 16.3962 19.6777 16.1759 19.9546 16.1759H22.1103C22.3787 16.1759 22.6002 16.3962 22.6002 16.6826V36.7385C22.6002 40.228 20.7598 42.2328 17.5603 42.2328C16.5762 42.2328 15.8009 42.2328 13.6366 41.1313L9.17189 38.4701C8.06848 37.8092 7.38684 36.5755 7.38684 35.2581V14.9467C7.38684 13.6249 8.06848 12.3912 9.17189 11.7391L26.2087 1.57459C27.2865 0.944538 28.718 0.944538 29.7873 1.57459L46.8028 11.7435C47.9019 12.4 48.5878 13.6293 48.5878 14.9511V35.2625C48.5878 36.5799 47.9019 37.8092 46.8028 38.4701L29.7873 48.6346C29.242 48.9607 28.6242 49.1281 27.9937 49.1281" fill="#F94E1E"/>
<path d="M33.2526 35.1412C25.8056 35.1412 24.2443 31.6059 24.2443 28.6407C24.2443 28.3587 24.4641 28.134 24.7372 28.134H26.9355C27.1783 28.134 27.3828 28.3169 27.4211 28.5649C27.7534 30.8816 28.7418 32.05 33.2449 32.05C36.832 32.05 38.3572 31.212 38.3572 29.2447C38.3572 28.1124 37.9227 27.2709 32.3503 26.7069C27.6895 26.2311 24.8096 25.1692 24.8096 21.314C24.8096 17.7628 27.7066 15.6479 32.559 15.6479C38.0079 15.6479 40.7089 17.6042 41.0497 21.8075C41.0625 21.9529 41.0114 22.0939 40.9176 22.1996C40.8239 22.301 40.6918 22.3626 40.5555 22.3626H38.3444C38.1144 22.3626 37.9141 22.1952 37.8673 21.9661C37.3347 19.5296 36.0482 18.7497 32.5505 18.7497C28.6353 18.7497 28.1795 20.1597 28.1795 21.2171C28.1795 22.4992 28.7163 22.8737 33.999 23.5963C39.2306 24.3145 41.7143 25.3278 41.7143 29.1302C41.7143 32.9634 38.6213 35.162 33.2279 35.162L33.2526 35.1412Z" fill="#F94E1E"/>
<g clip-path="url(#clip0_2854_27492)">
<path d="M7.58301 56.5084C7.76434 55.7012 8.0281 54.9445 8.67102 54.3895C9.56121 53.5991 10.5998 53.515 11.6548 53.885C12.7758 54.2718 13.2703 55.2303 13.4517 56.3571C13.6165 57.3661 13.6 57.3829 12.578 57.3829C11.2427 57.3829 9.90739 57.3829 8.58859 57.3829C8.29186 57.3829 8.17647 57.4838 8.19295 57.8033C8.29186 59.7036 10.1547 60.8135 11.7867 59.9054C12.2977 59.6195 12.578 59.1487 12.7593 58.5937C12.8417 58.3078 13.0066 58.2237 13.2538 58.291C13.5176 58.3415 13.3528 58.5433 13.3198 58.7114C12.8582 60.3763 11.5064 60.9481 9.89091 60.6958C8.63805 60.4772 7.97865 59.6195 7.68192 58.4255C7.64895 58.291 7.61598 58.1565 7.58301 58.0219C7.58301 57.5174 7.58301 57.0129 7.58301 56.5084ZM10.5009 56.8111C11.1603 56.8111 11.8197 56.8111 12.4791 56.8111C12.6604 56.8111 12.8582 56.8279 12.8417 56.5421C12.7758 55.4153 12.0175 54.3559 10.8306 54.255C9.4623 54.1372 8.45671 55.0285 8.20944 56.5252C8.15998 56.8111 8.34132 56.8111 8.52265 56.8111C9.18205 56.8111 9.84145 56.8111 10.5009 56.8111Z" fill="#F94E1E"/>
<path d="M20.7876 59.5189C20.7876 60.528 20.7876 61.4529 20.7876 62.3778C20.7876 62.4955 20.7876 62.6301 20.7711 62.7478C20.7546 62.9159 20.6557 62.9832 20.4908 62.9832C20.326 62.9832 20.1941 62.9328 20.1776 62.731C20.1776 62.6301 20.1611 62.5292 20.1611 62.4451C20.1611 59.7376 20.1611 57.0301 20.1611 54.3394C20.1611 54.2385 20.1611 54.1376 20.1776 54.0535C20.1941 53.8853 20.3095 53.818 20.4579 53.818C20.6227 53.818 20.7546 53.8685 20.7711 54.0703C20.7711 54.373 20.7711 54.6757 20.7711 55.1298C21.0019 54.7934 21.1502 54.558 21.3645 54.3562C22.4525 53.3135 24.7275 53.4649 25.5847 54.9952C26.376 56.391 26.376 57.8709 25.7166 59.3003C25.1891 60.4439 23.9362 60.9484 22.5844 60.6961C21.7437 60.5448 21.414 60.3262 20.7876 59.5189ZM25.5517 57.0637C25.5847 56.7105 25.4693 56.1892 25.255 55.7015C24.8923 54.8271 24.2659 54.3057 23.3098 54.2385C22.3042 54.1712 21.5459 54.5748 21.1173 55.5334C20.7216 56.4583 20.7381 57.4168 20.9359 58.3754C21.1008 59.1826 21.5129 59.8048 22.2712 60.0403C23.0955 60.2925 23.9362 60.2757 24.6451 59.6535C25.3539 59.0144 25.5352 58.1736 25.5517 57.0637Z" fill="#F94E1E"/>
<path d="M33.4647 57.3662C32.7889 57.3662 32.113 57.3662 31.4536 57.3662C30.8766 57.3662 30.8601 57.3662 30.9261 57.9716C31.1898 60.0569 32.9207 60.5782 34.3879 59.9391C34.866 59.7205 35.1462 59.3169 35.344 58.8292C35.3935 58.7115 35.4265 58.5938 35.4759 58.4761C35.5583 58.2238 35.7562 58.2238 35.954 58.2743C36.1683 58.3415 36.0859 58.5265 36.0529 58.6611C35.7726 59.8551 34.7835 60.6454 33.5637 60.7295C30.9755 60.9145 30.1183 58.8124 30.2831 56.8112C30.3491 55.9872 30.5964 55.2136 31.1733 54.5914C32.047 53.6328 33.135 53.4983 34.2725 53.8346C35.3605 54.171 35.888 55.0623 36.1188 56.1554C36.1683 56.4076 36.1848 56.6599 36.2012 56.9121C36.2342 57.2316 36.1023 57.3662 35.7726 57.3662C34.9978 57.3493 34.2395 57.3662 33.4647 57.3662ZM33.234 56.8112C33.9098 56.8112 34.5857 56.8112 35.2451 56.8112C35.4594 56.8112 35.5913 56.7776 35.5583 56.5085C35.4429 55.2977 34.5198 54.3223 33.4812 54.2382C32.1295 54.1373 31.2063 55.1127 30.9425 56.3235C30.8766 56.6599 30.959 56.828 31.3382 56.8112C31.9646 56.7944 32.6075 56.8112 33.234 56.8112Z" fill="#F94E1E"/>
<path d="M39.5472 53.7003C40.3549 53.6835 41.0638 53.7844 41.6078 54.3898C41.9045 54.7262 42.0694 55.113 42.0859 55.567C42.0859 55.7352 42.0859 55.8865 41.8881 55.9034C41.7067 55.9202 41.5913 55.8697 41.5254 55.6679C41.1133 54.3058 39.5801 53.7508 38.3932 54.5244C38.047 54.743 37.7668 55.0457 37.7998 55.5166C37.8327 55.9706 38.0965 56.2397 38.4757 56.4415C39.0032 56.7106 39.5802 56.7442 40.1406 56.9124C40.4374 56.9964 40.7671 57.0469 41.0638 57.1478C41.9045 57.4505 42.3002 57.9382 42.3331 58.7286C42.3661 59.5694 42.0364 60.1748 41.1957 60.4775C40.1242 60.8811 39.0361 60.8979 38.0141 60.3094C37.4536 59.973 37.1239 59.4517 37.0415 58.779C37.025 58.6109 36.9426 58.3922 37.2228 58.3418C37.4536 58.2913 37.5855 58.4091 37.6349 58.6445C37.8327 59.6535 38.7724 60.2421 39.7945 60.1916C40.2395 60.158 40.6682 60.1412 41.0803 59.9226C41.4924 59.704 41.7232 59.3676 41.7397 58.8967C41.7562 58.4091 41.5254 58.0559 41.1133 57.8541C40.7341 57.6523 40.322 57.5178 39.9099 57.4673C39.3658 57.3832 38.8218 57.2655 38.3273 57.0469C37.5195 56.6937 37.1733 56.122 37.2558 55.3484C37.3382 54.558 37.8163 54.0367 38.6405 53.8349C38.9207 53.7172 39.2669 53.6835 39.5472 53.7003Z" fill="#F94E1E"/>
<path d="M45.696 53.7003C46.6027 53.6835 47.394 53.8349 47.9215 54.6253C48.1193 54.928 48.2182 55.2475 48.2347 55.6175C48.2347 55.7856 48.1853 55.9202 47.9875 55.937C47.8061 55.9538 47.6577 55.9034 47.6413 55.6847C47.5753 54.9616 47.1797 54.5244 46.5203 54.3562C45.7455 54.1712 44.9542 54.1544 44.2948 54.7262C43.7178 55.2139 43.8827 56.1052 44.5915 56.4583C45.1355 56.7274 45.7125 56.7946 46.2895 56.9292C46.6192 56.9964 46.9654 57.0805 47.2786 57.1982C47.9215 57.4673 48.3501 57.8709 48.4161 58.6445C48.482 59.5022 48.1853 60.158 47.394 60.4607C46.3554 60.8811 45.2839 60.9316 44.2454 60.3934C43.6024 60.0571 43.2563 59.4853 43.1244 58.779C43.0914 58.6109 43.042 58.3922 43.3222 58.3586C43.5365 58.325 43.6849 58.3922 43.7343 58.6445C43.9486 59.6367 44.608 60.0907 45.5477 60.1748C46.1411 60.2253 46.7346 60.1748 47.2621 59.8553C48.0534 59.3844 48.0699 58.3418 47.2786 57.8709C46.883 57.6355 46.4379 57.5178 45.9928 57.4337C45.4158 57.3328 44.8223 57.2319 44.2948 56.9628C43.5365 56.5592 43.2563 56.0547 43.3552 55.197C43.4211 54.5916 43.9486 54.0199 44.6575 53.8349C45.0037 53.7172 45.3663 53.6835 45.696 53.7003Z" fill="#F94E1E"/>
<path d="M19.0895 60.6288C18.8092 60.6624 18.6609 60.4774 18.529 60.2756C17.9685 59.4852 17.3915 58.6948 16.831 57.8876C16.6332 57.6017 16.5013 57.5849 16.287 57.8876C15.743 58.6612 15.1825 59.418 14.622 60.1747C14.4737 60.3765 14.3418 60.6456 14.0286 60.612C13.9132 60.5951 13.7648 60.6456 13.6989 60.5111C13.6494 60.3933 13.7648 60.3093 13.8308 60.2252C14.4902 59.3339 15.1496 58.4258 15.809 57.5345C16.1881 57.03 16.1881 57.03 15.7925 56.5423C15.232 55.8023 14.6715 55.0624 14.111 54.3225C14.0121 54.1879 13.7813 54.0366 13.9461 53.8852C14.111 53.7339 14.3912 53.7675 14.5891 53.9357C14.688 54.0198 14.7704 54.1543 14.8528 54.2552C15.3474 54.9279 15.8419 55.6005 16.3365 56.2732C16.5178 56.5087 16.6332 56.5087 16.7981 56.2732C17.2926 55.6005 17.7872 54.9279 18.2817 54.2552C18.3641 54.1375 18.4466 54.0198 18.5455 53.9357C18.7268 53.7843 19.007 53.7507 19.1554 53.8852C19.3532 54.0534 19.0895 54.2047 19.007 54.3225C18.4136 55.1465 17.8036 55.9537 17.1772 56.7609C16.9959 56.9963 17.0124 57.1477 17.1772 57.3831C17.8861 58.3249 18.5784 59.2834 19.2873 60.242C19.3532 60.3429 19.5016 60.4102 19.4357 60.5615C19.3697 60.6624 19.2049 60.612 19.0895 60.6288Z" fill="#F94E1E"/>
<path d="M27.7772 54.9109C28.3871 54.2382 29.096 53.8682 29.9367 53.801C30.1181 53.7842 30.2994 53.801 30.3159 54.0701C30.3324 54.3055 30.2335 54.4232 30.0027 54.4064C28.7663 54.3559 27.6948 55.5499 27.7607 56.9962C27.8102 58.0388 27.7772 59.0646 27.7607 60.1073C27.7607 60.3427 27.8102 60.6286 27.4475 60.6118C27.1013 60.6118 27.1672 60.3427 27.1672 60.1241C27.1672 58.1902 27.1672 56.2562 27.1672 54.3223C27.1672 54.0869 27.1013 53.801 27.4805 53.8178C27.8596 53.8346 27.7607 54.1205 27.7772 54.3391C27.7937 54.5409 27.7772 54.7259 27.7772 54.9109Z" fill="#F94E1E"/>
</g>
<defs>
<clipPath id="clip0_2854_27492">
<rect width="40.8333" height="9.33333" fill="white" transform="translate(7.58337 53.6667)"/>
</clipPath>
</defs>
</svg>
