<svg width="44" height="64" viewBox="0 0 44 64" fill="none" xmlns="http://www.w3.org/2000/svg">
<g clip-path="url(#clip0_2854_7581)">
<path d="M11.2873 64C17.2004 64 21.9995 59.2213 21.9995 53.3333V42.6666H11.2873C5.37424 42.6666 0.575195 47.4453 0.575195 53.3333C0.575195 59.2213 5.37424 64 11.2873 64Z" fill="#F94E1E"/>
<path d="M0.575195 32C0.575195 26.112 5.37424 21.3334 11.2873 21.3334H21.9995V42.6667H11.2873C5.37424 42.6667 0.575195 37.888 0.575195 32Z" fill="#FF756C"/>
<path d="M0.575195 10.6667C0.575195 4.77867 5.37424 0 11.2873 0H21.9995V21.3333H11.2873C5.37424 21.3333 0.575195 16.5547 0.575195 10.6667Z" fill="#F94E1E"/>
<path d="M22 0H32.7121C38.6252 0 43.4243 4.77867 43.4243 10.6667C43.4243 16.5547 38.6252 21.3333 32.7121 21.3333H22V0Z" fill="#FF756C"/>
<path d="M43.4243 32C43.4243 37.888 38.6252 42.6667 32.7121 42.6667C26.799 42.6667 22 37.888 22 32C22 26.112 26.799 21.3334 32.7121 21.3334C38.6252 21.3334 43.4243 26.112 43.4243 32Z" fill="#F94E1E"/>
</g>
<defs>
<clipPath id="clip0_2854_7581">
<rect width="42.8571" height="64" fill="white" transform="translate(0.571289)"/>
</clipPath>
</defs>
</svg>
