<svg width="44" height="64" viewBox="0 0 44 64" fill="none" xmlns="http://www.w3.org/2000/svg">
<path d="M36.0772 15.1196L0.5 51.0335L20.2814 61.9106C21.5149 62.5888 23.0098 62.588 24.2425 61.9083L43.9665 51.0335L38.0678 15.7517C37.9101 14.8084 36.7504 14.44 36.0772 15.1196Z" fill="#F94E1E"/>
<path d="M21.2243 11.54L0.5 51.0335L28.9497 22.2905L23.3017 11.5395C22.862 10.7025 21.6636 10.7028 21.2243 11.54Z" fill="#F94E1E"/>
<path d="M17.9804 17.6565L0.5 51.0336L23.3771 27.9219L17.9804 17.6565Z" fill="#FF756C"/>
<path d="M7.77823 3.42404L0.5 51.0335L17.9804 17.6564L9.9667 3.0374C9.4275 2.05377 7.94774 2.3152 7.77823 3.42404Z" fill="#F94E1E"/>
</svg>
