<svg width="23" height="22" viewBox="0 0 23 22" fill="none" xmlns="http://www.w3.org/2000/svg">
<path d="M0.119141 10.0713C0.175577 9.6787 0.219472 9.28607 0.28845 8.89343C0.539278 7.35356 1.14754 5.95479 2.04425 4.67259C3.40499 2.73394 5.22977 1.37812 7.48723 0.592845C9.01728 0.0591049 10.6038 -0.0942688 12.2216 0.0529699C14.2408 0.237018 16.053 0.936403 17.6709 2.11431C19.6399 3.54989 20.9755 5.42718 21.6778 7.72779C22.1293 9.20631 22.2234 10.7155 22.0102 12.237C21.5838 15.2431 20.0537 17.6235 17.6144 19.4517C16.7303 20.1143 15.7269 20.5866 14.6735 20.9425C14.1906 21.102 13.8583 20.875 13.8583 20.3781C13.852 19.4455 13.8583 18.513 13.8583 17.5805C13.8583 17.1143 13.8332 16.6541 13.6263 16.2247C13.5071 15.9732 13.3378 15.7462 13.1873 15.5069C13.5886 15.4333 14.0276 15.3781 14.4477 15.2738C15.5702 14.9916 16.5735 14.5069 17.2507 13.5437C17.7461 12.8443 17.9719 12.0407 18.0722 11.2063C18.1474 10.5744 18.1725 9.93637 18.0471 9.30447C17.9092 8.59895 17.5956 7.97932 17.119 7.43945C17.0313 7.34129 17.0187 7.26153 17.0626 7.14497C17.3761 6.26154 17.257 5.39651 16.9184 4.54375C16.8996 4.48854 16.8055 4.43946 16.7428 4.43332C16.3603 4.37811 15.9966 4.48854 15.6642 4.64191C15.1124 4.89958 14.5731 5.19406 14.0213 5.45786C13.921 5.50694 13.7893 5.53761 13.6827 5.51307C11.9708 5.0959 10.2589 5.0959 8.54071 5.51307C8.44038 5.53761 8.29615 5.51307 8.20836 5.45172C7.51231 5.01614 6.77237 4.67259 5.96972 4.464C5.95717 4.45786 5.94463 4.45786 5.92582 4.45173C5.41162 4.34743 5.32383 4.40265 5.17333 4.89344C4.94759 5.66031 4.90369 6.42105 5.17961 7.18178C5.20469 7.24313 5.17961 7.35356 5.13571 7.3965C4.21392 8.42104 4.00071 9.63576 4.1324 10.9486C4.20765 11.7155 4.3895 12.4517 4.74066 13.1388C5.23604 14.1143 6.07632 14.7094 7.0859 15.0529C7.68789 15.2554 8.33377 15.3413 8.96085 15.4824C8.9922 15.4885 9.02982 15.4946 9.03609 15.4946C8.87306 15.7768 8.71002 16.0591 8.55952 16.3474C8.50935 16.4456 8.47173 16.5621 8.46546 16.6664C8.45919 16.8934 8.33377 16.9977 8.12684 17.0529C7.43079 17.237 6.74101 17.3535 6.07005 16.9548C5.71889 16.7462 5.46179 16.4517 5.25485 16.1081C4.93505 15.5805 4.4961 15.194 3.89411 15.0222C3.67463 14.9609 3.41754 14.9732 3.17925 14.9916C3.03502 14.9977 2.98486 15.1143 3.08519 15.237C3.18552 15.3535 3.27958 15.4946 3.41126 15.5683C4.00071 15.9057 4.33306 16.4333 4.59643 17.0161C4.74693 17.3474 4.89115 17.6848 5.17961 17.9363C5.64364 18.3413 6.20173 18.4946 6.79745 18.5192C7.31792 18.5437 7.83212 18.5253 8.39021 18.5253C8.39021 18.832 8.39021 19.1879 8.39021 19.5437C8.39021 19.8198 8.40275 20.0897 8.40275 20.3658C8.40275 20.8689 8.06413 21.1142 7.57502 20.9486C5.94463 20.4026 4.51491 19.5498 3.3172 18.3413C2.15712 17.1756 1.26668 15.8321 0.714858 14.2799C0.401323 13.4026 0.225743 12.5008 0.150494 11.5744C0.144223 11.4946 0.125411 11.4088 0.119141 11.329C0.119141 10.9118 0.119141 10.4947 0.119141 10.0713Z" fill="#323232"/>
</svg>
