<svg width="23" height="22" viewBox="0 0 23 22" fill="none" xmlns="http://www.w3.org/2000/svg">
<path d="M0.118942 10.0713C0.175379 9.6787 0.219274 9.28607 0.288252 8.89343C0.53908 7.35356 1.14734 5.95479 2.04405 4.67259C3.4048 2.73394 5.22957 1.37812 7.48703 0.592845C9.01708 0.0591049 10.6036 -0.0942688 12.2214 0.0529699C14.2406 0.237018 16.0528 0.936403 17.6707 2.11431C19.6397 3.54989 20.9753 5.42718 21.6777 7.72779C22.1291 9.20631 22.2232 10.7155 22.01 12.237C21.5836 15.2431 20.0535 17.6235 17.6142 19.4517C16.7301 20.1143 15.7267 20.5866 14.6733 20.9425C14.1904 21.102 13.8581 20.875 13.8581 20.3781C13.8518 19.4455 13.8581 18.513 13.8581 17.5805C13.8581 17.1143 13.833 16.6541 13.6261 16.2247C13.5069 15.9732 13.3376 15.7462 13.1871 15.5069C13.5884 15.4333 14.0274 15.3781 14.4475 15.2738C15.57 14.9916 16.5733 14.5069 17.2505 13.5437C17.7459 12.8443 17.9717 12.0407 18.072 11.2063C18.1472 10.5744 18.1723 9.93637 18.0469 9.30447C17.909 8.59895 17.5954 7.97932 17.1188 7.43945C17.0311 7.34129 17.0185 7.26153 17.0624 7.14497C17.3759 6.26154 17.2568 5.39651 16.9182 4.54375C16.8994 4.48854 16.8053 4.43946 16.7426 4.43332C16.3601 4.37811 15.9964 4.48854 15.664 4.64191C15.1122 4.89958 14.5729 5.19406 14.0211 5.45786C13.9208 5.50694 13.7891 5.53761 13.6825 5.51307C11.9706 5.0959 10.2587 5.0959 8.54051 5.51307C8.44018 5.53761 8.29595 5.51307 8.20816 5.45172C7.51211 5.01614 6.77217 4.67259 5.96952 4.464C5.95698 4.45786 5.94443 4.45786 5.92562 4.45173C5.41142 4.34743 5.32363 4.40265 5.17314 4.89344C4.94739 5.66031 4.9035 6.42105 5.17941 7.18178C5.20449 7.24313 5.17941 7.35356 5.13551 7.3965C4.21372 8.42104 4.00051 9.63576 4.1322 10.9486C4.20745 11.7155 4.3893 12.4517 4.74046 13.1388C5.23584 14.1143 6.07612 14.7094 7.0857 15.0529C7.68769 15.2554 8.33358 15.3413 8.96065 15.4824C8.992 15.4885 9.02962 15.4946 9.0359 15.4946C8.87286 15.7768 8.70982 16.0591 8.55932 16.3474C8.50916 16.4456 8.47153 16.5621 8.46526 16.6664C8.45899 16.8934 8.33358 16.9977 8.12664 17.0529C7.43059 17.237 6.74081 17.3535 6.06985 16.9548C5.71869 16.7462 5.46159 16.4517 5.25466 16.1081C4.93485 15.5805 4.4959 15.194 3.89391 15.0222C3.67444 14.9609 3.41734 14.9732 3.17905 14.9916C3.03482 14.9977 2.98466 15.1143 3.08499 15.237C3.18532 15.3535 3.27938 15.4946 3.41107 15.5683C4.00051 15.9057 4.33286 16.4333 4.59623 17.0161C4.74673 17.3474 4.89095 17.6848 5.17941 17.9363C5.64344 18.3413 6.20153 18.4946 6.79725 18.5192C7.31772 18.5437 7.83192 18.5253 8.39001 18.5253C8.39001 18.832 8.39001 19.1879 8.39001 19.5437C8.39001 19.8198 8.40255 20.0897 8.40255 20.3658C8.40255 20.8689 8.06394 21.1142 7.57482 20.9486C5.94443 20.4026 4.51471 19.5498 3.31701 18.3413C2.15692 17.1756 1.26648 15.8321 0.71466 14.2799C0.401124 13.4026 0.225544 12.5008 0.150296 11.5744C0.144025 11.4946 0.125213 11.4088 0.118942 11.329C0.118942 10.9118 0.118942 10.4947 0.118942 10.0713Z" fill="white"/>
</svg>
