<svg width="21" height="21" viewBox="0 0 21 21" fill="none" xmlns="http://www.w3.org/2000/svg">
<path d="M10.7384 9.736V12.36H17.0104C16.8184 13.832 16.328 14.9096 15.5808 15.6664C14.6632 16.584 13.2344 17.5864 10.7384 17.5864C6.8768 17.5864 3.8584 14.472 3.8584 10.6104C3.8584 6.7488 6.8768 3.6344 10.7384 3.6344C12.8184 3.6344 14.344 4.456 15.464 5.512L17.3096 3.6664C15.752 2.152 13.6608 1 10.7384 1C5.448 1 1 5.3096 1 10.6C1 15.8904 5.448 20.2 10.7384 20.2C13.5968 20.2 15.752 19.2616 17.4368 17.512C19.1648 15.784 19.7088 13.3416 19.7088 11.3784C19.7088 10.7704 19.6664 10.2048 19.5704 9.736H10.7384Z" fill="#323232" stroke="#323232" stroke-linejoin="round"/>
</svg>
