<svg width="48" height="64" viewBox="0 0 48 64" fill="none" xmlns="http://www.w3.org/2000/svg">
<g clip-path="url(#clip0_2854_7937)">
<mask id="mask0_2854_7937" style="mask-type:alpha" maskUnits="userSpaceOnUse" x="0" y="0" width="48" height="64">
<path d="M29.7844 0H5.19979C2.81364 0 0.861328 1.96364 0.861328 4.36364V59.6364C0.861328 62.0364 2.81364 64 5.19979 64H42.7998C45.1859 64 47.1383 62.0364 47.1383 59.6364V17.4545L29.7844 0Z" fill="white"/>
</mask>
<g mask="url(#mask0_2854_7937)">
<path d="M29.7844 0H5.19979C2.81364 0 0.861328 1.96364 0.861328 4.36364V59.6364C0.861328 62.0364 2.81364 64 5.19979 64H42.7998C45.1859 64 47.1383 62.0364 47.1383 59.6364V17.4545L37.0152 10.1818L29.7844 0Z" fill="#F94E1E"/>
</g>
<mask id="mask1_2854_7937" style="mask-type:alpha" maskUnits="userSpaceOnUse" x="0" y="0" width="48" height="64">
<path d="M29.7844 0H5.19979C2.81364 0 0.861328 1.96364 0.861328 4.36364V59.6364C0.861328 62.0364 2.81364 64 5.19979 64H42.7998C45.1859 64 47.1383 62.0364 47.1383 59.6364V17.4545L29.7844 0Z" fill="white"/>
</mask>
<g mask="url(#mask1_2854_7937)">
<path d="M12.4307 46.5455H35.5691V43.6364H12.4307V46.5455ZM12.4307 52.3636H29.7845V49.4545H12.4307V52.3636ZM12.4307 32V34.9091H35.5691V32H12.4307ZM12.4307 40.7273H35.5691V37.8182H12.4307V40.7273Z" fill="white"/>
</g>
<mask id="mask2_2854_7937" style="mask-type:alpha" maskUnits="userSpaceOnUse" x="0" y="0" width="48" height="64">
<path d="M29.7844 0H5.19979C2.81364 0 0.861328 1.96364 0.861328 4.36364V59.6364C0.861328 62.0364 2.81364 64 5.19979 64H42.7998C45.1859 64 47.1383 62.0364 47.1383 59.6364V17.4545L29.7844 0Z" fill="white"/>
</mask>
<g mask="url(#mask2_2854_7937)">
<path d="M29.7842 0V13.0909C29.7842 15.5018 31.7256 17.4545 34.1226 17.4545H47.138L29.7842 0Z" fill="#FF756C"/>
</g>
<mask id="mask3_2854_7937" style="mask-type:alpha" maskUnits="userSpaceOnUse" x="0" y="0" width="48" height="64">
<path d="M29.7844 0H5.19979C2.81364 0 0.861328 1.96364 0.861328 4.36364V59.6364C0.861328 62.0364 2.81364 64 5.19979 64H42.7998C45.1859 64 47.1383 62.0364 47.1383 59.6364V17.4545L29.7844 0Z" fill="white"/>
</mask>
<g mask="url(#mask3_2854_7937)">
<path d="M5.19979 0C2.81364 0 0.861328 1.96364 0.861328 4.36364V4.72727C0.861328 2.32727 2.81364 0.363636 5.19979 0.363636H29.7844V0H5.19979Z" fill="white"/>
</g>
</g>
<defs>
<clipPath id="clip0_2854_7937">
<rect width="46.2769" height="64" fill="white" transform="translate(0.861328)"/>
</clipPath>
</defs>
</svg>
