<svg width="66" height="64" viewBox="0 0 66 64" fill="none" xmlns="http://www.w3.org/2000/svg">
<g clip-path="url(#clip0_2854_14878)">
<path d="M49.2703 12.3729C50.4079 13.1627 51.2882 14.2385 52.155 15.3007C54.322 17.9561 55.8795 20.952 56.8275 24.2611C56.9223 24.5743 57.0984 24.7649 57.3421 24.942C61.3916 27.9923 63.9107 32.0231 64.615 37.0616C65.4005 42.5631 63.9513 47.4927 60.3217 51.7005C57.4234 55.0641 53.7531 57.0795 49.3786 57.7876C48.8504 57.8693 48.3087 57.9646 47.7669 57.9646C42.7423 57.9783 37.7042 57.9783 32.6796 57.9783C32.6796 54.2334 32.666 50.5022 32.666 46.7574C32.8963 46.7437 33.1129 46.7301 33.3432 46.7301C37.8938 46.7301 42.4579 46.771 47.0085 46.7029C51.058 46.6348 54.2542 42.6176 53.5364 38.614C52.9405 35.305 50.4485 33.0036 47.1169 32.704C46.7376 32.6631 46.6293 32.5542 46.6293 32.1865C46.6293 31.4648 46.6157 30.7294 46.548 30.0077C46.1824 26.0995 44.4759 22.8857 41.4422 20.3937C41.5234 20.1213 41.7672 19.9579 41.9433 19.7673C44.3946 17.3025 46.8324 14.8377 49.2703 12.3729Z" fill="#FF756C"/>
<path d="M7.77318 54.2878C5.43016 52.6401 3.68306 50.4613 2.42352 47.9012C-1.55825 39.9076 0.811854 30.3072 8.01696 25.0508C8.17948 24.9283 8.32846 24.7921 8.47744 24.6695C9.33067 24.2065 10.1568 23.7027 11.0236 23.2805C14.6126 21.5783 18.3777 21.2243 22.2511 21.9052C22.4272 21.946 22.6032 22.0005 22.7793 22.0413C26.8288 22.9946 30.1469 25.1053 32.815 28.3054C33.1536 28.7003 33.0858 28.891 32.7473 29.2314C30.323 31.6281 27.9123 34.0657 25.5015 36.476C25.3661 36.6122 25.2713 36.8028 25.0275 36.83C24.6212 36.013 24.093 35.2913 23.4294 34.6512C21.3031 32.6222 17.9578 32.2001 15.3304 33.6435C12.6894 35.1006 11.2403 38.1646 11.8227 41.0515C12.2967 43.421 13.6781 45.0823 15.7909 46.1581C15.6284 46.3351 15.4658 46.5258 15.2898 46.7028C12.7842 49.2493 10.2787 51.7685 7.77318 54.2878Z" fill="#FF756C"/>
<path d="M22.2643 21.9052C18.3773 21.2243 14.6258 21.5784 11.0368 23.2806C10.17 23.6891 9.34388 24.2066 8.49064 24.6696C8.17915 24.4926 8.39584 24.2747 8.45001 24.084C9.8179 19.4677 12.3234 15.573 15.9124 12.3865C20.9371 7.91994 26.842 5.78198 33.546 6.0271C39.5322 6.24498 44.787 8.38294 49.2835 12.3865C46.8456 14.8513 44.4078 17.3161 41.97 19.7809C41.7804 19.9715 41.5502 20.1213 41.4689 20.4073C41.3335 20.3256 41.1845 20.2575 41.0626 20.1622C39.0311 18.637 36.7829 17.6838 34.2502 17.4114C29.4965 16.8939 25.5147 18.4055 22.2643 21.9052Z" fill="#F94E1E"/>
<path d="M7.77344 54.2878C10.279 51.7686 12.798 49.2357 15.3036 46.7165C15.4796 46.5394 15.6286 46.3488 15.8047 46.1718C17.3757 46.8118 19.0145 46.7573 20.6532 46.7437C24.6621 46.7437 28.6709 46.7437 32.6933 46.7573C32.6933 50.5021 32.7069 54.2334 32.7069 57.9782C27.6416 57.9782 22.5629 58.0735 17.4976 57.9237C13.8951 57.8284 10.6446 56.4939 7.77344 54.2878Z" fill="#F94E1E"/>
</g>
<defs>
<clipPath id="clip0_2854_14878">
<rect width="65" height="64" fill="white" transform="translate(0.5)"/>
</clipPath>
</defs>
</svg>
