<svg width="24" height="24" viewBox="0 0 24 24" fill="none" xmlns="http://www.w3.org/2000/svg">
<path d="M12 1C9.01167 1 8.63858 1.01375 7.46525 1.066C6.29375 1.121 5.49625 1.30525 4.795 1.5775C4.07175 1.858 3.45758 2.23475 2.84617 2.84617C2.23475 3.45758 1.85708 4.07083 1.5775 4.795C1.30525 5.49625 1.12008 6.29375 1.066 7.46525C1.011 8.63858 1 9.01167 1 12C1 14.9883 1.01375 15.3614 1.066 16.5348C1.121 17.7053 1.30525 18.5038 1.5775 19.205C1.85368 19.9391 2.28663 20.6042 2.84617 21.1538C3.3955 21.7138 4.06066 22.1468 4.795 22.4225C5.49717 22.6938 6.29467 22.8799 7.46525 22.934C8.63858 22.989 9.01167 23 12 23C14.9883 23 15.3614 22.9862 16.5348 22.934C17.7053 22.879 18.5038 22.6938 19.205 22.4225C19.9389 22.146 20.6039 21.7131 21.1538 21.1538C21.7139 20.6046 22.147 19.9395 22.4225 19.205C22.6938 18.5038 22.8799 17.7053 22.934 16.5348C22.989 15.3614 23 14.9883 23 12C23 9.01167 22.9862 8.63858 22.934 7.46525C22.879 6.29467 22.6938 5.49533 22.4225 4.795C22.1462 4.06095 21.7133 3.39592 21.1538 2.84617C20.6049 2.28575 19.9396 1.85267 19.205 1.5775C18.5038 1.30525 17.7053 1.12008 16.5348 1.066C15.3614 1.011 14.9883 1 12 1ZM12 2.98C14.9361 2.98 15.2863 2.99467 16.4458 3.04508C17.5183 3.0955 18.1004 3.27333 18.4872 3.4255C19.0024 3.62442 19.3673 3.86275 19.7541 4.24683C20.1382 4.63183 20.3765 4.99758 20.5754 5.51275C20.7257 5.89958 20.9054 6.48167 20.954 7.55417C21.0063 8.71467 21.0182 9.063 21.0182 12C21.0182 14.937 21.0044 15.2863 20.9503 16.4458C20.8944 17.5183 20.7157 18.1004 20.5644 18.4872C20.3855 18.9646 20.1042 19.397 19.7403 19.7541C19.3848 20.1183 18.9527 20.3988 18.4753 20.5754C18.0903 20.7257 17.4991 20.9054 16.4266 20.954C15.2588 21.0063 14.915 21.0182 11.9725 21.0182C9.02908 21.0182 8.68533 21.0044 7.51842 20.9503C6.445 20.8944 5.85375 20.7157 5.46875 20.5644C4.99108 20.3877 4.55912 20.1061 4.20467 19.7403C3.8367 19.3872 3.55449 18.9545 3.37967 18.4753C3.22842 18.0903 3.05058 17.4991 2.99467 16.4266C2.95342 15.2716 2.93875 14.915 2.93875 11.9862C2.93875 9.05658 2.95342 8.69908 2.99467 7.53033C3.05058 6.45783 3.22842 5.8675 3.37967 5.4825C3.57217 4.96 3.81875 4.6025 4.20467 4.21658C4.58875 3.8325 4.94717 3.585 5.46875 3.39342C5.85375 3.24125 6.43217 3.0625 7.50467 3.0075C8.67342 2.96625 9.01717 2.9525 11.9587 2.9525L12 2.98ZM12 6.3515C11.2582 6.3515 10.5237 6.4976 9.83841 6.78147C9.15311 7.06533 8.53042 7.4814 8.00591 8.00591C7.4814 8.53042 7.06533 9.15311 6.78147 9.83841C6.4976 10.5237 6.3515 11.2582 6.3515 12C6.3515 12.7418 6.4976 13.4763 6.78147 14.1616C7.06533 14.8469 7.4814 15.4696 8.00591 15.9941C8.53042 16.5186 9.15311 16.9347 9.83841 17.2185C10.5237 17.5024 11.2582 17.6485 12 17.6485C13.4981 17.6485 14.9348 17.0534 15.9941 15.9941C17.0534 14.9348 17.6485 13.4981 17.6485 12C17.6485 10.5019 17.0534 9.06521 15.9941 8.00591C14.9348 6.94661 13.4981 6.3515 12 6.3515ZM12 15.6667C9.97417 15.6667 8.33333 14.0258 8.33333 12C8.33333 9.97417 9.97417 8.33333 12 8.33333C14.0258 8.33333 15.6667 9.97417 15.6667 12C15.6667 14.0258 14.0258 15.6667 12 15.6667ZM19.1922 6.12875C19.1794 6.47032 19.0348 6.79366 18.7886 7.03081C18.5425 7.26797 18.214 7.40047 17.8722 7.40047C17.5304 7.40047 17.2019 7.26797 16.9557 7.03081C16.7095 6.79366 16.5649 6.47032 16.5522 6.12875C16.5522 5.77866 16.6912 5.44292 16.9388 5.19537C17.1863 4.94782 17.5221 4.80875 17.8722 4.80875C18.2223 4.80875 18.558 4.94782 18.8055 5.19537C19.0531 5.44292 19.1922 5.77866 19.1922 6.12875Z" fill="#323232" stroke="#323232"/>
</svg>
