<svg width="64" height="64" viewBox="0 0 64 64" fill="none" xmlns="http://www.w3.org/2000/svg">
<g clip-path="url(#clip0_2854_7597)">
<path d="M61.401 -0.161621H30.5039C30.5039 3.53747 31.9734 7.08505 34.589 9.7007C37.2047 12.3163 40.7522 13.7858 44.4513 13.7858H50.1429V19.2811C50.148 26.9771 56.3854 33.2147 64.0813 33.2198V2.5187C64.0813 1.03882 62.8816 -0.161621 61.401 -0.161621Z" fill="#F94E1E"/>
<path d="M46.1126 15.2329H15.2158C15.2206 22.9288 21.458 29.1665 29.1542 29.1715H34.8458V34.6845C34.8556 42.3804 41.0973 48.6138 48.7932 48.6138V17.9137C48.7932 16.4334 47.593 15.2332 46.1126 15.2332V15.2329Z" fill="#F94E1E"/>
<path d="M30.816 30.6191H-0.0810547C-0.0810547 38.3221 6.16365 44.5666 13.8664 44.5666H19.5758V50.0616C19.5808 57.7505 25.8074 63.9855 33.4966 64V33.2997C33.4966 31.8193 32.2964 30.6191 30.816 30.6191Z" fill="#F94E1E"/>
</g>
<defs>
<clipPath id="clip0_2854_7597">
<rect width="64" height="64" fill="white"/>
</clipPath>
</defs>
</svg>
