<svg width="56" height="64" viewBox="0 0 56 64" fill="none" xmlns="http://www.w3.org/2000/svg">
<path fill-rule="evenodd" clip-rule="evenodd" d="M55.9684 16.0418C55.9892 16.1186 55.9998 16.1979 56 16.2775V28.6518C56 28.8106 55.9581 28.9666 55.8785 29.104C55.7989 29.2415 55.6844 29.3554 55.5466 29.4345L45.1607 35.4141V47.2662C45.1607 47.5887 44.9892 47.8865 44.7096 48.0489L23.0298 60.5292C22.9801 60.5574 22.926 60.5754 22.8719 60.5946C22.8516 60.6013 22.8324 60.6137 22.811 60.6194C22.6594 60.6593 22.5001 60.6593 22.3486 60.6194C22.3238 60.6126 22.3012 60.5991 22.2775 60.5901C22.2279 60.572 22.176 60.5562 22.1287 60.5292L0.453377 48.0489C0.315681 47.9698 0.201269 47.8558 0.121673 47.7184C0.0420766 47.5809 0.000109103 47.425 0 47.2662L0 10.1434C0 10.0622 0.011278 9.98322 0.0315785 9.90653C0.0383454 9.88059 0.0541346 9.85691 0.0631571 9.83097C0.0800741 9.7836 0.0958634 9.7351 0.120675 9.69112C0.137592 9.6618 0.162404 9.63811 0.182704 9.61104C0.208644 9.57495 0.232328 9.53774 0.262778 9.50616C0.288718 9.48022 0.322552 9.46105 0.351875 9.43849C0.384581 9.41142 0.413904 9.3821 0.451122 9.36067H0.45225L11.2904 3.12053C11.4277 3.04156 11.5832 3 11.7416 3C11.8999 3 12.0555 3.04156 12.1927 3.12053L23.0309 9.36067H23.0331C23.0692 9.38323 23.0997 9.41142 23.1324 9.43736C23.1617 9.45992 23.1944 9.48022 23.2204 9.50503C23.2519 9.53774 23.2745 9.57495 23.3016 9.61104C23.3207 9.63811 23.3467 9.6618 23.3625 9.69112C23.3884 9.73623 23.4031 9.7836 23.4211 9.83097C23.4301 9.85691 23.4459 9.88059 23.4527 9.90766C23.4735 9.98451 23.4841 10.0638 23.4843 10.1434V33.3299L32.5157 28.1296V16.2764C32.5157 16.1974 32.527 16.1173 32.5473 16.0418C32.5552 16.0147 32.5699 15.991 32.5789 15.9651C32.5969 15.9177 32.6127 15.8692 32.6375 15.8252C32.6544 15.7959 32.6793 15.7722 32.6984 15.7452C32.7255 15.7091 32.7481 15.6719 32.7796 15.6403C32.8056 15.6143 32.8383 15.5952 32.8676 15.5726C32.9014 15.5456 32.9308 15.5162 32.9669 15.4948H32.968L43.8073 9.25466C43.9445 9.17558 44.1001 9.13396 44.2584 9.13396C44.4168 9.13396 44.5724 9.17558 44.7096 9.25466L55.5477 15.4948C55.5861 15.5174 55.6154 15.5456 55.6493 15.5715C55.6774 15.594 55.7102 15.6143 55.7361 15.6392C55.7677 15.6719 55.7902 15.7091 55.8173 15.7452C55.8376 15.7722 55.8624 15.7959 55.8782 15.8252C55.9041 15.8692 55.9188 15.9177 55.9368 15.9651C55.947 15.991 55.9617 16.0147 55.9684 16.0418ZM54.1933 28.1296V17.8395L50.4005 20.0229L45.1607 23.0398V33.3299L54.1944 28.1296H54.1933ZM43.3551 46.744V36.4472L38.201 39.3907L23.4831 47.7906V58.1845L43.3551 46.744ZM1.80674 11.7054V46.744L21.6764 58.1833V47.7917L11.2961 41.917L11.2927 41.9147L11.2882 41.9125C11.2532 41.8922 11.2239 41.8629 11.1912 41.8381C11.163 41.8155 11.1303 41.7975 11.1055 41.7726L11.1032 41.7693C11.0739 41.7411 11.0536 41.7061 11.0288 41.6745C11.0062 41.6441 10.9792 41.6181 10.9611 41.5866L10.96 41.5832C10.9397 41.5493 10.9273 41.5087 10.9126 41.4704C10.898 41.4366 10.8788 41.405 10.8698 41.3689V41.3678C10.8585 41.3249 10.8562 41.2798 10.8517 41.2358C10.8472 41.202 10.8382 41.1681 10.8382 41.1343V41.1321V16.9057L5.59955 13.8877L1.80674 11.7065V11.7054ZM11.7427 4.94532L2.71237 10.1434L11.7404 15.3414L20.7696 10.1422L11.7404 4.94532H11.7427ZM16.4389 37.3855L21.6775 34.3697V11.7054L17.8847 13.8888L12.6449 16.9057V39.57L16.4389 37.3855ZM44.2584 11.0794L35.2292 16.2775L44.2584 21.4755L53.2865 16.2764L44.2584 11.0794ZM43.3551 23.0398L38.1153 20.0229L34.3225 17.8395V28.1296L39.5611 31.1453L43.3551 33.3299V23.0398ZM22.5786 46.2286L35.8225 38.6678L42.4427 34.8897L33.4202 29.695L23.032 35.6757L13.5641 41.1264L22.5786 46.2286Z" fill="#F94E1E"/>
</svg>
