<svg width="20" height="20" viewBox="0 0 20 20" fill="none" xmlns="http://www.w3.org/2000/svg">
<path fill-rule="evenodd" clip-rule="evenodd" d="M15.2496 19.6004H19.2291H19.2302V12.5618C19.2302 9.10741 18.4845 6.45365 14.4524 6.45365C12.5119 6.45365 11.213 7.51739 10.6789 8.52515H10.6274V6.77725H6.8046V19.6004H10.7841V13.2549C10.7841 11.582 11.101 9.964 13.1759 9.964C15.2194 9.964 15.2496 11.8776 15.2496 13.3646V19.6004ZM1.42531 4.84688C1.70579 4.96306 2.00642 5.02278 2.31 5.02264C2.7671 5.02286 3.214 4.88753 3.59418 4.63376C3.97437 4.38 4.27077 4.01919 4.44589 3.59698C4.62102 3.17476 4.66702 2.71009 4.57806 2.26173C4.4891 1.81338 4.26919 1.40147 3.94613 1.0781C3.62307 0.754723 3.21137 0.53441 2.7631 0.445018C2.31483 0.355626 1.85012 0.401168 1.42773 0.575887C1.00534 0.750606 0.644253 1.04665 0.390119 1.42659C0.135986 1.80653 0.000223959 2.2533 2.44425e-06 2.71039C-0.000439275 3.01398 0.058993 3.31467 0.174897 3.59525C0.290802 3.87584 0.460903 4.13082 0.675465 4.34559C0.890027 4.56036 1.14484 4.73071 1.42531 4.84688ZM0.314647 19.6004H4.30536V6.77725H0.314647V19.6004Z" fill="#323232"/>
</svg>
