<svg width="20" height="20" viewBox="0 0 20 20" fill="none" xmlns="http://www.w3.org/2000/svg">
<path d="M15.2496 19.6H19.2302V12.5614C19.2302 9.10704 18.4845 6.45328 14.4524 6.45328C12.5119 6.45328 11.213 7.51703 10.6789 8.52478H10.6274V6.77689H6.8046V19.6H10.7841V13.2545C10.7841 11.5816 11.101 9.96364 13.1759 9.96364C15.2194 9.96364 15.2496 11.8773 15.2496 13.3643V19.6Z" fill="white"/>
<path d="M1.42531 4.84652C1.70579 4.96269 2.00642 5.02242 2.31 5.02227C2.7671 5.02249 3.214 4.88716 3.59418 4.6334C3.97437 4.37963 4.27077 4.01883 4.44589 3.59661C4.62102 3.17439 4.66702 2.70973 4.57806 2.26137C4.4891 1.81301 4.26919 1.4011 3.94613 1.07773C3.62307 0.754357 3.21137 0.534044 2.7631 0.444652C2.31483 0.355259 1.85012 0.400802 1.42773 0.575521C1.00534 0.75024 0.644253 1.04629 0.390119 1.42623C0.135986 1.80616 0.000223959 2.25293 2.44425e-06 2.71003C-0.000439275 3.01361 0.058993 3.3143 0.174897 3.59489C0.290802 3.87548 0.460903 4.13045 0.675465 4.34522C0.890027 4.55999 1.14484 4.73034 1.42531 4.84652Z" fill="white"/>
<path d="M0.314647 19.6H4.30536V6.77689H0.314647V19.6Z" fill="white"/>
</svg>
