<svg width="30" height="64" viewBox="0 0 30 64" fill="none" xmlns="http://www.w3.org/2000/svg">
<path d="M16.8567 55.3633C16.8567 55.3633 31.5981 45.6858 28.1445 25.5878C24.8186 10.9862 16.9662 6.18596 16.1224 4.35341C15.1934 3.05645 14.2578 0.757721 14.2578 0.757721L14.8849 41.4421C14.8849 41.4421 13.5879 53.8648 16.8567 55.3633Z" fill="#F94E1E"/>
<mask id="path-2-inside-1_2714_8646" fill="white">
<path d="M15.9437 63.6279L14.2472 63.0682C14.2472 63.0682 14.4636 54.5098 11.367 53.9106C9.32505 51.5523 11.6813 -46.8259 19.0993 53.5735C19.0993 53.5735 16.5603 54.8442 16.0797 57.0022C15.5993 59.1616 15.9437 63.6279 15.9437 63.6279Z"/>
</mask>
<path d="M15.9437 63.6279L14.2472 63.0682C14.2472 63.0682 14.4636 54.5098 11.367 53.9106C9.32505 51.5523 11.6813 -46.8259 19.0993 53.5735C19.0993 53.5735 16.5603 54.8442 16.0797 57.0022C15.5993 59.1616 15.9437 63.6279 15.9437 63.6279Z" fill="#FFFAF7"/>
<path d="M14.2472 63.0682L13.9339 64.0178L13.2288 63.7852L13.2475 63.0429L14.2472 63.0682ZM11.367 53.9106L11.177 54.8924L10.8374 54.8267L10.611 54.5652L11.367 53.9106ZM19.0993 53.5735L20.0966 53.4999L20.146 54.168L19.5469 54.4678L19.0993 53.5735ZM16.0797 57.0022L15.1036 56.785L15.1037 56.7848L16.0797 57.0022ZM15.6303 64.5776L13.9339 64.0178L14.5605 62.1185L16.257 62.6783L15.6303 64.5776ZM14.2472 63.0682C13.2475 63.0429 13.2475 63.0431 13.2475 63.0432C13.2475 63.0432 13.2475 63.0432 13.2475 63.0432C13.2475 63.0432 13.2475 63.0431 13.2475 63.0428C13.2475 63.0422 13.2476 63.0412 13.2476 63.0396C13.2477 63.0364 13.2478 63.0313 13.2479 63.0242C13.2482 63.01 13.2486 62.988 13.249 62.9587C13.2497 62.9002 13.2505 62.8125 13.2504 62.6998C13.2503 62.4743 13.2468 62.1491 13.2332 61.7562C13.2059 60.9673 13.1383 59.9196 12.9794 58.8628C12.8186 57.7932 12.5731 56.7771 12.2178 56.0184C11.8494 55.2317 11.4765 54.9503 11.177 54.8924L11.557 52.9288C12.8057 53.1705 13.567 54.1836 14.029 55.1702C14.504 56.1847 14.785 57.4206 14.9572 58.5654C15.1313 59.7231 15.2031 60.8525 15.232 61.687C15.2465 62.1058 15.2503 62.4539 15.2504 62.6987C15.2505 62.8212 15.2497 62.918 15.2488 62.9851C15.2483 63.0187 15.2479 63.0448 15.2475 63.063C15.2474 63.0721 15.2472 63.0793 15.2471 63.0844C15.247 63.0869 15.247 63.0889 15.247 63.0905C15.2469 63.0912 15.2469 63.0918 15.2469 63.0923C15.2469 63.0926 15.2469 63.0929 15.2469 63.093C15.2469 63.0932 15.2469 63.0935 14.2472 63.0682ZM10.611 54.5652C10.4569 54.3873 10.376 54.1874 10.3337 54.0697C10.2838 53.9314 10.2443 53.7807 10.2116 53.631C10.1458 53.3303 10.0903 52.9547 10.0421 52.5272C9.94519 51.6678 9.86825 50.5125 9.80963 49.1439C9.69216 46.4018 9.64569 42.7399 9.67057 38.7381C9.72031 30.7402 10.0555 21.3226 10.6908 15.1063C10.8498 13.5507 11.0291 12.1804 11.2303 11.0755C11.4254 10.005 11.6585 9.0769 11.9651 8.48041C12.0975 8.22269 12.3693 7.76715 12.8824 7.58502C13.572 7.34023 14.1061 7.73836 14.3612 8.03092C14.6121 8.31857 14.8021 8.70809 14.959 9.11197C15.1235 9.5357 15.2842 10.0634 15.4438 10.6928C16.7021 15.6544 18.2441 28.4279 20.0966 53.4999L18.102 53.6472C16.2455 28.5195 14.7113 15.9404 13.5052 11.1844C13.3567 10.599 13.219 10.1563 13.0946 9.83593C13.0327 9.67643 12.9779 9.55727 12.9319 9.47132C12.9092 9.4289 12.8904 9.39783 12.876 9.3761C12.8614 9.35409 12.8537 9.34523 12.854 9.34551C12.8543 9.3459 12.8574 9.34945 12.8635 9.3553C12.8696 9.36115 12.8793 9.36998 12.8929 9.38059C12.9197 9.40141 12.966 9.43262 13.0327 9.45968C13.1867 9.52219 13.3756 9.53221 13.5514 9.4698C13.8135 9.37677 13.8436 9.20066 13.7439 9.39468C13.5861 9.70168 13.3925 10.3663 13.198 11.4339C13.0097 12.4671 12.8368 13.7803 12.6805 15.3096C12.0547 21.4326 11.7201 30.7768 11.6705 38.7506C11.6458 42.7347 11.6923 46.3611 11.8078 49.0583C11.8657 50.4093 11.9402 51.5114 12.0295 52.3031C12.0744 52.7012 12.1207 52.9996 12.1653 53.2034C12.1878 53.3059 12.2056 53.365 12.2153 53.392C12.2324 53.4395 12.2132 53.3602 12.123 53.256L10.611 54.5652ZM19.0993 53.5735C19.5469 54.4678 19.5471 54.4677 19.5474 54.4675C19.5474 54.4675 19.5477 54.4674 19.5478 54.4673C19.5481 54.4672 19.5483 54.4671 19.5485 54.467C19.5489 54.4668 19.5492 54.4666 19.5493 54.4666C19.5495 54.4665 19.5491 54.4667 19.5482 54.4671C19.5463 54.4681 19.5422 54.4702 19.5359 54.4736C19.5233 54.4802 19.5022 54.4914 19.4737 54.5072C19.4166 54.5388 19.3304 54.5883 19.2236 54.6548C19.0086 54.7885 18.7175 54.9869 18.4154 55.2423C17.7886 55.7722 17.2266 56.4528 17.0558 57.2196L15.1037 56.7848C15.4135 55.3936 16.3613 54.3599 17.1241 53.715C17.5168 53.383 17.8905 53.1288 18.1666 52.9569C18.3053 52.8705 18.4212 52.8038 18.5049 52.7575C18.5467 52.7343 18.5807 52.7162 18.6055 52.7031C18.6179 52.6966 18.6281 52.6913 18.6358 52.6874C18.6397 52.6854 18.643 52.6837 18.6456 52.6824C18.647 52.6817 18.6481 52.6811 18.6492 52.6806C18.6497 52.6803 18.6501 52.6801 18.6506 52.6799C18.6508 52.6798 18.6511 52.6796 18.6512 52.6796C18.6515 52.6794 18.6517 52.6793 19.0993 53.5735ZM17.0559 57.2193C16.8446 58.1689 16.8052 59.7152 16.8314 61.106C16.8441 61.7843 16.8716 62.3977 16.8959 62.8416C16.908 63.0633 16.9193 63.2421 16.9276 63.3648C16.9317 63.4262 16.935 63.4735 16.9373 63.5051C16.9385 63.5209 16.9393 63.5327 16.9399 63.5405C16.9402 63.5443 16.9404 63.5472 16.9406 63.5489C16.9406 63.5498 16.9407 63.5504 16.9407 63.5508C16.9407 63.551 16.9407 63.5511 16.9407 63.5511C16.9407 63.5512 16.9407 63.5511 16.9407 63.5511C16.9407 63.5511 16.9407 63.5511 15.9437 63.6279C14.9466 63.7048 14.9466 63.7047 14.9466 63.7046C14.9466 63.7046 14.9466 63.7044 14.9466 63.7043C14.9466 63.7041 14.9466 63.7038 14.9465 63.7034C14.9465 63.7027 14.9464 63.7017 14.9463 63.7004C14.9461 63.6979 14.9458 63.6943 14.9455 63.6896C14.9448 63.6803 14.9438 63.6669 14.9425 63.6494C14.94 63.6145 14.9364 63.5637 14.9321 63.4988C14.9233 63.3688 14.9115 63.1818 14.8989 62.951C14.8736 62.49 14.845 61.8518 14.8317 61.1436C14.8058 59.7614 14.8344 57.9949 15.1036 56.785L17.0559 57.2193Z" fill="#F94E1E" mask="url(#path-2-inside-1_2714_8646)"/>
<path d="M13.3817 55.9043C13.3817 55.9043 -0.446129 46.5018 0.349467 29.912C1.14528 13.3217 10.9118 5.16466 12.814 3.68484C14.0438 2.37829 14.0946 1.87486 14.1897 0.585808C15.0517 2.43134 14.9083 28.1516 14.9997 31.1578C15.354 42.8604 14.3494 53.6952 13.3817 55.9043Z" fill="#F94E1E"/>
</svg>
