<svg width="72" height="64" viewBox="0 0 72 64" fill="none" xmlns="http://www.w3.org/2000/svg">
<path d="M0.136719 46.6716H2.50145V37.3829L6.16236 45.4804C6.59431 46.4606 7.18559 46.8073 8.34512 46.8073C9.50482 46.8073 10.0733 46.4606 10.5054 45.4804L14.1661 37.3829V46.6716H16.531V37.3981C16.531 36.4935 16.1671 36.0561 15.4168 35.83C13.6205 35.2721 12.4153 35.7546 11.8696 36.9609L8.27695 44.9525L4.79803 36.9609C4.27508 35.7546 3.04721 35.2721 1.25093 35.83C0.50051 36.0561 0.136719 36.4935 0.136719 37.3981V46.6716Z" fill="#F94E1E"/>
<path d="M18.4961 39.111H20.8601V44.2283C20.838 44.5064 20.9498 45.1588 22.2452 45.1792C22.9061 45.1894 27.346 45.1792 27.3874 45.1792V39.0861H29.757C29.7679 39.0861 29.7546 47.3953 29.7548 47.4307C29.7679 49.4799 27.1985 49.925 26.0143 49.9595H18.5475V48.3771C18.5605 48.3771 26.0088 48.3786 26.0276 48.3767C27.5495 48.2168 27.3698 47.4644 27.3696 47.211V46.5941H22.3434C20.005 46.5727 18.5158 45.5576 18.4974 44.3897C18.4957 44.2814 18.5478 39.1621 18.4961 39.111Z" fill="#F94E1E"/>
<path d="M31.5781 46.6715H38.3767C39.1726 46.6715 39.9458 46.5057 40.5597 46.2191C41.5828 45.7518 42.0831 45.1186 42.0831 44.289V42.5702C42.0831 41.8916 41.5147 41.2582 40.4004 40.8361C39.8091 40.6097 39.0816 40.4892 38.3767 40.4892H35.5116C34.5568 40.4892 34.102 40.2027 33.9884 39.5695C33.9655 39.4941 33.9655 39.4336 33.9655 39.3583V38.2879C33.9655 38.2275 33.9655 38.167 33.9884 38.0917C34.102 37.6093 34.3522 37.4733 35.1934 37.3981C35.2617 37.3981 35.3525 37.3829 35.4208 37.3829H42.1741V35.8149H35.5344C34.5795 35.8149 34.0792 35.8752 33.6245 36.0107C32.2147 36.4482 31.6008 37.1418 31.6008 38.3482V39.7203C31.6008 40.7759 32.806 41.6805 34.8295 41.8916C35.0571 41.9066 35.2844 41.9216 35.5116 41.9216H37.9673C38.0585 41.9216 38.1495 41.9216 38.2176 41.9368C38.968 41.9972 39.2862 42.1328 39.5138 42.4042C39.65 42.5398 39.6955 42.6757 39.6955 42.8264V44.1986C39.6955 44.3645 39.5819 44.5757 39.3547 44.7565C39.1499 44.9375 38.8089 45.0582 38.354 45.0884C38.2631 45.0884 38.1949 45.1034 38.104 45.1034H31.5781V46.6715Z" fill="#F94E1E"/>
<path d="M56.8359 43.9423C56.8359 45.5557 58.041 46.4605 60.4741 46.6415C60.7013 46.6565 60.9289 46.6715 61.1561 46.6715H67.3183V45.1034H61.1106C59.7237 45.1034 59.2007 44.7565 59.2007 43.9273V35.8149H56.8359V43.9423Z" fill="#F94E1E"/>
<path d="M43.5938 44.0245V38.4338C43.5938 37.0135 44.5964 36.1521 46.5785 35.8801C46.7837 35.85 47.0116 35.8348 47.2166 35.8348H51.7053C51.933 35.8348 52.1384 35.85 52.3661 35.8801C54.3485 36.1521 55.3509 37.0135 55.3509 38.4338V44.0245C55.3509 45.1768 54.9252 45.7935 53.9439 46.1954L56.2733 48.2868H53.5275L51.643 46.5947L49.7458 46.7143H47.2166C46.7837 46.7143 46.3281 46.6537 45.8267 46.5178C44.323 46.1098 43.5938 45.3241 43.5938 44.0245ZM46.1462 43.8886C46.1462 43.9642 46.1688 44.0397 46.1916 44.1303C46.3283 44.78 46.9435 45.1427 47.8777 45.1427H50.0261L48.0526 43.3706H50.7984L52.5195 44.9161C52.8366 44.748 53.0455 44.4908 53.1184 44.1606C53.141 44.0851 53.141 44.0095 53.141 43.934V38.5699C53.141 38.5095 53.141 38.4338 53.1184 38.3582C52.9816 37.7539 52.3663 37.4064 51.455 37.4064H47.8777C46.8297 37.4064 46.1462 37.8598 46.1462 38.5699V43.8886Z" fill="#F94E1E"/>
<path d="M69.3998 33.2134C67.9462 33.1742 66.8358 33.3086 65.8866 33.7068C65.6168 33.82 65.1866 33.823 65.1426 34.1593C65.2909 34.3139 65.3139 34.5446 65.4317 34.7348C65.6584 35.0996 66.0411 35.5885 66.3825 35.845C66.7555 36.125 67.14 36.4247 67.54 36.6672C68.2513 37.0987 69.0455 37.3451 69.7306 37.7774C70.1342 38.0322 70.5353 38.3531 70.9291 38.6407C71.1238 38.7828 71.2547 39.0039 71.5077 39.0929C71.5077 39.0793 71.5077 39.0656 71.5077 39.0519C71.3748 38.8835 71.3405 38.652 71.2184 38.4762C71.0394 38.2981 70.8603 38.1199 70.6811 37.9417C70.1557 37.248 69.4888 36.6388 68.7798 36.1327C68.2145 35.729 66.9491 35.1837 66.7132 34.5293C66.6994 34.5155 66.6857 34.5018 66.6717 34.4881C67.0726 34.4432 67.542 34.2988 67.912 34.2003C68.5334 34.0345 69.0888 34.0774 69.7306 33.9125C70.0198 33.8303 70.3091 33.7479 70.5986 33.6658C70.5986 33.6109 70.5986 33.5563 70.5986 33.5013C70.2741 33.1702 70.0429 32.732 69.6891 32.4324C68.7636 31.6484 67.7534 30.8652 66.7132 30.2121C66.1363 29.8498 65.4233 29.6144 64.8119 29.3075C64.6062 29.2043 64.2449 29.1506 64.109 28.9785C63.7879 28.5712 63.6129 28.055 63.3653 27.5806C62.8464 26.5868 62.3368 25.5014 61.8772 24.4558C61.5636 23.7428 61.3588 23.0397 60.9679 22.4C59.0911 19.3307 57.0709 17.4781 53.9414 15.6571C53.2755 15.2699 52.4738 15.1169 51.6265 14.9171C51.172 14.8898 50.7172 14.8622 50.2626 14.8349C49.9851 14.7195 49.6963 14.3818 49.4359 14.2181C48.3992 13.5666 45.74 12.1496 44.9721 14.0126C44.4873 15.1885 45.6967 16.336 46.1293 16.9318C46.4329 17.3498 46.8217 17.8185 47.0386 18.2886C47.1813 18.5975 47.206 18.9073 47.3281 19.2343C47.6286 20.0396 47.8899 20.9157 48.2786 21.66C48.4751 22.0366 48.6916 22.4333 48.94 22.7701C49.0923 22.9767 49.3533 23.0678 49.3945 23.3869C49.1393 23.7421 49.1247 24.2936 48.9813 24.7437C48.3353 26.7698 48.5789 29.2882 49.5186 30.7877C49.807 31.248 50.4861 32.2353 51.4199 31.8567C52.2368 31.5257 52.0543 30.5001 52.288 29.5953C52.3408 29.3901 52.3084 29.2393 52.4119 29.1019C52.4119 29.1155 52.4119 29.1293 52.4119 29.1431C52.6599 29.6364 52.908 30.1298 53.156 30.623C53.7066 31.5052 54.6838 32.427 55.5119 33.0491C55.9414 33.3716 56.2794 33.9294 56.8346 34.118C56.8346 34.1043 56.8346 34.0908 56.8346 34.0768C56.8206 34.0768 56.807 34.0768 56.7932 34.0768C56.6857 33.91 56.5174 33.8409 56.38 33.7068C56.0564 33.3914 55.6968 32.9993 55.4293 32.6379C54.6761 31.6207 54.0104 30.5074 53.404 29.3486C53.1144 28.7954 52.8627 28.1849 52.6185 27.6217C52.5244 27.4046 52.5255 27.0764 52.3294 26.9639C52.062 27.3765 51.6681 27.7101 51.4613 28.1974C51.1306 28.9762 51.0879 29.926 50.9654 30.911C50.8929 30.9368 50.9251 30.919 50.8826 30.952C50.3069 30.8139 50.1046 30.2244 49.8908 29.7187C49.3496 28.4398 49.249 26.3804 49.7252 24.9082C49.8484 24.5274 50.4053 23.3277 50.1799 22.9758C50.0723 22.6247 49.7173 22.4217 49.5186 22.1534C49.2728 21.8217 49.0273 21.3851 48.8572 21.0021C48.4143 20.0049 48.2075 18.8855 47.7413 17.8775C47.5185 17.3956 47.1415 16.908 46.832 16.4796C46.4893 16.0051 46.1055 15.6555 45.84 15.0815C45.7455 14.8776 45.6172 14.5512 45.7573 14.3415C45.8019 14.2 45.8647 14.141 46.0054 14.0948C46.2451 13.911 46.9128 14.156 47.1625 14.2592C47.8254 14.5331 48.3786 14.7939 48.94 15.1638C49.2096 15.3416 49.4822 15.6854 49.8079 15.7806C49.9318 15.7806 50.0559 15.7806 50.1799 15.7806C50.7618 15.9136 51.4136 15.8219 51.9572 15.9861C52.9181 16.2766 53.7791 16.7284 54.5612 17.2196C56.9436 18.7159 58.8915 20.846 60.224 23.3869C60.4383 23.796 60.5311 24.1865 60.7199 24.6204C61.1009 25.4955 61.5807 26.3959 61.9597 27.2517C62.3379 28.1054 62.7066 28.9671 63.2412 29.6776C63.5223 30.0511 64.6079 30.2514 65.1012 30.4587C65.447 30.6041 66.0136 30.7556 66.3412 30.952C66.9669 31.3275 67.5731 31.7744 68.16 32.1856C68.4533 32.3911 69.3549 32.8419 69.3998 33.2134Z" fill="#F94E1E"/>
<path fill-rule="evenodd" clip-rule="evenodd" d="M50.9238 17.5486C50.6207 17.5431 50.4064 17.5815 50.1797 17.6307C50.1797 17.6445 50.1797 17.6583 50.1797 17.6719C50.1935 17.6719 50.2073 17.6719 50.2211 17.6719C50.3657 17.9674 50.6209 18.1575 50.7997 18.4121C50.9374 18.6999 51.0752 18.9877 51.2131 19.2753C51.2267 19.2617 51.2407 19.248 51.2544 19.2343C51.5103 19.0549 51.6276 18.7679 51.6263 18.3298C51.5238 18.2225 51.5087 18.0878 51.4197 17.9597C51.3015 17.789 51.0728 17.6921 50.9238 17.5486Z" fill="#F94E1E"/>
<path fill-rule="evenodd" clip-rule="evenodd" d="M68.4297 45.0586C68.4297 46.0943 69.2523 46.7921 70.1724 46.7921C71.0926 46.7921 71.9151 46.0943 71.9151 45.0586C71.9151 44.0232 71.0926 43.3253 70.1724 43.3253C69.2523 43.3253 68.4297 44.0232 68.4297 45.0586ZM71.5248 45.0586C71.5248 45.8444 70.9208 46.4317 70.1724 46.4317C69.415 46.4317 68.8201 45.8444 68.8201 45.0586C68.8201 44.2728 69.415 43.6856 70.1724 43.6856C70.9208 43.6856 71.5248 44.2728 71.5248 45.0586ZM70.642 46.0479H71.0322L70.4608 45.179C70.7674 45.1466 70.9996 44.9986 70.9996 44.6381C70.9996 44.2358 70.7442 44.0695 70.2516 44.0695H69.4754V46.0479H69.81V45.1927H70.1214L70.642 46.0479ZM69.81 44.9154V44.3468H70.1956C70.3956 44.3468 70.6372 44.3838 70.6372 44.615C70.6372 44.8921 70.4188 44.9154 70.1678 44.9154H69.81Z" fill="#F94E1E"/>
</svg>
