<svg width="56" height="64" viewBox="0 0 56 64" fill="none" xmlns="http://www.w3.org/2000/svg">
<g clip-path="url(#clip0_2854_15087)">
<path fill-rule="evenodd" clip-rule="evenodd" d="M32.9714 3.99927C32.5687 3.99927 32.1897 4.08844 31.8404 4.20139C32.5806 4.69481 32.9832 5.34874 33.1846 6.09184C33.1964 6.1929 33.226 6.26424 33.2438 6.3653C33.2556 6.45447 33.2734 6.5377 33.2734 6.62687C33.3326 7.905 32.9418 8.06551 32.6635 8.8205C32.243 9.79545 32.3615 10.8358 32.8648 11.6799C32.9062 11.781 32.9655 11.8999 33.0365 12.001C32.4858 8.32708 35.5413 7.77421 36.1039 6.62687C36.1453 5.6222 35.3222 4.95638 34.6709 4.49269C34.0609 4.11816 33.4925 3.99927 32.9714 3.99927ZM37.5724 4.82559C37.5132 5.1585 37.5606 5.07528 37.5428 5.24768C37.531 5.36657 37.531 5.50925 37.5132 5.6222C37.4836 5.74109 37.454 5.85404 37.4125 5.97294C37.3829 6.09184 37.3415 6.20479 37.2941 6.32368C37.2349 6.44258 37.1934 6.54364 37.1342 6.65659C37.0928 6.71604 37.0632 6.77549 37.0158 6.82899C36.9862 6.87061 36.9566 6.91816 36.927 6.95978C36.8559 7.06084 36.7849 7.1619 36.7079 7.25107C36.6191 7.34024 36.548 7.44131 36.4473 7.51264C36.4473 7.52453 36.4473 7.52453 36.4473 7.52453C36.3585 7.59587 36.2756 7.68504 36.1749 7.75638C35.8729 7.98823 35.5236 8.16063 35.2038 8.38058C35.1031 8.45192 35.0025 8.51137 34.9137 8.60054C34.813 8.67188 34.7242 8.74322 34.6413 8.83239C34.5406 8.92156 34.4695 9.00479 34.3807 9.10585C34.3097 9.19502 34.2208 9.29608 34.1616 9.39714C34.0906 9.49821 34.0195 9.59927 33.9603 9.70033C33.9011 9.81923 33.8596 9.92029 33.8004 10.0332C33.7589 10.1521 33.7116 10.2532 33.682 10.3661C33.6405 10.4969 33.6109 10.6158 33.5813 10.7288C33.5695 10.7882 33.5695 10.8596 33.5517 10.919C33.5399 10.9785 33.5399 11.0379 33.5221 11.0914C33.5221 11.2103 33.5102 11.3411 33.5102 11.454C33.5102 11.5432 33.5102 11.6264 33.5221 11.7156C33.5221 11.8345 33.5339 11.9475 33.5635 12.0782C33.5754 12.1971 33.605 12.3101 33.6346 12.429C33.676 12.5479 33.7057 12.6608 33.753 12.7797C33.7826 12.8511 33.8241 12.9224 33.8537 12.9819L30.5258 11.6918C29.9632 11.5313 29.4125 11.3887 28.85 11.2579C28.548 11.1865 28.2401 11.1152 27.9381 11.0379C27.0676 10.8655 26.1853 10.7347 25.303 10.6456C25.2734 10.6456 25.2615 10.6337 25.2319 10.6337C24.3615 10.5445 23.5088 10.5029 22.6442 10.5029C22.0106 10.5029 21.3711 10.5326 20.7493 10.5742C19.867 10.6337 18.9847 10.7466 18.1024 10.8952C17.8833 10.925 17.6701 10.9666 17.451 11.0141C17.001 11.1033 16.5687 11.2044 16.1483 11.3054C15.9292 11.3649 15.716 11.4243 15.4969 11.4778C15.2778 11.567 15.0765 11.6681 14.8752 11.7513C14.7153 11.8226 14.5554 11.894 14.3955 11.9712C14.3659 11.9831 14.3363 11.9831 14.3245 12.001C14.1823 12.0723 14.0521 12.1318 13.9218 12.2031C13.8803 12.215 13.8507 12.2328 13.8211 12.2447C13.6612 12.316 13.5014 12.4052 13.3711 12.4766C13.2704 12.5182 13.1698 12.5776 13.0809 12.6192C13.0395 12.6489 12.9803 12.6787 12.9507 12.6906C12.8204 12.7619 12.6901 12.8332 12.5717 12.9105C12.4414 12.9819 12.323 13.0532 12.2223 13.1305C12.1216 13.2018 12.021 13.2613 11.9322 13.3326C11.9203 13.3445 11.9025 13.3445 11.8907 13.3623C11.8019 13.4218 11.7012 13.4931 11.6183 13.5644C11.6183 13.5644 11.6065 13.5763 11.5887 13.5942C11.5176 13.6536 11.4466 13.7131 11.3696 13.7666C11.34 13.7785 11.3104 13.8082 11.2808 13.826C11.2097 13.8855 11.1387 13.9568 11.0617 14.0163C11.0498 14.046 11.0202 14.0579 11.0025 14.0757C10.9136 14.1649 10.8307 14.2362 10.7419 14.3254C10.7301 14.3254 10.7301 14.3373 10.7123 14.3551C10.6235 14.4264 10.5406 14.5156 10.4518 14.6048C10.4399 14.6167 10.4399 14.6345 10.4222 14.6345C10.3511 14.7058 10.28 14.7772 10.2031 14.8664C10.1735 14.8961 10.132 14.9258 10.1024 14.9555C10.0313 15.0447 9.94251 15.1279 9.85369 15.2171C9.84185 15.2468 9.81224 15.2587 9.79448 15.2884C9.67604 15.4073 9.57538 15.5203 9.46287 15.6392C9.45103 15.6511 9.43326 15.6689 9.42142 15.6808C9.19048 15.9305 8.94177 16.1742 8.68123 16.3942C8.42068 16.626 8.14829 16.846 7.86997 17.0303C7.57982 17.2324 7.30743 17.4107 6.99951 17.5831C6.70935 17.7436 6.40736 17.8863 6.08759 18.0171C5.78559 18.1479 5.46583 18.2668 5.14607 18.3678C4.53615 18.4986 3.91439 18.7483 3.38145 18.7899C3.26302 18.7899 3.13274 18.8197 3.02023 18.8315C2.88996 18.8613 2.77153 18.891 2.65902 18.9207C2.54059 18.9623 2.42808 19.0099 2.30965 19.0515C2.19122 19.0931 2.07871 19.1526 1.96028 19.212C1.85961 19.2833 1.74118 19.3428 1.64052 19.4141C1.53985 19.4855 1.43918 19.5746 1.35036 19.6638C1.24969 19.7351 1.14903 19.8362 1.0602 19.9254C0.971381 20.0264 0.88848 20.1156 0.8115 20.2167C0.740441 20.3356 0.651618 20.4366 0.592403 20.5496C0.521344 20.6506 0.450286 20.7695 0.39107 20.8825C0.331855 21.0133 0.27264 21.1322 0.231189 21.263C0.189738 21.3819 0.142366 21.5126 0.100915 21.6434C0.0713072 21.7623 0.0416994 21.8753 0.0298564 21.9942C0.0298564 22.0061 0.0180133 22.0239 0.0180133 22.0358C-0.0115944 22.1666 -0.0115944 22.339 -0.0234375 22.4281C0.0120917 22.5114 0.000248661 22.6005 0.000248661 22.7016C0.000248661 22.7611 0.000248661 22.8324 0.0120917 22.8918C0.0239348 22.9929 0.0416994 23.0821 0.0713071 23.1653C0.100915 23.2545 0.130523 23.3377 0.171973 23.4269C0.171973 23.4388 0.171973 23.4388 0.171973 23.4388C0.213424 23.5279 0.27264 23.6112 0.331855 23.7003C0.39107 23.7895 0.450286 23.8727 0.521344 23.9619C0.592403 24.0332 0.681226 24.1224 0.770049 24.1937C0.858872 24.2829 0.941774 24.3543 1.04244 24.4256C1.39181 24.7288 1.47471 24.8298 1.92475 25.0617C1.99581 25.1033 2.06687 25.133 2.15569 25.1806C2.16753 25.1806 2.1853 25.1925 2.19714 25.1925C2.19714 25.2222 2.19714 25.2341 2.20898 25.2638C2.22083 25.3827 2.25043 25.4957 2.28004 25.6146C2.30965 25.7453 2.3511 25.8642 2.39847 25.9653C2.43992 26.0545 2.46953 26.1377 2.5169 26.2269C2.52875 26.2566 2.54651 26.2863 2.55835 26.2982C2.61757 26.4171 2.67678 26.5182 2.73008 26.6192C2.80114 26.7203 2.8722 26.8214 2.94918 26.9224C3.02023 27.0116 3.10906 27.1126 3.19788 27.1959C3.2867 27.285 3.3696 27.3564 3.47027 27.4456C3.47027 27.4456 3.48211 27.4574 3.49988 27.4574C3.5887 27.5288 3.6716 27.6001 3.76043 27.6596C3.86109 27.7309 3.96176 27.7904 4.08019 27.8498C4.18086 27.9092 4.29929 27.9687 4.4118 28.0103C4.50062 28.0519 4.60129 28.0816 4.70195 28.1114C4.71379 28.1233 4.73156 28.1233 4.76117 28.1411C4.82038 28.153 4.89144 28.1708 4.95066 28.1827C4.90921 28.9674 4.89144 29.7046 5.00987 29.9661C5.14015 30.2574 5.77375 29.3717 6.41328 28.3551C6.32445 29.3598 6.27116 30.5309 6.41328 30.8816C6.57316 31.2443 7.4377 30.1148 8.18974 28.8664C18.4458 26.4825 27.8019 33.5984 28.7849 43.6451C28.5954 42.0757 26.6709 41.2078 25.7886 41.4218C25.3563 42.4978 24.6161 43.877 23.4318 44.733C23.5324 43.7759 23.491 42.7891 23.2897 41.832C22.9699 43.1695 22.3481 44.4179 21.4954 45.488C20.1216 45.5891 18.7478 44.9233 18.0254 43.9186C17.9662 43.877 17.9544 43.7878 17.907 43.7284C17.8655 43.6273 17.8182 43.5262 17.7886 43.4252C17.7471 43.3241 17.7175 43.223 17.6997 43.122C17.6879 43.0209 17.6879 42.9199 17.6879 42.801C17.6879 42.7296 17.6879 42.6583 17.6879 42.581C17.6997 42.4799 17.7293 42.3789 17.7589 42.2778C17.7886 42.1768 17.8182 42.0757 17.8596 41.9746C17.9188 41.8736 17.9603 41.7725 18.0313 41.6715C18.28 40.9759 18.28 40.4112 17.83 40.0723C17.7412 40.0129 17.6583 39.9712 17.5576 39.9296C17.4984 39.9177 17.4273 39.888 17.3681 39.8702C17.3267 39.8583 17.2971 39.8405 17.2497 39.8286C17.149 39.7988 17.0484 39.7691 16.9477 39.7572C16.847 39.7275 16.7464 39.7156 16.6457 39.7156C16.545 39.7037 16.4266 39.6859 16.3259 39.6859C16.2549 39.6859 16.1838 39.6978 16.1068 39.6978C15.9884 39.6978 15.8877 39.7097 15.7871 39.7394C15.6864 39.7513 15.5857 39.7691 15.4851 39.7988C15.3844 39.8286 15.2837 39.8583 15.1831 39.8999C15.0824 39.9415 14.9936 39.9891 14.8929 40.0307C14.8041 40.0723 14.7212 40.1318 14.6205 40.1734C11.2512 42.3789 13.2586 47.5509 15.5621 49.043C14.6916 49.2035 13.8093 49.3937 13.5665 49.578C13.5547 49.5899 13.5369 49.6078 13.5369 49.6078C14.1587 49.9823 14.81 50.3033 15.491 50.5827C16.4148 50.8859 17.3977 51.1653 17.8359 51.2782V51.2901C19.038 51.5398 20.2519 51.623 21.4777 51.5517C27.8848 51.0999 33.1372 46.2073 34.0906 39.7632C34.1202 39.894 34.1498 40.0129 34.1794 40.1436C34.2208 40.4052 34.28 40.6787 34.3097 40.9581C34.3097 40.9581 34.3097 40.9581 34.3097 40.97C34.3393 41.1008 34.3511 41.2315 34.3689 41.3445C34.3689 41.3742 34.3689 41.3861 34.3689 41.4039C34.3807 41.5347 34.3985 41.6655 34.3985 41.7785C34.4103 41.939 34.4281 42.0995 34.4281 42.26C34.4281 42.3313 34.4281 42.4027 34.4281 42.4918C34.4281 42.5632 34.4399 42.6523 34.4399 42.7237C34.4399 42.8129 34.4281 42.8961 34.4281 42.9853C34.4281 43.0566 34.4281 43.1279 34.4281 43.1874C34.4281 43.2884 34.4162 43.3776 34.4162 43.4787C34.4162 43.5381 34.4162 43.5976 34.4044 43.6689C34.4044 43.77 34.3926 43.871 34.3926 43.9899C34.3807 44.0315 34.3807 44.0791 34.3807 44.1207C34.3689 44.2396 34.3511 44.3407 34.3393 44.4536C34.3393 44.4952 34.3393 44.5428 34.3274 44.5844C34.3156 44.7271 34.286 44.8579 34.2682 45.0065V45.0184V45.0303C34.2386 45.161 34.209 45.3037 34.1794 45.4345C34.1794 45.4464 34.1794 45.4642 34.1794 45.4761C34.1498 45.6069 34.1202 45.7377 34.0906 45.8685C34.0906 45.8804 34.0787 45.9101 34.0787 45.9279C34.0491 46.0587 34.0195 46.1895 33.978 46.3203C33.978 46.3322 33.978 46.35 33.978 46.3619C33.9366 46.5046 33.8892 46.6354 33.8596 46.7661C33.8478 46.778 33.8478 46.7959 33.8478 46.7959C33.8063 46.9385 33.759 47.0872 33.7175 47.2298C33.6583 47.3725 33.6168 47.5033 33.5576 47.6519C33.4984 47.7946 33.457 47.9432 33.3977 48.074C33.3385 48.2167 33.2793 48.3475 33.226 48.4961H33.2142C33.155 48.6269 33.0957 48.7695 33.0247 48.9003C33.0128 48.9419 32.9951 48.9717 32.9832 49.0014C32.9714 49.0133 32.9714 49.0311 32.9536 49.043C32.0121 50.9453 30.6265 52.6158 28.8914 53.9237C28.773 53.995 28.6605 54.0842 28.5421 54.1734C28.5125 54.2031 28.471 54.215 28.4414 54.2447C28.3407 54.316 28.2401 54.3874 28.1216 54.4647L28.1631 54.5538H28.1749C28.3763 54.5241 28.5776 54.4944 28.7849 54.4647H28.7967C29.1757 54.4052 29.5487 54.3339 29.9277 54.2625C30.0284 54.2506 30.1468 54.2209 30.2475 54.1912C30.3185 54.1793 30.3778 54.1615 30.4488 54.1496C30.5495 54.1377 30.6501 54.108 30.7508 54.0901C30.8396 54.0604 30.9225 54.0485 31.0114 54.0188C32.4562 53.6681 33.8596 53.1925 35.2038 52.6277C32.9062 55.7785 29.8211 58.3169 26.2208 59.9874C27.8848 59.8685 29.5487 59.595 31.1535 59.1313C36.9803 57.4014 41.8833 53.4659 44.8204 48.1691C44.2282 51.522 42.8959 54.7143 40.9299 57.5025C42.3333 56.5751 43.6183 55.4991 44.7908 54.2804C48.0299 50.8799 50.1557 46.57 50.8781 41.939C51.3696 44.2337 51.5117 46.5997 51.2985 48.936C61.7382 34.3177 52.169 19.1585 48.1601 15.1636C48.1483 15.1339 48.1305 15.122 48.1305 15.0923C48.1187 15.1042 48.1187 15.1042 48.1187 15.122C48.1187 15.1101 48.1187 15.1101 48.1068 15.0923C48.1068 15.2647 48.095 15.443 48.0772 15.6154C48.0358 15.9483 47.9884 16.2693 47.9351 16.5904C47.8641 16.9114 47.7752 17.2264 47.6864 17.5475C47.5857 17.8506 47.4673 18.1717 47.337 18.4749C47.2068 18.7661 47.0646 19.0693 46.9048 19.3606C46.7449 19.6341 46.5732 19.9254 46.3837 20.187C46.1942 20.4604 45.9929 20.722 45.7915 20.9717C45.5724 21.2332 45.3415 21.4651 45.1105 21.6969C44.9684 21.8277 44.8382 21.9466 44.6901 22.0596C44.5717 22.1606 44.471 22.2498 44.3585 22.3509C44.098 22.553 43.8374 22.7432 43.5473 22.9156C43.2749 23.088 42.9847 23.2664 42.6946 23.409C42.3926 23.5517 42.0846 23.6825 41.7826 23.8133C41.4806 23.9322 41.1609 24.0332 40.8411 24.1165C40.5214 24.2056 40.1897 24.277 39.87 24.3364C39.5384 24.3959 39.2068 24.4256 38.887 24.4553C38.6561 24.4672 38.4251 24.485 38.1942 24.485C37.8626 24.485 37.531 24.4553 37.2112 24.4256C36.8796 24.3959 36.548 24.3543 36.2282 24.2829C35.8966 24.2235 35.5769 24.1402 35.2571 24.0332H35.2453C35.565 24.0035 35.8789 23.9738 36.1986 23.9143C36.5302 23.8549 36.85 23.7836 37.1698 23.6944C37.4895 23.6052 37.8034 23.5042 38.1113 23.3912C38.431 23.2723 38.733 23.1296 39.0232 22.987C39.3252 22.8443 39.6035 22.6838 39.8937 22.5054C40.1661 22.3152 40.4444 22.1309 40.7049 21.9228C40.9655 21.7207 41.2082 21.5008 41.4451 21.2689C41.6938 21.049 41.907 20.8052 42.1261 20.5555C42.3452 20.294 42.5465 20.0324 42.736 19.7708C42.7656 19.7292 42.7952 19.6698 42.8248 19.6281C42.9669 19.3963 43.115 19.1644 43.2453 18.9326C43.4051 18.6413 43.5473 18.35 43.6775 18.0468C43.8078 17.7436 43.9262 17.4345 44.0269 17.1194C44.1276 16.8163 44.1986 16.4952 44.2756 16.1742C44.3348 15.8413 44.394 15.5203 44.4177 15.1993C44.4473 14.8664 44.4769 14.5335 44.4769 14.2124C44.4769 13.9806 44.4651 13.7487 44.4473 13.5169C44.4177 13.184 44.3763 12.863 44.3289 12.5419C44.2697 12.209 44.1986 11.888 44.1098 11.567C44.0091 11.2638 43.9085 10.9428 43.79 10.6396C43.6716 10.3364 43.5295 10.0273 43.3874 9.74194C43.2275 9.45065 43.0676 9.15935 42.8959 8.88589C42.7064 8.61243 42.5169 8.35086 42.3156 8.08929C42.0965 7.83961 41.8833 7.59587 41.6524 7.34619C41.5339 7.22729 41.4037 7.09651 41.2793 6.98356C40.6279 6.47825 39.947 5.99672 39.2719 5.56275C39.1712 5.5033 39.0824 5.46169 38.9817 5.42007C38.4725 5.13472 38.0225 4.97421 37.5724 4.82559Z" fill="#F94E1E"/>
</g>
<defs>
<clipPath id="clip0_2854_15087">
<rect width="56" height="64" fill="white"/>
</clipPath>
</defs>
</svg>
