<svg width="71" height="64" viewBox="0 0 71 64" fill="none" xmlns="http://www.w3.org/2000/svg">
<g clip-path="url(#clip0_2854_14801)">
<path d="M30.3019 44.1744C30.3019 44.5679 30.3019 44.874 30.3019 45.215C25.8627 45.215 21.4587 45.215 17.0195 45.215C17.0195 38.7092 17.0195 32.2208 17.0195 25.6975C21.3973 25.6975 25.775 25.6975 30.1791 25.6975C30.1791 26.0211 30.1791 26.3271 30.1791 26.6856C26.2049 26.6856 22.2395 26.6856 18.239 26.6856C18.239 29.3177 18.239 31.8973 18.239 34.5381C21.9675 34.5381 25.7048 34.5381 29.4597 34.5381C29.4597 34.9054 29.4597 35.2202 29.4597 35.5787C25.7048 35.5787 21.9851 35.5787 18.2302 35.5787C18.2302 38.4556 18.2302 41.2888 18.2302 44.1744C22.2395 44.1744 26.2575 44.1744 30.3019 44.1744Z" fill="#F94E1E"/>
<path d="M31.3995 25.6713C31.8645 25.6713 32.2417 25.6363 32.6102 25.6888C32.7593 25.7063 32.926 25.8724 33.0225 26.0123C34.9087 28.6094 36.7861 31.2065 38.6636 33.8123C38.7601 33.9522 38.8741 34.0834 38.9443 34.1883C43.6115 28.111 48.2613 22.0511 52.911 16C52.9636 16.035 53.0162 16.07 53.0601 16.1137C48.6473 22.4621 44.2344 28.8018 39.8128 35.1765C42.2342 38.4993 44.6555 41.8222 47.1295 45.2325C46.6207 45.2325 46.1908 45.2587 45.7609 45.215C45.6381 45.2063 45.5241 45.0226 45.4363 44.9002C43.3922 42.0933 41.3481 39.2863 39.304 36.4881C39.2163 36.3744 39.1285 36.2608 39.0057 36.1034C38.8917 36.2608 38.7952 36.3744 38.7074 36.5056C36.6896 39.2601 34.6718 42.0146 32.6716 44.7778C32.4259 45.1188 32.1803 45.32 31.7504 45.25C31.5048 45.215 31.2591 45.2413 30.9082 45.2413C31.0486 45.0401 31.1451 44.8915 31.2504 44.7428C33.4962 41.6823 35.7334 38.6217 37.9793 35.5787C38.1898 35.2989 38.2249 35.1065 37.9968 34.7917C35.9001 31.9148 33.8208 29.0291 31.7329 26.1435C31.6451 26.0211 31.5486 25.8812 31.3995 25.6713Z" fill="#F94E1E"/>
<path d="M1.69313 27.3239C1.69313 33.2789 1.69313 39.2338 1.69313 45.2062C1.26325 45.2062 0.894786 45.2062 0.5 45.2062C0.5 38.6917 0.5 32.2033 0.5 25.6713C0.956197 25.6713 1.39485 25.645 1.82473 25.6887C1.95632 25.6975 2.10546 25.8724 2.19319 26.0035C6.31652 32.1071 10.4223 38.2107 14.5368 44.3143C16.8442 47.7334 19.1515 51.1524 21.4588 54.5802C21.5553 54.7201 21.6342 54.86 21.7132 55.0087C14.5544 46.1331 8.34309 36.6018 1.82473 27.2802C1.78086 27.2977 1.737 27.3065 1.69313 27.3239Z" fill="#F94E1E"/>
<path d="M55.7694 45.2151C55.3483 45.2151 54.9886 45.2151 54.5675 45.2151C54.5675 39.059 54.5675 32.9117 54.5675 26.7207C52.2514 26.7207 49.988 26.7207 47.6895 26.7207C47.6895 26.3622 47.6895 26.0386 47.6895 25.6888C52.6725 25.6888 57.6556 25.6888 62.665 25.6888C62.665 26.0036 62.665 26.3184 62.665 26.6857C60.3928 26.6857 58.1118 26.6857 55.7694 26.6857C55.7694 32.8855 55.7694 39.0415 55.7694 45.2151Z" fill="#F94E1E"/>
<path d="M70.4658 40.6505C70.0535 40.7554 69.8254 40.7117 69.6236 40.3794C69.3867 39.9859 68.5884 39.9684 68.2375 40.2832C67.9216 40.563 67.9743 40.9915 68.3866 41.1576C68.7814 41.315 69.2025 41.385 69.5973 41.5162C70.2816 41.7348 70.5711 42.1458 70.4921 42.7754C70.4746 42.9065 70.4395 43.0377 70.3869 43.1514C70.1412 43.7023 69.4043 44.0083 68.6147 43.9121C67.8164 43.8072 67.404 43.4574 67.2637 42.7404C67.5795 42.6704 67.8251 42.618 68.0532 42.994C68.3252 43.4399 69.2551 43.4662 69.6412 43.0989C69.957 42.8016 69.878 42.3644 69.4394 42.1982C69.0183 42.0321 68.5621 41.9621 68.141 41.8135C67.4742 41.5774 67.2023 40.974 67.4391 40.3444C67.483 40.222 67.5532 40.1083 67.6409 40.0121C68.2375 39.3126 69.6763 39.3563 70.2114 40.0996C70.3167 40.2395 70.3693 40.4406 70.4658 40.6505Z" fill="#F94E1E"/>
<path d="M66.3504 39.6187C66.3504 40.7292 66.3943 41.8135 66.3329 42.8978C66.289 43.6061 65.6486 43.9996 64.9029 43.9209C64.201 43.8422 63.7975 43.4225 63.815 42.7491C63.9817 42.7491 64.1572 42.7491 64.3589 42.7491C64.3765 42.7754 64.4116 42.8191 64.4291 42.8628C64.5519 43.2301 64.8239 43.3525 65.1836 43.3C65.5521 43.2476 65.7012 42.9852 65.7012 42.6442C65.71 41.8135 65.71 40.9915 65.71 40.1608C65.71 39.9947 65.71 39.8198 65.71 39.6274C65.9644 39.6187 66.1486 39.6187 66.3504 39.6187Z" fill="#F94E1E"/>
<path d="M62.6478 42.9327C62.7706 43.0814 62.9636 43.2213 62.9987 43.3962C63.0513 43.6498 62.8846 43.8859 62.6127 43.8422C62.446 43.8159 62.2091 43.6148 62.2003 43.4749C62.1828 43.3087 62.3758 43.1251 62.4723 42.9415C62.5162 42.9415 62.5864 42.9415 62.6478 42.9327Z" fill="#F94E1E"/>
</g>
<defs>
<clipPath id="clip0_2854_14801">
<rect width="70" height="64" fill="white" transform="translate(0.5)"/>
</clipPath>
</defs>
</svg>
