<svg width="56" height="64" viewBox="0 0 56 64" fill="none" xmlns="http://www.w3.org/2000/svg">
<path d="M27.9937 63.2896C27.1644 63.2896 26.3407 63.0722 25.6137 62.654L18.0378 58.173C16.9063 57.5409 17.4584 57.3173 17.8316 57.1884C19.3403 56.6607 19.6465 56.5415 21.2568 55.6278C21.4261 55.5314 21.6476 55.5654 21.8209 55.6676L27.641 59.1179C27.8512 59.2314 28.1494 59.2314 28.3442 59.1179L51.0372 46.0315C51.2474 45.9123 51.3837 45.6683 51.3837 45.4186V19.2572C51.3837 18.9961 51.2474 18.7635 51.0326 18.6329L28.3488 5.55788C28.1386 5.43303 27.8602 5.43303 27.6501 5.55788L4.97072 18.6329C4.75089 18.7578 4.61116 19.0018 4.61116 19.2515V45.413C4.61116 45.6627 4.74748 45.901 4.96334 46.0202L11.1776 49.6067C14.5518 51.2922 16.6137 49.306 16.6137 47.3084V21.4874C16.6137 21.1185 16.9034 20.8348 17.2726 20.8348H20.1469C20.5048 20.8348 20.8001 21.1185 20.8001 21.4874V47.3197C20.8001 51.8143 18.3462 54.3964 14.0803 54.3964C12.7681 54.3964 11.7343 54.3964 8.84869 52.9776L2.89569 49.55C1.42448 48.6987 0.515625 47.1098 0.515625 45.413V19.2515C0.515625 17.549 1.42448 15.96 2.89569 15.1201L25.6114 2.02807C27.0485 1.21655 28.9571 1.21655 30.3829 2.02807L53.0702 15.1258C54.5357 15.9714 55.4502 17.5547 55.4502 19.2572V45.4186C55.4502 47.1154 54.5357 48.6987 53.0702 49.55L30.3829 62.6421C29.6558 63.062 28.8322 63.2776 27.9915 63.2776" fill="#F94E1E"/>
<path d="M35.0033 45.2627C25.074 45.2627 22.9922 40.7091 22.9922 36.8899C22.9922 36.5267 23.2853 36.2372 23.6494 36.2372H26.5805C26.9042 36.2372 27.1769 36.4728 27.228 36.7923C27.6711 39.7761 28.9889 41.2811 34.993 41.2811C39.7759 41.2811 41.8094 40.2018 41.8094 37.6679C41.8094 36.2094 41.2301 35.1255 33.8002 34.3991C27.5859 33.7862 23.746 32.4186 23.746 27.453C23.746 22.879 27.6086 20.155 34.0785 20.155C41.3437 20.155 44.945 22.6747 45.3994 28.0886C45.4165 28.2759 45.3483 28.4575 45.2233 28.5937C45.0984 28.7242 44.9223 28.8036 44.7405 28.8036H41.7924C41.4857 28.8036 41.2187 28.588 41.1562 28.2929C40.4462 25.1547 38.7307 24.1502 34.0672 24.1502C28.8469 24.1502 28.2391 25.9662 28.2391 27.3282C28.2391 28.9796 28.9548 29.4619 35.9985 30.3926C42.9739 31.3176 46.2856 32.6229 46.2856 37.5203C46.2856 42.4575 42.1616 45.2893 34.9703 45.2893L35.0033 45.2627Z" fill="#F94E1E"/>
</svg>
