<svg width="56" height="64" viewBox="0 0 56 64" fill="none" xmlns="http://www.w3.org/2000/svg">
<path d="M55.5219 35.8713C55.5219 32.2317 50.956 28.7824 43.9557 26.6435C45.5711 19.521 44.8532 13.8544 41.6896 12.0402C40.9604 11.6146 40.1078 11.4131 39.1766 11.4131V13.9104C39.6927 13.9104 40.1078 14.0112 40.4556 14.2016C41.9813 15.0751 42.6431 18.4011 42.1271 22.6791C42.0037 23.7318 41.8018 24.8405 41.555 25.9715C39.3561 25.434 36.9554 25.0196 34.4313 24.7509C32.9168 22.6791 31.3462 20.7977 29.7644 19.1515C33.4216 15.7582 36.8544 13.8992 39.1879 13.8992V11.4019C36.1028 11.4019 32.0642 13.5968 27.9807 17.4044C23.8972 13.6192 19.8586 11.4467 16.7735 11.4467V13.944C19.0957 13.944 22.5398 15.7918 26.197 19.1626C24.6264 20.8089 23.0558 22.6791 21.5638 24.7509C19.0284 25.0196 16.6277 25.434 14.4289 25.9827C14.1708 24.8629 13.9801 23.7766 13.8455 22.7351C13.3182 18.4571 13.9689 15.1311 15.4834 14.2464C15.8199 14.0448 16.2575 13.9552 16.7735 13.9552V11.4578C15.8312 11.4578 14.9786 11.6594 14.2381 12.085C11.0858 13.8992 10.379 19.5546 12.0057 26.6547C5.02783 28.8048 0.484375 32.2429 0.484375 35.8713C0.484375 39.5109 5.05026 42.9602 12.0505 45.0992C10.4351 52.2216 11.1531 57.8882 14.3167 59.7024C15.0459 60.128 15.8985 60.3296 16.8408 60.3296C19.9259 60.3296 23.9645 58.1346 28.048 54.327C32.1315 58.1122 36.1701 60.2848 39.2552 60.2848C40.1975 60.2848 41.0501 60.0832 41.7905 59.6576C44.9429 57.8434 45.6497 52.188 44.023 45.088C50.9784 42.949 55.5219 39.4997 55.5219 35.8713ZM40.9155 28.4017C40.5004 29.8463 39.9844 31.3358 39.401 32.8252C38.9411 31.9293 38.4587 31.0334 37.9314 30.1375C37.4154 29.2416 36.8657 28.3681 36.316 27.517C37.909 27.7522 39.4459 28.0433 40.9155 28.4017ZM35.7775 40.3284C34.9024 41.8403 34.005 43.2737 33.0738 44.6064C31.4023 44.752 29.7083 44.8304 28.0031 44.8304C26.3091 44.8304 24.6152 44.752 22.9548 44.6176C22.0237 43.2849 21.115 41.8627 20.24 40.362C19.3874 38.895 18.6133 37.4056 17.9066 35.9049C18.6021 34.4043 19.3874 32.9036 20.2288 31.4366C21.1038 29.9247 22.0013 28.4913 22.9324 27.1586C24.6039 27.013 26.2979 26.9346 28.0031 26.9346C29.6971 26.9346 31.3911 27.013 33.0514 27.1474C33.9825 28.4801 34.8912 29.9023 35.7663 31.403C36.6189 32.87 37.3929 34.3595 38.0997 35.8601C37.3929 37.3608 36.6189 38.8614 35.7775 40.3284ZM39.401 38.8726C40.0068 40.3732 40.5229 41.8739 40.9492 43.3297C39.4795 43.6881 37.9314 43.9905 36.3272 44.2256C36.8769 43.3633 37.4266 42.4786 37.9426 41.5715C38.4587 40.6756 38.9411 39.7685 39.401 38.8726ZM28.0256 50.8218C26.9822 49.7467 25.9389 48.5484 24.9068 47.2381C25.9165 47.2829 26.9486 47.3165 27.9919 47.3165C29.0464 47.3165 30.0897 47.2941 31.1106 47.2381C30.101 48.5484 29.0577 49.7467 28.0256 50.8218ZM19.6791 44.2256C18.0861 43.9905 16.5491 43.6993 15.0795 43.3409C15.4946 41.8963 16.0106 40.4068 16.594 38.9174C17.054 39.8133 17.5364 40.7092 18.0636 41.6051C18.5909 42.501 19.1294 43.3745 19.6791 44.2256ZM27.9695 20.9209C29.0128 21.996 30.0561 23.1942 31.0882 24.5045C30.0785 24.4597 29.0464 24.4261 28.0031 24.4261C26.9486 24.4261 25.9053 24.4485 24.8844 24.5045C25.8941 23.1942 26.9374 21.996 27.9695 20.9209ZM19.6678 27.517C19.1181 28.3793 18.5684 29.264 18.0524 30.1711C17.5363 31.067 17.054 31.9629 16.594 32.8588C15.9882 31.3582 15.4722 29.8575 15.0459 28.4017C16.5155 28.0545 18.0636 27.7522 19.6678 27.517ZM9.51519 41.5379C5.54388 39.8469 2.97486 37.6295 2.97486 35.8713C2.97486 34.1131 5.54388 31.8845 9.51519 30.2047C10.48 29.7903 11.5345 29.4208 12.6227 29.0736C13.2621 31.2686 14.1035 33.5532 15.1468 35.8937C14.1147 38.2231 13.2846 40.4964 12.6563 42.6802C11.5457 42.333 10.4912 41.9523 9.51519 41.5379ZM15.5507 57.5411C14.025 56.6676 13.3631 53.3415 13.8792 49.0635C14.0026 48.0108 14.2045 46.9022 14.4513 45.7711C16.6501 46.3086 19.0508 46.723 21.575 46.9918C23.0895 49.0635 24.66 50.9449 26.2418 52.5912C22.5846 55.9844 19.1518 57.8434 16.8184 57.8434C16.3135 57.8322 15.8872 57.7314 15.5507 57.5411ZM42.1607 49.0075C42.688 53.2855 42.0373 56.6116 40.5229 57.4963C40.1863 57.6978 39.7488 57.7874 39.2327 57.7874C36.9105 57.7874 33.4665 55.9396 29.8093 52.5688C31.3799 50.9226 32.9504 49.0523 34.4425 46.9806C36.9778 46.7118 39.3786 46.2974 41.5774 45.7487C41.8354 46.8798 42.0373 47.9661 42.1607 49.0075ZM46.4798 41.5379C45.5151 41.9523 44.4605 42.3218 43.3723 42.669C42.7329 40.474 41.8915 38.1895 40.8482 35.8489C41.8803 33.5196 42.7104 31.2462 43.3387 29.0624C44.4493 29.4096 45.5038 29.7903 46.4911 30.2047C50.4624 31.8957 53.0314 34.1131 53.0314 35.8713C53.0202 37.6295 50.4511 39.8581 46.4798 41.5379Z" fill="#F94E1E"/>
<path d="M27.994 40.9892C30.8255 40.9892 33.1208 38.6978 33.1208 35.8713C33.1208 33.0448 30.8255 30.7534 27.994 30.7534C25.1625 30.7534 22.8672 33.0448 22.8672 35.8713C22.8672 38.6978 25.1625 40.9892 27.994 40.9892Z" fill="#F94E1E"/>
</svg>
