<svg width="66" height="64" viewBox="0 0 66 64" fill="none" xmlns="http://www.w3.org/2000/svg">
<path fill-rule="evenodd" clip-rule="evenodd" d="M24.3729 0C20.797 0.00260958 17.903 2.86793 17.9056 6.3987C17.903 9.92946 20.7996 12.7948 24.3755 12.7974H30.8454V6.40131C30.848 2.87054 27.9514 0.00521917 24.3729 0C24.3755 0 24.3755 0 24.3729 0V0ZM24.3729 17.0667H7.12515C3.54928 17.0693 0.652638 19.9346 0.655281 23.4654C0.649995 26.9961 3.54664 29.8615 7.12251 29.8667H24.3729C27.9487 29.8641 30.8454 26.9987 30.8427 23.468C30.8454 19.9346 27.9487 17.0693 24.3729 17.0667Z" fill="#F94E1E"/>
<path fill-rule="evenodd" clip-rule="evenodd" d="M65.3428 23.4654C65.3454 19.9346 62.4488 17.0693 58.8729 17.0667C55.297 17.0693 52.4004 19.9346 52.403 23.4654V29.8667H58.8729C62.4488 29.8641 65.3454 26.9987 65.3428 23.4654ZM48.0924 23.4654V6.3987C48.0951 2.87054 45.201 0.00521917 41.6252 0C38.0493 0.00260958 35.1526 2.86793 35.1553 6.3987V23.4654C35.15 26.9961 38.0466 29.8615 41.6225 29.8667C45.1984 29.8641 48.0951 26.9987 48.0924 23.4654Z" fill="#F94E1E"/>
<path fill-rule="evenodd" clip-rule="evenodd" d="M41.6251 64C45.201 63.9974 48.0977 61.1321 48.095 57.6013C48.0977 54.0706 45.201 51.2052 41.6251 51.2026H35.1553V57.6013C35.1526 61.1295 38.0493 63.9948 41.6251 64ZM41.6251 46.9307H58.8755C62.4514 46.9281 65.348 44.0628 65.3454 40.532C65.3507 37.0013 62.454 34.136 58.8782 34.1307H41.6278C38.0519 34.1333 35.1553 36.9987 35.1579 40.5294C35.1553 44.0628 38.0493 46.9281 41.6251 46.9307Z" fill="#F94E1E"/>
<path fill-rule="evenodd" clip-rule="evenodd" d="M0.655275 40.5319C0.652632 44.0627 3.54928 46.928 7.12516 46.9306C10.701 46.928 13.5977 44.0627 13.595 40.5319V34.1332H7.12516C3.54928 34.1358 0.652632 37.0011 0.655275 40.5319ZM17.9056 40.5319V57.5986C17.9004 61.1294 20.797 63.9947 24.3729 63.9999C27.9488 63.9973 30.8454 61.132 30.8428 57.6012V40.5371C30.8481 37.0063 27.9514 34.141 24.3755 34.1358C20.797 34.1358 17.903 37.0011 17.9056 40.5319C17.9056 40.5319 17.9056 40.5345 17.9056 40.5319Z" fill="#F94E1E"/>
</svg>
