<svg width="39" height="64" viewBox="0 0 39 64" fill="none" xmlns="http://www.w3.org/2000/svg">
<path fill-rule="evenodd" clip-rule="evenodd" d="M16.0362 21.3695C16.0362 19.1554 17.855 18.3038 20.8674 18.3038C25.187 18.3038 30.6434 19.6095 34.9631 21.9372V8.59586C30.2456 6.7224 25.5849 5.98438 20.8674 5.98438C9.32933 5.98437 1.65625 12.0022 1.65625 22.0507C1.65625 37.7197 23.2545 35.2217 23.2545 41.9775C23.2545 44.589 20.981 45.4406 17.7981 45.4406C13.0806 45.4406 7.05582 43.5104 2.28146 40.8989V54.4105C7.56736 56.6813 12.9101 57.6465 17.7981 57.6465C29.6203 57.6465 37.7481 51.799 37.7481 41.6369C37.6913 24.719 16.0362 27.7279 16.0362 21.3695Z" fill="#F94E1E"/>
</svg>
