<svg width="56" height="64" viewBox="0 0 56 64" fill="none" xmlns="http://www.w3.org/2000/svg">
<path d="M27.9704 19.2207C20.8423 19.2207 16.386 22.7377 14.6043 29.7703C17.2776 26.2534 20.3959 24.9347 23.9606 25.8142C25.9949 26.3153 27.4478 27.7712 29.0571 29.3826C31.6768 32.0069 34.7109 35.0452 41.3365 35.0452C48.4646 35.0452 52.9209 31.5282 54.7026 24.4955C52.0293 28.0125 48.911 29.3312 45.3463 28.4516C43.3133 27.9505 41.8591 26.4947 40.2498 24.8832C37.6301 22.259 34.596 19.2207 27.9704 19.2207ZM14.6043 35.0452C7.47622 35.0452 3.01998 38.5622 1.23828 45.5948C3.91149 42.0778 7.0298 40.7591 10.5945 41.6387C12.6275 42.1398 14.0817 43.5957 15.691 45.2071C18.3108 47.8313 21.3449 50.8696 27.9704 50.8696C35.0985 50.8696 39.5548 47.3526 41.3365 40.32C38.6633 43.837 35.545 45.1557 31.9802 44.2761C29.9473 43.775 28.493 42.3192 26.8838 40.7077C24.264 38.0835 21.2299 35.0452 14.6043 35.0452Z" fill="#F94E1E"/>
</svg>
