<svg width="64" height="64" viewBox="0 0 64 64" fill="none" xmlns="http://www.w3.org/2000/svg">
<path fill-rule="evenodd" clip-rule="evenodd" d="M0.01875 0H63.9813C63.9916 0 64 0.00839466 64 0.01875V63.9813C64 63.9916 63.9916 64 63.9813 64H0.01875C0.00839466 64 0 63.9916 0 63.9813V0.01875C0 0.00839466 0.00839466 0 0.01875 0ZM55.875 43.625C55.375 44.375 54.5 44.875 53.5 44.625L53.625 44.5C52.7994 44.5 49.8871 42.0767 47.8025 40.3421C47.0464 39.713 46.3992 39.1744 46 38.875C45.5 38.375 45.125 37.5 45 36.5C44.9 36 44.9 35.625 44.9 34.625V29.875C44.9 29 44.9 28.375 45 28C45.125 25.875 50.875 20.75 53.5 19C54.5 18.625 55.5 19 55.875 20C56.125 20.5 56.125 21 56.125 22.375V41.25C56.125 42.625 56.125 43.25 55.875 43.625ZM8.375 20C8 20.5 8 21.5 8 23.375V31.875C8 36.625 8 39 9 40.875C9.7622 42.5083 10.9986 43.3828 12.2136 44.2421C12.3934 44.3693 12.5727 44.4961 12.75 44.625C14.625 45.625 17 45.625 21.75 45.625H37.875C39.875 45.625 40.75 45.625 41.25 45.25C41.3669 45.1331 41.5202 45.0041 41.6835 44.8666C42.044 44.5633 42.4529 44.2191 42.625 43.875C43 43.375 43 42.375 43 40.5V32C43 27.25 43 24.875 42 23C41.2378 21.3667 40.0014 20.4922 38.7864 19.6329C38.6066 19.5057 38.4273 19.3789 38.25 19.25C36.375 18.25 34 18.25 29.25 18.25H13.125C11.125 18.25 10.25 18.25 9.75 18.625C9.6331 18.7419 9.47975 18.871 9.31648 19.0084C8.95598 19.3117 8.54707 19.6559 8.375 20Z" fill="#F94E1E"/>
</svg>
