<svg width="486" height="568" viewBox="0 0 486 568" fill="none" xmlns="http://www.w3.org/2000/svg">
<g clip-path="url(#clip0_2821_36971)">
<path d="M258.232 293.733C261.586 282.76 264.976 271.798 268.261 260.805C268.799 259.011 269.531 258.613 271.307 259.173C278.825 261.553 286.371 263.86 293.943 266.066C294.995 266.372 296.44 266.317 297.373 265.817C298.757 265.073 297.976 263.651 297.659 262.474C296.355 257.587 298.695 252.789 303.351 250.76C307.681 248.872 312.905 250.496 315.524 254.542C318.117 258.547 317.26 264.044 313.69 267.354C312.874 268.113 311.798 269.529 312.034 270.256C312.346 271.213 313.731 272.106 314.839 272.461C322.288 274.853 329.771 277.135 337.275 279.348C339.136 279.895 339.592 280.689 338.992 282.578C336.597 290.092 334.31 297.644 332.079 305.208C331.799 306.158 331.699 307.715 332.24 308.213C332.89 308.815 334.389 308.908 335.381 308.66C340.41 307.39 345.306 309.606 347.363 314.277C349.273 318.607 347.666 323.88 343.659 326.462C339.436 329.179 334.06 328.283 330.594 324.441C329.906 323.675 328.649 322.882 327.769 322.994C327.047 323.09 326.22 324.424 325.923 325.359C323.537 332.875 321.27 340.433 318.96 347.973C318.215 350.407 318.075 350.473 315.651 349.732C308.044 347.411 300.453 345.036 292.817 342.81C291.835 342.526 290.322 342.62 289.644 343.215C289.086 343.704 289.123 345.259 289.368 346.222C290.473 350.563 288.977 354.922 285.35 357.385C281.943 359.697 277.15 359.519 273.834 356.95C270.469 354.346 269.003 349.703 270.666 345.745C271.365 344.083 272.882 342.78 273.934 341.247C274.475 340.458 275.259 339.427 275.1 338.681C274.938 337.911 273.868 337.022 273.018 336.751C265.44 334.336 257.821 332.05 250.216 329.725C247.497 328.894 247.487 328.891 248.339 326.086C251.631 315.302 254.933 304.52 258.232 293.733Z" fill="#9FCA78"/>
<path d="M232.856 128.773C226.405 124.684 220.122 124.525 214.359 129.46C209.814 133.355 208.33 138.584 210.126 144.303C212.325 151.291 217.522 154.522 224.939 154.684C224.718 155.407 224.532 156.016 224.344 156.629C222.686 162.051 221.059 167.481 219.361 172.89C217.884 177.598 218.671 177.037 214.017 175.652C207.65 173.754 201.317 171.725 194.93 169.887C193.938 169.6 192.372 169.623 191.743 170.216C191.152 170.777 191.159 172.339 191.389 173.353C192.336 177.482 191.415 181.029 188.173 183.73C184.923 186.439 181.213 186.837 177.41 184.916C173.757 183.074 171.962 179.973 172.049 175.909C172.111 172.994 173.324 170.562 175.525 168.552C176.305 167.841 177.268 166.472 177.046 165.755C176.759 164.838 175.453 163.954 174.406 163.617C166.27 161.026 158.09 158.58 149.929 156.073C147.506 155.327 147.464 155.233 148.225 152.744C154.871 130.992 161.521 109.242 168.176 87.4927C168.928 85.0339 169.058 84.9646 171.462 85.6996C179.005 88.0003 186.53 90.3559 194.102 92.5618C195.149 92.8656 196.738 92.8225 197.464 92.2154C198.045 91.7224 197.963 90.0665 197.711 89.0351C196.544 84.2717 198.825 79.2372 203.178 77.3069C207.662 75.3239 212.981 76.89 215.547 80.9469C218.244 85.2183 217.467 90.5434 213.651 93.8378C212.719 94.6381 211.309 95.396 212.048 96.7782C212.548 97.711 213.722 98.5444 214.772 98.8762C222.284 101.277 229.826 103.577 237.389 105.813C239.019 106.295 239.628 106.874 239.054 108.678C236.912 115.31 234.933 121.98 232.856 128.773Z" fill="#FFD27C"/>
<mask id="path-3-inside-1_2821_36971" fill="white">
<path d="M138.701 223.629C138.963 223.376 139.256 223.15 139.483 222.87C144.472 216.651 152.225 215.302 159.004 219.474C159.331 219.673 159.691 219.815 160.192 220.067C160.407 219.363 160.595 218.75 160.781 218.142C162.306 213.154 163.766 208.147 165.379 203.192C166.157 200.807 167.373 198.56 168.11 196.168C168.833 193.804 169.03 191.285 169.743 188.918C174.953 171.701 180.237 154.506 185.497 137.305C186.793 133.065 188.074 128.821 189.389 124.593C190.703 120.365 193.395 118.93 197.622 120.211C203.673 122.04 209.713 123.903 215.758 125.751C216.436 125.958 217.115 126.166 217.937 126.417C218.232 118.66 221.666 113.296 229.239 111.412C235.077 109.958 240.157 111.805 243.781 116.578C248.112 122.282 247.774 128.276 243.836 134.341C246.709 135.22 249.492 136.071 252.28 136.923C255.771 137.991 259.202 139.361 262.769 140.021C265.293 140.488 266.839 142.727 269.571 142.799C271.98 142.859 274.392 143.744 276.752 144.427C281.51 145.811 286.229 147.303 290.967 148.752C291.586 148.941 292.204 149.13 292.958 149.36C293.205 141.665 296.611 136.27 304.154 134.361C310.047 132.869 315.185 134.723 318.841 139.604C323.082 145.264 322.769 151.194 318.851 157.283C319.624 157.519 320.277 157.719 320.931 157.919C326.916 159.749 332.897 161.572 338.881 163.407C343.512 164.829 344.913 167.4 343.528 171.983C341.733 177.908 339.913 183.825 338.103 189.745C337.896 190.423 337.688 191.102 337.424 191.965C345.506 192.27 351.117 195.895 352.644 203.904C353.725 209.552 351.887 214.673 346.988 218.121C341.262 222.152 335.416 221.651 329.519 217.82C328.882 219.904 328.279 221.874 327.677 223.844C326.266 228.458 324.906 233.087 323.417 237.671C322.965 239.059 322.132 240.321 321.487 241.645C321.324 241.983 321.171 242.34 321.109 242.702C320.814 244.472 320.739 246.303 320.249 248.013C318.643 253.587 316.893 259.116 315.197 264.662C314.991 265.335 314.785 266.009 314.499 266.946C320.646 266.89 325.297 269.266 328.294 274.464C330.788 278.776 330.423 283.197 328.549 287.598C326.727 291.878 323.301 294.327 318.925 295.404C314.519 296.49 310.432 295.442 306.625 292.68C304.754 298.8 302.945 304.715 301.138 310.625C300.853 311.558 300.581 312.5 300.276 313.426C299.013 317.272 296.286 318.735 292.379 317.567C286.074 315.678 279.787 313.728 273.493 311.804C273.004 311.654 272.51 311.503 271.902 311.317C271.651 312.975 271.578 314.518 271.172 315.97C269.236 322.909 263.591 326.959 256.349 326.724C256.101 326.714 255.847 326.816 255.597 326.865C253.851 326.332 252.106 325.798 250.36 325.264C250.079 325.025 249.821 324.761 249.521 324.549C244.975 321.349 242.482 316.981 243.002 311.425C243.256 308.689 244.549 306.046 245.413 303.218C241.423 301.998 237.025 300.795 232.733 299.297C229.031 298.008 224.852 297.853 221.789 294.937C221.649 294.807 221.3 294.913 221.054 294.881C219.334 294.655 217.566 294.622 215.913 294.16C211.461 292.919 207.053 291.495 202.636 290.139C199.584 289.206 196.514 288.327 193.485 287.319C191.089 286.521 190.758 284.555 192.655 282.899C192.9 282.685 193.182 282.515 193.415 282.286C196.383 279.392 197.448 275.911 196.16 271.972C194.879 268.063 192.108 265.71 187.931 265.208C180.798 264.352 175.465 270.842 177.339 277.965C177.587 278.903 177.485 280.322 176.922 280.968C176.436 281.523 174.96 281.606 174.084 281.349C166.084 278.996 158.109 276.557 150.154 274.071C146.391 272.893 144.945 270.095 146.065 266.325C147.325 262.08 148.646 257.848 149.94 253.614C150.712 251.09 151.484 248.567 152.31 245.863C148.52 245.97 145.254 245.129 142.399 242.942C138.376 239.852 136.748 235.635 136.528 230.736C137.252 228.367 137.976 225.998 138.701 223.629ZM235.641 256.966C232.344 267.749 229.04 278.535 225.748 289.32C224.891 292.123 224.906 292.127 227.625 292.958C235.23 295.284 242.847 297.574 250.427 299.985C251.277 300.255 252.347 301.144 252.509 301.914C252.668 302.661 251.879 303.69 251.343 304.48C250.296 306.015 248.774 307.316 248.075 308.979C246.407 312.935 247.878 317.579 251.243 320.184C254.555 322.745 259.354 322.926 262.759 320.618C266.386 318.155 267.881 313.802 266.777 309.456C266.532 308.492 266.495 306.937 267.053 306.448C267.731 305.854 269.249 305.761 270.226 306.044C277.862 308.269 285.454 310.64 293.06 312.965C295.484 313.706 295.626 313.635 296.369 311.206C298.679 303.667 300.946 296.109 303.332 288.592C303.63 287.652 304.458 286.318 305.178 286.228C306.053 286.113 307.31 286.907 308.003 287.675C311.474 291.518 316.844 292.418 321.068 289.695C325.08 287.115 326.682 281.841 324.772 277.51C322.719 272.846 317.818 270.628 312.79 271.894C311.803 272.143 310.299 272.048 309.649 271.446C309.108 270.948 309.208 269.392 309.488 268.441C311.719 260.877 314.006 253.325 316.401 245.811C316.999 243.927 316.549 243.135 314.684 242.581C307.18 240.369 299.697 238.086 292.248 235.694C291.14 235.339 289.757 234.442 289.443 233.489C289.205 232.768 290.278 231.345 291.099 230.587C294.669 227.277 295.521 221.779 292.933 217.775C290.319 213.731 285.09 212.105 280.76 213.993C276.104 216.022 273.764 220.82 275.068 225.707C275.383 226.889 276.166 228.306 274.782 229.05C273.849 229.551 272.402 229.61 271.352 229.3C263.78 227.094 256.234 224.786 248.716 222.406C246.942 221.842 246.208 222.244 245.67 224.038C242.385 235.032 238.995 245.993 235.641 256.966ZM296.066 232.089C302.819 234.154 309.421 236.178 316.022 238.186C318.348 238.891 318.499 238.807 319.207 236.509C321.576 228.78 323.898 221.042 326.352 213.339C326.619 212.499 327.493 211.496 328.277 211.288C328.936 211.113 329.925 211.907 330.671 212.413C332.31 213.525 333.741 215.107 335.53 215.818C339.408 217.369 343.981 215.773 346.499 212.426C349.047 209.032 349.146 204.498 346.737 200.926C344.357 197.384 340.022 195.9 335.737 196.984C334.773 197.229 333.217 197.288 332.738 196.733C332.157 196.064 332.099 194.558 332.387 193.582C334.578 186.077 336.91 178.609 339.193 171.127C339.947 168.658 339.878 168.528 337.489 167.797C329.95 165.486 322.393 163.231 314.883 160.825C313.845 160.492 312.548 159.577 312.282 158.666C312.067 157.941 313.056 156.596 313.839 155.892C317.48 152.599 318.415 147.186 315.9 143.123C313.341 138.986 307.99 137.279 303.616 139.203C298.891 141.281 296.597 146.127 298.005 151.116C298.324 152.25 298.964 153.58 297.67 154.281C296.782 154.762 295.418 154.868 294.433 154.578C286.803 152.349 279.195 150.028 271.615 147.618C269.831 147.051 269.084 147.406 268.552 149.217C266.346 156.718 264.004 164.182 261.731 171.668C261.344 172.935 261.011 174.524 259.492 174.479C258.482 174.449 257.303 173.559 256.547 172.733C253.248 169.145 247.793 168.312 243.754 170.927C239.614 173.604 238.061 178.753 240.043 183.258C241.985 187.68 246.946 189.971 251.705 188.819C252.777 188.558 254.445 188.507 255.03 189.127C255.643 189.778 255.611 191.437 255.302 192.499C253.078 200.13 250.743 207.733 248.357 215.321C247.875 216.864 248.238 217.531 249.78 217.981C254.79 219.431 259.758 221.004 264.745 222.529C266.516 223.071 268.291 223.614 270.107 224.169C270.703 216.17 274.121 211.287 280.332 209.347C285.837 207.627 291.966 209.452 295.656 213.918C299.839 218.965 300.011 224.771 296.066 232.089ZM258.06 167.819C260.137 161.026 262.118 154.351 264.242 147.725C264.82 145.922 264.207 145.342 262.577 144.86C255.016 142.619 247.472 140.323 239.959 137.923C238.912 137.586 237.736 136.758 237.236 135.825C236.497 134.443 237.912 133.686 238.839 132.884C242.658 129.596 243.432 124.265 240.735 119.993C238.174 115.938 232.85 114.37 228.366 116.354C224.014 118.279 221.733 123.313 222.902 128.072C223.155 129.098 223.236 130.759 222.655 131.252C221.933 131.866 220.338 131.907 219.293 131.598C211.721 129.393 204.194 127.042 196.653 124.736C194.254 124.003 194.119 124.07 193.367 126.529C186.712 148.278 180.062 170.029 173.416 191.78C172.655 194.269 172.697 194.364 175.12 195.11C183.281 197.616 191.461 200.063 199.596 202.654C200.646 202.985 201.955 203.877 202.237 204.792C202.463 205.515 201.494 206.882 200.716 207.588C198.515 209.598 197.307 212.032 197.24 214.946C197.148 219.008 198.943 222.109 202.601 223.953C206.404 225.874 210.111 225.469 213.364 222.766C216.611 220.067 217.527 216.518 216.58 212.389C216.349 211.381 216.336 209.817 216.934 209.253C217.563 208.66 219.123 208.64 220.121 208.924C226.508 210.762 232.841 212.791 239.208 214.689C243.857 216.072 243.075 216.634 244.552 211.927C246.25 206.518 247.877 201.087 249.535 195.666C249.721 195.057 249.907 194.449 250.13 193.721C242.708 193.557 237.511 190.326 235.317 183.34C233.521 177.621 235.007 172.387 239.55 168.497C245.326 163.571 251.614 163.732 258.06 167.819ZM221.565 214.137C221.424 221.467 218.252 226.633 211.376 228.894C205.839 230.718 200.686 229.432 196.744 225.129C191.433 219.328 191.474 212.899 195.618 206.247C187.853 203.873 180.258 201.546 172.664 199.235C171.143 198.77 170.937 199.977 170.637 200.96C168.741 207.126 166.859 213.297 164.973 219.467C164.439 221.213 164.012 223.002 163.323 224.684C162.995 225.489 162.224 226.584 161.553 226.656C160.734 226.75 159.786 225.942 158.938 225.453C158.618 225.268 158.436 224.864 158.154 224.592C155.228 221.767 151.768 220.845 147.923 222.113C144.043 223.386 141.754 226.269 141.267 230.271C140.793 234.178 142.286 237.427 145.622 239.663C148.406 241.528 151.399 241.707 154.574 240.726C156.833 240.026 158.144 241.375 157.569 243.648C157.441 244.155 157.274 244.649 157.121 245.147C154.93 252.314 152.733 259.48 150.547 266.648C149.815 269.042 149.906 269.19 152.339 269.939C154.641 270.649 156.952 271.35 159.256 272.055C163.551 273.367 167.84 274.679 172.363 276.062C172.248 271.195 173.786 267.166 177.363 264.098C181 260.978 185.212 259.921 189.918 260.956C194.25 261.915 197.506 264.356 199.515 268.275C202.275 273.662 201.599 278.904 198.175 283.949C204.649 285.928 210.878 287.833 217.108 289.737C220.469 290.765 220.474 290.767 221.481 287.475C227.978 266.223 234.477 244.967 240.975 223.715C241.166 223.091 241.307 222.453 241.527 221.839C241.899 220.818 241.557 220.261 240.526 219.956C238.215 219.277 235.919 218.526 233.616 217.816C229.64 216.606 225.66 215.389 221.565 214.137Z"/>
</mask>
<path d="M138.701 223.629C138.963 223.376 139.256 223.15 139.483 222.87C144.472 216.651 152.225 215.302 159.004 219.474C159.331 219.673 159.691 219.815 160.192 220.067C160.407 219.363 160.595 218.75 160.781 218.142C162.306 213.154 163.766 208.147 165.379 203.192C166.157 200.807 167.373 198.56 168.11 196.168C168.833 193.804 169.03 191.285 169.743 188.918C174.953 171.701 180.237 154.506 185.497 137.305C186.793 133.065 188.074 128.821 189.389 124.593C190.703 120.365 193.395 118.93 197.622 120.211C203.673 122.04 209.713 123.903 215.758 125.751C216.436 125.958 217.115 126.166 217.937 126.417C218.232 118.66 221.666 113.296 229.239 111.412C235.077 109.958 240.157 111.805 243.781 116.578C248.112 122.282 247.774 128.276 243.836 134.341C246.709 135.22 249.492 136.071 252.28 136.923C255.771 137.991 259.202 139.361 262.769 140.021C265.293 140.488 266.839 142.727 269.571 142.799C271.98 142.859 274.392 143.744 276.752 144.427C281.51 145.811 286.229 147.303 290.967 148.752C291.586 148.941 292.204 149.13 292.958 149.36C293.205 141.665 296.611 136.27 304.154 134.361C310.047 132.869 315.185 134.723 318.841 139.604C323.082 145.264 322.769 151.194 318.851 157.283C319.624 157.519 320.277 157.719 320.931 157.919C326.916 159.749 332.897 161.572 338.881 163.407C343.512 164.829 344.913 167.4 343.528 171.983C341.733 177.908 339.913 183.825 338.103 189.745C337.896 190.423 337.688 191.102 337.424 191.965C345.506 192.27 351.117 195.895 352.644 203.904C353.725 209.552 351.887 214.673 346.988 218.121C341.262 222.152 335.416 221.651 329.519 217.82C328.882 219.904 328.279 221.874 327.677 223.844C326.266 228.458 324.906 233.087 323.417 237.671C322.965 239.059 322.132 240.321 321.487 241.645C321.324 241.983 321.171 242.34 321.109 242.702C320.814 244.472 320.739 246.303 320.249 248.013C318.643 253.587 316.893 259.116 315.197 264.662C314.991 265.335 314.785 266.009 314.499 266.946C320.646 266.89 325.297 269.266 328.294 274.464C330.788 278.776 330.423 283.197 328.549 287.598C326.727 291.878 323.301 294.327 318.925 295.404C314.519 296.49 310.432 295.442 306.625 292.68C304.754 298.8 302.945 304.715 301.138 310.625C300.853 311.558 300.581 312.5 300.276 313.426C299.013 317.272 296.286 318.735 292.379 317.567C286.074 315.678 279.787 313.728 273.493 311.804C273.004 311.654 272.51 311.503 271.902 311.317C271.651 312.975 271.578 314.518 271.172 315.97C269.236 322.909 263.591 326.959 256.349 326.724C256.101 326.714 255.847 326.816 255.597 326.865C253.851 326.332 252.106 325.798 250.36 325.264C250.079 325.025 249.821 324.761 249.521 324.549C244.975 321.349 242.482 316.981 243.002 311.425C243.256 308.689 244.549 306.046 245.413 303.218C241.423 301.998 237.025 300.795 232.733 299.297C229.031 298.008 224.852 297.853 221.789 294.937C221.649 294.807 221.3 294.913 221.054 294.881C219.334 294.655 217.566 294.622 215.913 294.16C211.461 292.919 207.053 291.495 202.636 290.139C199.584 289.206 196.514 288.327 193.485 287.319C191.089 286.521 190.758 284.555 192.655 282.899C192.9 282.685 193.182 282.515 193.415 282.286C196.383 279.392 197.448 275.911 196.16 271.972C194.879 268.063 192.108 265.71 187.931 265.208C180.798 264.352 175.465 270.842 177.339 277.965C177.587 278.903 177.485 280.322 176.922 280.968C176.436 281.523 174.96 281.606 174.084 281.349C166.084 278.996 158.109 276.557 150.154 274.071C146.391 272.893 144.945 270.095 146.065 266.325C147.325 262.08 148.646 257.848 149.94 253.614C150.712 251.09 151.484 248.567 152.31 245.863C148.52 245.97 145.254 245.129 142.399 242.942C138.376 239.852 136.748 235.635 136.528 230.736C137.252 228.367 137.976 225.998 138.701 223.629ZM235.641 256.966C232.344 267.749 229.04 278.535 225.748 289.32C224.891 292.123 224.906 292.127 227.625 292.958C235.23 295.284 242.847 297.574 250.427 299.985C251.277 300.255 252.347 301.144 252.509 301.914C252.668 302.661 251.879 303.69 251.343 304.48C250.296 306.015 248.774 307.316 248.075 308.979C246.407 312.935 247.878 317.579 251.243 320.184C254.555 322.745 259.354 322.926 262.759 320.618C266.386 318.155 267.881 313.802 266.777 309.456C266.532 308.492 266.495 306.937 267.053 306.448C267.731 305.854 269.249 305.761 270.226 306.044C277.862 308.269 285.454 310.64 293.06 312.965C295.484 313.706 295.626 313.635 296.369 311.206C298.679 303.667 300.946 296.109 303.332 288.592C303.63 287.652 304.458 286.318 305.178 286.228C306.053 286.113 307.31 286.907 308.003 287.675C311.474 291.518 316.844 292.418 321.068 289.695C325.08 287.115 326.682 281.841 324.772 277.51C322.719 272.846 317.818 270.628 312.79 271.894C311.803 272.143 310.299 272.048 309.649 271.446C309.108 270.948 309.208 269.392 309.488 268.441C311.719 260.877 314.006 253.325 316.401 245.811C316.999 243.927 316.549 243.135 314.684 242.581C307.18 240.369 299.697 238.086 292.248 235.694C291.14 235.339 289.757 234.442 289.443 233.489C289.205 232.768 290.278 231.345 291.099 230.587C294.669 227.277 295.521 221.779 292.933 217.775C290.319 213.731 285.09 212.105 280.76 213.993C276.104 216.022 273.764 220.82 275.068 225.707C275.383 226.889 276.166 228.306 274.782 229.05C273.849 229.551 272.402 229.61 271.352 229.3C263.78 227.094 256.234 224.786 248.716 222.406C246.942 221.842 246.208 222.244 245.67 224.038C242.385 235.032 238.995 245.993 235.641 256.966ZM296.066 232.089C302.819 234.154 309.421 236.178 316.022 238.186C318.348 238.891 318.499 238.807 319.207 236.509C321.576 228.78 323.898 221.042 326.352 213.339C326.619 212.499 327.493 211.496 328.277 211.288C328.936 211.113 329.925 211.907 330.671 212.413C332.31 213.525 333.741 215.107 335.53 215.818C339.408 217.369 343.981 215.773 346.499 212.426C349.047 209.032 349.146 204.498 346.737 200.926C344.357 197.384 340.022 195.9 335.737 196.984C334.773 197.229 333.217 197.288 332.738 196.733C332.157 196.064 332.099 194.558 332.387 193.582C334.578 186.077 336.91 178.609 339.193 171.127C339.947 168.658 339.878 168.528 337.489 167.797C329.95 165.486 322.393 163.231 314.883 160.825C313.845 160.492 312.548 159.577 312.282 158.666C312.067 157.941 313.056 156.596 313.839 155.892C317.48 152.599 318.415 147.186 315.9 143.123C313.341 138.986 307.99 137.279 303.616 139.203C298.891 141.281 296.597 146.127 298.005 151.116C298.324 152.25 298.964 153.58 297.67 154.281C296.782 154.762 295.418 154.868 294.433 154.578C286.803 152.349 279.195 150.028 271.615 147.618C269.831 147.051 269.084 147.406 268.552 149.217C266.346 156.718 264.004 164.182 261.731 171.668C261.344 172.935 261.011 174.524 259.492 174.479C258.482 174.449 257.303 173.559 256.547 172.733C253.248 169.145 247.793 168.312 243.754 170.927C239.614 173.604 238.061 178.753 240.043 183.258C241.985 187.68 246.946 189.971 251.705 188.819C252.777 188.558 254.445 188.507 255.03 189.127C255.643 189.778 255.611 191.437 255.302 192.499C253.078 200.13 250.743 207.733 248.357 215.321C247.875 216.864 248.238 217.531 249.78 217.981C254.79 219.431 259.758 221.004 264.745 222.529C266.516 223.071 268.291 223.614 270.107 224.169C270.703 216.17 274.121 211.287 280.332 209.347C285.837 207.627 291.966 209.452 295.656 213.918C299.839 218.965 300.011 224.771 296.066 232.089ZM258.06 167.819C260.137 161.026 262.118 154.351 264.242 147.725C264.82 145.922 264.207 145.342 262.577 144.86C255.016 142.619 247.472 140.323 239.959 137.923C238.912 137.586 237.736 136.758 237.236 135.825C236.497 134.443 237.912 133.686 238.839 132.884C242.658 129.596 243.432 124.265 240.735 119.993C238.174 115.938 232.85 114.37 228.366 116.354C224.014 118.279 221.733 123.313 222.902 128.072C223.155 129.098 223.236 130.759 222.655 131.252C221.933 131.866 220.338 131.907 219.293 131.598C211.721 129.393 204.194 127.042 196.653 124.736C194.254 124.003 194.119 124.07 193.367 126.529C186.712 148.278 180.062 170.029 173.416 191.78C172.655 194.269 172.697 194.364 175.12 195.11C183.281 197.616 191.461 200.063 199.596 202.654C200.646 202.985 201.955 203.877 202.237 204.792C202.463 205.515 201.494 206.882 200.716 207.588C198.515 209.598 197.307 212.032 197.24 214.946C197.148 219.008 198.943 222.109 202.601 223.953C206.404 225.874 210.111 225.469 213.364 222.766C216.611 220.067 217.527 216.518 216.58 212.389C216.349 211.381 216.336 209.817 216.934 209.253C217.563 208.66 219.123 208.64 220.121 208.924C226.508 210.762 232.841 212.791 239.208 214.689C243.857 216.072 243.075 216.634 244.552 211.927C246.25 206.518 247.877 201.087 249.535 195.666C249.721 195.057 249.907 194.449 250.13 193.721C242.708 193.557 237.511 190.326 235.317 183.34C233.521 177.621 235.007 172.387 239.55 168.497C245.326 163.571 251.614 163.732 258.06 167.819ZM221.565 214.137C221.424 221.467 218.252 226.633 211.376 228.894C205.839 230.718 200.686 229.432 196.744 225.129C191.433 219.328 191.474 212.899 195.618 206.247C187.853 203.873 180.258 201.546 172.664 199.235C171.143 198.77 170.937 199.977 170.637 200.96C168.741 207.126 166.859 213.297 164.973 219.467C164.439 221.213 164.012 223.002 163.323 224.684C162.995 225.489 162.224 226.584 161.553 226.656C160.734 226.75 159.786 225.942 158.938 225.453C158.618 225.268 158.436 224.864 158.154 224.592C155.228 221.767 151.768 220.845 147.923 222.113C144.043 223.386 141.754 226.269 141.267 230.271C140.793 234.178 142.286 237.427 145.622 239.663C148.406 241.528 151.399 241.707 154.574 240.726C156.833 240.026 158.144 241.375 157.569 243.648C157.441 244.155 157.274 244.649 157.121 245.147C154.93 252.314 152.733 259.48 150.547 266.648C149.815 269.042 149.906 269.19 152.339 269.939C154.641 270.649 156.952 271.35 159.256 272.055C163.551 273.367 167.84 274.679 172.363 276.062C172.248 271.195 173.786 267.166 177.363 264.098C181 260.978 185.212 259.921 189.918 260.956C194.25 261.915 197.506 264.356 199.515 268.275C202.275 273.662 201.599 278.904 198.175 283.949C204.649 285.928 210.878 287.833 217.108 289.737C220.469 290.765 220.474 290.767 221.481 287.475C227.978 266.223 234.477 244.967 240.975 223.715C241.166 223.091 241.307 222.453 241.527 221.839C241.899 220.818 241.557 220.261 240.526 219.956C238.215 219.277 235.919 218.526 233.616 217.816C229.64 216.606 225.66 215.389 221.565 214.137Z" fill="#323232" stroke="white" mask="url(#path-3-inside-1_2821_36971)"/>
<path d="M327.115 411.573C327.961 410.335 327.961 410.334 327.961 410.334L327.96 410.334L327.957 410.332L327.945 410.324L327.897 410.291L327.711 410.164L326.995 409.674C326.373 409.249 325.474 408.633 324.365 407.872C322.146 406.349 319.088 404.246 315.73 401.924C309.007 397.275 301.096 391.757 296.297 388.248C291.484 384.73 284.656 379.354 280.455 374.126C278.335 371.486 277.055 369.09 276.851 367.129C276.753 366.19 276.904 365.374 277.311 364.647C277.712 363.931 278.419 363.2 279.606 362.517C281.361 361.921 283.816 362.126 286.741 363.002C289.676 363.881 292.841 365.36 295.786 366.971C298.723 368.577 301.393 370.286 303.332 371.597C304.3 372.252 305.083 372.805 305.622 373.194C305.892 373.388 306.1 373.541 306.241 373.644C306.272 373.667 306.299 373.688 306.324 373.706C306.354 373.728 306.379 373.747 306.399 373.761L306.437 373.79L306.446 373.797L306.448 373.799L306.448 373.799C306.448 373.799 306.448 373.799 306.449 373.799C307.1 374.291 308.024 374.172 308.53 373.531C309.036 372.891 308.936 371.963 308.306 371.444C304.387 368.214 299.757 365.206 295.153 362.353C293.831 361.534 292.514 360.729 291.215 359.936C287.955 357.945 284.808 356.022 281.974 354.109C277.997 351.426 274.822 348.881 272.947 346.387C271.118 343.954 270.662 341.781 271.653 339.558C271.683 339.492 271.707 339.424 271.727 339.355C271.994 338.408 272.556 337.886 273.502 337.614C274.558 337.309 276.091 337.333 278.082 337.739C281.493 338.436 285.746 340.147 290.129 342.28C292.867 343.874 295.718 345.444 298.456 346.952C299.779 347.68 301.076 348.395 302.322 349.09C303.395 349.69 304.428 350.274 305.411 350.844C305.619 350.973 305.823 351.1 306.023 351.225C307.884 352.388 309.425 353.387 310.499 354.095C311.037 354.449 311.457 354.73 311.743 354.922C311.886 355.018 311.995 355.092 312.068 355.141L312.15 355.197L312.17 355.211L312.175 355.214L312.176 355.215C312.176 355.215 312.176 355.215 313.023 353.977L312.176 355.215C312.845 355.673 313.757 355.516 314.235 354.861C314.712 354.206 314.584 353.29 313.943 352.792C312.119 351.374 309.682 349.852 306.949 348.267C303.264 345.982 298.484 343.156 293.598 340.659C292.916 340.31 292.229 339.966 291.542 339.631C291.418 339.559 291.294 339.486 291.171 339.414C287.005 336.973 283.185 334.508 280.357 332.09C277.456 329.607 275.926 327.443 275.738 325.657C275.515 323.546 275.991 322.213 276.714 321.368C277.455 320.502 278.648 319.923 280.279 319.716C283.586 319.295 288.117 320.495 291.938 322.834C294.031 324.115 296.84 325.833 299.85 327.673C299.912 327.714 299.974 327.755 300.036 327.796C304.71 330.901 309.351 333.733 312.82 335.787C314.555 336.815 316 337.649 317.011 338.227C317.517 338.516 317.914 338.741 318.186 338.894C318.322 338.97 318.426 339.029 318.497 339.068L318.578 339.113L318.598 339.125L318.604 339.128L318.605 339.129C318.606 339.129 318.606 339.129 319.335 337.818M327.115 411.573C328.385 410.775 328.385 410.775 328.385 410.775L328.386 410.776L328.39 410.783L328.406 410.809L328.474 410.917C328.535 411.012 328.626 411.156 328.747 411.345C328.99 411.724 329.352 412.286 329.828 413.017C330.781 414.48 332.193 416.619 334.023 419.317C337.683 424.714 343.016 432.348 349.702 441.287C363.077 459.17 381.848 482.251 403.453 503.09L403.454 503.091C429.599 528.324 452.76 549.967 485.795 564.451C508.489 543.379 515.441 524.524 516.798 511.032C517.486 504.198 516.743 498.692 515.838 494.912C515.385 493.022 514.892 491.564 514.517 490.588C514.33 490.101 514.172 489.734 514.064 489.495C514.05 489.462 514.036 489.432 514.023 489.404L461.438 443.342C461.428 443.333 461.418 443.325 461.409 443.316L462.426 442.214C461.409 443.316 461.409 443.316 461.408 443.315L461.405 443.313L461.395 443.303L461.352 443.263L461.184 443.108L460.527 442.501C459.952 441.969 459.107 441.188 458.03 440.191C455.875 438.196 452.789 435.337 449.065 431.878C441.618 424.96 431.618 415.644 421.407 406.05C411.198 396.457 400.774 386.582 392.482 378.549C388.336 374.534 384.718 370.973 381.923 368.135C379.156 365.326 377.126 363.155 376.217 361.954C376.063 361.749 375.963 361.509 375.928 361.255L376.028 361.241C375.928 361.254 375.928 361.254 375.928 361.254L375.928 361.254L375.928 361.253L375.927 361.249L375.926 361.238L375.92 361.197C375.915 361.16 375.908 361.105 375.898 361.029C375.879 360.876 375.849 360.638 375.807 360.292C375.724 359.599 375.593 358.472 375.4 356.724C375.015 353.23 374.384 347.252 373.401 337.307C372.44 327.587 368.67 317.389 364.165 311.236C361.887 308.126 359.603 306.297 357.617 305.825C356.672 305.6 355.776 305.676 354.899 306.09C353.999 306.514 353.026 307.34 352.043 308.765C351.659 309.321 351.524 310.335 351.875 312.097C352.214 313.8 352.917 315.794 353.702 318.021L353.703 318.023C354.47 320.2 355.304 322.571 355.801 324.859C356.296 327.135 356.5 329.509 355.86 331.656C355.687 332.237 355.182 332.656 354.58 332.719L350.008 333.202C349.706 333.234 349.403 333.173 349.136 333.029L349.85 331.71C349.136 333.029 349.136 333.029 349.136 333.029L349.134 333.028L349.127 333.024L349.097 333.008L348.981 332.945L348.528 332.7L346.805 331.768C345.319 330.963 343.19 329.811 340.62 328.419C335.482 325.636 328.581 321.897 321.536 318.073C307.887 310.665 293.641 302.91 290.65 301.195C288.85 300.926 286.828 301.116 285.381 302.069C284.007 302.974 282.8 304.804 283.21 308.688C283.277 309.324 283.727 310.302 284.771 311.621C285.781 312.899 287.214 314.331 288.964 315.86C292.401 318.863 296.916 322.114 301.464 325.143C304.215 326.825 307.132 328.607 309.821 330.25C312.646 331.976 315.22 333.548 317.087 334.688L319.302 336.041L319.906 336.409L320.063 336.505L320.103 336.529L320.113 336.536L320.115 336.537L320.116 336.538C320.116 336.538 320.116 336.538 319.335 337.818M327.115 411.573L327.961 410.335C328.131 410.451 328.275 410.6 328.385 410.775L327.115 411.573ZM319.335 337.818L320.116 336.538C320.813 336.963 321.042 337.868 320.63 338.573C320.219 339.279 319.32 339.526 318.606 339.129L319.335 337.818Z" fill="white" stroke="#323232" stroke-width="3" stroke-linejoin="round"/>
<path d="M101.087 97.7859C102.39 97.0429 102.39 97.0429 102.39 97.0431L102.39 97.0439L102.392 97.047L102.399 97.0596L102.428 97.1095L102.54 97.3054L102.97 98.0589C103.344 98.7131 103.885 99.6591 104.554 100.826C105.892 103.16 107.741 106.378 109.784 109.914C113.875 116.991 118.735 125.321 121.844 130.389C124.962 135.47 129.768 142.711 134.639 147.32C137.099 149.647 139.384 151.116 141.322 151.478C142.25 151.651 143.075 151.567 143.833 151.22C144.579 150.879 145.365 150.233 146.142 149.105C146.878 147.404 146.872 144.941 146.235 141.955C145.596 138.957 144.378 135.683 143.01 132.618C141.647 129.561 140.159 126.762 139.009 124.723C138.435 123.705 137.947 122.88 137.603 122.311C137.432 122.026 137.296 121.806 137.204 121.658C137.184 121.625 137.166 121.596 137.15 121.57C137.13 121.538 137.113 121.512 137.1 121.491L137.074 121.45L137.068 121.441L137.067 121.439L137.067 121.439C137.067 121.438 137.067 121.438 137.067 121.438C136.629 120.75 136.823 119.837 137.502 119.385C138.181 118.933 139.098 119.107 139.564 119.777C142.467 123.945 145.091 128.803 147.562 133.622C148.272 135.006 148.967 136.384 149.653 137.743C151.374 141.153 153.036 144.446 154.713 147.425C157.066 151.606 159.346 154.976 161.681 157.046C163.958 159.066 166.087 159.697 168.382 158.888C168.45 158.864 168.52 158.845 168.591 158.831C169.556 158.641 170.122 158.123 170.47 157.202C170.859 156.174 170.96 154.644 170.715 152.628C170.297 149.171 168.935 144.794 167.164 140.253C165.796 137.394 164.462 134.426 163.18 131.575C162.561 130.197 161.954 128.847 161.361 127.549C160.85 126.431 160.351 125.354 159.863 124.328C159.751 124.111 159.641 123.897 159.532 123.687C158.524 121.739 157.652 120.122 157.034 118.994C156.724 118.429 156.478 117.987 156.31 117.687C156.226 117.537 156.161 117.423 156.118 117.346L156.069 117.26L156.057 117.239L156.054 117.233L156.053 117.232C156.053 117.232 156.053 117.232 157.356 116.488L156.053 117.232C155.651 116.528 155.881 115.632 156.572 115.209C157.264 114.785 158.166 114.988 158.61 115.666C159.877 117.6 161.197 120.151 162.555 123.004C164.536 126.861 166.966 131.854 169.06 136.926C169.352 137.634 169.639 138.346 169.918 139.059C169.98 139.188 170.042 139.317 170.104 139.446C172.2 143.795 174.348 147.802 176.53 150.816C178.77 153.909 180.803 155.609 182.568 155.941C184.655 156.333 186.021 155.967 186.922 155.314C187.846 154.645 188.519 153.503 188.857 151.894C189.544 148.632 188.715 144.019 186.692 140.022C185.584 137.832 184.099 134.893 182.509 131.744C182.473 131.679 182.437 131.614 182.401 131.549C179.684 126.64 177.236 121.785 175.469 118.161C174.585 116.348 173.87 114.841 173.376 113.786C173.129 113.259 172.937 112.844 172.807 112.561C172.741 112.419 172.691 112.311 172.658 112.237L172.619 112.153L172.61 112.131L172.607 112.126L172.606 112.124C172.606 112.124 172.606 112.124 173.972 111.503M101.087 97.7859C101.985 96.5849 101.985 96.5848 101.985 96.5847L101.984 96.5836L101.978 96.5791L101.953 96.5603L101.851 96.4838C101.761 96.4156 101.625 96.3131 101.446 96.177C101.088 95.9049 100.557 95.4987 99.8668 94.9646C98.486 93.8964 96.4683 92.3166 93.9268 90.2744C88.8435 86.19 81.6659 80.2573 73.2968 72.8708C56.5531 58.093 35.0656 37.5179 16.0408 14.2987L16.0406 14.2984C-6.99378 -13.799 -26.6928 -38.6313 -38.4586 -72.7242C-38.0469 -73.0907 -37.4609 -73.6058 -36.7061 -74.2533C-35.0643 -75.6617 -32.6244 -77.6959 -29.4447 -80.1874C-23.0846 -85.1708 -13.7677 -91.9813 -1.95928 -99.2726C21.4048 -113.699 54.4821 -129.982 93.6799 -137.746L120.552 -52.5759L81.0637 -40.9993C80.5864 -40.8594 80.2095 -40.4919 80.0575 -40.0182C79.9055 -39.5446 79.9982 -39.0264 80.305 -38.6348L81.4857 -39.5599C80.305 -38.6348 80.3052 -38.6345 80.3057 -38.6338L80.308 -38.6309L80.317 -38.6194L80.3528 -38.5738L80.4941 -38.3935L81.0457 -37.6901C81.5294 -37.0735 82.2397 -36.1684 83.1467 -35.0139C84.9607 -32.7048 87.5612 -29.398 90.7077 -25.4068C97.0006 -17.4246 105.478 -6.7039 114.215 4.24861C122.952 15.2001 131.951 26.3878 139.287 35.3024C142.955 39.7591 146.211 43.6536 148.814 46.6687C151.39 49.6538 153.39 51.8531 154.513 52.8554C154.705 53.0261 154.937 53.1449 155.187 53.2004L155.209 53.1018C155.187 53.2004 155.187 53.2004 155.187 53.2005L155.188 53.2006L155.189 53.2008L155.192 53.2015L155.203 53.2039L155.244 53.2129C155.28 53.2207 155.335 53.2323 155.41 53.2482C155.56 53.28 155.795 53.3289 156.137 53.3985C156.82 53.5376 157.934 53.7596 159.66 54.0928C163.112 54.7592 169.019 55.871 178.852 57.6551C188.462 59.3988 198.323 63.9809 204.091 68.9689C207.007 71.4905 208.645 73.9154 208.955 75.9326C209.103 76.8931 208.954 77.7796 208.471 78.6202C207.975 79.4827 207.074 80.3864 205.573 81.2509C204.988 81.588 203.967 81.6411 202.239 81.1487C200.569 80.6729 198.638 79.8112 196.482 78.8489L196.48 78.8482C194.373 77.9075 192.077 76.8843 189.836 76.2037C187.608 75.5268 185.258 75.131 183.066 75.5955C182.474 75.721 182.015 76.1904 181.903 76.7855L181.053 81.304C180.997 81.6015 181.032 81.909 181.154 82.1861L182.527 81.5814C181.154 82.1861 181.154 82.1863 181.154 82.1868L181.155 82.1887L181.158 82.1964L181.172 82.2269L181.225 82.3476L181.433 82.8188L182.223 84.6116C182.905 86.1585 183.881 88.3737 185.06 91.0471C187.419 96.394 190.588 103.574 193.83 110.906C200.11 125.108 206.688 139.935 208.156 143.055C208.278 144.871 207.926 146.871 206.859 148.236C205.846 149.532 203.924 150.587 200.086 149.865C199.457 149.746 198.519 149.219 197.289 148.072C196.097 146.961 194.785 145.417 193.403 143.549C190.688 139.881 187.812 135.118 185.16 130.34C183.707 127.462 182.166 124.411 180.746 121.597C179.254 118.642 177.896 115.95 176.91 113.996L175.741 111.679L175.422 111.048L175.339 110.884L175.318 110.842L175.313 110.831L175.311 110.829L175.311 110.828C175.311 110.828 175.311 110.828 173.972 111.503M101.087 97.7859L102.39 97.0429C102.288 96.8641 102.15 96.7082 101.985 96.5849L101.087 97.7859ZM173.972 111.503L175.311 110.828C174.943 110.099 174.06 109.798 173.324 110.151C172.587 110.503 172.268 111.38 172.606 112.124L173.972 111.503Z" fill="white" stroke="#323232" stroke-width="3" stroke-linejoin="round"/>
</g>
<defs>
<clipPath id="clip0_2821_36971">
<rect width="486" height="568" fill="white"/>
</clipPath>
</defs>
</svg>
