<svg width="77" height="59" viewBox="0 0 77 59" fill="none" xmlns="http://www.w3.org/2000/svg">
<rect x="62.9551" y="3.46777" width="7" height="16.1972" rx="1" transform="rotate(-29.6399 62.9551 3.46777)" fill="#7687C6"/>
<rect width="8.2156" height="16.6371" rx="1" transform="matrix(-0.86915 -0.494548 -0.494548 0.86915 29.3672 5.68066)" fill="#7687C6"/>
<path d="M75.9999 16.2615C75.6654 17.4844 74.8259 18.2243 73.7431 18.8273C71.0404 20.3324 68.3749 21.9016 65.7094 23.4709C65.4797 23.606 65.2905 23.9084 65.2043 24.1736C65.0624 24.6094 65.0101 25.0773 64.9442 25.5351C64.9222 25.6888 64.9256 25.8813 64.9982 26.0097C66.1351 27.9861 65.2398 30.731 62.6807 31.6364C63.9577 32.454 64.7888 33.5452 64.9661 35.0452C65.0692 35.91 64.8699 36.7175 64.3901 37.4522C63.2415 39.2124 61.2043 39.6228 58.625 38.5637C58.8784 40.1414 58.5726 41.5266 57.2686 42.513C55.9831 43.4843 54.5473 43.513 53.0237 43.0147C53.1301 44.6735 52.4781 45.8998 51.0845 46.6802C49.9139 47.3373 48.7027 47.3036 47.522 46.6684C46.7433 46.2495 45.973 45.8171 45.2129 45.3661C44.9038 45.1836 44.7095 45.2157 44.4561 45.4759C43.4139 46.5485 42.3481 47.5975 41.2889 48.6549C39.9477 49.9927 38.3396 50.3491 36.8025 49.6498C35.2822 48.9573 34.5272 47.5823 34.6201 45.6718C34.6218 45.633 34.6015 45.5941 34.5795 45.5096C33.2805 45.7191 32.0779 45.4928 31.0964 44.5451C30.1336 43.6144 29.8262 42.4455 30.0019 41.0857C28.6674 41.2461 27.5221 40.9573 26.5914 40.0401C25.6539 39.1161 25.3296 37.981 25.4901 36.6262C25.257 36.6262 25.0357 36.6245 24.8144 36.6262C23.2485 36.6381 21.8381 35.7631 21.2671 34.3374C20.6675 32.8374 20.8972 31.4438 21.9952 30.2327C22.3634 29.8273 22.7924 29.4759 23.1353 29.0519C23.2671 28.8898 23.3178 28.5705 23.262 28.3611C22.8837 26.9658 22.4816 25.5739 22.0458 24.1955C21.958 23.9151 21.7519 23.5942 21.5087 23.4489C18.7333 21.8155 15.9411 20.2141 13.154 18.6027C11.181 17.4608 10.7317 15.7851 11.8736 13.8037C13.7908 10.4811 15.7047 7.16352 17.6219 3.84766C18.7198 1.94733 20.436 1.49294 22.3381 2.58922C26.713 5.11117 31.0948 7.62298 35.4545 10.172C35.9832 10.4811 36.2957 10.4422 36.6775 10.0064C37.0238 9.61284 37.4731 9.3071 37.8109 8.90845C39.1673 7.31048 40.9815 6.84258 42.9612 6.80035C45.4899 6.74629 47.9713 7.12129 50.3446 7.97095C52.6402 8.79358 54.7534 8.54696 56.8176 7.32737C59.5169 5.73279 62.228 4.15678 64.9408 2.58415C66.8394 1.48449 68.5438 1.9524 69.6485 3.86117C71.5134 7.08582 73.3783 10.3105 75.2313 13.5419C75.5218 14.0486 75.7465 14.5942 75.9999 15.1229C75.9999 15.503 75.9999 15.8814 75.9999 16.2615ZM19.404 20.7733C20.4496 21.378 21.4175 21.9726 22.4208 22.4996C22.9884 22.7969 23.2266 23.1905 23.2891 23.829C23.4225 25.1888 23.7924 26.4945 24.4512 27.8661C25.1472 27.1398 25.7367 26.4489 26.4022 25.8442C28.4698 23.9675 31.7822 24.9016 32.5508 27.584C32.713 28.1516 32.7012 28.7682 32.7687 29.3695C35.9697 29.5063 36.8396 30.3746 37.2434 33.8931C38.495 33.7428 39.6217 34.035 40.5508 34.9202C41.495 35.8205 41.7974 36.9708 41.718 38.2867C43.3903 38.0789 44.7636 38.5181 45.6909 39.9016C46.6284 41.3019 46.5203 42.7529 45.6943 44.2191C46.3092 44.5654 46.8903 44.8965 47.4764 45.2225C47.7889 45.3965 48.0963 45.5857 48.4257 45.7208C49.6031 46.2073 50.9477 45.6904 51.5406 44.5384C52.1047 43.4438 51.7703 42.3796 50.5727 41.6448C49.3902 40.9168 48.1808 40.2343 46.9815 39.5333C46.6149 39.3205 46.2602 39.0789 46.5169 38.5941C46.7872 38.084 47.1909 38.2174 47.5929 38.4522C48.4477 38.9506 49.3058 39.4421 50.1639 39.9353C51.2044 40.5333 52.2264 41.1634 53.2889 41.7174C54.7601 42.4826 56.4713 42.0401 57.174 40.7715C57.8699 39.5147 57.3564 37.8897 55.9763 37.0063C55.5507 36.7343 55.1149 36.4793 54.6774 36.2259C53.4764 35.5266 52.2753 34.8306 51.071 34.1381C50.701 33.9252 50.5507 33.6127 50.7602 33.2411C50.9764 32.8594 51.3311 32.8627 51.6909 33.0705C51.8007 33.133 51.9105 33.1938 52.0203 33.258C54.3716 34.6161 56.7196 35.9776 59.0743 37.3272C59.4189 37.5249 59.7821 37.7107 60.1604 37.8256C61.4594 38.2174 62.8192 37.7225 63.4222 36.6752C64.0168 35.6398 63.7837 34.2631 62.8158 33.3273C62.5168 33.0384 62.1587 32.8002 61.7989 32.5891C59.4172 31.2006 57.0287 29.8256 54.6419 28.4472C54.4966 28.3628 54.2821 28.3053 54.2264 28.1786C54.1199 27.9371 54 27.6094 54.0878 27.4033C54.1571 27.2428 54.5287 27.1634 54.772 27.1465C54.9341 27.1364 55.1098 27.2952 55.2736 27.3881C56.9206 28.3222 58.5439 29.3019 60.2179 30.1837C61.8952 31.0671 63.7803 30.1854 64.1891 28.3999C64.4526 27.2479 63.8175 26.003 62.5472 25.2648C58.9797 23.1939 55.4088 21.128 51.8227 19.0891C51.4629 18.8848 50.9798 18.7733 50.5693 18.8054C49.4173 18.9 48.2602 19.03 47.1284 19.2614C44.8734 19.7209 42.7045 19.8375 40.7298 18.3442C40.2129 17.954 39.5812 18.0334 39.0592 18.3814C38.3447 18.8577 37.6369 19.3611 36.995 19.9287C34.892 21.7918 31.5897 22.2057 29.3481 20.8442C27.49 19.7141 27.3752 17.8527 29.0813 16.5165C29.8937 15.8797 30.7282 15.2699 31.517 14.6061C32.7366 13.5773 33.9258 12.5132 35.1758 11.4236C32.5356 9.90338 29.9883 8.43379 27.3921 6.93886C24.7266 11.5571 22.0864 16.1263 19.404 20.7733ZM61.2077 6.16522C59.9307 6.92028 58.7027 7.64156 57.4797 8.37298C55.054 9.82399 52.549 10.0875 49.8564 9.11622C47.5845 8.29697 45.2011 7.9794 42.7771 8.05203C41.2112 8.09933 39.8599 8.56217 38.7045 9.73784C37.1285 11.3426 35.4342 12.8375 33.7417 14.3223C32.4765 15.4321 31.1302 16.4473 29.8228 17.5081C28.8431 18.3037 28.8887 19.1027 29.9647 19.7648C30.2316 19.9287 30.5221 20.0723 30.8228 20.1567C32.7687 20.7091 34.5255 20.3172 36.093 19.0537C36.4207 18.7902 36.7214 18.4929 37.0491 18.2277C39.1031 16.5571 39.9933 16.4794 42.2805 17.7902C43.1149 18.2682 43.9899 18.4692 44.9477 18.3206C46.299 18.1111 47.6605 17.9574 49.0017 17.7006C50.5811 17.3983 51.9662 17.6179 53.3834 18.4962C56.4206 20.3814 59.5608 22.101 62.6587 23.8881C63.0472 24.1128 63.4341 24.3374 63.8547 24.5824C63.907 24.329 63.9847 24.1432 63.9746 23.9607C63.9307 23.177 64.3412 22.7631 65.005 22.4101C66.4138 21.6584 67.7769 20.8239 69.1992 19.9979C66.5303 15.3831 63.8834 10.8003 61.2077 6.16522ZM26.3178 6.31555C24.7029 5.38313 23.1404 4.47266 21.5661 3.58077C20.4411 2.94226 19.4411 3.21928 18.7722 4.33921C18.3938 4.97097 18.0357 5.61454 17.6675 6.25305C16.0695 9.025 14.4665 11.7936 12.8719 14.5689C12.2756 15.6061 12.3905 16.6365 13.2891 17.199C14.9226 18.2243 16.6117 19.1584 18.3246 20.1584C20.9968 15.53 23.637 10.9591 26.3178 6.31555ZM62.2804 5.5436C64.956 10.1787 67.6013 14.7581 70.2752 19.3881C71.5522 18.6398 72.7887 17.9642 73.9711 17.2074C74.7668 16.6973 74.9678 15.7159 74.5404 14.8527C74.2786 14.3257 73.9661 13.824 73.6722 13.3138C71.9475 10.3257 70.2262 7.33582 68.4965 4.35104C67.9239 3.36455 66.9577 2.9507 66.0489 3.41354C64.7786 4.05881 63.5624 4.81218 62.2804 5.5436ZM38.7383 48.7748C39.0491 48.611 39.7062 48.4167 40.1521 47.9978C41.6268 46.6161 43.0389 45.1667 44.4477 43.7157C45.3734 42.763 45.3176 41.1887 44.3751 40.2276C43.4629 39.2985 41.8666 39.1735 40.9359 40.062C39.3971 41.5299 37.892 43.0367 36.4292 44.5789C35.6944 45.3542 35.6268 46.3306 36.0778 47.29C36.5339 48.2546 37.3498 48.7106 38.7383 48.7748ZM36.1217 33.2225C35.9663 32.1161 35.3785 31.1904 34.4292 30.8138C33.4224 30.4151 32.4731 30.5384 31.6843 31.3154C30.2417 32.7327 28.8042 34.1567 27.3955 35.606C26.4174 36.6127 26.4613 38.1448 27.4394 39.1313C28.4191 40.1195 29.9546 40.1786 30.9664 39.2022C32.436 37.7833 33.8937 36.3475 35.2873 34.856C35.6876 34.4235 35.8515 33.7732 36.1217 33.2225ZM24.8026 35.5316C25.3532 35.2631 26.0069 35.1077 26.4343 34.7073C27.9427 33.3002 29.3954 31.8306 30.8245 30.3408C31.7738 29.3509 31.6995 27.8222 30.7417 26.8594C29.816 25.9253 28.262 25.802 27.3042 26.7057C25.7586 28.1651 24.2553 29.6736 22.7941 31.2192C22.0627 31.9928 22.0036 32.9793 22.4563 33.9337C22.9005 34.8712 23.6843 35.3458 24.8026 35.5316ZM40.6234 37.7664C40.4849 36.66 39.9139 35.7377 38.9748 35.334C37.9731 34.9016 37.0153 35.0114 36.2265 35.7715C34.7738 37.1735 33.3498 38.6043 31.941 40.0502C30.9377 41.0806 30.9545 42.6414 31.9292 43.6211C32.8684 44.5637 34.5238 44.5992 35.5305 43.6262C36.9832 42.2259 38.419 40.8053 39.7991 39.3323C40.1893 38.9185 40.3548 38.2951 40.6234 37.7664Z" fill="white"/>
</svg>
