<svg width="77" height="57" viewBox="0 0 77 57" fill="none" xmlns="http://www.w3.org/2000/svg">
<path d="M48.2314 10.2277C48.2527 10.2273 48.274 10.2269 48.2949 10.2269C48.711 11.4974 49.1277 12.7679 49.5443 14.038C49.8242 14.8915 50.1041 15.7448 50.3837 16.5979C50.5239 17.0273 50.6646 17.4565 50.8053 17.8858C51.3191 19.4531 51.8328 21.0203 52.3247 22.5944C52.5095 23.189 52.834 23.4027 53.4591 23.3995C56.5771 23.3804 59.6951 23.379 62.813 23.3776C63.9049 23.3771 64.9967 23.3766 66.0885 23.3754H66.7617C66.6719 23.4494 66.5966 23.5133 66.5299 23.57C66.4141 23.6683 66.3241 23.7447 66.2283 23.814C62.8524 26.258 59.4765 28.7003 56.0991 31.1426C55.3503 31.6841 55.3165 31.7773 55.5993 32.6402L55.6028 32.6506C56.8983 36.6014 58.1938 40.5523 59.4878 44.5048C59.5257 44.6206 59.5587 44.7377 59.6014 44.8893C59.6274 44.9815 59.657 45.0865 59.6935 45.2117C59.1146 44.7904 58.5587 44.3868 58.0157 43.9925C57.3681 43.5222 56.7387 43.0651 56.1103 42.6071C55.5909 42.2287 55.0711 41.8507 54.5512 41.4726C52.6894 40.1185 50.827 38.764 48.9793 37.3899C48.4379 36.9882 48.0249 36.9898 47.4818 37.3899C44.8878 39.3035 42.2814 41.201 39.675 43.0985C38.8959 43.6656 38.1169 44.2328 37.3381 44.8004C37.2365 44.8745 37.1322 44.9451 36.9943 45.0383C36.9228 45.0867 36.8423 45.1411 36.7484 45.2053C36.9453 44.5999 37.1368 44.0097 37.325 43.4297C37.6914 42.3008 38.0452 41.2104 38.4018 40.1214C38.9992 38.2938 39.5993 36.4679 40.1993 34.6418C40.4175 33.9779 40.6357 33.3139 40.8538 32.6498C41.1382 31.7886 41.1012 31.6777 40.3669 31.1458C38.6875 29.9306 37.0077 28.7158 35.3278 27.501C33.6471 26.2856 31.9663 25.0701 30.2859 23.8542C30.1914 23.7852 30.0985 23.7139 29.9746 23.6189C29.8879 23.5524 29.786 23.4742 29.6576 23.377H30.4257L30.4652 23.377C34.6008 23.3834 38.7379 23.3898 42.8735 23.3946C43.8248 23.3962 43.8601 23.3689 44.1509 22.4804C44.4011 21.7151 44.6512 20.9498 44.9014 20.1845C45.9255 17.0512 46.9498 13.9173 47.9751 10.7845C48.0169 10.6568 48.0618 10.5298 48.1066 10.4031C48.1271 10.3448 48.1477 10.2867 48.1679 10.2285C48.1888 10.2285 48.2101 10.2281 48.2314 10.2277Z" fill="#FFD27C"/>
<path d="M19.8876 25.3577C19.414 25.3577 18.9396 25.3642 18.466 25.3561C18.1465 25.3497 17.9834 25.1039 18.0008 24.6524C18.0223 24.0948 18.2276 24 18.4627 24C19.4107 24 20.3578 24.0016 21.3058 24C21.5484 24 21.757 24.1414 21.7578 24.6765C21.7586 25.2099 21.5525 25.361 21.3091 25.3594C20.8355 25.3577 20.3611 25.3577 19.8876 25.3577Z" fill="white"/>
<path d="M39.8787 24.0562C41.312 19.668 42.7259 15.3329 44.1415 10.9977C44.2652 10.6169 44.3922 10.2377 44.5111 9.85529C44.6252 9.48733 44.8276 9.1017 45.2325 9.20293C45.5105 9.27363 45.8335 9.60302 45.9299 9.88743C46.8425 12.5772 47.7118 15.2831 48.5939 17.9825C49.1965 19.8271 49.8103 21.6685 50.3903 23.5195C50.5189 23.9292 50.6972 24.0674 51.1359 24.0658C55.9466 24.0433 60.7558 24.0385 65.5665 24.0498C65.8589 24.0498 66.259 24.1301 66.4197 24.3261C66.7812 24.7712 66.484 25.1215 66.0823 25.4107C63.4504 27.3083 60.8233 29.214 58.1945 31.1181C56.7677 32.1512 55.3425 33.1844 53.8883 34.2368C54.5953 36.4012 55.2959 38.5463 55.9981 40.693C56.8513 43.2976 57.7173 45.899 58.54 48.5116C58.6332 48.8057 58.6027 49.2636 58.4275 49.487C58.1158 49.8823 57.7125 49.6332 57.3719 49.3841C54.5584 47.3274 51.7417 45.2723 48.9265 43.2172C47.7134 42.3319 46.4987 41.4482 45.2341 40.5275C44.0949 41.3566 42.9477 42.1905 41.8036 43.0244C38.9709 45.0892 36.1381 47.1555 33.3053 49.2202C33.1928 49.3022 33.09 49.4339 32.9647 49.4597C32.6754 49.5207 32.3316 49.6364 32.089 49.5368C31.7274 49.389 31.7371 49.0178 31.8576 48.653C32.7268 46.0115 33.5833 43.3667 34.4461 40.7219C35.092 38.7439 35.7267 36.7627 36.4032 34.7944C36.5558 34.3509 36.4659 34.1372 36.0963 33.8721C32.24 31.1036 28.3965 28.3158 24.5499 25.5312C24.4037 25.4252 24.2076 25.3448 24.1305 25.2002C24.0164 24.9897 23.8895 24.7021 23.9521 24.5061C24.0132 24.3133 24.2912 24.1703 24.5017 24.0546C24.6093 23.9951 24.7764 24.0385 24.9162 24.0385C29.7061 24.0433 34.4959 24.0481 39.2874 24.0546C39.4657 24.0562 39.6441 24.0562 39.8787 24.0562ZM45.2968 12.2269C45.255 12.2269 45.2116 12.2285 45.1699 12.2285C45.1056 12.4133 45.0381 12.5981 44.9771 12.7845C43.7013 16.6826 42.4271 20.5823 41.1529 24.4804C40.862 25.3689 40.8267 25.3962 39.8755 25.3946C35.7267 25.3898 31.5764 25.3834 27.4276 25.377C27.2236 25.377 27.0211 25.377 26.6596 25.377C26.9713 25.6132 27.1272 25.7369 27.2878 25.8542C30.6477 28.2853 34.0091 30.7148 37.3689 33.1458C38.1032 33.6777 38.1401 33.7886 37.8557 34.6498C37.0379 37.1403 36.2184 39.6293 35.4038 42.1214C34.8639 43.77 34.3304 45.4218 33.7504 47.2053C34.0251 47.0173 34.1858 46.9129 34.3401 46.8004C37.724 44.334 41.1143 41.8756 44.4838 39.3899C45.0269 38.9898 45.4398 38.9882 45.9813 39.3899C48.3449 41.1477 50.7326 42.8734 53.1122 44.6071C54.2675 45.4491 55.426 46.2878 56.6954 47.2117C56.599 46.8807 56.5508 46.6911 56.4897 46.5048C55.1947 42.5488 53.898 38.5945 52.6013 34.6402C52.3185 33.7773 52.3522 33.6841 53.101 33.1426C56.4785 30.7003 59.8544 28.258 63.2302 25.814C63.3813 25.7048 63.5179 25.5778 63.7637 25.3754C63.4423 25.3754 63.2672 25.3754 63.0905 25.3754C58.8806 25.3802 54.6708 25.3737 50.461 25.3995C49.836 25.4027 49.5114 25.189 49.3266 24.5944C48.7 22.5892 48.038 20.5951 47.3856 18.5979C46.6899 16.4753 45.9925 14.3511 45.2968 12.2269Z" fill="white"/>
<path d="M60.1429 13.1523C61.3271 11.9681 62.5166 10.7853 63.6966 9.59685C64.2759 9.0142 64.8133 8.64078 65.0856 8.89282C65.3757 9.16262 64.9894 9.71968 64.3752 10.3322C62.0278 12.6729 59.6837 15.0169 57.341 17.3664C56.7305 17.9786 56.1667 18.3783 55.8978 18.0891C55.6234 17.7986 56.0598 17.2269 56.6644 16.6291C57.8294 15.4742 58.983 14.3122 60.1429 13.1523Z" fill="white"/>
<path d="M64.5921 39.2972C65.7763 40.4814 66.9659 41.6642 68.1458 42.8526C68.7251 43.4353 69.2626 43.8087 69.5348 43.5566C69.8249 43.2868 69.4386 42.7298 68.8245 42.1173C66.477 39.7766 64.1329 37.4325 61.7902 35.0831C61.1797 34.4709 60.616 34.0712 60.347 34.3603C60.0726 34.6509 60.509 35.2226 61.1136 35.8204C62.2786 36.9752 63.4322 38.1373 64.5921 39.2972Z" fill="white"/>
<path d="M32.3083 13.1523C31.1241 11.9681 29.9345 10.7853 28.7546 9.59685C28.1753 9.0142 27.6378 8.64078 27.3655 8.89282C27.0755 9.16262 27.4617 9.71968 28.0759 10.3322C30.4234 12.6729 32.7675 15.0169 35.1102 17.3664C35.7206 17.9786 36.2844 18.3783 36.5534 18.0891C36.8277 17.7986 36.3914 17.2269 35.7868 16.6291C34.6218 15.4742 33.4682 14.3122 32.3083 13.1523Z" fill="white"/>
<path d="M26.3083 39.2972C25.1241 40.4814 23.9345 41.6642 22.7546 42.8526C22.1753 43.4353 21.6378 43.8087 21.3655 43.5566C21.0755 43.2868 21.4617 42.7298 22.0759 42.1173C24.4234 39.7766 26.7675 37.4325 29.1102 35.0831C29.7206 34.4709 30.2844 34.0712 30.5534 34.3603C30.8277 34.6509 30.3914 35.2226 29.7868 35.8204C28.6218 36.9752 27.4682 38.1373 26.3083 39.2972Z" fill="white"/>
<path d="M45.9046 49.381C45.9046 50.3001 45.911 51.2208 45.903 52.1399C45.8966 52.7601 45.6507 53.0766 45.1992 53.0429C44.6417 53.0011 44.5469 52.6026 44.5469 52.1463C44.5469 50.3065 44.5485 48.4683 44.5469 46.6285C44.5469 46.1577 44.6883 45.7528 45.2233 45.7512C45.7568 45.7496 45.9078 46.1497 45.9062 46.6221C45.9046 47.5412 45.9046 48.4619 45.9046 49.381Z" fill="white"/>
<path d="M70.8876 25.3577C70.414 25.3577 69.9396 25.3642 69.466 25.3561C69.1465 25.3497 68.9834 25.1039 69.0008 24.6524C69.0223 24.0948 69.2276 24 69.4627 24C70.4107 24 71.3578 24.0016 72.3058 24C72.5484 24 72.757 24.1414 72.7578 24.6765C72.7586 25.2099 72.5525 25.361 72.3091 25.3594C71.8355 25.3577 71.3611 25.3577 70.8876 25.3577Z" fill="white"/>
<path d="M30.9747 54.2431C30.797 54.682 30.6249 55.1242 30.4397 55.5601C30.3139 55.8539 30.0248 55.9128 29.6128 55.7273C29.1041 55.4981 29.0932 55.2722 29.1815 55.0543C29.5372 54.1756 29.8941 53.2983 30.2483 52.419C30.3394 52.1942 30.5487 52.0538 31.045 52.2538C31.5398 52.4533 31.6024 52.701 31.5096 52.926C31.3304 53.3644 31.1524 53.8041 30.9747 54.2431Z" fill="white"/>
<path d="M59.7128 54.2431C59.8905 54.682 60.0626 55.1242 60.2478 55.5601C60.3736 55.8539 60.6627 55.9128 61.0747 55.7273C61.5834 55.4981 61.5943 55.2722 61.506 55.0543C61.1503 54.1756 60.7934 53.2983 60.4392 52.419C60.3481 52.1942 60.1388 52.0538 59.6425 52.2538C59.1477 52.4533 59.0851 52.701 59.1779 52.926C59.3571 53.3644 59.5351 53.8041 59.7128 54.2431Z" fill="white"/>
<path d="M45.8245 4.87025C45.8245 5.34381 45.831 5.81821 45.8229 6.29177C45.8165 6.61135 45.5707 6.77444 45.1192 6.75706C44.5616 6.73553 44.4668 6.5302 44.4668 6.29508C44.4668 5.34712 44.4684 4.39999 44.4668 3.45204C44.4668 3.20946 44.6082 3.00083 45.1433 3C45.6767 2.99917 45.8278 3.20532 45.8261 3.44872C45.8245 3.92229 45.8245 4.39668 45.8245 4.87025Z" fill="white"/>
</svg>
