<svg width="77" height="60" viewBox="0 0 77 60" fill="none" xmlns="http://www.w3.org/2000/svg">
<circle cx="35.5" cy="38.5" r="16.5" fill="#C68476"/>
<path d="M12.002 2.73477C12.1823 2.34236 12.3192 1.92156 12.5497 1.56254C13.1775 0.587358 14.1043 0.0880863 15.2581 0.00626433C15.4034 -0.00375468 15.5503 0.00124993 15.6956 0.00124993C34.5664 0.00124993 53.4355 0.00124993 72.3062 0.00124993C74.2316 0.00124993 75.5891 1.03656 75.9331 2.76985C75.9899 3.05205 75.9949 3.34928 75.9966 3.63983C75.9999 6.95111 76.0032 10.2624 75.9982 13.5753C75.9949 15.7595 74.6023 17.1755 72.4098 17.1889C69.6395 17.2056 66.8693 17.2106 64.099 17.1822C63.2674 17.1738 62.6312 17.4477 62.0485 18.0355C59.2365 20.8775 56.3994 23.6979 53.5724 26.5249C53.4538 26.6435 53.357 26.8055 53.2134 26.8689C52.9496 26.9875 52.5905 27.1895 52.4002 27.096C52.1681 26.9808 51.9426 26.6017 51.9326 26.3279C51.8842 25.0171 51.9109 23.7046 51.9093 22.3921C51.9093 21.3501 51.9209 20.3098 51.9059 19.2678C51.8875 17.9887 51.1161 17.2056 49.8353 17.1972C47.3155 17.1822 44.7958 17.1922 42.2743 17.1922C33.6096 17.1922 24.9448 17.1622 16.2817 17.2139C14.1811 17.2273 12.6916 16.5527 12.0036 14.4837C12.002 10.568 12.002 6.6522 12.002 2.73477ZM53.352 24.7298C53.5991 24.5027 53.7661 24.3591 53.9197 24.2039C56.2926 21.8344 58.6821 19.4816 61.0232 17.082C61.9149 16.1686 62.9301 15.7528 64.1959 15.7662C66.9027 15.7962 69.6111 15.7779 72.3179 15.7745C73.8508 15.7729 74.6056 15.0081 74.6073 13.4618C74.6089 10.2958 74.6073 7.12978 74.6073 3.96544C74.6073 2.08687 73.926 1.40224 72.0541 1.40224C53.352 1.40224 34.6499 1.40224 15.9461 1.40224C15.7374 1.40224 15.5286 1.3939 15.3216 1.40893C14.2111 1.48741 13.4029 2.28224 13.3963 3.39769C13.3762 6.87596 13.3796 10.3542 13.3963 13.8325C13.3996 14.6958 13.9523 15.4356 14.7472 15.6693C15.0978 15.7729 15.4869 15.7745 15.8576 15.7745C27.0204 15.7795 38.1832 15.8062 49.3461 15.7561C51.7874 15.7445 53.4589 17.234 53.3286 19.7721C53.2568 21.1848 53.3152 22.6041 53.3169 24.0202C53.3219 24.2172 53.3386 24.4159 53.352 24.7298Z" fill="white"/>
<path d="M12.0017 39.234C12.2521 37.9732 12.4225 36.6891 12.7681 35.4551C14.8721 27.9359 21.7184 22.3887 29.5065 21.841C39.1631 21.1613 47.691 27.5518 49.5528 37.0298C50.7752 43.2449 49.2255 48.8372 44.9441 53.5177C40.8397 58.0062 35.6482 60.0484 29.5549 59.6327C25.0681 59.3271 21.1857 57.5738 17.9296 54.4829C14.5565 51.2801 12.6245 47.3443 12.1085 42.7172C12.0902 42.5553 12.0367 42.3966 12 42.2363C12.0017 41.2328 12.0017 40.2342 12.0017 39.234ZM44.5751 51.7694C49.9285 45.4508 50.2842 34.7337 42.8585 27.7989C35.8034 21.2114 24.5304 21.7057 17.9613 28.9494C11.3955 36.1898 12.5711 46.299 17.3468 51.706C17.3969 51.5623 17.4553 51.4288 17.4887 51.2902C18.5491 47.0204 22.1643 44.0882 26.5593 44.0164C29.4948 43.9679 32.4337 43.9746 35.3693 44.0164C37.6703 44.0481 39.7209 44.8212 41.4692 46.3458C43.1056 47.7718 44.1109 49.5669 44.5751 51.7694ZM30.9543 45.4791C30.9543 45.4775 30.9543 45.4775 30.9543 45.4758C29.4965 45.4758 28.0387 45.4691 26.581 45.4775C22.722 45.4992 19.3923 48.3446 18.7595 52.1384C18.6359 52.8815 18.7712 53.4276 19.4007 53.9786C25.903 59.6711 35.725 59.7429 42.3342 54.1556C43.1056 53.5027 43.3227 52.8966 43.1474 51.9214C42.5195 48.4448 39.1682 45.5175 35.6398 45.4808C34.0785 45.4658 32.5155 45.4791 30.9543 45.4791Z" fill="white"/>
<path d="M32.916 12.3475C33.4637 10.848 32.7323 9.48716 31.5 8.23651C30.8355 7.56193 31.0158 6.96916 31.9392 6.83725C33.7258 6.58178 34.9548 5.70514 35.7345 4.06877C36.1203 3.25893 36.7915 3.24892 37.1689 4.04873C37.9553 5.71349 39.201 6.59679 41.016 6.84224C41.8575 6.95579 42.0663 7.59699 41.4635 8.1764C40.1694 9.42038 39.6301 10.8263 39.9741 12.633C40.1561 13.5864 39.6067 13.9721 38.7568 13.5029C37.1722 12.6313 35.6895 12.7031 34.1216 13.5263C33.305 13.9521 32.8609 13.5731 32.916 12.3475ZM39.9306 8.01609C39.049 7.73891 38.2726 7.67378 37.7416 7.27972C37.1906 6.86896 36.88 6.13928 36.4559 5.53984C36.0201 6.15264 35.7078 6.88567 35.1535 7.28975C34.6075 7.68882 33.8177 7.75561 32.9828 8.01442C34.3553 9.04132 34.7026 10.3488 34.2852 11.9434C35.1067 11.6645 35.7696 11.2671 36.4342 11.2655C37.1121 11.2638 37.7917 11.6512 38.6199 11.9167C38.1991 10.3154 38.5765 9.03298 39.9306 8.01609Z" fill="white"/>
<path d="M47.9952 11.6732C48.3692 10.6112 47.9952 9.79636 47.2571 9.07168C46.9466 8.76779 46.6827 8.41045 46.4256 8.05813C46.0432 7.53382 46.2119 7.04624 46.8414 6.86257C47.5594 6.65385 48.2941 6.49523 49.0037 6.26313C49.2542 6.18131 49.513 5.99095 49.6683 5.77722C50.0957 5.18947 50.4597 4.55497 50.8688 3.95218C51.2879 3.33437 51.7872 3.32602 52.2063 3.93048C52.7156 4.66517 53.0629 5.60358 53.7408 6.0995C54.3987 6.58206 55.3872 6.60377 56.2238 6.85256C56.9017 7.05293 57.0536 7.51546 56.6412 8.08151C56.4458 8.35034 56.2571 8.63921 56.01 8.85461C55.0232 9.70786 54.8362 10.7798 55.0416 12.0004C55.282 13.4381 54.9998 14.1862 53.3167 13.3095C52.0744 12.6617 50.934 12.6717 49.7417 13.3362C49.4913 13.4765 49.2041 13.5617 48.9252 13.6385C48.3942 13.7854 48.0202 13.5132 47.9985 12.9589C47.9818 12.5247 47.9952 12.0873 47.9952 11.6732ZM54.8846 7.96962C54.1499 7.74254 53.3718 7.68076 52.8408 7.2867C52.2898 6.87927 51.9792 6.14791 51.4816 5.44494C50.9273 7.01953 49.8135 7.81768 48.1404 7.89282C48.6597 8.59078 49.2442 9.10006 49.4512 9.73123C49.6616 10.3741 49.498 11.1389 49.498 12.0338C50.9072 11.0654 52.2414 11.1054 53.5822 11.9988C53.5822 11.1656 53.4169 10.4125 53.6273 9.78466C53.8443 9.13178 54.4271 8.60079 54.8846 7.96962Z" fill="white"/>
<path d="M63.0952 11.8068C63.6195 10.5645 62.8848 9.58433 61.9932 8.6476C60.9847 7.58897 60.983 6.92106 62.6461 6.68395C64.0386 6.48525 64.9253 5.77727 65.6032 4.55166C66.4331 3.05221 66.8355 3.05389 67.6754 4.56169C68.3433 5.76225 69.2082 6.44685 70.5791 6.66392C72.2923 6.93442 72.3524 7.56392 71.2219 8.69435C70.2869 9.62942 69.8444 10.6663 70.1266 11.9838C70.1834 12.2459 70.175 12.5231 70.1817 12.7936C70.2017 13.5233 69.7876 13.8406 69.108 13.5968C68.4819 13.373 67.8557 13.1426 67.2496 12.8704C66.8154 12.6751 66.4297 12.6884 66.0023 12.8771C65.4128 13.1376 64.8084 13.363 64.2023 13.5818C63.4726 13.8456 63.0835 13.555 63.0919 12.7769C63.0986 12.5098 63.0952 12.2393 63.0952 11.8068ZM70.1015 8.01642C69.2433 7.74258 68.4535 7.66577 67.8991 7.26336C67.3565 6.86929 67.0559 6.14295 66.5399 5.40825C66.019 7.11809 64.8251 7.77264 63.2338 7.98303C64.5295 9.05001 64.9086 10.3307 64.5362 11.942C65.9639 11.0854 67.3347 11.1005 68.7624 11.9437C68.3216 10.3157 68.7757 9.06002 70.1015 8.01642Z" fill="white"/>
<path d="M17.8528 11.5445C18.2168 10.5494 17.736 9.70614 16.9679 8.94472C16.704 8.68257 16.4803 8.37532 16.2599 8.07309C15.8642 7.53209 15.9994 6.9627 16.6356 6.88422C18.5608 6.64545 19.91 5.71707 20.7265 3.93376C21.0154 3.30426 21.6065 3.33766 22.0072 3.91205C22.4113 4.49313 22.7486 5.12096 23.1794 5.68033C23.3864 5.94916 23.7137 6.18294 24.0343 6.29648C24.6989 6.53192 25.4002 6.66047 26.0764 6.86251C26.7092 7.0512 26.8712 7.53878 26.4755 8.06476C25.9261 8.79444 25.1196 9.42894 24.8525 10.2455C24.5903 11.0403 24.8859 12.0104 24.9026 12.9054C24.9143 13.5266 24.5018 13.8204 23.9141 13.6184C23.0508 13.3228 22.1992 12.7534 21.3393 12.7501C20.5044 12.7468 19.6712 13.3228 18.828 13.615C18.2152 13.8271 17.8094 13.5115 17.8128 12.8586C17.8144 12.6516 17.8445 12.4429 17.8528 12.2358C17.8578 12.0471 17.8528 11.8601 17.8528 11.5445ZM17.9864 7.96457C19.2287 9.05493 19.6829 10.3273 19.1586 11.952C19.9985 11.6731 20.6797 11.2724 21.3643 11.269C22.0406 11.2657 22.7202 11.6614 23.5668 11.9386C23.0308 10.2939 23.5584 9.04658 24.7656 7.92116C23.0308 7.89945 22.0439 6.93432 21.3309 5.49666C20.7348 7.07458 19.6061 7.78424 17.9864 7.96457Z" fill="white"/>
<path d="M30.9069 41.5463C26.6507 41.4795 23.3111 38.0281 23.3779 33.7652C23.4431 29.6275 26.9445 26.2946 31.1573 26.3631C35.2432 26.4282 38.6178 29.918 38.5627 34.0173C38.506 38.2151 35.0529 41.6114 30.9069 41.5463ZM37.1518 33.9271C37.1368 30.5058 34.3516 27.7357 30.9436 27.7507C27.5473 27.7657 24.7538 30.5826 24.7672 33.9756C24.7805 37.3802 27.5774 40.147 30.9937 40.1353C34.4234 40.1236 37.1685 37.3585 37.1518 33.9271Z" fill="white"/>
</svg>
