<svg width="78" height="61" viewBox="0 0 78 61" fill="none" xmlns="http://www.w3.org/2000/svg">
<circle cx="64.5" cy="24.5" r="13.5" fill="#9FCA78"/>
<path d="M52.5131 60.9985C49.7154 60.346 47.3362 58.7418 44.7629 57.5769C43.3576 56.9403 41.9492 56.3897 40.369 56.4852C40.2305 56.4931 40.0905 56.4963 39.9536 56.5154C39.7976 56.5361 39.6433 56.5711 39.4125 56.6141C39.4125 56.9451 39.43 57.2777 39.4093 57.6087C39.3664 58.2628 38.916 58.7402 38.2619 58.745C36.1183 58.7641 33.9746 58.7641 31.831 58.7466C31.1849 58.7418 30.7648 58.3281 30.6709 57.6851C30.639 57.4703 30.6422 57.2507 30.6422 57.0326C30.6406 52.6849 30.6406 48.3371 30.6406 43.9909C30.6406 42.6144 30.9939 42.2595 32.3625 42.2595C34.1688 42.2579 35.9751 42.2579 37.7813 42.2595C38.9399 42.2611 39.2677 42.5284 39.4762 43.6774C40.5058 43.192 41.5164 42.6939 42.546 42.2372C43.7237 41.7152 44.9077 41.2091 46.106 40.7381C47.551 40.1699 48.8958 40.4007 50.1498 41.3158C52.2011 42.8133 54.2684 44.2869 56.3293 45.7717C57.9064 46.9096 58.1149 47.3075 58.1467 49.2999C59.0872 49.0421 60.0134 48.7907 60.938 48.5344C64.8354 47.4586 68.7328 46.386 72.627 45.3023C73.8651 44.9585 74.9155 45.2609 75.743 46.2205C76.5912 47.2024 76.7122 48.353 76.1838 49.5036C75.9658 49.9779 75.56 50.476 75.108 50.7163C69.4696 53.7082 63.8265 56.6889 58.1387 59.5837C56.8688 60.2298 55.4238 60.5369 54.0599 61C53.5443 60.9985 53.0287 60.9985 52.5131 60.9985ZM39.4205 55.2502C42.137 54.7856 44.3889 55.89 46.6391 57.0056C48.0953 57.7265 49.5467 58.4586 51.0171 59.146C52.3491 59.7683 53.7385 59.8319 55.1294 59.3513C55.9887 59.0537 56.8688 58.7768 57.6724 58.3599C63.2488 55.4683 68.8124 52.548 74.3664 49.6134C74.6513 49.4638 74.9011 49.1312 75.03 48.8257C75.2958 48.1939 75.1717 47.5716 74.7038 47.056C74.2152 46.5165 73.6169 46.4067 72.9166 46.6025C67.84 48.0156 62.7586 49.4113 57.6804 50.8245C57.3844 50.9073 57.1027 51.0712 56.8433 51.2415C55.8359 51.9019 54.7856 52.0197 53.6764 51.5359C53.4775 51.4483 53.2865 51.3401 53.0955 51.2351C51.5503 50.3853 50.0082 49.5291 48.4581 48.684C48.0332 48.4517 47.7866 48.1302 48.0412 47.6751C48.3022 47.2088 48.7128 47.2724 49.1186 47.5239C49.3032 47.6385 49.4989 47.7371 49.6899 47.8422C51.1142 48.6252 52.5258 49.4336 53.9708 50.1736C54.3702 50.3773 54.8843 50.4919 55.3251 50.4457C56.0778 50.3662 56.576 49.8458 56.759 49.1153C56.9483 48.3594 56.7367 47.7117 56.0715 47.2358C53.9756 45.7335 51.8479 44.2726 49.8124 42.6907C48.5218 41.6882 47.2662 41.5736 45.8323 42.2483C43.843 43.1841 41.8394 44.0912 39.8311 44.9872C39.4714 45.1479 39.4061 45.3675 39.4077 45.7208C39.4189 48.6984 39.4141 51.6743 39.4141 54.6519C39.4205 54.8062 39.4205 54.9606 39.4205 55.2502ZM32.0172 57.3907C34.051 57.3907 36.0578 57.3907 38.0598 57.3907C38.0598 52.7756 38.0598 48.205 38.0598 43.6217C36.0308 43.6217 34.0399 43.6217 32.0172 43.6217C32.0172 48.2257 32.0172 52.7963 32.0172 57.3907Z" fill="white"/>
<path d="M55.7471 10.0013C54.7668 9.05922 53.7419 8.19826 52.8762 7.20044C52.238 6.4652 51.6699 5.60583 51.3134 4.70509C50.6609 3.05637 51.7765 1.74027 53.5414 1.9567C54.0841 2.02354 54.6156 2.19064 55.179 2.31795C55.2283 2.09038 55.2649 1.85962 55.327 1.63523C55.7598 0.113835 57.251 -0.470217 58.5591 0.417796C59.5076 1.06232 60.3988 1.79278 61.3473 2.50733C62.0777 1.94079 62.8544 1.39175 63.5689 0.772683C65.2081 -0.648456 67.1973 -0.0421246 67.4902 2.31477C68.0217 2.19382 68.5437 2.03309 69.08 1.95988C70.8767 1.7164 71.9541 3.0134 71.3716 4.72259C71.2204 5.16819 71.0247 5.62652 70.7367 5.99095C70.0746 6.82963 69.3728 7.63967 68.6328 8.40991C68.0997 8.96373 67.4774 9.43161 66.8806 9.952C67.5793 10.8114 67.6573 11.7137 67.0748 12.6877C67.2371 12.772 67.3883 12.8532 67.5411 12.928C71.0629 14.6467 73.2145 17.5447 74.5497 21.1254C75.8562 24.6313 76.2477 28.2852 76.2414 31.998C76.2414 32.3162 76.2541 32.6345 76.2318 32.9496C76.1857 33.6085 76.2461 34.1671 76.7649 34.7161C77.4683 35.4609 77.376 36.6385 76.7315 37.5218C76.0424 38.4655 74.8155 38.8825 73.719 38.5228C73.4023 38.4193 73.1047 38.2538 72.7418 38.0915C69.7834 41.5974 65.8255 42.9533 61.3616 42.9565C56.8945 42.9597 52.9287 41.6245 49.9655 38.1313C49.4467 38.3032 48.974 38.5323 48.4791 38.6087C47.3285 38.7854 46.2415 38.1838 45.718 37.1605C45.2103 36.1707 45.3965 35.2397 46.2384 34.2832C46.3816 34.1193 46.4389 33.8249 46.4341 33.5926C46.3609 30.3286 46.5121 27.0852 47.2792 23.8976C48.0414 20.7275 49.2987 17.8057 51.6221 15.4345C52.76 14.2743 54.0809 13.3783 55.5959 12.7068C55.0262 11.7392 55.0739 10.8177 55.7471 10.0013ZM61.3568 13.4977C60.5834 13.4977 59.8036 13.555 59.035 13.4865C57.2048 13.321 55.6548 13.999 54.2018 14.992C51.5362 16.8126 50.0228 19.4432 49.0615 22.4367C47.8552 26.1909 47.6436 30.0628 47.79 33.9681C47.8107 34.5092 47.7184 34.9023 47.2314 35.2301C46.6442 35.6264 46.6235 36.2948 47.0914 36.8311C47.6754 37.4979 48.5507 37.4756 49.356 36.7706C49.9973 36.2089 50.2615 36.2264 50.7437 36.9011C51.5887 38.0852 52.6597 39.0145 53.9122 39.7386C56.7465 41.3746 59.8291 41.8918 63.0374 41.5449C66.6563 41.1534 69.8264 39.823 72.0464 36.7499C72.3981 36.2646 72.7259 36.2662 73.2018 36.6529C73.4612 36.8629 73.7269 37.0889 74.0277 37.2178C74.6563 37.49 75.3788 37.2162 75.7289 36.6306C76.0202 36.1436 75.9645 35.5755 75.4775 35.2604C74.9396 34.9134 74.8632 34.4742 74.8839 33.8949C75.008 30.432 74.8441 26.9914 73.9561 23.6207C73.2129 20.7975 72.0512 18.1812 69.8852 16.1458C68.0726 14.4414 66.0197 13.2462 63.3827 13.4881C62.7111 13.5502 62.0316 13.4977 61.3568 13.4977ZM62.0093 9.28361C63.2299 9.51595 63.3191 9.508 63.841 8.54996C64.4474 7.43756 65.0903 6.32834 65.5311 5.14909C65.8701 4.24357 66.0292 3.23461 66.0706 2.26225C66.1088 1.36947 65.442 1.09256 64.7115 1.61773C63.9715 2.14926 63.257 2.71899 62.5424 3.28713C61.4762 4.13217 61.177 4.12899 60.1108 3.27758C59.3676 2.68398 58.618 2.09197 57.8414 1.54452C57.2621 1.13553 56.7306 1.35037 56.6096 2.04582C56.5332 2.48505 56.5523 2.9593 56.6224 3.40171C56.9295 5.30187 57.8796 6.93467 58.8265 8.56587C59.3485 9.46503 59.5235 9.52391 60.663 9.27406C60.663 9.07354 60.663 8.8587 60.663 8.64385C60.663 7.84973 60.6582 7.05562 60.6677 6.2615C60.6725 5.83818 60.8364 5.50398 61.3123 5.49284C61.8215 5.4817 61.9902 5.82704 62.0061 6.27582C62.0141 6.49384 62.0093 6.71187 62.0093 6.93148C62.0093 7.71924 62.0093 8.50858 62.0093 9.28361ZM61.2709 12.1641C62.6013 12.1641 63.9302 12.1593 65.2606 12.1657C65.7444 12.1673 66.077 11.9922 66.1152 11.4718C66.1486 11.0039 65.8462 10.7191 65.2654 10.7175C62.6459 10.7079 60.0264 10.7079 57.4069 10.7175C56.8229 10.7191 56.5205 10.9992 56.5523 11.467C56.5874 11.989 56.9152 12.1689 57.4022 12.1657C58.6912 12.1593 59.9818 12.1641 61.2709 12.1641ZM64.9105 9.43797C65.2638 9.31703 65.5025 9.30429 65.6377 9.18016C66.86 8.0598 68.1013 6.95536 69.2519 5.76338C69.6704 5.32892 69.9266 4.69713 70.1351 4.11149C70.3324 3.55449 70.0746 3.22825 69.4922 3.29668C68.8763 3.36988 68.2684 3.57677 67.6811 3.7932C67.4854 3.86482 67.3167 4.1274 67.226 4.34065C66.7629 5.42918 66.3507 6.54 65.878 7.62375C65.6298 8.19507 65.294 8.7282 64.9105 9.43797ZM57.7188 9.44752C57.625 9.20085 57.6059 9.12605 57.5693 9.0624C56.6749 7.51872 55.8633 5.94003 55.4033 4.20379C55.3747 4.09875 55.3094 3.94439 55.2283 3.91892C54.5026 3.69772 53.7785 3.44468 53.0337 3.31418C52.5945 3.2378 52.3717 3.60541 52.5085 4.01759C52.6756 4.51571 52.8793 5.02496 53.1738 5.45465C54.2066 6.95854 55.5975 8.10595 57.0441 9.18971C57.1873 9.29634 57.3878 9.32498 57.7188 9.44752Z" fill="white"/>
<path d="M35.0339 55.543C33.9883 55.5414 33.1433 54.6884 33.1544 53.6476C33.1671 52.6053 34.0233 51.7793 35.0752 51.7936C36.1001 51.808 36.9149 52.6323 36.9181 53.6588C36.9213 54.7123 36.0874 55.5462 35.0339 55.543ZM35.0562 52.8742C34.7888 53.2482 34.5087 53.471 34.5389 53.6381C34.5787 53.8529 34.8461 54.1314 35.0562 54.1728C35.1962 54.2015 35.5447 53.8736 35.5559 53.689C35.567 53.4837 35.3076 53.2593 35.0562 52.8742Z" fill="white"/>
<path d="M60.6621 33.2648C60.6621 31.5699 60.6748 29.9642 60.6398 28.36C60.6366 28.2216 60.3517 28.0274 60.1623 27.9653C58.9019 27.5563 57.928 26.8752 57.5827 25.505C57.0416 23.3566 58.1349 21.3148 60.234 20.6496C60.565 20.5445 60.6891 20.4125 60.67 20.0783C60.6509 19.7218 60.6541 19.3621 60.6843 19.0072C60.7193 18.6173 60.9803 18.3309 61.348 18.4088C61.593 18.4614 61.9129 18.751 61.9702 18.9897C62.2901 20.3233 62.2869 20.344 63.4391 21.1063C64.4974 21.8065 65.0782 22.8012 65.2024 24.0648C65.2469 24.5263 65.161 24.94 64.6295 25.0037C64.0916 25.0689 63.9117 24.6918 63.8719 24.2223C63.7765 23.0765 63.1685 22.3365 62.01 21.8909C62.01 22.9746 62.01 23.9772 62.01 24.9798C62.01 25.0992 62.0259 25.2201 62.0068 25.3363C61.8286 26.4583 62.0705 27.168 63.3452 27.5834C64.8252 28.0656 65.2724 29.4485 65.204 30.919C65.1276 32.5773 64.3 33.8154 62.7357 34.3772C62.0657 34.6175 61.94 34.9326 62.0036 35.523C62.0291 35.7569 62.0641 36.0402 61.9575 36.2232C61.827 36.4492 61.5405 36.75 61.3495 36.7309C61.114 36.707 60.8069 36.4269 60.713 36.1866C60.5984 35.8906 60.6461 35.5214 60.67 35.1856C60.7002 34.7909 60.5761 34.6159 60.1703 34.4774C58.5996 33.9475 57.6845 32.8383 57.4824 31.1768C57.4012 30.5116 57.6033 30.1551 58.068 30.1456C58.6585 30.1329 58.7603 30.5498 58.8081 31.0225C58.9195 32.1205 59.529 32.8255 60.6621 33.2648ZM62.0323 33.2107C63.4057 32.7778 64.047 31.6574 63.8353 30.1631C63.7017 29.2273 62.9935 28.5892 62.0323 28.5542C62.0323 30.0915 62.0323 31.6288 62.0323 33.2107ZM60.6398 21.9593C59.3507 22.3126 58.6966 23.3566 58.816 24.8016C58.9019 25.8599 59.5433 26.5076 60.6398 26.6206C60.6398 25.0817 60.6398 23.546 60.6398 21.9593Z" fill="white"/>
<path d="M69.0769 26.9246C69.4923 26.9246 69.9076 26.9118 70.3214 26.9278C70.7161 26.9437 71.0121 27.1983 70.9405 27.558C70.8896 27.8126 70.5713 28.1866 70.3469 28.2057C69.4843 28.2805 68.6106 28.2582 67.7417 28.2232C67.3614 28.2073 67.0813 27.9144 67.1863 27.5405C67.2532 27.3001 67.5396 27.0073 67.7783 26.9516C68.1905 26.8545 68.6425 26.9246 69.0769 26.9246Z" fill="white"/>
<path d="M53.6119 28.2422C53.2172 28.2422 52.821 28.2486 52.4263 28.2406C51.9823 28.2327 51.6943 28.0035 51.7054 27.5563C51.7165 27.1441 51.9903 26.9229 52.4136 26.9229C53.2045 26.9213 53.9938 26.9182 54.7848 26.9229C55.2288 26.9261 55.5105 27.1394 55.4993 27.6009C55.4898 28.0306 55.2081 28.2295 54.7975 28.239C54.4028 28.2502 54.0082 28.2422 53.6119 28.2422Z" fill="white"/>
</svg>
