<svg width="77" height="66" viewBox="0 0 77 66" fill="none" xmlns="http://www.w3.org/2000/svg">
<path d="M17.751 51.6948C17.1123 50.745 16.4097 49.8316 15.8464 48.8392C11.8766 41.8432 13.0046 33.0594 18.6505 27.3306C23.3417 22.5692 28.0931 17.8679 32.8194 13.1442C33.4204 12.5432 33.7378 12.5319 34.3237 13.1153C36.1442 14.9258 37.9597 16.7413 39.7715 18.5605C40.3775 19.1691 40.3649 19.4877 39.7351 20.1176C35.0577 24.7974 30.3665 29.466 25.7055 34.1622C22.9979 36.8898 22.555 41.0239 24.56 44.3036C27.2663 48.7313 33.5496 49.5519 37.2534 45.9008C41.9646 41.2548 46.6219 36.5524 51.3018 31.875C52.0734 31.1034 52.3143 31.1034 53.0947 31.8813C54.8324 33.6165 56.5714 35.3529 58.3053 37.0919C59.0004 37.7895 59.0029 38.063 58.3266 38.7393C53.712 43.3564 49.1049 47.9836 44.4752 52.5857C37.9347 59.0886 28.1734 59.8288 20.7245 54.4124C20.4234 54.1941 20.121 53.977 19.8212 53.76C19.1286 53.0724 18.4398 52.3836 17.751 51.6948ZM27.6615 20.3873C27.4582 20.5906 27.2889 20.7599 27.1207 20.9281C24.7733 23.2755 22.4107 25.6079 20.0884 27.978C19.3318 28.7496 18.6192 29.5777 17.9856 30.4497C12.844 37.5234 14.5265 48.0864 21.589 53.2042C28.5059 58.2166 37.4479 57.5127 43.5016 51.4765C45.8842 49.1015 48.2593 46.7189 50.6368 44.3413C50.7899 44.1882 50.9417 44.0364 51.1249 43.8532C49.4938 42.2222 47.908 40.6363 46.2656 38.9939C46.0711 39.1884 45.9043 39.3553 45.7374 39.5221C43.3435 41.916 40.9584 44.3212 38.547 46.6975C37.9999 47.237 37.4052 47.7565 36.7565 48.1617C32.512 50.8153 27.0819 49.9019 23.9615 46.0438C20.8525 42.1996 21.1724 36.6226 24.7193 33.0506C27.1358 30.6165 29.5686 28.1988 31.9951 25.7723C32.162 25.6054 32.3288 25.4386 32.522 25.2454C30.8885 23.6143 29.3139 22.0397 27.6615 20.3873ZM52.1926 42.7178C53.7998 41.1106 55.382 39.5284 56.9628 37.9476C55.3456 36.3303 53.7622 34.7469 52.1637 33.1485C50.5565 34.7557 48.987 36.3253 47.3935 37.9187C49.007 39.5322 50.5904 41.1156 52.1926 42.7178ZM33.5709 14.5406C31.9675 16.1441 30.3853 17.7262 28.8007 19.3108C30.4167 20.9268 32.0014 22.5115 33.601 24.1111C35.202 22.5102 36.7716 20.9406 38.3713 19.3409C36.7615 17.7312 35.1781 16.1478 33.5709 14.5406Z" fill="white"/>
<path d="M63.2967 22.9611C65.1246 20.9751 66.9435 19.047 68.7044 17.0679C69.8742 15.7526 70.8814 14.3079 71.6771 12.7283C72.2478 11.5934 72.6355 10.4053 72.7742 9.13311C73.0549 6.56612 71.3725 4.35319 68.8261 4.02069C67.5358 3.8516 66.3808 4.26695 65.4702 5.15212C64.8291 5.77514 64.3505 6.56385 63.7832 7.26518C63.6263 7.45923 63.4194 7.71797 63.2171 7.73613C63.0545 7.75088 62.8067 7.47739 62.6942 7.27766C62.1235 6.26312 61.438 5.35525 60.4467 4.71294C57.6468 2.89834 53.9238 4.77308 53.7021 8.10382C53.6032 9.58704 53.9795 10.9681 54.5888 12.2982C55.2709 13.7905 56.2008 15.1273 57.2159 16.4074C59.0416 18.7134 61.1208 20.7867 63.2967 22.9611Z" fill="#FF756C"/>
<path d="M65.6343 4.95991C64.9909 3.95785 64.2099 3.09084 63.1607 2.49051C59.7434 0.534055 55.493 2.79464 55.1997 6.72571C55.0496 8.7389 55.676 10.5558 56.6093 12.2909C57.6915 14.3041 59.1034 16.0824 60.6472 17.7517C62.1398 19.3666 63.6915 20.927 65.2228 22.5067C65.5502 22.8449 65.7685 22.8676 66.0595 22.5759C68.6264 20.0044 71.2296 17.4646 73.3577 14.4993C74.5298 12.864 75.5165 11.1334 75.969 9.14858C76.368 7.39866 76.2861 5.7089 75.2607 4.16212C73.3964 1.3466 69.5847 0.944866 67.0837 3.31667C66.5642 3.80805 66.13 4.39249 65.6343 4.95991ZM65.7389 21.6749C63.5631 19.5017 61.485 17.4272 59.657 15.1212C58.6419 13.84 57.7131 12.5031 57.0299 11.012C56.4217 9.68195 56.0443 8.30085 56.1432 6.81763C56.3649 3.48689 60.0879 1.61215 62.8878 3.42675C63.8791 4.06906 64.5646 4.97693 65.1353 5.99147C65.2478 6.1912 65.4956 6.46469 65.6582 6.44994C65.8606 6.43178 66.0674 6.17304 66.2243 5.97899C66.7916 5.27766 67.2702 4.48895 67.9113 3.86593C68.8219 2.98076 69.9769 2.56541 71.2672 2.7345C73.8147 3.067 75.4972 5.27993 75.2164 7.84692C75.0766 9.11907 74.6901 10.3072 74.1182 11.4421C73.3236 13.0218 72.3164 14.4664 71.1455 15.7817C69.3858 17.7608 67.5669 19.6889 65.7389 21.6749Z" fill="white"/>
</svg>
