<svg width="71" height="69" viewBox="0 0 71 69" fill="none" xmlns="http://www.w3.org/2000/svg">
<path opacity="0.1" d="M34.3778 68.8738C23.6657 68.9049 13.5101 61.7834 7.15401 51.2861C0.545468 40.3718 1.15002 26.2255 8.07601 15.5099C10.017 12.5069 12.2537 9.71996 14.7159 7.28409C24.2363 -2.13444 39.5099 -1.82812 51.1343 4.82162C61.3845 10.6852 69.3253 19.779 69.831 32.3917C68.194 50.7263 51.7303 68.3593 34.3778 68.8738Z" fill="#F94E1E"/>
<path opacity="0.3" d="M35.079 0.193144C46.5566 -0.723704 58.7245 6.91433 65.676 17.8986C70.8922 26.1408 71.4994 36.743 67.7122 45.7319C61.5946 60.2515 48.2854 67.0569 35.8274 66.6562C23.7243 67.802 10.4972 60.285 3.93264 48.03C-0.196679 40.3211 -0.0667085 30.8393 4.03066 23.1135C10.5282 10.8619 23.5632 -0.0518733 35.079 0.193144Z" fill="#F94E1E"/>
<path opacity="0.5" d="M64.0224 16.419C70.5553 25.9005 70.0245 40.2573 63.9876 51.7696C59.4577 60.408 50.5796 66.235 40.9013 67.4496C25.2682 69.4114 12.72 61.288 6.83795 50.2986C-0.205927 40.39 -0.309566 25.1765 7.02136 13.3639C11.6327 5.93339 19.9092 1.30503 28.6487 0.990533C42.5076 0.491801 58.4767 6.32358 64.0224 16.419Z" fill="#F94E1E"/>
</svg>
