<svg width="99" height="100" viewBox="0 0 99 100" fill="none" xmlns="http://www.w3.org/2000/svg">
<mask id="path-1-inside-1_2520_18364" fill="white">
<path d="M4.9606 81.2277C5.00342 81.0576 5.06516 80.8903 5.08663 80.7182C5.53648 76.906 8.35795 74.3769 12.1907 74.3507C12.3746 74.3482 12.558 74.3146 12.8268 74.2894C12.7352 73.9474 12.6552 73.6491 12.5759 73.3532C11.9259 70.9276 11.2444 68.5105 10.6387 66.0757C10.3479 64.9032 10.2712 63.6759 9.9616 62.511C9.6535 61.3613 9.09137 60.2822 8.77842 59.1338C6.51233 50.7747 4.28262 42.4058 2.04078 34.0401C1.48828 31.9784 0.928508 29.9186 0.386363 27.8568C-0.155782 25.7949 0.576865 24.5223 2.62999 23.9669C5.56714 23.1694 8.50884 22.3889 11.4486 21.6011C11.7785 21.5127 12.1083 21.4243 12.5085 21.317C10.6491 18.0743 10.6827 15.008 13.2941 12.3064C15.3069 10.2228 17.8524 9.68105 20.5498 10.7052C23.7738 11.9288 25.1651 14.4625 25.105 17.944C26.5021 17.5696 27.8555 17.2069 29.2114 16.8436C30.9093 16.3886 32.6601 16.0728 34.2848 15.432C35.4344 14.9783 36.6371 15.4984 37.771 14.8305C38.7697 14.2405 39.9807 13.9862 41.1185 13.6631C43.4143 13.014 45.722 12.419 48.0263 11.8015C48.327 11.7209 48.6278 11.6403 48.9941 11.5422C47.1316 8.3367 47.1456 5.26527 49.7381 2.56094C51.7638 0.44787 54.3347 -0.1059 57.0729 0.954122C60.2489 2.1828 61.6341 4.68427 61.5881 8.16983C61.9641 8.06908 62.2818 7.98393 62.5995 7.89878C65.5102 7.11878 68.4177 6.33701 71.329 5.55944C73.583 4.95802 74.8111 5.65061 75.4151 7.8753C76.1939 10.7525 76.9606 13.6329 77.7321 16.512C77.8205 16.8418 77.9089 17.1717 78.0214 17.5913C81.3992 15.6541 84.615 15.7022 87.2821 18.5829C89.165 20.613 89.721 23.1729 88.6006 25.8311C87.2909 28.9378 84.7763 30.2252 81.391 30.1653C81.6627 31.1792 81.9194 32.1373 82.1762 33.0953C82.7774 35.339 83.4029 37.5761 83.9647 39.8277C84.1346 40.5101 84.1164 41.2377 84.191 41.943C84.2105 42.1224 84.2392 42.307 84.3065 42.471C84.6373 43.2688 85.0742 44.0357 85.3104 44.8589C86.0768 47.5444 86.7729 50.2487 87.4957 52.9459C87.5835 53.2734 87.6712 53.6008 87.7934 54.0568C90.289 52.4651 92.7943 52.2487 95.3444 53.6061C97.463 54.7308 98.4422 56.6288 98.7997 58.9039C99.1483 61.1164 98.374 62.9904 96.8622 64.5472C95.3402 66.1145 93.4044 66.7294 91.145 66.5732C91.9425 69.5493 92.7134 72.426 93.4837 75.3003C93.6052 75.7539 93.7347 76.2079 93.8465 76.6641C94.3121 78.5567 93.5719 79.8495 91.6784 80.37C88.6219 81.2072 85.5576 82.0154 82.4966 82.8357C82.2589 82.8994 82.0188 82.9637 81.7229 83.043C82.0436 83.7838 82.4072 84.4325 82.612 85.1289C83.5921 88.4565 82.3206 91.5503 79.3039 93.3024C79.2002 93.3614 79.1222 93.4681 79.0328 93.5519C78.1839 93.7794 77.335 94.0069 76.486 94.2344C76.3102 94.2087 76.1377 94.1665 75.9609 94.1567C73.288 94.0099 71.1556 92.8629 69.9505 90.4614C69.3556 89.2793 69.2094 87.8705 68.8409 86.4952C66.9004 87.0152 64.7974 87.6463 62.6627 88.13C60.8223 88.5478 59.0764 89.5512 57.0819 89.142C56.9915 89.1247 56.8761 89.257 56.7673 89.3069C56.0075 89.6535 55.2772 90.091 54.4844 90.3242C52.3497 90.9535 50.1867 91.4967 48.0371 92.0702C46.5526 92.468 45.0754 92.8925 43.5812 93.2539C42.3994 93.5394 41.7624 92.821 42.1144 91.6608C42.16 91.5108 42.2313 91.3695 42.2683 91.2166C42.7418 89.2777 42.2881 87.5847 40.7571 86.3051C39.2367 85.0357 37.505 84.7823 35.6714 85.6428C32.5403 87.1136 32.0189 91.1243 34.6017 93.5545C34.9421 93.874 35.263 94.4795 35.198 94.8869C35.1411 95.2375 34.5596 95.6481 34.1365 95.7667C30.2691 96.8473 26.3907 97.8866 22.5081 98.9011C20.6712 99.3803 19.3668 98.6068 18.8622 96.7819C18.2933 94.7271 17.753 92.6622 17.2011 90.6029C16.8722 89.3756 16.5433 88.1483 16.191 86.8336C14.6706 87.8442 13.1226 88.3344 11.399 88.1698C8.96774 87.9348 7.22678 86.6283 5.88684 84.6841C5.57809 83.5319 5.26934 82.3798 4.9606 81.2277ZM53.0485 70.1037C54.4538 75.3477 55.8573 80.5947 57.265 85.8381C57.6303 87.2012 57.6376 87.1993 58.9595 86.845C62.6584 85.8538 66.3528 84.8456 70.0628 83.8956C70.4789 83.7893 71.1425 83.8792 71.4054 84.1519C71.6608 84.4162 71.6012 85.0379 71.584 85.4975C71.5479 86.3911 71.2588 87.3109 71.3975 88.168C71.7261 90.2091 73.5115 91.7298 75.55 91.9349C77.5562 92.1356 79.5615 90.9847 80.3631 89.1736C81.2156 87.2424 80.7151 85.0835 79.1555 83.5907C78.8094 83.2597 78.3975 82.6343 78.5008 82.2921C78.6259 81.8764 79.2218 81.4515 79.6928 81.3175C83.3788 80.2778 87.0836 79.3083 90.7825 78.3171C91.9613 78.0012 92.001 77.936 91.6845 76.7547C90.7041 73.0867 89.7013 69.422 88.7573 65.7442C88.6393 65.2845 88.6369 64.5286 88.9079 64.3078C89.2359 64.0379 89.9517 64.0411 90.4303 64.178C92.8284 64.8612 95.2504 63.8586 96.2807 61.6691C97.2605 59.5919 96.5686 57.0295 94.6837 55.7486C92.6552 54.3684 90.0881 54.7131 88.3581 56.513C88.0186 56.8665 87.3806 57.2117 86.9614 57.1317C86.6137 57.0662 86.2572 56.4053 86.1289 55.9457C85.1097 52.2881 84.1165 48.6208 83.1774 44.9417C82.9407 44.0198 82.5547 43.8113 81.6519 44.0611C78.0234 45.0724 74.3857 46.0499 70.7338 46.9739C70.1909 47.1116 69.397 47.0982 69.0257 46.7895C68.7446 46.5555 68.8198 45.7008 68.9615 45.1819C69.5745 42.9196 68.5194 40.4571 66.4411 39.4828C64.342 38.4985 61.7919 39.1689 60.506 41.0447C59.1225 43.0611 59.3916 45.6173 61.1709 47.28C61.601 47.6821 62.2823 48.0611 61.9071 48.718C61.6539 49.1602 61.0782 49.5536 60.5701 49.695C56.9157 50.7263 53.2459 51.7097 49.5687 52.6561C48.7002 52.8785 48.5033 53.2302 48.7415 54.0997C50.2055 59.4268 51.6185 64.7675 53.0485 70.1037ZM71.373 44.5279C74.6571 43.6478 77.8692 42.7896 81.0769 41.9248C82.2065 41.6195 82.2467 41.5463 81.9495 40.4275C80.9444 36.6673 79.9182 32.9153 78.9543 29.144C78.8493 28.7328 78.9501 28.1001 79.217 27.8154C79.4414 27.5759 80.048 27.6473 80.4814 27.6637C81.4347 27.6994 82.4225 27.9807 83.3346 27.8142C85.3138 27.458 86.7736 25.6396 86.9475 23.6302C87.1221 21.5946 86.0056 19.7178 84.1105 18.8739C82.2348 18.035 80.0864 18.5354 78.6132 20.0715C78.2822 20.4175 77.6619 20.8385 77.3245 20.734C76.9167 20.6093 76.5089 20.0088 76.3773 19.5372C75.3568 15.9136 74.4037 12.2695 73.4262 8.63184C73.1045 7.4312 73.043 7.39569 71.8812 7.70704C68.2131 8.68741 64.5522 9.69446 60.8718 10.6287C60.3629 10.7573 59.6002 10.7147 59.2588 10.4111C58.9861 10.1696 59.0469 9.36816 59.1867 8.88094C59.8331 6.60716 58.8337 4.15828 56.7699 3.1411C54.6698 2.10505 52.0491 2.77356 50.7544 4.67513C49.3552 6.72952 49.6548 9.29314 51.5032 10.9712C51.9226 11.3527 52.5235 11.7324 52.1739 12.3487C51.9337 12.7718 51.4043 13.1633 50.9277 13.2962C47.2436 14.3328 43.5453 15.3265 39.8353 16.2765C38.9619 16.5002 38.7477 16.8357 38.9927 17.7112C40.0059 21.3367 40.9542 24.9821 41.9364 28.6185C42.1015 29.2345 42.3709 29.9683 41.7394 30.3377C41.319 30.5829 40.6108 30.5206 40.0912 30.3764C37.8288 29.753 35.3887 30.8047 34.4068 32.9032C33.3996 35.0527 34.0794 37.5509 36.0383 38.8847C37.9596 40.1948 40.5696 39.8646 42.2188 38.18C42.59 37.7997 43.258 37.3529 43.6551 37.4571C44.0717 37.5664 44.4817 38.2521 44.6267 38.7643C45.6658 42.4479 46.6522 46.1481 47.6144 49.8548C47.811 50.608 48.1296 50.7879 48.874 50.5779C51.2898 49.8916 53.7194 49.2665 56.145 48.6165C57.006 48.3857 57.8695 48.1543 58.7524 47.9177C56.9552 44.4998 57.1048 41.6338 59.1455 39.2567C60.9545 37.1497 63.9223 36.331 66.5686 37.2129C69.5645 38.2064 71.1162 40.5333 71.373 44.5279ZM39.4551 27.9835C38.5698 24.68 37.6754 21.449 36.852 18.2017C36.6282 17.3179 36.2297 17.2376 35.4409 17.4567C31.7819 18.4711 28.1158 19.4587 24.4361 20.3954C23.9223 20.5253 23.2309 20.487 22.7887 20.2337C22.1343 19.858 22.5189 19.1882 22.6928 18.6242C23.4133 16.3072 22.3688 13.9328 20.1777 12.8769C18.0971 11.8746 15.5235 12.5929 14.1987 14.5468C12.9131 16.4433 13.2664 19.0809 14.9576 20.7257C15.323 21.0801 15.7799 21.7376 15.6682 22.0873C15.53 22.5221 14.8896 22.9459 14.384 23.0866C10.7296 24.1179 7.05634 25.0788 3.38893 26.0616C2.22225 26.3743 2.18431 26.4365 2.50476 27.6322C5.33697 38.2106 8.1716 48.7884 11.0087 59.3655C11.333 60.5758 11.3743 60.6038 12.5538 60.2903C16.5257 59.2311 20.4898 58.1428 24.4727 57.1248C24.9858 56.9925 25.7477 57.0223 26.0963 57.3241C26.3732 57.5618 26.3265 58.3673 26.1891 58.8538C25.8031 60.2364 25.931 61.5383 26.647 62.7451C27.6462 64.4271 29.1705 65.2353 31.1343 65.0548C33.1772 64.8687 34.5875 63.7577 35.2261 61.8239C35.863 59.8932 35.3315 58.2107 33.8916 56.7663C33.5397 56.4135 33.1355 55.7783 33.2356 55.3953C33.3409 54.9927 33.973 54.5867 34.4531 54.4477C37.5296 53.5686 40.6332 52.7811 43.7175 51.9312C45.9687 51.3097 45.7926 51.7391 45.1947 49.44C44.5075 46.7982 43.7864 44.1656 43.0799 41.529C43.0006 41.2331 42.9213 40.9372 42.8264 40.5831C39.7543 42.4098 36.8081 42.4168 34.1295 40.1242C31.9367 38.2472 31.2078 35.7311 32.0703 32.9834C33.172 29.4983 35.7805 27.9596 39.4551 27.9835ZM36.3729 56.208C38.1855 59.237 38.2085 62.1556 35.978 64.8331C34.1827 66.991 31.7504 67.7806 29.043 67.0295C25.3943 66.0159 23.7704 63.3808 23.7653 59.6074C19.9888 60.6194 16.294 61.6069 12.6037 62.6011C11.8639 62.7993 12.0881 63.345 12.2161 63.8228C13.0153 66.8245 13.8218 69.8242 14.6258 72.8246C14.8533 73.6735 15.1355 74.513 15.2834 75.3755C15.355 75.7879 15.3195 76.4317 15.064 76.6328C14.7533 76.8798 14.1603 76.7917 13.6892 76.8088C13.5114 76.8149 13.334 76.696 13.1494 76.6571C11.2335 76.2502 9.58585 76.7568 8.33925 78.2555C7.08006 79.7654 6.88132 81.5267 7.70342 83.2848C8.50653 85.0011 9.94538 85.9466 11.8779 86.0085C13.4905 86.0599 14.7587 85.3691 15.8042 84.1582C16.5481 83.2959 17.4276 83.5126 17.7728 84.5873C17.85 84.8266 17.9077 85.0711 17.9727 85.3137C18.9067 88.7992 19.8383 92.2853 20.7748 95.7702C21.0868 96.9344 21.1618 96.9715 22.3461 96.6567C23.4673 96.3589 24.5897 96.0555 25.7103 95.7552C27.7987 95.1956 29.8846 94.6366 32.0846 94.047C30.7956 92.0891 30.3952 90.0516 31.0732 87.8863C31.7621 85.6843 33.212 84.1779 35.3979 83.3998C37.4112 82.6861 39.3638 82.8517 41.1839 83.9394C43.6851 85.4347 44.7468 87.7473 44.6361 90.6809C47.7844 89.8372 50.8139 89.0253 53.8434 88.2135C55.4782 87.7754 55.4806 87.7747 55.0516 86.1739C52.282 75.8387 49.5117 65.501 46.7421 55.1658C46.6608 54.8627 46.5553 54.566 46.4886 54.2589C46.3801 53.7472 46.0982 53.607 45.5998 53.7457C44.4824 54.0582 43.3536 54.3373 42.2323 54.6352C40.2998 55.1556 38.3643 55.6743 36.3729 56.208Z"/>
</mask>
<path d="M4.9606 81.2277C5.00342 81.0576 5.06516 80.8903 5.08663 80.7182C5.53648 76.906 8.35795 74.3769 12.1907 74.3507C12.3746 74.3482 12.558 74.3146 12.8268 74.2894C12.7352 73.9474 12.6552 73.6491 12.5759 73.3532C11.9259 70.9276 11.2444 68.5105 10.6387 66.0757C10.3479 64.9032 10.2712 63.6759 9.9616 62.511C9.6535 61.3613 9.09137 60.2822 8.77842 59.1338C6.51233 50.7747 4.28262 42.4058 2.04078 34.0401C1.48828 31.9784 0.928508 29.9186 0.386363 27.8568C-0.155782 25.7949 0.576865 24.5223 2.62999 23.9669C5.56714 23.1694 8.50884 22.3889 11.4486 21.6011C11.7785 21.5127 12.1083 21.4243 12.5085 21.317C10.6491 18.0743 10.6827 15.008 13.2941 12.3064C15.3069 10.2228 17.8524 9.68105 20.5498 10.7052C23.7738 11.9288 25.1651 14.4625 25.105 17.944C26.5021 17.5696 27.8555 17.2069 29.2114 16.8436C30.9093 16.3886 32.6601 16.0728 34.2848 15.432C35.4344 14.9783 36.6371 15.4984 37.771 14.8305C38.7697 14.2405 39.9807 13.9862 41.1185 13.6631C43.4143 13.014 45.722 12.419 48.0263 11.8015C48.327 11.7209 48.6278 11.6403 48.9941 11.5422C47.1316 8.3367 47.1456 5.26527 49.7381 2.56094C51.7638 0.44787 54.3347 -0.1059 57.0729 0.954122C60.2489 2.1828 61.6341 4.68427 61.5881 8.16983C61.9641 8.06908 62.2818 7.98393 62.5995 7.89878C65.5102 7.11878 68.4177 6.33701 71.329 5.55944C73.583 4.95802 74.8111 5.65061 75.4151 7.8753C76.1939 10.7525 76.9606 13.6329 77.7321 16.512C77.8205 16.8418 77.9089 17.1717 78.0214 17.5913C81.3992 15.6541 84.615 15.7022 87.2821 18.5829C89.165 20.613 89.721 23.1729 88.6006 25.8311C87.2909 28.9378 84.7763 30.2252 81.391 30.1653C81.6627 31.1792 81.9194 32.1373 82.1762 33.0953C82.7774 35.339 83.4029 37.5761 83.9647 39.8277C84.1346 40.5101 84.1164 41.2377 84.191 41.943C84.2105 42.1224 84.2392 42.307 84.3065 42.471C84.6373 43.2688 85.0742 44.0357 85.3104 44.8589C86.0768 47.5444 86.7729 50.2487 87.4957 52.9459C87.5835 53.2734 87.6712 53.6008 87.7934 54.0568C90.289 52.4651 92.7943 52.2487 95.3444 53.6061C97.463 54.7308 98.4422 56.6288 98.7997 58.9039C99.1483 61.1164 98.374 62.9904 96.8622 64.5472C95.3402 66.1145 93.4044 66.7294 91.145 66.5732C91.9425 69.5493 92.7134 72.426 93.4837 75.3003C93.6052 75.7539 93.7347 76.2079 93.8465 76.6641C94.3121 78.5567 93.5719 79.8495 91.6784 80.37C88.6219 81.2072 85.5576 82.0154 82.4966 82.8357C82.2589 82.8994 82.0188 82.9637 81.7229 83.043C82.0436 83.7838 82.4072 84.4325 82.612 85.1289C83.5921 88.4565 82.3206 91.5503 79.3039 93.3024C79.2002 93.3614 79.1222 93.4681 79.0328 93.5519C78.1839 93.7794 77.335 94.0069 76.486 94.2344C76.3102 94.2087 76.1377 94.1665 75.9609 94.1567C73.288 94.0099 71.1556 92.8629 69.9505 90.4614C69.3556 89.2793 69.2094 87.8705 68.8409 86.4952C66.9004 87.0152 64.7974 87.6463 62.6627 88.13C60.8223 88.5478 59.0764 89.5512 57.0819 89.142C56.9915 89.1247 56.8761 89.257 56.7673 89.3069C56.0075 89.6535 55.2772 90.091 54.4844 90.3242C52.3497 90.9535 50.1867 91.4967 48.0371 92.0702C46.5526 92.468 45.0754 92.8925 43.5812 93.2539C42.3994 93.5394 41.7624 92.821 42.1144 91.6608C42.16 91.5108 42.2313 91.3695 42.2683 91.2166C42.7418 89.2777 42.2881 87.5847 40.7571 86.3051C39.2367 85.0357 37.505 84.7823 35.6714 85.6428C32.5403 87.1136 32.0189 91.1243 34.6017 93.5545C34.9421 93.874 35.263 94.4795 35.198 94.8869C35.1411 95.2375 34.5596 95.6481 34.1365 95.7667C30.2691 96.8473 26.3907 97.8866 22.5081 98.9011C20.6712 99.3803 19.3668 98.6068 18.8622 96.7819C18.2933 94.7271 17.753 92.6622 17.2011 90.6029C16.8722 89.3756 16.5433 88.1483 16.191 86.8336C14.6706 87.8442 13.1226 88.3344 11.399 88.1698C8.96774 87.9348 7.22678 86.6283 5.88684 84.6841C5.57809 83.5319 5.26934 82.3798 4.9606 81.2277ZM53.0485 70.1037C54.4538 75.3477 55.8573 80.5947 57.265 85.8381C57.6303 87.2012 57.6376 87.1993 58.9595 86.845C62.6584 85.8538 66.3528 84.8456 70.0628 83.8956C70.4789 83.7893 71.1425 83.8792 71.4054 84.1519C71.6608 84.4162 71.6012 85.0379 71.584 85.4975C71.5479 86.3911 71.2588 87.3109 71.3975 88.168C71.7261 90.2091 73.5115 91.7298 75.55 91.9349C77.5562 92.1356 79.5615 90.9847 80.3631 89.1736C81.2156 87.2424 80.7151 85.0835 79.1555 83.5907C78.8094 83.2597 78.3975 82.6343 78.5008 82.2921C78.6259 81.8764 79.2218 81.4515 79.6928 81.3175C83.3788 80.2778 87.0836 79.3083 90.7825 78.3171C91.9613 78.0012 92.001 77.936 91.6845 76.7547C90.7041 73.0867 89.7013 69.422 88.7573 65.7442C88.6393 65.2845 88.6369 64.5286 88.9079 64.3078C89.2359 64.0379 89.9517 64.0411 90.4303 64.178C92.8284 64.8612 95.2504 63.8586 96.2807 61.6691C97.2605 59.5919 96.5686 57.0295 94.6837 55.7486C92.6552 54.3684 90.0881 54.7131 88.3581 56.513C88.0186 56.8665 87.3806 57.2117 86.9614 57.1317C86.6137 57.0662 86.2572 56.4053 86.1289 55.9457C85.1097 52.2881 84.1165 48.6208 83.1774 44.9417C82.9407 44.0198 82.5547 43.8113 81.6519 44.0611C78.0234 45.0724 74.3857 46.0499 70.7338 46.9739C70.1909 47.1116 69.397 47.0982 69.0257 46.7895C68.7446 46.5555 68.8198 45.7008 68.9615 45.1819C69.5745 42.9196 68.5194 40.4571 66.4411 39.4828C64.342 38.4985 61.7919 39.1689 60.506 41.0447C59.1225 43.0611 59.3916 45.6173 61.1709 47.28C61.601 47.6821 62.2823 48.0611 61.9071 48.718C61.6539 49.1602 61.0782 49.5536 60.5701 49.695C56.9157 50.7263 53.2459 51.7097 49.5687 52.6561C48.7002 52.8785 48.5033 53.2302 48.7415 54.0997C50.2055 59.4268 51.6185 64.7675 53.0485 70.1037ZM71.373 44.5279C74.6571 43.6478 77.8692 42.7896 81.0769 41.9248C82.2065 41.6195 82.2467 41.5463 81.9495 40.4275C80.9444 36.6673 79.9182 32.9153 78.9543 29.144C78.8493 28.7328 78.9501 28.1001 79.217 27.8154C79.4414 27.5759 80.048 27.6473 80.4814 27.6637C81.4347 27.6994 82.4225 27.9807 83.3346 27.8142C85.3138 27.458 86.7736 25.6396 86.9475 23.6302C87.1221 21.5946 86.0056 19.7178 84.1105 18.8739C82.2348 18.035 80.0864 18.5354 78.6132 20.0715C78.2822 20.4175 77.6619 20.8385 77.3245 20.734C76.9167 20.6093 76.5089 20.0088 76.3773 19.5372C75.3568 15.9136 74.4037 12.2695 73.4262 8.63184C73.1045 7.4312 73.043 7.39569 71.8812 7.70704C68.2131 8.68741 64.5522 9.69446 60.8718 10.6287C60.3629 10.7573 59.6002 10.7147 59.2588 10.4111C58.9861 10.1696 59.0469 9.36816 59.1867 8.88094C59.8331 6.60716 58.8337 4.15828 56.7699 3.1411C54.6698 2.10505 52.0491 2.77356 50.7544 4.67513C49.3552 6.72952 49.6548 9.29314 51.5032 10.9712C51.9226 11.3527 52.5235 11.7324 52.1739 12.3487C51.9337 12.7718 51.4043 13.1633 50.9277 13.2962C47.2436 14.3328 43.5453 15.3265 39.8353 16.2765C38.9619 16.5002 38.7477 16.8357 38.9927 17.7112C40.0059 21.3367 40.9542 24.9821 41.9364 28.6185C42.1015 29.2345 42.3709 29.9683 41.7394 30.3377C41.319 30.5829 40.6108 30.5206 40.0912 30.3764C37.8288 29.753 35.3887 30.8047 34.4068 32.9032C33.3996 35.0527 34.0794 37.5509 36.0383 38.8847C37.9596 40.1948 40.5696 39.8646 42.2188 38.18C42.59 37.7997 43.258 37.3529 43.6551 37.4571C44.0717 37.5664 44.4817 38.2521 44.6267 38.7643C45.6658 42.4479 46.6522 46.1481 47.6144 49.8548C47.811 50.608 48.1296 50.7879 48.874 50.5779C51.2898 49.8916 53.7194 49.2665 56.145 48.6165C57.006 48.3857 57.8695 48.1543 58.7524 47.9177C56.9552 44.4998 57.1048 41.6338 59.1455 39.2567C60.9545 37.1497 63.9223 36.331 66.5686 37.2129C69.5645 38.2064 71.1162 40.5333 71.373 44.5279ZM39.4551 27.9835C38.5698 24.68 37.6754 21.449 36.852 18.2017C36.6282 17.3179 36.2297 17.2376 35.4409 17.4567C31.7819 18.4711 28.1158 19.4587 24.4361 20.3954C23.9223 20.5253 23.2309 20.487 22.7887 20.2337C22.1343 19.858 22.5189 19.1882 22.6928 18.6242C23.4133 16.3072 22.3688 13.9328 20.1777 12.8769C18.0971 11.8746 15.5235 12.5929 14.1987 14.5468C12.9131 16.4433 13.2664 19.0809 14.9576 20.7257C15.323 21.0801 15.7799 21.7376 15.6682 22.0873C15.53 22.5221 14.8896 22.9459 14.384 23.0866C10.7296 24.1179 7.05634 25.0788 3.38893 26.0616C2.22225 26.3743 2.18431 26.4365 2.50476 27.6322C5.33697 38.2106 8.1716 48.7884 11.0087 59.3655C11.333 60.5758 11.3743 60.6038 12.5538 60.2903C16.5257 59.2311 20.4898 58.1428 24.4727 57.1248C24.9858 56.9925 25.7477 57.0223 26.0963 57.3241C26.3732 57.5618 26.3265 58.3673 26.1891 58.8538C25.8031 60.2364 25.931 61.5383 26.647 62.7451C27.6462 64.4271 29.1705 65.2353 31.1343 65.0548C33.1772 64.8687 34.5875 63.7577 35.2261 61.8239C35.863 59.8932 35.3315 58.2107 33.8916 56.7663C33.5397 56.4135 33.1355 55.7783 33.2356 55.3953C33.3409 54.9927 33.973 54.5867 34.4531 54.4477C37.5296 53.5686 40.6332 52.7811 43.7175 51.9312C45.9687 51.3097 45.7926 51.7391 45.1947 49.44C44.5075 46.7982 43.7864 44.1656 43.0799 41.529C43.0006 41.2331 42.9213 40.9372 42.8264 40.5831C39.7543 42.4098 36.8081 42.4168 34.1295 40.1242C31.9367 38.2472 31.2078 35.7311 32.0703 32.9834C33.172 29.4983 35.7805 27.9596 39.4551 27.9835ZM36.3729 56.208C38.1855 59.237 38.2085 62.1556 35.978 64.8331C34.1827 66.991 31.7504 67.7806 29.043 67.0295C25.3943 66.0159 23.7704 63.3808 23.7653 59.6074C19.9888 60.6194 16.294 61.6069 12.6037 62.6011C11.8639 62.7993 12.0881 63.345 12.2161 63.8228C13.0153 66.8245 13.8218 69.8242 14.6258 72.8246C14.8533 73.6735 15.1355 74.513 15.2834 75.3755C15.355 75.7879 15.3195 76.4317 15.064 76.6328C14.7533 76.8798 14.1603 76.7917 13.6892 76.8088C13.5114 76.8149 13.334 76.696 13.1494 76.6571C11.2335 76.2502 9.58585 76.7568 8.33925 78.2555C7.08006 79.7654 6.88132 81.5267 7.70342 83.2848C8.50653 85.0011 9.94538 85.9466 11.8779 86.0085C13.4905 86.0599 14.7587 85.3691 15.8042 84.1582C16.5481 83.2959 17.4276 83.5126 17.7728 84.5873C17.85 84.8266 17.9077 85.0711 17.9727 85.3137C18.9067 88.7992 19.8383 92.2853 20.7748 95.7702C21.0868 96.9344 21.1618 96.9715 22.3461 96.6567C23.4673 96.3589 24.5897 96.0555 25.7103 95.7552C27.7987 95.1956 29.8846 94.6366 32.0846 94.047C30.7956 92.0891 30.3952 90.0516 31.0732 87.8863C31.7621 85.6843 33.212 84.1779 35.3979 83.3998C37.4112 82.6861 39.3638 82.8517 41.1839 83.9394C43.6851 85.4347 44.7468 87.7473 44.6361 90.6809C47.7844 89.8372 50.8139 89.0253 53.8434 88.2135C55.4782 87.7754 55.4806 87.7747 55.0516 86.1739C52.282 75.8387 49.5117 65.501 46.7421 55.1658C46.6608 54.8627 46.5553 54.566 46.4886 54.2589C46.3801 53.7472 46.0982 53.607 45.5998 53.7457C44.4824 54.0582 43.3536 54.3373 42.2323 54.6352C40.2998 55.1556 38.3643 55.6743 36.3729 56.208Z" fill="#7687C6" stroke="#7687C6" stroke-width="0.734008" mask="url(#path-1-inside-1_2520_18364)"/>
</svg>
