<svg width="575" height="392" viewBox="0 0 575 392" fill="none" xmlns="http://www.w3.org/2000/svg">
<g clip-path="url(#clip0_2849_649)">
<g clip-path="url(#clip1_2849_649)">
<circle r="44.8824" transform="matrix(-1 0 0 1 155.883 176.706)" fill="#7687C6"/>
<path d="M213.307 209.913C213.28 209.873 213.255 209.834 213.231 209.798C213.212 209.768 213.194 209.741 213.176 209.714C213.086 209.576 213.015 209.472 212.941 209.383C212.988 209.389 213.035 209.395 213.082 209.4C213.249 209.421 213.417 209.441 213.587 209.462L213.307 209.913ZM213.307 209.913C213.516 209.938 213.728 209.964 213.943 209.991L213.307 209.913ZM114.49 172.816L114.485 172.781V172.745V172.733V172.721V172.709V172.697V172.685V172.673V172.661V172.649V172.637V172.625V172.613V172.601V172.589V172.577V172.565V172.552V172.54V172.528V172.516V172.504V172.492V172.48V172.468V172.456V172.444V172.432V172.42V172.408V172.396V172.384V172.372V172.36V172.348V172.336V172.324V172.312V172.3V172.287V172.275V172.263V172.251V172.239V172.227V172.215V172.203V172.191V172.179V172.167V172.155V172.143V172.131V172.119V172.107V172.095V172.083V172.071V172.059V172.047V172.035V172.023V172.01V171.998V171.986V171.974V171.962V171.95V171.938V171.926V171.914V171.902V171.89V171.878V171.866V171.854V171.842V171.83V171.818V171.806V171.794V171.782V171.77V171.758V171.746V171.733V171.721V171.709V171.697V171.685V171.673V171.661V171.649V171.637V171.625V171.613V171.601V171.589V171.577V171.565V171.553V171.541V171.529V171.517V171.505V171.493V171.481V171.469V171.456V171.444V171.432V171.42V171.408V171.396V171.384V171.372V171.36V171.348V171.336V171.324V171.312V171.3V171.288V171.276V171.264V171.252V171.24V171.228V171.216V171.204V171.191V171.179V171.167V171.155V171.143V171.131V171.119V171.107V171.095V171.083V171.071V171.059V171.047V171.035V171.023V171.011V170.999V170.987V170.975V170.963V170.951V170.939V170.927V170.914V170.902V170.89V170.878V170.866V170.854V170.842V170.83V170.818V170.806V170.794V170.782V170.77V170.758V170.746V170.734V170.722V170.71V170.698V170.686V170.674V170.662V170.65V170.637V170.625V170.613V170.601V170.589V170.577V170.565V170.553V170.541V170.529V170.517V170.505V170.493V170.481V170.469V170.457V170.445V170.433V170.421V170.409V170.397V170.385V170.373V170.36V170.348V170.336V170.324V170.312V170.3V170.288V170.276V170.264V170.252V170.24V170.228V170.216V170.204V170.192V170.18V170.168V170.156V170.144V170.132V170.12V170.108V170.096V170.083V170.071V170.059V170.047V170.035V170.023V170.011V169.999V169.987V169.975V169.963V169.951V169.939V169.927V169.915V169.903V169.891V169.879V169.867V169.855V169.843V169.831V169.818V169.806V169.794V169.782V169.77V169.758V169.746V169.734V169.722V169.71V169.698V169.686V169.674V169.662V169.65V169.638V169.626V169.614V169.602V169.59V169.578V169.566V169.554V169.541V169.529V169.517V169.505V169.493V169.481V169.469V169.457V169.445V169.433V169.421V169.409V169.397V169.385V169.373V169.361V169.349V169.337V169.325V169.313V169.301V169.289V169.277V169.264V169.252V169.24V169.228V169.216V169.204V169.192V169.18V169.168V169.156V169.144V169.132V169.12V169.108V169.096V169.084V169.072V169.06V169.048V169.036V169.024V169.012V169V168.987V168.975V168.963V168.951V168.939V168.927V168.915V168.903V168.891V168.879V168.867V168.855V168.843V168.831V168.819V168.807V168.795V168.783V168.771V168.759V168.747V168.735V168.722V168.71V168.698V168.686V168.674V168.662V168.65V168.638V168.626V168.614V168.602V168.59V168.578V168.566V168.554V168.542V168.53V168.518V168.506V168.494V168.482V168.47V168.458V168.445V168.433V168.421V168.409V168.397V168.385V168.373V168.361V168.349V168.337V168.325V168.313V168.301V168.289V168.277V168.265V168.253V168.241V168.229V168.217V168.205V168.193V168.181V168.168V168.156V168.144V168.132V168.12V168.108V168.096V168.084V168.072V168.06V168.048V168.036V168.024V168.012V168V167.988V167.976V167.964V167.952V167.94V167.928V167.916V167.904V167.891V167.879V167.867V167.855V167.843V167.831V167.819V167.807V167.795V167.783V167.771V167.759V167.747V167.735V167.723V167.711V167.699V167.687V167.675V167.663V167.651V167.639V167.626V167.614V167.602V167.59V167.578V167.566V167.554V167.542V167.53V167.518V167.506V167.494V167.482V167.47V167.458V167.446V167.434V167.422V167.41V167.398V167.386V167.374V167.362V167.349V167.337V167.325V167.313V167.301V167.289V167.277V167.265V167.253V167.241V167.229V167.217V167.205V167.193V167.181V167.169V167.157V167.145V167.133V167.121V167.109V167.097V167.085V167.072V167.06V167.048V167.036V167.024V167.012V167V166.988V166.976V166.964V166.952V166.94V166.928V166.916V166.904V166.892V166.88V166.868V166.856V166.844V166.832V166.82V166.808V166.795V166.783V166.771V166.759V166.747V166.735V166.723V166.711V166.699V166.687V166.675V166.663V166.651V166.639V166.627V166.615V166.603V166.591V166.579V166.54L114.491 166.501C114.519 166.328 114.554 166.156 114.587 165.994L114.588 165.99C114.622 165.823 114.653 165.668 114.678 165.515C114.805 164.726 114.917 163.922 115.029 163.111C115.289 161.239 115.553 159.333 116.025 157.497C121.048 137.742 137.178 123.451 156.964 121.263C169.395 119.879 180.729 123.094 190.671 130.845L190.671 130.845C209.232 145.322 214.793 170.372 204.424 191.756L204.424 191.756L204.419 191.766C204.307 191.984 204.287 192.111 204.294 192.2C204.301 192.289 204.34 192.409 204.484 192.601C207.266 196.302 210.022 200.002 212.777 203.702L212.779 203.705C213.414 204.572 214.062 205.437 214.712 206.305C215.692 207.612 216.676 208.926 217.625 210.26L217.625 210.26L217.627 210.264C217.807 210.522 217.942 210.875 218.008 211.2C218.042 211.365 218.062 211.541 218.056 211.71C218.05 211.87 218.018 212.07 217.909 212.245L217.908 212.247C217.693 212.589 217.324 212.75 217.047 212.844C216.899 212.895 216.746 212.936 216.609 212.973L216.581 212.98C216.45 213.015 216.336 213.045 216.231 213.079L216.198 213.09L216.164 213.096C216.006 213.123 215.858 213.106 215.754 213.09C215.699 213.081 215.647 213.071 215.604 213.062L215.591 213.06C215.555 213.053 215.527 213.047 215.501 213.042L214.021 212.843C205.961 211.759 197.924 210.678 189.863 209.646C189.523 209.609 189.051 209.752 188.721 209.977L188.72 209.978C177.356 217.693 164.858 220.415 151.604 217.09L151.603 217.089C141.883 214.631 134.002 210.191 127.969 203.851C121.938 197.512 117.777 189.297 115.46 179.322L115.46 179.32C115.133 177.885 114.949 176.393 114.768 174.926C114.68 174.214 114.593 173.507 114.49 172.816ZM187.002 207.154C187.949 206.507 188.872 206.149 190.124 206.336L206.294 167.569C205.207 150.566 197.401 137.673 182.813 129.617C165.486 120.049 145.093 123.214 131.008 137.21C123.595 144.615 119.23 153.64 118.038 164.193C115.575 186.094 128.128 206.236 148.579 212.877L148.579 212.877C162.182 217.297 175.055 215.268 187.002 207.154ZM187.272 207.552C175.208 215.746 162.18 217.802 148.431 213.334L187.272 207.552Z" fill="#323232" stroke="#323232" stroke-width="0.961765"/>
<path d="M159.446 179.688L159.457 179.697L159.468 179.705C160.78 180.68 162.336 180.968 163.965 180.729C165.537 180.497 166.903 179.812 167.899 178.596C168.954 177.31 169.263 175.738 169.021 174.095L168.81 172.656C168.739 172.175 168.836 171.633 169.294 170.959C169.881 170.098 170.644 169.249 171.6 168.417C172.731 167.452 173.833 166.406 174.907 165.281C176.138 163.991 177.077 162.418 177.749 160.602L177.749 160.602L177.753 160.591C178.466 158.623 178.623 156.486 178.29 154.225C177.662 149.957 175.273 146.589 171.354 144.162C167.462 141.733 163.096 140.89 158.348 141.589C154.036 142.223 150.372 144.07 147.427 147.127C144.411 150.233 143.105 153.927 143.661 158.079L143.662 158.091L143.664 158.103C143.899 159.699 144.636 161.09 146.031 161.955L146.045 161.964L146.06 161.973C147.306 162.713 148.708 162.926 150.16 162.713C151.262 162.55 152.292 162.163 153.132 161.451C153.984 160.729 154.518 159.777 154.784 158.704L154.845 158.459L154.836 158.205C154.777 156.499 155.244 155.123 156.195 153.968C157.191 152.783 158.412 152.102 159.934 151.878C161.506 151.646 162.821 151.966 163.995 152.808L164.002 152.813L164.008 152.817C165.194 153.653 165.873 154.755 166.091 156.236C166.244 157.276 166.088 158.199 165.637 159.064C165.093 160.108 164.39 161.055 163.521 161.909L160.521 164.854C159.353 165.971 158.416 167.286 157.707 168.782C156.921 170.409 156.671 172.157 156.939 173.973L157.192 175.693C157.43 177.311 158.158 178.7 159.446 179.688ZM164.823 201.293L164.831 201.299L164.839 201.304C166.429 202.405 168.217 202.844 170.116 202.565C172.016 202.285 173.597 201.349 174.783 199.827C175.986 198.283 176.474 196.492 176.19 194.562C175.904 192.618 174.925 191.028 173.321 189.891C171.747 188.776 169.963 188.335 168.063 188.614C166.147 188.896 164.551 189.829 163.36 191.357C162.152 192.908 161.673 194.713 161.959 196.657C162.243 198.587 163.226 200.161 164.823 201.293Z" stroke="#323232" stroke-width="3.63333"/>
</g>
<path d="M206.89 465.629C206.89 465.629 154.933 335.757 302.372 265.874L366.284 238.028C366.284 238.028 474.794 191.013 524.953 205.839C524.953 205.839 592.455 225.161 619.869 248.947L567.031 340.642L519.141 316.005L602.012 507.483C602.012 507.483 524.164 612.089 331.26 647.736L265.714 465.629L259.971 484.61C259.971 484.61 220.229 486.992 206.89 465.629Z" fill="#FFD27C"/>
<path d="M513.965 197.86L513.973 197.863L513.982 197.865L514.562 195.839C513.982 197.865 513.982 197.865 513.982 197.866L513.984 197.866L513.993 197.869L514.028 197.879L514.169 197.92C514.296 197.956 514.484 198.011 514.732 198.084C515.228 198.23 515.961 198.447 516.906 198.733C518.794 199.305 521.525 200.148 524.89 201.235C531.62 203.41 540.877 206.556 550.984 210.441C570.635 217.994 593.195 228.23 606.773 239.42L555.817 327.848L509.715 304.131L504.476 301.436L506.816 306.842L589.192 497.176C589.147 497.233 589.1 497.292 589.051 497.353C588.449 498.109 587.534 499.231 586.298 500.677C583.825 503.569 580.066 507.755 574.949 512.898C564.716 523.182 549.05 537.291 527.373 552.517C484.289 582.779 417.438 617.472 322.245 635.336L257.307 454.915L255.15 448.923L253.306 455.018L247.999 472.558C247.935 472.56 247.87 472.561 247.802 472.563C246.72 472.586 245.15 472.595 243.221 472.541C239.359 472.432 234.084 472.069 228.413 471.055C216.995 469.013 204.595 464.443 198.391 454.676C198.373 454.629 198.351 454.573 198.327 454.508C198.238 454.273 198.106 453.917 197.938 453.447C197.603 452.505 197.127 451.106 196.57 449.293C195.457 445.667 194.022 440.395 192.755 433.844C190.218 420.736 188.358 402.554 191.041 382.234C196.389 341.729 219.82 292.421 292.855 257.793L356.733 229.962L356.736 229.96L356.749 229.954L356.806 229.93C356.857 229.908 356.934 229.875 357.036 229.831C357.24 229.744 357.544 229.614 357.945 229.445C358.745 229.107 359.929 228.612 361.454 227.987C364.505 226.736 368.923 224.964 374.383 222.883C385.305 218.72 400.384 213.326 417.018 208.395C433.658 203.462 451.811 199.006 468.891 196.703C486.016 194.394 501.851 194.28 513.965 197.86Z" stroke="#323232" stroke-width="4.21595"/>
<path d="M258.844 441.175C258.844 441.175 244.662 394.117 226.099 369.736" stroke="#323232" stroke-width="4.21595" stroke-miterlimit="10" stroke-linecap="round" stroke-linejoin="round"/>
<path d="M290.359 258.747C296.94 269.287 311.752 291.477 345.88 279.183C379.887 266.965 385.329 243.286 384.552 225.798" stroke="#323232" stroke-width="4.21595" stroke-miterlimit="10" stroke-linecap="round" stroke-linejoin="round"/>
<path d="M507.102 303.067L482 276.952" stroke="#323232" stroke-width="4.21595" stroke-miterlimit="10" stroke-linecap="round" stroke-linejoin="round"/>
<path d="M507.103 303.067L501.971 284.278" stroke="#323232" stroke-width="4.21595" stroke-miterlimit="10" stroke-linecap="round" stroke-linejoin="round"/>
<path d="M563.951 319.818C602.393 346.194 684.513 403.683 705.46 422.635C726.407 441.588 742.442 459.243 747.841 465.701" stroke="#323232" stroke-width="4.21595" stroke-linecap="round" stroke-linejoin="round"/>
<path d="M295.69 237.663L295.204 237.135L294.514 237.016C294.513 237.016 294.512 237.016 294.511 237.016C294.511 237.016 294.51 237.015 294.51 237.015C294.505 237.014 294.496 237.013 294.483 237.01C294.447 237.002 294.381 236.987 294.284 236.962C294.092 236.913 293.78 236.824 293.362 236.677C292.526 236.383 291.259 235.856 289.652 234.941C286.441 233.114 281.845 229.724 276.606 223.514C266.175 211.151 253.174 187.582 243.57 142.917C243.578 142.903 243.585 142.889 243.593 142.875C243.834 142.434 244.229 141.762 244.821 140.894C246.005 139.16 247.98 136.643 251.088 133.643C257.302 127.644 268.075 119.688 286.171 112.203L286.173 112.202C304.205 104.714 317.942 103.544 327.083 104.191C331.659 104.515 335.102 105.295 337.372 105.98C338.507 106.323 339.35 106.641 339.896 106.867C339.99 106.906 340.076 106.943 340.152 106.976C361.801 142.333 367.86 167.269 368.594 183.232C368.962 191.254 367.987 197.032 366.953 200.755C366.435 202.619 365.901 203.973 365.51 204.841C365.314 205.275 365.154 205.587 365.049 205.782C365.034 205.81 365.02 205.835 365.007 205.858C364.975 205.915 364.951 205.958 364.935 205.985C364.924 206.004 364.917 206.016 364.914 206.021C364.914 206.021 364.914 206.021 364.914 206.021L364.913 206.022L364.499 206.676L364.615 207.451L367.007 223.465C367.007 223.48 367.008 223.498 367.008 223.518C367.009 223.559 367.01 223.608 367.011 223.664C367.015 223.875 367.017 224.196 367.01 224.613C366.997 225.446 366.947 226.664 366.801 228.163C366.509 231.166 365.833 235.271 364.307 239.68C361.263 248.474 354.877 258.405 341.369 263.396C330.628 267.36 322.133 264.084 316.193 259.731C313.204 257.541 310.885 255.087 309.311 253.173C308.527 252.219 307.933 251.407 307.54 250.84C307.344 250.557 307.198 250.336 307.104 250.189C307.057 250.116 307.023 250.062 307.001 250.028L306.979 249.992L306.977 249.989L306.976 249.987L306.976 249.986L306.976 249.986L306.867 249.806L306.722 249.648L295.69 237.663Z" fill="#F94E1E" stroke="#323232" stroke-width="4.21595"/>
<path d="M350.912 99.1677L350.911 99.1694L350.911 99.1699L350.911 99.1703L350.741 99.7124L350.869 100.269L360.487 142.207L355.374 147.335L330.599 107.653L329.997 106.688L328.86 106.661L302.417 106.043L305.29 84.4138L305.305 84.3006L305.308 84.1931C305.308 84.1942 305.308 84.1941 305.308 84.1929L305.308 84.1924L305.309 84.1724C305.31 84.1499 305.312 84.11 305.315 84.054C305.323 83.9418 305.337 83.7654 305.363 83.5343C305.415 83.0713 305.515 82.3936 305.705 81.5767C306.086 79.9354 306.819 77.7801 308.215 75.6757C310.914 71.6082 316.345 67.3314 327.763 67.9103L327.763 67.9103C336.224 68.3388 341.712 70.5837 345.274 73.4984C348.828 76.4072 350.661 80.1448 351.518 83.9335C352.38 87.7473 352.238 91.5619 351.86 94.4646C351.672 95.907 351.43 97.1018 351.236 97.9292C351.139 98.3423 351.055 98.6624 350.996 98.8741C350.967 98.98 350.944 99.0586 350.93 99.1082L350.914 99.1606L350.912 99.1677Z" fill="#323232" stroke="#323232" stroke-width="4.21595"/>
<path d="M245.072 144.431C243.091 145.15 243.091 145.15 243.091 145.15L243.091 145.152L243.093 145.157L243.101 145.178L243.131 145.261L243.248 145.583L243.693 146.809C244.076 147.865 244.625 149.374 245.283 151.186C246.601 154.811 248.36 159.648 250.128 164.499C251.896 169.35 253.673 174.217 255.026 177.899C255.703 179.74 256.274 181.288 256.686 182.391C256.891 182.941 257.058 183.386 257.18 183.702C257.24 183.859 257.292 183.993 257.333 184.095C257.353 184.145 257.375 184.198 257.396 184.247C257.407 184.271 257.422 184.306 257.44 184.343L257.441 184.346C257.451 184.367 257.497 184.465 257.566 184.575C258.155 185.518 258.518 186.402 258.705 187.124C257.917 186.359 256.877 185.074 255.619 183.058C252.724 178.422 248.872 170.525 245.71 163.695C244.137 160.299 242.749 157.199 241.754 154.947C241.257 153.821 240.858 152.909 240.584 152.278C240.446 151.962 240.34 151.717 240.269 151.552L240.188 151.364L240.167 151.316L240.162 151.304L240.161 151.302L240.161 151.301C240.161 151.301 240.161 151.301 238.224 152.132L240.161 151.301L239.982 150.884L239.648 150.578C232.387 143.926 228.572 137.68 226.95 132.111C225.334 126.562 225.854 121.545 227.505 117.242C229.166 112.911 231.988 109.273 234.986 106.596C237.401 104.438 239.817 103.003 241.689 102.301L258.492 127.584L243.56 142.962L242.64 143.909L243.091 145.15L245.072 144.431ZM258.83 188.516C258.83 188.516 258.831 188.514 258.832 188.51C258.831 188.514 258.83 188.516 258.83 188.516Z" fill="#323232" stroke="#323232" stroke-width="4.21595"/>
<path d="M245.897 74.5648L245.898 74.5634C253.623 64.211 262.693 59.9199 271.464 59.1862C280.313 58.4462 289.062 61.3138 296.016 65.6515C299.067 67.5722 301.145 70.8353 302.484 74.9402C303.822 79.0421 304.356 83.7934 304.447 88.3787C304.538 92.9485 304.188 97.2578 303.813 100.433C303.626 102.017 303.433 103.312 303.288 104.207C303.267 104.338 303.247 104.46 303.228 104.573L255.502 128.678C254.925 127.515 254.118 125.846 253.187 123.799C251.298 119.642 248.91 113.948 246.895 107.773C244.876 101.582 243.261 94.9957 242.868 89.033C242.472 83.0201 243.34 77.9857 245.897 74.5648Z" fill="#323232" stroke="#323232" stroke-width="4.21595"/>
<path d="M255.987 183.193L255.991 183.199C260.813 189.495 262.462 194.866 262.943 198.567C263.185 200.426 263.135 201.885 263.031 202.851C263.026 202.896 263.021 202.941 263.016 202.984C261.757 202.989 260.296 202.403 258.61 201.072C256.412 199.336 254.207 196.608 252.232 193.483C250.27 190.379 248.61 187.006 247.462 184.091C246.888 182.635 246.453 181.319 246.172 180.231C245.879 179.097 245.794 178.361 245.811 178C245.845 177.293 246.059 177.204 246.128 177.175C246.132 177.174 246.135 177.172 246.138 177.171C246.39 177.056 247.053 176.955 248.231 177.305C250.528 177.986 253.598 180.051 255.987 183.193Z" stroke="#323232" stroke-width="4.21595"/>
<path d="M374.606 137.187C377.796 140.435 378.601 146.441 376.94 152.411C375.482 157.657 372.324 162.118 368.263 164.027C368.153 163.785 368.034 163.52 367.907 163.235C367.199 161.645 366.246 159.427 365.265 156.916C363.278 151.834 361.27 145.781 360.829 141.308C360.477 137.39 362.375 134.892 364.859 133.994C367.4 133.074 371.123 133.641 374.606 137.187Z" stroke="#323232" stroke-width="4.21595"/>
<path d="M265.026 204.747L265.026 204.746L265.026 204.746L264.983 204.572L264.91 204.406L253.334 177.959C254.102 178.306 255.221 179.078 256.676 180.772L256.676 180.772L256.682 180.779C260.456 185.138 267.02 192.22 273.591 198.442C276.875 201.552 280.192 204.477 283.184 206.746C286.089 208.95 288.963 210.754 291.306 211.296C300.515 213.425 311.456 211.839 321.391 208.99C331.371 206.127 340.613 201.907 346.554 198.486C350.518 196.208 353.014 192.475 354.581 188.192C356.142 183.925 356.838 178.965 357.123 173.972C357.409 168.966 357.287 163.8 357.151 159.101C357.14 158.743 357.13 158.389 357.12 158.037C356.993 153.72 356.881 149.9 357.069 146.881C357.209 144.67 357.462 142.989 357.749 141.72L365.865 167.164L365.94 167.4L366.068 167.612C373.928 180.646 375.654 189.652 374.5 196.144C373.354 202.591 369.282 207.053 364.32 210.831C357.606 215.941 346.036 220.904 332.937 225.414C319.908 229.901 305.618 233.859 293.638 237.032L293.634 237.033C289.005 238.269 285.025 237.101 281.51 234.505C277.925 231.857 274.872 227.745 272.379 223.28C269.9 218.84 268.057 214.201 266.831 210.652C266.22 208.883 265.766 207.396 265.466 206.355C265.316 205.835 265.204 205.427 265.131 205.152C265.094 205.015 265.067 204.91 265.05 204.842L265.031 204.766L265.026 204.749L265.026 204.747Z" fill="#323232" stroke="#323232" stroke-width="4.21595"/>
<path d="M295.72 154.27L298.678 176.875L312.829 171.025" stroke="#323232" stroke-width="4.21595" stroke-miterlimit="10" stroke-linecap="round" stroke-linejoin="round"/>
<path d="M311.134 195.266L311.134 195.266L311.14 195.254C311.778 194.085 313.352 192.354 315.693 190.311C317.974 188.321 320.797 186.193 323.711 184.224C326.626 182.255 329.594 180.47 332.156 179.157C334.821 177.791 336.753 177.091 337.713 177.008C337.986 176.984 338.566 177.05 339.524 177.374C340.439 177.683 341.528 178.167 342.747 178.795C345.182 180.05 347.962 181.791 350.614 183.58C353.258 185.364 355.733 187.166 357.549 188.525C357.973 188.842 358.361 189.135 358.706 189.397L353.493 195.089L337.753 184.734L335.783 183.438L334.716 185.539L334.716 185.539L334.715 185.539L334.715 185.54L334.715 185.54L334.71 185.55L334.686 185.596C334.664 185.638 334.63 185.703 334.585 185.788C334.494 185.958 334.357 186.208 334.181 186.518C333.829 187.139 333.321 187.992 332.705 188.914C331.426 190.829 329.849 192.778 328.352 193.764C326.653 194.883 323.971 195.465 321.452 195.723C320.24 195.847 319.149 195.889 318.362 195.899C317.969 195.904 317.655 195.901 317.443 195.897C317.337 195.895 317.256 195.893 317.204 195.891L317.148 195.89L317.137 195.889L317.137 195.889L317.136 195.889L317.136 195.889L317.135 195.889L314.273 195.764L315.007 198.535L319.387 215.072L312.848 219.51C312.807 219.32 312.765 219.123 312.722 218.919C312.261 216.723 311.682 213.74 311.208 210.578C310.732 207.405 310.369 204.105 310.324 201.259C310.301 199.837 310.359 198.571 310.508 197.515C310.66 196.435 310.891 195.704 311.134 195.266Z" fill="#323232" stroke="#323232" stroke-width="4.21595"/>
<path d="M263.086 156.455C263.086 156.455 262.909 146.875 273.804 148.805" stroke="#323232" stroke-width="4.21595" stroke-miterlimit="10" stroke-linecap="round" stroke-linejoin="round"/>
<path d="M314.8 131.019C314.8 131.019 318.289 122.981 326.7 129.054" stroke="#323232" stroke-width="4.21595" stroke-miterlimit="10" stroke-linecap="round" stroke-linejoin="round"/>
<path d="M273.811 164.085C274.183 163.68 275.459 162.747 277.583 162.256" stroke="#323232" stroke-width="5.05914" stroke-linecap="round"/>
<path d="M321.105 144.306C321.602 144.058 323.142 143.635 325.329 143.925" stroke="#323232" stroke-width="5.05914" stroke-linecap="round"/>
<path d="M385.695 260.624C385.715 260.646 385.735 260.669 385.756 260.69C388.993 264.101 390.154 265.827 390.386 267.872C390.635 270.057 389.877 272.939 387.778 278.714C383.239 283.633 376.648 290.831 371.149 296.847C368.341 299.919 365.817 302.683 363.994 304.68C363.083 305.678 362.347 306.485 361.839 307.041L361.255 307.682L361.103 307.849L361.064 307.891L361.055 307.902L361.052 307.905L361.052 307.905C361.051 307.905 361.051 307.906 362.609 309.326M385.695 260.624L295.072 265.345C295.074 265.349 295.075 265.351 295.076 265.353C295.373 265.941 295.379 266.635 295.09 267.228C294.928 267.56 294.707 268.418 294.553 270.017C294.407 271.537 294.339 273.505 294.346 275.877C294.362 280.617 294.679 286.823 295.217 294.005C296.292 308.361 298.238 326.476 300.357 344.268C302.476 362.054 304.766 379.493 306.527 392.487C307.407 398.983 308.154 404.367 308.682 408.127C308.946 410.007 309.154 411.481 309.297 412.484C309.368 412.986 309.423 413.37 309.46 413.629L309.502 413.922L309.513 413.995L309.515 414.014L309.516 414.018C309.516 414.019 309.516 414.02 307.43 414.32M385.695 260.624C385.359 260.238 385.095 260.124 384.921 260.082C384.73 260.037 384.449 260.035 384.029 260.175C383.116 260.48 381.981 261.312 380.773 262.534C380.651 262.658 380.53 262.783 380.411 262.91M385.695 260.624L380.411 262.91M362.609 309.326C360.728 310.278 360.728 310.278 360.729 310.279L360.731 310.283L360.739 310.3L360.775 310.371C360.807 310.434 360.855 310.53 360.918 310.658C361.045 310.912 361.234 311.293 361.479 311.793C361.969 312.793 362.684 314.27 363.582 316.171C365.378 319.975 367.903 325.475 370.813 332.25C376.636 345.804 383.992 364.439 390.141 384.786C396.295 405.147 401.214 427.141 402.209 447.433C403.206 467.765 400.249 486.094 390.965 499.396L390.965 499.396C379.455 515.898 365.479 525.765 349.686 530.558C333.852 535.364 316.04 535.114 296.834 531.104C288.789 529.424 279.541 525.173 270.361 519.675C261.207 514.192 252.243 507.544 244.786 501.185C237.304 494.803 231.446 488.805 228.43 484.642C227.681 483.609 227.143 482.736 226.801 482.036C226.723 481.877 226.659 481.735 226.608 481.61C226.652 481.616 226.699 481.623 226.749 481.631C227.516 481.757 228.29 481.451 228.763 480.834L228.764 480.833L228.767 480.83L228.779 480.814L228.831 480.746C228.877 480.687 228.947 480.597 229.039 480.478C229.223 480.242 229.497 479.892 229.852 479.443C230.564 478.544 231.602 477.248 232.906 475.664C235.515 472.494 239.181 468.178 243.409 463.591C251.943 454.333 262.505 444.267 271.216 440.045C280.996 435.305 290.38 429.28 297.299 424.459C300.764 422.045 303.622 419.925 305.616 418.406C306.614 417.647 307.396 417.038 307.93 416.617C308.197 416.406 308.402 416.243 308.542 416.131C308.611 416.076 308.664 416.033 308.701 416.004L308.742 415.97L308.753 415.961L308.757 415.959L308.757 415.958C308.758 415.958 308.758 415.957 307.43 414.32M362.609 309.326L361.051 307.906C360.461 308.553 360.333 309.497 360.728 310.278L362.609 309.326ZM307.43 414.32L308.758 415.957C309.334 415.49 309.622 414.754 309.516 414.02L307.43 414.32ZM380.411 262.91C379.221 264.629 377.881 266.396 376.388 268.215C375.686 269.07 374.444 269.237 373.541 268.598C372.639 267.959 372.383 266.732 372.956 265.786L374.759 266.878C372.956 265.786 372.956 265.785 372.956 265.785L372.957 265.784L372.959 265.78L372.965 265.77L372.986 265.736C373.004 265.707 373.029 265.666 373.062 265.614C373.126 265.511 373.22 265.364 373.339 265.181C373.577 264.815 373.92 264.302 374.345 263.706C375.052 262.717 376.009 261.467 377.113 260.265C381.263 254.204 383.152 249.159 383.395 244.915C383.691 239.734 381.553 235.389 377.272 231.452C375.187 230.551 373.582 230.801 372.227 231.563C370.878 236.051 368.381 241.091 364.138 245.968C363.505 246.696 362.458 246.901 361.597 246.466C360.736 246.031 360.28 245.066 360.49 244.125L362.548 244.584C360.49 244.125 360.49 244.124 360.491 244.123L360.491 244.121L360.492 244.116L360.496 244.1L360.508 244.047C360.519 244.002 360.534 243.939 360.553 243.858C360.593 243.696 360.651 243.466 360.729 243.177C360.883 242.601 361.116 241.791 361.432 240.838C362.059 238.946 363.034 236.431 364.41 234.061C365.468 232.239 366.835 230.377 368.568 228.975C369.59 224.879 369.477 221.603 369.064 220.025C368.939 219.549 368.503 218.78 367.648 218.026C366.82 217.295 365.71 216.681 364.412 216.411C361.978 215.906 358.392 216.533 354.339 221.124C354.078 221.562 353.831 221.976 353.6 222.361C353.022 223.323 352.544 224.106 352.21 224.649C352.043 224.921 351.912 225.133 351.822 225.277L351.719 225.442L351.693 225.485L351.686 225.496L351.684 225.499L351.683 225.5C351.683 225.5 351.683 225.501 350.979 225.061L351.683 225.501C351.583 225.66 351.462 225.806 351.324 225.933L350.764 225.326C351.324 225.933 351.324 225.933 351.324 225.933L351.323 225.934L351.322 225.935L351.317 225.939L351.302 225.953L351.247 226.004C351.2 226.047 351.133 226.107 351.052 226.18C350.89 226.324 350.668 226.521 350.428 226.726C350.192 226.927 349.919 227.151 349.663 227.345C349.535 227.441 349.392 227.544 349.246 227.637C349.13 227.711 348.892 227.859 348.601 227.962C348.473 228.008 348.141 228.116 347.715 228.093C347.206 228.065 346.41 227.818 345.95 226.995C345.587 226.344 345.677 225.73 345.713 225.532C345.76 225.275 345.843 225.07 345.894 224.955C346.076 224.544 346.402 224.08 346.73 223.642C347.444 222.689 348.745 221.118 350.912 218.638C351.899 216.973 353.059 214.979 354.246 212.859C355.832 210.027 357.454 206.99 358.772 204.223C360.113 201.41 361.063 199.03 361.403 197.458C361.45 197.242 361.53 197.035 361.641 196.844C364.908 191.226 364.242 186.74 362.689 184.221C361.888 182.921 360.877 182.164 360.024 181.881C359.223 181.615 358.596 181.752 358.104 182.186C357.674 182.566 356.692 183.644 355.202 185.399C353.755 187.103 351.925 189.332 349.846 191.907C345.689 197.054 340.567 203.549 335.58 209.925C330.594 216.301 325.749 222.552 322.151 227.21C320.351 229.538 318.864 231.468 317.826 232.816C317.569 233.15 317.34 233.448 317.141 233.707C316.937 233.972 316.764 234.197 316.625 234.378L316.309 234.789L316.229 234.894L316.208 234.92L316.203 234.927L316.202 234.928C316.202 234.929 316.201 234.929 314.529 233.645L316.201 234.929C315.537 235.794 314.323 236.01 313.401 235.426L309.115 232.71C308.633 232.405 308.296 231.917 308.179 231.359C306.85 224.966 305.705 220.248 304.682 216.782C303.65 213.288 302.775 211.186 302.025 209.946C301.291 208.731 300.842 208.609 300.73 208.582C300.461 208.518 300.095 208.562 299.007 208.846C297.877 209.142 295.202 210.904 293.029 215.622C290.899 220.249 289.351 227.562 290.371 238.448L380.411 262.91Z" fill="#F94E1E" stroke="#323232" stroke-width="4.21595" stroke-linejoin="round"/>
</g>
<defs>
<clipPath id="clip0_2849_649">
<rect width="575" height="392" fill="white"/>
</clipPath>
<clipPath id="clip1_2849_649">
<rect width="109" height="102.588" fill="white" transform="matrix(-1 0 0 1 220 119)"/>
</clipPath>
</defs>
</svg>
