<svg width="211" height="346" viewBox="0 0 211 346" fill="none" xmlns="http://www.w3.org/2000/svg">
<g clip-path="url(#clip0_2816_34828)">
<path d="M58.2279 153.818C58.2279 153.818 74.5265 112.84 134.524 104L160.266 101.037C160.266 101.037 203.943 96.1016 220.164 106.816C220.164 106.816 242.063 121.011 249.227 132.442L220.492 159.304L206.141 145.348L214.819 222.41C214.819 222.41 175.791 251.147 103.347 242.882L99.812 171.031L95.7102 177.155C95.7102 177.155 60.6508 162.86 58.2279 153.818Z" fill="#FFD27C"/>
<rect x="159.887" y="177.375" width="20.802" height="36.0568" rx="1.88041" transform="rotate(6.21925 159.887 177.375)" fill="#323232"/>
<mask id="mask0_2816_34828" style="mask-type:alpha" maskUnits="userSpaceOnUse" x="57" y="89" width="192" height="145">
<path d="M57.5453 143.233C57.5453 143.233 73.8439 102.255 133.841 93.4149L159.584 90.4526C159.584 90.4526 203.26 85.5169 219.482 96.2312C219.482 96.2312 241.381 110.426 248.545 121.857L219.809 148.719L205.459 134.763L214.136 211.825C214.136 211.825 175.108 240.562 102.665 232.297L99.1293 160.446L95.0275 166.57C95.0275 166.57 59.9682 152.275 57.5453 143.233Z" fill="#FFD27C"/>
</mask>
<g mask="url(#mask0_2816_34828)">
<path d="M166.407 212.248C165.728 217.446 160.077 217.979 155.281 216.649C150.485 215.319 139.848 211.999 139.848 211.999C139.848 211.999 114.985 214.685 90.0857 211.318C74.9387 209.275 61.6639 207.27 48.1474 199.994C48.1474 199.994 49.0654 173.664 65.6188 150.59L79.9005 159.684L96.012 167.571L91.5576 177.738C91.5576 177.738 138.73 182.579 143.365 182.479C143.365 182.479 144.659 180.65 151.671 176.15C158.695 171.664 162.921 172.987 163.929 174.111C164.937 175.235 165.534 175.972 157.956 182.101L157.787 183.98C157.787 183.98 180.394 188.089 182.488 188.907C184.582 189.726 183.23 194.355 177.918 194.08C175.229 194.801 166.859 194.096 166.859 194.096C166.859 194.096 173.428 194.441 178.343 195.664C183.27 196.876 182.734 200.697 181.61 201.705C180.486 202.713 167.26 202.923 162.332 201.711C162.332 201.711 179.33 201.195 179.493 205.862C178.274 210.488 165.145 211.286 157.039 209.537C157.039 209.537 167.383 209.798 166.407 212.248Z" fill="#F94E1E"/>
</g>
<path d="M139.849 211.998C140.082 211.25 140.082 211.251 140.082 211.251L140.082 211.251L140.084 211.251L140.09 211.253L140.112 211.26L140.202 211.288L140.548 211.396C140.848 211.489 141.282 211.624 141.817 211.79C142.889 212.121 144.367 212.578 145.996 213.076C149.255 214.072 153.104 215.232 155.491 215.894C157.809 216.537 160.261 216.705 162.167 216.145C163.11 215.867 163.896 215.419 164.481 214.785C165.061 214.155 165.48 213.302 165.631 212.146C165.639 212.081 165.656 212.018 165.68 211.958C165.685 211.945 165.689 211.942 165.69 211.939C165.69 211.936 165.685 211.932 165.669 211.911C165.597 211.819 165.411 211.672 165.038 211.507C164.735 211.372 164.366 211.251 163.951 211.141C161.453 211.048 158.998 210.761 156.874 210.303C156.479 210.217 156.213 209.845 156.261 209.444C156.309 209.042 156.655 208.743 157.059 208.753L157.039 209.537C157.059 208.753 157.059 208.753 157.059 208.753L157.06 208.754L157.062 208.754L157.068 208.754L157.092 208.754L157.181 208.757C157.259 208.76 157.372 208.764 157.515 208.77C157.801 208.782 158.207 208.802 158.692 208.834C159.658 208.897 160.944 209.008 162.206 209.199C162.871 209.299 163.548 209.424 164.177 209.581C166.411 209.657 168.678 209.573 170.751 209.312C172.934 209.038 174.857 208.573 176.285 207.921C177.669 207.289 178.445 206.551 178.701 205.779C178.663 205.498 178.51 205.218 178.185 204.925C177.807 204.585 177.23 204.264 176.468 203.977C175.773 203.716 174.965 203.498 174.091 203.317C173.863 203.32 173.634 203.322 173.403 203.324C169.336 203.351 164.712 203.103 162.146 202.472C161.765 202.379 161.512 202.018 161.553 201.629C161.595 201.239 161.917 200.94 162.309 200.928L162.333 201.711C162.309 200.928 162.309 200.928 162.309 200.928L162.31 200.928L162.313 200.928L162.323 200.928L162.361 200.927C162.394 200.926 162.443 200.925 162.507 200.923C162.634 200.921 162.819 200.917 163.055 200.915C163.526 200.91 164.197 200.908 165.003 200.92C166.613 200.945 168.768 201.027 170.935 201.257C172.045 201.375 173.171 201.534 174.237 201.747C175.933 201.719 177.501 201.642 178.742 201.522C179.466 201.452 180.062 201.369 180.501 201.277C180.722 201.232 180.887 201.187 181.001 201.146C181.061 201.125 181.094 201.109 181.108 201.102C181.241 200.972 181.409 200.704 181.507 200.314C181.608 199.916 181.623 199.445 181.491 198.97C181.242 198.071 180.412 196.979 178.156 196.425L178.154 196.424C175.749 195.826 172.92 195.438 170.676 195.2C169.898 195.118 169.194 195.054 168.606 195.005C168.449 194.995 168.299 194.986 168.158 194.976C167.742 194.949 167.402 194.924 167.165 194.906C167.047 194.897 166.955 194.889 166.892 194.884L166.82 194.878L166.801 194.877L166.796 194.877L166.795 194.876L166.794 194.876C166.794 194.876 166.794 194.876 166.86 194.096M139.849 211.998C139.764 211.219 139.764 211.219 139.764 211.219L139.764 211.22L139.761 211.22L139.748 211.221L139.695 211.227C139.648 211.232 139.578 211.239 139.485 211.248C139.299 211.267 139.022 211.294 138.66 211.327C137.936 211.393 136.872 211.485 135.517 211.584C132.807 211.783 128.934 212.012 124.283 212.137C114.979 212.387 102.584 212.217 90.1911 210.542L90.1909 210.542C75.204 208.52 62.1824 206.548 48.9559 199.537C48.9665 199.362 48.9811 199.141 49.0009 198.876C49.0575 198.122 49.1569 197.016 49.3277 195.614C49.6693 192.81 50.2964 188.829 51.4374 184.13C53.6804 174.892 57.9034 162.908 65.8266 151.651L79.4801 160.345C79.5048 160.361 79.5303 160.375 79.5565 160.388L94.9934 167.944L90.8404 177.423C90.7399 177.653 90.7551 177.916 90.8812 178.132C91.0072 178.349 91.229 178.492 91.4781 178.517L91.558 177.738C91.4781 178.517 91.4782 178.517 91.4786 178.517L91.4802 178.517L91.4867 178.518L91.5123 178.521L91.6137 178.531L92.0093 178.572C92.356 178.607 92.8651 178.659 93.5147 178.725C94.8139 178.857 96.675 179.046 98.9228 179.272C103.418 179.725 109.461 180.327 115.648 180.926C121.835 181.525 128.17 182.121 133.248 182.561C138.296 182.998 142.17 183.288 143.382 183.262C143.628 183.257 143.856 183.137 144 182.939C144.001 182.936 144.003 182.934 144.005 182.931L143.365 182.479M139.849 211.998L140.082 211.25C139.979 211.218 139.871 211.208 139.764 211.219L139.849 211.998ZM143.365 182.479C144.005 182.931 144.005 182.932 144.004 182.932L144.004 182.933L144.003 182.934L144.002 182.936C144.007 182.929 144.018 182.915 144.036 182.893C144.073 182.849 144.139 182.773 144.244 182.664C144.453 182.445 144.814 182.094 145.396 181.599C146.563 180.608 148.61 179.046 152.095 176.81C155.519 174.623 158.199 173.892 160.091 173.809C162.019 173.726 163.056 174.311 163.346 174.634C163.625 174.945 163.702 175.059 163.726 175.158C163.736 175.2 163.772 175.369 163.496 175.818C163.213 176.277 162.667 176.923 161.688 177.858C160.716 178.786 159.351 179.966 157.464 181.492C157.299 181.625 157.195 181.82 157.176 182.031L157.007 183.909C156.97 184.313 157.248 184.678 157.647 184.75L157.787 183.98C157.647 184.75 157.647 184.75 157.647 184.751L157.648 184.751L157.651 184.751L157.663 184.753L157.712 184.762L157.901 184.797C158.067 184.827 158.311 184.872 158.621 184.928C159.243 185.042 160.134 185.206 161.21 185.405C163.361 185.803 166.251 186.342 169.205 186.906C172.161 187.471 175.178 188.06 177.586 188.559C178.791 188.809 179.838 189.035 180.648 189.224C181.481 189.418 182.004 189.559 182.203 189.637C182.43 189.726 182.582 189.91 182.63 190.22C182.682 190.55 182.603 191.012 182.31 191.498C181.741 192.44 180.371 193.422 177.959 193.298C177.877 193.293 177.795 193.302 177.716 193.323C177.138 193.478 176.19 193.568 175.032 193.603C173.894 193.638 172.614 193.618 171.409 193.575C170.416 193.54 169.478 193.489 168.72 193.442C168.464 193.421 168.23 193.403 168.021 193.387C167.671 193.361 167.393 193.343 167.201 193.331C167.105 193.325 167.03 193.32 166.98 193.318L166.922 193.314L166.907 193.314L166.903 193.313L166.902 193.313L166.901 193.313C166.901 193.313 166.901 193.313 166.86 194.096M143.365 182.479C143.365 182.479 144.66 180.65 151.672 176.15L92.3768 177.822C98.6595 178.463 139.093 182.571 143.365 182.479ZM166.86 194.096L166.901 193.313C166.474 193.291 166.107 193.615 166.078 194.042C166.049 194.469 166.368 194.84 166.794 194.876L166.86 194.096Z" stroke="#323232" stroke-width="1.56701" stroke-linejoin="round"/>
<path d="M223.366 100.941L223.371 100.945L223.409 100.888C223.372 100.945 223.372 100.945 223.372 100.945L223.372 100.946L223.375 100.947L223.386 100.955L223.432 100.985C223.473 101.011 223.534 101.051 223.614 101.104C223.775 101.21 224.012 101.367 224.317 101.571C224.926 101.979 225.805 102.575 226.883 103.327C229.04 104.831 231.989 106.954 235.16 109.431C241.326 114.25 248.235 120.337 251.847 125.788L224.136 151.693L210.321 138.258L208.751 136.731L208.996 138.907L217.621 215.509C217.599 215.524 217.576 215.54 217.552 215.557C217.256 215.76 216.809 216.06 216.213 216.439C215.02 217.199 213.229 218.279 210.852 219.552C206.098 222.097 198.998 225.412 189.639 228.472C171.039 234.554 143.509 239.631 107.73 235.649L104.228 164.464L104.112 162.1L102.794 164.067L99.0498 169.657C98.8116 169.558 98.5053 169.429 98.1382 169.273C97.1785 168.866 95.8039 168.275 94.1465 167.536C90.8306 166.059 86.3874 163.996 81.8717 161.653C77.3514 159.308 72.7803 156.694 69.1978 154.115C67.406 152.825 65.8804 151.557 64.7361 150.349C63.6797 149.235 62.9959 148.221 62.693 147.333C62.7163 147.279 62.7437 147.216 62.7752 147.145C62.9049 146.852 63.1047 146.418 63.381 145.859C63.9337 144.742 64.7928 143.128 66.0114 141.161C68.4487 137.227 72.3228 131.879 78.0588 126.255C89.5219 115.014 108.443 102.644 138.259 98.2482L163.988 95.2875L163.989 95.2874L163.995 95.2868L164.018 95.2842L164.11 95.2741C164.192 95.2652 164.314 95.2522 164.475 95.2355C164.796 95.2023 165.27 95.1547 165.881 95.098C167.101 94.9845 168.864 94.8341 171.031 94.6869C175.365 94.3925 181.311 94.1114 187.759 94.1639C194.21 94.2164 201.147 94.6027 207.468 95.6378C213.807 96.6756 219.448 98.3538 223.366 100.941Z" stroke="#323232" stroke-width="1.56701"/>
<path d="M104.395 160.499C104.395 160.499 104.461 142.232 100.509 131.549" stroke="#323232" stroke-width="1.56701" stroke-miterlimit="10" stroke-linecap="round" stroke-linejoin="round"/>
<path d="M125.59 235.48C125.59 235.48 106.785 317.038 110.044 330.987C113.303 344.935 185.017 407.369 189.661 410.427L207.977 397.594" stroke="#323232" stroke-width="1.56701" stroke-miterlimit="10" stroke-linecap="round" stroke-linejoin="round"/>
<path d="M161.069 258.967L169.585 265.77C169.585 265.77 173.513 279.741 177.822 295.137C188.474 333.107 206.737 397.285 212.457 409.71L251.862 396.521C251.862 396.521 226.097 236.265 221.799 216.379" stroke="#323232" stroke-width="1.56701" stroke-miterlimit="10" stroke-linecap="round" stroke-linejoin="round"/>
<path d="M193.273 348.133L172.342 319.5L177.614 296.351" stroke="#323232" stroke-width="1.56701" stroke-miterlimit="10" stroke-linecap="round" stroke-linejoin="round"/>
<path d="M135.399 99.0692C136.595 103.53 139.452 113.026 152.918 112.36C166.333 111.708 170.838 103.881 172.46 97.5797" stroke="#323232" stroke-width="1.56701" stroke-miterlimit="10" stroke-linecap="round" stroke-linejoin="round"/>
<path d="M209.269 136.147L203.18 124.139" stroke="#323232" stroke-width="1.56701" stroke-miterlimit="10" stroke-linecap="round" stroke-linejoin="round"/>
<path d="M209.269 136.147L209.483 128.911" stroke="#323232" stroke-width="1.56701" stroke-miterlimit="10" stroke-linecap="round" stroke-linejoin="round"/>
<path d="M162.648 315.918C165.793 316.399 169.129 317.455 172.338 319.482" stroke="#323232" stroke-width="1.56701" stroke-miterlimit="10" stroke-linecap="round" stroke-linejoin="round"/>
<mask id="path-15-inside-1_2816_34828" fill="white">
<path d="M177.822 295.136C173.495 279.745 169.585 265.768 169.585 265.768L161.068 258.966"/>
</mask>
<path d="M177.822 295.136C173.495 279.745 169.585 265.768 169.585 265.768L161.068 258.966" fill="#323232"/>
<path d="M169.585 265.768L171.094 265.346L170.958 264.859L170.563 264.544L169.585 265.768ZM179.33 294.712C177.167 287.017 175.108 279.675 173.59 274.257C172.831 271.549 172.207 269.321 171.772 267.77C171.555 266.995 171.386 266.389 171.27 265.976C171.213 265.77 171.168 265.613 171.139 265.507C171.124 265.454 171.113 265.413 171.105 265.386C171.101 265.373 171.099 265.363 171.097 265.356C171.096 265.353 171.095 265.35 171.095 265.348C171.094 265.348 171.094 265.347 171.094 265.347C171.094 265.346 171.094 265.346 171.094 265.346C171.094 265.346 171.094 265.346 169.585 265.768C168.076 266.19 168.076 266.19 168.076 266.191C168.076 266.191 168.076 266.191 168.076 266.191C168.076 266.191 168.076 266.192 168.076 266.193C168.077 266.195 168.078 266.197 168.079 266.201C168.08 266.207 168.083 266.218 168.087 266.231C168.095 266.258 168.106 266.298 168.121 266.351C168.15 266.457 168.195 266.615 168.252 266.821C168.368 267.233 168.537 267.84 168.754 268.615C169.189 270.166 169.813 272.394 170.572 275.103C172.09 280.521 174.15 287.864 176.313 295.56L179.33 294.712ZM170.563 264.544L162.046 257.741L160.09 260.19L168.607 266.993L170.563 264.544Z" fill="#323232" mask="url(#path-15-inside-1_2816_34828)"/>
<path d="M139.584 92.1525L139.469 91.912L139.236 91.7949L139.235 91.7945L139.235 91.7944L139.226 91.7894C139.214 91.7828 139.192 91.7702 139.16 91.7509C139.097 91.7123 138.996 91.647 138.864 91.5494C138.598 91.3543 138.205 91.0294 137.733 90.5297C136.79 89.5316 135.524 87.8275 134.336 85.0515C131.969 79.5244 129.906 69.7348 131.34 52.8147C131.344 52.8106 131.348 52.8065 131.352 52.8023C131.486 52.6718 131.699 52.4756 132.004 52.2315C132.613 51.7436 133.588 51.0631 135.019 50.3338C137.879 48.876 142.572 47.2167 149.817 46.5201L149.818 46.52C157.041 45.8153 162.051 46.8901 165.231 48.1123C166.822 48.7241 167.961 49.3753 168.694 49.8651C169.06 50.1101 169.325 50.3149 169.495 50.4545C169.524 50.4786 169.551 50.5007 169.574 50.5208C173.432 65.4396 172.88 74.9617 171.408 80.7158C170.668 83.6074 169.695 85.5556 168.923 86.767C168.537 87.3733 168.2 87.7967 167.967 88.0627C167.85 88.1957 167.759 88.2895 167.701 88.3472C167.671 88.376 167.65 88.3959 167.638 88.4071L167.628 88.4162L167.627 88.4169L167.627 88.4174L167.627 88.4175L167.626 88.4179L167.408 88.6053L167.365 88.8935L166.477 94.8457C166.473 94.8632 166.466 94.8871 166.457 94.9171C166.436 94.9926 166.402 95.1068 166.354 95.2542C166.259 95.5491 166.109 95.9764 165.894 96.4934C165.464 97.5293 164.779 98.9152 163.758 100.317C161.721 103.113 158.373 105.95 153.029 106.258C148.781 106.501 146.117 104.415 144.477 102.223C143.653 101.12 143.095 99.9958 142.743 99.1447C142.568 98.7204 142.445 98.3673 142.367 98.1231C142.328 98.0011 142.3 97.9066 142.282 97.8443C142.273 97.8132 142.267 97.7901 142.263 97.7757L142.259 97.7608L142.259 97.7593L142.259 97.7587L142.259 97.7584L142.259 97.7583L142.24 97.6822L142.205 97.6107L139.584 92.1525Z" fill="#F94E1E" stroke="#323232" stroke-width="1.56701"/>
<path d="M174.249 48.9102L174.247 48.9125L174.247 48.9131L174.247 48.9132L174.246 48.9133L174.127 49.0877L174.112 49.2993L172.979 65.2517L170.605 66.5197L166.105 49.724L165.996 49.3158L165.594 49.183L156.262 46.0933L159.631 38.7161L159.648 38.6775L159.661 38.6398L159.661 38.6396L159.661 38.6395L159.661 38.6393L159.663 38.6323C159.666 38.6244 159.671 38.6105 159.678 38.5909C159.693 38.5519 159.717 38.4907 159.752 38.4113C159.821 38.2524 159.93 38.0224 160.086 37.7526C160.4 37.2105 160.894 36.5239 161.619 35.9273C163.019 34.7742 165.414 33.8433 169.41 35.2884L169.41 35.2884C172.372 36.359 174.079 37.7528 175.029 39.1755C175.977 40.5953 176.223 42.1229 176.116 43.5627C176.008 45.0121 175.544 46.3526 175.095 47.3435C174.871 47.8359 174.655 48.2343 174.497 48.5074C174.417 48.6438 174.353 48.7484 174.309 48.8173C174.287 48.8518 174.27 48.8773 174.26 48.8933L174.249 48.9102Z" fill="#323232" stroke="#323232" stroke-width="1.56701"/>
<path d="M131.709 53.5157C130.927 53.5563 130.927 53.5564 130.927 53.5565L130.927 53.557L130.927 53.5591L130.927 53.5674L130.929 53.6L130.936 53.7275L130.961 54.2115L131.051 55.9401C131.126 57.3715 131.226 59.2821 131.328 61.1986C131.43 63.115 131.534 65.0379 131.615 66.4938C131.656 67.2215 131.691 67.8337 131.718 68.2704C131.731 68.4884 131.742 68.6647 131.751 68.7903C131.755 68.8527 131.759 68.9058 131.763 68.9466C131.765 68.9664 131.767 68.9878 131.769 69.0076C131.77 69.0173 131.772 69.0311 131.774 69.0465L131.774 69.0474C131.775 69.0562 131.781 69.0958 131.793 69.1425C131.9 69.5417 131.933 69.8953 131.922 70.1723C131.725 69.8148 131.494 69.245 131.266 68.392C130.74 66.4295 130.228 63.2042 129.845 60.4331C129.654 59.0553 129.498 57.8024 129.388 56.894C129.334 56.4399 129.291 56.0721 129.262 55.818C129.247 55.691 129.236 55.5925 129.229 55.5258L129.22 55.4502L129.218 55.4311L129.218 55.4264L129.218 55.4253L129.218 55.425L128.439 55.5101L129.218 55.425L129.199 55.2574L129.114 55.1121C127.255 51.9597 126.576 49.3249 126.604 47.1693C126.632 45.0215 127.361 43.2944 128.415 41.9438C129.476 40.5847 130.874 39.5976 132.23 38.9711C133.323 38.4662 134.337 38.2185 135.079 38.172L138.308 48.9835L131.331 52.8295L130.901 53.0664L130.927 53.5563L131.709 53.5157ZM131.815 70.6806C131.815 70.6806 131.816 70.6799 131.817 70.6786C131.816 70.68 131.815 70.6807 131.815 70.6806Z" fill="#323232" stroke="#323232" stroke-width="1.56701"/>
<path d="M139.586 28.7696L139.587 28.7692C143.456 25.9275 147.146 25.3864 150.344 26.0777C153.57 26.775 156.369 28.7439 158.37 31.0406C159.246 32.0546 159.631 33.4402 159.661 35.0448C159.692 36.6482 159.366 38.3951 158.901 40.035C158.437 41.6694 157.845 43.1633 157.367 44.2513C157.128 44.7942 156.92 45.2336 156.771 45.5359C156.749 45.5802 156.729 45.6215 156.71 45.6597L137.127 49.0487C137.048 48.5726 136.943 47.8917 136.834 47.063C136.614 45.3803 136.383 43.0968 136.337 40.683C136.291 38.2631 136.432 35.7464 136.939 33.5841C137.451 31.4036 138.306 29.7081 139.586 28.7696Z" fill="#323232" stroke="#323232" stroke-width="1.56701"/>
<path d="M131.382 68.4796L131.382 68.4796L131.383 68.4821C132.414 71.2439 132.417 73.3319 132.186 74.6999C132.071 75.387 131.894 75.9001 131.753 76.2323C131.746 76.2479 131.739 76.2631 131.733 76.2779C131.285 76.1432 130.829 75.7763 130.374 75.1199C129.781 74.2644 129.294 73.0554 128.93 71.7299C128.57 70.4139 128.346 69.0343 128.254 67.8737C128.208 67.2937 128.196 66.7788 128.215 66.3613C128.233 65.9266 128.283 65.6556 128.328 65.5291C128.417 65.2814 128.503 65.2731 128.531 65.2704C128.532 65.2702 128.533 65.2701 128.535 65.2699C128.637 65.2566 128.883 65.2926 129.264 65.5446C130.007 66.0362 130.874 67.1034 131.382 68.4796Z" stroke="#323232" stroke-width="1.56701"/>
<path d="M178.543 64.9998C179.325 66.5005 178.959 68.7229 177.721 70.6651C176.633 72.3717 175.026 73.6149 173.375 73.8527C173.362 73.7546 173.349 73.6475 173.335 73.5323C173.255 72.8903 173.157 71.9984 173.081 70.9994C172.926 68.9771 172.869 66.6075 173.198 64.9693C173.498 63.5387 174.444 62.8566 175.425 62.8067C176.428 62.7556 177.69 63.3614 178.543 64.9998Z" stroke="#323232" stroke-width="1.56701"/>
<path d="M132.257 77.1226L132.257 77.1227L132.257 77.1238L132.257 77.1303L132.255 77.1592C132.254 77.1855 132.253 77.2255 132.251 77.2783C132.247 77.3841 132.242 77.5412 132.239 77.7423C132.233 78.1448 132.233 78.7228 132.258 79.4181C132.309 80.8126 132.46 82.6618 132.86 84.5091C133.261 86.3668 133.9 88.1603 134.887 89.4906C135.855 90.7947 137.143 91.6422 138.923 91.7053L138.924 91.7053C143.527 91.8776 149.037 92.0216 154.156 91.8407C159.302 91.6589 163.953 91.1503 166.895 90.0628C169.068 89.2582 171 88.114 172.108 85.9466C173.222 83.7638 173.586 80.375 172.207 74.8885L172.184 74.7992L172.183 74.7072L172.06 64.7815C171.82 65.2015 171.547 65.7718 171.257 66.5433C170.863 67.5959 170.488 68.9658 170.065 70.5137C170.031 70.6398 169.996 70.7669 169.961 70.8952C169.499 72.5804 168.982 74.4302 168.337 76.1785C167.693 77.9227 166.908 79.6102 165.89 80.9577C164.868 82.31 163.576 83.3662 161.92 83.7459L132.257 77.1226ZM132.257 77.1226L132.257 77.1225L132.261 77.0558L132.253 76.9892L131.008 66.3311M132.257 77.1226L131.008 66.3311M131.008 66.3311C131.244 66.5377 131.558 66.9336 131.891 67.6939L131.891 67.6939L131.892 67.6969C132.761 69.656 134.326 72.8861 135.986 75.8112C136.816 77.273 137.678 78.6729 138.495 79.8043C139.289 80.9031 140.115 81.8563 140.889 82.3031C143.931 84.0597 147.993 84.6835 151.834 84.7487C155.692 84.8142 159.436 84.3172 161.919 83.746L131.008 66.3311Z" fill="#323232" stroke="#323232" stroke-width="1.56701"/>
<path d="M148.645 62.5104L147.243 70.8671L152.909 70.3236" stroke="#323232" stroke-width="1.56701" stroke-miterlimit="10" stroke-linecap="round" stroke-linejoin="round"/>
<path d="M145.681 77.3179L145.681 77.3179L145.685 77.3147C146.036 77.0514 146.763 76.7613 147.799 76.5046C148.803 76.2556 149.999 76.0607 151.204 75.9369C152.408 75.8132 153.6 75.7626 154.595 75.7962C155.632 75.8312 156.326 75.9554 156.627 76.1011C156.714 76.1432 156.891 76.2774 157.151 76.5754C157.398 76.8582 157.674 77.2338 157.968 77.6817C158.555 78.5764 159.178 79.7019 159.753 80.817C160.325 81.9289 160.842 83.015 161.215 83.8243C161.316 84.0429 161.407 84.2411 161.485 84.4138L159.105 85.3398L155.661 78.8207L155.219 77.9823L154.479 78.5749L154.479 78.575L154.479 78.5751L154.479 78.5752L154.479 78.5753L154.476 78.5773L154.462 78.5882C154.449 78.5982 154.429 78.6137 154.403 78.634C154.35 78.6745 154.271 78.7338 154.171 78.806C153.97 78.9507 153.688 79.1448 153.361 79.342C152.677 79.7554 151.918 80.1095 151.336 80.1613C150.672 80.2204 149.762 79.9267 148.923 79.5371C148.524 79.3514 148.175 79.1602 147.925 79.0152C147.801 78.943 147.702 78.8829 147.636 78.8415C147.603 78.8208 147.578 78.8049 147.561 78.7945L147.544 78.7833L147.54 78.781L147.54 78.781L147.54 78.7809L147.54 78.7808L147.54 78.7807L146.53 78.1148L146.336 79.3098L145.288 85.774L142.646 86.0518C142.669 85.943 142.693 85.8271 142.719 85.7049C142.897 84.865 143.153 83.7331 143.469 82.5593C143.787 81.3818 144.158 80.1812 144.564 79.1965C144.766 78.7041 144.971 78.2815 145.173 77.9491C145.381 77.6066 145.556 77.4103 145.681 77.3179Z" fill="#323232" stroke="#323232" stroke-width="1.56701"/>
<path d="M138.042 60.5413C138.042 60.5413 139.019 57.1167 142.682 58.9853" stroke="#323232" stroke-width="1.56701" stroke-miterlimit="10" stroke-linecap="round" stroke-linejoin="round"/>
<path d="M158.781 57.5655C158.781 57.5655 160.894 55.0869 163.225 58.1586" stroke="#323232" stroke-width="1.56701" stroke-miterlimit="10" stroke-linecap="round" stroke-linejoin="round"/>
<path d="M141.196 64.2753C141.373 64.1717 141.928 63.9784 142.736 64.0345" stroke="#323232" stroke-width="1.88041" stroke-linecap="round"/>
<path d="M159.313 62.2295C159.516 62.1953 160.11 62.212 160.856 62.5524" stroke="#323232" stroke-width="1.88041" stroke-linecap="round"/>
</g>
<defs>
<clipPath id="clip0_2816_34828">
<rect width="211" height="346" fill="white"/>
</clipPath>
</defs>
</svg>
