<svg width="142" height="362" viewBox="0 0 142 362" fill="none" xmlns="http://www.w3.org/2000/svg">
<g clip-path="url(#clip0_2889_26268)">
<path d="M15.1692 391.857C15.1692 391.857 -11.93 310.476 80.8544 273.04L120.986 258.31C120.986 258.31 189.112 233.463 219.278 244.356C219.278 244.356 259.898 258.629 275.818 274.183L240.151 328.398L211.729 311.581L255.519 431.794C255.519 431.794 204.076 493.005 84.7013 507.837L51.1771 393.988L46.9737 405.399C46.9737 405.399 22.5599 405.417 15.1692 391.857Z" fill="#FFD27C"/>
<mask id="path-2-inside-1_2889_26268" fill="white">
<path d="M9.17502 385.36C9.17502 385.36 -17.9242 303.979 74.8603 266.543L114.992 251.813C114.992 251.813 183.117 226.966 213.284 237.859C213.284 237.859 253.904 252.132 269.824 267.685L234.157 321.9L205.735 305.084L249.525 425.297C249.525 425.297 198.081 486.508 78.7071 501.34L45.183 387.491L40.9795 398.902C40.9795 398.902 16.5657 398.92 9.17502 385.36Z"/>
</mask>
<path d="M9.17502 385.36L6.7222 386.177L6.79491 386.395L6.90505 386.597L9.17502 385.36ZM74.8603 266.543L73.9695 264.116L73.931 264.13L73.893 264.146L74.8603 266.543ZM114.992 251.813L114.106 249.385L114.101 249.386L114.992 251.813ZM213.284 237.859L212.406 240.29L212.417 240.294L212.427 240.298L213.284 237.859ZM269.824 267.685L271.983 269.106L273.155 267.326L271.63 265.836L269.824 267.685ZM234.157 321.9L232.841 324.125L234.962 325.381L236.317 323.321L234.157 321.9ZM205.735 305.084L207.051 302.859L200.833 299.18L203.306 305.969L205.735 305.084ZM249.525 425.297L251.504 426.96L252.466 425.816L251.954 424.412L249.525 425.297ZM78.7071 501.34L76.2272 502.07L76.8473 504.176L79.0259 503.906L78.7071 501.34ZM45.183 387.491L47.6629 386.761L45.4568 379.269L42.7571 386.598L45.183 387.491ZM40.9795 398.902L40.9814 401.487L42.7827 401.486L43.4054 399.796L40.9795 398.902ZM9.17502 385.36C11.6278 384.543 11.6282 384.544 11.6285 384.545C11.6284 384.545 11.6286 384.545 11.6285 384.545C11.6283 384.544 11.6277 384.543 11.6267 384.54C11.6247 384.533 11.6211 384.522 11.616 384.507C11.6058 384.475 11.5896 384.424 11.5678 384.355C11.5243 384.215 11.4589 384.001 11.3759 383.716C11.21 383.144 10.974 382.288 10.7036 381.178C10.1627 378.957 9.48498 375.723 8.95327 371.719C7.88873 363.702 7.4162 352.65 9.76201 340.479C14.423 316.296 30.2674 287.323 75.8276 268.941L73.893 264.146C26.6688 283.199 9.67048 313.634 4.68498 339.501C2.20752 352.355 2.71075 363.987 3.82779 372.4C4.38687 376.61 5.10143 380.026 5.68001 382.402C5.9694 383.59 6.22507 384.519 6.41076 385.158C6.50361 385.478 6.57901 385.725 6.63241 385.896C6.65911 385.981 6.68033 386.048 6.69548 386.095C6.70305 386.118 6.70912 386.137 6.71359 386.151C6.71583 386.157 6.71768 386.163 6.71911 386.167C6.71983 386.17 6.7206 386.172 6.72097 386.173C6.72163 386.175 6.7222 386.177 9.17502 385.36ZM75.7511 268.97L115.883 254.24L114.101 249.386L73.9695 264.116L75.7511 268.97ZM114.992 251.813C115.878 254.242 115.878 254.242 115.878 254.242C115.878 254.242 115.879 254.242 115.879 254.241C115.881 254.241 115.884 254.24 115.887 254.238C115.895 254.236 115.906 254.232 115.922 254.226C115.953 254.215 116 254.198 116.063 254.175C116.189 254.13 116.378 254.062 116.627 253.974C117.126 253.797 117.864 253.539 118.816 253.213C120.72 252.561 123.478 251.639 126.884 250.567C133.7 248.421 143.093 245.675 153.412 243.269C163.742 240.86 174.945 238.806 185.393 238.022C195.896 237.233 205.377 237.752 212.406 240.29L214.162 235.427C206.108 232.519 195.76 232.059 185.006 232.866C174.196 233.677 162.711 235.792 152.238 238.233C141.756 240.678 132.232 243.462 125.331 245.635C121.879 246.722 119.08 247.657 117.14 248.321C116.171 248.653 115.416 248.918 114.901 249.1C114.644 249.191 114.447 249.262 114.313 249.31C114.247 249.334 114.196 249.352 114.161 249.365C114.144 249.371 114.13 249.376 114.121 249.379C114.117 249.381 114.113 249.382 114.11 249.383C114.109 249.383 114.108 249.384 114.107 249.384C114.107 249.384 114.106 249.385 114.992 251.813ZM213.284 237.859C212.427 240.298 212.427 240.298 212.427 240.298C212.427 240.298 212.427 240.298 212.428 240.298C212.429 240.298 212.43 240.299 212.432 240.299C212.437 240.301 212.443 240.303 212.452 240.306C212.47 240.313 212.498 240.323 212.536 240.336C212.61 240.362 212.722 240.402 212.87 240.455C213.165 240.562 213.603 240.72 214.167 240.928C215.295 241.344 216.929 241.956 218.941 242.741C222.966 244.309 228.496 246.561 234.516 249.293C246.664 254.807 260.415 262.108 268.017 269.535L271.63 265.836C263.312 257.71 248.794 250.096 236.653 244.585C230.527 241.805 224.907 239.516 220.818 237.923C218.773 237.126 217.109 236.502 215.954 236.076C215.377 235.864 214.926 235.7 214.619 235.59C214.465 235.535 214.347 235.492 214.267 235.464C214.226 235.45 214.196 235.439 214.175 235.431C214.164 235.428 214.156 235.425 214.151 235.423C214.148 235.422 214.146 235.421 214.144 235.421C214.143 235.42 214.142 235.42 214.142 235.42C214.142 235.42 214.141 235.419 213.284 237.859ZM267.664 266.265L231.997 320.48L236.317 323.321L271.983 269.106L267.664 266.265ZM235.474 319.676L207.051 302.859L204.419 307.309L232.841 324.125L235.474 319.676ZM203.306 305.969L247.096 426.181L251.954 424.412L208.164 304.199L203.306 305.969ZM249.525 425.297C247.546 423.633 247.547 423.633 247.547 423.632C247.547 423.632 247.547 423.632 247.547 423.632C247.547 423.633 247.545 423.634 247.543 423.637C247.539 423.641 247.532 423.65 247.522 423.662C247.501 423.686 247.468 423.725 247.422 423.777C247.33 423.883 247.188 424.045 246.995 424.26C246.608 424.69 246.018 425.333 245.219 426.162C243.622 427.821 241.193 430.224 237.9 433.164C231.314 439.043 221.274 447.065 207.523 455.557C180.029 472.535 137.676 491.408 78.3884 498.774L79.0259 503.906C139.113 496.44 182.168 477.291 210.24 459.956C224.272 451.291 234.553 443.083 241.344 437.021C244.739 433.99 247.261 431.496 248.944 429.749C249.785 428.876 250.416 428.189 250.842 427.715C251.054 427.478 251.216 427.295 251.326 427.168C251.381 427.104 251.423 427.055 251.453 427.02C251.468 427.003 251.48 426.989 251.488 426.979C251.492 426.974 251.496 426.97 251.499 426.967C251.5 426.965 251.501 426.963 251.502 426.963C251.503 426.961 251.504 426.96 249.525 425.297ZM81.1871 500.61L47.6629 386.761L42.703 388.221L76.2272 502.07L81.1871 500.61ZM42.7571 386.598L38.5536 398.008L43.4054 399.796L47.6088 388.385L42.7571 386.598ZM40.9795 398.902C40.9776 396.317 40.9782 396.317 40.9787 396.317C40.9788 396.317 40.9792 396.317 40.9793 396.317C40.9795 396.317 40.9793 396.317 40.9788 396.317C40.9777 396.317 40.9752 396.317 40.9712 396.317C40.9633 396.317 40.9497 396.317 40.9304 396.316C40.8919 396.316 40.831 396.315 40.749 396.314C40.585 396.311 40.3369 396.305 40.0145 396.293C39.3694 396.268 38.4295 396.218 37.2745 396.117C34.9586 395.915 31.8089 395.51 28.4534 394.702C21.5728 393.047 14.5859 389.886 11.445 384.123L6.90505 386.597C11.1549 394.394 20.0702 398.004 27.2441 399.73C30.916 400.613 34.3317 401.05 36.8243 401.268C38.0736 401.378 39.0987 401.432 39.8176 401.46C40.1773 401.473 40.4608 401.48 40.6581 401.484C40.7567 401.485 40.8338 401.486 40.8881 401.487C40.9153 401.487 40.9367 401.487 40.9524 401.487C40.9602 401.487 40.9665 401.487 40.9714 401.487C40.9738 401.487 40.9758 401.487 40.9775 401.487C40.9784 401.487 40.9793 401.487 40.9798 401.487C40.9807 401.487 40.9814 401.487 40.9795 398.902Z" fill="#323232" mask="url(#path-2-inside-1_2889_26268)"/>
<path d="M47.8607 378.77C47.8607 378.77 40.8851 349.451 30.4049 333.854" stroke="#323232" stroke-width="2.58523" stroke-miterlimit="10" stroke-linecap="round" stroke-linejoin="round"/>
<path d="M73.7617 268.243C77.4079 274.933 85.6707 289.053 107.007 282.764C128.267 276.518 132.456 262.22 132.614 251.487" stroke="#323232" stroke-width="2.58523" stroke-miterlimit="10" stroke-linecap="round" stroke-linejoin="round"/>
<path d="M77.7903 255.531L77.512 255.191L77.0941 255.093L77.0938 255.093L77.0923 255.093L77.0754 255.088C77.0538 255.082 77.0134 255.07 76.9553 255.052C76.8392 255.014 76.652 254.949 76.4013 254.844C75.9002 254.634 75.1438 254.265 74.193 253.647C72.2938 252.412 69.603 250.17 66.6211 246.179C60.6839 238.233 53.5796 223.335 49.3192 195.646C49.3242 195.638 49.3294 195.63 49.3346 195.621C49.4979 195.36 49.7641 194.963 50.1581 194.453C50.9457 193.435 52.2458 191.965 54.2573 190.241C58.2785 186.795 65.1609 182.315 76.5092 178.389L76.5109 178.388C87.8202 174.458 96.2709 174.239 101.843 174.966C104.633 175.331 106.712 175.933 108.076 176.435C108.759 176.685 109.264 176.911 109.59 177.069C109.646 177.096 109.697 177.122 109.742 177.145C121.713 199.573 124.519 215.056 124.389 224.854C124.324 229.778 123.518 233.279 122.75 235.521C122.365 236.643 121.99 237.453 121.719 237.97C121.583 238.228 121.474 238.414 121.402 238.529C121.367 238.587 121.34 238.627 121.325 238.649L121.313 238.668L121.312 238.669L121.311 238.67L121.311 238.671L121.31 238.671L121.034 239.056L121.076 239.535L121.96 249.424C121.96 249.435 121.959 249.448 121.959 249.462C121.958 249.486 121.957 249.514 121.956 249.547C121.95 249.676 121.94 249.872 121.921 250.127C121.882 250.637 121.808 251.38 121.664 252.293C121.376 254.12 120.814 256.609 119.72 259.253C117.538 264.526 113.269 270.373 104.819 272.939C98.1011 274.976 93.0197 272.663 89.5412 269.783C87.7911 268.334 86.4605 266.748 85.5664 265.52C85.1207 264.907 84.787 264.388 84.567 264.027C84.4571 263.847 84.3758 263.706 84.3234 263.613C84.2972 263.566 84.2782 263.532 84.2665 263.51L84.2544 263.488L84.2532 263.486L84.2527 263.485L84.2524 263.484L84.2524 263.484L84.1923 263.369L84.1095 263.268L77.7903 255.531Z" fill="#F94E1E" stroke="#323232" stroke-width="2.58523"/>
<path d="M116.612 172.751L116.61 172.755L116.61 172.756L116.61 172.756L116.61 172.757L116.486 173.082L116.544 173.428L120.912 199.448L117.597 202.402L103.869 177.213L103.535 176.601L102.84 176.543L86.6764 175.207L89.2187 162.071L89.232 162.002L89.2375 161.937L89.2375 161.936L89.2375 161.936L89.2375 161.936L89.2388 161.924C89.2402 161.91 89.2428 161.886 89.2471 161.851C89.2556 161.783 89.2706 161.676 89.2949 161.535C89.3436 161.254 89.4294 160.842 89.5752 160.349C89.8683 159.358 90.3951 158.066 91.3258 156.828C93.1248 154.436 96.6043 152.015 103.573 152.783L103.573 152.783C108.736 153.352 112.015 154.925 114.089 156.838C116.16 158.747 117.146 161.102 117.533 163.452C117.923 165.818 117.698 168.147 117.361 169.911C117.194 170.787 117.002 171.509 116.854 172.009C116.779 172.258 116.716 172.451 116.673 172.578C116.651 172.642 116.634 172.69 116.624 172.719L116.612 172.751Z" fill="#323232" stroke="#323232" stroke-width="2.58523"/>
<path d="M50.1815 196.627C48.9425 196.995 48.9425 196.995 48.9426 196.995L48.9428 196.996L48.9438 196.999L48.9477 197.013L48.9631 197.064L49.0231 197.266L49.2511 198.032C49.4476 198.693 49.7285 199.636 50.066 200.769C50.7411 203.036 51.6428 206.061 52.5493 209.094C53.4558 212.128 54.3674 215.171 55.0622 217.475C55.4095 218.626 55.7031 219.594 55.9151 220.284C56.0209 220.628 56.1072 220.907 56.1701 221.105C56.2013 221.203 56.2283 221.287 56.2498 221.351C56.2603 221.382 56.2717 221.415 56.283 221.446C56.2885 221.461 56.2965 221.483 56.3061 221.507L56.3067 221.508C56.3121 221.522 56.3367 221.583 56.3749 221.653C56.7012 222.252 56.8913 222.806 56.9798 223.255C56.525 222.758 55.9351 221.933 55.2379 220.654C53.6338 217.711 51.5623 212.737 49.8737 208.442C49.0341 206.306 48.2968 204.358 47.7694 202.944C47.5057 202.237 47.2946 201.663 47.1496 201.267C47.0771 201.069 47.0211 200.916 46.9833 200.812L46.9405 200.694L46.9297 200.664L46.9271 200.656L46.9265 200.655L46.9263 200.654L45.7103 201.093L46.9263 200.654L46.8319 200.393L46.6383 200.193C42.4351 195.858 40.3257 191.896 39.5347 188.429C38.7467 184.974 39.2467 181.921 40.4132 179.347C41.5871 176.756 43.4461 174.632 45.3782 173.101C46.9351 171.868 48.4657 171.077 49.6373 170.715L59.0068 186.8L49.3089 195.673L48.7118 196.219L48.9425 196.995L50.1815 196.627ZM57.006 224.111C57.0059 224.111 57.0064 224.11 57.0074 224.107C57.0065 224.11 57.006 224.111 57.006 224.111Z" fill="#323232" stroke="#323232" stroke-width="2.58523"/>
<path d="M53.2185 153.89L53.2192 153.889C58.3228 147.832 64.0301 145.534 69.4263 145.403C74.8696 145.27 80.1211 147.343 84.2208 150.25C86.0187 151.536 87.1728 153.609 87.8436 156.17C88.5139 158.729 88.6683 161.657 88.558 164.467C88.4481 167.268 88.078 169.893 87.7334 171.823C87.5615 172.786 87.3967 173.572 87.2755 174.114C87.2578 174.194 87.241 174.268 87.2252 174.336L57.1372 187.363C56.8259 186.63 56.3926 185.579 55.8972 184.292C54.8915 181.679 53.6357 178.107 52.6263 174.254C51.6143 170.391 50.8647 166.301 50.8402 162.637C50.8154 158.942 51.5293 155.891 53.2185 153.89Z" fill="#323232" stroke="#323232" stroke-width="2.58523"/>
<path d="M55.4596 220.749L55.4596 220.749L55.4621 220.753C58.1858 224.782 59.0003 228.129 59.1607 230.412C59.2413 231.559 59.1577 232.45 59.0594 233.038C59.0548 233.065 59.0501 233.092 59.0454 233.119C58.2742 233.076 57.4014 232.665 56.4173 231.789C55.1347 230.646 53.8842 228.897 52.7882 226.912C51.6999 224.941 50.8058 222.816 50.2088 220.99C49.9103 220.078 49.6915 219.257 49.5588 218.58C49.4206 217.876 49.3951 217.422 49.4189 217.202C49.4655 216.77 49.5993 216.724 49.6426 216.709C49.645 216.708 49.6471 216.707 49.6489 216.706C49.8075 216.645 50.217 216.607 50.9251 216.864C52.3065 217.364 54.1112 218.739 55.4596 220.749Z" stroke="#323232" stroke-width="2.58523"/>
<path d="M129.738 196.886C131.573 198.99 131.848 202.696 130.615 206.29C129.532 209.449 127.438 212.065 124.882 213.086C124.824 212.934 124.761 212.768 124.693 212.588C124.318 211.589 123.815 210.197 123.305 208.625C122.273 205.442 121.263 201.664 121.155 198.91C121.082 196.499 122.334 195.039 123.887 194.579C125.476 194.108 127.735 194.59 129.738 196.886Z" stroke="#323232" stroke-width="2.58523"/>
<path d="M60.2112 234.271L60.2111 234.271L60.2111 234.27L60.1911 234.162L60.1528 234.058L54.0247 217.45C54.4823 217.69 55.1394 218.203 55.9685 219.293L55.9685 219.293L55.9718 219.297C58.1242 222.102 61.8857 226.675 65.6825 230.722C67.58 232.745 69.5046 234.655 71.2538 236.153C72.9525 237.607 74.6465 238.815 76.0609 239.232C81.6206 240.869 88.3758 240.295 94.5605 238.91C100.774 237.519 106.584 235.271 110.345 233.392C112.854 232.141 114.516 229.947 115.631 227.382C116.741 224.826 117.346 221.816 117.702 218.769C118.058 215.716 118.171 212.549 118.258 209.668C118.264 209.448 118.271 209.231 118.277 209.016C118.356 206.369 118.426 204.026 118.65 202.185C118.816 200.836 119.032 199.816 119.254 199.05L123.3 214.919L123.337 215.066L123.408 215.2C127.747 223.464 128.477 229.039 127.536 232.972C126.601 236.876 123.946 239.46 120.772 241.593C116.477 244.477 109.215 247.096 101.033 249.383C92.8947 251.657 84.0042 253.562 76.5561 255.071L76.5536 255.071C73.675 255.66 71.2811 254.8 69.2236 253.084C67.1249 251.334 65.4049 248.705 64.0408 245.882C62.6843 243.074 61.7243 240.168 61.1024 237.951C60.7923 236.846 60.5683 235.919 60.4222 235.272C60.3492 234.948 60.2958 234.694 60.2609 234.523C60.2435 234.437 60.2307 234.373 60.2225 234.33L60.2135 234.283L60.2115 234.273L60.2112 234.271Z" fill="#323232" stroke="#323232" stroke-width="2.58523"/>
<path d="M80.8291 204.485L81.8208 218.429L90.6952 215.361" stroke="#323232" stroke-width="2.58523" stroke-miterlimit="10" stroke-linecap="round" stroke-linejoin="round"/>
<path d="M88.78 230.138L88.78 230.138L88.7843 230.131C89.217 229.439 90.2435 228.436 91.7504 227.271C93.2187 226.135 95.0238 224.935 96.8794 223.835C98.735 222.735 100.616 221.75 102.232 221.039C103.913 220.3 105.121 219.941 105.711 219.925C105.879 219.92 106.232 219.982 106.807 220.215C107.356 220.437 108.005 220.773 108.728 221.201C110.173 222.058 111.812 223.224 113.371 224.416C114.924 225.603 116.374 226.796 117.437 227.694C117.685 227.903 117.911 228.096 118.113 228.269L114.716 231.565L105.456 224.656L104.298 223.791L103.568 225.038L103.568 225.039L103.568 225.039L103.567 225.039L103.567 225.039L103.564 225.045L103.548 225.072C103.533 225.097 103.51 225.136 103.479 225.186C103.417 225.287 103.324 225.435 103.205 225.619C102.967 225.986 102.625 226.489 102.215 227.032C101.362 228.157 100.327 229.294 99.3741 229.843C98.2936 230.466 96.6313 230.725 95.0799 230.792C94.333 230.824 93.6637 230.81 93.1815 230.788C92.9411 230.776 92.749 230.763 92.6192 230.753C92.5543 230.748 92.5051 230.744 92.4733 230.741L92.439 230.738L92.4322 230.737L92.432 230.737L92.4318 230.737L92.4315 230.737L92.4312 230.737L90.6838 230.557L91.0326 232.28L93.1146 242.561L88.9509 245.041C88.9329 244.923 88.9144 244.801 88.8955 244.675C88.6928 243.314 88.4466 241.467 88.2707 239.514C88.0943 237.555 87.9917 235.521 88.067 233.778C88.1047 232.906 88.1858 232.133 88.3154 231.492C88.4479 230.837 88.6158 230.397 88.78 230.138Z" fill="#323232" stroke="#323232" stroke-width="2.58523"/>
<path d="M60.7752 204.64C60.7752 204.64 61.0135 198.77 67.613 200.346" stroke="#323232" stroke-width="2.58523" stroke-miterlimit="10" stroke-linecap="round" stroke-linejoin="round"/>
<path d="M93.3518 190.943C93.3518 190.943 95.7788 186.149 100.708 190.171" stroke="#323232" stroke-width="2.58523" stroke-miterlimit="10" stroke-linecap="round" stroke-linejoin="round"/>
<path d="M67.0625 209.699C67.3052 209.465 68.1201 208.94 69.4381 208.716" stroke="#323232" stroke-width="3.10228" stroke-linecap="round"/>
<path d="M96.7305 199.306C97.0434 199.172 98.0012 198.969 99.3295 199.225" stroke="#323232" stroke-width="3.10228" stroke-linecap="round"/>
<path d="M116.154 301.822C115.252 300.896 115.252 300.896 115.252 300.896L115.252 300.895L115.254 300.894L115.26 300.888L115.285 300.863L115.384 300.767L115.765 300.396C116.097 300.073 116.576 299.606 117.17 299.028C118.358 297.872 120.003 296.271 121.834 294.492C125.418 291.009 129.713 286.842 132.669 283.995C134.163 280.537 134.732 278.8 134.659 277.453C134.591 276.193 133.943 275.094 132.085 272.889C132.073 272.875 132.061 272.861 132.05 272.846C131.858 272.598 131.701 272.518 131.596 272.487C131.481 272.452 131.309 272.44 131.046 272.511C130.476 272.665 129.751 273.133 128.968 273.837C128.889 273.908 128.81 273.981 128.732 274.054C127.942 275.063 127.058 276.097 126.078 277.156C125.618 277.654 124.851 277.711 124.321 277.287C123.792 276.863 123.68 276.103 124.065 275.544L125.129 276.278C124.065 275.544 124.065 275.544 124.065 275.544L124.066 275.543L124.067 275.541L124.071 275.535L124.085 275.515C124.092 275.506 124.1 275.494 124.109 275.481C124.117 275.47 124.126 275.457 124.136 275.443C124.179 275.383 124.242 275.296 124.321 275.188C124.48 274.973 124.709 274.671 124.991 274.322C125.459 273.742 126.09 273.011 126.809 272.316C129.57 268.756 130.909 265.736 131.211 263.147C131.581 259.986 130.429 257.249 127.951 254.684C126.707 254.057 125.716 254.152 124.859 254.569C123.87 257.268 122.159 260.262 119.385 263.094C118.971 263.517 118.323 263.604 117.812 263.307C117.3 263.009 117.056 262.402 117.219 261.833L118.462 262.189C117.219 261.833 117.219 261.833 117.22 261.832L117.22 261.831L117.221 261.828L117.224 261.819L117.233 261.786C117.241 261.759 117.253 261.721 117.268 261.672C117.298 261.575 117.342 261.436 117.399 261.262C117.515 260.915 117.687 260.427 117.915 259.856C118.367 258.72 119.055 257.216 119.983 255.815C120.697 254.738 121.601 253.648 122.713 252.852C123.487 250.382 123.537 248.373 123.341 247.392C123.282 247.096 123.043 246.609 122.547 246.117C122.066 245.64 121.409 245.223 120.624 245.011C119.153 244.613 116.935 244.867 114.287 247.531C114.112 247.79 113.945 248.034 113.79 248.261C113.401 248.829 113.08 249.291 112.856 249.612C112.744 249.772 112.656 249.897 112.596 249.982L112.527 250.079L112.509 250.105L112.505 250.111L112.503 250.113L112.503 250.114C112.503 250.114 112.503 250.114 112.088 249.819L112.503 250.114C112.436 250.208 112.357 250.293 112.267 250.366L111.947 249.973C112.267 250.366 112.267 250.366 112.267 250.366L112.267 250.366L112.266 250.367L112.263 250.369L112.253 250.377L112.218 250.406C112.204 250.417 112.188 250.43 112.17 250.444C112.147 250.463 112.121 250.484 112.092 250.507C111.988 250.589 111.844 250.702 111.69 250.818C111.538 250.933 111.363 251.06 111.2 251.169C111.118 251.224 111.026 251.282 110.934 251.334C110.86 251.375 110.709 251.456 110.527 251.509C110.447 251.532 110.24 251.587 109.98 251.557C109.669 251.522 109.191 251.341 108.94 250.821C108.741 250.409 108.818 250.037 108.848 249.916C108.885 249.761 108.943 249.639 108.979 249.57C109.105 249.325 109.321 249.053 109.538 248.797C110.01 248.239 110.863 247.325 112.279 245.885C112.944 244.902 113.727 243.723 114.53 242.468C115.603 240.792 116.706 238.992 117.613 237.346C118.536 235.673 119.204 234.25 119.469 233.3C119.506 233.17 119.562 233.046 119.637 232.933C121.84 229.612 121.595 226.843 120.736 225.244C120.292 224.419 119.701 223.919 119.189 223.715C118.709 223.523 118.32 223.584 118.003 223.832C117.726 224.05 117.085 224.674 116.11 225.694C115.163 226.685 113.961 227.983 112.596 229.483C109.865 232.484 106.493 236.274 103.21 239.996C99.9269 243.718 96.7348 247.369 94.3632 250.09C93.1774 251.45 92.197 252.578 91.513 253.365C91.171 253.759 90.9031 254.068 90.7208 254.278L90.5129 254.518L90.4598 254.579L90.4463 254.594L90.443 254.598L90.4421 254.599C90.442 254.599 90.4419 254.6 89.4649 253.753L90.4419 254.6C90.0039 255.105 89.2527 255.193 88.7098 254.802L86.1844 252.985C85.9005 252.78 85.7115 252.47 85.6606 252.124C85.0782 248.162 84.5488 245.233 84.0479 243.074C83.543 240.898 83.0834 239.579 82.6693 238.793C82.2639 238.023 81.9933 237.932 81.926 237.911C81.7636 237.862 81.5378 237.876 80.8618 238.011C80.1594 238.151 78.4577 239.132 76.9571 241.941C75.4854 244.696 74.2731 249.116 74.5029 255.816C74.7518 262.643 75.2504 266.86 75.6783 269.349C75.892 270.593 76.0872 271.399 76.2225 271.88C76.2901 272.121 76.3425 272.278 76.3743 272.368C76.3902 272.413 76.4009 272.44 76.4058 272.453L76.4044 272.45L76.4032 272.447L76.4026 272.446C76.4022 272.445 76.4019 272.444 75.222 272.972L76.4019 272.444C76.4039 272.449 76.406 272.453 76.408 272.458C76.5687 272.829 76.547 273.253 76.3486 273.606C76.2376 273.803 76.071 274.321 75.9189 275.294C75.7742 276.219 75.6612 277.421 75.5801 278.873C75.4179 281.775 75.3872 285.586 75.4562 290.002C75.5941 298.828 76.1287 309.988 76.7816 320.955C77.4342 331.92 78.204 342.677 78.8107 350.695C79.1141 354.704 79.3766 358.027 79.5633 360.347C79.6567 361.508 79.731 362.417 79.7821 363.037C79.8076 363.346 79.8272 363.584 79.8405 363.743L79.8556 363.924L79.8594 363.97L79.8604 363.981L79.8606 363.984C79.8607 363.984 79.8607 363.985 78.5726 364.093M116.154 301.822C114.968 302.337 114.968 302.337 114.968 302.337L114.969 302.34L114.974 302.35L114.993 302.395C115.011 302.435 115.036 302.495 115.071 302.576C115.139 302.736 115.241 302.976 115.373 303.291C115.636 303.921 116.021 304.851 116.502 306.047C117.463 308.441 118.809 311.899 120.345 316.151C123.418 324.659 127.246 336.333 130.273 349.011C133.302 361.698 135.516 375.339 135.39 387.796C135.264 400.278 132.79 411.391 126.625 419.197L126.625 419.197C118.981 428.882 110.068 434.415 100.227 436.777C90.3609 439.145 79.4664 438.347 67.8549 435.196C62.9915 433.876 57.4845 430.939 52.0644 427.241C46.6594 423.553 41.4131 419.158 37.0792 414.996C32.7299 410.818 29.3616 406.934 27.6664 404.277C27.2455 403.617 26.9475 403.064 26.7633 402.622C26.7215 402.522 26.6878 402.433 26.6607 402.355C26.6879 402.36 26.7163 402.366 26.7462 402.373C27.2112 402.478 27.6962 402.318 28.0082 401.958L28.0086 401.957L28.0104 401.955L28.0187 401.946L28.0528 401.907C28.0833 401.872 28.1291 401.819 28.1898 401.75C28.3111 401.612 28.4913 401.408 28.7253 401.146C29.1933 400.621 29.8761 399.866 30.7317 398.943C32.4436 397.097 34.844 394.588 37.5984 391.933C43.1577 386.575 49.9874 380.796 55.4729 378.528C61.6312 375.981 67.5938 372.633 72.004 369.932C74.2124 368.58 76.0388 367.386 77.3145 366.528C77.9526 366.1 78.4532 365.755 78.7954 365.517C78.9666 365.398 79.0981 365.305 79.1875 365.242L79.2895 365.169L79.3162 365.15L79.3233 365.145L79.3253 365.144L79.3259 365.143C79.3261 365.143 79.3263 365.143 78.5726 364.093M116.154 301.822L115.252 300.896C114.867 301.271 114.754 301.844 114.968 302.337L116.154 301.822ZM78.5726 364.093L79.3263 365.143C79.6959 364.878 79.8988 364.438 79.8607 363.985L78.5726 364.093Z" fill="#F94E1E" stroke="#323232" stroke-width="2.58523" stroke-linejoin="round"/>
<g clip-path="url(#clip1_2889_26268)">
<circle r="31.4863" transform="matrix(-0.80456 0.593871 0.593871 0.80456 87.8466 63.571)" fill="#7687C6"/>
<path d="M71.1626 105.258L71.164 105.257C72.2717 104.184 73.3812 103.115 74.4902 102.047C76.7067 99.9122 78.9216 97.7787 81.1173 95.6167C81.7458 94.9895 82.4162 94.8073 83.2202 94.7778M71.1626 105.258L83.2334 95.1149M71.1626 105.258C70.6351 105.776 70.0925 106.29 69.5082 106.843M71.1626 105.258L69.5082 106.843M83.2202 94.7778C83.2205 94.7778 83.2207 94.7778 83.221 94.7778L83.2334 95.1149M83.2202 94.7778C83.2202 94.7778 83.2202 94.7778 83.2201 94.7778L83.2334 95.1149M83.2202 94.7778C93.3439 94.3806 101.455 90.1619 107.291 82.0004L107.566 82.1966M83.2334 95.1149C93.4569 94.7138 101.666 90.4465 107.566 82.1966M107.566 82.1966L107.291 82.0003C116.068 69.732 114.762 53.1334 104.247 41.7983C99.1778 36.3385 92.954 33.0631 85.6855 31.9718C71.9045 29.94 59.0754 36.6495 53.2811 49.269C48.4038 59.8932 49.3695 70.4225 55.8396 80.4721C58.995 85.3716 63.3177 89.0117 68.537 91.5748L68.537 91.5748C68.8864 91.7464 69.1584 91.9624 69.3366 92.2613C69.5136 92.5581 69.576 92.8999 69.5754 93.2821L69.5754 93.2846C69.5364 97.7804 69.5239 102.281 69.5114 106.782L69.5114 106.784L69.5114 106.797L69.5104 106.809C69.5095 106.82 69.5088 106.832 69.5082 106.843M107.566 82.1966L69.5082 106.843M109.842 45.1866L109.83 45.1646L109.815 45.1446L109.81 45.1378L109.805 45.131L109.8 45.1242L109.795 45.1174L109.79 45.1106L109.785 45.1039L109.78 45.0971L109.775 45.0903L109.77 45.0835L109.765 45.0767L109.76 45.0699L109.755 45.0631L109.75 45.0563L109.745 45.0495L109.74 45.0427L109.735 45.0359L109.73 45.0291L109.725 45.0223L109.72 45.0155L109.715 45.0087L109.71 45.0019L109.705 44.9951L109.7 44.9883L109.695 44.9815L109.69 44.9747L109.685 44.9679L109.68 44.9611L109.675 44.9543L109.67 44.9475L109.665 44.9407L109.66 44.9339L109.655 44.9271L109.65 44.9203L109.645 44.9135L109.64 44.9067L109.635 44.8999L109.63 44.8931L109.625 44.8863L109.62 44.8795L109.615 44.8727L109.61 44.8659L109.605 44.8591L109.6 44.8523L109.595 44.8455L109.59 44.8387L109.585 44.8319L109.58 44.8251L109.574 44.8183L109.569 44.8115L109.564 44.8047L109.559 44.7979L109.554 44.7911L109.549 44.7843L109.544 44.7776L109.539 44.7708L109.534 44.764L109.529 44.7572L109.524 44.7504L109.519 44.7436L109.514 44.7368L109.509 44.73L109.504 44.7232L109.499 44.7164L109.494 44.7096L109.489 44.7028L109.484 44.696L109.479 44.6892L109.474 44.6824L109.469 44.6756L109.464 44.6688L109.459 44.662L109.454 44.6552L109.449 44.6484L109.444 44.6416L109.439 44.6348L109.434 44.628L109.429 44.6212L109.424 44.6144L109.419 44.6076L109.414 44.6008L109.409 44.594L109.404 44.5872L109.399 44.5804L109.394 44.5736L109.389 44.5668L109.384 44.56L109.379 44.5532L109.374 44.5464L109.369 44.5396L109.364 44.5328L109.359 44.526L109.354 44.5192L109.349 44.5124L109.344 44.5056L109.339 44.4988L109.334 44.492L109.329 44.4852L109.324 44.4784L109.319 44.4716L109.314 44.4649L109.309 44.4581L109.304 44.4513L109.299 44.4445L109.293 44.4377L109.288 44.4309L109.283 44.4241L109.278 44.4173L109.273 44.4105L109.268 44.4037L109.263 44.3969L109.258 44.3901L109.253 44.3833L109.248 44.3765L109.243 44.3697L109.238 44.3629L109.233 44.3561L109.228 44.3493L109.223 44.3425L109.218 44.3357L109.213 44.3289L109.208 44.3221L109.203 44.3153L109.198 44.3085L109.193 44.3017L109.188 44.2949L109.183 44.2881L109.178 44.2813L109.173 44.2745L109.168 44.2677L109.163 44.2609L109.158 44.2541L109.153 44.2473L109.148 44.2405L109.143 44.2337L109.138 44.2269L109.133 44.2201L109.128 44.2133L109.123 44.2065L109.118 44.1997L109.113 44.1929L109.108 44.1861L109.103 44.1793L109.098 44.1725L109.093 44.1657L109.088 44.1589L109.083 44.1521L109.078 44.1453L109.073 44.1386L109.068 44.1318L109.063 44.125L109.058 44.1182L109.053 44.1114L109.048 44.1046L109.043 44.0978L109.038 44.091L109.033 44.0842L109.028 44.0774L109.023 44.0706L109.018 44.0638L109.013 44.057L109.007 44.0502L109.002 44.0434L108.997 44.0366L108.992 44.0298L108.987 44.023L108.982 44.0162L108.977 44.0094L108.972 44.0026L108.967 43.9958L108.962 43.989L108.957 43.9822L108.952 43.9754L108.947 43.9686L108.942 43.9618L108.937 43.955L108.932 43.9482L108.927 43.9414L108.922 43.9346L108.917 43.9278L108.912 43.921L108.907 43.9142L108.902 43.9074L108.897 43.9006L108.892 43.8938L108.887 43.887L108.882 43.8802L108.877 43.8734L108.872 43.8666L108.867 43.8598L108.862 43.853L108.857 43.8462L108.852 43.8394L108.847 43.8326L108.842 43.8258L108.837 43.8191L108.832 43.8123L108.827 43.8055L108.822 43.7987L108.817 43.7919L108.812 43.7851L108.807 43.7783L108.802 43.7715L108.797 43.7647L108.792 43.7579L108.787 43.7511L108.782 43.7443L108.777 43.7375L108.772 43.7307L108.767 43.7239L108.762 43.7171L108.757 43.7103L108.752 43.7035L108.747 43.6967L108.742 43.6899L108.737 43.6831L108.732 43.6763L108.726 43.6695L108.721 43.6627L108.716 43.6559L108.711 43.6491L108.706 43.6423L108.701 43.6355L108.696 43.6287L108.691 43.6219L108.686 43.6151L108.681 43.6083L108.676 43.6015L108.671 43.5947L108.666 43.5879L108.661 43.5811L108.656 43.5743L108.651 43.5675L108.646 43.5607L108.641 43.5539L108.636 43.5471L108.631 43.5403L108.626 43.5335L108.621 43.5267L108.616 43.5199L108.611 43.5131L108.606 43.5063L108.601 43.4995L108.596 43.4928L108.591 43.486L108.586 43.4792L108.581 43.4724L108.576 43.4656L108.571 43.4588L108.566 43.452L108.561 43.4452L108.556 43.4384L108.551 43.4316L108.546 43.4248L108.541 43.418L108.536 43.4112L108.531 43.4044L108.526 43.3976L108.521 43.3908L108.516 43.384L108.511 43.3772L108.506 43.3704L108.501 43.3636L108.496 43.3568L108.491 43.35L108.486 43.3432L108.481 43.3364L108.476 43.3296L108.471 43.3228L108.466 43.316L108.461 43.3092L108.456 43.3024L108.451 43.2956L108.446 43.2888L108.44 43.282L108.435 43.2752L108.43 43.2684L108.425 43.2616L108.42 43.2548L108.415 43.248L108.41 43.2412L108.405 43.2344L108.4 43.2276L108.395 43.2208L108.39 43.214L108.385 43.2072L108.38 43.2004L108.375 43.1936L108.37 43.1868L108.365 43.1801L108.36 43.1733L108.355 43.1665L108.35 43.1597L108.345 43.1529L108.34 43.1461L108.335 43.1393L108.33 43.1325L108.325 43.1257L108.32 43.1189L108.315 43.1121L108.31 43.1053L108.305 43.0985L108.3 43.0917L108.295 43.0849L108.29 43.0781L108.285 43.0713L108.28 43.0645L108.275 43.0577L108.27 43.0509L108.265 43.0441L108.26 43.0373L108.255 43.0305L108.25 43.0237L108.245 43.0169L108.24 43.0101L108.235 43.0033L108.23 42.9965L108.225 42.9897L108.22 42.9829L108.215 42.9761L108.21 42.9693L108.205 42.9625L108.2 42.9557L108.195 42.9489L108.19 42.9421L108.185 42.9353L108.18 42.9285L108.175 42.9217L108.17 42.9149L108.165 42.9081L108.159 42.9013L108.154 42.8945L108.149 42.8877L108.144 42.8809L108.139 42.8741L108.134 42.8673L108.129 42.8605L108.124 42.8538L108.119 42.847L108.114 42.8402L108.109 42.8334L108.104 42.8266L108.099 42.8198L108.094 42.813L108.089 42.8062L108.084 42.7994L108.079 42.7926L108.074 42.7858L108.069 42.779L108.064 42.7722L108.059 42.7654L108.054 42.7586L108.049 42.7518L108.044 42.745L108.039 42.7382L108.034 42.7314L108.029 42.7246L108.024 42.7178L108.019 42.711L108.014 42.7042L108.009 42.6974L108.004 42.6906L107.999 42.6838L107.994 42.677L107.989 42.6702L107.984 42.6634L107.979 42.6566L107.974 42.6498L107.969 42.643L107.964 42.6362L107.959 42.6294L107.954 42.6226L107.949 42.6158L107.944 42.609L107.939 42.6022L107.934 42.5954L107.929 42.5886L107.924 42.5818L107.919 42.575L107.914 42.5682L107.909 42.5614L107.904 42.5546L107.899 42.5478L107.894 42.541L107.889 42.5343L107.884 42.5275L107.878 42.5207L107.873 42.5139L107.868 42.5071L107.863 42.5003L107.858 42.4935L107.853 42.4867L107.848 42.4799L107.843 42.4731L107.838 42.4663L107.833 42.4595L107.828 42.4527L107.823 42.4459L107.818 42.4391L107.813 42.4323L107.808 42.4255L107.803 42.4187L107.798 42.4119L107.793 42.4051L107.788 42.3983L107.783 42.3915L107.778 42.3847L107.773 42.3779L107.768 42.3711L107.763 42.3643L107.758 42.3575L107.753 42.3507L107.748 42.3439L107.743 42.3371L107.738 42.3303L107.733 42.3235L107.728 42.3167L107.723 42.3099L107.718 42.3031L107.713 42.2963L107.708 42.2895L107.703 42.2827L107.698 42.2759L107.693 42.2691L107.688 42.2623L107.683 42.2555L107.678 42.2487L107.673 42.2419L107.668 42.2351L107.663 42.2283L107.658 42.2215L107.653 42.2147L107.648 42.208L107.643 42.2012L107.638 42.1944L107.633 42.1876L107.628 42.1808L107.623 42.174L107.618 42.1672L107.613 42.1604L107.608 42.1536L107.603 42.1468L107.598 42.14L107.592 42.1332L107.587 42.1264L107.582 42.1196L107.577 42.1128L107.572 42.106L107.567 42.0992L107.562 42.0924L107.557 42.0856L107.552 42.0788L107.547 42.072L107.542 42.0652L107.537 42.0584L107.532 42.0516L107.527 42.0448L107.522 42.038L107.517 42.0312L107.512 42.0244L107.507 42.0176L107.502 42.0108L107.497 42.004L107.492 41.9972L107.487 41.9904L107.482 41.9836L107.477 41.9768L107.472 41.97L107.467 41.9632L107.462 41.9564L107.457 41.9496L107.452 41.9428L107.447 41.936L107.442 41.9292L107.437 41.9224L107.432 41.9156L107.427 41.9088L107.422 41.902L107.417 41.8952L107.412 41.8885L107.407 41.8817L107.402 41.8749L107.397 41.8681L107.392 41.8613L107.387 41.8545L107.382 41.8477L107.377 41.8409L107.372 41.8341L107.367 41.8273L107.362 41.8205L107.357 41.8137L107.352 41.8069L107.347 41.8001L107.342 41.7933L107.337 41.7865L107.332 41.7797L107.327 41.7729L107.322 41.7661L107.317 41.7593L107.311 41.7525L107.306 41.7457L107.301 41.7389L107.296 41.7321L107.291 41.7253L107.286 41.7185L107.281 41.7117L107.276 41.7049L107.271 41.6981L107.266 41.6913L107.261 41.6845L107.256 41.6777L107.251 41.6709L107.246 41.6641L107.23 41.6422L107.211 41.6231C107.121 41.5361 107.029 41.4527 106.943 41.3746C106.854 41.295 106.772 41.2205 106.694 41.1443C106.293 40.7519 105.896 40.3445 105.494 39.9339C104.568 38.9857 103.625 38.02 102.594 37.1803C91.5283 28.1224 76.4705 26.7762 64.3907 33.7849C56.7977 38.1824 51.7403 44.7189 49.3576 53.2357L49.3575 53.2358C44.9125 69.1399 52.2106 85.5953 66.9717 93.3452L66.9717 93.3452L66.9786 93.3487C67.1327 93.4251 67.1973 93.4882 67.2306 93.5417C67.2635 93.5945 67.2912 93.6784 67.2903 93.847C67.2615 97.0949 67.2477 100.332 67.234 103.567L67.234 103.567L67.234 103.57C67.237 104.324 67.2316 105.082 67.2261 105.843C67.2179 106.989 67.2097 108.141 67.2302 109.289L67.2302 109.289L67.2302 109.292C67.2362 109.513 67.3073 109.768 67.405 109.979C67.4549 110.087 67.5169 110.194 67.5908 110.287C67.661 110.375 67.762 110.474 67.8968 110.528L67.8982 110.528C68.1618 110.632 68.4373 110.569 68.6326 110.507C68.7372 110.474 68.8412 110.433 68.9336 110.397L68.9528 110.389C69.0411 110.354 69.1182 110.324 69.1916 110.299L69.2146 110.292L69.2363 110.281C69.3363 110.23 69.4131 110.16 69.4652 110.107C69.4924 110.079 69.5176 110.052 69.5381 110.029L69.5452 110.021C69.562 110.003 69.5752 109.988 69.5878 109.975L70.3404 109.246C74.438 105.276 78.524 101.317 82.6436 97.3765C82.8197 97.2137 83.1462 97.0973 83.4263 97.0871L83.4272 97.087C93.0552 96.7076 101.244 93.0372 107.339 85.6382L107.34 85.6377C111.801 80.2007 114.4 74.4109 115.164 68.3193C115.927 62.2287 114.853 55.8584 112.005 49.2631L112.004 49.2619C111.591 48.3157 111.074 47.3969 110.564 46.4935C110.317 46.0547 110.072 45.6196 109.842 45.1866Z" fill="#323232" stroke="#323232" stroke-width="0.674707"/>
<path d="M77.4735 69.2809L77.4804 69.288L77.4873 69.2949C78.2981 70.1057 79.3491 70.4647 80.5042 70.4647C81.6189 70.4647 82.6365 70.1283 83.4524 69.3865C84.3158 68.6016 84.691 67.5423 84.691 66.3775V65.3569C84.691 65.016 84.8142 64.6493 85.2008 64.2285C85.6963 63.6906 86.3124 63.1792 87.0611 62.6995C87.9443 62.1451 88.8161 61.532 89.6765 60.8608C90.6624 60.0918 91.4748 59.0954 92.1266 57.9036L92.1267 57.9036L92.1306 57.8963C92.8267 56.6035 93.1541 55.1365 93.1541 53.5335C93.1541 50.5067 91.8396 47.9253 89.3676 45.84C86.9146 43.7566 83.9703 42.7256 80.6038 42.7256C77.5464 42.7256 74.8144 43.6331 72.4587 45.4543C70.0476 47.3012 68.7643 49.7318 68.7257 52.6704L68.7256 52.6788V52.6872C68.7256 53.8193 69.0945 54.8601 69.9747 55.6027L69.9837 55.6104L69.9929 55.6178C70.7825 56.2594 71.7335 56.5503 72.763 56.5503C73.5442 56.5503 74.299 56.3865 74.9548 55.9782C75.6201 55.5641 76.0876 54.958 76.3816 54.2408L76.449 54.0764L76.4688 53.8998C76.6025 52.7098 77.0667 51.8019 77.845 51.0974C78.6571 50.3769 79.5747 50.0287 80.6536 50.0287C81.768 50.0287 82.6483 50.3854 83.3774 51.0897L83.3773 51.0897L83.3851 51.0971C84.1232 51.7983 84.4819 52.6323 84.4819 53.6828C84.4819 54.4201 84.2788 55.0445 83.8774 55.5992C83.3936 56.2681 82.8091 56.8537 82.1181 57.3576L82.1134 57.361L82.1087 57.3644L82.1041 57.3678L82.0994 57.3712L82.0947 57.3746L82.0901 57.378L82.0854 57.3814L82.0807 57.3848L82.0761 57.3882L82.0714 57.3916L82.0667 57.395L82.0621 57.3984L82.0574 57.4018L82.0527 57.4052L82.0481 57.4086L82.0434 57.412L82.0387 57.4154L82.0341 57.4188L82.0294 57.4222L82.0247 57.4256L82.0201 57.429L82.0154 57.4324L82.0107 57.4358L82.0061 57.4392L82.0014 57.4426L81.9967 57.446L81.992 57.4494L81.9874 57.4528L81.9827 57.4562L81.978 57.4596L81.9734 57.463L81.9687 57.4665L81.964 57.4699L81.9594 57.4733L81.9547 57.4767L81.95 57.4801L81.9454 57.4835L81.9407 57.4869L81.936 57.4903L81.9314 57.4937L81.9267 57.4971L81.922 57.5005L81.9174 57.5039L81.9127 57.5073L81.908 57.5107L81.9034 57.5141L81.8987 57.5175L81.894 57.5209L81.8894 57.5243L81.8847 57.5277L81.88 57.5311L81.8754 57.5345L81.8707 57.5379L81.866 57.5413L81.8614 57.5447L81.8567 57.5481L81.852 57.5515L81.8474 57.5549L81.8427 57.5583L81.838 57.5617L81.8334 57.5651L81.8287 57.5685L81.824 57.5719L81.8194 57.5754L81.8147 57.5788L81.81 57.5822L81.8054 57.5856L81.8007 57.589L81.796 57.5924L81.7914 57.5958L81.7867 57.5992L81.782 57.6026L81.7774 57.606L81.7727 57.6094L81.768 57.6128L81.7634 57.6162L81.7587 57.6196L81.754 57.623L81.7494 57.6264L81.7447 57.6298L81.74 57.6332L81.7354 57.6366L81.7307 57.64L81.726 57.6434L81.7214 57.6468L81.7167 57.6502L81.712 57.6536L81.7074 57.657L81.7027 57.6604L81.698 57.6638L81.6933 57.6672L81.6887 57.6706L81.684 57.674L81.6793 57.6774L81.6747 57.6808L81.67 57.6843L81.6653 57.6877L81.6607 57.6911L81.656 57.6945L81.6513 57.6979L81.6467 57.7013L81.642 57.7047L81.6373 57.7081L81.6327 57.7115L81.628 57.7149L81.6233 57.7183L81.6187 57.7217L81.614 57.7251L81.6093 57.7285L81.6047 57.7319L81.6 57.7353L81.5953 57.7387L81.5907 57.7421L81.586 57.7455L81.5813 57.7489L81.5767 57.7523L81.572 57.7557L81.5673 57.7591L81.5627 57.7625L81.558 57.7659L81.5533 57.7693L81.5487 57.7727L81.544 57.7761L81.5393 57.7795L81.5347 57.7829L81.53 57.7863L81.5253 57.7898L81.5207 57.7932L81.516 57.7966L81.5113 57.8L81.5067 57.8034L81.502 57.8068L81.4973 57.8102L81.4927 57.8136L81.488 57.817L81.4833 57.8204L81.4787 57.8238L81.474 57.8272L81.4693 57.8306L81.4647 57.834L81.46 57.8374L81.4553 57.8408L81.4507 57.8442L81.446 57.8476L81.4413 57.851L81.4367 57.8544L81.432 57.8578L81.4273 57.8612L81.4227 57.8646L81.418 57.868L81.4133 57.8714L81.4087 57.8748L81.404 57.8782L81.3993 57.8816L81.3947 57.885L81.39 57.8884L81.3853 57.8918L81.3806 57.8952L81.376 57.8987L81.3713 57.9021L81.3666 57.9055L81.362 57.9089L81.3573 57.9123L81.3526 57.9157L81.348 57.9191L81.3433 57.9225L81.3386 57.9259L81.334 57.9293L81.3293 57.9327L81.3246 57.9361L81.32 57.9395L81.3153 57.9429L81.3106 57.9463L81.306 57.9497L81.3013 57.9531L81.2966 57.9565L81.292 57.9599L81.2873 57.9633L81.2826 57.9667L81.278 57.9701L81.2733 57.9735L81.2686 57.9769L81.264 57.9803L81.2593 57.9837L81.2546 57.9871L81.25 57.9905L81.2453 57.9939L81.2406 57.9973L81.236 58.0007L81.2313 58.0041L81.2266 58.0076L81.222 58.011L81.2173 58.0144L81.2126 58.0178L81.208 58.0212L81.2033 58.0246L81.1986 58.028L81.194 58.0314L81.1893 58.0348L81.1846 58.0382L81.18 58.0416L81.1753 58.045L81.1706 58.0484L81.166 58.0518L81.1613 58.0552L81.1566 58.0586L81.152 58.062L81.1473 58.0654L81.1426 58.0688L81.138 58.0722L81.1333 58.0756L81.1286 58.079L81.124 58.0824L81.1193 58.0858L81.1146 58.0892L81.11 58.0926L81.1053 58.096L81.1006 58.0994L81.096 58.1028L81.0913 58.1062L81.0866 58.1096L81.082 58.113L81.0773 58.1165L81.0726 58.1199L81.068 58.1233L81.0633 58.1267L81.0586 58.1301L81.0539 58.1335L81.0493 58.1369L81.0446 58.1403L81.0399 58.1437L81.0353 58.1471L81.0306 58.1505L81.0259 58.1539L81.0213 58.1573L81.0166 58.1607L81.0119 58.1641L81.0073 58.1675L81.0026 58.1709L80.9979 58.1743L80.9933 58.1777L80.9886 58.1811L80.9839 58.1845L80.9793 58.1879L80.9746 58.1913L80.9699 58.1947L80.9653 58.1981L80.9606 58.2015L80.9559 58.2049L80.9513 58.2083L80.9466 58.2117L80.9419 58.2151L80.9373 58.2185L80.9326 58.2219L80.9279 58.2254L80.9233 58.2288L80.9186 58.2322L80.9139 58.2356L80.9093 58.239L80.9046 58.2424L80.8999 58.2458L80.8953 58.2492L80.8906 58.2526L80.8859 58.256L80.8813 58.2594L80.8766 58.2628L80.8719 58.2662L80.8673 58.2696L80.8626 58.273L80.8579 58.2764L80.8533 58.2798L80.8486 58.2832L80.8439 58.2866L80.8393 58.29L80.8346 58.2934L80.8299 58.2968L80.8253 58.3002L80.8206 58.3036L80.8159 58.307L80.8113 58.3104L80.8066 58.3138L80.8019 58.3172L80.7973 58.3206L80.7926 58.324L80.7879 58.3274L80.7833 58.3308L80.7786 58.3343L80.7739 58.3377L80.7693 58.3411L80.7646 58.3445L80.7599 58.3479L80.7552 58.3513L80.7506 58.3547L80.7459 58.3581L80.7412 58.3615L80.7366 58.3649L80.7319 58.3683L80.7272 58.3717L80.7226 58.3751L80.7179 58.3785L80.7132 58.3819L80.7086 58.3853L80.7039 58.3887L80.6992 58.3921L80.6946 58.3955L80.6899 58.3989L80.6852 58.4023L80.6806 58.4057L80.6759 58.4091L80.6712 58.4125L80.6666 58.4159L80.6619 58.4193L80.6572 58.4227L80.6526 58.4261L80.6479 58.4295L80.6432 58.4329L80.6386 58.4363L80.6339 58.4397L80.6292 58.4432L80.6246 58.4466L80.6199 58.45L80.6152 58.4534L80.6106 58.4568L80.6059 58.4602L80.6012 58.4636L80.5966 58.467L80.5919 58.4704L80.5872 58.4738L80.5826 58.4772L80.5779 58.4806L80.5732 58.484L80.5686 58.4874L80.5639 58.4908L80.5592 58.4942L80.5546 58.4976L80.5499 58.501L80.5452 58.5044L80.5406 58.5078L80.5359 58.5112L80.5312 58.5146L80.5266 58.518L80.5219 58.5214L80.5172 58.5248L80.5126 58.5282L80.5079 58.5316L80.5032 58.535L80.4986 58.5384L80.4939 58.5418L80.4892 58.5452L80.4846 58.5487L80.4799 58.5521L80.4752 58.5555L80.4706 58.5589L80.4659 58.5623L80.4612 58.5657L80.4566 58.5691L80.4519 58.5725L80.4472 58.5759L80.4425 58.5793L80.4379 58.5827L80.4332 58.5861L80.4285 58.5895L80.4239 58.5929L80.4192 58.5963L80.4145 58.5997L80.4099 58.6031L80.4052 58.6065L80.4005 58.6099L80.3959 58.6133L80.3912 58.6167L80.3865 58.6201L80.3819 58.6235L80.3772 58.6269L80.3725 58.6303L80.3679 58.6337L80.3632 58.6371L80.3585 58.6405L80.3539 58.6439L80.3492 58.6473L80.3445 58.6507L80.3399 58.6541L80.3352 58.6576L80.3305 58.661L80.3259 58.6644L80.3212 58.6678L80.3165 58.6712L80.3119 58.6746L80.3072 58.678L80.3025 58.6814L80.2979 58.6848L80.2932 58.6882L80.2885 58.6916L80.2839 58.695L80.2792 58.6984L80.2745 58.7018L80.2699 58.7052L80.2652 58.7086L80.2605 58.712L80.2559 58.7154L80.2512 58.7188L80.2465 58.7222L80.2419 58.7256L80.2372 58.729L80.2325 58.7324L80.2279 58.7358L80.2232 58.7392L80.2185 58.7426L80.2139 58.746L80.2092 58.7494L80.2045 58.7528L80.1999 58.7562L80.1952 58.7596L80.1905 58.763L80.1859 58.7665L80.1812 58.7699L80.1765 58.7733L80.1719 58.7767L80.1672 58.7801L80.1625 58.7835L80.1579 58.7869L80.1532 58.7903L80.1485 58.7937L80.1439 58.7971L80.1392 58.8005L80.1345 58.8039L80.1298 58.8073L80.1252 58.8107L80.1205 58.8141L80.1158 58.8175L80.1112 58.8209L80.1065 58.8243L80.1018 58.8277L80.0972 58.8311L80.0925 58.8345L80.0878 58.8379L80.0832 58.8413L80.0785 58.8447L80.0738 58.8481L80.0692 58.8515L80.0645 58.8549L80.0598 58.8583L80.0552 58.8617L80.0505 58.8651L80.0458 58.8685L80.0412 58.8719L80.0365 58.8754L80.0318 58.8788L80.0272 58.8822L80.0225 58.8856L80.0178 58.889L80.0132 58.8924L80.0085 58.8958L80.0038 58.8992L79.9992 58.9026L79.9945 58.906L79.9898 58.9094L79.9852 58.9128L79.9805 58.9162L79.9758 58.9196L79.9712 58.923L79.9665 58.9264L79.9618 58.9298L79.9572 58.9332L79.9525 58.9366L79.9478 58.94L79.9432 58.9434L79.9385 58.9468L79.9338 58.9502L79.9292 58.9536L79.9245 58.957L79.9198 58.9604L79.9152 58.9638L79.9105 58.9672L79.9058 58.9706L79.9012 58.974L79.8965 58.9774L79.8918 58.9808L79.8872 58.9843L79.8825 58.9877L79.8778 58.9911L79.8732 58.9945L79.8685 58.9979L79.8638 59.0013L79.8592 59.0047L79.8545 59.0081L79.8498 59.0115L79.8452 59.0149L79.8405 59.0183L79.8358 59.0217L79.8312 59.0251L79.8265 59.0285L79.8218 59.0319L79.8171 59.0353L79.8125 59.0387L79.8078 59.0421L79.8031 59.0455L79.7985 59.0489L79.7938 59.0523L79.7891 59.0557L79.7845 59.0591L79.7798 59.0625L79.7751 59.0659L79.7705 59.0693L79.7658 59.0727L79.7611 59.0761L79.7565 59.0795L79.7518 59.0829L79.7471 59.0863L79.7425 59.0897L79.7378 59.0932L79.7353 59.095C78.8107 59.7513 78.0258 60.5678 77.381 61.5339C76.6691 62.5829 76.3175 63.7706 76.3175 65.0582V66.2779C76.3175 67.4249 76.6811 68.4637 77.4735 69.2809ZM78.9984 84.825L78.9984 84.8251L79.0086 84.8346C79.9996 85.761 81.1955 86.2484 82.5423 86.2484C83.8899 86.2484 85.0828 85.76 86.0613 84.825C87.0539 83.8765 87.5754 82.6831 87.5754 81.3149C87.5754 79.9365 87.0585 78.7328 86.0613 77.7799C85.0828 76.8449 83.8899 76.3565 82.5423 76.3565C81.184 76.3565 79.9813 76.8407 78.9984 77.7799C78.0012 78.7328 77.4843 79.9365 77.4843 81.3149C77.4843 82.6831 78.0058 83.8765 78.9984 84.825Z" stroke="#323232" stroke-width="2.54889"/>
</g>
</g>
<defs>
<clipPath id="clip0_2889_26268">
<rect width="142" height="362" fill="white"/>
</clipPath>
<clipPath id="clip1_2889_26268">
<rect width="108.024" height="110.131" fill="white" transform="matrix(-0.80456 0.593871 0.593871 0.80456 94.2539 -6.87988)"/>
</clipPath>
</defs>
</svg>
