<svg width="575" height="392" viewBox="0 0 575 392" fill="none" xmlns="http://www.w3.org/2000/svg">
<g clip-path="url(#clip0_2913_649)">
<g clip-path="url(#clip1_2913_649)">
<circle r="44.8824" transform="matrix(-1 0 0 1 155.883 176.706)" fill="#7687C6"/>
<mask id="path-2-outside-1_2913_649" maskUnits="userSpaceOnUse" x="113.576" y="120.432" width="105" height="99" fill="black">
<rect fill="white" x="113.576" y="120.432" width="105" height="99"/>
<path d="M114.966 172.745C115.287 174.91 115.447 177.103 115.929 179.213C120.53 199.028 132.434 211.745 151.721 216.623C164.829 219.912 177.187 217.226 188.449 209.58C188.851 209.306 189.439 209.114 189.921 209.169C198.481 210.265 207.014 211.416 215.574 212.567C215.735 212.594 215.922 212.649 216.083 212.622C216.591 212.457 217.26 212.375 217.501 211.991C217.688 211.69 217.501 210.923 217.233 210.539C215.655 208.319 213.996 206.181 212.391 203.989C209.636 200.289 206.881 196.589 204.098 192.889C203.751 192.423 203.724 192.067 203.991 191.546C214.264 170.361 208.753 145.558 190.375 131.224C180.531 123.55 169.323 120.371 157.018 121.741C137.436 123.907 121.466 138.048 116.491 157.617C115.822 160.22 115.581 162.934 115.153 165.592C115.1 165.921 115.019 166.25 114.966 166.579C114.966 168.634 114.966 170.69 114.966 172.745ZM213.943 209.991C212.391 209.799 211 209.635 209.636 209.443C203.109 208.566 196.582 207.743 190.054 206.812C188.958 206.647 188.155 206.949 187.272 207.552C175.208 215.746 162.18 217.802 148.431 213.334C127.753 206.62 115.073 186.257 117.561 164.139C118.764 153.478 123.178 144.352 130.668 136.87C144.9 122.728 165.524 119.521 183.046 129.196C197.785 137.336 205.677 150.381 206.774 167.538C207.309 175.924 205.409 183.845 201.557 191.272C201.102 192.149 201.183 192.807 201.771 193.602C205.623 198.727 209.449 203.879 213.274 209.032C213.488 209.278 213.648 209.58 213.943 209.991Z"/>
</mask>
<path d="M114.966 172.745C115.287 174.91 115.447 177.103 115.929 179.213C120.53 199.028 132.434 211.745 151.721 216.623C164.829 219.912 177.187 217.226 188.449 209.58C188.851 209.306 189.439 209.114 189.921 209.169C198.481 210.265 207.014 211.416 215.574 212.567C215.735 212.594 215.922 212.649 216.083 212.622C216.591 212.457 217.26 212.375 217.501 211.991C217.688 211.69 217.501 210.923 217.233 210.539C215.655 208.319 213.996 206.181 212.391 203.989C209.636 200.289 206.881 196.589 204.098 192.889C203.751 192.423 203.724 192.067 203.991 191.546C214.264 170.361 208.753 145.558 190.375 131.224C180.531 123.55 169.323 120.371 157.018 121.741C137.436 123.907 121.466 138.048 116.491 157.617C115.822 160.22 115.581 162.934 115.153 165.592C115.1 165.921 115.019 166.25 114.966 166.579C114.966 168.634 114.966 170.69 114.966 172.745ZM213.943 209.991C212.391 209.799 211 209.635 209.636 209.443C203.109 208.566 196.582 207.743 190.054 206.812C188.958 206.647 188.155 206.949 187.272 207.552C175.208 215.746 162.18 217.802 148.431 213.334C127.753 206.62 115.073 186.257 117.561 164.139C118.764 153.478 123.178 144.352 130.668 136.87C144.9 122.728 165.524 119.521 183.046 129.196C197.785 137.336 205.677 150.381 206.774 167.538C207.309 175.924 205.409 183.845 201.557 191.272C201.102 192.149 201.183 192.807 201.771 193.602C205.623 198.727 209.449 203.879 213.274 209.032C213.488 209.278 213.648 209.58 213.943 209.991Z" fill="#323232"/>
<path d="M114.966 172.745C115.287 174.91 115.447 177.103 115.929 179.213C120.53 199.028 132.434 211.745 151.721 216.623C164.829 219.912 177.187 217.226 188.449 209.58C188.851 209.306 189.439 209.114 189.921 209.169C198.481 210.265 207.014 211.416 215.574 212.567C215.735 212.594 215.922 212.649 216.083 212.622C216.591 212.457 217.26 212.375 217.501 211.991C217.688 211.69 217.501 210.923 217.233 210.539C215.655 208.319 213.996 206.181 212.391 203.989C209.636 200.289 206.881 196.589 204.098 192.889C203.751 192.423 203.724 192.067 203.991 191.546C214.264 170.361 208.753 145.558 190.375 131.224C180.531 123.55 169.323 120.371 157.018 121.741C137.436 123.907 121.466 138.048 116.491 157.617C115.822 160.22 115.581 162.934 115.153 165.592C115.1 165.921 115.019 166.25 114.966 166.579C114.966 168.634 114.966 170.69 114.966 172.745ZM213.943 209.991C212.391 209.799 211 209.635 209.636 209.443C203.109 208.566 196.582 207.743 190.054 206.812C188.958 206.647 188.155 206.949 187.272 207.552C175.208 215.746 162.18 217.802 148.431 213.334C127.753 206.62 115.073 186.257 117.561 164.139C118.764 153.478 123.178 144.352 130.668 136.87C144.9 122.728 165.524 119.521 183.046 129.196C197.785 137.336 205.677 150.381 206.774 167.538C207.309 175.924 205.409 183.845 201.557 191.272C201.102 192.149 201.183 192.807 201.771 193.602C205.623 198.727 209.449 203.879 213.274 209.032C213.488 209.278 213.648 209.58 213.943 209.991Z" stroke="#323232" stroke-width="1.92353" mask="url(#path-2-outside-1_2913_649)"/>
<mask id="path-3-outside-2_2913_649" maskUnits="userSpaceOnUse" x="139.118" y="136.533" width="48.3409" height="71.965" fill="black">
<rect fill="white" x="139.118" y="136.533" width="48.3409" height="71.965"/>
<path d="M163.701 178.931C162.46 179.114 161.411 178.886 160.552 178.247C159.689 177.585 159.168 176.646 158.989 175.429L158.736 173.709C158.519 172.234 158.722 170.853 159.346 169.566C159.966 168.256 160.779 167.12 161.785 166.159C162.788 165.174 163.79 164.19 164.793 163.205C165.796 162.221 166.614 161.12 167.248 159.903C167.882 158.686 168.095 157.376 167.889 155.972C167.599 154.006 166.654 152.459 165.054 151.332C163.477 150.201 161.682 149.784 159.669 150.08C157.704 150.37 156.08 151.278 154.799 152.806C153.54 154.33 152.948 156.15 153.02 158.268C152.645 159.781 151.604 160.664 149.895 160.915C148.795 161.077 147.826 160.909 146.988 160.411C146.146 159.889 145.637 159.032 145.461 157.838C144.985 154.274 146.075 151.125 148.733 148.39C151.388 145.633 154.681 143.965 158.612 143.386C162.965 142.745 166.892 143.518 170.394 145.704C173.919 147.887 175.952 150.816 176.493 154.49C176.789 156.502 176.64 158.33 176.045 159.971C175.446 161.59 174.629 162.941 173.593 164.026C172.557 165.111 171.498 166.116 170.415 167.04C169.355 167.962 168.481 168.927 167.792 169.937C167.124 170.92 166.864 171.914 167.012 172.921L167.224 174.36C167.407 175.6 167.163 176.628 166.494 177.444C165.826 178.26 164.894 178.756 163.701 178.931ZM169.851 200.767C168.424 200.977 167.098 200.659 165.873 199.811C164.672 198.959 163.966 197.82 163.756 196.392C163.543 194.942 163.888 193.635 164.793 192.474C165.698 191.313 166.876 190.625 168.327 190.412C169.755 190.202 171.069 190.522 172.27 191.374C173.471 192.225 174.179 193.376 174.392 194.827C174.603 196.254 174.255 197.549 173.35 198.71C172.445 199.871 171.279 200.557 169.851 200.767Z"/>
</mask>
<path d="M163.701 178.931C162.46 179.114 161.411 178.886 160.552 178.247C159.689 177.585 159.168 176.646 158.989 175.429L158.736 173.709C158.519 172.234 158.722 170.853 159.346 169.566C159.966 168.256 160.779 167.12 161.785 166.159C162.788 165.174 163.79 164.19 164.793 163.205C165.796 162.221 166.614 161.12 167.248 159.903C167.882 158.686 168.095 157.376 167.889 155.972C167.599 154.006 166.654 152.459 165.054 151.332C163.477 150.201 161.682 149.784 159.669 150.08C157.704 150.37 156.08 151.278 154.799 152.806C153.54 154.33 152.948 156.15 153.02 158.268C152.645 159.781 151.604 160.664 149.895 160.915C148.795 161.077 147.826 160.909 146.988 160.411C146.146 159.889 145.637 159.032 145.461 157.838C144.985 154.274 146.075 151.125 148.733 148.39C151.388 145.633 154.681 143.965 158.612 143.386C162.965 142.745 166.892 143.518 170.394 145.704C173.919 147.887 175.952 150.816 176.493 154.49C176.789 156.502 176.64 158.33 176.045 159.971C175.446 161.59 174.629 162.941 173.593 164.026C172.557 165.111 171.498 166.116 170.415 167.04C169.355 167.962 168.481 168.927 167.792 169.937C167.124 170.92 166.864 171.914 167.012 172.921L167.224 174.36C167.407 175.6 167.163 176.628 166.494 177.444C165.826 178.26 164.894 178.756 163.701 178.931ZM169.851 200.767C168.424 200.977 167.098 200.659 165.873 199.811C164.672 198.959 163.966 197.82 163.756 196.392C163.543 194.942 163.888 193.635 164.793 192.474C165.698 191.313 166.876 190.625 168.327 190.412C169.755 190.202 171.069 190.522 172.27 191.374C173.471 192.225 174.179 193.376 174.392 194.827C174.603 196.254 174.255 197.549 173.35 198.71C172.445 199.871 171.279 200.557 169.851 200.767Z" stroke="#323232" stroke-width="7.26667" mask="url(#path-3-outside-2_2913_649)"/>
</g>
<path d="M206.89 465.629C206.89 465.629 154.933 335.757 302.372 265.874L366.284 238.028C366.284 238.028 474.794 191.013 524.953 205.839C524.953 205.839 592.455 225.161 619.869 248.947L567.031 340.642L519.141 316.005L602.012 507.483C602.012 507.483 524.164 612.089 331.26 647.736L265.714 465.629L259.971 484.61C259.971 484.61 220.229 486.992 206.89 465.629Z" fill="#FFD27C"/>
<mask id="path-5-inside-3_2913_649" fill="white">
<path d="M196.5 455.629C196.5 455.629 144.542 325.757 291.982 255.874L355.894 228.028C355.894 228.028 464.403 181.013 514.562 195.839C514.562 195.839 582.064 215.161 609.479 238.947L556.64 330.642L508.751 306.005L591.622 497.483C591.622 497.483 513.773 602.089 320.869 637.736L255.324 455.629L249.58 474.61C249.58 474.61 209.838 476.992 196.5 455.629Z"/>
</mask>
<path d="M196.5 455.629C196.5 455.629 144.542 325.757 291.982 255.874L355.894 228.028C355.894 228.028 464.403 181.013 514.562 195.839C514.562 195.839 582.064 215.161 609.479 238.947L556.64 330.642L508.751 306.005L591.622 497.483C591.622 497.483 513.773 602.089 320.869 637.736L255.324 455.629L249.58 474.61C249.58 474.61 209.838 476.992 196.5 455.629Z" stroke="#323232" stroke-width="8.4319" mask="url(#path-5-inside-3_2913_649)"/>
<path d="M258.844 441.175C258.844 441.175 244.662 394.117 226.099 369.736" stroke="#323232" stroke-width="4.21595" stroke-miterlimit="10" stroke-linecap="round" stroke-linejoin="round"/>
<path d="M290.359 258.747C296.94 269.287 311.752 291.477 345.88 279.183C379.887 266.965 385.329 243.286 384.552 225.798" stroke="#323232" stroke-width="4.21595" stroke-miterlimit="10" stroke-linecap="round" stroke-linejoin="round"/>
<path d="M507.102 303.067L482 276.952" stroke="#323232" stroke-width="4.21595" stroke-miterlimit="10" stroke-linecap="round" stroke-linejoin="round"/>
<path d="M507.103 303.067L501.971 284.278" stroke="#323232" stroke-width="4.21595" stroke-miterlimit="10" stroke-linecap="round" stroke-linejoin="round"/>
<path d="M563.951 319.818C602.393 346.194 684.513 403.683 705.46 422.635C726.407 441.588 742.442 459.243 747.841 465.701" stroke="#323232" stroke-width="4.21595" stroke-linecap="round" stroke-linejoin="round"/>
<mask id="path-11-inside-4_2913_649" fill="white">
<path d="M241.354 142.635C260.683 233.33 294.139 239.09 294.139 239.09L305.171 251.076C305.171 251.076 318.929 273.924 342.099 265.374C370.619 254.835 369.109 223.27 369.109 223.27L366.7 207.14C366.7 207.14 385.726 177.063 341.617 105.332C341.617 105.332 322.007 95.0397 285.365 110.255C248.738 125.405 241.354 142.635 241.354 142.635Z"/>
</mask>
<path d="M241.354 142.635C260.683 233.33 294.139 239.09 294.139 239.09L305.171 251.076C305.171 251.076 318.929 273.924 342.099 265.374C370.619 254.835 369.109 223.27 369.109 223.27L366.7 207.14C366.7 207.14 385.726 177.063 341.617 105.332C341.617 105.332 322.007 95.0397 285.365 110.255C248.738 125.405 241.354 142.635 241.354 142.635Z" fill="#F94E1E" stroke="#323232" stroke-width="8.4319" mask="url(#path-11-inside-4_2913_649)"/>
<mask id="path-12-inside-5_2913_649" fill="white">
<path d="M300.018 108.096L328.811 108.769L354.992 150.704L362.802 142.871L352.924 99.7976C352.924 99.7976 363.009 67.5845 327.869 65.805C303.666 64.5779 303.201 84.1363 303.201 84.1363L300.018 108.096Z"/>
</mask>
<path d="M300.018 108.096L328.811 108.769L354.992 150.704L362.802 142.871L352.924 99.7976C352.924 99.7976 363.009 67.5845 327.869 65.805C303.666 64.5779 303.201 84.1363 303.201 84.1363L300.018 108.096Z" fill="#323232" stroke="#323232" stroke-width="8.4319" mask="url(#path-12-inside-5_2913_649)"/>
<mask id="path-13-inside-6_2913_649" fill="white">
<path d="M242.585 99.841C232.818 101.883 208.344 124.758 238.224 152.132C238.224 152.132 247.883 174.648 253.831 184.175C260.31 194.552 262.948 189.215 259.354 183.459C259.076 183.013 245.072 144.431 245.072 144.431L261.189 127.833L242.585 99.841Z"/>
</mask>
<path d="M242.585 99.841C232.818 101.883 208.344 124.758 238.224 152.132C238.224 152.132 247.883 174.648 253.831 184.175C260.31 194.552 262.948 189.215 259.354 183.459C259.076 183.013 245.072 144.431 245.072 144.431L261.189 127.833L242.585 99.841Z" fill="#323232" stroke="#323232" stroke-width="8.4319" mask="url(#path-13-inside-6_2913_649)"/>
<mask id="path-14-inside-7_2913_649" fill="white">
<path d="M244.209 73.3028C232.206 89.3605 254.576 131.508 254.576 131.508L305.119 105.98C305.119 105.98 311.608 72.9698 297.135 63.865C282.646 54.826 260.343 51.6798 244.209 73.3028Z"/>
</mask>
<path d="M244.209 73.3028C232.206 89.3605 254.576 131.508 254.576 131.508L305.119 105.98C305.119 105.98 311.608 72.9698 297.135 63.865C282.646 54.826 260.343 51.6798 244.209 73.3028Z" fill="#323232" stroke="#323232" stroke-width="8.4319" mask="url(#path-14-inside-7_2913_649)"/>
<mask id="path-15-inside-8_2913_649" fill="white">
<path d="M257.665 181.917C252.454 175.063 243.97 172.422 243.706 177.898C243.441 183.374 254.92 208.015 264.812 204.808C264.844 204.788 267.754 195.091 257.665 181.917Z"/>
</mask>
<path d="M257.665 181.917C252.454 175.063 243.97 172.422 243.706 177.898C243.441 183.374 254.92 208.015 264.812 204.808C264.844 204.788 267.754 195.091 257.665 181.917Z" stroke="#323232" stroke-width="8.4319" mask="url(#path-15-inside-8_2913_649)"/>
<mask id="path-16-inside-9_2913_649" fill="white">
<path d="M367.167 166.678C378.845 163.41 383.986 143.729 376.11 135.71C368.233 127.69 357.864 131.935 358.73 141.505C359.67 151.083 367.167 166.678 367.167 166.678Z"/>
</mask>
<path d="M367.167 166.678C378.845 163.41 383.986 143.729 376.11 135.71C368.233 127.69 357.864 131.935 358.73 141.505C359.67 151.083 367.167 166.678 367.167 166.678Z" stroke="#323232" stroke-width="8.4319" mask="url(#path-16-inside-9_2913_649)"/>
<mask id="path-17-inside-10_2913_649" fill="white">
<path d="M250.293 176.27L262.979 205.252C262.979 205.252 272.737 244.794 294.178 239.07C318.157 232.719 351.58 223.175 365.597 212.509C375.869 204.687 383.843 193.004 367.873 166.523L358.222 136.266C358.222 136.266 355.567 137.248 354.965 146.751C354.123 160.291 359.104 188.844 345.504 196.659C333.9 203.34 309.165 213.262 291.781 209.242C284.34 207.521 265.748 188.03 258.275 179.399C253.111 173.384 250.293 176.27 250.293 176.27Z"/>
</mask>
<path d="M250.293 176.27L262.979 205.252C262.979 205.252 272.737 244.794 294.178 239.07C318.157 232.719 351.58 223.175 365.597 212.509C375.869 204.687 383.843 193.004 367.873 166.523L358.222 136.266C358.222 136.266 355.567 137.248 354.965 146.751C354.123 160.291 359.104 188.844 345.504 196.659C333.9 203.34 309.165 213.262 291.781 209.242C284.34 207.521 265.748 188.03 258.275 179.399C253.111 173.384 250.293 176.27 250.293 176.27Z" fill="#323232" stroke="#323232" stroke-width="8.4319" mask="url(#path-17-inside-10_2913_649)"/>
<path d="M295.72 154.27L298.678 176.875L312.829 171.025" stroke="#323232" stroke-width="4.21595" stroke-miterlimit="10" stroke-linecap="round" stroke-linejoin="round"/>
<mask id="path-19-inside-11_2913_649" fill="white">
<path d="M311.472 222.992C311.472 222.992 305.937 200.304 309.289 194.245C312.612 188.153 331.866 175.402 337.529 174.908C343.193 174.414 361.809 189.129 361.809 189.129L353.835 197.838L336.594 186.495C336.594 186.495 333.258 193.058 329.511 195.525C325.216 198.352 317.045 197.995 317.045 197.995L321.807 215.977L311.472 222.992Z"/>
</mask>
<path d="M311.472 222.992C311.472 222.992 305.937 200.304 309.289 194.245C312.612 188.153 331.866 175.402 337.529 174.908C343.193 174.414 361.809 189.129 361.809 189.129L353.835 197.838L336.594 186.495C336.594 186.495 333.258 193.058 329.511 195.525C325.216 198.352 317.045 197.995 317.045 197.995L321.807 215.977L311.472 222.992Z" fill="#323232" stroke="#323232" stroke-width="8.4319" mask="url(#path-19-inside-11_2913_649)"/>
<path d="M263.086 156.455C263.086 156.455 262.909 146.875 273.804 148.805" stroke="#323232" stroke-width="4.21595" stroke-miterlimit="10" stroke-linecap="round" stroke-linejoin="round"/>
<path d="M314.8 131.019C314.8 131.019 318.289 122.981 326.7 129.054" stroke="#323232" stroke-width="4.21595" stroke-miterlimit="10" stroke-linecap="round" stroke-linejoin="round"/>
<path d="M273.811 164.085C274.183 163.68 275.459 162.747 277.583 162.256" stroke="#323232" stroke-width="5.05914" stroke-linecap="round"/>
<path d="M321.105 144.306C321.602 144.058 323.142 143.635 325.329 143.925" stroke="#323232" stroke-width="5.05914" stroke-linecap="round"/>
<mask id="path-24-inside-12_2913_649" fill="white">
<path d="M387.285 259.239C393.708 266.006 393.942 267.994 389.613 279.833C380.531 289.672 362.609 309.326 362.609 309.326C362.609 309.326 431.381 445.169 392.694 500.602C369.169 534.33 335.261 541.281 296.403 533.167C262.904 526.173 211.715 477.025 227.09 479.551C227.09 479.551 252.072 446.98 270.297 438.148C289.579 428.803 307.43 414.32 307.43 414.32C307.43 414.32 287.733 277.517 293.195 266.305C293.195 266.305 290.411 260.957 288.273 238.645C286.18 216.32 294.544 207.836 298.473 206.807C302.403 205.778 304.903 205.256 310.243 230.93L314.529 233.645C314.529 233.645 352.175 184.609 356.709 180.606C361.243 176.603 370.655 185.533 363.464 197.904C361.879 205.225 349.896 224.383 349.896 224.383C349.896 224.383 343.656 230.131 352.629 219.876C361.591 209.576 370.074 215.562 371.103 219.491C372.132 223.421 371.509 234.284 362.548 244.584C362.548 244.584 367.077 224.317 378.444 229.669C388.014 238.278 388.917 249.634 374.759 266.878C374.759 266.878 382.623 253.889 387.285 259.239Z"/>
</mask>
<path d="M387.285 259.239C393.708 266.006 393.942 267.994 389.613 279.833C380.531 289.672 362.609 309.326 362.609 309.326C362.609 309.326 431.381 445.169 392.694 500.602C369.169 534.33 335.261 541.281 296.403 533.167C262.904 526.173 211.715 477.025 227.09 479.551C227.09 479.551 252.072 446.98 270.297 438.148C289.579 428.803 307.43 414.32 307.43 414.32C307.43 414.32 287.733 277.517 293.195 266.305C293.195 266.305 290.411 260.957 288.273 238.645C286.18 216.32 294.544 207.836 298.473 206.807C302.403 205.778 304.903 205.256 310.243 230.93L314.529 233.645C314.529 233.645 352.175 184.609 356.709 180.606C361.243 176.603 370.655 185.533 363.464 197.904C361.879 205.225 349.896 224.383 349.896 224.383C349.896 224.383 343.656 230.131 352.629 219.876C361.591 209.576 370.074 215.562 371.103 219.491C372.132 223.421 371.509 234.284 362.548 244.584C362.548 244.584 367.077 224.317 378.444 229.669C388.014 238.278 388.917 249.634 374.759 266.878C374.759 266.878 382.623 253.889 387.285 259.239Z" fill="#F94E1E" stroke="#323232" stroke-width="8.4319" stroke-linejoin="round" mask="url(#path-24-inside-12_2913_649)"/>
</g>
<defs>
<clipPath id="clip0_2913_649">
<rect width="575" height="392" fill="white"/>
</clipPath>
<clipPath id="clip1_2913_649">
<rect width="109" height="102.588" fill="white" transform="matrix(-1 0 0 1 220 119)"/>
</clipPath>
</defs>
</svg>
