<svg width="397" height="316" viewBox="0 0 397 316" fill="none" xmlns="http://www.w3.org/2000/svg">
<g clip-path="url(#clip0_2764_32977)">
<path d="M52.7212 174.743C52.7212 174.743 94.7586 118.324 190.867 129.475L231.76 135.54C231.76 135.54 301.105 145.968 321.678 169.178C321.678 169.178 349.564 200.095 355.884 220.669L300.509 250.198L284.158 222.766L265.71 345.104C265.71 345.104 193.701 373.273 85.4754 330.623L109.696 218.439L100.846 226.183C100.846 226.183 52.7214 189.677 52.7212 174.743Z" fill="#FFD27C"/>
<path fill-rule="evenodd" clip-rule="evenodd" d="M328.109 162.284L328.102 162.276C323.308 156.868 315.498 152.04 306.215 147.848C296.98 143.679 286.517 140.239 276.632 137.504C266.756 134.771 257.509 132.756 250.729 131.424C247.341 130.759 244.572 130.264 242.654 129.937C241.694 129.773 240.948 129.651 240.443 129.57C240.191 129.53 239.999 129.5 239.871 129.48L239.727 129.458L239.692 129.453L239.688 129.452L239.684 129.452L239.683 129.451L198.834 123.393C151.363 117.894 117.367 129.077 95.2768 141.544C84.2147 147.787 76.1165 154.364 70.798 159.363C68.1391 161.862 66.1765 163.964 64.8874 165.431C64.3212 166.075 63.8851 166.596 63.5772 166.973C63.7482 168.145 64.2847 169.65 65.2816 171.489C66.4954 173.728 68.2705 176.244 70.4715 178.939C74.8714 184.324 80.7852 190.193 86.7648 195.657C92.7322 201.11 98.7074 206.106 103.195 209.743C105.438 211.56 107.306 213.035 108.612 214.054C108.762 214.172 108.905 214.283 109.04 214.388L122.028 203.024L96.663 320.51C149.533 341.006 193.517 344.473 224.336 342.801C239.942 341.954 252.179 339.789 260.492 337.845C264.649 336.873 267.824 335.956 269.947 335.287C270.674 335.058 271.277 334.858 271.755 334.695L291.023 206.924L309.731 238.31L361.136 210.898C357.696 201.398 349.969 189.787 342.709 180.152C338.863 175.047 335.209 170.575 332.517 167.38C331.172 165.783 330.068 164.507 329.302 163.632C328.919 163.194 328.621 162.857 328.419 162.63C328.319 162.517 328.242 162.431 328.191 162.374L328.134 162.311L328.117 162.292L328.109 162.284ZM364.178 212.109L308.804 241.637L292.453 214.206L274.004 336.544C274.004 336.544 201.996 364.713 93.77 322.063L117.991 209.879L109.141 217.622C109.141 217.622 61.0161 181.117 61.0159 166.182C61.0159 166.182 103.053 109.763 199.162 120.915L240.054 126.979C240.054 126.979 309.399 137.408 329.973 160.617C329.973 160.617 357.859 191.535 364.178 212.109Z" fill="#323232"/>
<path d="M198.567 255.818C199.167 254.274 200.905 253.508 202.45 254.108L227.794 263.948C229.339 264.547 230.105 266.286 229.505 267.83L210.856 315.862C210.256 317.406 208.518 318.172 206.974 317.572L181.629 307.732C180.085 307.133 179.319 305.394 179.919 303.85L198.567 255.818Z" fill="#323232"/>
<mask id="mask0_2764_32977" style="mask-type:alpha" maskUnits="userSpaceOnUse" x="56" y="111" width="304" height="227">
<path d="M56.0399 158.149C56.0399 158.149 98.0773 101.73 194.186 112.881L235.078 118.946C235.078 118.946 304.423 129.375 324.997 152.584C324.997 152.584 352.883 183.501 359.202 204.075L303.828 233.604L287.477 206.172L269.028 328.511C269.028 328.511 197.02 356.68 88.7941 314.03L113.015 201.845L104.165 209.589C104.165 209.589 56.0401 173.083 56.0399 158.149Z" fill="#FFD27C"/>
</mask>
<g mask="url(#mask0_2764_32977)">
<path d="M195.302 309.453C192.109 317.185 183.18 315.671 176.339 311.642C169.498 307.612 154.477 298.103 154.477 298.103C154.477 298.103 115.053 291.975 78.0723 276.507C55.5742 267.103 35.9451 258.532 18.12 241.739C18.12 241.739 30.4067 201.542 65.444 172.819L83.6971 192.732L105.269 211.538L94.2064 225.366C94.2064 225.366 164.902 252.305 172.086 254.064C172.086 254.064 174.836 251.78 187.499 247.742C200.176 243.729 206.141 247.512 207.231 249.66C208.32 251.808 208.936 253.192 194.726 259.507L193.69 262.332C193.69 262.332 226.832 278 229.721 280.125C232.61 282.251 228.614 288.826 220.543 286.21C216.101 286.21 203.495 281.667 203.495 281.667C203.495 281.667 213.474 284.912 220.543 288.826C227.637 292.728 225.232 298.395 223.083 299.485C220.935 300.574 200.467 295.435 193.373 291.534C193.373 291.534 219.781 297.757 218.105 305.016C214.316 311.642 193.754 307.45 181.985 301.408C181.985 301.408 197.818 306.081 195.302 309.453Z" fill="#F94E1E"/>
</g>
<path fill-rule="evenodd" clip-rule="evenodd" d="M191.471 307.887C191.965 308.175 192.385 308.454 192.713 308.719C192.762 308.759 192.807 308.796 192.847 308.831C192.242 310.143 191.461 310.977 190.617 311.512C189.684 312.102 188.521 312.425 187.128 312.459C184.277 312.528 180.802 311.369 177.608 309.488C174.22 307.492 168.78 304.124 164.167 301.241C161.865 299.802 159.776 298.49 158.263 297.536C157.507 297.06 156.894 296.673 156.471 296.406L155.817 295.992L155.815 295.991C155.814 295.991 155.814 295.99 154.477 298.103C154.477 298.103 169.498 307.612 176.339 311.642C183.18 315.671 192.109 317.185 195.302 309.453C195.407 309.313 195.48 309.17 195.523 309.026C195.858 307.92 194.471 306.706 192.472 305.58C194.187 306.105 195.932 306.574 197.666 306.97C206.868 309.073 215.744 309.145 218.105 305.016C218.385 303.804 217.882 302.62 216.849 301.49C215.607 300.131 213.6 298.848 211.268 297.685C213.765 298.312 216.119 298.828 218.07 299.171C220.641 299.623 222.511 299.775 223.083 299.485C225.232 298.395 227.637 292.728 220.543 288.826C220.532 288.82 220.521 288.814 220.51 288.808C220.449 288.774 220.388 288.741 220.327 288.707C220.16 288.616 219.991 288.525 219.822 288.434C215.174 285.956 209.509 283.788 206.22 282.609C210.183 283.94 217.403 286.21 220.543 286.21C220.849 286.309 221.149 286.395 221.443 286.468C228.908 288.334 232.5 282.17 229.721 280.125C226.832 278 193.69 262.332 193.69 262.332C192.622 264.592 192.622 264.592 192.622 264.592L192.623 264.593L192.628 264.595L192.993 264.768C193.236 264.883 193.593 265.052 194.048 265.268C194.959 265.7 196.264 266.32 197.838 267.07C200.988 268.571 205.216 270.594 209.533 272.682C213.853 274.772 218.253 276.923 221.748 278.682C223.498 279.562 225.009 280.338 226.165 280.956C227.247 281.534 227.889 281.906 228.154 282.08C228.131 282.27 227.986 282.686 227.51 283.143C226.625 283.993 224.61 284.9 221.314 283.832C221.065 283.751 220.804 283.71 220.543 283.71C219.746 283.71 218.369 283.489 216.579 283.067C214.847 282.658 212.912 282.108 211.085 281.548C209.588 281.089 208.18 280.63 207.04 280.247C206.656 280.11 206.303 279.985 205.989 279.875C205.456 279.689 205.029 279.544 204.734 279.445C204.586 279.395 204.471 279.357 204.393 279.331L204.302 279.301L204.277 279.293L204.269 279.29C204.268 279.29 204.267 279.29 203.495 281.667C202.647 284.019 202.647 284.02 202.648 284.02L202.688 284.034L202.798 284.074C202.895 284.108 203.036 284.158 203.216 284.221C203.576 284.348 204.094 284.528 204.728 284.744C204.94 284.816 205.164 284.892 205.4 284.971C206.275 285.285 207.321 285.67 208.47 286.112C211.811 287.398 215.947 289.139 219.332 291.013L219.338 291.017C222.285 292.638 222.771 294.294 222.779 295.231C222.783 295.783 222.63 296.291 222.408 296.688C222.289 296.902 222.173 297.044 222.088 297.133C221.97 297.134 221.816 297.131 221.621 297.12C220.971 297.083 220.068 296.972 218.944 296.785C217.056 296.469 214.689 295.961 212.136 295.325C210.566 294.553 208.901 293.849 207.267 293.22C203.975 291.952 200.648 290.924 198.157 290.215C196.908 289.86 195.862 289.583 195.126 289.394C194.757 289.299 194.466 289.227 194.265 289.178C194.165 289.153 194.087 289.134 194.033 289.121L193.971 289.106L193.948 289.101C193.947 289.101 193.947 289.101 193.373 291.534L193.948 289.101C192.731 288.814 191.488 289.47 191.04 290.637C190.591 291.803 191.073 293.122 192.168 293.725C196.011 295.838 203.166 298.16 209.452 299.8C209.766 299.882 210.079 299.962 210.39 300.041C211.565 300.638 212.619 301.254 213.492 301.879C214.485 302.59 215.103 303.215 215.427 303.714C215.549 303.901 215.615 304.046 215.649 304.156C215.112 304.726 214.048 305.305 212.104 305.632C209.806 306.018 206.791 305.955 203.378 305.486C200.18 305.046 196.763 304.267 193.454 303.265C192.527 302.756 191.538 302.29 190.587 301.874C188.676 301.041 186.704 300.326 185.223 299.823C184.479 299.571 183.852 299.369 183.409 299.23C183.187 299.16 183.011 299.106 182.889 299.069C182.827 299.05 182.78 299.036 182.747 299.026L182.708 299.015L182.693 299.01C182.693 299.01 182.692 299.01 181.985 301.408L182.693 299.01C181.456 298.645 180.143 299.281 179.663 300.479C179.184 301.677 179.695 303.042 180.843 303.632C183.957 305.23 187.639 306.697 191.471 307.887ZM222.346 297.117C222.346 297.117 222.336 297.118 222.318 297.122C222.338 297.119 222.347 297.118 222.346 297.117ZM203.495 281.667L204.267 279.29C202.969 278.868 201.572 279.566 201.129 280.857C200.687 282.149 201.363 283.557 202.648 284.02L203.495 281.667ZM194.726 259.507L193.69 262.332L192.622 264.592C191.453 264.039 190.898 262.686 191.343 261.471L192.379 258.646C192.612 258.011 193.093 257.498 193.711 257.223C197.235 255.656 199.791 254.417 201.629 253.413C203.497 252.392 204.492 251.682 204.999 251.204C205.054 251.152 205.099 251.106 205.137 251.067C205.102 250.994 205.058 250.903 205.001 250.791C205.001 250.791 204.989 250.768 204.956 250.723C204.922 250.677 204.87 250.613 204.795 250.537C204.646 250.382 204.421 250.19 204.105 249.983C203.473 249.571 202.514 249.13 201.169 248.831C198.483 248.235 194.279 248.218 188.256 250.124C182 252.119 178.257 253.661 176.114 254.676C175.044 255.183 174.383 255.555 174.013 255.78C173.828 255.892 173.718 255.967 173.668 256.002C173.655 256.011 173.646 256.018 173.64 256.022C173.036 256.502 172.243 256.676 171.491 256.492C169.527 256.011 163.593 253.932 156.033 251.188C148.384 248.41 138.864 244.875 129.576 241.396C120.286 237.918 111.221 234.494 104.479 231.941C101.108 230.664 98.3178 229.604 96.37 228.864C95.396 228.494 94.6327 228.203 94.1129 228.005L93.317 227.702C93.3165 227.702 93.3162 227.702 94.2064 225.366L93.317 227.702C92.5707 227.418 92.0043 226.794 91.7943 226.023C91.5844 225.253 91.7553 224.428 92.2542 223.804L101.82 211.848L82.0542 194.616C81.9839 194.555 81.9172 194.49 81.8542 194.421L65.2141 176.268C49.009 190.052 37.9263 206.272 30.8369 219.249C27.165 225.97 24.5749 231.802 22.906 235.943C22.0718 238.014 21.4685 239.66 21.0759 240.781C21.0493 240.857 21.0237 240.931 20.999 241.002C38.1462 256.74 57.0234 264.999 79.0364 274.2C97.3585 281.864 116.32 287.227 130.724 290.674C137.92 292.397 143.966 293.638 148.208 294.448C150.329 294.853 151.998 295.15 153.134 295.345C153.702 295.443 154.137 295.515 154.428 295.563C154.574 295.587 154.683 295.604 154.756 295.616L154.837 295.629L154.856 295.632L154.86 295.632C155.199 295.685 155.525 295.807 155.815 295.991L154.477 298.103C154.477 298.103 115.052 291.975 78.0723 276.507C55.5742 267.103 35.945 258.532 18.1199 241.739C18.1199 241.739 30.4067 201.542 65.444 172.819L83.697 192.732L105.269 211.538L94.2064 225.366C94.2064 225.366 95.0867 225.701 96.6608 226.3C109.193 231.065 165.704 252.501 172.086 254.064C172.086 254.064 174.836 251.78 187.499 247.742C200.176 243.729 206.141 247.512 207.231 249.66C208.32 251.808 208.936 253.192 194.726 259.507ZM173.678 255.991L173.68 255.989ZM173.675 255.994C173.674 255.994 173.673 255.995 173.672 255.996L173.675 255.994ZM205.3 250.866C205.3 250.866 205.298 250.87 205.294 250.877C205.299 250.87 205.301 250.866 205.3 250.866Z" fill="#323232"/>
<path fill-rule="evenodd" clip-rule="evenodd" d="M126.956 156.64C126.269 156.704 125.764 157.313 125.827 158C126.651 166.867 125.188 178.279 123.491 187.553C122.645 192.174 121.746 196.233 121.059 199.137C120.716 200.589 120.426 201.751 120.222 202.548C120.12 202.947 120.039 203.255 119.985 203.462C119.957 203.566 119.936 203.645 119.922 203.697L119.906 203.756L119.902 203.773L121.108 204.102C122.314 204.43 122.314 204.429 122.314 204.429L122.32 204.407L122.337 204.344C122.352 204.289 122.373 204.208 122.402 204.101C122.458 203.887 122.54 203.573 122.644 203.168C122.851 202.357 123.145 201.18 123.492 199.713C124.186 196.778 125.094 192.675 125.95 188.004C127.654 178.692 129.174 166.996 128.317 157.769C128.253 157.082 127.644 156.576 126.956 156.64ZM120.78 205.308C121.446 205.489 122.133 205.095 122.314 204.429L121.108 204.102L119.902 203.773C119.72 204.439 120.114 205.127 120.78 205.308Z" fill="#323232"/>
<path fill-rule="evenodd" clip-rule="evenodd" d="M194.252 120.988C194.942 120.988 195.502 121.548 195.502 122.238C195.502 125.911 195.633 131.441 198.237 136.595C200.801 141.671 205.847 146.537 216.024 148.732L216.025 148.732C226.25 150.946 233.719 149.542 239.218 146.589C244.741 143.624 248.41 139.025 250.889 134.631C251.228 134.03 251.991 133.818 252.592 134.157C253.193 134.496 253.406 135.259 253.066 135.86C250.444 140.507 246.476 145.529 240.401 148.791C234.303 152.066 226.214 153.496 215.496 151.175C204.647 148.836 198.939 143.529 196.005 137.722C193.112 131.994 193.002 125.934 193.002 122.238C193.002 121.548 193.561 120.988 194.252 120.988Z" fill="#323232"/>
<path fill-rule="evenodd" clip-rule="evenodd" d="M288.094 187.636C288.77 187.494 289.433 187.926 289.575 188.602L294 209.621C294.142 210.296 293.71 210.959 293.034 211.101C292.359 211.243 291.696 210.811 291.554 210.136L287.129 189.117C286.986 188.441 287.419 187.778 288.094 187.636Z" fill="#323232"/>
<path fill-rule="evenodd" clip-rule="evenodd" d="M296.455 197.618C295.793 197.42 295.097 197.795 294.898 198.456L291.579 209.519C291.381 210.18 291.756 210.877 292.418 211.075C293.079 211.274 293.776 210.899 293.974 210.237L297.293 199.175C297.491 198.514 297.116 197.817 296.455 197.618Z" fill="#323232"/>
<path fill-rule="evenodd" clip-rule="evenodd" d="M360.981 212.007C361.638 211.795 362.342 212.156 362.554 212.813C370.99 238.983 388.716 295.627 391.915 312.23C395.106 328.788 396.57 343.005 396.905 348.077C396.951 348.765 396.429 349.361 395.74 349.406C395.051 349.452 394.456 348.93 394.41 348.241C394.083 343.274 392.631 329.16 389.46 312.703C386.298 296.29 368.637 239.833 360.174 213.58C359.963 212.923 360.324 212.219 360.981 212.007Z" fill="#323232"/>
<path fill-rule="evenodd" clip-rule="evenodd" d="M312.189 237.732C312.822 237.456 313.559 237.746 313.835 238.378C319.364 251.054 327.944 271.073 335.716 289.941C343.474 308.776 350.465 326.554 352.781 334.693C357.381 350.86 359.914 364.833 360.61 369.835C360.705 370.518 360.228 371.15 359.544 371.245C358.86 371.34 358.229 370.863 358.134 370.179C357.454 365.293 354.945 351.433 350.377 335.377C348.108 327.405 341.181 309.774 333.404 290.893C325.64 272.045 317.068 252.042 311.544 239.378C311.268 238.745 311.557 238.008 312.189 237.732Z" fill="#323232"/>
<path d="M120.994 30.4276C120.678 29.369 121.281 28.2552 122.339 27.9397L150.297 19.6092C151.355 19.2938 152.469 19.8963 152.785 20.9548L162.711 54.2695C163.027 55.328 162.424 56.4419 161.366 56.7573L133.408 65.0878C132.35 65.4032 131.236 64.8008 130.921 63.7422L120.994 30.4276Z" fill="#FFFAF7"/>
<path d="M135.598 79.5464C135.528 79.5314 135.459 79.5024 135.39 79.5044C133.272 79.5585 131.707 78.4491 131.092 76.4222C130.321 73.8804 129.572 71.3318 128.813 68.7848C125.391 57.3004 121.969 45.816 118.547 34.3316C118.118 32.89 117.682 31.4487 117.259 30.005C116.52 27.4863 117.691 25.3259 120.206 24.5763C127.951 22.2656 135.696 19.9592 143.443 17.651C146.179 16.8356 148.279 17.9655 149.092 20.6935C152.871 33.3697 156.647 46.0483 160.424 58.725C161.215 61.3774 162.007 64.0295 162.796 66.6837C163.485 69.0033 162.9 70.5952 160.867 71.9425C160.84 71.96 160.829 72.0034 160.81 72.0338C152.407 74.5377 144.003 77.042 135.598 79.5464ZM159.413 59.8686C155.947 48.2375 152.497 36.6591 149.044 25.0722C139.255 27.9891 129.507 30.8937 119.729 33.8072C123.189 45.4169 126.64 56.9982 130.098 68.6037C139.878 65.6893 149.628 62.7843 159.413 59.8686ZM159.749 61.1177C150.003 64.0219 140.255 66.9265 130.466 69.8434C130.515 70.0444 130.549 70.2233 130.601 70.3971C131.146 72.2308 131.69 74.0664 132.24 75.8985C132.834 77.8759 134.264 78.6504 136.231 78.0642C141.982 76.352 147.734 74.6366 153.485 72.9231C155.567 72.3025 157.654 71.6901 159.733 71.0567C161.074 70.6479 162.099 69.3946 161.798 68.1302C161.237 65.7725 160.45 63.4696 159.749 61.1177ZM119.415 32.5452C129.148 29.6453 138.893 26.7415 148.713 23.8153C148.427 22.8537 148.15 21.9141 147.868 20.9776C147.269 19.0001 145.848 18.2292 143.875 18.8171C139.016 20.2635 134.156 21.7132 129.297 23.1611C126.343 24.0414 123.385 24.9179 120.433 25.8053C119.066 26.2157 118.089 27.3896 118.306 28.6913C118.521 29.9905 119.027 31.2432 119.415 32.5452Z" fill="#323232"/>
<path d="M133.27 25.8666C132.204 26.1841 131.139 26.5016 130.073 26.8191C129.931 26.8616 129.789 26.9054 129.643 26.9332C129.292 26.9991 129.005 26.9 128.885 26.542C128.756 26.1569 128.935 25.8772 129.292 25.749C129.763 25.5793 130.247 25.452 130.728 25.3089C132.54 24.769 134.35 24.2295 136.162 23.6896C136.286 23.6527 136.41 23.6125 136.536 23.5798C136.92 23.4793 137.263 23.5369 137.401 23.9486C137.551 24.3955 137.294 24.6581 136.892 24.7811C135.686 25.1482 134.477 25.5038 133.27 25.8634C133.269 25.8638 133.269 25.8652 133.27 25.8666Z" fill="#323232"/>
<path d="M206.069 48.445C187.309 100.135 202.328 113.539 202.328 113.539L204.114 123.033C204.114 123.033 203.858 138.845 218.198 141.821C235.853 145.477 245.006 129.125 245.006 129.125L248.86 120.255C248.86 120.255 267.876 111.102 268.216 61.1691C268.216 61.1691 261.584 49.8336 238.375 45.9795C215.194 42.0971 206.069 48.445 206.069 48.445Z" fill="#F94E1E"/>
<path fill-rule="evenodd" clip-rule="evenodd" d="M204.628 112.241L206.617 122.819L206.613 123.066L206.613 123.069L206.613 123.071L206.613 123.082C206.613 123.099 206.613 123.131 206.614 123.176C206.615 123.266 206.619 123.409 206.628 123.598C206.646 123.977 206.687 124.537 206.777 125.225C206.958 126.61 207.333 128.465 208.1 130.383C209.613 134.168 212.581 138.102 218.705 139.373C226.602 141.008 232.561 138.203 236.652 134.899C238.71 133.237 240.271 131.462 241.318 130.1C241.839 129.421 242.227 128.853 242.48 128.462C242.606 128.267 242.698 128.117 242.756 128.021C242.762 128.012 242.767 128.003 242.772 127.994L246.938 118.406L247.755 118.013L247.752 118.014L247.75 118.015C247.75 118.015 247.752 118.014 247.755 118.013C247.756 118.013 247.756 118.012 247.757 118.012C247.768 118.006 247.796 117.991 247.838 117.967C247.927 117.917 248.08 117.826 248.289 117.686C248.707 117.406 249.351 116.932 250.148 116.202C251.739 114.744 253.962 112.248 256.231 108.212C260.722 100.225 265.447 86.1124 265.709 61.933C265.527 61.6901 265.273 61.3689 264.937 60.9856C264.068 59.9939 262.649 58.5839 260.528 57.0414C256.298 53.9644 249.204 50.312 237.966 48.4458L237.962 48.4452C226.647 46.5501 218.889 47.1721 214.049 48.2016C211.627 48.7169 209.924 49.3366 208.862 49.803C208.56 49.9353 208.31 50.0555 208.109 50.1577C199.109 75.2534 198.32 90.8459 199.638 100.02C200.303 104.651 201.507 107.658 202.474 109.449C202.959 110.347 203.389 110.947 203.671 111.3C203.813 111.477 203.918 111.592 203.975 111.653C203.995 111.673 204.009 111.688 204.017 111.695L204.628 112.241ZM206.069 48.445C187.309 100.135 202.328 113.539 202.328 113.539L204.114 123.033C204.114 123.033 203.858 138.845 218.198 141.821C235.853 145.477 245.006 129.125 245.006 129.125L248.86 120.255C248.86 120.255 267.876 111.102 268.216 61.1691C268.216 61.1691 261.584 49.8336 238.375 45.9795C215.194 42.0971 206.069 48.445 206.069 48.445ZM266.067 62.4465L266.066 62.4456C266.068 62.4485 266.068 62.4488 266.067 62.4465Z" fill="#323232"/>
<path d="M246.425 49.4946L260.696 58.8753V88.1909L267.083 86.7034L275.642 61.9353C275.642 61.9353 290.831 48.8995 273.715 36.9689C261.926 28.7507 255.55 38.4425 255.55 38.4425L246.425 49.4946Z" fill="#323232"/>
<path fill-rule="evenodd" clip-rule="evenodd" d="M255.55 38.4425L246.425 49.4946L260.696 58.8753V88.1909L267.083 86.7034L275.642 61.9353C275.642 61.9353 290.831 48.8995 273.715 36.9689C261.926 28.7507 255.55 38.4425 255.55 38.4425ZM265.172 84.5817L273.5 60.479L274.009 60.0423C274.008 60.0429 274.008 60.0432 274.009 60.0423L274.011 60.0408L274.026 60.0273C274.044 60.0116 274.074 59.9841 274.117 59.9452C274.201 59.8673 274.332 59.7441 274.498 59.5791C274.831 59.2483 275.299 58.7545 275.816 58.1256C276.862 56.8512 278.038 55.1055 278.737 53.1024C279.426 51.1281 279.635 48.9646 278.869 46.7058C278.1 44.4365 276.249 41.7825 272.285 39.0199C267.057 35.3751 263.448 35.8979 261.247 36.8995C260.054 37.4419 259.129 38.195 258.496 38.8264C258.183 39.1388 257.952 39.4112 257.806 39.5952C257.733 39.6869 257.682 39.7555 257.654 39.7948C257.642 39.8115 257.634 39.8228 257.631 39.8282L257.564 39.9298L250.127 48.9367L263.196 57.5269V85.0418L265.172 84.5817Z" fill="#323232"/>
<path d="M220.127 27.3059C214.573 25.2655 195.078 29.0857 201.511 52.2384C201.511 52.2384 199.299 66.5975 199.299 73.2571C199.299 80.5118 202.302 78.6557 202.302 74.6316C202.302 74.3198 207.375 50.5153 207.375 50.5153L220.694 47.228L220.127 27.3059Z" fill="#323232"/>
<path fill-rule="evenodd" clip-rule="evenodd" d="M207.375 50.5153L220.694 47.228L220.127 27.3059C214.573 25.2655 195.078 29.0857 201.511 52.2384C201.511 52.2384 199.299 66.5975 199.299 73.2571C199.299 74.4728 199.383 75.4327 199.524 76.1694C199.524 76.1712 199.524 76.173 199.525 76.1748C200.096 79.1622 201.591 78.4699 202.116 76.2864C202.118 76.2772 202.121 76.2679 202.123 76.2586C202.236 75.7793 202.302 75.2293 202.302 74.6316C202.302 74.3198 207.375 50.5153 207.375 50.5153ZM203.2 58.1297C203.544 56.5079 203.866 54.9925 204.137 53.7197C204.375 52.6012 204.573 51.6699 204.712 51.0182L204.929 49.9954C204.929 49.9952 204.93 49.9943 207.375 50.5153L204.93 49.9943L205.256 48.4632L218.137 45.2839L217.684 29.3585C216.797 29.2923 215.672 29.3282 214.396 29.5485C212.206 29.9265 209.839 30.8043 207.83 32.3204C205.848 33.8156 204.181 35.9519 203.331 38.9665C202.475 42.0051 202.402 46.106 203.92 51.5691L204.064 52.0874L203.982 52.6191L203.958 52.7763C203.942 52.8811 203.919 53.0365 203.889 53.2372C203.829 53.6384 203.743 54.2204 203.64 54.94C203.514 55.8234 203.362 56.913 203.2 58.1297Z" fill="#323232"/>
<path d="M229.279 14.4683C218.198 18.7758 216.215 47.0011 216.215 47.0011L249.654 50.0334C249.654 50.0334 263.285 35.4673 258.864 26.3422C254.415 17.2455 244.185 8.65885 229.279 14.4683Z" fill="#323232"/>
<path fill-rule="evenodd" clip-rule="evenodd" d="M230.186 16.7976L230.184 16.7984C228.234 17.5568 226.4 19.5044 224.766 22.5504C223.16 25.5439 221.934 29.252 221.018 32.951C220.107 36.6309 219.527 40.1969 219.176 42.8516C219.083 43.5507 219.007 44.1846 218.945 44.7385L248.622 47.4295C248.934 47.0655 249.324 46.6004 249.764 46.0513C250.927 44.601 252.419 42.5914 253.771 40.3281C255.131 38.0491 256.289 35.6105 256.864 33.2924C257.439 30.9706 257.374 29.0032 256.616 27.4357C254.569 23.2529 251.239 19.2945 246.85 17.039C242.542 14.8251 237.007 14.1396 230.186 16.7976ZM258.864 26.3422C263.285 35.4673 249.654 50.0334 249.654 50.0334L216.215 47.0011C216.215 47.0011 216.257 46.4006 216.363 45.3613C216.39 45.1044 216.42 44.8207 216.454 44.5126C217.237 37.523 220.214 17.9921 229.279 14.4683C244.185 8.65885 254.415 17.2455 258.864 26.3422Z" fill="#323232"/>
<path fill-rule="evenodd" clip-rule="evenodd" d="M199.447 73.5557L199.447 73.5557C199.27 71.6377 198.585 70.0332 197.913 69.1315C197.901 69.168 197.889 69.2056 197.877 69.2444C197.696 69.82 197.513 70.5669 197.351 71.4431C197.026 73.1969 196.81 75.3369 196.821 77.4305C196.833 79.5553 197.08 81.4608 197.573 82.8357C197.672 83.1114 197.772 83.3459 197.873 83.5455C197.989 83.3318 198.108 83.0964 198.226 82.8389C199.053 81.0286 199.875 78.0302 199.448 73.5644L199.447 73.5557ZM198.342 87.0847C192.36 85.5911 194.324 69.5921 196.177 66.9208C198.03 64.2496 201.467 68.2421 201.936 73.3262C202.874 83.1209 198.365 87.0847 198.342 87.0847Z" fill="#323232"/>
<path fill-rule="evenodd" clip-rule="evenodd" d="M270.354 95.0202C272.901 92.6884 274.032 89.8389 273.585 87.8218C273.03 85.3213 271.639 84.3194 270.643 84.1062C269.719 83.9083 268.52 84.2388 267.699 85.8571C266.6 88.0782 265.734 91.6007 265.139 94.772C264.927 95.9016 264.756 96.9501 264.624 97.8261C266.491 97.6462 268.554 96.6686 270.354 95.0202ZM261.802 100.049C261.802 100.049 262.929 89.8506 265.463 84.7376C268.034 79.652 274.582 80.773 276.025 87.2804C277.469 93.7879 268.702 102.073 261.802 100.049Z" fill="#323232"/>
<path d="M200.004 68.1706L197.283 86.7324C197.283 86.7324 189.774 109.687 202.356 113.541C216.412 117.877 236.221 123.573 246.621 122.609C254.244 121.901 261.924 118.529 262.207 100.193L266.855 81.9432C266.855 81.9432 265.211 81.6032 261.924 86.194C257.248 92.7403 250.787 108.667 241.492 108.327C233.557 108.043 217.999 105.266 210.518 97.7845C207.315 94.5823 204.085 78.9393 203.036 72.2514C202.328 67.6038 200.004 68.1706 200.004 68.1706Z" fill="#323232"/>
<path fill-rule="evenodd" clip-rule="evenodd" d="M199.659 87.5098L199.657 87.5162L199.645 87.5549C199.633 87.5912 199.615 87.6484 199.592 87.7252C199.545 87.8789 199.475 88.1108 199.39 88.4106C199.219 89.0108 198.986 89.8803 198.743 90.9382C198.255 93.0657 197.741 95.9005 197.598 98.8137C197.454 101.761 197.702 104.585 198.58 106.807C199.42 108.931 200.8 110.45 203.088 111.15L203.093 111.152C210.109 113.316 218.504 115.802 226.421 117.626C234.423 119.47 241.628 120.561 246.39 120.12C249.943 119.79 253.017 118.879 255.31 116.337C257.641 113.753 259.57 109.036 259.708 100.155L259.712 99.861L262.076 90.577C261.591 91.3852 261.078 92.2631 260.531 93.1982C260.43 93.3715 260.328 93.5467 260.224 93.7239C258.818 96.1282 257.232 98.8082 255.482 101.285C253.74 103.751 251.749 106.14 249.485 107.904C247.204 109.681 244.496 110.938 241.4 110.825C237.242 110.676 231.168 109.882 225.147 108.158C219.179 106.45 212.935 103.738 208.75 99.5523C207.534 98.3364 206.578 96.2946 205.809 94.274C204.994 92.1334 204.231 89.5718 203.55 86.9545C202.643 83.4678 201.859 79.7928 201.278 76.7188L199.726 87.3066L199.66 87.5083L199.659 87.5098ZM200.004 68.1706L197.283 86.7324C197.283 86.7324 189.774 109.687 202.356 113.541C216.412 117.877 236.221 123.573 246.621 122.609C254.244 121.901 261.924 118.529 262.207 100.193L266.855 81.9432C266.855 81.9432 265.828 81.7308 263.775 83.9083C263.23 84.4859 262.613 85.2316 261.924 86.194C260.846 87.7027 259.674 89.7095 258.394 91.9006C254.12 99.2171 248.645 108.588 241.492 108.327C233.557 108.043 217.999 105.266 210.518 97.7845C207.315 94.5823 204.085 78.9393 203.036 72.2514C202.866 71.1372 202.604 70.3227 202.302 69.7282C201.885 68.9046 201.394 68.5033 200.973 68.3126C200.43 68.0667 200.004 68.1706 200.004 68.1706Z" fill="#323232"/>
<path fill-rule="evenodd" clip-rule="evenodd" d="M230.278 70.2331C230.906 70.5196 231.183 71.261 230.897 71.8891L225.962 82.706L233.31 83.9385C233.991 84.0527 234.45 84.6972 234.336 85.378C234.222 86.0589 233.578 86.5182 232.897 86.404L223.942 84.9021C223.558 84.8378 223.227 84.5989 223.045 84.2557C222.862 83.9125 222.85 83.5041 223.011 83.1505L228.622 70.8515C228.909 70.2234 229.65 69.9465 230.278 70.2331Z" fill="#323232"/>
<path d="M208.927 106.141C208.927 106.141 215.02 93.2183 218.619 91.8014C222.218 90.3561 234.772 92.5099 237.265 94.6636C239.759 96.8174 241.941 111.525 241.941 111.525L235.48 112.234L232.618 99.6796C232.618 99.6796 228.84 101.339 226.402 100.913C223.608 100.424 220.404 96.8174 220.404 96.8174L215.728 107.218L208.927 106.141Z" fill="#323232"/>
<path fill-rule="evenodd" clip-rule="evenodd" d="M221.124 93.864L222.271 95.1543C222.271 95.1543 222.271 95.1549 222.271 95.1551C222.271 95.1552 222.272 95.1555 222.272 95.1559L222.29 95.1754C222.307 95.1942 222.335 95.225 222.374 95.2663C222.451 95.349 222.569 95.4729 222.72 95.6253C223.026 95.9323 223.457 96.3441 223.96 96.7649C225.071 97.6953 226.135 98.3282 226.832 98.4501C227.449 98.5579 228.528 98.402 229.729 98.0545C230.273 97.897 230.756 97.7263 231.102 97.5949C231.274 97.5296 231.409 97.4752 231.498 97.4386C231.542 97.4204 231.575 97.4066 231.595 97.3983L231.613 97.3906L231.614 97.39L231.615 97.3896L231.616 97.3892L234.383 96.1739L237.422 109.506L239.047 109.328C238.811 107.973 238.486 106.228 238.096 104.433C237.674 102.494 237.189 100.551 236.674 98.9907C236.416 98.2083 236.167 97.5747 235.938 97.1073C235.742 96.7077 235.621 96.5574 235.609 96.5384C235.601 96.5325 235.591 96.5253 235.579 96.5169C235.543 96.4922 235.494 96.4601 235.427 96.4215C235.292 96.343 235.112 96.2504 234.879 96.1469C234.411 95.9387 233.805 95.7175 233.078 95.4962C231.625 95.0538 229.823 94.6508 227.96 94.3512C226.096 94.0515 224.231 93.8652 222.653 93.8356C222.063 93.8245 221.554 93.8366 221.124 93.864ZM241.537 109.054C240.794 104.769 239.116 96.2615 237.265 94.6636C234.772 92.5099 222.218 90.3561 218.619 91.8014C215.992 92.8356 212.036 99.9995 210.091 103.794C209.371 105.198 208.927 106.141 208.927 106.141L215.728 107.218L220.404 96.8174C220.404 96.8174 221.189 97.7007 222.32 98.6524C223.475 99.6237 224.991 100.666 226.402 100.913C227.562 101.116 229.027 100.846 230.243 100.508C231.581 100.135 232.618 99.6796 232.618 99.6796L235.48 112.234L241.941 111.525C241.941 111.525 241.796 110.545 241.537 109.054ZM214.232 104.45L218.426 95.1192C218.162 95.4132 217.876 95.76 217.573 96.157C216.588 97.4465 215.55 99.0915 214.587 100.755C213.88 101.975 213.231 103.175 212.693 104.206L214.232 104.45Z" fill="#323232"/>
<path fill-rule="evenodd" clip-rule="evenodd" d="M215.305 64.6007L215.304 64.6018L215.303 64.6035L215.302 64.6053L215.302 64.6057C215.302 64.6061 215.302 64.6063 215.302 64.6063C215.302 64.6063 215.302 64.606 215.302 64.6053L215.314 64.5863C215.328 64.5658 215.351 64.5308 215.384 64.4845C215.451 64.3913 215.555 64.2553 215.694 64.1011C215.978 63.7861 216.375 63.4305 216.861 63.1874C217.332 62.952 217.887 62.8202 218.546 62.9307C219.215 63.0428 220.101 63.4235 221.19 64.4042C221.702 64.8664 222.493 64.8253 222.955 64.3125C223.417 63.7996 223.376 63.0092 222.863 62.5471C221.514 61.3316 220.208 60.6743 218.959 60.465C217.7 60.2541 216.611 60.5172 215.743 60.9513C214.89 61.3777 214.253 61.9661 213.837 62.4278C213.626 62.6619 213.464 62.8724 213.352 63.0286C213.296 63.107 213.252 63.1724 213.22 63.2212C213.204 63.2457 213.191 63.266 213.181 63.2818L213.169 63.3021L213.164 63.3095L213.162 63.3126L213.162 63.314C213.161 63.3146 213.161 63.3152 214.218 63.9481L213.161 63.3152C212.806 63.9075 212.999 64.6751 213.591 65.0298C214.183 65.3843 214.95 65.1921 215.305 64.6007Z" fill="#323232"/>
<path fill-rule="evenodd" clip-rule="evenodd" d="M248.123 68.9686L248.138 68.959C248.155 68.9481 248.186 68.929 248.229 68.9042C248.316 68.8545 248.45 68.784 248.618 68.7121C248.962 68.5648 249.405 68.4312 249.873 68.4227C250.322 68.4145 250.801 68.5193 251.281 68.8648C251.771 69.2184 252.349 69.8874 252.866 71.1555C253.127 71.7947 253.857 72.1015 254.496 71.8407C255.135 71.58 255.442 70.8504 255.181 70.2112C254.536 68.6312 253.708 67.5326 252.742 66.8368C251.766 66.1329 250.739 65.9065 249.828 65.9231C248.936 65.9393 248.165 66.1866 247.634 66.4139C247.364 66.5293 247.145 66.6445 246.989 66.7337C246.911 66.7784 246.847 66.8171 246.801 66.8465C246.777 66.8613 246.758 66.8738 246.743 66.8836L246.724 66.8964L246.717 66.9013L246.714 66.9033L246.713 66.9042C246.712 66.9046 246.712 66.905 247.421 67.9345L246.712 66.905C246.143 67.2966 246 68.0749 246.391 68.6435C246.781 69.2098 247.555 69.3544 248.123 68.9686Z" fill="#323232"/>
<path fill-rule="evenodd" clip-rule="evenodd" d="M216.106 71.4129C215.886 70.6143 216.354 69.7883 217.153 69.5679C217.81 69.3864 219.058 69.3604 220.512 69.8599C221.295 70.1292 221.712 70.9825 221.443 71.766C221.173 72.5495 220.32 72.9663 219.537 72.697C219.06 72.5332 218.656 72.4705 218.361 72.4536C218.125 72.44 217.988 72.457 217.952 72.4615C217.939 72.4631 217.939 72.4632 217.951 72.4597C217.153 72.6802 216.326 72.2115 216.106 71.4129Z" fill="#323232"/>
<path fill-rule="evenodd" clip-rule="evenodd" d="M244.821 75.2002C244.9 74.3755 245.632 73.7707 246.457 73.8494C247.136 73.9143 248.318 74.3344 249.513 75.3203C250.152 75.8475 250.243 76.793 249.715 77.4319C249.188 78.0709 248.243 78.1615 247.604 77.6342C247.208 77.3074 246.845 77.102 246.57 76.9794C246.347 76.88 246.209 76.8465 246.173 76.8378C246.161 76.8349 246.16 76.8348 246.172 76.8359C245.347 76.7572 244.742 76.0248 244.821 75.2002Z" fill="#323232"/>
<path fill-rule="evenodd" clip-rule="evenodd" d="M108.492 17.822C110.802 15.481 113.836 14.362 115.885 14.0639C116.704 13.9445 117.272 13.1833 117.153 12.3635C117.034 11.5437 116.272 10.9758 115.453 11.0951C112.893 11.4677 109.213 12.8204 106.357 15.7149C103.44 18.6714 101.485 23.1376 102.338 29.4498C102.448 30.2708 103.204 30.8464 104.025 30.7356C104.846 30.6247 105.421 29.8693 105.311 29.0483C104.58 23.6344 106.243 20.1011 108.492 17.822Z" fill="#323232"/>
<path fill-rule="evenodd" clip-rule="evenodd" d="M97.4271 10.7837C101.107 7.03028 105.929 5.25226 109.206 4.78019C110.026 4.66204 110.595 3.90156 110.476 3.0816C110.358 2.26164 109.598 1.69271 108.778 1.81085C104.985 2.3573 99.5132 4.37121 95.285 8.68337C90.996 13.0576 88.0934 19.694 89.3908 29.1956C89.5029 30.0164 90.2592 30.5909 91.08 30.4788C91.9008 30.3667 92.4753 29.6105 92.3632 28.7897C91.1873 20.1779 93.8076 14.4751 97.4271 10.7837Z" fill="#323232"/>
</g>
<defs>
<clipPath id="clip0_2764_32977">
<rect width="396.908" height="316" fill="white"/>
</clipPath>
</defs>
</svg>
