<svg width="142" height="362" viewBox="0 0 142 362" fill="none" xmlns="http://www.w3.org/2000/svg">
<g clip-path="url(#clip0_2831_26234)">
<path d="M15.1692 391.857C15.1692 391.857 -11.93 310.476 80.8544 273.04L120.986 258.31C120.986 258.31 189.112 233.463 219.278 244.356C219.278 244.356 259.898 258.629 275.818 274.183L240.151 328.398L211.729 311.581L255.519 431.794C255.519 431.794 204.076 493.005 84.7013 507.837L51.1771 393.988L46.9737 405.399C46.9737 405.399 22.5599 405.417 15.1692 391.857Z" fill="#FFD27C"/>
<mask id="path-2-inside-1_2831_26234" fill="white">
<path d="M9.17502 385.36C9.17502 385.36 -17.9241 303.979 74.8603 266.543L114.992 251.813C114.992 251.813 183.117 226.966 213.284 237.859C213.284 237.859 253.904 252.132 269.824 267.685L234.157 321.9L205.735 305.084L249.525 425.297C249.525 425.297 198.081 486.508 78.7071 501.34L45.183 387.491L40.9795 398.902C40.9795 398.902 16.5657 398.92 9.17502 385.36Z"/>
</mask>
<path d="M9.17502 385.36C9.17502 385.36 -17.9241 303.979 74.8603 266.543L114.992 251.813C114.992 251.813 183.117 226.966 213.284 237.859C213.284 237.859 253.904 252.132 269.824 267.685L234.157 321.9L205.735 305.084L249.525 425.297C249.525 425.297 198.081 486.508 78.7071 501.34L45.183 387.491L40.9795 398.902C40.9795 398.902 16.5657 398.92 9.17502 385.36Z" stroke="#323232" stroke-width="5.17047" mask="url(#path-2-inside-1_2831_26234)"/>
<path d="M47.8607 378.77C47.8607 378.77 40.8851 349.451 30.4049 333.854" stroke="#323232" stroke-width="2.58523" stroke-miterlimit="10" stroke-linecap="round" stroke-linejoin="round"/>
<path d="M73.7617 268.243C77.4079 274.933 85.6707 289.053 107.007 282.764C128.267 276.518 132.456 262.22 132.614 251.487" stroke="#323232" stroke-width="2.58523" stroke-miterlimit="10" stroke-linecap="round" stroke-linejoin="round"/>
<mask id="path-5-inside-2_2831_26234" fill="white">
<path d="M47.9728 195.393C56.5183 251.611 76.7892 256.349 76.7892 256.349L83.1084 264.086C83.1084 264.086 90.7021 278.57 105.195 274.176C123.034 268.758 123.254 249.381 123.254 249.381L122.364 239.42C122.364 239.42 135.1 221.699 110.699 176.192C110.699 176.192 99.0679 169.181 76.0866 177.167C53.117 185.113 47.9728 195.393 47.9728 195.393Z"/>
</mask>
<path d="M47.9728 195.393C56.5183 251.611 76.7892 256.349 76.7892 256.349L83.1084 264.086C83.1084 264.086 90.7021 278.57 105.195 274.176C123.034 268.758 123.254 249.381 123.254 249.381L122.364 239.42C122.364 239.42 135.1 221.699 110.699 176.192C110.699 176.192 99.0679 169.181 76.0866 177.167C53.117 185.113 47.9728 195.393 47.9728 195.393Z" fill="#F94E1E" stroke="#323232" stroke-width="5.17047" mask="url(#path-5-inside-2_2831_26234)"/>
<mask id="path-6-inside-3_2831_26234" fill="white">
<path d="M85.1335 176.376L102.734 177.832L117.241 204.45L122.305 199.938L117.819 173.214C117.819 173.214 125.16 153.86 103.714 151.498C88.943 149.87 87.9497 161.825 87.9497 161.825L85.1335 176.376Z"/>
</mask>
<path d="M85.1335 176.376L102.734 177.832L117.241 204.45L122.305 199.938L117.819 173.214C117.819 173.214 125.16 153.86 103.714 151.498C88.943 149.87 87.9497 161.825 87.9497 161.825L85.1335 176.376Z" fill="#323232" stroke="#323232" stroke-width="5.17047" mask="url(#path-6-inside-3_2831_26234)"/>
<mask id="path-7-inside-4_2831_26234" fill="white">
<path d="M50.275 169.242C44.2219 170.138 28.4117 183.254 45.7103 201.093C45.7103 201.093 50.8072 215.226 54.1029 221.272C57.693 227.86 59.5013 224.688 57.5099 221.034C57.3556 220.751 50.1815 196.627 50.1815 196.627L60.6484 187.051L50.275 169.242Z"/>
</mask>
<path d="M50.275 169.242C44.2219 170.138 28.4117 183.254 45.7103 201.093C45.7103 201.093 50.8072 215.226 54.1029 221.272C57.693 227.86 59.5013 224.688 57.5099 221.034C57.3556 220.751 50.1815 196.627 50.1815 196.627L60.6484 187.051L50.275 169.242Z" fill="#323232" stroke="#323232" stroke-width="5.17047" mask="url(#path-7-inside-4_2831_26234)"/>
<mask id="path-8-inside-5_2831_26234" fill="white">
<path d="M52.2307 153.056C44.3013 162.451 56.468 189.061 56.468 189.061L88.3316 175.266C88.3316 175.266 93.5001 155.295 84.9703 149.197C76.4288 143.139 62.8905 140.405 52.2307 153.056Z"/>
</mask>
<path d="M52.2307 153.056C44.3013 162.451 56.468 189.061 56.468 189.061L88.3316 175.266C88.3316 175.266 93.5001 155.295 84.9703 149.197C76.4288 143.139 62.8905 140.405 52.2307 153.056Z" fill="#323232" stroke="#323232" stroke-width="5.17047" mask="url(#path-8-inside-5_2831_26234)"/>
<mask id="path-9-inside-6_2831_26234" fill="white">
<path d="M56.533 220.029C53.5914 215.645 48.4942 213.721 48.1337 217.063C47.7733 220.406 53.907 235.905 60.0783 234.3C60.0986 234.289 62.2314 228.459 56.533 220.029Z"/>
</mask>
<path d="M56.533 220.029C53.5914 215.645 48.4942 213.721 48.1337 217.063C47.7733 220.406 53.907 235.905 60.0783 234.3C60.0986 234.289 62.2314 228.459 56.533 220.029Z" stroke="#323232" stroke-width="5.17047" mask="url(#path-9-inside-6_2831_26234)"/>
<mask id="path-10-inside-7_2831_26234" fill="white">
<path d="M124.116 214.67C131.383 213.092 135.243 201.231 130.712 196.037C126.181 190.842 119.68 193.065 119.863 198.955C120.092 204.852 124.116 214.67 124.116 214.67Z"/>
</mask>
<path d="M124.116 214.67C131.383 213.092 135.243 201.231 130.712 196.037C126.181 190.842 119.68 193.065 119.863 198.955C120.092 204.852 124.116 214.67 124.116 214.67Z" stroke="#323232" stroke-width="5.17047" mask="url(#path-10-inside-7_2831_26234)"/>
<mask id="path-11-inside-8_2831_26234" fill="white">
<path d="M52.2247 216.305L58.9401 234.506C58.9401 234.506 63.4807 259.065 76.8127 256.338C91.7211 253.319 112.526 248.688 121.493 242.666C128.064 238.25 133.368 231.388 124.552 214.599L119.741 195.728C119.741 195.728 118.08 196.233 117.367 202.028C116.361 210.286 118.376 227.945 109.767 232.236C102.422 235.905 86.9215 241.083 76.426 237.992C71.9337 236.669 61.259 224.064 56.9973 218.51C54.0541 214.641 52.2247 216.305 52.2247 216.305Z"/>
</mask>
<path d="M52.2247 216.305L58.9401 234.506C58.9401 234.506 63.4807 259.065 76.8127 256.338C91.7211 253.319 112.526 248.688 121.493 242.666C128.064 238.25 133.368 231.388 124.552 214.599L119.741 195.728C119.741 195.728 118.08 196.233 117.367 202.028C116.361 210.286 118.376 227.945 109.767 232.236C102.422 235.905 86.9215 241.083 76.426 237.992C71.9337 236.669 61.259 224.064 56.9973 218.51C54.0541 214.641 52.2247 216.305 52.2247 216.305Z" fill="#323232" stroke="#323232" stroke-width="5.17047" mask="url(#path-11-inside-8_2831_26234)"/>
<path d="M80.8291 204.485L81.8208 218.429L90.6952 215.361" stroke="#323232" stroke-width="2.58523" stroke-miterlimit="10" stroke-linecap="round" stroke-linejoin="round"/>
<mask id="path-13-inside-9_2831_26234" fill="white">
<path d="M87.9825 247.122C87.9825 247.122 85.4162 233.034 87.688 229.447C89.9425 225.838 102.191 218.73 105.675 218.633C109.16 218.535 120.023 228.218 120.023 228.218L114.826 233.26L104.683 225.692C104.683 225.692 102.403 229.589 100.02 230.963C97.2884 232.538 92.2995 232.023 92.2995 232.023L94.5634 243.203L87.9825 247.122Z"/>
</mask>
<path d="M87.9825 247.122C87.9825 247.122 85.4162 233.034 87.688 229.447C89.9425 225.838 102.191 218.73 105.675 218.633C109.16 218.535 120.023 228.218 120.023 228.218L114.826 233.26L104.683 225.692C104.683 225.692 102.403 229.589 100.02 230.963C97.2884 232.538 92.2995 232.023 92.2995 232.023L94.5634 243.203L87.9825 247.122Z" fill="#323232" stroke="#323232" stroke-width="5.17047" mask="url(#path-13-inside-9_2831_26234)"/>
<path d="M60.7752 204.64C60.7752 204.64 61.0135 198.77 67.613 200.346" stroke="#323232" stroke-width="2.58523" stroke-miterlimit="10" stroke-linecap="round" stroke-linejoin="round"/>
<path d="M93.3518 190.943C93.3518 190.943 95.7788 186.149 100.708 190.171" stroke="#323232" stroke-width="2.58523" stroke-miterlimit="10" stroke-linecap="round" stroke-linejoin="round"/>
<path d="M67.0625 209.699C67.3052 209.465 68.1201 208.94 69.4381 208.716" stroke="#323232" stroke-width="3.10228" stroke-linecap="round"/>
<path d="M96.7305 199.306C97.0434 199.172 98.0012 198.969 99.3295 199.225" stroke="#323232" stroke-width="3.10228" stroke-linecap="round"/>
<mask id="path-18-inside-10_2831_26234" fill="white">
<path d="M133.073 272.056C136.76 276.431 136.831 277.657 133.753 284.747C127.837 290.44 116.154 301.822 116.154 301.822C116.154 301.822 153.33 387.467 127.639 419.998C112.017 439.792 91.0088 442.818 67.5164 436.443C47.2641 430.948 17.7104 399.008 27.0308 401.112C27.0308 401.112 43.5032 382.079 54.9789 377.333C67.1208 372.312 78.5726 364.093 78.5726 364.093C78.5726 364.093 71.4724 279.638 75.222 272.972C75.222 272.972 73.7118 269.598 73.2111 255.862C72.7392 242.12 78.166 237.231 80.6088 236.743C83.0515 236.255 84.6006 236.027 86.9395 251.936L89.4649 253.753C89.4649 253.753 114.286 225.101 117.206 222.815C120.127 220.528 125.565 226.336 120.714 233.648C119.479 238.072 111.449 249.365 111.449 249.365C111.449 249.365 107.422 252.657 113.286 246.705C119.145 240.725 124.121 244.696 124.608 247.139C125.096 249.582 124.32 256.209 118.462 262.189C118.462 262.189 121.969 249.947 128.733 253.635C134.279 259.252 134.42 266.236 125.129 276.278C125.129 276.278 130.414 268.613 133.073 272.056Z"/>
</mask>
<path d="M133.073 272.056C136.76 276.431 136.831 277.657 133.753 284.747C127.837 290.44 116.154 301.822 116.154 301.822C116.154 301.822 153.33 387.467 127.639 419.998C112.017 439.792 91.0088 442.818 67.5164 436.443C47.2641 430.948 17.7104 399.008 27.0308 401.112C27.0308 401.112 43.5032 382.079 54.9789 377.333C67.1208 372.312 78.5726 364.093 78.5726 364.093C78.5726 364.093 71.4724 279.638 75.222 272.972C75.222 272.972 73.7118 269.598 73.2111 255.862C72.7392 242.12 78.166 237.231 80.6088 236.743C83.0515 236.255 84.6006 236.027 86.9395 251.936L89.4649 253.753C89.4649 253.753 114.286 225.101 117.206 222.815C120.127 220.528 125.565 226.336 120.714 233.648C119.479 238.072 111.449 249.365 111.449 249.365C111.449 249.365 107.422 252.657 113.286 246.705C119.145 240.725 124.121 244.696 124.608 247.139C125.096 249.582 124.32 256.209 118.462 262.189C118.462 262.189 121.969 249.947 128.733 253.635C134.279 259.252 134.42 266.236 125.129 276.278C125.129 276.278 130.414 268.613 133.073 272.056Z" fill="#F94E1E" stroke="#323232" stroke-width="5.17047" stroke-linejoin="round" mask="url(#path-18-inside-10_2831_26234)"/>
<g clip-path="url(#clip1_2831_26234)">
<circle r="31.4863" transform="matrix(-0.80456 0.593871 0.593871 0.80456 87.8466 63.571)" fill="#7687C6"/>
<mask id="path-20-outside-11_2831_26234" maskUnits="userSpaceOnUse" x="28.8516" y="14.9747" width="101.108" height="100.266" fill="black">
<rect fill="white" x="28.8516" y="14.9747" width="101.108" height="100.266"/>
<path d="M109.544 45.345C110.265 46.7008 111.088 48.0052 111.695 49.3969C117.353 62.4978 115.933 74.6349 107.079 85.4237C101.051 92.7409 92.9561 96.3738 83.414 96.7499C83.0733 96.7624 82.6612 96.8993 82.4123 97.1309C78.0374 101.316 73.7005 105.521 69.3485 109.737C69.2693 109.819 69.1865 109.928 69.0845 109.98C68.7291 110.098 68.3174 110.331 68.0216 110.214C67.7903 110.122 67.5763 109.611 67.5675 109.283C67.5334 107.373 67.5789 105.475 67.5714 103.569C67.5851 100.333 67.5988 97.0964 67.6276 93.849C67.6298 93.4412 67.4965 93.2289 67.1285 93.0465C52.5044 85.3686 45.2814 69.0733 49.6824 53.3266C52.0417 44.894 57.0435 38.43 64.5597 34.0768C76.514 27.1409 91.4196 28.4695 102.38 37.4414C103.843 38.6323 105.109 40.0634 106.458 41.3856C106.625 41.5489 106.808 41.7011 106.975 41.8645C107.831 43.0246 108.688 44.1848 109.544 45.345ZM69.1962 107.603C69.992 106.848 70.7087 106.176 71.3988 105.499C74.7174 102.285 78.059 99.1015 81.3548 95.8563C81.9053 95.3065 82.4839 95.1423 83.2334 95.1149C93.4569 94.7138 101.666 90.4465 107.566 82.1966C116.44 69.7918 115.113 53.0158 104.494 41.5688C99.373 36.0529 93.0795 32.7406 85.7347 31.6381C71.8105 29.5851 58.8335 36.3679 52.9745 49.1282C48.0464 59.8633 49.0273 70.5142 55.556 80.6547C58.748 85.6111 63.1198 89.2904 68.3883 91.8776C69.0104 92.1832 69.2391 92.5879 69.2381 93.2816C69.1991 97.7792 69.1866 102.281 69.1741 106.783C69.156 107.011 69.191 107.248 69.1962 107.603Z"/>
</mask>
<path d="M109.544 45.345C110.265 46.7008 111.088 48.0052 111.695 49.3969C117.353 62.4978 115.933 74.6349 107.079 85.4237C101.051 92.7409 92.9561 96.3738 83.414 96.7499C83.0733 96.7624 82.6612 96.8993 82.4123 97.1309C78.0374 101.316 73.7005 105.521 69.3485 109.737C69.2693 109.819 69.1865 109.928 69.0845 109.98C68.7291 110.098 68.3174 110.331 68.0216 110.214C67.7903 110.122 67.5763 109.611 67.5675 109.283C67.5334 107.373 67.5789 105.475 67.5714 103.569C67.5851 100.333 67.5988 97.0964 67.6276 93.849C67.6298 93.4412 67.4965 93.2289 67.1285 93.0465C52.5044 85.3686 45.2814 69.0733 49.6824 53.3266C52.0417 44.894 57.0435 38.43 64.5597 34.0768C76.514 27.1409 91.4196 28.4695 102.38 37.4414C103.843 38.6323 105.109 40.0634 106.458 41.3856C106.625 41.5489 106.808 41.7011 106.975 41.8645C107.831 43.0246 108.688 44.1848 109.544 45.345ZM69.1962 107.603C69.992 106.848 70.7087 106.176 71.3988 105.499C74.7174 102.285 78.059 99.1015 81.3548 95.8563C81.9053 95.3065 82.4839 95.1423 83.2334 95.1149C93.4569 94.7138 101.666 90.4465 107.566 82.1966C116.44 69.7918 115.113 53.0158 104.494 41.5688C99.373 36.0529 93.0795 32.7406 85.7347 31.6381C71.8105 29.5851 58.8335 36.3679 52.9745 49.1282C48.0464 59.8633 49.0273 70.5142 55.556 80.6547C58.748 85.6111 63.1198 89.2904 68.3883 91.8776C69.0104 92.1832 69.2391 92.5879 69.2381 93.2816C69.1991 97.7792 69.1866 102.281 69.1741 106.783C69.156 107.011 69.191 107.248 69.1962 107.603Z" fill="#323232"/>
<path d="M109.544 45.345C110.265 46.7008 111.088 48.0052 111.695 49.3969C117.353 62.4978 115.933 74.6349 107.079 85.4237C101.051 92.7409 92.9561 96.3738 83.414 96.7499C83.0733 96.7624 82.6612 96.8993 82.4123 97.1309C78.0374 101.316 73.7005 105.521 69.3485 109.737C69.2693 109.819 69.1865 109.928 69.0845 109.98C68.7291 110.098 68.3174 110.331 68.0216 110.214C67.7903 110.122 67.5763 109.611 67.5675 109.283C67.5334 107.373 67.5789 105.475 67.5714 103.569C67.5851 100.333 67.5988 97.0964 67.6276 93.849C67.6298 93.4412 67.4965 93.2289 67.1285 93.0465C52.5044 85.3686 45.2814 69.0733 49.6824 53.3266C52.0417 44.894 57.0435 38.43 64.5597 34.0768C76.514 27.1409 91.4196 28.4695 102.38 37.4414C103.843 38.6323 105.109 40.0634 106.458 41.3856C106.625 41.5489 106.808 41.7011 106.975 41.8645C107.831 43.0246 108.688 44.1848 109.544 45.345ZM69.1962 107.603C69.992 106.848 70.7087 106.176 71.3988 105.499C74.7174 102.285 78.059 99.1015 81.3548 95.8563C81.9053 95.3065 82.4839 95.1423 83.2334 95.1149C93.4569 94.7138 101.666 90.4465 107.566 82.1966C116.44 69.7918 115.113 53.0158 104.494 41.5688C99.373 36.0529 93.0795 32.7406 85.7347 31.6381C71.8105 29.5851 58.8335 36.3679 52.9745 49.1282C48.0464 59.8633 49.0273 70.5142 55.556 80.6547C58.748 85.6111 63.1198 89.2904 68.3883 91.8776C69.0104 92.1832 69.2391 92.5879 69.2381 93.2816C69.1991 97.7792 69.1866 102.281 69.1741 106.783C69.156 107.011 69.191 107.248 69.1962 107.603Z" stroke="#323232" stroke-width="1.34941" mask="url(#path-20-outside-11_2831_26234)"/>
<mask id="path-21-outside-12_2831_26234" maskUnits="userSpaceOnUse" x="67" y="41" width="28" height="47" fill="black">
<rect fill="white" x="67" y="41" width="28" height="47"/>
<path d="M80.5042 69.1902C79.6247 69.1902 78.9195 68.9247 78.3885 68.3937C77.8574 67.8461 77.5919 67.1408 77.5919 66.2779V65.0582C77.5919 64.0128 77.874 63.0752 78.4382 62.2455C79.0024 61.3992 79.6828 60.6939 80.4793 60.1297C81.2759 59.5489 82.0724 58.9681 82.8689 58.3873C83.6655 57.8065 84.3458 57.1261 84.91 56.3462C85.4742 55.5663 85.7564 54.6785 85.7564 53.6828C85.7564 52.2889 85.2585 51.119 84.2629 50.1731C83.2838 49.2272 82.0807 48.7543 80.6536 48.7543C79.2597 48.7543 78.04 49.2189 76.9945 50.1482C75.9657 51.0775 75.3683 52.2806 75.2023 53.7575C74.7875 54.7697 73.9744 55.2759 72.763 55.2759C71.983 55.2759 71.3275 55.0601 70.7965 54.6287C70.2655 54.1806 70 53.5335 70 52.6872C70.0332 50.1648 71.1118 48.0905 73.2359 46.4643C75.36 44.8214 77.8159 44 80.6038 44C83.6904 44 86.3372 44.9376 88.5442 46.8127C90.7678 48.6879 91.8797 50.9281 91.8797 53.5335C91.8797 54.9606 91.5893 56.2135 91.0085 57.2921C90.4277 58.3541 89.7224 59.2087 88.8927 59.8559C88.063 60.5031 87.225 61.0922 86.3786 61.6232C85.5489 62.1542 84.8437 62.735 84.2629 63.3656C83.6986 63.9796 83.4165 64.6434 83.4165 65.3569V66.3775C83.4165 67.257 83.1427 67.9457 82.5951 68.4435C82.0475 68.9413 81.3505 69.1902 80.5042 69.1902ZM82.5423 84.9739C81.53 84.9739 80.6423 84.6172 79.8789 83.9036C79.1322 83.1901 78.7588 82.3271 78.7588 81.3149C78.7588 80.286 79.1322 79.4148 79.8789 78.7013C80.6257 77.9877 81.5135 77.6309 82.5423 77.6309C83.5546 77.6309 84.4341 77.9877 85.1808 78.7013C85.9276 79.4148 86.3009 80.286 86.3009 81.3149C86.3009 82.3271 85.9276 83.1901 85.1808 83.9036C84.4341 84.6172 83.5546 84.9739 82.5423 84.9739Z"/>
</mask>
<path d="M80.5042 69.1902C79.6247 69.1902 78.9195 68.9247 78.3885 68.3937C77.8574 67.8461 77.5919 67.1408 77.5919 66.2779V65.0582C77.5919 64.0128 77.874 63.0752 78.4382 62.2455C79.0024 61.3992 79.6828 60.6939 80.4793 60.1297C81.2759 59.5489 82.0724 58.9681 82.8689 58.3873C83.6655 57.8065 84.3458 57.1261 84.91 56.3462C85.4742 55.5663 85.7564 54.6785 85.7564 53.6828C85.7564 52.2889 85.2585 51.119 84.2629 50.1731C83.2838 49.2272 82.0807 48.7543 80.6536 48.7543C79.2597 48.7543 78.04 49.2189 76.9945 50.1482C75.9657 51.0775 75.3683 52.2806 75.2023 53.7575C74.7875 54.7697 73.9744 55.2759 72.763 55.2759C71.983 55.2759 71.3275 55.0601 70.7965 54.6287C70.2655 54.1806 70 53.5335 70 52.6872C70.0332 50.1648 71.1118 48.0905 73.2359 46.4643C75.36 44.8214 77.8159 44 80.6038 44C83.6904 44 86.3372 44.9376 88.5442 46.8127C90.7678 48.6879 91.8797 50.9281 91.8797 53.5335C91.8797 54.9606 91.5893 56.2135 91.0085 57.2921C90.4277 58.3541 89.7224 59.2087 88.8927 59.8559C88.063 60.5031 87.225 61.0922 86.3786 61.6232C85.5489 62.1542 84.8437 62.735 84.2629 63.3656C83.6986 63.9796 83.4165 64.6434 83.4165 65.3569V66.3775C83.4165 67.257 83.1427 67.9457 82.5951 68.4435C82.0475 68.9413 81.3505 69.1902 80.5042 69.1902ZM82.5423 84.9739C81.53 84.9739 80.6423 84.6172 79.8789 83.9036C79.1322 83.1901 78.7588 82.3271 78.7588 81.3149C78.7588 80.286 79.1322 79.4148 79.8789 78.7013C80.6257 77.9877 81.5135 77.6309 82.5423 77.6309C83.5546 77.6309 84.4341 77.9877 85.1808 78.7013C85.9276 79.4148 86.3009 80.286 86.3009 81.3149C86.3009 82.3271 85.9276 83.1901 85.1808 83.9036C84.4341 84.6172 83.5546 84.9739 82.5423 84.9739Z" stroke="#323232" stroke-width="5.09779" mask="url(#path-21-outside-12_2831_26234)"/>
</g>
</g>
<defs>
<clipPath id="clip0_2831_26234">
<rect width="142" height="362" fill="white"/>
</clipPath>
<clipPath id="clip1_2831_26234">
<rect width="108.024" height="110.131" fill="white" transform="matrix(-0.80456 0.593871 0.593871 0.80456 94.2539 -6.87988)"/>
</clipPath>
</defs>
</svg>
