<svg width="181" height="247" viewBox="0 0 181 247" fill="none" xmlns="http://www.w3.org/2000/svg">
<g clip-path="url(#clip0_2380_22945)">
<g opacity="0.1">
<circle cx="9.5" cy="9.5" r="9.5" fill="#767676"/>
<circle cx="9.5" cy="47.5" r="9.5" fill="#767676"/>
<circle cx="9.5" cy="85.5" r="9.5" fill="#767676"/>
<circle cx="9.5" cy="123.5" r="9.5" fill="#767676"/>
<circle cx="9.5" cy="161.5" r="9.5" fill="#767676"/>
<circle cx="9.5" cy="199.5" r="9.5" fill="#767676"/>
<circle cx="47.5" cy="9.5" r="9.5" fill="#767676"/>
<circle cx="9.5" cy="237.5" r="9.5" fill="#767676"/>
<circle cx="47.5" cy="47.5" r="9.5" fill="#767676"/>
<circle cx="47.5" cy="85.5" r="9.5" fill="#767676"/>
<circle cx="47.5" cy="123.5" r="9.5" fill="#767676"/>
<circle cx="47.5" cy="161.5" r="9.5" fill="#767676"/>
<circle cx="85.5" cy="9.5" r="9.5" fill="#767676"/>
<circle cx="47.5" cy="199.5" r="9.5" fill="#767676"/>
<circle cx="47.5" cy="237.5" r="9.5" fill="#767676"/>
<circle cx="85.5" cy="47.5" r="9.5" fill="#767676"/>
<circle cx="85.5" cy="85.5" r="9.5" fill="#767676"/>
<circle cx="85.5" cy="123.5" r="9.5" fill="#767676"/>
<circle cx="123.5" cy="9.5" r="9.5" fill="#767676"/>
<circle cx="85.5" cy="161.5" r="9.5" fill="#767676"/>
<circle cx="85.5" cy="199.5" r="9.5" fill="#767676"/>
<circle cx="85.5" cy="237.5" r="9.5" fill="#767676"/>
<circle cx="123.5" cy="47.5" r="9.5" fill="#767676"/>
<circle cx="123.5" cy="85.5" r="9.5" fill="#767676"/>
<circle cx="161.5" cy="9.5" r="9.5" fill="#767676"/>
<circle cx="123.5" cy="123.5" r="9.5" fill="#767676"/>
<circle cx="123.5" cy="161.5" r="9.5" fill="#767676"/>
<circle cx="123.5" cy="199.5" r="9.5" fill="#767676"/>
<circle cx="123.5" cy="237.5" r="9.5" fill="#767676"/>
<circle cx="161.5" cy="47.5" r="9.5" fill="#767676"/>
<circle cx="161.5" cy="85.5" r="9.5" fill="#767676"/>
<circle cx="161.5" cy="123.5" r="9.5" fill="#767676"/>
<circle cx="161.5" cy="161.5" r="9.5" fill="#767676"/>
<circle cx="161.5" cy="199.5" r="9.5" fill="#767676"/>
<circle cx="161.5" cy="237.5" r="9.5" fill="#767676"/>
</g>
</g>
<defs>
<clipPath id="clip0_2380_22945">
<rect width="181" height="247" fill="white"/>
</clipPath>
</defs>
</svg>
