<svg width="108" height="105" viewBox="0 0 108 105" fill="none" xmlns="http://www.w3.org/2000/svg">
<path d="M64.2701 90.2672C67.3442 80.8666 70.476 71.6727 73.3368 62.3968C75.2365 56.2331 76.3975 49.8852 76.6482 43.4087C76.825 38.7576 76.3105 34.2069 74.8383 29.7549C71.8708 20.77 62.8966 15.951 53.9016 18.7148C49.343 20.1132 46.1241 23.2542 44.4344 27.59C43.2444 30.642 42.8482 33.9992 42.0235 37.2C41.7956 38.0855 41.4994 39.2627 40.8524 39.6309C40.3328 39.9273 39.0908 39.3924 38.4118 38.8977C34.9665 36.3832 31.3006 34.3989 27.0191 33.765C14.9251 31.9733 5.36415 43.8849 9.69014 55.3261C11.6159 60.4213 14.9706 64.4534 19.0246 67.9609C23.5678 71.8988 28.7009 74.9415 34.0319 77.6653C43.6251 82.5768 53.7097 86.3271 64.2701 90.2672Z" fill="#FF756C"/>
<path d="M44.6867 26.7016C41.0178 24.3394 37.0957 22.6365 32.6847 22.2308C18.3171 20.9048 7.5844 34.9049 12.5845 48.4564C15.1457 55.3962 19.9968 60.5008 25.747 64.8663C32.4164 69.9322 39.8277 73.7136 47.5129 76.9313C54.9447 80.0452 62.4908 82.8876 69.998 85.8254C71.6037 86.455 72.3659 86.1987 72.8926 84.7839C77.5397 72.3074 82.3563 59.8815 84.9417 46.7594C86.3623 39.5253 87.0202 32.2552 85.5102 24.9501C84.1794 18.5094 81.3369 13.0005 75.5663 9.40314C65.0693 2.85177 51.7509 7.30886 47.0199 19.0192C46.0352 21.4474 45.4762 24.0562 44.6867 26.7016ZM70.4536 82.2674C59.895 78.331 49.8125 74.5752 40.2116 69.6672C34.8789 66.9396 29.7497 63.8952 25.2043 59.9628C21.1542 56.4536 17.7957 52.4232 15.8699 47.328C11.5439 35.8868 21.1049 23.9752 33.1989 25.7669C37.4804 26.4008 41.1463 28.3851 44.5916 30.8996C45.2705 31.3943 46.5126 31.9292 47.0322 31.6328C47.6791 31.2646 47.9754 30.0874 48.2033 29.2018C49.028 26.0011 49.4242 22.6439 50.6142 19.5919C52.3039 15.2561 55.5228 12.1151 60.0814 10.7167C69.0802 7.95115 78.0544 12.7702 81.0219 21.7551C82.4903 26.2088 83.0086 30.7577 82.828 35.4106C82.5811 41.8854 81.4201 48.2332 79.5166 54.3987C76.6596 63.6729 73.5278 72.8668 70.4536 82.2674Z" fill="white"/>
</svg>
