<svg width="325" height="136" viewBox="0 0 325 136" fill="none" xmlns="http://www.w3.org/2000/svg">
<g opacity="0.1">
<g clip-path="url(#clip0_496_4269)">
<path d="M41.5278 7.19775C52.9324 7.19775 63.2324 9.58472 70.6631 13.4199C78.1193 17.2683 82.5556 22.4959 82.5556 28.1316C82.5556 33.7673 78.1193 38.995 70.6631 42.8434C63.2324 46.6786 52.9324 49.0655 41.5278 49.0655C30.1232 49.0655 19.8232 46.6785 12.3925 42.8432C4.93632 38.9948 0.5 33.7672 0.5 28.1316C0.5 22.4959 4.93633 17.2683 12.3925 13.4199C19.8232 9.58472 30.1232 7.19775 41.5278 7.19775Z" fill="#FFFAF7" stroke="#323232"/>
<path d="M37.4662 12.5562H41.8554L40.8318 17.8841L40.7176 18.4784H41.3228H46.4269C48.6271 18.6172 50.0456 19.2277 50.8483 20.0541C51.6358 20.8649 51.9001 21.9557 51.6415 23.2383L51.6401 23.2453L51.6389 23.2523L49.7194 34.3999H45.0564L46.9331 24.564C46.9332 24.5632 46.9334 24.5623 46.9336 24.5614C47.005 24.2066 47.0656 23.8553 47.0758 23.5337C47.0861 23.2117 47.0482 22.8717 46.8808 22.5673C46.5226 21.9162 45.7529 21.709 44.7365 21.709H40.4696H40.0604L39.9795 22.1102L37.5007 34.4003H33.1147L37.4662 12.5562ZM23.3516 34.4007L23.337 34.3999H23.3225H18.2035H17.7904L17.7125 34.8056L16.6526 40.3225H12.2706L16.6224 18.4784H26.7201C28.9169 18.617 30.4882 19.2268 31.5091 20.2074C32.5244 21.1826 33.0622 22.589 33.0622 24.4652C33.0622 30.9339 27.9125 34.6668 23.3516 34.4007ZM18.8478 30.5871L18.7498 31.17H19.3409H22.7541H22.7816L22.8089 31.167C24.1126 31.0233 25.458 30.7278 26.505 29.7695C27.5615 28.8024 28.2267 27.2447 28.373 24.7766L28.3738 24.7618V24.747C28.3738 23.7393 27.9399 22.9513 27.2007 22.4339C26.4837 21.932 25.5174 21.709 24.4609 21.709H20.7632H20.3402L20.2701 22.1262L18.8478 30.5871ZM61.4672 34.4007L61.4527 34.3999H61.4381H56.318H55.9049L55.827 34.8056L54.7672 40.3225H50.3855L54.7373 18.4784H64.8354C67.0324 18.617 68.6038 19.2269 69.6247 20.2074C70.6401 21.1826 71.1779 22.589 71.1779 24.4652C71.1779 30.9338 66.0278 34.6668 61.4672 34.4007ZM56.9623 30.5871L56.8643 31.17H57.4554H60.8687H60.8961L60.9234 31.167C62.2272 31.0233 63.5726 30.7278 64.6196 29.7695C65.676 28.8024 66.3412 27.2447 66.4875 24.7766L66.4884 24.7618V24.747C66.4884 23.7393 66.0545 22.9513 65.3152 22.4339C64.5982 21.932 63.6319 21.709 62.5755 21.709H58.8777H58.4547L58.3846 22.1262L56.9623 30.5871Z" stroke="#323232"/>
</g>
<path d="M111.635 104.751H111.639H111.672H111.707H111.741H111.777H111.813H111.851H111.888H111.927H111.966H112.006H112.047H112.088H112.13H112.172H112.216H112.26H112.305H112.35H112.396H112.443H112.49H112.538H112.587H112.636H112.686H112.737H112.788H112.84H112.893H112.946H113H113.054H113.109H113.165H113.221H113.278H113.336H113.394H113.453H113.512H113.572H113.632H113.693H113.755H113.817H113.88H113.943H114.007H114.072H114.137H114.202H114.269H114.335H114.403H114.47H114.539H114.607H114.677H114.747H114.817H114.888H114.96H115.032H115.104H115.177H115.25H115.324H115.399H115.474H115.549H115.625H115.702H115.778H115.856H115.934H116.012H116.091H116.17H116.249H116.329H116.41H116.491H116.572H116.654H116.736H116.819H116.902H116.986H117.07H117.154H117.239H117.324H117.41H117.496H117.582H117.669H117.756H117.843H117.931H118.02H118.108H118.197H118.287H118.376H118.466H118.557H118.648H118.739H118.83H118.922H119.014H119.107H119.2H119.293H119.386H119.48H119.574H119.669H119.763H119.858H119.954H120.049H120.145H120.241H120.338H120.435H120.532H120.629H120.727H120.825H120.923H121.021H121.12H121.218H121.318H121.417H121.517H121.616H121.717H121.817H121.917H122.018H122.119H122.22H122.322H122.423H122.525H122.627H122.729H122.832H122.934H123.037H123.14H123.243H123.347H123.45H123.554H123.658H123.762H123.866H123.97H124.074H124.179H124.284H124.389H124.494H124.599H124.704H124.809H124.915H125.021H125.126H125.232H125.338H125.444H125.55H125.657H125.763H125.869H125.976H126.083H126.189H126.296H126.403H126.51H126.617H126.724H126.831H126.938H127.045H127.152H127.259H127.367H127.474H127.581H127.689H127.796H127.904H128.011H128.118H128.226H128.333H128.441H128.548H128.656H128.763H128.87H128.978H129.085H129.193H129.3H129.407H129.514H129.622H129.729H129.836H129.943H130.05H130.157H130.264H130.371H130.477H130.584H130.691H130.797H130.904H131.01H131.116H131.222H131.329H131.435H131.54H131.646H131.752H131.857H131.963H132.068H132.173H132.278H132.383H132.488H132.593H132.697H132.801H132.906H133.01H133.113H133.217H133.321H133.424H133.527H133.63H133.733H133.836H133.938H134.04H134.142H134.244H134.346H134.447H134.549H134.65H134.75H134.851H134.951H135.051H135.151H135.251H135.35H135.45H135.548H135.647H135.746H135.844H135.942H136.039H136.137H136.234H136.331H136.427H136.523H136.619H136.715H136.81H136.905H137H137.095H137.189H137.283H137.376H137.469H137.562H137.655H137.747H137.839H137.931H138.022H138.113H138.203H138.293H138.383H138.473H138.562H138.65H138.739H138.827H138.914H139.002H139.088H139.175H139.261H139.347H139.432H139.517H139.601H139.685H139.769H139.852H139.935H140.017H140.099H140.18H140.261H140.342H140.422H140.502H140.581H140.66H140.738H140.816H140.894H140.971H141.047H141.123H141.199H141.274H141.348H141.422H141.496H141.569H141.641H141.713H141.785H141.856H141.927H141.997H142.066H142.135H142.203H142.271H142.339H142.405H142.472H142.537H142.603H142.667H142.731H142.795H142.858H142.92H142.982H143.043H143.103H143.163H143.223H143.282H143.34H143.397H143.454H143.511H143.567H143.622H143.676H143.73H143.784H143.836H143.888H143.94H143.991H144.041H144.09H144.139H144.187H144.235H144.282H144.328H144.373H144.418H144.462H144.506H144.549H144.591H144.632H144.673H144.713H144.752H144.791H144.829H144.866H144.903H144.938H144.973H145.008H145.041H145.074H145.106H145.138H145.168H145.198H145.227H145.255H145.283H145.31H145.336H145.361H145.386H145.409H145.432H145.455H145.476H145.497H145.516H145.535H145.554H145.571H145.587H145.603H145.618H145.632H145.645H145.658H145.67H145.68H145.69H145.699H145.708H145.715H145.721H145.727H145.732H145.736H145.739H145.741H145.743C145.743 104.751 145.743 104.751 145.743 104.339M111.635 104.751L152.518 96.1113C152.284 99.5491 150.678 101.699 149.095 102.99C148.28 103.655 147.474 104.09 146.871 104.359C146.569 104.494 146.317 104.587 146.139 104.648C146.049 104.678 145.978 104.7 145.929 104.715C145.904 104.722 145.884 104.728 145.87 104.732L145.854 104.736L145.849 104.737L145.847 104.738L145.846 104.738C145.846 104.738 145.846 104.738 145.743 104.339M111.635 104.751H111.606H111.574H111.543H111.513H111.483H111.454H111.426H111.398H111.372H111.346H111.32H111.296H111.273H111.258H111.25H111.234H111.228H111.211H111.206H111.189H111.186H111.168H111.166H111.148H111.148H111.13H111.129H111.112H111.11H111.096H111.093H111.08H111.077H111.066H111.062H111.052H111.047H111.038H111.034H111.026H111.022H111.015H111.01H111.004H111H110.994H110.99H110.985H110.981H110.977H110.973H110.97H110.966H110.964H110.96H110.958H110.955H110.954H110.951H110.95H110.948H110.947H110.945H110.945H110.944H110.944H110.943C110.943 104.608 110.943 104.465 110.943 104.339C110.943 104.33 110.943 104.321 110.943 104.311L110.847 104.303C111.211 100.173 112.884 97.9276 114.514 96.7234C115.323 96.1263 116.109 95.7942 116.695 95.6111C116.702 95.6087 116.71 95.6063 116.718 95.604L111.635 104.751ZM145.743 104.339V104.751H145.795L145.846 104.738L145.743 104.339ZM111.741 103.927H111.714C112.135 100.308 113.632 98.3999 115.004 97.3865C115.725 96.8543 116.424 96.5595 116.941 96.398C117.199 96.3174 117.41 96.2704 117.555 96.2437C117.627 96.2304 117.682 96.2222 117.718 96.2175C117.732 96.2156 117.743 96.2143 117.751 96.2134L117.758 96.2134L117.84 96.2132L118.159 96.2125L119.368 96.2099L123.653 96.2005C127.183 96.1927 131.848 96.1823 136.391 96.172C140.935 96.1616 145.356 96.1512 148.398 96.1434C149.861 96.1397 151.005 96.1366 151.69 96.1343C151.454 99.2652 149.995 101.192 148.574 102.351C147.827 102.961 147.087 103.36 146.535 103.606C146.259 103.729 146.031 103.814 145.874 103.867C145.796 103.894 145.735 103.912 145.695 103.924C145.692 103.925 145.689 103.926 145.686 103.927H145.68H145.67H145.658H145.645H145.632H145.618H145.603H145.587H145.571H145.554H145.535H145.516H145.497H145.476H145.455H145.432H145.409H145.386H145.361H145.336H145.31H145.283H145.255H145.227H145.198H145.168H145.138H145.106H145.074H145.041H145.008H144.973H144.938H144.903H144.866H144.829H144.791H144.752H144.713H144.673H144.632H144.591H144.549H144.506H144.462H144.418H144.373H144.328H144.282H144.235H144.187H144.139H144.09H144.041H143.991H143.94H143.888H143.836H143.784H143.73H143.676H143.622H143.567H143.511H143.454H143.397H143.34H143.282H143.223H143.163H143.103H143.043H142.982H142.92H142.858H142.795H142.731H142.667H142.603H142.537H142.472H142.405H142.339H142.271H142.203H142.135H142.066H141.997H141.927H141.856H141.785H141.713H141.641H141.569H141.496H141.422H141.348H141.274H141.199H141.123H141.047H140.971H140.894H140.816H140.738H140.66H140.581H140.502H140.422H140.342H140.261H140.18H140.099H140.017H139.935H139.852H139.769H139.685H139.601H139.517H139.432H139.347H139.261H139.175H139.088H139.002H138.914H138.827H138.739H138.65H138.562H138.473H138.383H138.293H138.203H138.113H138.022H137.931H137.839H137.747H137.655H137.562H137.469H137.376H137.283H137.189H137.095H137H136.905H136.81H136.715H136.619H136.523H136.427H136.331H136.234H136.137H136.039H135.942H135.844H135.746H135.647H135.548H135.45H135.35H135.251H135.151H135.051H134.951H134.851H134.75H134.65H134.549H134.447H134.346H134.244H134.142H134.04H133.938H133.836H133.733H133.63H133.527H133.424H133.321H133.217H133.113H133.01H132.906H132.801H132.697H132.593H132.488H132.383H132.278H132.173H132.068H131.963H131.857H131.752H131.646H131.54H131.435H131.329H131.222H131.116H131.01H130.904H130.797H130.691H130.584H130.477H130.371H130.264H130.157H130.05H129.943H129.836H129.729H129.622H129.514H129.407H129.3H129.193H129.085H128.978H128.87H128.763H128.656H128.548H128.441H128.333H128.226H128.118H128.011H127.904H127.796H127.689H127.581H127.474H127.367H127.259H127.152H127.045H126.938H126.831H126.724H126.617H126.51H126.403H126.296H126.189H126.083H125.976H125.869H125.763H125.657H125.55H125.444H125.338H125.232H125.126H125.021H124.915H124.809H124.704H124.599H124.494H124.389H124.284H124.179H124.074H123.97H123.866H123.762H123.658H123.554H123.45H123.347H123.243H123.14H123.037H122.934H122.832H122.729H122.627H122.525H122.423H122.322H122.22H122.119H122.018H121.917H121.817H121.717H121.616H121.517H121.417H121.318H121.218H121.12H121.021H120.923H120.825H120.727H120.629H120.532H120.435H120.338H120.241H120.145H120.049H119.954H119.858H119.763H119.669H119.574H119.48H119.386H119.293H119.2H119.107H119.014H118.922H118.83H118.739H118.648H118.557H118.466H118.376H118.287H118.197H118.108H118.02H117.931H117.843H117.756H117.669H117.582H117.496H117.41H117.324H117.239H117.154H117.07H116.986H116.902H116.819H116.736H116.654H116.572H116.491H116.41H116.329H116.249H116.17H116.091H116.012H115.934H115.856H115.778H115.702H115.625H115.549H115.474H115.399H115.324H115.25H115.177H115.104H115.032H114.96H114.888H114.817H114.747H114.677H114.607H114.539H114.47H114.403H114.335H114.269H114.202H114.137H114.072H114.007H113.943H113.88H113.817H113.755H113.693H113.632H113.572H113.512H113.453H113.394H113.336H113.278H113.221H113.165H113.109H113.054H113H112.946H112.893H112.84H112.788H112.737H112.686H112.636H112.587H112.538H112.49H112.443H112.396H112.35H112.305H112.26H112.216H112.172H112.13H112.088H112.047H112.006H111.966H111.927H111.888H111.851H111.813H111.777H111.741Z" stroke="#323232" stroke-width="0.824434"/>
<path d="M116.436 109.142L116.625 109.127L116.736 108.971L116.79 108.895H116.795H116.811H116.827H116.843H116.86H116.878H116.895H116.914H116.933H116.952H116.972H116.993H117.014H117.035H117.057H117.079H117.102H117.125H117.149H117.173H117.198H117.223H117.248H117.274H117.301H117.328H117.355H117.383H117.411H117.44H117.469H117.498H117.528H117.559H117.589H117.621H117.652H117.684H117.717H117.75H117.783H117.817H117.851H117.886H117.921H117.956H117.992H118.028H118.064H118.101H118.138H118.176H118.214H118.253H118.291H118.331H118.37H118.41H118.45H118.491H118.532H118.573H118.615H118.657H118.699H118.742H118.785H118.829H118.872H118.917H118.961H119.006H119.051H119.096H119.142H119.188H119.235H119.281H119.328H119.376H119.424H119.472H119.52H119.568H119.617H119.666H119.716H119.766H119.816H119.866H119.917H119.968H120.019H120.07H120.122H120.174H120.226H120.279H120.332H120.385H120.438H120.492H120.546H120.6H120.654H120.709H120.764H120.819H120.874H120.929H120.985H121.041H121.098H121.154H121.211H121.268H121.325H121.382H121.44H121.498H121.556H121.614H121.672H121.731H121.79H121.849H121.908H121.967H122.027H122.087H122.147H122.207H122.267H122.328H122.388H122.449H122.51H122.571H122.633H122.694H122.756H122.818H122.88H122.942H123.004H123.067H123.129H123.192H123.255H123.318H123.381H123.444H123.507H123.571H123.635H123.698H123.762H123.826H123.89H123.955H124.019H124.083H124.148H124.213H124.277H124.342H124.407H124.472H124.537H124.602H124.668H124.733H124.799H124.864H124.93H124.995H125.061H125.127H125.193H125.259H125.325H125.391H125.457H125.523H125.589H125.655H125.722H125.788H125.854H125.921H125.987H126.054H126.12H126.187H126.253H126.32H126.386H126.453H126.52H126.586H126.653H126.72H126.786H126.853H126.92H126.986H127.053H127.119H127.186H127.253H127.319H127.386H127.452H127.519H127.585H127.652H127.718H127.785H127.851H127.917H127.984H128.05H128.116H128.182H128.248H128.315H128.381H128.446H128.512H128.578H128.644H128.71H128.775H128.841H128.906H128.971H129.037H129.102H129.167H129.232H129.297H129.362H129.427H129.491H129.556H129.62H129.685H129.749H129.813H129.877H129.941H130.005H130.068H130.132H130.195H130.258H130.322H130.385H130.447H130.51H130.573H130.635H130.697H130.76H130.822H130.883H130.945H131.007H131.068H131.129H131.19H131.251H131.312H131.372H131.433H131.493H131.553H131.613H131.672H131.732H131.791H131.85H131.909H131.967H132.026H132.084H132.142H132.2H132.257H132.315H132.372H132.429H132.486H132.542H132.598H132.654H132.71H132.766H132.821H132.876H132.931H132.986H133.04H133.094H133.148H133.202H133.255H133.308H133.361H133.413H133.466H133.518H133.57H133.621H133.672H133.723H133.774H133.824H133.874H133.924H133.973H134.023H134.072H134.12H134.168H134.216H134.264H134.312H134.359H134.405H134.452H134.498H134.544H134.589H134.634H134.679H134.724H134.768H134.811H134.855H134.898H134.941H134.983H135.025H135.067H135.108H135.149H135.19H135.23H135.27H135.31H135.349H135.388H135.426H135.464H135.502H135.539H135.576H135.613H135.649H135.685H135.72H135.746C135.016 111.974 133.6 113.723 132.366 114.709C131.714 115.23 131.106 115.543 130.665 115.725C130.445 115.816 130.267 115.874 130.147 115.908C130.087 115.926 130.041 115.937 130.012 115.944C130.01 115.945 130.009 115.945 130.008 115.945H130.005H129.997H129.989H129.98H129.971H129.962H129.951H129.941H129.929H129.917H129.905H129.892H129.879H129.865H129.851H129.836H129.82H129.804H129.788H129.771H129.754H129.736H129.718H129.699H129.679H129.66H129.639H129.618H129.597H129.575H129.553H129.531H129.507H129.484H129.46H129.435H129.41H129.385H129.359H129.333H129.306H129.279H129.251H129.223H129.195H129.166H129.136H129.106H129.076H129.046H129.015H128.983H128.951H128.919H128.886H128.853H128.819H128.786H128.751H128.717H128.681H128.646H128.61H128.574H128.537H128.5H128.463H128.425H128.387H128.348H128.309H128.27H128.23H128.19H128.15H128.109H128.068H128.027H127.985H127.943H127.9H127.858H127.814H127.771H127.727H127.683H127.639H127.594H127.549H127.503H127.458H127.411H127.365H127.318H127.271H127.224H127.177H127.129H127.08H127.032H126.983H126.934H126.885H126.835H126.785H126.735H126.685H126.634H126.583H126.531H126.48H126.428H126.376H126.324H126.271H126.218H126.165H126.112H126.058H126.004H125.95H125.896H125.841H125.787H125.731H125.676H125.621H125.565H125.509H125.453H125.397H125.34H125.283H125.226H125.169H125.112H125.054H124.996H124.938H124.88H124.822H124.763H124.704H124.645H124.586H124.527H124.467H124.408H124.348H124.288H124.228H124.167H124.107H124.046H123.986H123.925H123.864H123.802H123.741H123.679H123.618H123.556H123.494H123.432H123.37H123.307H123.245H123.182H123.12H123.057H122.994H122.931H122.868H122.804H122.741H122.678H122.614H122.55H122.487H122.423H122.359H122.295H122.231H122.167H122.102H122.038H121.974H121.909H121.844H121.78H121.715H121.65H121.586H121.521H121.456H121.391H121.326H121.261H121.196H121.131H121.065H121H120.935H120.87H120.804H120.739H120.674H120.608H120.543H120.477H120.412H120.346H120.281H120.216H120.15H120.085H120.019H119.954H119.888H119.823H119.757H119.692H119.627H119.561H119.496H119.431H119.365H119.3H119.235H119.169H119.104H119.039H118.974H118.909H118.844H118.779H118.714H118.649H118.585H118.52H118.455H118.391H118.326H118.262H118.197H118.133H118.069H118.005H117.941H117.877H117.813H117.749H117.685H117.622H117.558H117.495H117.432H117.368H117.305H117.242H117.179H117.117H117.054H116.992H116.929H116.867H116.805H116.743H116.681H116.619H116.558H116.496H116.435H116.374H116.313H116.252H116.191H116.131H116.07H116.01H115.95H115.89H115.83H115.771H115.711H115.652H115.593H115.534H115.476H115.417H115.359H115.301H115.243H115.185H115.128H115.071H115.014H114.957H114.9H114.844H114.787H114.731H114.675H114.62H114.565H114.509H114.455H114.4H114.345H114.291H114.237H114.184H114.13H114.077H114.024H113.971H113.919H113.867H113.815H113.763H113.712H113.661H113.61H113.559H113.509H113.459H113.409H113.36H113.31H113.261H113.213H113.165H113.117H113.069H113.021H112.974H112.927H112.881H112.835H112.789H112.743H112.698H112.653H112.609H112.564H112.52H112.477H112.434H112.391H112.348H112.306H112.264H112.222H112.181H112.14H112.1H112.06H112.02H111.98H111.941H111.903H111.864H111.826H111.789H111.752H111.741C112.299 112.685 113.483 110.997 114.498 110.121C115.032 109.66 115.53 109.415 115.887 109.285C116.066 109.22 116.21 109.183 116.306 109.164C116.354 109.154 116.389 109.148 116.411 109.145C116.422 109.144 116.43 109.143 116.434 109.142L116.436 109.142Z" stroke="#323232" stroke-width="0.824434"/>
<path d="M117.511 128.972L117.51 128.972H111.343C112.454 124.94 114.076 122.858 115.399 121.783C116.09 121.222 116.707 120.928 117.143 120.775C117.361 120.698 117.534 120.656 117.649 120.634C117.706 120.623 117.749 120.617 117.776 120.613C117.783 120.612 117.789 120.612 117.793 120.611L125.066 120.729C125.039 122.714 124.587 124.205 123.933 125.328C123.235 126.526 122.293 127.329 121.341 127.87C120.387 128.412 119.424 128.689 118.697 128.829C118.334 128.9 118.033 128.935 117.824 128.954C117.72 128.963 117.638 128.967 117.585 128.97C117.558 128.971 117.537 128.972 117.525 128.972L117.511 128.972Z" stroke="#323232" stroke-width="0.824434"/>
<path d="M92.3538 121.542H106.678V129.283H76.1177L93.7621 101.989L94.1732 101.353H93.4159H77.3657V95.1022H108.851L92.0086 120.905L91.5925 121.542H92.3538Z" stroke="#323232" stroke-width="0.824434"/>
<path d="M148.383 4.28982L148.384 4.29022L166.554 14.7701C166.555 14.7707 166.556 14.7713 166.557 14.7719C166.983 15.027 167.41 15.4835 167.717 16.0181C168.025 16.5553 168.194 17.1406 168.167 17.621L168.167 17.6346V17.6483V38.6262C168.167 39.1253 167.991 39.7215 167.684 40.2564C167.373 40.797 166.958 41.247 166.532 41.4871L166.531 41.487L166.527 41.4899L148.362 51.9844L148.361 51.9846C147.934 52.2321 147.339 52.3706 146.715 52.3706C146.092 52.3706 145.493 52.2324 145.059 51.984C145.059 51.9838 145.059 51.9836 145.058 51.9835L126.906 41.49L126.905 41.4893C126.484 41.2473 126.058 40.7942 125.75 40.2581C125.437 39.7031 125.255 39.1184 125.255 38.6262V17.6483C125.255 17.1543 125.436 16.5676 125.752 16.0246C126.067 15.482 126.489 15.0325 126.917 14.7844C126.917 14.7844 126.917 14.7843 126.917 14.7843L145.082 4.29004L145.082 4.28982C145.509 4.04247 146.107 3.90381 146.733 3.90381C147.359 3.90381 147.956 4.04247 148.383 4.28982ZM146.733 43.28L146.734 43.28C152.142 43.2686 157.13 40.3827 159.846 35.7356L160.099 35.3021L159.665 35.0506L153.324 31.3803L152.892 31.1301L152.641 31.562C151.423 33.6603 149.17 34.9618 146.732 34.9723C142.964 34.9717 139.903 31.9101 139.903 28.1427C139.903 24.3749 142.965 21.3131 146.733 21.3131C149.17 21.3131 151.422 22.6134 152.64 24.7225L152.891 25.1558L153.324 24.9051L159.665 21.2348L160.097 20.9843L159.847 20.5515C157.142 15.8806 152.142 12.9948 146.734 12.9834H146.733C138.369 12.9834 131.585 19.7677 131.585 28.1317C131.585 36.496 138.38 43.28 146.733 43.28ZM161.381 29.4449H161.881V28.9449V27.3185V26.8185H161.381H160.255V25.6922V25.1922H159.755H158.117H157.617V25.6922V26.8185H156.491H155.991V27.3185V28.9449V29.4449H156.491H157.617V30.5713V31.0713H158.117H159.755H160.255V30.5713V29.4449H161.381ZM165.854 31.0713H166.354V30.5713V29.4449H167.48V28.9449H167.98V27.3185V26.8185H167.48H166.354V25.6922V25.1922H165.854H164.227H163.727V25.6922V26.8185H162.601H162.101V27.3185V28.9449V29.4449H162.601H163.727V30.5713V31.0713H164.227H165.854Z" stroke="#323232"/>
<path d="M291.96 89.9636H273.097L298.472 133.966L323.846 89.9636H304.983L299.049 100.254L298.472 101.255L297.894 100.254L291.96 89.9636Z" stroke="#323232" stroke-width="1.3333"/>
<path d="M291.958 89.9636H283.707L298.47 115.564L313.233 89.9636H304.981L299.047 100.254L298.47 101.255L297.892 100.254L291.958 89.9636Z" stroke="#323232" stroke-width="1.3333"/>
<g clip-path="url(#clip1_496_4269)">
<path d="M223.277 6.52832H258.311C260.383 6.52832 262.063 8.208 262.063 10.28V45.3138C262.063 47.3858 260.383 49.0655 258.311 49.0655H223.277C221.205 49.0655 219.525 47.3858 219.525 45.3138V10.28C219.525 8.208 221.205 6.52832 223.277 6.52832Z" stroke="#323232"/>
<path d="M246.481 44.5758V41.7695C247.02 42.1054 247.593 42.3798 248.2 42.5901C249.109 42.9346 250.103 43.1047 251.092 43.1047C251.717 43.1047 252.207 43.0511 252.651 42.947L252.651 42.947L252.656 42.9458C253.113 42.8339 253.496 42.6799 253.823 42.476C254.153 42.2695 254.423 42.0063 254.601 41.6783C254.769 41.3686 254.857 41.0316 254.857 40.6745C254.857 40.1862 254.718 39.7438 254.443 39.3659C254.204 39.0154 253.867 38.7051 253.47 38.4364C253.096 38.1664 252.642 37.9138 252.113 37.676C252.047 37.646 251.98 37.6157 251.912 37.5852C251.47 37.3859 251.007 37.1769 250.493 36.968C249.063 36.2941 248.022 35.6561 247.37 34.8223L247.362 34.812L247.353 34.8021C246.707 34.0587 246.371 33.0768 246.371 31.899C246.371 30.9465 246.552 30.2178 246.902 29.5921L246.903 29.5908C247.293 28.8884 247.743 28.3892 248.359 27.9783L248.359 27.9783L248.365 27.9743C248.99 27.5443 249.697 27.2287 250.573 27.0294C251.473 26.825 252.371 26.7188 253.354 26.7188C254.355 26.7188 255.179 26.7772 255.913 26.8914C256.52 26.9859 257.091 27.1245 257.616 27.3016V30.0559C257.513 30.0032 257.408 29.9528 257.302 29.9047L257.302 29.9046L257.291 29.8998C256.871 29.7211 256.459 29.5778 256.038 29.4613C255.618 29.3452 255.197 29.2582 254.784 29.2015C254.387 29.1447 253.99 29.1167 253.609 29.1167C253.064 29.1167 252.582 29.1612 252.135 29.2656C251.693 29.3671 251.296 29.5114 250.963 29.7199C250.642 29.9202 250.372 30.1641 250.17 30.4762C249.962 30.7981 249.86 31.1566 249.86 31.5385C249.86 31.9505 249.974 32.3278 250.2 32.6661L250.2 32.6662L250.204 32.6727C250.411 32.9728 250.69 33.2478 251.036 33.5016C251.356 33.752 251.771 33.989 252.22 34.2135L252.232 34.2197L252.245 34.2251C252.425 34.3031 252.606 34.3848 252.792 34.4685C253.105 34.6092 253.43 34.7557 253.782 34.8998C254.523 35.2126 255.184 35.5594 255.767 35.8926C256.32 36.2084 256.784 36.5783 257.186 36.9957L257.196 37.0061L257.206 37.0159C257.604 37.3843 257.895 37.8283 258.1 38.3595C258.304 38.8892 258.415 39.4987 258.415 40.2204C258.415 41.2374 258.175 42.0176 257.854 42.7384C257.566 43.3862 257.063 43.8882 256.428 44.3047C255.797 44.6904 255.087 44.9903 254.212 45.1731C253.313 45.3612 252.412 45.4516 251.423 45.4516C250.429 45.4516 249.441 45.3687 248.541 45.1969C247.761 45.048 247.065 44.8408 246.481 44.5758ZM238.838 29.6779H238.338V30.1779V45.2391H235.002V30.1779V29.6779H234.502H229.56V27.1915H243.781V29.6779H238.838Z" stroke="#323232"/>
</g>
<mask id="path-12-inside-1_496_4269" fill="white">
<path fill-rule="evenodd" clip-rule="evenodd" d="M235.079 99.5393C235.096 99.601 235.104 99.6645 235.104 99.7283V109.649C235.104 109.776 235.071 109.901 235.007 110.011C234.943 110.121 234.851 110.213 234.741 110.276L226.418 115.07V124.571C226.418 124.83 226.281 125.069 226.057 125.199L208.683 135.204C208.643 135.227 208.6 135.241 208.556 135.257C208.54 135.262 208.525 135.272 208.508 135.276C208.386 135.308 208.258 135.308 208.137 135.276C208.117 135.271 208.099 135.26 208.08 135.253C208.04 135.238 207.999 135.226 207.961 135.204L190.591 125.199C190.481 125.135 190.389 125.044 190.325 124.934C190.261 124.824 190.228 124.699 190.228 124.571V94.8107C190.228 94.7456 190.237 94.6823 190.253 94.6208C190.258 94.6 190.271 94.581 190.278 94.5602C190.292 94.5223 190.304 94.4834 190.324 94.4481C190.338 94.4246 190.358 94.4056 190.374 94.3839C190.395 94.355 190.414 94.3252 190.438 94.2999C190.459 94.2791 190.486 94.2637 190.51 94.2456C190.536 94.2239 190.559 94.2004 190.589 94.1832H190.59L199.275 89.1806C199.385 89.1173 199.51 89.084 199.637 89.084C199.764 89.084 199.888 89.1173 199.998 89.1806L208.684 94.1832H208.686C208.715 94.2013 208.739 94.2239 208.765 94.2447C208.789 94.2628 208.815 94.2791 208.836 94.299C208.861 94.3252 208.879 94.355 208.901 94.3839C208.916 94.4056 208.937 94.4246 208.95 94.4481C208.97 94.4843 208.982 94.5223 208.997 94.5602C209.004 94.581 209.016 94.6 209.022 94.6217C209.039 94.6833 209.047 94.7469 209.047 94.8107V113.399L216.285 109.23V99.7274C216.285 99.6641 216.294 99.5999 216.31 99.5393C216.316 99.5176 216.328 99.4987 216.335 99.4779C216.35 99.4399 216.362 99.401 216.382 99.3658C216.396 99.3422 216.416 99.3233 216.431 99.3016C216.453 99.2726 216.471 99.2428 216.496 99.2175C216.517 99.1967 216.543 99.1813 216.567 99.1632C216.594 99.1415 216.617 99.118 216.646 99.1008H216.647L225.333 94.0982C225.443 94.0348 225.568 94.0015 225.695 94.0015C225.822 94.0015 225.947 94.0348 226.057 94.0982L234.742 99.1008C234.773 99.1189 234.796 99.1415 234.823 99.1623C234.846 99.1804 234.872 99.1967 234.893 99.2166C234.918 99.2428 234.936 99.2726 234.958 99.3016C234.974 99.3233 234.994 99.3422 235.007 99.3658C235.028 99.401 235.039 99.4399 235.054 99.4779C235.062 99.4987 235.074 99.5176 235.079 99.5393V99.5393ZM233.656 109.23V100.981L230.617 102.731L226.418 105.15V113.399L233.657 109.23H233.656ZM224.971 124.153V115.898L220.841 118.258L209.046 124.992V133.324L224.971 124.153ZM191.675 96.0629V124.153L207.598 133.323V124.993L199.28 120.283L199.277 120.281L199.274 120.279C199.246 120.263 199.222 120.24 199.196 120.22C199.173 120.202 199.147 120.187 199.127 120.167L199.125 120.165C199.102 120.142 199.086 120.114 199.066 120.089C199.048 120.064 199.026 120.043 199.011 120.018L199.011 120.015C198.994 119.988 198.984 119.956 198.973 119.925C198.961 119.898 198.946 119.873 198.938 119.844V119.843C198.929 119.808 198.927 119.772 198.924 119.737C198.92 119.71 198.913 119.683 198.913 119.656V119.654V100.232L194.715 97.8124L191.675 96.0638V96.0629ZM199.638 90.6435L192.401 94.8107L199.636 98.9779L206.872 94.8098L199.636 90.6435H199.638ZM203.401 116.65L207.599 114.233V96.0629L204.56 97.8133L200.361 100.232V118.402L203.401 116.65ZM225.695 95.5611L218.459 99.7283L225.695 103.895L232.93 99.7274L225.695 95.5611V95.5611ZM224.971 105.15L220.772 102.731L217.733 100.981V109.23L221.931 111.648L224.971 113.399V105.15ZM208.321 123.74L218.935 117.678L224.24 114.649L217.01 110.485L208.685 115.28L201.097 119.649L208.321 123.74V123.74Z"/>
</mask>
<path fill-rule="evenodd" clip-rule="evenodd" d="M235.079 99.5393C235.096 99.601 235.104 99.6645 235.104 99.7283V109.649C235.104 109.776 235.071 109.901 235.007 110.011C234.943 110.121 234.851 110.213 234.741 110.276L226.418 115.07V124.571C226.418 124.83 226.281 125.069 226.057 125.199L208.683 135.204C208.643 135.227 208.6 135.241 208.556 135.257C208.54 135.262 208.525 135.272 208.508 135.276C208.386 135.308 208.258 135.308 208.137 135.276C208.117 135.271 208.099 135.26 208.08 135.253C208.04 135.238 207.999 135.226 207.961 135.204L190.591 125.199C190.481 125.135 190.389 125.044 190.325 124.934C190.261 124.824 190.228 124.699 190.228 124.571V94.8107C190.228 94.7456 190.237 94.6823 190.253 94.6208C190.258 94.6 190.271 94.581 190.278 94.5602C190.292 94.5223 190.304 94.4834 190.324 94.4481C190.338 94.4246 190.358 94.4056 190.374 94.3839C190.395 94.355 190.414 94.3252 190.438 94.2999C190.459 94.2791 190.486 94.2637 190.51 94.2456C190.536 94.2239 190.559 94.2004 190.589 94.1832H190.59L199.275 89.1806C199.385 89.1173 199.51 89.084 199.637 89.084C199.764 89.084 199.888 89.1173 199.998 89.1806L208.684 94.1832H208.686C208.715 94.2013 208.739 94.2239 208.765 94.2447C208.789 94.2628 208.815 94.2791 208.836 94.299C208.861 94.3252 208.879 94.355 208.901 94.3839C208.916 94.4056 208.937 94.4246 208.95 94.4481C208.97 94.4843 208.982 94.5223 208.997 94.5602C209.004 94.581 209.016 94.6 209.022 94.6217C209.039 94.6833 209.047 94.7469 209.047 94.8107V113.399L216.285 109.23V99.7274C216.285 99.6641 216.294 99.5999 216.31 99.5393C216.316 99.5176 216.328 99.4987 216.335 99.4779C216.35 99.4399 216.362 99.401 216.382 99.3658C216.396 99.3422 216.416 99.3233 216.431 99.3016C216.453 99.2726 216.471 99.2428 216.496 99.2175C216.517 99.1967 216.543 99.1813 216.567 99.1632C216.594 99.1415 216.617 99.118 216.646 99.1008H216.647L225.333 94.0982C225.443 94.0348 225.568 94.0015 225.695 94.0015C225.822 94.0015 225.947 94.0348 226.057 94.0982L234.742 99.1008C234.773 99.1189 234.796 99.1415 234.823 99.1623C234.846 99.1804 234.872 99.1967 234.893 99.2166C234.918 99.2428 234.936 99.2726 234.958 99.3016C234.974 99.3233 234.994 99.3422 235.007 99.3658C235.028 99.401 235.039 99.4399 235.054 99.4779C235.062 99.4987 235.074 99.5176 235.079 99.5393V99.5393ZM233.656 109.23V100.981L230.617 102.731L226.418 105.15V113.399L233.657 109.23H233.656ZM224.971 124.153V115.898L220.841 118.258L209.046 124.992V133.324L224.971 124.153ZM191.675 96.0629V124.153L207.598 133.323V124.993L199.28 120.283L199.277 120.281L199.274 120.279C199.246 120.263 199.222 120.24 199.196 120.22C199.173 120.202 199.147 120.187 199.127 120.167L199.125 120.165C199.102 120.142 199.086 120.114 199.066 120.089C199.048 120.064 199.026 120.043 199.011 120.018L199.011 120.015C198.994 119.988 198.984 119.956 198.973 119.925C198.961 119.898 198.946 119.873 198.938 119.844V119.843C198.929 119.808 198.927 119.772 198.924 119.737C198.92 119.71 198.913 119.683 198.913 119.656V119.654V100.232L194.715 97.8124L191.675 96.0638V96.0629ZM199.638 90.6435L192.401 94.8107L199.636 98.9779L206.872 94.8098L199.636 90.6435H199.638ZM203.401 116.65L207.599 114.233V96.0629L204.56 97.8133L200.361 100.232V118.402L203.401 116.65ZM225.695 95.5611L218.459 99.7283L225.695 103.895L232.93 99.7274L225.695 95.5611V95.5611ZM224.971 105.15L220.772 102.731L217.733 100.981V109.23L221.931 111.648L224.971 113.399V105.15ZM208.321 123.74L218.935 117.678L224.24 114.649L217.01 110.485L208.685 115.28L201.097 119.649L208.321 123.74V123.74Z" fill="#323232" stroke="#FFFAF7" stroke-width="0.4" mask="url(#path-12-inside-1_496_4269)"/>
</g>
<defs>
<clipPath id="clip0_496_4269">
<rect width="83.0556" height="42.8674" fill="white" transform="translate(0 6.69775)"/>
</clipPath>
<clipPath id="clip1_496_4269">
<rect width="43.5372" height="43.5372" fill="white" transform="translate(219.025 6.02832)"/>
</clipPath>
</defs>
</svg>
