<svg width="1496" height="354" viewBox="0 0 1496 354" fill="none" xmlns="http://www.w3.org/2000/svg">
<path d="M448.02 14.9288C447.467 14.9179 447.011 15.3568 447 15.909C446.989 16.4612 447.428 16.9176 447.98 16.9284L448.02 14.9288ZM665.94 16.9268C666.491 16.96 666.965 16.5401 666.998 15.9888C667.031 15.4375 666.612 14.9637 666.06 14.9304L665.94 16.9268ZM447.98 16.9284C483.582 17.6258 501.892 13.1363 520.643 7.50441L520.068 5.58895C501.474 11.1738 483.373 15.6213 448.02 14.9288L447.98 16.9284ZM520.643 7.50441C529.864 4.73471 544.008 2.909 557.98 2.26176C571.96 1.61415 585.621 2.1533 593.888 4.04678L594.335 2.09726C585.797 0.141738 571.916 -0.385972 557.887 0.263899C543.851 0.914138 529.519 2.75025 520.068 5.58895L520.643 7.50441ZM593.888 4.04678C610.672 7.89102 648.569 15.8784 665.94 16.9268L666.06 14.9304C648.887 13.894 611.161 5.95101 594.335 2.09726L593.888 4.04678Z" fill="#B6EBE8"/>
<path d="M1094.99 346.038C1095.54 346.043 1096 345.599 1096 345.047C1096 344.494 1095.56 344.043 1095.01 344.038L1094.99 346.038ZM824.026 344.038C823.474 344.024 823.015 344.46 823 345.012C822.986 345.564 823.422 346.023 823.974 346.038L824.026 344.038ZM1095.01 344.038C1050.85 343.667 1028.18 346.054 1004.93 349.05L1005.18 351.034C1028.36 348.047 1050.94 345.668 1094.99 346.038L1095.01 344.038ZM1004.93 349.05C981.782 352.032 934.273 352.945 913.464 350.9L913.268 352.89C934.24 354.951 981.901 354.034 1005.18 351.034L1004.93 349.05ZM913.464 350.9C892.582 348.848 845.54 344.595 824.026 344.038L823.974 346.038C845.402 346.593 892.369 350.836 913.268 352.89L913.464 350.9Z" fill="#B6EBE8"/>
<path d="M1378.98 306.372C1379.52 306.257 1379.86 305.726 1379.75 305.185C1379.63 304.645 1379.1 304.301 1378.56 304.416L1378.98 306.372ZM1222.85 341.009C1222.3 341.101 1221.93 341.617 1222.03 342.161C1222.12 342.706 1222.63 343.073 1223.18 342.981L1222.85 341.009ZM1378.56 304.416C1352.96 309.871 1340.65 316.375 1328.24 323.819L1329.26 325.534C1341.53 318.179 1353.64 311.772 1378.98 306.372L1378.56 304.416ZM1328.24 323.819C1322.17 327.454 1312.42 331.208 1302.57 334.043C1292.7 336.88 1282.88 338.754 1276.68 338.702L1276.66 340.702C1283.16 340.756 1293.21 338.817 1303.12 335.965C1313.04 333.111 1322.99 329.299 1329.26 325.534L1328.24 323.819ZM1276.68 338.702C1264.01 338.597 1235.48 338.885 1222.85 341.009L1223.18 342.981C1235.6 340.892 1263.95 340.597 1276.66 340.702L1276.68 338.702Z" fill="#B6EBE8"/>
<path d="M1363.05 299.703C1365.51 300.8 1381.1 302.695 1380.43 304.45C1377.66 311.59 1370.73 317.328 1366.91 323.957" stroke="#B6EBE8" stroke-width="2" stroke-linecap="round"/>
<path d="M1060.99 17.038C1061.54 17.0438 1061.99 16.6008 1062 16.0485C1062.01 15.4963 1061.56 15.0439 1061.01 15.0382L1060.99 17.038ZM843.032 15.0386C842.48 15.0208 842.018 15.4539 842.001 16.0059C841.983 16.5579 842.416 17.0198 842.968 17.0376L843.032 15.0386ZM1061.01 15.0382C1025.47 14.6668 1007.2 17.0559 988.486 20.0544L988.803 22.0292C1007.43 19.0454 1025.58 16.6681 1060.99 17.038L1061.01 15.0382ZM988.486 20.0544C969.898 23.032 931.714 23.9428 915.01 21.9023L914.767 23.8875C931.673 25.9527 970.046 25.0338 988.803 22.0292L988.486 20.0544ZM915.01 21.9023C898.216 19.8508 860.357 15.5963 843.032 15.0386L842.968 17.0376C860.187 17.5918 897.951 21.8334 914.767 23.8875L915.01 21.9023Z" fill="#B6EBE8"/>
<path d="M428.01 339.962C427.457 339.957 427.005 340.4 427 340.952C426.995 341.505 427.438 341.957 427.99 341.962L428.01 339.962ZM665.971 341.961C666.523 341.978 666.983 341.543 667 340.991C667.016 340.439 666.582 339.979 666.029 339.962L665.971 341.961ZM427.99 341.962C466.783 342.333 486.711 339.945 507.139 336.948L506.848 334.969C486.505 337.954 466.682 340.332 428.01 339.962L427.99 341.962ZM507.139 336.948C527.447 333.968 569.15 333.056 587.405 335.099L587.627 333.111C569.188 331.048 527.311 331.966 506.848 334.969L507.139 336.948ZM587.405 335.099C605.742 337.151 647.065 341.404 665.971 341.961L666.029 339.962C647.222 339.408 605.984 335.165 587.627 333.111L587.405 335.099Z" fill="#B6EBE8"/>
<path d="M1224 18.5C1223.45 18.5 1223 18.9477 1223 19.5C1223 20.0523 1223.45 20.5 1224 20.5V18.5ZM229.454 340.999C230.006 341.024 230.473 340.597 230.499 340.046C230.524 339.494 230.097 339.026 229.545 339.001L229.454 340.999ZM1224 20.5C1249.69 20.5 1341.38 26.6198 1410.94 39.4833C1428.33 42.6983 1444.31 46.3308 1457.53 50.3876C1470.77 54.4529 1481.12 58.9145 1487.34 63.7429C1490.44 66.1542 1492.43 68.5921 1493.29 71.0337C1494.12 73.429 1493.91 75.9371 1492.4 78.6328C1490.86 81.3653 1487.98 84.2932 1483.47 87.3957C1478.97 90.4918 1472.91 93.7219 1465.11 97.0814L1465.9 98.9186C1473.78 95.5281 1479.96 92.2386 1484.6 89.0432C1489.24 85.8543 1492.39 82.7186 1494.14 79.6132C1495.91 76.4711 1496.22 73.3669 1495.17 70.373C1494.14 67.4255 1491.83 64.6973 1488.57 62.1633C1482.05 57.1011 1471.4 52.5548 1458.11 48.4757C1444.8 44.3879 1428.73 40.7391 1411.31 37.5166C1341.62 24.6302 1249.81 18.5 1224 18.5V20.5ZM1465.11 97.0814C1433.9 110.51 1371.96 120.94 1289.6 128.543C1207.28 136.142 1104.72 140.907 992.355 143.063C767.633 147.375 503.786 141.25 284.566 126.502L284.432 128.498C503.711 143.25 767.615 149.375 992.394 145.062C1104.78 142.906 1207.4 138.139 1289.78 130.535C1372.1 122.935 1434.35 112.49 1465.9 98.9186L1465.11 97.0814ZM284.566 126.502C174.889 119.124 101.399 128.02 56.654 145.781C34.2748 154.665 19.0129 165.795 10.04 178.289C1.04858 190.808 -1.58005 204.634 1.20617 218.756C6.76005 246.906 33.7789 276.087 74.267 298.879C114.809 321.702 169.056 338.242 229.454 340.999L229.545 339.001C169.443 336.258 115.503 319.798 75.2482 297.136C34.9395 274.445 8.55204 245.656 3.16834 218.369C0.485763 204.772 3.00552 191.512 11.6644 179.455C20.3418 167.373 35.2322 156.437 57.3919 147.64C101.724 130.043 174.859 121.126 284.432 128.498L284.566 126.502Z" fill="#B6EBE8"/>
</svg>
