<svg width="749" height="388" viewBox="0 0 749 388" fill="none" xmlns="http://www.w3.org/2000/svg">
<path d="M348.572 180.349C348.572 180.349 406.523 191.154 475.5 213.764L528.899 221.684C528.899 221.684 619.45 235.301 646.316 265.609C646.316 265.609 682.729 305.981 690.981 332.847L618.673 371.406L597.321 335.585L573.231 495.337C573.231 495.337 479.201 532.12 337.878 476.427L374.217 281.188C374.217 281.188 329.441 272.936 321.189 263.277C321.152 263.314 332.623 208.251 348.572 180.349Z" fill="#FFD27C"/>
<mask id="path-2-inside-1_2827_27303" fill="white">
<path d="M364.58 173.65C364.58 173.65 422.53 184.455 491.508 207.065L544.906 214.984C544.906 214.984 635.458 228.602 662.324 258.91C662.324 258.91 698.737 299.282 706.989 326.148L634.681 364.707L613.329 328.886L589.239 488.638C589.239 488.638 495.209 525.421 353.886 469.728L390.225 274.489C390.225 274.489 345.449 266.237 337.196 256.578C337.159 256.615 348.631 201.552 364.58 173.65Z"/>
</mask>
<path d="M364.58 173.65C364.58 173.65 422.53 184.455 491.508 207.065L544.906 214.984C544.906 214.984 635.458 228.602 662.324 258.91C662.324 258.91 698.737 299.282 706.989 326.148L634.681 364.707L613.329 328.886L589.239 488.638C589.239 488.638 495.209 525.421 353.886 469.728L390.225 274.489C390.225 274.489 345.449 266.237 337.196 256.578C337.159 256.615 348.631 201.552 364.58 173.65Z" stroke="#323232" stroke-width="5" mask="url(#path-2-inside-1_2827_27303)"/>
<mask id="path-3-inside-2_2827_27303" fill="white">
<path d="M392.017 4.50611e-05C383.48 2.98506e-05 371.576 6.16615 365.988 14.8994C360.4 23.6326 348.521 43.5784 348.521 43.5784C348.521 43.5784 306.225 73.9966 272.291 113.851C251.642 138.09 233.843 159.664 223 189.749C223 189.749 269.849 234.858 339.085 249.549L364.619 173.652L329.242 162.55C329.242 162.55 387.71 90.7599 395.037 84.4691C395.037 84.4691 399.589 85.5052 416.722 82.7298C433.855 79.9174 441.182 77.142 441.182 73.9966C441.182 70.8511 439.776 66.2995 419.497 67.3357L415.316 62.0809C415.316 62.0809 446.77 30.2565 448.88 26.0749C450.989 21.8933 446.77 20.1171 434.189 23.9656C421.607 27.8142 415.316 33.772 415.316 33.772C415.316 33.772 415.079 22.2348 421 13.5016C426.958 4.76838 421.816 0.999467 415.316 1.99976C410.316 1.99976 403.659 19.525 397.701 28.2582C397.701 28.2582 420 4.49976 406.5 1.99976C400.885 0.960033 388.746 9.4966 378.607 23.4846C378.607 23.4846 406.839 7.1466e-05 392.017 4.50611e-05Z"/>
</mask>
<path d="M392.017 4.50611e-05C383.48 2.98506e-05 371.576 6.16615 365.988 14.8994C360.4 23.6326 348.521 43.5784 348.521 43.5784C348.521 43.5784 306.225 73.9966 272.291 113.851C251.642 138.09 233.843 159.664 223 189.749C223 189.749 269.849 234.858 339.085 249.549L364.619 173.652L329.242 162.55C329.242 162.55 387.71 90.7599 395.037 84.4691C395.037 84.4691 399.589 85.5052 416.722 82.7298C433.855 79.9174 441.182 77.142 441.182 73.9966C441.182 70.8511 439.776 66.2995 419.497 67.3357L415.316 62.0809C415.316 62.0809 446.77 30.2565 448.88 26.0749C450.989 21.8933 446.77 20.1171 434.189 23.9656C421.607 27.8142 415.316 33.772 415.316 33.772C415.316 33.772 415.079 22.2348 421 13.5016C426.958 4.76838 421.816 0.999467 415.316 1.99976C410.316 1.99976 403.659 19.525 397.701 28.2582C397.701 28.2582 420 4.49976 406.5 1.99976C400.885 0.960033 388.746 9.4966 378.607 23.4846C378.607 23.4846 406.839 7.1466e-05 392.017 4.50611e-05Z" stroke="#323232" stroke-width="5" stroke-linejoin="round" mask="url(#path-3-inside-2_2827_27303)"/>
<path d="M225.855 189.016C225.855 189.016 271.911 232.603 339.975 246.799" stroke="#323232" stroke-width="2.5" stroke-miterlimit="10" stroke-linecap="round" stroke-linejoin="round"/>
<mask id="path-5-inside-3_2827_27303" fill="white">
<path d="M646.375 534.268C639.9 537.562 627.318 515.692 624.394 505.922C621.471 496.153 621.989 469.694 623.913 459.777C625.468 451.673 629.168 444.05 640.788 433.318C646.116 428.397 653.74 421.995 662.51 416C662.51 416 641.01 377.885 633.202 362.749L671.391 343.026L705.991 325.152C705.991 325.152 754.357 409.672 748.51 418.96C742.663 428.249 680.124 459.999 680.124 459.999L683.529 479.538C683.529 479.538 704.03 503.48 701.587 507.403C699.145 511.325 683.011 503.48 675.203 493.711C675.203 493.711 689.857 518.615 684.972 522.057C680.087 525.498 666.913 515.692 658.587 503.998C658.587 503.998 669.319 525.498 665.433 530.383C661.511 535.268 647.856 522.094 641.972 507.44C641.972 507.44 643.082 515.211 644.71 522.612C645.894 527.867 648.337 533.269 646.375 534.268Z"/>
</mask>
<path d="M646.375 534.268C639.9 537.562 627.318 515.692 624.394 505.922C621.471 496.153 621.989 469.694 623.913 459.777C625.468 451.673 629.168 444.05 640.788 433.318C646.116 428.397 653.74 421.995 662.51 416C662.51 416 641.01 377.885 633.202 362.749L671.391 343.026L705.991 325.152C705.991 325.152 754.357 409.672 748.51 418.96C742.663 428.249 680.124 459.999 680.124 459.999L683.529 479.538C683.529 479.538 704.03 503.48 701.587 507.403C699.145 511.325 683.011 503.48 675.203 493.711C675.203 493.711 689.857 518.615 684.972 522.057C680.087 525.498 666.913 515.692 658.587 503.998C658.587 503.998 669.319 525.498 665.433 530.383C661.511 535.268 647.856 522.094 641.972 507.44C641.972 507.44 643.082 515.211 644.71 522.612C645.894 527.867 648.337 533.269 646.375 534.268Z" stroke="#323232" stroke-width="5" stroke-linejoin="round" mask="url(#path-5-inside-3_2827_27303)"/>
<path d="M633.164 362.786L671.353 343.026L705.953 325.152" stroke="#323232" stroke-width="2.5" stroke-miterlimit="10" stroke-linecap="round" stroke-linejoin="round"/>
<path d="M296.641 151.724C296.641 151.724 313.182 148.8 325.061 162.344" stroke="#323232" stroke-width="2.5" stroke-miterlimit="10" stroke-linecap="round" stroke-linejoin="round"/>
<path d="M390.19 274.529C390.19 274.529 396.962 237.08 409.1 216.69" stroke="#323232" stroke-width="2.5" stroke-miterlimit="10" stroke-linecap="round" stroke-linejoin="round"/>
<path d="M478.602 206.03C478.602 215.651 479.231 236.3 506.688 242.221C534.035 248.142 547.32 234.82 553.981 223.015" stroke="#323232" stroke-width="2.5" stroke-miterlimit="10" stroke-linecap="round" stroke-linejoin="round"/>
<path d="M613.296 328.926L608.041 277.008" stroke="#323232" stroke-width="2.5" stroke-miterlimit="10" stroke-linecap="round" stroke-linejoin="round"/>
<mask id="path-11-inside-4_2827_27303" fill="white">
<path d="M646.966 388.208C654.811 402.381 662.508 415.999 662.508 415.999C666.8 412.854 669.169 409.745 674.608 405.046C674.608 405.046 667.281 403.936 661.139 399.384C652.22 392.797 643.857 382.584 646.966 388.208Z"/>
</mask>
<path d="M646.966 388.208C654.811 402.381 662.508 415.999 662.508 415.999C666.8 412.854 669.169 409.745 674.608 405.046C674.608 405.046 667.281 403.936 661.139 399.384C652.22 392.797 643.857 382.584 646.966 388.208Z" fill="#323232" stroke="#323232" stroke-width="5" mask="url(#path-11-inside-4_2827_27303)"/>
<mask id="path-12-inside-5_2827_27303" fill="white">
<path d="M494.03 109.669C469.533 177.166 489.145 194.67 489.145 194.67L491.477 207.067C491.477 207.067 491.144 227.715 509.868 231.601C532.923 236.375 544.875 215.023 544.875 215.023L549.908 203.44C549.908 203.44 574.738 191.487 575.182 126.284C575.182 126.284 566.523 111.482 536.216 106.449C505.946 101.38 494.03 109.669 494.03 109.669Z"/>
</mask>
<path d="M494.03 109.669C469.533 177.166 489.145 194.67 489.145 194.67L491.477 207.067C491.477 207.067 491.144 227.715 509.868 231.601C532.923 236.375 544.875 215.023 544.875 215.023L549.908 203.44C549.908 203.44 574.738 191.487 575.182 126.284C575.182 126.284 566.523 111.482 536.216 106.449C505.946 101.38 494.03 109.669 494.03 109.669Z" fill="#FFFAF7" stroke="#323232" stroke-width="5" mask="url(#path-12-inside-5_2827_27303)"/>
<mask id="path-13-inside-6_2827_27303" fill="white">
<path d="M546.727 111.039L575.22 126.286L568.301 159.22L573.703 159.627L584.879 127.285C584.879 127.285 604.714 110.262 582.362 94.6831C566.968 83.9516 558.642 96.6074 558.642 96.6074L546.727 111.039Z"/>
</mask>
<path d="M546.727 111.039L575.22 126.286L568.301 159.22L573.703 159.627L584.879 127.285C584.879 127.285 604.714 110.262 582.362 94.6831C566.968 83.9516 558.642 96.6074 558.642 96.6074L546.727 111.039Z" fill="#323232" stroke="#323232" stroke-width="5" mask="url(#path-13-inside-6_2827_27303)"/>
<mask id="path-14-inside-7_2827_27303" fill="white">
<path d="M512.388 82.0646C505.135 79.4003 476.826 83.5818 485.226 113.815C485.226 113.815 482.562 132.244 482.562 140.94C482.562 150.413 489.112 149.118 489.112 143.863C489.112 143.456 495.735 112.372 495.735 112.372L513.128 108.079L512.388 82.0646Z"/>
</mask>
<path d="M512.388 82.0646C505.135 79.4003 476.826 83.5818 485.226 113.815C485.226 113.815 482.562 132.244 482.562 140.94C482.562 150.413 489.112 149.118 489.112 143.863C489.112 143.456 495.735 112.372 495.735 112.372L513.128 108.079L512.388 82.0646Z" fill="#323232" stroke="#323232" stroke-width="5" mask="url(#path-14-inside-7_2827_27303)"/>
<mask id="path-15-inside-8_2827_27303" fill="white">
<path d="M524.339 65.3018C509.87 70.9266 507.279 107.784 507.279 107.784L550.945 111.743C550.945 111.743 568.745 92.7226 562.972 80.807C557.162 68.9283 543.803 57.7157 524.339 65.3018Z"/>
</mask>
<path d="M524.339 65.3018C509.87 70.9266 507.279 107.784 507.279 107.784L550.945 111.743C550.945 111.743 568.745 92.7226 562.972 80.807C557.162 68.9283 543.803 57.7157 524.339 65.3018Z" fill="#323232" stroke="#323232" stroke-width="5" mask="url(#path-15-inside-8_2827_27303)"/>
<mask id="path-16-inside-9_2827_27303" fill="white">
<path d="M488.479 141.941C487.702 135.391 482.003 130.247 478.931 133.688C475.86 137.13 472.603 157.742 482.521 159.666C482.558 159.666 490.033 154.559 488.479 141.941Z"/>
</mask>
<path d="M488.479 141.941C487.702 135.391 482.003 130.247 478.931 133.688C475.86 137.13 472.603 157.742 482.521 159.666C482.558 159.666 490.033 154.559 488.479 141.941Z" stroke="#323232" stroke-width="5" mask="url(#path-16-inside-9_2827_27303)"/>
<mask id="path-17-inside-10_2827_27303" fill="white">
<path d="M567.344 177.242C574.597 179.981 583.811 168.768 582.294 159.961C580.777 151.154 573.894 149.637 571.192 156.52C568.528 163.44 567.344 177.242 567.344 177.242Z"/>
</mask>
<path d="M567.344 177.242C574.597 179.981 583.811 168.768 582.294 159.961C580.777 151.154 573.894 149.637 571.192 156.52C568.528 163.44 567.344 177.242 567.344 177.242Z" stroke="#323232" stroke-width="5" mask="url(#path-17-inside-10_2827_27303)"/>
<mask id="path-18-inside-11_2827_27303" fill="white">
<path d="M486.109 135.427L482.556 159.666C482.556 159.666 472.75 189.64 489.18 194.672C507.534 200.334 533.401 207.772 546.982 206.514C556.936 205.589 566.965 201.185 567.335 177.243L573.404 153.412C573.404 153.412 571.257 152.968 566.965 158.962C560.859 167.511 552.422 188.308 540.284 187.863C529.923 187.493 509.607 183.867 499.837 174.098C495.656 169.916 491.437 149.489 490.068 140.756C489.143 134.687 486.109 135.427 486.109 135.427Z"/>
</mask>
<path d="M486.109 135.427L482.556 159.666C482.556 159.666 472.75 189.64 489.18 194.672C507.534 200.334 533.401 207.772 546.982 206.514C556.936 205.589 566.965 201.185 567.335 177.243L573.404 153.412C573.404 153.412 571.257 152.968 566.965 158.962C560.859 167.511 552.422 188.308 540.284 187.863C529.923 187.493 509.607 183.867 499.837 174.098C495.656 169.916 491.437 149.489 490.068 140.756C489.143 134.687 486.109 135.427 486.109 135.427Z" fill="#323232" stroke="#323232" stroke-width="5" mask="url(#path-18-inside-11_2827_27303)"/>
<path d="M529.299 141.05L521.972 157.11L533.665 159.072" stroke="#323232" stroke-width="2.5" stroke-miterlimit="10" stroke-linecap="round" stroke-linejoin="round"/>
<mask id="path-20-inside-12_2827_27303" fill="white">
<path d="M502.099 186.454C502.099 186.454 510.055 169.579 514.754 167.729C519.454 165.842 535.847 168.654 539.104 171.467C542.36 174.279 545.21 193.485 545.21 193.485L536.773 194.41L533.035 178.017C533.035 178.017 528.101 180.183 524.918 179.627C521.27 178.989 517.086 174.279 517.086 174.279L510.98 187.86L502.099 186.454Z"/>
</mask>
<path d="M502.099 186.454C502.099 186.454 510.055 169.579 514.754 167.729C519.454 165.842 535.847 168.654 539.104 171.467C542.36 174.279 545.21 193.485 545.21 193.485L536.773 194.41L533.035 178.017C533.035 178.017 528.101 180.183 524.918 179.627C521.27 178.989 517.086 174.279 517.086 174.279L510.98 187.86L502.099 186.454Z" fill="#323232" stroke="#323232" stroke-width="5" mask="url(#path-20-inside-12_2827_27303)"/>
<path d="M504.692 129.925C504.692 129.925 508.504 123.561 514.869 129.296" stroke="#323232" stroke-width="3" stroke-miterlimit="10" stroke-linecap="round" stroke-linejoin="round"/>
<path d="M552.362 136.563C552.362 136.563 557.95 132.715 560.985 140.153" stroke="#323232" stroke-width="3" stroke-miterlimit="10" stroke-linecap="round" stroke-linejoin="round"/>
<path d="M509.025 139.14C509.436 139.026 510.657 138.937 512.253 139.485" stroke="#323232" stroke-width="4" stroke-linecap="round"/>
<path d="M550.918 146.237C551.346 146.278 552.531 146.631 553.848 147.719" stroke="#323232" stroke-width="4" stroke-linecap="round"/>
<path d="M387 62.0108C387 62.0108 400.729 45.3215 418.195 67.5616" stroke="#323232" stroke-width="2.5" stroke-miterlimit="10" stroke-linecap="round" stroke-linejoin="round"/>
<path d="M387.5 63C387.5 63 399.034 45.2599 416.5 67.5L387.5 63Z" fill="#FFFAF7"/>
</svg>
