<svg width="753" height="388" viewBox="0 0 753 388" fill="none" xmlns="http://www.w3.org/2000/svg">
<g filter="url(#filter0_d_2827_27303)">
<path d="M348.572 180.349C348.572 180.349 406.523 191.154 475.5 213.764L528.899 221.684C528.899 221.684 619.45 235.301 646.316 265.609C646.316 265.609 682.729 305.981 690.981 332.847L618.673 371.406L597.321 335.585L573.231 495.337C573.231 495.337 479.201 532.12 337.878 476.427L374.217 281.188C374.217 281.188 329.441 272.936 321.189 263.277C321.152 263.314 332.623 208.251 348.572 180.349Z" fill="#FFD27C"/>
<path d="M491.119 208.253L491.22 208.286L491.325 208.302L544.721 216.221L544.723 216.221L544.724 216.221L544.736 216.223L544.783 216.23L544.975 216.26C545.146 216.286 545.4 216.326 545.732 216.379C546.398 216.486 547.38 216.646 548.639 216.861C551.159 217.291 554.791 217.939 559.234 218.812C568.122 220.558 580.248 223.201 593.207 226.787C606.171 230.373 619.942 234.897 632.129 240.4C644.341 245.913 654.847 252.359 661.388 259.739L661.396 259.747L662.324 258.91C661.396 259.747 661.396 259.747 661.396 259.747L661.397 259.748L661.401 259.753L661.421 259.775L661.497 259.86C661.565 259.936 661.667 260.05 661.801 260.2C662.067 260.5 662.46 260.944 662.964 261.52C663.971 262.671 665.421 264.347 667.186 266.443C670.719 270.635 675.513 276.503 680.564 283.206C690.45 296.328 701.197 312.496 705.482 325.535L635.144 363.044L614.403 328.246L612.614 325.245L612.093 328.7L588.113 487.723C588 487.763 587.872 487.809 587.731 487.859C587.021 488.11 585.956 488.473 584.547 488.917C581.728 489.805 577.533 491.016 572.054 492.298C561.095 494.861 544.997 497.707 524.491 498.819C483.668 501.035 425.357 496.383 355.304 468.942L391.454 274.718L391.683 273.486L390.451 273.259L390.225 274.489C390.451 273.259 390.451 273.259 390.451 273.259L390.45 273.259L390.444 273.258L390.421 273.254L390.326 273.236C390.242 273.22 390.117 273.197 389.954 273.166C389.626 273.103 389.144 273.011 388.526 272.889C387.292 272.646 385.517 272.287 383.361 271.826C379.047 270.904 373.214 269.576 367.128 267.948C361.037 266.318 354.719 264.396 349.426 262.29C346.779 261.237 344.41 260.147 342.464 259.035C340.773 258.07 339.454 257.118 338.549 256.202C338.634 255.798 338.761 255.204 338.929 254.438C339.269 252.887 339.775 250.637 340.433 247.847C341.75 242.267 343.674 234.533 346.097 225.93C350.861 209.009 357.521 188.841 365.227 175.045C365.655 175.128 366.236 175.241 366.963 175.384C368.678 175.723 371.206 176.233 374.456 176.915C380.957 178.279 390.344 180.334 401.887 183.094C424.973 188.616 456.67 196.961 491.119 208.253ZM338.061 257.467C338.067 257.465 338.074 257.464 338.08 257.462L337.196 256.578L336.525 257.152C336.162 256.9 335.949 256.598 335.948 256.522C335.95 256.483 335.955 256.427 335.958 256.409C335.961 256.383 335.965 256.362 335.966 256.355L335.966 256.355C335.969 256.337 335.973 256.318 335.976 256.303C335.982 256.271 335.991 256.227 336.001 256.174C336.023 256.066 336.056 255.908 336.099 255.702C336.186 255.29 336.316 254.684 336.487 253.902C336.83 252.34 337.339 250.076 338 247.273C339.323 241.667 341.256 233.898 343.69 225.252C348.55 207.995 355.438 187.124 363.495 173.029L338.061 257.467Z" stroke="#323232" stroke-width="2.5"/>
<path d="M273.243 114.662L273.242 114.662C252.767 138.697 235.238 159.955 224.456 189.401C224.809 189.728 225.319 190.193 225.98 190.783C227.383 192.033 229.47 193.841 232.191 196.057C237.635 200.491 245.617 206.561 255.756 213.089C275.825 226.011 304.31 240.708 338.256 248.093L363.027 174.462L328.868 163.743C328.472 163.618 328.164 163.306 328.045 162.909C327.925 162.512 328.011 162.082 328.273 161.761L329.242 162.55C328.273 161.761 328.273 161.76 328.273 161.76L328.275 161.757L328.283 161.747L328.315 161.708L328.441 161.554L328.931 160.952C329.362 160.425 329.994 159.65 330.8 158.662C332.414 156.687 334.727 153.857 337.525 150.442C343.122 143.612 350.661 134.44 358.43 125.071C366.197 115.702 374.197 106.133 380.715 98.5108C383.974 94.7002 386.866 91.3714 389.176 88.7958C391.463 86.2447 393.233 84.3701 394.223 83.5207C394.52 83.2652 394.92 83.1644 395.303 83.2477L273.243 114.662ZM273.243 114.662C290.151 94.8036 309.154 77.2836 323.941 64.722M273.243 114.662L323.941 64.722M348.521 43.5784C349.595 44.218 349.595 44.2179 349.596 44.2178L349.596 44.2171L349.598 44.2144L349.604 44.2036L349.63 44.1607L349.73 43.9923L350.116 43.3449C350.452 42.7829 350.937 41.9701 351.537 40.9674C352.738 38.9619 354.396 36.1971 356.229 33.1597C359.898 27.0802 364.257 19.9239 367.041 15.5731C369.698 11.4198 373.898 7.8252 378.503 5.26755C383.117 2.7058 388.018 1.25004 392.017 1.25005C393.776 1.25005 394.529 1.61192 394.815 1.896C395.018 2.09669 395.19 2.47431 394.964 3.3601C394.785 4.05952 394.39 4.91161 393.795 5.88745C393.697 5.95988 393.599 6.03298 393.5 6.10674C388.383 9.94463 382.727 15.67 377.595 22.7509C377.225 23.2612 377.293 23.9669 377.753 24.3974C378.213 24.8279 378.922 24.8485 379.406 24.4455L378.607 23.4846C379.406 24.4455 379.406 24.4454 379.407 24.4451L379.408 24.4441L379.412 24.4405L379.428 24.4269L379.491 24.3748C379.545 24.3292 379.625 24.2621 379.728 24.1748C379.934 24.0003 380.233 23.7453 380.608 23.4212C381.358 22.7732 382.411 21.8484 383.628 20.7389C386.058 18.5242 389.16 15.5548 391.805 12.5716C393.128 11.0802 394.351 9.56786 395.323 8.13092C395.438 7.96119 395.55 7.7914 395.659 7.62172C397.854 6.03318 399.895 4.85164 401.681 4.10423C403.674 3.27056 405.217 3.03342 406.272 3.22886C407.761 3.50453 408.568 4.03621 409.006 4.6069C409.167 4.81568 409.296 5.05433 409.393 5.32631C408.197 7.01416 406.984 9.06706 405.775 11.248C404.782 13.0382 403.792 14.914 402.808 16.7783C400.723 20.729 398.664 24.6285 396.669 27.5538C396.301 28.0931 396.41 28.8246 396.919 29.2332C397.428 29.6417 398.166 29.5897 398.613 29.1137L397.701 28.2582C398.613 29.1137 398.613 29.1134 398.613 29.1131L398.614 29.1119L398.618 29.1081L398.631 29.0939L398.681 29.0402C398.725 28.9933 398.788 28.9246 398.87 28.8353C399.034 28.6568 399.271 28.3961 399.566 28.0642C400.158 27.4006 400.986 26.4514 401.937 25.3048C403.834 23.0173 406.239 19.9205 408.225 16.7265C410.18 13.5816 411.851 10.1546 412.067 7.25016C412.1 6.80396 412.1 6.35934 412.058 5.92295C412.129 5.83157 412.199 5.74201 412.269 5.6543C412.944 4.80825 413.56 4.18163 414.11 3.77547C414.666 3.36485 415.059 3.24976 415.316 3.24976C415.38 3.24976 415.443 3.24489 415.506 3.23521C418.587 2.76115 420.87 3.4972 421.81 4.82355C422.687 6.06027 422.869 8.54387 419.967 12.7972L419.965 12.8002C416.866 17.3715 415.402 22.6331 414.706 26.7008C414.356 28.7431 414.196 30.5055 414.123 31.7608C414.087 32.389 414.073 32.8914 414.067 33.2401C414.065 33.4144 414.064 33.5504 414.065 33.6445C414.065 33.6915 414.065 33.7281 414.065 33.7537L414.066 33.784L414.066 33.7929L414.066 33.7958L414.066 33.7969C414.066 33.7973 414.066 33.7976 415.316 33.772L414.066 33.7976C414.076 34.2923 414.377 34.7344 414.834 34.9252C415.29 35.116 415.816 35.0199 416.175 34.6801L416.175 34.6798L416.175 34.6796L416.184 34.6715C416.193 34.6632 416.208 34.6493 416.229 34.63C416.272 34.5916 416.338 34.5319 416.43 34.453C416.612 34.295 416.891 34.0599 417.268 33.7633C418.022 33.1701 419.166 32.3312 420.698 31.3713C423.762 29.4517 428.381 27.0493 434.554 25.1609C440.835 23.2399 444.765 22.817 446.792 23.2334C447.78 23.4365 448.027 23.7735 448.093 23.9294C448.176 24.1254 448.224 24.5997 447.764 25.5119C447.577 25.8825 446.956 26.7253 445.873 28.0209C444.827 29.2721 443.438 30.8438 441.82 32.6243C438.586 36.1836 434.465 40.5443 430.404 44.781C426.345 49.0164 422.35 53.1219 419.37 56.169C417.88 57.6925 416.644 58.951 415.781 59.8286C415.349 60.2674 415.01 60.611 414.78 60.8448L414.517 61.1113L414.449 61.1794L414.432 61.1966L414.428 61.2008L414.427 61.2019C414.427 61.2021 414.427 61.2022 415.316 62.0809L414.427 61.2022C413.982 61.6524 413.944 62.364 414.338 62.8593L418.519 68.114C418.771 68.4296 419.158 68.6046 419.561 68.584C429.672 68.0674 434.817 68.9688 437.399 70.2225C438.647 70.8288 439.237 71.4892 439.54 72.0651C439.852 72.6586 439.932 73.2978 439.932 73.9966C439.932 74.2393 439.804 74.6792 439 75.3079C438.197 75.9356 436.889 76.6115 434.952 77.3127C431.092 78.7102 425.072 80.0924 416.522 81.4959C407.994 82.8773 402.63 83.3046 399.421 83.3906C397.817 83.4336 396.757 83.3912 396.112 83.3413C395.79 83.3164 395.574 83.2897 395.446 83.2711C395.382 83.2618 395.34 83.2546 395.319 83.2507L395.309 83.2489L348.521 43.5784ZM348.521 43.5784L349.251 44.5932C349.391 44.4931 349.508 44.3653 349.595 44.218L348.521 43.5784ZM348.521 43.5784C349.251 44.5932 349.251 44.5932 349.251 44.5934M348.521 43.5784L349.251 44.5934M323.941 64.722C331.332 58.4431 337.664 53.4076 342.147 49.943M323.941 64.722L342.147 49.943M342.147 49.943C344.388 48.2108 346.167 46.8715 347.384 45.9662M342.147 49.943L347.384 45.9662M347.384 45.9662C347.992 45.5135 348.46 45.1694 348.776 44.9388M347.384 45.9662L348.776 44.9388M348.776 44.9388C348.934 44.8236 349.053 44.7367 349.133 44.6789M348.776 44.9388L349.133 44.6789M349.133 44.6789L349.222 44.614M349.133 44.6789L349.222 44.614M349.222 44.614L349.245 44.5981M349.222 44.614L349.245 44.5981M349.245 44.5981L349.25 44.5942M349.245 44.5981L349.25 44.5942M349.25 44.5942L349.251 44.5934M349.25 44.5942L349.251 44.5934" stroke="#323232" stroke-width="2.5" stroke-linejoin="round"/>
<path d="M225.855 189.016C225.855 189.016 271.911 232.603 339.975 246.799" stroke="#323232" stroke-width="2.5" stroke-miterlimit="10" stroke-linecap="round" stroke-linejoin="round"/>
<path d="M651.876 394.443C645.824 383.559 638.896 370.978 634.888 363.285L671.964 344.136L671.965 344.136L705.498 326.814C705.848 327.43 706.346 328.309 706.968 329.415C708.278 331.742 710.142 335.076 712.362 339.106C716.801 347.169 722.657 358.011 728.329 369.141C734.005 380.277 739.482 391.673 743.173 400.851C745.021 405.445 746.404 409.442 747.146 412.553C747.517 414.11 747.717 415.402 747.746 416.413C747.777 417.459 747.618 418.03 747.452 418.294C746.851 419.249 745.398 420.644 743.127 422.402C740.899 424.127 738.011 426.107 734.684 428.239C728.031 432.501 719.691 437.326 711.517 441.87C703.346 446.413 695.356 450.667 689.407 453.786C686.433 455.345 683.97 456.62 682.25 457.505C681.391 457.948 680.717 458.293 680.259 458.527C680.03 458.644 679.854 458.734 679.736 458.794L679.603 458.862L679.569 458.879L679.561 458.883L679.559 458.884C679.558 458.884 679.558 458.884 680.124 459.999L679.558 458.884C679.068 459.133 678.798 459.672 678.893 460.214L682.297 479.752C682.336 479.973 682.433 480.18 682.579 480.351L682.814 480.15C682.579 480.351 682.579 480.351 682.579 480.351L682.58 480.352L682.582 480.355L682.593 480.367L682.636 480.417C682.674 480.462 682.731 480.529 682.805 480.616C682.953 480.791 683.171 481.048 683.447 481.378C684 482.036 684.788 482.983 685.726 484.131C687.603 486.428 690.076 489.528 692.471 492.746C694.872 495.971 697.168 499.282 698.707 502.008C699.48 503.378 700.032 504.548 700.321 505.457C700.465 505.912 700.528 506.254 700.538 506.494C700.545 506.662 700.524 506.736 700.519 506.753C700.444 506.867 700.273 507.024 699.821 507.117C699.34 507.216 698.649 507.214 697.742 507.06C695.935 506.752 693.571 505.893 690.972 504.576C685.777 501.945 679.947 497.644 676.179 492.93C675.77 492.418 675.034 492.309 674.494 492.681C673.953 493.053 673.793 493.779 674.125 494.345L675.203 493.711L674.125 494.345L674.126 494.345L674.127 494.348L674.135 494.361L674.165 494.413C674.192 494.459 674.232 494.527 674.284 494.618C674.389 494.798 674.542 495.065 674.736 495.406C675.124 496.087 675.673 497.066 676.317 498.252C677.607 500.627 679.272 503.821 680.783 507.114C682.3 510.422 683.634 513.771 684.292 516.472C684.622 517.829 684.762 518.942 684.707 519.768C684.652 520.611 684.416 520.919 684.252 521.035C683.498 521.566 682.232 521.71 680.32 521.134C678.445 520.57 676.204 519.382 673.79 517.681C668.972 514.287 663.695 509.016 659.605 503.273C659.227 502.742 658.503 502.591 657.944 502.927C657.384 503.263 657.177 503.972 657.469 504.556L657.469 504.557L657.47 504.559L657.476 504.57L657.497 504.614C657.517 504.653 657.546 504.713 657.584 504.79C657.66 504.946 657.772 505.176 657.913 505.471C658.196 506.061 658.596 506.912 659.064 507.949C660.002 510.024 661.209 512.834 662.294 515.789C663.382 518.755 664.33 521.817 664.77 524.409C664.991 525.706 665.076 526.837 665.008 527.754C664.939 528.685 664.721 529.269 664.457 529.602C663.998 530.172 663.14 530.46 661.408 529.76C659.701 529.071 657.578 527.55 655.31 525.342C650.792 520.947 646.007 514.135 643.132 506.974C642.896 506.387 642.259 506.069 641.648 506.232C641.037 506.396 640.645 506.99 640.734 507.616L641.972 507.44C640.734 507.616 640.734 507.617 640.734 507.617L640.734 507.617L640.735 507.618L640.735 507.623L640.738 507.64L640.748 507.708C640.756 507.768 640.769 507.856 640.786 507.971C640.82 508.2 640.87 508.535 640.935 508.959C641.065 509.808 641.256 511.017 641.498 512.457C641.981 515.336 642.669 519.152 643.489 522.88L643.491 522.887C643.796 524.24 644.18 525.595 644.545 526.857C644.589 527.009 644.633 527.159 644.676 527.308C644.995 528.409 645.288 529.42 645.507 530.329C645.76 531.378 645.881 532.169 645.86 532.716C645.849 532.996 645.808 533.12 645.783 533.167C644.896 533.6 643.486 533.325 641.409 531.633C639.408 530.003 637.216 527.385 635.082 524.285C630.818 518.089 627.008 510.296 625.592 505.564C624.189 500.875 623.581 491.987 623.586 482.906C623.591 473.856 624.201 464.856 625.14 460.015L625.141 460.012C626.634 452.229 630.164 444.832 641.636 434.237L640.788 433.318L641.636 434.237C646.929 429.348 654.505 422.986 663.215 417.032C663.751 416.666 663.917 415.951 663.599 415.386L662.51 416C663.599 415.386 663.598 415.386 663.598 415.385L663.598 415.384L663.595 415.379L663.583 415.358L663.537 415.276L663.355 414.955C663.196 414.672 662.962 414.255 662.66 413.72C662.057 412.648 661.187 411.101 660.119 409.196C657.981 405.387 655.051 400.151 651.876 394.443ZM645.765 533.191C645.764 533.19 645.768 533.182 645.78 533.172C645.772 533.188 645.766 533.192 645.765 533.191Z" stroke="#323232" stroke-width="2.5" stroke-linejoin="round"/>
<path d="M633.164 362.786L671.353 343.026L705.953 325.152" stroke="#323232" stroke-width="2.5" stroke-miterlimit="10" stroke-linecap="round" stroke-linejoin="round"/>
<path d="M296.641 151.724C296.641 151.724 313.182 148.8 325.061 162.344" stroke="#323232" stroke-width="2.5" stroke-miterlimit="10" stroke-linecap="round" stroke-linejoin="round"/>
<path d="M390.19 274.529C390.19 274.529 396.962 237.08 409.1 216.69" stroke="#323232" stroke-width="2.5" stroke-miterlimit="10" stroke-linecap="round" stroke-linejoin="round"/>
<path d="M478.602 206.03C478.602 215.651 479.231 236.3 506.688 242.221C534.035 248.142 547.32 234.82 553.981 223.015" stroke="#323232" stroke-width="2.5" stroke-miterlimit="10" stroke-linecap="round" stroke-linejoin="round"/>
<path d="M613.296 328.926L608.041 277.008" stroke="#323232" stroke-width="2.5" stroke-miterlimit="10" stroke-linecap="round" stroke-linejoin="round"/>
<path d="M662.891 414.135C662.715 413.822 662.507 413.455 662.272 413.036C661.428 411.539 660.221 409.394 658.769 406.807C656.426 402.632 653.445 397.306 650.322 391.684C653.047 394.27 656.67 397.637 660.395 400.389C663.61 402.771 667.113 404.239 669.79 405.11C670.585 405.369 671.311 405.577 671.94 405.741C670.423 407.12 669.154 408.359 667.988 409.496C667.74 409.738 667.497 409.976 667.257 410.209C665.794 411.63 664.454 412.896 662.891 414.135Z" fill="#323232" stroke="#323232" stroke-width="2.5"/>
<path d="M490.374 194.439L490.295 194.021L489.983 193.742L489.982 193.741C489.979 193.738 489.971 193.731 489.959 193.719C489.935 193.696 489.894 193.655 489.837 193.595C489.723 193.476 489.548 193.282 489.327 193.005C488.884 192.452 488.255 191.567 487.564 190.286C486.182 187.727 484.539 183.572 483.639 177.303C481.843 164.808 482.992 143.891 495.058 110.502C495.105 110.474 495.157 110.444 495.215 110.412C495.564 110.215 496.111 109.93 496.867 109.598C498.38 108.934 500.734 108.082 504.032 107.381C510.625 105.978 521.012 105.171 536.01 107.682L536.011 107.683C550.982 110.169 560.54 115.055 566.329 119.265C569.227 121.372 571.188 123.316 572.416 124.717C573.03 125.417 573.461 125.982 573.734 126.365C573.812 126.474 573.877 126.568 573.93 126.647C573.664 158.868 567.4 177.832 561.289 188.701C558.222 194.156 555.187 197.583 552.95 199.632C551.831 200.657 550.91 201.34 550.281 201.76C549.967 201.97 549.726 202.114 549.569 202.203C549.491 202.248 549.434 202.278 549.399 202.296C549.382 202.305 549.371 202.311 549.365 202.314L549.364 202.315L549.362 202.315L549.361 202.316L548.947 202.515L548.762 202.942L543.756 214.461C543.736 214.496 543.705 214.549 543.664 214.618C543.577 214.762 543.445 214.977 543.267 215.252C542.912 215.801 542.374 216.589 541.656 217.523C540.219 219.393 538.072 221.836 535.232 224.129C529.564 228.707 521.184 232.667 510.122 230.377C501.283 228.543 496.961 222.791 494.812 217.413C493.732 214.711 493.209 212.116 492.957 210.191C492.831 209.231 492.774 208.444 492.748 207.901C492.735 207.63 492.729 207.421 492.728 207.282C492.727 207.212 492.726 207.161 492.726 207.128L492.727 207.093L492.727 207.087L492.727 207.086L492.727 207.086L492.727 207.085L492.729 206.96L492.705 206.836L490.374 194.439ZM494.741 110.697L494.74 110.698L494.741 110.697Z" fill="#FFFAF7" stroke="#323232" stroke-width="2.5"/>
<path d="M584.072 126.33L584.065 126.336L584.065 126.336L584.064 126.337L584.064 126.337L583.808 126.557L583.697 126.876L572.836 158.308L569.817 158.081L576.444 126.543L576.636 125.625L575.81 125.183L548.663 110.658L559.606 97.4032L559.649 97.351L559.685 97.2972L559.685 97.2969L559.685 97.2963L559.686 97.2955L559.686 97.2955L559.697 97.2791C559.708 97.2626 559.727 97.235 559.755 97.1974C559.809 97.1222 559.894 97.0072 560.01 96.8611C560.242 96.5684 560.595 96.153 561.067 95.6825C562.013 94.7381 563.415 93.5922 565.247 92.7587C568.82 91.1333 574.284 90.575 581.648 95.7085L581.648 95.7086C587.078 99.4934 589.824 103.279 591.001 106.751C592.176 110.217 591.835 113.513 590.822 116.414C589.805 119.33 588.118 121.816 586.663 123.588C585.939 124.47 585.28 125.165 584.806 125.636C584.569 125.872 584.379 126.051 584.25 126.169C584.186 126.228 584.137 126.272 584.106 126.3L584.072 126.33Z" fill="#323232" stroke="#323232" stroke-width="2.5"/>
<path d="M495.735 112.372C494.513 112.111 494.513 112.111 494.513 112.112L494.513 112.113L494.512 112.117L494.508 112.134L494.494 112.201L494.439 112.461L494.228 113.448C494.047 114.299 493.788 115.515 493.478 116.975C492.857 119.896 492.029 123.795 491.201 127.706C490.373 131.617 489.544 135.542 488.923 138.515C488.612 140.002 488.353 141.252 488.171 142.144C488.081 142.589 488.008 142.949 487.959 143.204C487.934 143.332 487.914 143.438 487.9 143.519C487.893 143.559 487.886 143.599 487.88 143.635C487.878 143.653 487.874 143.677 487.871 143.704L487.871 143.705C487.869 143.721 487.862 143.785 487.862 143.863C487.862 146.1 486.565 146.755 485.991 146.684C485.67 146.644 485.157 146.407 484.683 145.535C484.202 144.65 483.812 143.182 483.812 140.94C483.812 136.674 484.469 129.961 485.135 124.262C485.467 121.423 485.799 118.855 486.049 116.996C486.173 116.067 486.277 115.316 486.349 114.797C486.386 114.538 486.414 114.336 486.434 114.2L486.456 114.046L486.461 114.007L486.463 113.997L486.463 113.995L486.463 113.994C486.463 113.994 486.463 113.994 485.226 113.815L486.463 113.994L486.501 113.734L486.43 113.48C484.38 106.103 484.604 100.439 486.088 96.132C487.57 91.8327 490.347 88.77 493.616 86.6524C496.899 84.5259 500.672 83.3585 504.074 82.8883C506.989 82.4852 509.519 82.6089 511.164 83.0028L511.85 107.107L495.436 111.158L494.676 111.346L494.513 112.111L495.735 112.372Z" fill="#323232" stroke="#323232" stroke-width="2.5"/>
<path d="M524.792 66.4668L524.793 66.4665C534.208 62.7968 542.04 63.699 548.205 66.8669C554.41 70.0556 559.032 75.5974 561.848 81.3542C563.118 83.976 563.131 87.0718 562.315 90.3671C561.499 93.6606 559.881 97.0364 558.05 100.103C556.224 103.161 554.216 105.863 552.661 107.803C551.884 108.772 551.223 109.548 550.758 110.08C550.638 110.217 550.531 110.338 550.438 110.442L508.63 106.651C508.64 106.544 508.651 106.43 508.663 106.31C508.761 105.304 508.917 103.856 509.149 102.101C509.614 98.587 510.383 93.8525 511.596 88.9526C512.812 84.043 514.462 79.0205 516.671 74.9034C518.893 70.7599 521.584 67.7138 524.792 66.4668Z" fill="#323232" stroke="#323232" stroke-width="2.5"/>
<path d="M487.237 142.088L487.237 142.088L487.238 142.093C487.98 148.119 486.564 152.275 485.019 154.901C484.241 156.223 483.422 157.172 482.806 157.783C482.584 158.003 482.389 158.179 482.233 158.311C480.529 157.812 479.317 156.571 478.479 154.755C477.542 152.723 477.125 150.057 477.105 147.237C477.085 144.433 477.457 141.574 478.018 139.218C478.298 138.041 478.621 137.009 478.955 136.184C479.299 135.335 479.622 134.792 479.864 134.521C480.367 133.957 480.906 133.789 481.482 133.848C482.119 133.914 482.909 134.277 483.74 135.007C485.401 136.466 486.883 139.1 487.237 142.088Z" stroke="#323232" stroke-width="2.5"/>
<path d="M581.062 160.173C581.74 164.108 580.013 168.752 577.154 172.123C574.547 175.197 571.383 176.809 568.687 176.322C568.72 175.988 568.762 175.581 568.813 175.113C568.965 173.722 569.194 171.796 569.506 169.656C570.134 165.344 571.081 160.29 572.357 156.973C572.964 155.428 573.76 154.471 574.539 153.96C575.298 153.462 576.09 153.351 576.855 153.561C578.429 153.996 580.342 155.991 581.062 160.173Z" stroke="#323232" stroke-width="2.5"/>
<path d="M483.744 160.054L483.744 160.054L483.777 159.953L483.793 159.847L487.152 136.929C487.631 137.294 488.426 138.281 488.832 140.944L488.832 140.944L488.833 140.949C489.523 145.35 490.928 152.681 492.688 159.448C493.568 162.831 494.544 166.097 495.571 168.797C496.576 171.436 497.7 173.728 498.954 174.981C504.061 180.089 511.824 183.511 519.495 185.707C527.193 187.91 534.962 188.924 540.238 189.113C543.658 189.238 546.743 187.859 549.483 185.723C552.216 183.594 554.682 180.656 556.907 177.506C559.137 174.351 561.168 170.921 563.006 167.778C563.147 167.537 563.286 167.298 563.425 167.061C565.108 164.181 566.609 161.611 567.981 159.69C569.479 157.598 570.669 156.369 571.544 155.649L566.123 176.935L566.087 177.077L566.085 177.224C565.902 189.052 563.333 195.783 559.824 199.673C556.334 203.541 551.715 204.819 546.867 205.269C540.295 205.878 530.607 204.379 520.152 201.97C509.739 199.571 498.72 196.307 489.548 193.478L489.546 193.477C485.867 192.35 483.654 189.853 482.376 186.62C481.078 183.338 480.76 179.323 480.955 175.343C481.149 171.38 481.846 167.553 482.499 164.707C482.825 163.287 483.138 162.117 483.369 161.305C483.484 160.9 483.579 160.583 483.645 160.37C483.677 160.264 483.703 160.183 483.72 160.13L483.739 160.071L483.743 160.057L483.744 160.054L483.744 160.054Z" fill="#323232" stroke="#323232" stroke-width="2.5"/>
<path d="M529.299 141.05L521.972 157.11L533.665 159.072" stroke="#323232" stroke-width="2.5" stroke-miterlimit="10" stroke-linecap="round" stroke-linejoin="round"/>
<path d="M515.212 168.892L515.212 168.892L515.22 168.889C516.145 168.518 517.832 168.329 520.06 168.371C522.237 168.412 524.769 168.667 527.272 169.07C529.775 169.472 532.219 170.017 534.222 170.627C536.29 171.256 537.692 171.899 538.287 172.413C538.499 172.596 538.81 173.018 539.179 173.771C539.534 174.495 539.892 175.417 540.245 176.485C540.95 178.621 541.6 181.237 542.156 183.796C542.711 186.349 543.166 188.819 543.482 190.652C543.598 191.326 543.695 191.912 543.772 192.385L537.744 193.046L534.254 177.739L533.917 176.264L532.533 176.872L532.533 176.872L532.533 176.872L532.532 176.872L532.532 176.872L532.524 176.876L532.489 176.891C532.456 176.905 532.406 176.926 532.34 176.953C532.209 177.007 532.015 177.085 531.771 177.178C531.282 177.364 530.598 177.605 529.823 177.83C528.216 178.295 526.424 178.621 525.133 178.396C523.659 178.138 521.919 176.996 520.436 175.755C519.721 175.157 519.113 174.576 518.683 174.143C518.468 173.928 518.3 173.751 518.186 173.629C518.129 173.568 518.086 173.522 518.058 173.491L518.028 173.457L518.021 173.45L518.02 173.449L518.02 173.449L518.02 173.449L518.02 173.448L516.738 172.005L515.946 173.767L510.232 186.476L503.962 185.483C504.127 185.151 504.317 184.772 504.529 184.355C505.342 182.757 506.473 180.611 507.746 178.412C509.023 176.207 510.427 173.976 511.788 172.194C512.468 171.303 513.121 170.547 513.725 169.968C514.344 169.377 514.844 169.037 515.212 168.892Z" fill="#323232" stroke="#323232" stroke-width="2.5"/>
<path d="M504.692 129.925C504.692 129.925 508.504 123.561 514.869 129.296" stroke="#323232" stroke-width="3" stroke-miterlimit="10" stroke-linecap="round" stroke-linejoin="round"/>
<path d="M552.362 136.563C552.362 136.563 557.95 132.715 560.985 140.153" stroke="#323232" stroke-width="3" stroke-miterlimit="10" stroke-linecap="round" stroke-linejoin="round"/>
<path d="M509.025 139.14C509.436 139.026 510.657 138.937 512.253 139.485" stroke="#323232" stroke-width="4" stroke-linecap="round"/>
<path d="M550.918 146.237C551.346 146.278 552.531 146.631 553.848 147.719" stroke="#323232" stroke-width="4" stroke-linecap="round"/>
<path d="M387 62.0108C387 62.0108 400.729 45.3215 418.195 67.5616" stroke="#323232" stroke-width="2.5" stroke-miterlimit="10" stroke-linecap="round" stroke-linejoin="round"/>
<path d="M387.5 63C387.5 63 399.034 45.2599 416.5 67.5L387.5 63Z" fill="#FFFAF7"/>
</g>
<defs>
<filter id="filter0_d_2827_27303" x="219" y="0" width="534" height="923.864" filterUnits="userSpaceOnUse" color-interpolation-filters="sRGB">
<feFlood flood-opacity="0" result="BackgroundImageFix"/>
<feColorMatrix in="SourceAlpha" type="matrix" values="0 0 0 0 0 0 0 0 0 0 0 0 0 0 0 0 0 0 127 0" result="hardAlpha"/>
<feOffset dy="4"/>
<feGaussianBlur stdDeviation="2"/>
<feComposite in2="hardAlpha" operator="out"/>
<feColorMatrix type="matrix" values="0 0 0 0 0 0 0 0 0 0 0 0 0 0 0 0 0 0 0.25 0"/>
<feBlend mode="normal" in2="BackgroundImageFix" result="effect1_dropShadow_2827_27303"/>
<feBlend mode="normal" in="SourceGraphic" in2="effect1_dropShadow_2827_27303" result="shape"/>
</filter>
</defs>
</svg>
