<svg width="162" height="231" viewBox="0 0 162 231" fill="none" xmlns="http://www.w3.org/2000/svg">
<g clip-path="url(#clip0_2529_18754)">
<rect x="44.6016" y="36.7051" width="6" height="9" rx="3" transform="rotate(15 44.6016 36.7051)" fill="#323232"/>
<rect x="40.4609" y="52.1599" width="6" height="16" rx="3" transform="rotate(15 40.4609 52.1599)" fill="#323232"/>
<rect x="89.2109" y="9.31738" width="40" height="9" rx="3" transform="rotate(15 89.2109 9.31738)" fill="#323232"/>
<rect x="35.2852" y="71.4785" width="6" height="16" rx="3" transform="rotate(15 35.2852 71.4785)" fill="#323232"/>
<circle cx="92.1612" cy="107.091" r="27.8438" transform="rotate(15 92.1612 107.091)" fill="#C6C5C8"/>
<path d="M64.7925 132.436C63.609 131.505 62.3231 130.955 61.3817 129.884C59.7787 128.226 58.66 126.289 57.7836 124.211C55.2429 118.412 54.053 112.157 54.1115 105.826C54.2961 100.552 55.1937 95.6746 57.8615 91.0665C60.2359 86.7893 63.6403 84.0165 68.2283 82.1749C70.7389 81.2098 73.3381 80.6779 76.1147 81.0124C78.8912 81.3469 81.463 82.4455 83.8813 84.1171C85.116 84.8574 86.2996 85.7887 87.7253 86.5802C89.151 87.3717 90.6791 87.7811 92.3608 87.6175C94.8577 87.4677 97.4057 87.1268 99.8002 87.3589C103.341 87.8982 106.434 89.3413 109.03 91.8793C110.824 93.5884 112.325 95.6283 113.341 97.9479C113.989 99.3499 113.491 100.445 112.14 100.902C109.005 101.904 106.481 103.685 104.707 106.485C101.695 111.615 102.489 118.584 107.554 122.602C107.745 122.653 107.885 122.896 108.076 122.947C108.877 123.776 109.055 124.642 108.365 125.686C106.452 128.244 104.398 130.56 101.822 132.531C99.9736 134.083 97.9337 135.584 95.8938 137.084C93.6628 138.534 91.2034 139.308 88.4269 138.973C87.6628 138.769 86.8988 138.564 86.3257 138.41C84.9512 137.428 83.3344 136.585 81.9599 135.603C79.4018 133.689 76.3968 132.679 73.2757 132.866C71.212 132.928 69.2882 133.231 67.2245 133.292C66.3206 132.845 65.5566 132.641 64.7925 132.436ZM104.596 124.471C95.9058 116.41 98.7381 102.019 109.456 97.9305C108.845 97.1527 108.426 96.4262 108.006 95.6996C105.704 92.8307 102.713 91.0056 98.879 90.7972C97.0575 90.7186 95.1848 90.831 93.3122 90.9434C90.8153 91.0932 88.2298 90.8099 86.0912 89.6227C84.6654 88.8312 83.2909 87.8487 82.0561 87.1084C80.1597 85.7814 78.161 84.8363 75.7664 84.6042C70.3532 84.1773 65.9051 86.2611 62.5244 90.4734C59.5394 93.9729 58.3623 98.3662 57.7581 102.913C57.2426 107.893 57.5936 112.696 59.0019 117.372C59.9533 120.698 60.9559 123.833 63.0159 126.842C64.6564 129.124 66.795 130.311 69.7762 129.882C70.5915 129.895 71.2669 129.667 72.1333 129.489C75.3056 129.111 78.4641 129.548 81.1758 130.889C82.6015 131.68 83.976 132.663 85.3506 133.645C87.056 134.921 88.8638 135.815 91.081 135.181C92.1896 134.864 93.5404 134.407 94.5603 133.656C98.3468 130.986 101.611 127.971 104.596 124.471Z" fill="#323232"/>
<path d="M87.1598 80.2868C88.4768 76.1357 91.1683 72.9671 94.8013 70.8696C97.6564 69.3827 100.549 68.5199 103.759 68.7658C104.383 68.7283 104.765 68.8307 105.338 68.9842C106.484 69.2913 106.904 70.0179 106.839 71.0241C106.555 73.6097 105.559 75.7994 103.99 77.8357C101.196 81.3863 97.7541 83.535 93.2822 84.1793C91.6006 84.3428 89.9701 84.3154 88.251 83.8548C87.1049 83.5477 86.6854 82.8211 86.8015 81.6239C87.0437 81.484 87.1972 80.911 87.1598 80.2868ZM103.168 72.4974C97.8949 72.3127 91.0998 77.0432 90.8402 81.0682C96.6355 81.5974 101.8 76.8395 103.168 72.4974Z" fill="#323232"/>
<rect x="57.1721" y="3.32065" width="105" height="204" rx="19.5" transform="rotate(15 57.1721 3.32065)" stroke="#323232" stroke-width="5"/>
</g>
<defs>
<clipPath id="clip0_2529_18754">
<rect width="111" height="209" fill="white" transform="translate(54.4375) rotate(15)"/>
</clipPath>
</defs>
</svg>
