<svg width="160" height="32" viewBox="0 0 160 32" fill="none" xmlns="http://www.w3.org/2000/svg">
<path d="M13.8027 17.888C13.5551 18.6927 13.1838 19.4354 12.6267 19.9925C11.6983 20.9828 10.4603 21.478 9.03675 21.478C7.61315 21.478 6.43714 20.9828 5.5087 19.9925C4.95164 19.3735 4.58027 18.6927 4.33269 17.888L0.123792 19.4973C0.55706 20.7352 1.29981 21.9112 2.35203 22.9635C4.2089 24.8203 6.43714 25.7488 9.03675 25.7488C10.8317 25.7488 12.441 25.3155 13.9265 24.5109C15.412 23.6443 16.588 22.4683 17.4545 20.9828C17.7021 20.4876 17.9497 19.9925 18.1354 19.4973L13.8027 17.888ZM5.44681 12.3793C6.37524 11.389 7.61315 10.8938 8.97486 10.8938C10.3985 10.8938 11.6364 11.389 12.5648 12.3793C13.1219 12.9364 13.4932 13.6172 13.6789 14.36L17.8878 12.7507C17.7021 12.3174 17.5164 11.8842 17.2689 11.4509C16.4023 9.96541 15.2263 8.78939 13.6789 7.92285C12.1315 7.05632 10.5222 6.62305 8.85106 6.62305C6.43714 6.62305 4.33269 7.42769 2.53772 9.09887C1.3617 10.1511 0.55706 11.389 0 12.6888L4.2089 14.2981C4.51838 13.5553 4.88975 12.9364 5.44681 12.3793Z" fill="#F94E1E"/>
<path d="M38.808 9.28444C37.1368 7.48947 35.0942 6.56104 32.7422 6.56104C31.6281 6.56104 30.6378 6.74672 29.6474 7.17999C28.719 7.61326 27.7906 8.23222 26.9859 9.03686V7.0562H22.3438V32.0001H26.924V23.3966C27.7906 24.2632 28.719 24.8821 29.6474 25.2535C30.5759 25.6249 31.5043 25.8106 32.6184 25.8106C34.9704 25.8106 37.013 24.8821 38.7461 23.0871C40.4791 21.2303 41.3457 19.002 41.3457 16.2786C41.2838 13.3695 40.4791 11.0794 38.808 9.28444ZM35.2799 20.0543C34.3515 21.1065 33.1136 21.6017 31.7519 21.6017C30.3283 21.6017 29.0904 21.1065 28.1619 20.1162C27.2335 19.1258 26.7383 17.826 26.7383 16.1548C26.7383 14.5456 27.2335 13.2458 28.1619 12.3173C29.0904 11.327 30.3283 10.8318 31.7519 10.8318C33.1755 10.8318 34.3515 11.327 35.3418 12.3173C36.3321 13.3076 36.7654 14.6075 36.7654 16.1548C36.7035 17.7641 36.2084 19.0639 35.2799 20.0543Z" fill="#F94E1E"/>
<path d="M63.4435 16.65C63.4435 13.6171 62.515 11.2032 60.7201 9.34633C58.9251 7.48947 56.5731 6.56104 53.7259 6.56104C51.0025 6.56104 48.7742 7.48947 46.9793 9.34633C45.1843 11.2032 44.2559 13.4933 44.2559 16.2786C44.2559 19.002 45.1843 21.2922 46.9793 23.0871C48.7742 24.8821 51.1263 25.8106 53.9735 25.8106C55.8303 25.8106 57.4396 25.5011 58.7394 24.8202C60.1011 24.1394 61.2152 23.149 62.2056 21.7873L58.368 19.9924C57.1301 21.1684 55.6446 21.7873 53.9735 21.7873C52.5499 21.7873 51.3738 21.416 50.4454 20.6113C49.517 19.8686 48.9599 18.8164 48.7123 17.5165H63.4435V16.65ZM48.8361 13.9266C49.3313 12.8125 49.8884 12.0078 50.5073 11.5746C51.4976 10.8318 52.6118 10.5224 53.8497 10.5224C55.0257 10.5224 56.0779 10.8318 56.9444 11.4508C57.811 12.0697 58.4299 12.9363 58.7394 13.9266H48.8361Z" fill="#F94E1E"/>
<path d="M81.7649 8.4798C80.4651 7.24189 78.9796 6.56104 77.1228 6.56104C76.2562 6.56104 75.3897 6.74672 74.5232 7.0562C73.6566 7.42757 72.7282 7.98463 71.676 8.91307V7.0562H67.0957V25.3154H71.676V18.0117C71.676 16.0929 71.7379 14.855 71.8617 14.298C72.1092 13.1839 72.6044 12.3173 73.2234 11.6984C73.9042 11.0794 74.7089 10.7699 75.6373 10.7699C76.38 10.7699 76.9371 10.9556 77.4323 11.327C77.9274 11.6984 78.2369 12.2554 78.4845 12.9363C78.6702 13.679 78.794 15.1026 78.794 17.269V25.2535H83.3123V13.2458C83.3123 11.1413 82.8172 9.53202 81.7649 8.4798Z" fill="#F94E1E"/>
<path d="M104.17 9.28433C102.499 7.48936 100.456 6.56093 98.1041 6.56093C96.99 6.56093 95.9997 6.74661 95.0094 7.17988C94.019 7.61315 93.1525 8.23211 92.286 9.03675V0H87.7676V25.3153H92.286V23.3965C93.2144 24.2631 94.0809 24.882 95.0094 25.2534C95.9378 25.6248 96.9281 25.8104 97.9803 25.8104C100.332 25.8104 102.375 24.882 104.108 23.087C105.841 21.2302 106.708 19.0019 106.708 16.2785C106.708 13.3694 105.841 11.0793 104.17 9.28433ZM100.704 20.0542C99.7753 21.1064 98.5374 21.6015 97.1757 21.6015C95.7521 21.6015 94.5142 21.1064 93.5858 20.1161C92.6573 19.1257 92.1622 17.8259 92.1622 16.1547C92.1622 14.5455 92.6573 13.2456 93.5858 12.3172C94.5142 11.3269 95.7521 10.8317 97.1757 10.8317C98.5993 10.8317 99.7753 11.3269 100.766 12.3172C101.694 13.3075 102.189 14.6073 102.189 16.1547C102.127 17.764 101.632 19.0638 100.704 20.0542Z" fill="#323232"/>
<path d="M123.111 7.05615L117.85 18.5068L113.145 7.05615H108.441L115.374 23.9536L111.598 32.0001H116.302L127.753 7.11805V7.05615H123.111Z" fill="#323232"/>
<path d="M128.619 7.11816V11.0176H130.971V25.3773H135.551V11.0176H138.275V7.11816H128.619Z" fill="#323232"/>
<path d="M159.072 16.65C159.072 13.6171 158.144 11.2032 156.349 9.34633C154.554 7.48947 152.202 6.56104 149.355 6.56104C146.631 6.56104 144.403 7.48947 142.608 9.34633C140.813 11.2032 139.885 13.4933 139.885 16.2786C139.885 19.002 140.813 21.2922 142.608 23.0871C144.341 24.8821 146.631 25.7487 149.355 25.8106V21.7873C147.993 21.7873 146.879 21.3541 146.012 20.6113C145.084 19.8686 144.527 18.8164 144.279 17.5165H159.01L159.072 16.65ZM144.527 13.9266C145.022 12.8125 145.579 12.0078 146.198 11.5746C147.127 10.8318 148.303 10.5224 149.54 10.5224C150.716 10.5224 151.769 10.8318 152.635 11.4508C153.502 12.0697 154.121 12.9363 154.43 13.9266H144.527Z" fill="#323232"/>
</svg>
