<svg width="160" height="32" viewBox="0 0 160 32" fill="none" xmlns="http://www.w3.org/2000/svg">
<path d="M13.8027 17.888C13.5551 18.6927 13.1838 19.4354 12.6267 19.9925C11.6983 20.9828 10.4603 21.478 9.03675 21.478C7.61315 21.478 6.43714 20.9828 5.5087 19.9925C4.95164 19.3735 4.58027 18.6927 4.33269 17.888L0.123792 19.4973C0.55706 20.7352 1.29981 21.9112 2.35203 22.9635C4.2089 24.8203 6.43714 25.7488 9.03675 25.7488C10.8317 25.7488 12.441 25.3155 13.9265 24.5109C15.412 23.6443 16.588 22.4683 17.4545 20.9828C17.7021 20.4876 17.9497 19.9925 18.1354 19.4973L13.8027 17.888ZM5.44681 12.3793C6.37524 11.389 7.61315 10.8938 8.97486 10.8938C10.3985 10.8938 11.6364 11.389 12.5648 12.3793C13.1219 12.9364 13.4932 13.6172 13.6789 14.36L17.8878 12.7507C17.7021 12.3174 17.5164 11.8842 17.2689 11.4509C16.4023 9.96541 15.2263 8.78939 13.6789 7.92285C12.1315 7.05632 10.5222 6.62305 8.85106 6.62305C6.43714 6.62305 4.33269 7.42769 2.53772 9.09887C1.3617 10.1511 0.55706 11.389 0 12.6888L4.2089 14.2981C4.51838 13.5553 4.88975 12.9364 5.44681 12.3793Z" fill="#F94E1E"/>
<path d="M38.808 9.28395C37.1368 7.48898 35.0942 6.56055 32.7422 6.56055C31.6281 6.56055 30.6378 6.74623 29.6474 7.1795C28.719 7.61277 27.7906 8.23173 26.9859 9.03637V7.05571H22.3438V31.9996H26.924V23.3961C27.7906 24.2627 28.719 24.8816 29.6474 25.253C30.5759 25.6244 31.5043 25.8101 32.6184 25.8101C34.9704 25.8101 37.013 24.8816 38.7461 23.0867C40.4791 21.2298 41.3457 19.0016 41.3457 16.2781C41.2838 13.3691 40.4791 11.0789 38.808 9.28395ZM35.2799 20.0538C34.3515 21.106 33.1136 21.6012 31.7519 21.6012C30.3283 21.6012 29.0904 21.106 28.1619 20.1157C27.2335 19.1253 26.7383 17.8255 26.7383 16.1544C26.7383 14.5451 27.2335 13.2453 28.1619 12.3168C29.0904 11.3265 30.3283 10.8313 31.7519 10.8313C33.1755 10.8313 34.3515 11.3265 35.3418 12.3168C36.3321 13.3072 36.7654 14.607 36.7654 16.1544C36.7035 17.7636 36.2084 19.0634 35.2799 20.0538Z" fill="#F94E1E"/>
<path d="M63.4435 16.6495C63.4435 13.6166 62.515 11.2027 60.7201 9.34585C58.9251 7.48898 56.5731 6.56055 53.7259 6.56055C51.0025 6.56055 48.7742 7.48898 46.9793 9.34585C45.1843 11.2027 44.2559 13.4928 44.2559 16.2781C44.2559 19.0016 45.1843 21.2917 46.9793 23.0867C48.7742 24.8816 51.1263 25.8101 53.9735 25.8101C55.8303 25.8101 57.4396 25.5006 58.7394 24.8197C60.1011 24.1389 61.2152 23.1486 62.2056 21.7869L58.368 19.9919C57.1301 21.1679 55.6446 21.7869 53.9735 21.7869C52.5499 21.7869 51.3738 21.4155 50.4454 20.6108C49.517 19.8681 48.9599 18.8159 48.7123 17.5161H63.4435V16.6495ZM48.8361 13.9261C49.3313 12.812 49.8884 12.0074 50.5073 11.5741C51.4976 10.8313 52.6118 10.5219 53.8497 10.5219C55.0257 10.5219 56.0779 10.8313 56.9444 11.4503C57.811 12.0692 58.4299 12.9358 58.7394 13.9261H48.8361Z" fill="#F94E1E"/>
<path d="M81.7649 8.47931C80.4651 7.2414 78.9796 6.56055 77.1228 6.56055C76.2562 6.56055 75.3897 6.74623 74.5232 7.05571C73.6566 7.42708 72.7282 7.98414 71.676 8.91258V7.05571H67.0957V25.3149H71.676V18.0112C71.676 16.0925 71.7379 14.8546 71.8617 14.2975C72.1092 13.1834 72.6044 12.3168 73.2234 11.6979C73.9042 11.0789 74.7089 10.7694 75.6373 10.7694C76.38 10.7694 76.9371 10.9551 77.4323 11.3265C77.9274 11.6979 78.2369 12.2549 78.4845 12.9358C78.6702 13.6785 78.794 15.1021 78.794 17.2685V25.253H83.3123V13.2453C83.3123 11.1408 82.8172 9.53153 81.7649 8.47931Z" fill="#F94E1E"/>
<path d="M104.17 9.28433C102.499 7.48936 100.456 6.56093 98.1041 6.56093C96.99 6.56093 95.9997 6.74661 95.0094 7.17988C94.019 7.61315 93.1525 8.23211 92.286 9.03675V0H87.7676V25.3153H92.286V23.3965C93.2144 24.2631 94.0809 24.882 95.0094 25.2534C95.9378 25.6248 96.9281 25.8104 97.9803 25.8104C100.332 25.8104 102.375 24.882 104.108 23.087C105.841 21.2302 106.708 19.0019 106.708 16.2785C106.708 13.3694 105.841 11.0793 104.17 9.28433ZM100.704 20.0542C99.7753 21.1064 98.5374 21.6015 97.1757 21.6015C95.7521 21.6015 94.5142 21.1064 93.5858 20.1161C92.6573 19.1257 92.1622 17.8259 92.1622 16.1547C92.1622 14.5455 92.6573 13.2456 93.5858 12.3172C94.5142 11.3269 95.7521 10.8317 97.1757 10.8317C98.5993 10.8317 99.7753 11.3269 100.766 12.3172C101.694 13.3075 102.189 14.6073 102.189 16.1547C102.127 17.764 101.632 19.0638 100.704 20.0542Z" fill="#323232"/>
<path d="M123.111 7.05664L117.85 18.5073L113.145 7.05664H108.441L115.374 23.9541L111.598 32.0005H116.302L127.753 7.11854V7.05664H123.111Z" fill="#323232"/>
<path d="M128.619 7.11816V11.0176H130.971V25.3773H135.551V11.0176H138.275V7.11816H128.619Z" fill="#323232"/>
<path d="M159.072 16.6495C159.072 13.6166 158.144 11.2027 156.349 9.34585C154.554 7.48898 152.202 6.56055 149.355 6.56055C146.631 6.56055 144.403 7.48898 142.608 9.34585C140.813 11.2027 139.885 13.4928 139.885 16.2781C139.885 19.0016 140.813 21.2917 142.608 23.0867C144.341 24.8816 146.631 25.7482 149.355 25.8101V21.7869C147.993 21.7869 146.879 21.3536 146.012 20.6108C145.084 19.8681 144.527 18.8159 144.279 17.5161H159.01L159.072 16.6495ZM144.527 13.9261C145.022 12.812 145.579 12.0074 146.198 11.5741C147.127 10.8313 148.303 10.5219 149.54 10.5219C150.716 10.5219 151.769 10.8313 152.635 11.4503C153.502 12.0692 154.121 12.9358 154.43 13.9261H144.527Z" fill="#323232"/>
</svg>
