<svg width="6" height="827" viewBox="0 0 6 827" fill="none" xmlns="http://www.w3.org/2000/svg">
<path d="M2.01849 34.9665C2.03698 35.5185 1.6045 35.981 1.05252 35.9994C0.500548 36.0179 0.0380964 35.5854 0.019609 35.0335L2.01849 34.9665ZM0.0243302 1.10265C-0.0323581 0.553276 0.367037 0.0619698 0.916405 0.0052834C1.46577 -0.0514068 1.95708 0.347992 2.01377 0.897358L0.0243302 1.10265ZM0.019609 35.0335C-0.172931 29.2849 1.08172 26.2758 2.63133 23.2584L4.41044 24.172C2.96891 26.979 1.84038 29.6487 2.01849 34.9665L0.019609 35.0335ZM2.63133 23.2584C3.29336 21.9693 3.76495 19.8975 3.93303 17.7754C4.10237 15.6375 3.94574 13.6732 3.51631 12.5766L5.37861 11.8473C5.97558 13.3718 6.10344 15.703 5.92679 17.9333C5.74888 20.1796 5.24398 22.5489 4.41044 24.172L2.63133 23.2584ZM3.51631 12.5766C2.99736 11.2515 2.20273 9.10297 1.50143 6.94198C0.809625 4.81028 0.175598 2.56859 0.0243302 1.10265L2.01377 0.897358C2.14047 2.12521 2.70745 4.17902 3.40376 6.32462C4.09057 8.44093 4.87116 10.5515 5.37861 11.8473L3.51631 12.5766Z" fill="#B6EBE8"/>
<path d="M3.98151 216.967C3.96302 217.519 4.3955 217.981 4.94748 217.999C5.49945 218.018 5.9619 217.585 5.98039 217.033L3.98151 216.967ZM5.97567 183.103C6.03236 182.553 5.63296 182.062 5.08359 182.005C4.53423 181.949 4.04292 182.348 3.98623 182.897L5.97567 183.103ZM5.98039 217.033C6.17293 211.285 4.91828 208.276 3.36867 205.258L1.58956 206.172C3.03109 208.979 4.15962 211.649 3.98151 216.967L5.98039 217.033ZM3.36867 205.258C2.70664 203.969 2.23505 201.897 2.06697 199.775C1.89763 197.637 2.05426 195.673 2.48369 194.577L0.621392 193.847C0.0244155 195.372 -0.103445 197.703 0.0732096 199.933C0.251125 202.18 0.756017 204.549 1.58956 206.172L3.36867 205.258ZM2.48369 194.577C3.00264 193.251 3.79727 191.103 4.49857 188.942C5.19037 186.81 5.8244 184.569 5.97567 183.103L3.98623 182.897C3.85953 184.125 3.29255 186.179 2.59624 188.325C1.90943 190.441 1.12884 192.552 0.621392 193.847L2.48369 194.577Z" fill="#B6EBE8"/>
<path d="M2.01849 416.967C2.03698 417.519 1.6045 417.981 1.05252 417.999C0.500548 418.018 0.0380964 417.585 0.019609 417.033L2.01849 416.967ZM0.0243302 383.103C-0.0323581 382.553 0.367037 382.062 0.916405 382.005C1.46577 381.949 1.95708 382.348 2.01377 382.897L0.0243302 383.103ZM0.019609 417.033C-0.172931 411.285 1.08172 408.276 2.63133 405.258L4.41044 406.172C2.96891 408.979 1.84038 411.649 2.01849 416.967L0.019609 417.033ZM2.63133 405.258C3.29336 403.969 3.76495 401.897 3.93303 399.775C4.10237 397.637 3.94574 395.673 3.51631 394.577L5.37861 393.847C5.97558 395.372 6.10344 397.703 5.92679 399.933C5.74888 402.18 5.24398 404.549 4.41044 406.172L2.63133 405.258ZM3.51631 394.577C2.99736 393.251 2.20273 391.103 1.50143 388.942C0.809625 386.81 0.175598 384.569 0.0243302 383.103L2.01377 382.897C2.14047 384.125 2.70745 386.179 3.40376 388.325C4.09057 390.441 4.87116 392.552 5.37861 393.847L3.51631 394.577Z" fill="#B6EBE8"/>
<path d="M3.98151 568.967C3.96302 569.519 4.3955 569.981 4.94748 569.999C5.49945 570.018 5.9619 569.585 5.98039 569.033L3.98151 568.967ZM5.97567 535.103C6.03236 534.553 5.63296 534.062 5.08359 534.005C4.53423 533.949 4.04292 534.348 3.98623 534.897L5.97567 535.103ZM5.98039 569.033C6.17293 563.285 4.91828 560.276 3.36867 557.258L1.58956 558.172C3.03109 560.979 4.15962 563.649 3.98151 568.967L5.98039 569.033ZM3.36867 557.258C2.70664 555.969 2.23505 553.897 2.06697 551.775C1.89763 549.637 2.05426 547.673 2.48369 546.577L0.621392 545.847C0.0244155 547.372 -0.103445 549.703 0.0732096 551.933C0.251125 554.18 0.756017 556.549 1.58956 558.172L3.36867 557.258ZM2.48369 546.577C3.00264 545.251 3.79727 543.103 4.49857 540.942C5.19037 538.81 5.8244 536.569 5.97567 535.103L3.98623 534.897C3.85953 536.125 3.29255 538.179 2.59624 540.325C1.90943 542.441 1.12884 544.552 0.621392 545.847L2.48369 546.577Z" fill="#B6EBE8"/>
<path d="M2.01849 825.967C2.03698 826.519 1.6045 826.981 1.05252 826.999C0.500548 827.018 0.0380964 826.585 0.019609 826.033L2.01849 825.967ZM0.0243302 792.103C-0.0323581 791.553 0.367037 791.062 0.916405 791.005C1.46577 790.949 1.95708 791.348 2.01377 791.897L0.0243302 792.103ZM0.019609 826.033C-0.172931 820.285 1.08172 817.276 2.63133 814.258L4.41044 815.172C2.96891 817.979 1.84038 820.649 2.01849 825.967L0.019609 826.033ZM2.63133 814.258C3.29336 812.969 3.76495 810.897 3.93303 808.775C4.10237 806.637 3.94574 804.673 3.51631 803.577L5.37861 802.847C5.97558 804.372 6.10344 806.703 5.92679 808.933C5.74888 811.18 5.24398 813.549 4.41044 815.172L2.63133 814.258ZM3.51631 803.577C2.99736 802.251 2.20273 800.103 1.50143 797.942C0.809625 795.81 0.175598 793.569 0.0243302 792.103L2.01377 791.897C2.14047 793.125 2.70745 795.179 3.40376 797.325C4.09057 799.441 4.87116 801.552 5.37861 802.847L3.51631 803.577Z" fill="#B6EBE8"/>
</svg>
