<svg width="271" height="240" viewBox="0 0 271 240" fill="none" xmlns="http://www.w3.org/2000/svg">
<path d="M146.62 144.534C151.993 144.534 157.365 144.485 162.738 144.548C165.509 144.584 167.081 145.98 167.032 148.116C166.989 150.231 165.332 151.642 162.611 151.649C153.276 151.67 143.941 151.62 134.599 151.606C132.928 151.606 131.25 151.733 129.586 151.613C127.323 151.444 125.743 149.801 125.976 147.869C126.23 145.74 127.527 144.556 129.713 144.548C135.346 144.52 140.98 144.534 146.62 144.534Z" fill="#FFD27C"/>
<path d="M146.523 164.581C142.567 164.581 138.612 164.616 134.657 164.567C131.977 164.531 130.588 163.326 130.546 161.154C130.497 158.884 131.935 157.586 134.741 157.572C142.567 157.537 150.387 157.537 158.213 157.572C161.04 157.586 162.485 158.849 162.464 161.105C162.443 163.34 160.991 164.546 158.135 164.574C154.257 164.609 150.387 164.581 146.523 164.581Z" fill="#FFD27C"/>
<path d="M132.872 138.442C132.075 127.528 127.612 118.044 121.852 109.083C118.757 104.267 115.478 99.5714 112.277 94.8262C106.348 86.0339 100.968 76.9948 98.5144 66.4962C91.1888 35.1695 115.274 5.29533 147.439 5.87349C170.896 6.30359 191.223 23.8883 194.939 47.036C196.786 58.564 194.896 69.6126 189.369 79.7728C185.089 87.6415 180.048 95.1012 175.148 102.617C169.705 110.965 164.156 119.236 161.61 129.044C160.835 132.012 160.369 135.058 159.707 138.33C141.51 138.33 151.388 138.442 132.872 138.442Z" fill="#FFD27C"/>
<path d="M270.754 222.621C270.578 223.009 270.345 223.376 270.239 223.778C267.729 233.212 260.319 239 250.561 239.007C212.494 239.029 174.435 239.014 136.369 239.014C97.95 239.014 59.5382 239.014 21.1194 239.014C8.2097 239.014 0.0239225 230.8 0.00982121 217.862C0.00277058 213.103 -0.0113307 208.344 0.0168718 203.591C0.0380237 200.736 0.954605 199.812 3.81716 199.77C6.78547 199.727 9.75378 199.763 13.0605 199.763C13.0605 198.324 13.0605 197.203 13.0605 196.089C13.0605 145.951 13.0958 95.82 13.0253 45.6819C13.0182 38.2715 15.4718 32.2642 21.5777 27.9351C25.3075 25.284 29.5519 24.3885 34.0643 24.3885C51.6838 24.4026 69.3104 24.3603 86.9299 24.4449C88.9111 24.452 90.0533 23.8385 91.2378 22.2451C113.32 -7.45285 157.478 -7.38234 179.61 22.3861C180.746 23.9161 181.86 24.452 183.728 24.4449C201.524 24.3744 219.327 24.3603 237.122 24.4167C247.367 24.452 255.228 30.572 257.245 40.0906C257.675 42.1353 257.668 44.2929 257.668 46.4011C257.689 96.2713 257.682 146.142 257.682 196.019C257.682 197.14 257.682 198.268 257.682 199.77C260.749 199.77 263.548 199.579 266.305 199.847C267.821 199.995 269.266 200.919 270.74 201.49C270.754 208.52 270.754 215.571 270.754 222.621ZM41.3194 52.6058C41.3194 94.3746 41.3194 135.833 41.3194 177.433C104.091 177.433 166.694 177.433 229.416 177.433C229.416 135.77 229.416 94.2477 229.416 52.6904C216.33 52.6904 203.434 52.6904 190.567 52.6904C190.412 55.7152 190.377 58.5355 190.095 61.3346C188.896 73.2152 183.883 83.6222 177.474 93.458C172.623 100.911 167.575 108.236 162.823 115.746C158.882 121.971 156.174 128.733 155.074 136.073C154.827 137.702 154.736 138.971 156.795 139.796C159.467 140.868 161.025 143.244 161.596 146.057C162.548 150.809 160.412 154.222 156.52 156.711C156.759 157.825 157.048 158.84 157.182 159.869C157.845 165.129 154.362 170.1 149.095 170.297C139.951 170.643 130.771 170.636 121.626 170.297C116.472 170.107 112.996 165.263 113.539 160.102C113.659 158.981 113.969 157.888 114.202 156.704C113.645 156.295 113.067 155.9 112.524 155.463C107.264 151.239 107.779 143.032 113.751 139.93C115.859 138.837 115.929 137.659 115.633 135.798C114.484 128.557 111.776 121.894 107.92 115.731C104.183 109.766 100.227 103.935 96.2932 98.0904C89.4752 87.9584 83.2495 77.5373 81.233 65.2408C80.5562 61.1161 80.401 56.8997 79.9921 52.6128C67.1811 52.6058 54.356 52.6058 41.3194 52.6058ZM85.6608 30.3112C84.8006 30.3112 84.018 30.3112 83.2354 30.3112C66.9344 30.3112 50.6263 30.2971 34.3252 30.3182C24.4614 30.3323 18.9901 35.846 18.9831 45.7383C18.976 95.9752 18.9831 146.212 18.9831 196.449C18.9831 197.394 18.9831 198.338 18.9831 199.516C96.695 199.516 174.111 199.516 251.668 199.516C251.71 198.67 251.788 197.894 251.788 197.119C251.795 146.353 251.795 95.5874 251.774 44.8217C251.774 43.5102 251.696 42.1635 251.386 40.9014C249.757 34.309 244.462 30.3535 237.115 30.3323C220.546 30.29 203.977 30.3182 187.408 30.3253C186.647 30.3253 185.885 30.4099 185.145 30.4522C186.865 35.846 188.536 41.0848 190.285 46.5773C190.983 46.5773 191.942 46.5773 192.901 46.5773C205.5 46.5773 218.107 46.5773 230.706 46.5773C234.81 46.5773 235.543 47.2824 235.543 51.2873C235.55 93.7682 235.55 136.249 235.543 178.73C235.543 182.799 234.845 183.475 230.763 183.475C167.131 183.475 103.499 183.475 39.867 183.475C35.961 183.475 35.2206 182.756 35.2206 178.864C35.2136 136.299 35.2136 93.7259 35.2206 51.1603C35.2206 47.3318 36.0103 46.5844 39.9234 46.5844C52.6145 46.5773 65.3057 46.5844 77.9968 46.5844C78.9416 46.5844 79.8864 46.5844 80.4927 46.5844C82.2483 41.0354 83.8911 35.8601 85.6608 30.3112ZM127.104 138.442C127.224 126.907 126.787 115.682 125.158 104.485C124.721 101.496 123.664 100.107 120.597 99.7332C118.665 99.4935 116.747 98.4782 115.02 97.477C111.403 95.3829 109.083 92.2876 108.646 87.9937C108.272 84.3061 110.19 80.5903 113.215 79.159C116.141 77.77 119.581 78.5386 122.303 81.4153C123.502 82.6774 124.608 84.1228 125.398 85.6669C126.597 88.0078 127.605 90.4614 128.444 92.9504C128.923 94.3676 129.551 94.9105 131.053 94.8188C133.422 94.6849 135.833 94.5368 138.181 94.8188C140.839 95.1361 141.833 94.1631 142.855 91.6953C144.407 87.9443 146.522 84.3273 148.968 81.0698C150.787 78.6514 153.805 77.7982 156.872 78.884C159.883 79.9487 161.455 82.3248 161.963 85.4131C162.682 89.7352 161.222 93.451 157.81 95.8976C155.236 97.7378 152.12 98.9717 149.074 99.9236C147.149 100.523 146.049 101.101 145.908 103.245C145.189 114.307 144.378 125.363 143.631 136.418C143.589 137.074 143.786 137.751 143.864 138.329C145.683 138.329 147.29 138.329 148.7 138.329C149.363 135.058 149.829 132.012 150.604 129.043C153.156 119.243 158.705 110.965 164.141 102.617C169.041 95.1009 174.09 87.6411 178.362 79.7724C183.89 69.6123 185.78 58.5566 183.932 47.0356C180.217 23.8879 159.883 6.29618 136.432 5.87314C104.267 5.28792 80.1825 35.1621 87.5081 66.4958C89.9617 76.9944 95.3413 86.0335 101.271 94.8259C104.472 99.5711 107.75 104.267 110.846 109.083C116.606 118.044 121.076 127.527 121.866 138.442C123.635 138.442 125.187 138.442 127.104 138.442ZM5.89004 205.77C5.89004 209.74 5.89004 213.427 5.89004 217.115C5.89004 227.797 11.2697 233.148 22.0007 233.148C97.6046 233.148 173.201 233.148 248.805 233.148C249.771 233.148 250.744 233.169 251.71 233.106C257.633 232.718 263.125 228.96 264.098 223.334C265.085 217.615 264.845 211.686 265.149 205.841C233.442 205.841 171.164 205.841 171.164 205.841L99.5999 205.77C99.5999 205.77 37.2301 205.77 5.89004 205.77ZM135.509 144.534C129.875 144.534 124.235 144.52 118.601 144.541C116.416 144.548 115.118 145.733 114.865 147.862C114.632 149.794 116.211 151.437 118.474 151.606C120.138 151.733 121.816 151.599 123.487 151.599C132.822 151.613 142.157 151.662 151.5 151.641C154.221 151.634 155.878 150.231 155.92 148.109C155.963 145.972 154.397 144.576 151.626 144.541C146.254 144.485 140.881 144.534 135.509 144.534ZM137.116 138.435C137.955 125.744 138.78 113.327 139.598 100.868C136.841 100.868 133.81 100.868 131.166 100.868C131.99 113.482 132.801 125.892 133.619 138.435C134.712 138.435 135.995 138.435 137.116 138.435ZM135.41 164.579C139.281 164.579 143.145 164.608 147.015 164.572C149.871 164.544 151.323 163.338 151.344 161.103C151.366 158.854 149.92 157.585 147.093 157.571C139.267 157.536 131.448 157.536 123.621 157.571C120.815 157.585 119.377 158.882 119.426 161.153C119.476 163.324 120.858 164.53 123.537 164.565C127.492 164.615 131.455 164.579 135.41 164.579ZM147.854 93.5285C148.115 93.7471 148.383 93.9727 148.644 94.1913C149.843 93.7118 151.098 93.324 152.24 92.7247C154.524 91.519 156.287 89.8128 156.132 86.9995C156.082 86.1746 155.532 85.0887 154.87 84.6939C154.44 84.4401 153.065 85.0041 152.677 85.5823C150.964 88.1558 149.448 90.8633 147.854 93.5285ZM121.993 94.3887C122.289 94.1067 122.578 93.8317 122.874 93.5497C121.344 90.9338 119.913 88.2545 118.235 85.7374C117.812 85.0958 116.232 84.4401 115.873 84.708C115.182 85.2227 114.505 86.5059 114.674 87.2745C114.998 88.7269 115.619 90.398 116.684 91.3357C118.178 92.6613 120.195 93.4016 121.993 94.3887Z" fill="#323232"/>
</svg>
