<svg width="77" height="57" viewBox="0 0 77 57" fill="none" xmlns="http://www.w3.org/2000/svg">
<path d="M42.1765 27.9935L38.3802 16.1829C38.1474 15.4585 38.3457 14.6647 38.892 14.1351L52.0723 1.3541C53.1643 0.295266 54.9916 0.794493 55.3935 2.26143L63.5509 32.0357C63.965 33.5474 62.5584 34.9263 61.0553 34.4822L43.5139 29.2995C42.8795 29.1121 42.3789 28.6232 42.1765 27.9935Z" fill="#FF756C"/>
<path d="M61.9273 14.4468C65.0458 14.3887 67.1668 15.7901 67.9249 18.3518C68.7159 21.0223 67.6801 23.1907 64.6803 25.0632C64.7308 25.258 64.7867 25.4734 64.8425 25.6888C65.8004 29.3824 66.7611 33.0753 67.7142 36.7685C68.0964 38.2487 67.6809 39.5167 66.5828 40.2987C65.1004 41.3539 63.0632 40.8846 62.1117 39.2956C61.9765 39.0695 61.708 38.8483 61.4585 38.7785C54.6288 36.8687 47.7977 34.9593 40.9489 33.1201C40.2832 32.9409 39.4956 33.2202 38.6692 33.2954C38.8401 33.9547 38.9579 34.4449 39.0943 34.9286C39.37 35.9016 39.2049 36.7842 38.6388 37.6221C38.5188 37.7986 38.5153 38.1169 38.572 38.3415C39.7537 42.9528 40.9559 47.5587 42.1431 52.167C42.5464 53.734 41.9732 55.1899 40.6652 55.995C38.8639 57.1048 36.4823 56.2838 35.7574 54.2967C35.6544 54.0138 35.5751 53.7201 35.4995 53.4286C34.3506 49.0042 33.2003 44.5803 32.0616 40.1533C31.962 39.7632 31.8121 39.4925 31.4195 39.3112C30.7804 39.0173 30.3361 38.5039 30.0799 37.8417C29.9909 37.613 29.8982 37.3821 29.8535 37.1435C29.6735 36.1598 29.4477 35.2832 28.2005 35.0922C27.7542 35.0235 27.3834 34.5161 26.9523 34.2526C26.7588 34.1338 26.4931 34.0495 26.2745 34.0749C25.8652 34.1248 25.4697 34.2758 25.0648 34.3667C23.8751 34.633 22.637 34.0612 22.2689 32.9073C21.7763 31.3635 21.3672 29.7856 21.0445 28.1977C20.8055 27.0228 21.5524 25.8628 22.7204 25.5974C23.7939 25.3534 24.5053 24.9672 24.9138 23.8168C25.3344 22.6288 26.4383 22.0079 27.6783 21.6942C30.5699 20.96 33.4576 20.2111 36.3394 19.4388C36.7005 19.342 37.0764 19.1335 37.3432 18.872C42.3835 13.9357 47.4093 8.98598 52.4244 4.02496C52.6198 3.83198 52.7508 3.48686 52.7627 3.20701C52.8295 1.74017 53.8741 0.46227 55.2531 0.226629C56.7715 -0.0326245 58.1479 0.734711 58.7037 2.1605C58.7987 2.40636 58.8711 2.66126 58.9376 2.91766C59.8779 6.53763 60.8167 10.158 61.7555 13.7783C61.8087 13.9897 61.865 14.2065 61.9273 14.4468ZM53.1305 5.13812C52.9637 5.28459 52.851 5.37479 52.7476 5.47665C47.9362 10.2098 43.1273 14.9469 38.3069 19.6698C38.0226 19.9483 37.9719 20.1929 38.0684 20.5651C38.9961 24.0882 39.9183 27.6144 40.8064 31.1478C40.9354 31.6632 41.1829 31.8758 41.6745 32.011C48.0931 33.7709 54.5057 35.5497 60.92 37.3232C61.0952 37.3716 61.2754 37.4031 61.5089 37.4535C58.7148 26.6727 55.9352 15.9538 53.1305 5.13812ZM58.5586 20.9871C59.7204 25.4675 60.8794 29.9486 62.0452 34.4264C62.3833 35.7241 62.7258 37.0207 63.0928 38.3094C63.3587 39.2443 64.2138 39.7559 65.1388 39.5786C66.0818 39.3982 66.7035 38.5693 66.605 37.5987C66.5781 37.3383 66.5109 37.079 66.4448 36.8241C63.8387 26.7685 61.2316 16.7147 58.6241 6.65946C58.316 5.47123 58.0108 4.28225 57.6964 3.09408C57.6384 2.87615 57.5707 2.65758 57.4757 2.45393C57.0885 1.63021 56.1282 1.21312 55.2921 1.49247C54.4001 1.79103 53.8909 2.66739 54.0847 3.58973C54.1823 4.0507 54.2862 4.51162 54.4048 4.96875C55.7878 10.3081 57.1741 15.6481 58.5586 20.9871ZM36.7928 20.6566C36.6629 20.6684 36.5872 20.6661 36.5169 20.6844C33.6126 21.4359 30.7004 22.163 27.8068 22.9556C26.1148 23.4193 25.2831 24.9516 25.7111 26.6623C26.1512 28.4199 26.6093 30.1743 27.0743 31.9254C27.5503 33.7128 29.0737 34.6125 30.8443 34.1565C33.6223 33.4423 36.3979 32.7194 39.174 31.998C39.3469 31.9532 39.516 31.8937 39.691 31.8389C38.7179 28.0805 37.7616 24.3927 36.7928 20.6566ZM33.2447 39.6745C33.2907 39.894 33.3178 40.0589 33.36 40.2216C34.4961 44.6086 35.6332 48.9937 36.7737 53.3796C36.8257 53.5803 36.8844 53.7825 36.969 53.97C37.3382 54.7906 37.991 55.2218 38.8781 55.2419C40.3325 55.2729 41.3177 53.9588 40.9396 52.4885C39.7873 48.0088 38.6204 43.5328 37.4578 39.0558C37.4213 38.9151 37.3643 38.7798 37.3094 38.622C35.9523 38.9724 34.6263 39.3162 33.2447 39.6745ZM30.7533 35.4998C30.9246 36.1606 31.0331 36.8142 31.2668 37.4197C31.5549 38.169 32.3355 38.5624 33.1108 38.3801C34.3575 38.0865 35.5999 37.7643 36.8318 37.4136C37.5441 37.2117 38.0726 36.4883 37.974 35.7821C37.8796 35.1045 37.6447 34.4461 37.4665 33.7589C35.2058 34.3452 32.9891 34.92 30.7533 35.4998ZM64.3768 23.7361C66.2704 22.9762 67.289 20.8622 66.7769 18.8575C66.2596 16.8322 64.3564 15.4869 62.2993 15.7248C62.9897 18.3869 63.6789 21.0447 64.3768 23.7361ZM24.3412 26.4327C23.9222 26.5414 23.5205 26.6268 23.1321 26.7509C22.4984 26.9544 22.1309 27.4484 22.2782 28.0888C22.6088 29.5386 22.9918 30.9795 23.4015 32.4088C23.5587 32.9544 24.0332 33.2285 24.5914 33.1682C25.066 33.1171 25.527 32.9412 25.9988 32.8189C25.4407 30.6728 24.8985 28.5821 24.3412 26.4327Z" fill="white"/>
<path d="M68.2669 14.4243C68.3571 14.157 68.3912 13.9511 68.4896 13.7818C69.2845 12.4091 70.0927 11.0456 70.8935 9.67767C71.1091 9.30904 71.3934 9.0727 71.8152 9.31828C72.2292 9.55805 72.1975 9.92435 71.9783 10.2971C71.164 11.6794 70.3649 13.0719 69.5225 14.4365C69.4013 14.6321 69.0877 14.7916 68.851 14.8076C68.6745 14.8206 68.4808 14.5737 68.2669 14.4243Z" fill="white"/>
<path d="M73.8296 17.7494C73.0809 17.9436 72.3311 18.1333 71.5854 18.333C71.1642 18.4453 70.816 18.3933 70.6984 17.9156C70.5899 17.4731 70.8574 17.2442 71.2471 17.1432C72.8151 16.7319 74.3858 16.3246 75.9564 15.9235C76.3583 15.8209 76.6934 15.9373 76.7951 16.3659C76.8973 16.796 76.6475 17.0265 76.2394 17.1292C75.4338 17.3272 74.6325 17.5412 73.8296 17.7494Z" fill="white"/>
<path d="M70.1878 21.2598C70.4739 21.3561 70.6988 21.3915 70.8826 21.4971C72.2511 22.2884 73.6099 23.0963 74.9741 23.8949C75.3376 24.1087 75.5875 24.3911 75.35 24.8138C75.0988 25.2621 74.7238 25.1967 74.3341 24.9663C72.9753 24.1584 71.6035 23.3726 70.2566 22.5445C70.054 22.4203 69.8752 22.1289 69.8438 21.8932C69.8195 21.715 70.0471 21.5011 70.1878 21.2598Z" fill="white"/>
</svg>
