<svg width="77" height="57" viewBox="0 0 77 57" fill="none" xmlns="http://www.w3.org/2000/svg">
<rect x="40.6426" y="6.2124" width="31.4277" height="12.5178" rx="1.59802" fill="#B6EBE8"/>
<mask id="path-2-outside-1_2532_20432" maskUnits="userSpaceOnUse" x="33.25" y="1.75" width="42" height="53" fill="black">
<rect fill="white" x="33.25" y="1.75" width="42" height="53"/>
<path d="M37.0338 53.7291C36.6103 53.5499 36.1536 53.4224 35.7686 53.1795C34.822 52.5821 34.3401 51.6846 34.2578 50.5721C34.2459 50.4075 34.2512 50.2402 34.2512 50.0743C34.2512 35.4895 34.2512 20.9035 34.2512 6.31873C34.2512 4.44817 35.3132 3.106 37.0378 2.798C37.2807 2.75419 37.5329 2.75153 37.7812 2.75153C48.8333 2.75021 59.884 2.74888 70.9347 2.75153C73.0642 2.75153 74.4634 4.14416 74.4648 6.26961C74.4674 20.9207 74.4674 35.5732 74.4648 50.2243C74.4648 52.0019 73.5501 53.1755 71.8109 53.6574C71.7658 53.6707 71.726 53.7052 71.6835 53.7291C60.1336 53.7291 48.5837 53.7291 37.0338 53.7291ZM73.3562 28.2901C73.3562 21.0057 73.3562 13.7213 73.3562 6.43821C73.3562 4.71634 72.5052 3.85873 70.798 3.85873C59.8468 3.85873 48.8957 3.85873 37.9445 3.85873C36.2014 3.85873 35.3597 4.70572 35.3597 6.46078C35.3597 20.9791 35.3597 35.4975 35.3597 50.0159C35.3597 51.7709 36.2027 52.6206 37.9432 52.6219C48.8771 52.6219 59.8123 52.6219 70.7462 52.6219C72.5225 52.6219 73.3562 51.7829 73.3562 49.9933C73.3562 42.758 73.3562 35.5241 73.3562 28.2901Z"/>
</mask>
<path d="M37.0338 53.7291C36.6103 53.5499 36.1536 53.4224 35.7686 53.1795C34.822 52.5821 34.3401 51.6846 34.2578 50.5721C34.2459 50.4075 34.2512 50.2402 34.2512 50.0743C34.2512 35.4895 34.2512 20.9035 34.2512 6.31873C34.2512 4.44817 35.3132 3.106 37.0378 2.798C37.2807 2.75419 37.5329 2.75153 37.7812 2.75153C48.8333 2.75021 59.884 2.74888 70.9347 2.75153C73.0642 2.75153 74.4634 4.14416 74.4648 6.26961C74.4674 20.9207 74.4674 35.5732 74.4648 50.2243C74.4648 52.0019 73.5501 53.1755 71.8109 53.6574C71.7658 53.6707 71.726 53.7052 71.6835 53.7291C60.1336 53.7291 48.5837 53.7291 37.0338 53.7291ZM73.3562 28.2901C73.3562 21.0057 73.3562 13.7213 73.3562 6.43821C73.3562 4.71634 72.5052 3.85873 70.798 3.85873C59.8468 3.85873 48.8957 3.85873 37.9445 3.85873C36.2014 3.85873 35.3597 4.70572 35.3597 6.46078C35.3597 20.9791 35.3597 35.4975 35.3597 50.0159C35.3597 51.7709 36.2027 52.6206 37.9432 52.6219C48.8771 52.6219 59.8123 52.6219 70.7462 52.6219C72.5225 52.6219 73.3562 51.7829 73.3562 49.9933C73.3562 42.758 73.3562 35.5241 73.3562 28.2901Z" fill="white"/>
<path d="M37.0338 53.7291C36.6103 53.5499 36.1536 53.4224 35.7686 53.1795C34.822 52.5821 34.3401 51.6846 34.2578 50.5721C34.2459 50.4075 34.2512 50.2402 34.2512 50.0743C34.2512 35.4895 34.2512 20.9035 34.2512 6.31873C34.2512 4.44817 35.3132 3.106 37.0378 2.798C37.2807 2.75419 37.5329 2.75153 37.7812 2.75153C48.8333 2.75021 59.884 2.74888 70.9347 2.75153C73.0642 2.75153 74.4634 4.14416 74.4648 6.26961C74.4674 20.9207 74.4674 35.5732 74.4648 50.2243C74.4648 52.0019 73.5501 53.1755 71.8109 53.6574C71.7658 53.6707 71.726 53.7052 71.6835 53.7291C60.1336 53.7291 48.5837 53.7291 37.0338 53.7291ZM73.3562 28.2901C73.3562 21.0057 73.3562 13.7213 73.3562 6.43821C73.3562 4.71634 72.5052 3.85873 70.798 3.85873C59.8468 3.85873 48.8957 3.85873 37.9445 3.85873C36.2014 3.85873 35.3597 4.70572 35.3597 6.46078C35.3597 20.9791 35.3597 35.4975 35.3597 50.0159C35.3597 51.7709 36.2027 52.6206 37.9432 52.6219C48.8771 52.6219 59.8123 52.6219 70.7462 52.6219C72.5225 52.6219 73.3562 51.7829 73.3562 49.9933C73.3562 42.758 73.3562 35.5241 73.3562 28.2901Z" stroke="white" stroke-width="0.209709" mask="url(#path-2-outside-1_2532_20432)"/>
<mask id="path-3-outside-2_2532_20432" maskUnits="userSpaceOnUse" x="37.1758" y="7.49463" width="34" height="14" fill="black">
<rect fill="white" x="37.1758" y="7.49463" width="34" height="14"/>
<path d="M54.3564 8.49995C59.0176 8.49995 63.68 8.50393 68.3411 8.49464C69.0633 8.49331 69.7311 8.63536 70.1214 9.26994C70.3511 9.64432 70.5104 10.1289 70.5157 10.5657C70.5502 13.4027 70.5409 16.2397 70.5303 19.0754C70.525 20.3698 69.7298 21.1531 68.442 21.1544C59.0521 21.1571 49.6621 21.1571 40.2722 21.1544C38.9831 21.1544 38.1892 20.3711 38.1839 19.0767C38.172 16.257 38.1746 13.4359 38.1826 10.6161C38.1866 9.2487 38.9433 8.5026 40.3213 8.50128C44.9997 8.49729 49.6781 8.50128 54.3564 8.49995ZM54.3697 9.61246C49.7418 9.61246 45.1139 9.61246 40.4846 9.61246C39.5062 9.61246 39.3004 9.82089 39.3004 10.8152C39.3004 13.5023 39.2991 16.1893 39.3004 18.8776C39.3004 19.8135 39.5327 20.0406 40.4846 20.0406C49.7405 20.0406 58.9976 20.0406 68.2535 20.0406C69.1735 20.0406 69.4125 19.8069 69.4125 18.9015C69.4138 16.1813 69.4138 13.4611 69.4125 10.7396C69.4125 9.83549 69.1801 9.61113 68.2535 9.61113C63.6256 9.61246 58.9976 9.61246 54.3697 9.61246Z"/>
</mask>
<path d="M54.3564 8.49995C59.0176 8.49995 63.68 8.50393 68.3411 8.49464C69.0633 8.49331 69.7311 8.63536 70.1214 9.26994C70.3511 9.64432 70.5104 10.1289 70.5157 10.5657C70.5502 13.4027 70.5409 16.2397 70.5303 19.0754C70.525 20.3698 69.7298 21.1531 68.442 21.1544C59.0521 21.1571 49.6621 21.1571 40.2722 21.1544C38.9831 21.1544 38.1892 20.3711 38.1839 19.0767C38.172 16.257 38.1746 13.4359 38.1826 10.6161C38.1866 9.2487 38.9433 8.5026 40.3213 8.50128C44.9997 8.49729 49.6781 8.50128 54.3564 8.49995ZM54.3697 9.61246C49.7418 9.61246 45.1139 9.61246 40.4846 9.61246C39.5062 9.61246 39.3004 9.82089 39.3004 10.8152C39.3004 13.5023 39.2991 16.1893 39.3004 18.8776C39.3004 19.8135 39.5327 20.0406 40.4846 20.0406C49.7405 20.0406 58.9976 20.0406 68.2535 20.0406C69.1735 20.0406 69.4125 19.8069 69.4125 18.9015C69.4138 16.1813 69.4138 13.4611 69.4125 10.7396C69.4125 9.83549 69.1801 9.61113 68.2535 9.61113C63.6256 9.61246 58.9976 9.61246 54.3697 9.61246Z" fill="white"/>
<path d="M54.3564 8.49995C59.0176 8.49995 63.68 8.50393 68.3411 8.49464C69.0633 8.49331 69.7311 8.63536 70.1214 9.26994C70.3511 9.64432 70.5104 10.1289 70.5157 10.5657C70.5502 13.4027 70.5409 16.2397 70.5303 19.0754C70.525 20.3698 69.7298 21.1531 68.442 21.1544C59.0521 21.1571 49.6621 21.1571 40.2722 21.1544C38.9831 21.1544 38.1892 20.3711 38.1839 19.0767C38.172 16.257 38.1746 13.4359 38.1826 10.6161C38.1866 9.2487 38.9433 8.5026 40.3213 8.50128C44.9997 8.49729 49.6781 8.50128 54.3564 8.49995ZM54.3697 9.61246C49.7418 9.61246 45.1139 9.61246 40.4846 9.61246C39.5062 9.61246 39.3004 9.82089 39.3004 10.8152C39.3004 13.5023 39.2991 16.1893 39.3004 18.8776C39.3004 19.8135 39.5327 20.0406 40.4846 20.0406C49.7405 20.0406 58.9976 20.0406 68.2535 20.0406C69.1735 20.0406 69.4125 19.8069 69.4125 18.9015C69.4138 16.1813 69.4138 13.4611 69.4125 10.7396C69.4125 9.83549 69.1801 9.61113 68.2535 9.61113C63.6256 9.61246 58.9976 9.61246 54.3697 9.61246Z" stroke="white" stroke-width="0.209709" mask="url(#path-3-outside-2_2532_20432)"/>
<mask id="path-4-outside-3_2532_20432" maskUnits="userSpaceOnUse" x="64.6113" y="32.5161" width="7" height="16" fill="black">
<rect fill="white" x="64.6113" y="32.5161" width="7" height="16"/>
<path d="M70.5342 40.7866C70.5342 42.8934 70.5355 45.0003 70.5329 47.1085C70.5315 47.8586 70.412 47.9781 69.6646 47.9794C68.5694 47.982 67.4741 47.9847 66.3802 47.9781C65.7788 47.9754 65.6129 47.8068 65.6129 47.2054C65.6102 42.908 65.6115 38.6107 65.6129 34.3133C65.6129 33.6827 65.7788 33.5194 66.4068 33.5181C67.5179 33.5154 68.6304 33.5154 69.7416 33.5181C70.3735 33.5194 70.5315 33.6721 70.5329 34.316C70.5368 36.4733 70.5342 38.6293 70.5342 40.7866ZM69.3872 46.8403C69.3872 42.7594 69.3872 38.7182 69.3872 34.6558C68.4937 34.6558 67.6268 34.6558 66.7466 34.6558C66.7466 38.7315 66.7466 42.7726 66.7466 46.8403C67.6294 46.8403 68.4844 46.8403 69.3872 46.8403Z"/>
</mask>
<path d="M70.5342 40.7866C70.5342 42.8934 70.5355 45.0003 70.5329 47.1085C70.5315 47.8586 70.412 47.9781 69.6646 47.9794C68.5694 47.982 67.4741 47.9847 66.3802 47.9781C65.7788 47.9754 65.6129 47.8068 65.6129 47.2054C65.6102 42.908 65.6115 38.6107 65.6129 34.3133C65.6129 33.6827 65.7788 33.5194 66.4068 33.5181C67.5179 33.5154 68.6304 33.5154 69.7416 33.5181C70.3735 33.5194 70.5315 33.6721 70.5329 34.316C70.5368 36.4733 70.5342 38.6293 70.5342 40.7866ZM69.3872 46.8403C69.3872 42.7594 69.3872 38.7182 69.3872 34.6558C68.4937 34.6558 67.6268 34.6558 66.7466 34.6558C66.7466 38.7315 66.7466 42.7726 66.7466 46.8403C67.6294 46.8403 68.4844 46.8403 69.3872 46.8403Z" fill="white"/>
<path d="M70.5342 40.7866C70.5342 42.8934 70.5355 45.0003 70.5329 47.1085C70.5315 47.8586 70.412 47.9781 69.6646 47.9794C68.5694 47.982 67.4741 47.9847 66.3802 47.9781C65.7788 47.9754 65.6129 47.8068 65.6129 47.2054C65.6102 42.908 65.6115 38.6107 65.6129 34.3133C65.6129 33.6827 65.7788 33.5194 66.4068 33.5181C67.5179 33.5154 68.6304 33.5154 69.7416 33.5181C70.3735 33.5194 70.5315 33.6721 70.5329 34.316C70.5368 36.4733 70.5342 38.6293 70.5342 40.7866ZM69.3872 46.8403C69.3872 42.7594 69.3872 38.7182 69.3872 34.6558C68.4937 34.6558 67.6268 34.6558 66.7466 34.6558C66.7466 38.7315 66.7466 42.7726 66.7466 46.8403C67.6294 46.8403 68.4844 46.8403 69.3872 46.8403Z" stroke="white" stroke-width="0.209709" mask="url(#path-4-outside-3_2532_20432)"/>
<mask id="path-5-outside-4_2532_20432" maskUnits="userSpaceOnUse" x="44.0332" y="41.4087" width="7" height="7" fill="black">
<rect fill="white" x="44.0332" y="41.4087" width="7" height="7"/>
<path d="M49.9681 45.1965C49.9681 45.8922 49.9761 46.5878 49.9654 47.2835C49.9588 47.7813 49.7703 47.9712 49.2685 47.9752C48.0936 47.9845 46.9173 47.9845 45.7411 47.9752C45.2247 47.9712 45.0428 47.8012 45.0388 47.2901C45.0282 45.8988 45.0362 44.5089 45.0348 43.1176C45.0348 42.6489 45.2645 42.4113 45.7345 42.4113C46.9107 42.4113 48.0856 42.4033 49.2618 42.4153C49.7796 42.4206 49.9615 42.6237 49.9668 43.16C49.9734 43.8398 49.9681 44.5182 49.9681 45.1965ZM46.1885 46.8334C47.082 46.8334 47.9475 46.8334 48.8277 46.8334C48.8277 45.7329 48.8277 44.6655 48.8277 43.5782C47.9329 43.5782 47.0674 43.5782 46.1885 43.5782C46.1885 44.6814 46.1885 45.7475 46.1885 46.8334Z"/>
</mask>
<path d="M49.9681 45.1965C49.9681 45.8922 49.9761 46.5878 49.9654 47.2835C49.9588 47.7813 49.7703 47.9712 49.2685 47.9752C48.0936 47.9845 46.9173 47.9845 45.7411 47.9752C45.2247 47.9712 45.0428 47.8012 45.0388 47.2901C45.0282 45.8988 45.0362 44.5089 45.0348 43.1176C45.0348 42.6489 45.2645 42.4113 45.7345 42.4113C46.9107 42.4113 48.0856 42.4033 49.2618 42.4153C49.7796 42.4206 49.9615 42.6237 49.9668 43.16C49.9734 43.8398 49.9681 44.5182 49.9681 45.1965ZM46.1885 46.8334C47.082 46.8334 47.9475 46.8334 48.8277 46.8334C48.8277 45.7329 48.8277 44.6655 48.8277 43.5782C47.9329 43.5782 47.0674 43.5782 46.1885 43.5782C46.1885 44.6814 46.1885 45.7475 46.1885 46.8334Z" fill="white"/>
<path d="M49.9681 45.1965C49.9681 45.8922 49.9761 46.5878 49.9654 47.2835C49.9588 47.7813 49.7703 47.9712 49.2685 47.9752C48.0936 47.9845 46.9173 47.9845 45.7411 47.9752C45.2247 47.9712 45.0428 47.8012 45.0388 47.2901C45.0282 45.8988 45.0362 44.5089 45.0348 43.1176C45.0348 42.6489 45.2645 42.4113 45.7345 42.4113C46.9107 42.4113 48.0856 42.4033 49.2618 42.4153C49.7796 42.4206 49.9615 42.6237 49.9668 43.16C49.9734 43.8398 49.9681 44.5182 49.9681 45.1965ZM46.1885 46.8334C47.082 46.8334 47.9475 46.8334 48.8277 46.8334C48.8277 45.7329 48.8277 44.6655 48.8277 43.5782C47.9329 43.5782 47.0674 43.5782 46.1885 43.5782C46.1885 44.6814 46.1885 45.7475 46.1885 46.8334Z" stroke="white" stroke-width="0.209709" mask="url(#path-5-outside-4_2532_20432)"/>
<mask id="path-6-outside-5_2532_20432" maskUnits="userSpaceOnUse" x="57.7461" y="41.4111" width="7" height="7" fill="black">
<rect fill="white" x="57.7461" y="41.4111" width="7" height="7"/>
<path d="M63.6775 45.2644C63.6775 45.9269 63.6854 46.5893 63.6748 47.2518C63.6655 47.8041 63.5022 47.9727 62.9619 47.9767C61.787 47.9846 60.6108 47.986 59.4345 47.9753C58.9354 47.9713 58.7522 47.7802 58.7495 47.273C58.7429 45.8817 58.7482 44.4918 58.7469 43.1005C58.7469 42.6518 58.9699 42.4181 59.412 42.4154C60.6041 42.4088 61.7963 42.4115 62.9885 42.4128C63.4611 42.4128 63.6801 42.6624 63.6775 43.1284C63.6748 43.8413 63.6775 44.5528 63.6775 45.2644ZM59.8939 43.5665C59.8939 44.7002 59.8939 45.7676 59.8939 46.8257C60.798 46.8257 61.6635 46.8257 62.5172 46.8257C62.5172 45.7171 62.5172 44.6498 62.5172 43.5665C61.6277 43.5665 60.7754 43.5665 59.8939 43.5665Z"/>
</mask>
<path d="M63.6775 45.2644C63.6775 45.9269 63.6854 46.5893 63.6748 47.2518C63.6655 47.8041 63.5022 47.9727 62.9619 47.9767C61.787 47.9846 60.6108 47.986 59.4345 47.9753C58.9354 47.9713 58.7522 47.7802 58.7495 47.273C58.7429 45.8817 58.7482 44.4918 58.7469 43.1005C58.7469 42.6518 58.9699 42.4181 59.412 42.4154C60.6041 42.4088 61.7963 42.4115 62.9885 42.4128C63.4611 42.4128 63.6801 42.6624 63.6775 43.1284C63.6748 43.8413 63.6775 44.5528 63.6775 45.2644ZM59.8939 43.5665C59.8939 44.7002 59.8939 45.7676 59.8939 46.8257C60.798 46.8257 61.6635 46.8257 62.5172 46.8257C62.5172 45.7171 62.5172 44.6498 62.5172 43.5665C61.6277 43.5665 60.7754 43.5665 59.8939 43.5665Z" fill="white"/>
<path d="M63.6775 45.2644C63.6775 45.9269 63.6854 46.5893 63.6748 47.2518C63.6655 47.8041 63.5022 47.9727 62.9619 47.9767C61.787 47.9846 60.6108 47.986 59.4345 47.9753C58.9354 47.9713 58.7522 47.7802 58.7495 47.273C58.7429 45.8817 58.7482 44.4918 58.7469 43.1005C58.7469 42.6518 58.9699 42.4181 59.412 42.4154C60.6041 42.4088 61.7963 42.4115 62.9885 42.4128C63.4611 42.4128 63.6801 42.6624 63.6775 43.1284C63.6748 43.8413 63.6775 44.5528 63.6775 45.2644ZM59.8939 43.5665C59.8939 44.7002 59.8939 45.7676 59.8939 46.8257C60.798 46.8257 61.6635 46.8257 62.5172 46.8257C62.5172 45.7171 62.5172 44.6498 62.5172 43.5665C61.6277 43.5665 60.7754 43.5665 59.8939 43.5665Z" stroke="white" stroke-width="0.209709" mask="url(#path-6-outside-5_2532_20432)"/>
<mask id="path-7-outside-6_2532_20432" maskUnits="userSpaceOnUse" x="50.8945" y="32.5166" width="7" height="7" fill="black">
<rect fill="white" x="50.8945" y="32.5166" width="7" height="7"/>
<path d="M56.8338 36.2982C56.8338 36.9779 56.8391 37.6563 56.8324 38.336C56.8258 38.8896 56.636 39.0808 56.081 39.0835C54.938 39.0888 53.795 39.0888 52.6519 39.0835C52.0957 39.0808 51.9032 38.8936 51.9005 38.336C51.8925 36.9779 51.8925 35.6185 51.9005 34.2604C51.9032 33.6988 52.0903 33.5209 52.6519 33.5196C53.795 33.5156 54.938 33.5156 56.081 33.5196C56.6399 33.5222 56.8258 33.7041 56.8324 34.2617C56.8391 34.9388 56.8338 35.6185 56.8338 36.2982ZM55.6867 37.9444C55.6867 36.8093 55.6867 35.738 55.6867 34.6613C54.788 34.6613 53.9224 34.6613 53.0555 34.6613C53.0555 35.7738 53.0555 36.8452 53.0555 37.9444C53.9423 37.9444 54.7959 37.9444 55.6867 37.9444Z"/>
</mask>
<path d="M56.8338 36.2982C56.8338 36.9779 56.8391 37.6563 56.8324 38.336C56.8258 38.8896 56.636 39.0808 56.081 39.0835C54.938 39.0888 53.795 39.0888 52.6519 39.0835C52.0957 39.0808 51.9032 38.8936 51.9005 38.336C51.8925 36.9779 51.8925 35.6185 51.9005 34.2604C51.9032 33.6988 52.0903 33.5209 52.6519 33.5196C53.795 33.5156 54.938 33.5156 56.081 33.5196C56.6399 33.5222 56.8258 33.7041 56.8324 34.2617C56.8391 34.9388 56.8338 35.6185 56.8338 36.2982ZM55.6867 37.9444C55.6867 36.8093 55.6867 35.738 55.6867 34.6613C54.788 34.6613 53.9224 34.6613 53.0555 34.6613C53.0555 35.7738 53.0555 36.8452 53.0555 37.9444C53.9423 37.9444 54.7959 37.9444 55.6867 37.9444Z" fill="white"/>
<path d="M56.8338 36.2982C56.8338 36.9779 56.8391 37.6563 56.8324 38.336C56.8258 38.8896 56.636 39.0808 56.081 39.0835C54.938 39.0888 53.795 39.0888 52.6519 39.0835C52.0957 39.0808 51.9032 38.8936 51.9005 38.336C51.8925 36.9779 51.8925 35.6185 51.9005 34.2604C51.9032 33.6988 52.0903 33.5209 52.6519 33.5196C53.795 33.5156 54.938 33.5156 56.081 33.5196C56.6399 33.5222 56.8258 33.7041 56.8324 34.2617C56.8391 34.9388 56.8338 35.6185 56.8338 36.2982ZM55.6867 37.9444C55.6867 36.8093 55.6867 35.738 55.6867 34.6613C54.788 34.6613 53.9224 34.6613 53.0555 34.6613C53.0555 35.7738 53.0555 36.8452 53.0555 37.9444C53.9423 37.9444 54.7959 37.9444 55.6867 37.9444Z" stroke="white" stroke-width="0.209709" mask="url(#path-7-outside-6_2532_20432)"/>
<mask id="path-8-outside-7_2532_20432" maskUnits="userSpaceOnUse" x="57.752" y="32.5142" width="7" height="7" fill="black">
<rect fill="white" x="57.752" y="32.5142" width="7" height="7"/>
<path d="M58.7543 36.3167C58.7543 35.621 58.7476 34.9254 58.7569 34.2297C58.7635 33.7053 58.956 33.5208 59.4871 33.5181C60.6474 33.5128 61.8063 33.5128 62.9666 33.5181C63.4937 33.5208 63.6849 33.704 63.6875 34.239C63.6968 35.6144 63.6968 36.9898 63.6875 38.3651C63.6835 38.8908 63.4844 39.0794 62.956 39.082C61.7957 39.0887 60.6368 39.0887 59.4764 39.082C58.9547 39.078 58.7635 38.8815 58.7569 38.3545C58.7476 37.6761 58.7543 36.9964 58.7543 36.3167ZM59.9066 34.6479C59.9066 35.7591 59.9066 36.8424 59.9066 37.9416C60.8 37.9416 61.6537 37.9416 62.5285 37.9416C62.5285 36.8278 62.5285 35.7445 62.5285 34.6479C61.6351 34.6479 60.7815 34.6479 59.9066 34.6479Z"/>
</mask>
<path d="M58.7543 36.3167C58.7543 35.621 58.7476 34.9254 58.7569 34.2297C58.7635 33.7053 58.956 33.5208 59.4871 33.5181C60.6474 33.5128 61.8063 33.5128 62.9666 33.5181C63.4937 33.5208 63.6849 33.704 63.6875 34.239C63.6968 35.6144 63.6968 36.9898 63.6875 38.3651C63.6835 38.8908 63.4844 39.0794 62.956 39.082C61.7957 39.0887 60.6368 39.0887 59.4764 39.082C58.9547 39.078 58.7635 38.8815 58.7569 38.3545C58.7476 37.6761 58.7543 36.9964 58.7543 36.3167ZM59.9066 34.6479C59.9066 35.7591 59.9066 36.8424 59.9066 37.9416C60.8 37.9416 61.6537 37.9416 62.5285 37.9416C62.5285 36.8278 62.5285 35.7445 62.5285 34.6479C61.6351 34.6479 60.7815 34.6479 59.9066 34.6479Z" fill="white"/>
<path d="M58.7543 36.3167C58.7543 35.621 58.7476 34.9254 58.7569 34.2297C58.7635 33.7053 58.956 33.5208 59.4871 33.5181C60.6474 33.5128 61.8063 33.5128 62.9666 33.5181C63.4937 33.5208 63.6849 33.704 63.6875 34.239C63.6968 35.6144 63.6968 36.9898 63.6875 38.3651C63.6835 38.8908 63.4844 39.0794 62.956 39.082C61.7957 39.0887 60.6368 39.0887 59.4764 39.082C58.9547 39.078 58.7635 38.8815 58.7569 38.3545C58.7476 37.6761 58.7543 36.9964 58.7543 36.3167ZM59.9066 34.6479C59.9066 35.7591 59.9066 36.8424 59.9066 37.9416C60.8 37.9416 61.6537 37.9416 62.5285 37.9416C62.5285 36.8278 62.5285 35.7445 62.5285 34.6479C61.6351 34.6479 60.7815 34.6479 59.9066 34.6479Z" stroke="white" stroke-width="0.209709" mask="url(#path-8-outside-7_2532_20432)"/>
<mask id="path-9-outside-8_2532_20432" maskUnits="userSpaceOnUse" x="50.8848" y="41.4087" width="7" height="7" fill="black">
<rect fill="white" x="50.8848" y="41.4087" width="7" height="7"/>
<path d="M51.8876 45.1793C51.8876 44.5009 51.8797 43.8212 51.8903 43.1428C51.8983 42.6158 52.0854 42.4206 52.6151 42.4167C53.7741 42.406 54.9331 42.406 56.0921 42.4167C56.6231 42.4206 56.8182 42.6145 56.8222 43.1389C56.8315 44.5129 56.8315 45.8883 56.8222 47.2623C56.8196 47.792 56.6311 47.9752 56.0974 47.9779C54.9384 47.9858 53.7794 47.9858 52.6205 47.9779C52.0682 47.9739 51.8943 47.7894 51.889 47.2172C51.8823 46.5375 51.8876 45.8577 51.8876 45.1793ZM53.036 46.8295C53.9334 46.8295 54.799 46.8295 55.6739 46.8295C55.6739 45.725 55.6739 44.6576 55.6739 43.5809C54.7764 43.5809 53.9122 43.5809 53.036 43.5809C53.036 44.6908 53.036 45.7595 53.036 46.8295Z"/>
</mask>
<path d="M51.8876 45.1793C51.8876 44.5009 51.8797 43.8212 51.8903 43.1428C51.8983 42.6158 52.0854 42.4206 52.6151 42.4167C53.7741 42.406 54.9331 42.406 56.0921 42.4167C56.6231 42.4206 56.8182 42.6145 56.8222 43.1389C56.8315 44.5129 56.8315 45.8883 56.8222 47.2623C56.8196 47.792 56.6311 47.9752 56.0974 47.9779C54.9384 47.9858 53.7794 47.9858 52.6205 47.9779C52.0682 47.9739 51.8943 47.7894 51.889 47.2172C51.8823 46.5375 51.8876 45.8577 51.8876 45.1793ZM53.036 46.8295C53.9334 46.8295 54.799 46.8295 55.6739 46.8295C55.6739 45.725 55.6739 44.6576 55.6739 43.5809C54.7764 43.5809 53.9122 43.5809 53.036 43.5809C53.036 44.6908 53.036 45.7595 53.036 46.8295Z" fill="white"/>
<path d="M51.8876 45.1793C51.8876 44.5009 51.8797 43.8212 51.8903 43.1428C51.8983 42.6158 52.0854 42.4206 52.6151 42.4167C53.7741 42.406 54.9331 42.406 56.0921 42.4167C56.6231 42.4206 56.8182 42.6145 56.8222 43.1389C56.8315 44.5129 56.8315 45.8883 56.8222 47.2623C56.8196 47.792 56.6311 47.9752 56.0974 47.9779C54.9384 47.9858 53.7794 47.9858 52.6205 47.9779C52.0682 47.9739 51.8943 47.7894 51.889 47.2172C51.8823 46.5375 51.8876 45.8577 51.8876 45.1793ZM53.036 46.8295C53.9334 46.8295 54.799 46.8295 55.6739 46.8295C55.6739 45.725 55.6739 44.6576 55.6739 43.5809C54.7764 43.5809 53.9122 43.5809 53.036 43.5809C53.036 44.6908 53.036 45.7595 53.036 46.8295Z" stroke="white" stroke-width="0.209709" mask="url(#path-9-outside-8_2532_20432)"/>
<mask id="path-10-outside-9_2532_20432" maskUnits="userSpaceOnUse" x="50.8926" y="23.6079" width="7" height="7" fill="black">
<rect fill="white" x="50.8926" y="23.6079" width="7" height="7"/>
<path d="M56.834 27.4048C56.834 28.0845 56.8406 28.7655 56.8313 29.4453C56.8247 29.9763 56.6415 30.1661 56.1078 30.1701C54.9462 30.1807 53.7845 30.1807 52.6229 30.1701C52.0866 30.1648 51.9034 29.9803 51.8994 29.4466C51.8901 28.0699 51.8901 26.6919 51.9007 25.3152C51.9047 24.8041 52.0866 24.6222 52.5977 24.6169C53.7753 24.6049 54.9541 24.6049 56.1317 24.6169C56.6548 24.6222 56.826 24.8173 56.8313 25.3643C56.8393 26.044 56.834 26.7251 56.834 27.4048ZM55.6843 29.0324C55.6843 27.9026 55.6843 26.8379 55.6843 25.7732C54.7816 25.7732 53.916 25.7732 53.057 25.7732C53.057 26.8791 53.057 27.9451 53.057 29.0324C53.9478 29.0324 54.8001 29.0324 55.6843 29.0324Z"/>
</mask>
<path d="M56.834 27.4048C56.834 28.0845 56.8406 28.7655 56.8313 29.4453C56.8247 29.9763 56.6415 30.1661 56.1078 30.1701C54.9462 30.1807 53.7845 30.1807 52.6229 30.1701C52.0866 30.1648 51.9034 29.9803 51.8994 29.4466C51.8901 28.0699 51.8901 26.6919 51.9007 25.3152C51.9047 24.8041 52.0866 24.6222 52.5977 24.6169C53.7753 24.6049 54.9541 24.6049 56.1317 24.6169C56.6548 24.6222 56.826 24.8173 56.8313 25.3643C56.8393 26.044 56.834 26.7251 56.834 27.4048ZM55.6843 29.0324C55.6843 27.9026 55.6843 26.8379 55.6843 25.7732C54.7816 25.7732 53.916 25.7732 53.057 25.7732C53.057 26.8791 53.057 27.9451 53.057 29.0324C53.9478 29.0324 54.8001 29.0324 55.6843 29.0324Z" fill="white"/>
<path d="M56.834 27.4048C56.834 28.0845 56.8406 28.7655 56.8313 29.4453C56.8247 29.9763 56.6415 30.1661 56.1078 30.1701C54.9462 30.1807 53.7845 30.1807 52.6229 30.1701C52.0866 30.1648 51.9034 29.9803 51.8994 29.4466C51.8901 28.0699 51.8901 26.6919 51.9007 25.3152C51.9047 24.8041 52.0866 24.6222 52.5977 24.6169C53.7753 24.6049 54.9541 24.6049 56.1317 24.6169C56.6548 24.6222 56.826 24.8173 56.8313 25.3643C56.8393 26.044 56.834 26.7251 56.834 27.4048ZM55.6843 29.0324C55.6843 27.9026 55.6843 26.8379 55.6843 25.7732C54.7816 25.7732 53.916 25.7732 53.057 25.7732C53.057 26.8791 53.057 27.9451 53.057 29.0324C53.9478 29.0324 54.8001 29.0324 55.6843 29.0324Z" stroke="white" stroke-width="0.209709" mask="url(#path-10-outside-9_2532_20432)"/>
<mask id="path-11-outside-10_2532_20432" maskUnits="userSpaceOnUse" x="57.752" y="23.6084" width="7" height="7" fill="black">
<rect fill="white" x="57.752" y="23.6084" width="7" height="7"/>
<path d="M58.7537 27.3666C58.7537 26.7041 58.7497 26.0417 58.7551 25.3806C58.7604 24.8084 58.9303 24.6212 59.4839 24.6159C60.6429 24.6053 61.8018 24.6066 62.9595 24.6159C63.4985 24.6199 63.6817 24.8017 63.6857 25.3341C63.695 26.7081 63.695 28.0822 63.6857 29.4562C63.6817 29.9859 63.4958 30.1678 62.9568 30.1718C61.7979 30.1811 60.6389 30.1824 59.4812 30.1718C58.9303 30.1665 58.759 29.9766 58.7537 29.4031C58.7497 28.7247 58.7537 28.0463 58.7537 27.3666ZM62.5307 29.0314C62.5307 27.9096 62.5307 26.8435 62.5307 25.7748C61.6306 25.7748 60.7677 25.7748 59.9021 25.7748C59.9021 26.8834 59.9021 27.9494 59.9021 29.0314C60.7916 29.0314 61.6452 29.0314 62.5307 29.0314Z"/>
</mask>
<path d="M58.7537 27.3666C58.7537 26.7041 58.7497 26.0417 58.7551 25.3806C58.7604 24.8084 58.9303 24.6212 59.4839 24.6159C60.6429 24.6053 61.8018 24.6066 62.9595 24.6159C63.4985 24.6199 63.6817 24.8017 63.6857 25.3341C63.695 26.7081 63.695 28.0822 63.6857 29.4562C63.6817 29.9859 63.4958 30.1678 62.9568 30.1718C61.7979 30.1811 60.6389 30.1824 59.4812 30.1718C58.9303 30.1665 58.759 29.9766 58.7537 29.4031C58.7497 28.7247 58.7537 28.0463 58.7537 27.3666ZM62.5307 29.0314C62.5307 27.9096 62.5307 26.8435 62.5307 25.7748C61.6306 25.7748 60.7677 25.7748 59.9021 25.7748C59.9021 26.8834 59.9021 27.9494 59.9021 29.0314C60.7916 29.0314 61.6452 29.0314 62.5307 29.0314Z" fill="white"/>
<path d="M58.7537 27.3666C58.7537 26.7041 58.7497 26.0417 58.7551 25.3806C58.7604 24.8084 58.9303 24.6212 59.4839 24.6159C60.6429 24.6053 61.8018 24.6066 62.9595 24.6159C63.4985 24.6199 63.6817 24.8017 63.6857 25.3341C63.695 26.7081 63.695 28.0822 63.6857 29.4562C63.6817 29.9859 63.4958 30.1678 62.9568 30.1718C61.7979 30.1811 60.6389 30.1824 59.4812 30.1718C58.9303 30.1665 58.759 29.9766 58.7537 29.4031C58.7497 28.7247 58.7537 28.0463 58.7537 27.3666ZM62.5307 29.0314C62.5307 27.9096 62.5307 26.8435 62.5307 25.7748C61.6306 25.7748 60.7677 25.7748 59.9021 25.7748C59.9021 26.8834 59.9021 27.9494 59.9021 29.0314C60.7916 29.0314 61.6452 29.0314 62.5307 29.0314Z" stroke="white" stroke-width="0.209709" mask="url(#path-11-outside-10_2532_20432)"/>
<mask id="path-12-outside-11_2532_20432" maskUnits="userSpaceOnUse" x="37.1895" y="41.4111" width="7" height="7" fill="black">
<rect fill="white" x="37.1895" y="41.4111" width="7" height="7"/>
<path d="M43.1055 45.2349C43.1055 45.9133 43.1108 46.593 43.1041 47.2714C43.0988 47.7798 42.9223 47.971 42.4244 47.975C41.2323 47.9843 40.0401 47.9763 38.8493 47.979C38.3912 47.9803 38.1895 47.7493 38.1895 47.3019C38.1921 45.8947 38.1921 44.4875 38.1895 43.0802C38.1881 42.6222 38.4297 42.4138 38.8678 42.4138C40.06 42.4111 41.2522 42.4085 42.443 42.4164C42.8824 42.4191 43.1108 42.6461 43.1068 43.1001C43.1002 43.8104 43.1055 44.5233 43.1055 45.2349ZM39.3245 46.8253C40.2021 46.8253 41.0809 46.8253 41.9691 46.8253C41.9691 45.7301 41.9691 44.6627 41.9691 43.5781C41.0743 43.5781 40.2087 43.5781 39.3245 43.5781C39.3245 44.6707 39.3245 45.7274 39.3245 46.8253Z"/>
</mask>
<path d="M43.1055 45.2349C43.1055 45.9133 43.1108 46.593 43.1041 47.2714C43.0988 47.7798 42.9223 47.971 42.4244 47.975C41.2323 47.9843 40.0401 47.9763 38.8493 47.979C38.3912 47.9803 38.1895 47.7493 38.1895 47.3019C38.1921 45.8947 38.1921 44.4875 38.1895 43.0802C38.1881 42.6222 38.4297 42.4138 38.8678 42.4138C40.06 42.4111 41.2522 42.4085 42.443 42.4164C42.8824 42.4191 43.1108 42.6461 43.1068 43.1001C43.1002 43.8104 43.1055 44.5233 43.1055 45.2349ZM39.3245 46.8253C40.2021 46.8253 41.0809 46.8253 41.9691 46.8253C41.9691 45.7301 41.9691 44.6627 41.9691 43.5781C41.0743 43.5781 40.2087 43.5781 39.3245 43.5781C39.3245 44.6707 39.3245 45.7274 39.3245 46.8253Z" fill="white"/>
<path d="M43.1055 45.2349C43.1055 45.9133 43.1108 46.593 43.1041 47.2714C43.0988 47.7798 42.9223 47.971 42.4244 47.975C41.2323 47.9843 40.0401 47.9763 38.8493 47.979C38.3912 47.9803 38.1895 47.7493 38.1895 47.3019C38.1921 45.8947 38.1921 44.4875 38.1895 43.0802C38.1881 42.6222 38.4297 42.4138 38.8678 42.4138C40.06 42.4111 41.2522 42.4085 42.443 42.4164C42.8824 42.4191 43.1108 42.6461 43.1068 43.1001C43.1002 43.8104 43.1055 44.5233 43.1055 45.2349ZM39.3245 46.8253C40.2021 46.8253 41.0809 46.8253 41.9691 46.8253C41.9691 45.7301 41.9691 44.6627 41.9691 43.5781C41.0743 43.5781 40.2087 43.5781 39.3245 43.5781C39.3245 44.6707 39.3245 45.7274 39.3245 46.8253Z" stroke="white" stroke-width="0.209709" mask="url(#path-12-outside-11_2532_20432)"/>
<mask id="path-13-outside-12_2532_20432" maskUnits="userSpaceOnUse" x="44.0469" y="32.5151" width="7" height="7" fill="black">
<rect fill="white" x="44.0469" y="32.5151" width="7" height="7"/>
<path d="M45.0501 36.2539C45.0501 35.5915 45.0421 34.929 45.0514 34.2665C45.0593 33.6864 45.224 33.5204 45.7908 33.5191C46.9498 33.5138 48.1101 33.5138 49.2691 33.5191C49.7709 33.5218 49.9674 33.7103 49.97 34.2055C49.978 35.5968 49.978 36.9881 49.97 38.3794C49.9674 38.8772 49.7722 39.079 49.281 39.083C48.1048 39.0923 46.9299 39.091 45.7537 39.083C45.2518 39.079 45.0633 38.8945 45.054 38.3913C45.0408 37.6784 45.0501 36.9655 45.0501 36.2539ZM46.1944 37.9399C47.1104 37.9399 47.9628 37.9399 48.8323 37.9399C48.8323 36.8261 48.8323 35.7455 48.8323 34.6582C47.9322 34.6582 47.0666 34.6582 46.1944 34.6582C46.1944 35.7654 46.1944 36.8367 46.1944 37.9399Z"/>
</mask>
<path d="M45.0501 36.2539C45.0501 35.5915 45.0421 34.929 45.0514 34.2665C45.0593 33.6864 45.224 33.5204 45.7908 33.5191C46.9498 33.5138 48.1101 33.5138 49.2691 33.5191C49.7709 33.5218 49.9674 33.7103 49.97 34.2055C49.978 35.5968 49.978 36.9881 49.97 38.3794C49.9674 38.8772 49.7722 39.079 49.281 39.083C48.1048 39.0923 46.9299 39.091 45.7537 39.083C45.2518 39.079 45.0633 38.8945 45.054 38.3913C45.0408 37.6784 45.0501 36.9655 45.0501 36.2539ZM46.1944 37.9399C47.1104 37.9399 47.9628 37.9399 48.8323 37.9399C48.8323 36.8261 48.8323 35.7455 48.8323 34.6582C47.9322 34.6582 47.0666 34.6582 46.1944 34.6582C46.1944 35.7654 46.1944 36.8367 46.1944 37.9399Z" fill="white"/>
<path d="M45.0501 36.2539C45.0501 35.5915 45.0421 34.929 45.0514 34.2665C45.0593 33.6864 45.224 33.5204 45.7908 33.5191C46.9498 33.5138 48.1101 33.5138 49.2691 33.5191C49.7709 33.5218 49.9674 33.7103 49.97 34.2055C49.978 35.5968 49.978 36.9881 49.97 38.3794C49.9674 38.8772 49.7722 39.079 49.281 39.083C48.1048 39.0923 46.9299 39.091 45.7537 39.083C45.2518 39.079 45.0633 38.8945 45.054 38.3913C45.0408 37.6784 45.0501 36.9655 45.0501 36.2539ZM46.1944 37.9399C47.1104 37.9399 47.9628 37.9399 48.8323 37.9399C48.8323 36.8261 48.8323 35.7455 48.8323 34.6582C47.9322 34.6582 47.0666 34.6582 46.1944 34.6582C46.1944 35.7654 46.1944 36.8367 46.1944 37.9399Z" stroke="white" stroke-width="0.209709" mask="url(#path-13-outside-12_2532_20432)"/>
<mask id="path-14-outside-13_2532_20432" maskUnits="userSpaceOnUse" x="37.1992" y="32.5142" width="7" height="7" fill="black">
<rect fill="white" x="37.1992" y="32.5142" width="7" height="7"/>
<path d="M43.1128 36.3562C43.1128 37.0346 43.1194 37.7143 43.1101 38.3927C43.1035 38.8879 42.9149 39.079 42.4118 39.083C41.2356 39.091 40.0607 39.091 38.8844 39.083C38.3919 39.079 38.2074 38.8865 38.2047 38.3767C38.1981 36.9854 38.1967 35.5955 38.2047 34.2042C38.2074 33.6957 38.3892 33.5218 38.9004 33.5191C40.0766 33.5125 41.2515 33.5125 42.4277 33.5191C42.9229 33.5218 43.1048 33.7116 43.1101 34.2201C43.1181 34.9317 43.1128 35.6433 43.1128 36.3562ZM41.9803 34.6529C41.0842 34.6529 40.2186 34.6529 39.3531 34.6529C39.3531 35.7694 39.3531 36.8514 39.3531 37.9439C40.2452 37.9439 41.0988 37.9439 41.9803 37.9439C41.9803 36.846 41.9803 35.7747 41.9803 34.6529Z"/>
</mask>
<path d="M43.1128 36.3562C43.1128 37.0346 43.1194 37.7143 43.1101 38.3927C43.1035 38.8879 42.9149 39.079 42.4118 39.083C41.2356 39.091 40.0607 39.091 38.8844 39.083C38.3919 39.079 38.2074 38.8865 38.2047 38.3767C38.1981 36.9854 38.1967 35.5955 38.2047 34.2042C38.2074 33.6957 38.3892 33.5218 38.9004 33.5191C40.0766 33.5125 41.2515 33.5125 42.4277 33.5191C42.9229 33.5218 43.1048 33.7116 43.1101 34.2201C43.1181 34.9317 43.1128 35.6433 43.1128 36.3562ZM41.9803 34.6529C41.0842 34.6529 40.2186 34.6529 39.3531 34.6529C39.3531 35.7694 39.3531 36.8514 39.3531 37.9439C40.2452 37.9439 41.0988 37.9439 41.9803 37.9439C41.9803 36.846 41.9803 35.7747 41.9803 34.6529Z" fill="white"/>
<path d="M43.1128 36.3562C43.1128 37.0346 43.1194 37.7143 43.1101 38.3927C43.1035 38.8879 42.9149 39.079 42.4118 39.083C41.2356 39.091 40.0607 39.091 38.8844 39.083C38.3919 39.079 38.2074 38.8865 38.2047 38.3767C38.1981 36.9854 38.1967 35.5955 38.2047 34.2042C38.2074 33.6957 38.3892 33.5218 38.9004 33.5191C40.0766 33.5125 41.2515 33.5125 42.4277 33.5191C42.9229 33.5218 43.1048 33.7116 43.1101 34.2201C43.1181 34.9317 43.1128 35.6433 43.1128 36.3562ZM41.9803 34.6529C41.0842 34.6529 40.2186 34.6529 39.3531 34.6529C39.3531 35.7694 39.3531 36.8514 39.3531 37.9439C40.2452 37.9439 41.0988 37.9439 41.9803 37.9439C41.9803 36.846 41.9803 35.7747 41.9803 34.6529Z" stroke="white" stroke-width="0.209709" mask="url(#path-14-outside-13_2532_20432)"/>
<mask id="path-15-outside-14_2532_20432" maskUnits="userSpaceOnUse" x="37.2031" y="23.6099" width="7" height="7" fill="black">
<rect fill="white" x="37.2031" y="23.6099" width="7" height="7"/>
<path d="M43.1138 27.4089C43.1138 28.0886 43.1191 28.7697 43.1125 29.4494C43.1072 29.9751 42.9479 30.1636 42.4461 30.1689C41.2512 30.1822 40.0564 30.1742 38.8629 30.1729C38.4129 30.1729 38.2018 29.9485 38.2031 29.4932C38.2098 28.0992 38.2005 26.7053 38.2084 25.3127C38.2111 24.7856 38.3664 24.6223 38.8948 24.6183C40.0724 24.6077 41.2512 24.6064 42.4288 24.6183C42.9439 24.6236 43.1072 24.8029 43.1125 25.3193C43.1191 26.0149 43.1138 26.7119 43.1138 27.4089ZM41.9841 29.0418C41.9841 27.9253 41.9841 26.858 41.9841 25.7627C41.0933 25.7627 40.2277 25.7627 39.3568 25.7627C39.3568 26.8739 39.3568 27.9545 39.3568 29.0418C40.241 29.0418 41.0853 29.0418 41.9841 29.0418Z"/>
</mask>
<path d="M43.1138 27.4089C43.1138 28.0886 43.1191 28.7697 43.1125 29.4494C43.1072 29.9751 42.9479 30.1636 42.4461 30.1689C41.2512 30.1822 40.0564 30.1742 38.8629 30.1729C38.4129 30.1729 38.2018 29.9485 38.2031 29.4932C38.2098 28.0992 38.2005 26.7053 38.2084 25.3127C38.2111 24.7856 38.3664 24.6223 38.8948 24.6183C40.0724 24.6077 41.2512 24.6064 42.4288 24.6183C42.9439 24.6236 43.1072 24.8029 43.1125 25.3193C43.1191 26.0149 43.1138 26.7119 43.1138 27.4089ZM41.9841 29.0418C41.9841 27.9253 41.9841 26.858 41.9841 25.7627C41.0933 25.7627 40.2277 25.7627 39.3568 25.7627C39.3568 26.8739 39.3568 27.9545 39.3568 29.0418C40.241 29.0418 41.0853 29.0418 41.9841 29.0418Z" fill="white"/>
<path d="M43.1138 27.4089C43.1138 28.0886 43.1191 28.7697 43.1125 29.4494C43.1072 29.9751 42.9479 30.1636 42.4461 30.1689C41.2512 30.1822 40.0564 30.1742 38.8629 30.1729C38.4129 30.1729 38.2018 29.9485 38.2031 29.4932C38.2098 28.0992 38.2005 26.7053 38.2084 25.3127C38.2111 24.7856 38.3664 24.6223 38.8948 24.6183C40.0724 24.6077 41.2512 24.6064 42.4288 24.6183C42.9439 24.6236 43.1072 24.8029 43.1125 25.3193C43.1191 26.0149 43.1138 26.7119 43.1138 27.4089ZM41.9841 29.0418C41.9841 27.9253 41.9841 26.858 41.9841 25.7627C41.0933 25.7627 40.2277 25.7627 39.3568 25.7627C39.3568 26.8739 39.3568 27.9545 39.3568 29.0418C40.241 29.0418 41.0853 29.0418 41.9841 29.0418Z" stroke="white" stroke-width="0.209709" mask="url(#path-15-outside-14_2532_20432)"/>
<mask id="path-16-outside-15_2532_20432" maskUnits="userSpaceOnUse" x="64.6113" y="23.6104" width="7" height="7" fill="black">
<rect fill="white" x="64.6113" y="23.6104" width="7" height="7"/>
<path d="M70.5353 27.377C70.5353 28.0567 70.5419 28.7378 70.534 29.4175C70.526 30.0123 70.38 30.1676 69.7972 30.1729C68.6528 30.1822 67.5071 30.1822 66.3627 30.1729C65.7906 30.1689 65.6166 29.9897 65.6153 29.4268C65.61 28.066 65.61 26.7053 65.6153 25.3458C65.618 24.8082 65.7919 24.6223 66.3282 24.6183C67.4898 24.6077 68.6515 24.6077 69.8118 24.6183C70.3707 24.6236 70.5234 24.779 70.5313 25.3379C70.5433 26.0163 70.5353 26.696 70.5353 27.377ZM66.7491 29.0219C67.6425 29.0219 68.5068 29.0219 69.3723 29.0219C69.3723 27.9107 69.3723 26.8314 69.3723 25.7653C68.4749 25.7653 67.6226 25.7653 66.7491 25.7653C66.7491 26.8659 66.7491 27.9319 66.7491 29.0219Z"/>
</mask>
<path d="M70.5353 27.377C70.5353 28.0567 70.5419 28.7378 70.534 29.4175C70.526 30.0123 70.38 30.1676 69.7972 30.1729C68.6528 30.1822 67.5071 30.1822 66.3627 30.1729C65.7906 30.1689 65.6166 29.9897 65.6153 29.4268C65.61 28.066 65.61 26.7053 65.6153 25.3458C65.618 24.8082 65.7919 24.6223 66.3282 24.6183C67.4898 24.6077 68.6515 24.6077 69.8118 24.6183C70.3707 24.6236 70.5234 24.779 70.5313 25.3379C70.5433 26.0163 70.5353 26.696 70.5353 27.377ZM66.7491 29.0219C67.6425 29.0219 68.5068 29.0219 69.3723 29.0219C69.3723 27.9107 69.3723 26.8314 69.3723 25.7653C68.4749 25.7653 67.6226 25.7653 66.7491 25.7653C66.7491 26.8659 66.7491 27.9319 66.7491 29.0219Z" fill="white"/>
<path d="M70.5353 27.377C70.5353 28.0567 70.5419 28.7378 70.534 29.4175C70.526 30.0123 70.38 30.1676 69.7972 30.1729C68.6528 30.1822 67.5071 30.1822 66.3627 30.1729C65.7906 30.1689 65.6166 29.9897 65.6153 29.4268C65.61 28.066 65.61 26.7053 65.6153 25.3458C65.618 24.8082 65.7919 24.6223 66.3282 24.6183C67.4898 24.6077 68.6515 24.6077 69.8118 24.6183C70.3707 24.6236 70.5234 24.779 70.5313 25.3379C70.5433 26.0163 70.5353 26.696 70.5353 27.377ZM66.7491 29.0219C67.6425 29.0219 68.5068 29.0219 69.3723 29.0219C69.3723 27.9107 69.3723 26.8314 69.3723 25.7653C68.4749 25.7653 67.6226 25.7653 66.7491 25.7653C66.7491 26.8659 66.7491 27.9319 66.7491 29.0219Z" stroke="white" stroke-width="0.209709" mask="url(#path-16-outside-15_2532_20432)"/>
<mask id="path-17-outside-16_2532_20432" maskUnits="userSpaceOnUse" x="44.0469" y="23.6079" width="7" height="7" fill="black">
<rect fill="white" x="44.0469" y="23.6079" width="7" height="7"/>
<path d="M45.0497 27.3799C45.0497 26.7002 45.0418 26.0191 45.0524 25.3394C45.0617 24.7792 45.213 24.6212 45.7693 24.6159C46.9309 24.6053 48.0925 24.6053 49.2528 24.6159C49.7918 24.6212 49.9684 24.8044 49.9697 25.3407C49.975 26.7174 49.9764 28.0955 49.9697 29.4721C49.9671 29.9766 49.7865 30.1651 49.2754 30.1691C48.0979 30.1811 46.919 30.1705 45.7414 30.1744C45.2635 30.1758 45.0444 29.9408 45.0484 29.4695C45.0537 28.7738 45.0497 28.0769 45.0497 27.3799ZM48.8373 25.7642C47.9452 25.7642 47.0796 25.7642 46.2127 25.7642C46.2127 26.8754 46.2127 27.9534 46.2127 29.0221C47.1088 29.0221 47.9624 29.0221 48.8373 29.0221C48.8373 27.9242 48.8373 26.8582 48.8373 25.7642Z"/>
</mask>
<path d="M45.0497 27.3799C45.0497 26.7002 45.0418 26.0191 45.0524 25.3394C45.0617 24.7792 45.213 24.6212 45.7693 24.6159C46.9309 24.6053 48.0925 24.6053 49.2528 24.6159C49.7918 24.6212 49.9684 24.8044 49.9697 25.3407C49.975 26.7174 49.9764 28.0955 49.9697 29.4721C49.9671 29.9766 49.7865 30.1651 49.2754 30.1691C48.0979 30.1811 46.919 30.1705 45.7414 30.1744C45.2635 30.1758 45.0444 29.9408 45.0484 29.4695C45.0537 28.7738 45.0497 28.0769 45.0497 27.3799ZM48.8373 25.7642C47.9452 25.7642 47.0796 25.7642 46.2127 25.7642C46.2127 26.8754 46.2127 27.9534 46.2127 29.0221C47.1088 29.0221 47.9624 29.0221 48.8373 29.0221C48.8373 27.9242 48.8373 26.8582 48.8373 25.7642Z" fill="white"/>
<path d="M45.0497 27.3799C45.0497 26.7002 45.0418 26.0191 45.0524 25.3394C45.0617 24.7792 45.213 24.6212 45.7693 24.6159C46.9309 24.6053 48.0925 24.6053 49.2528 24.6159C49.7918 24.6212 49.9684 24.8044 49.9697 25.3407C49.975 26.7174 49.9764 28.0955 49.9697 29.4721C49.9671 29.9766 49.7865 30.1651 49.2754 30.1691C48.0979 30.1811 46.919 30.1705 45.7414 30.1744C45.2635 30.1758 45.0444 29.9408 45.0484 29.4695C45.0537 28.7738 45.0497 28.0769 45.0497 27.3799ZM48.8373 25.7642C47.9452 25.7642 47.0796 25.7642 46.2127 25.7642C46.2127 26.8754 46.2127 27.9534 46.2127 29.0221C47.1088 29.0221 47.9624 29.0221 48.8373 29.0221C48.8373 27.9242 48.8373 26.8582 48.8373 25.7642Z" stroke="white" stroke-width="0.209709" mask="url(#path-17-outside-16_2532_20432)"/>
<path d="M25.7301 21.9182C25.2294 21.7904 24.7671 21.5977 24.3432 21.3403C23.9237 21.0833 23.5751 20.7848 23.2975 20.4447L23.8777 19.7781C23.9287 19.719 23.9912 19.6743 24.0653 19.644C24.1442 19.6099 24.2228 19.5974 24.301 19.6065C24.3967 19.6177 24.4949 19.6638 24.5956 19.7449C24.6968 19.8217 24.8118 19.9131 24.9404 20.0191C25.0691 20.1252 25.2173 20.2335 25.3851 20.344C25.5529 20.4546 25.756 20.5455 25.9945 20.6167L26.5778 17.7731C26.2791 17.6516 25.9843 17.5153 25.6934 17.3644C25.4068 17.2139 25.1528 17.0304 24.9313 16.8139C24.7146 16.5936 24.5493 16.3295 24.4354 16.0216C24.3215 15.7136 24.29 15.3417 24.341 14.9057C24.3789 14.5808 24.4811 14.2721 24.6474 13.9795C24.8187 13.6832 25.0446 13.428 25.3252 13.2138C25.6059 12.9996 25.9402 12.835 26.3283 12.72C26.7163 12.605 27.1508 12.5647 27.6315 12.5992L27.7976 11.7997C27.8183 11.6981 27.8725 11.6113 27.9603 11.5392C28.048 11.4671 28.1549 11.4384 28.281 11.4532L28.8745 11.5225L28.6162 12.7727C29.0686 12.8992 29.4514 13.0739 29.7648 13.2968C30.0781 13.5197 30.3452 13.761 30.5661 14.0208L30.1066 14.5586C30.0358 14.637 29.9674 14.694 29.9016 14.7296C29.8357 14.7652 29.7593 14.778 29.6723 14.7678C29.6071 14.7602 29.5311 14.7318 29.4443 14.6827C29.3623 14.6298 29.2659 14.5687 29.1549 14.4994C29.0489 14.4264 28.9298 14.3518 28.7976 14.2757C28.6655 14.1996 28.5169 14.1324 28.3518 14.0742L27.8135 16.702C28.1156 16.8326 28.4121 16.9734 28.703 17.1244C28.9987 17.2716 29.2578 17.4491 29.4804 17.6571C29.7072 17.8656 29.881 18.1134 30.0018 18.4004C30.123 18.6832 30.1602 19.0255 30.1132 19.4273C30.0668 19.8249 29.9557 20.191 29.78 20.5258C29.6048 20.8563 29.371 21.141 29.0787 21.3798C28.7912 21.6149 28.4486 21.7937 28.0508 21.9162C27.6531 22.0387 27.2087 22.0887 26.7177 22.066L26.5294 22.9994C26.5092 23.0967 26.4553 23.1814 26.3675 23.2535C26.2793 23.3298 26.1721 23.3606 26.046 23.3459L25.4525 23.2766L25.7301 21.9182ZM28.5586 19.4928C28.5776 19.3303 28.5636 19.1857 28.5167 19.0589C28.4747 18.9284 28.4048 18.8097 28.3071 18.703C28.2137 18.5967 28.0993 18.5011 27.9638 18.4159C27.8283 18.3308 27.679 18.2505 27.5159 18.1751L26.9901 20.7525C27.458 20.7464 27.8236 20.6353 28.0868 20.4191C28.3549 20.1991 28.5122 19.8903 28.5586 19.4928ZM25.8786 14.9292C25.8596 15.0917 25.8711 15.2382 25.9132 15.3687C25.9552 15.4993 26.0205 15.6196 26.1091 15.7296C26.2024 15.8358 26.3142 15.9355 26.4443 16.0287C26.575 16.1176 26.7194 16.2016 26.8777 16.2808L27.3569 13.932C27.1143 13.934 26.9039 13.9614 26.7259 14.0143C26.5483 14.0629 26.3992 14.1321 26.2785 14.222C26.1578 14.3119 26.0639 14.4179 25.9967 14.5401C25.9344 14.6585 25.895 14.7882 25.8786 14.9292Z" fill="white"/>
<path d="M21.4637 9.57097C21.2876 9.57625 21.118 9.55667 20.9549 9.51222C20.7932 9.46754 20.6509 9.40256 20.5279 9.31729L20.6553 9.04424C20.6664 9.0201 20.6827 8.99957 20.7041 8.98265C20.7267 8.96404 20.7513 8.95255 20.7778 8.94818C20.8102 8.94283 20.8467 8.9487 20.8873 8.96578C20.9277 8.98142 20.974 9.00055 21.0261 9.02316C21.0783 9.04578 21.137 9.06731 21.2024 9.08774C21.2678 9.10817 21.3429 9.11882 21.4277 9.11968L21.3511 8.13314C21.2418 8.12145 21.1324 8.10457 21.0229 8.0825C20.9148 8.06019 20.8143 8.024 20.7213 7.97392C20.6296 7.92215 20.5506 7.85118 20.4843 7.76102C20.418 7.67086 20.3726 7.55196 20.3483 7.40432C20.3301 7.29431 20.3345 7.18355 20.3615 7.07204C20.3897 6.95885 20.4397 6.85395 20.5114 6.75735C20.5832 6.66074 20.6773 6.57534 20.7936 6.50112C20.9099 6.42691 21.0484 6.37281 21.2092 6.33884L21.1883 6.06126C21.1855 6.02604 21.1951 5.99249 21.2171 5.96061C21.239 5.92873 21.2714 5.90927 21.3141 5.90222L21.515 5.86905L21.5481 6.30297C21.7082 6.30181 21.8501 6.323 21.9737 6.36652C22.0974 6.41005 22.2076 6.46397 22.3044 6.52828L22.2046 6.74773C22.1887 6.78008 22.1717 6.80519 22.1535 6.82307C22.1352 6.84095 22.1114 6.85232 22.082 6.85718C22.0599 6.86082 22.0323 6.85868 21.9992 6.85076C21.9674 6.84115 21.93 6.83021 21.8872 6.81796C21.8456 6.80401 21.7995 6.7908 21.7491 6.77831C21.6986 6.76582 21.6436 6.75781 21.584 6.75426L21.6551 7.66589C21.7664 7.68023 21.8768 7.69844 21.9863 7.7205C22.097 7.74088 22.1986 7.77466 22.2911 7.82184C22.3851 7.86878 22.4653 7.9336 22.5319 8.01628C22.5983 8.09751 22.6427 8.20616 22.6651 8.34222C22.6874 8.47684 22.6854 8.60726 22.6594 8.73348C22.6331 8.85826 22.5833 8.97353 22.51 9.07931C22.438 9.18339 22.3426 9.27423 22.2238 9.35182C22.105 9.42942 21.9641 9.48762 21.8011 9.52642L21.8273 9.84995C21.8299 9.88373 21.8202 9.91656 21.7982 9.94843C21.7765 9.98176 21.7443 10.0019 21.7016 10.009L21.5006 10.0422L21.4637 9.57097ZM22.162 8.51004C22.1529 8.45503 22.1347 8.40897 22.1074 8.37184C22.0813 8.33303 22.0473 8.30073 22.0052 8.27497C21.9646 8.24895 21.9181 8.22838 21.8657 8.21324C21.8133 8.1981 21.7568 8.18586 21.6963 8.17653L21.7667 9.07042C21.9194 9.02439 22.0287 8.95356 22.0946 8.85794C22.1617 8.76062 22.1842 8.64465 22.162 8.51004ZM20.8542 7.26726C20.8633 7.32227 20.8809 7.36918 20.907 7.40799C20.933 7.44681 20.9658 7.48007 21.0051 7.50777C21.0457 7.53378 21.0917 7.55593 21.1431 7.5742C21.1943 7.59103 21.2495 7.60496 21.3088 7.61599L21.2447 6.80135C21.1654 6.82485 21.099 6.85364 21.0457 6.88773C20.9921 6.92037 20.9498 6.95709 20.9187 6.99791C20.8876 7.03872 20.8668 7.0823 20.8563 7.12864C20.8471 7.17329 20.8464 7.2195 20.8542 7.26726Z" fill="white"/>
<rect x="6.78906" y="20.1216" width="24" height="2" rx="1" transform="rotate(45 6.78906 20.1216)" fill="white"/>
<rect width="6.62046" height="1.91554" rx="0.957768" transform="matrix(0.974701 0.223515 -0.484278 0.874914 17.0293 35.3359)" fill="white"/>
<rect width="6.62046" height="1.91554" rx="0.957768" transform="matrix(0.223515 0.974701 0.874914 -0.484278 20.3359 32.0298)" fill="white"/>
</svg>
