<svg width="77" height="58" viewBox="0 0 77 58" fill="none" xmlns="http://www.w3.org/2000/svg">
<circle cx="41" cy="30" r="25" fill="#9FCA78"/>
<path d="M77 31.2637C76.8573 32.307 76.7429 33.3549 76.5675 34.3938C74.7022 45.5008 66.0729 54.6652 55.1056 57.1978C40.1135 60.6609 25.3249 51.9825 21.0876 37.2326C16.6138 21.6593 26.3906 5.18091 42.1868 1.70747C43.5215 1.41467 44.8933 1.29726 46.2473 1.09512C46.4093 1.07134 46.5699 1.03121 46.7319 1C47.9194 1 49.1055 1 50.293 1C50.455 1.0327 50.6155 1.07134 50.7775 1.09661C52.2207 1.32252 53.6862 1.45777 55.1056 1.78327C66.0862 4.29955 74.7037 13.4654 76.569 24.5739C76.7429 25.6128 76.8588 26.6607 77 27.704C77 28.8901 77 30.0761 77 31.2637ZM21.2614 29.4995C21.2689 44.4738 33.5144 56.7207 48.4872 56.7296C63.4956 56.7371 75.756 44.4946 75.7619 29.4935C75.7679 14.4895 63.5165 2.23659 48.5095 2.23807C33.5054 2.23956 21.254 14.4969 21.2614 29.4995Z" fill="white"/>
<path d="M71.8676 29.4562C71.8988 42.2932 61.3848 52.8235 48.524 52.8339C35.6737 52.8443 25.1537 42.3289 25.1582 29.4785C25.1627 16.64 35.6172 6.17209 48.475 6.13196C61.315 6.09034 71.8364 16.5805 71.8676 29.4562ZM48.5166 7.37746C36.3573 7.37449 26.4572 17.2553 26.4007 29.4502C26.3443 41.5828 36.3291 51.5825 48.5077 51.5884C60.664 51.5944 70.5626 41.7136 70.6221 29.5127C70.683 17.3787 60.6982 7.38044 48.5166 7.37746Z" fill="white"/>
<path d="M50.2156 29.4385C50.2156 27.3815 50.2661 25.3215 50.2007 23.266C50.1413 21.4022 51.8342 20.6308 53.2744 21.4958C56.831 23.6301 60.4472 25.6648 64.044 27.7308C64.5775 28.0369 65.0205 28.407 65.1795 29.0283C65.3876 29.8502 65.0532 30.635 64.2521 31.1002C60.5185 33.2642 56.7865 35.4282 53.0395 37.5714C51.6677 38.3562 50.2379 37.4956 50.2215 35.889C50.1993 33.7398 50.2156 31.5891 50.2156 29.4385ZM51.4715 29.4444C51.4715 31.5386 51.4685 33.6343 51.473 35.7284C51.4745 36.6172 51.8446 36.8268 52.6174 36.3824C56.2113 34.3105 59.8036 32.2372 63.3945 30.1608C64.2134 29.6882 64.2179 29.2795 63.4123 28.8143C59.82 26.7394 56.2276 24.666 52.6353 22.5927C51.8342 22.1304 51.473 22.34 51.4715 23.2719C51.4685 25.3289 51.4715 27.3874 51.4715 29.4444Z" fill="white"/>
<path d="M34.9095 29.4832C34.9095 27.3697 34.9035 25.2562 34.9109 23.1442C34.9169 21.4067 36.3407 20.5967 37.8508 21.4662C41.461 23.5455 45.0682 25.6337 48.6799 27.7101C49.1911 28.0043 49.6445 28.3388 49.8258 28.9333C50.0933 29.8042 49.747 30.6276 48.8701 31.1374C45.9704 32.8184 43.0647 34.4905 40.162 36.1655C39.3757 36.6188 38.594 37.0781 37.8033 37.5255C36.3437 38.3503 34.9214 37.5478 34.9124 35.8801C34.9005 33.7473 34.9095 31.6145 34.9095 29.4832ZM36.1505 29.4267C36.1505 31.5209 36.149 33.6151 36.1505 35.7092C36.152 36.6099 36.5117 36.8314 37.2756 36.3914C40.9022 34.3032 44.5272 32.212 48.1493 30.1178C48.8448 29.715 48.8463 29.2498 48.1493 28.8471C44.5257 26.7529 40.9007 24.6632 37.2756 22.5735C36.5117 22.1335 36.1505 22.352 36.1505 23.2527C36.149 25.3127 36.1505 27.3697 36.1505 29.4267Z" fill="white"/>
</svg>
