<svg width="77" height="61" viewBox="0 0 77 61" fill="none" xmlns="http://www.w3.org/2000/svg">
<circle cx="41" cy="30" r="25" fill="#7687C6"/>
<path d="M46.7143 60.0348C45.6701 59.892 44.623 59.7775 43.5849 59.6035C32.266 57.7026 23.0354 48.8394 20.6408 37.5845C17.8579 24.5121 24.3324 11.3578 36.3191 5.73111C53.2304 -2.20695 73.0481 7.91903 76.5181 26.282C76.7338 27.4258 76.8423 28.5904 77 29.7446C77 30.933 77 32.12 77 33.3084C76.9688 33.4511 76.9286 33.5939 76.9063 33.7382C76.7129 35.0575 76.591 36.3917 76.3203 37.6946C74.0327 48.7502 64.5894 57.7874 53.461 59.5961C52.4034 59.7686 51.3385 59.8906 50.2765 60.0348C49.0896 60.0348 47.9012 60.0348 46.7143 60.0348ZM48.4798 4.25714C33.4961 4.25863 21.2431 16.5086 21.2297 31.4997C21.2164 46.5147 33.4797 58.7959 48.4827 58.7973C63.5007 58.7973 75.7625 46.5385 75.761 31.525C75.7595 16.5056 63.5007 4.25417 48.4798 4.25714Z" fill="white"/>
<path d="M24.5724 31.4847C24.623 18.3022 35.3633 7.58276 48.5056 7.60061C61.6911 7.61697 72.4686 18.4197 72.415 31.565C72.3615 44.7758 61.5454 55.5443 48.4253 55.4506C35.2145 55.3569 24.5234 44.6152 24.5724 31.4847ZM71.1686 31.51C71.1314 19.0013 60.9697 8.84405 48.4937 8.84702C35.9999 8.85 25.737 19.1351 25.8218 31.568C25.9066 44.1065 36.104 54.2727 48.525 54.2057C61.053 54.1373 71.2043 43.9637 71.1686 31.51Z" fill="white"/>
<path d="M40.7344 31.4699C40.7344 27.5358 40.7344 23.6018 40.7344 19.6677C40.7344 18.5135 41.1032 18.3067 42.1191 18.8943C48.9089 22.8135 55.6988 26.7327 62.4901 30.6519C62.6819 30.7634 62.8842 30.8631 63.0612 30.9955C63.4762 31.3048 63.4836 31.7615 63.0582 32.056C62.7087 32.2984 62.3265 32.4917 61.9576 32.7059C55.3448 36.524 48.7319 40.3421 42.1191 44.1601C41.9748 44.2434 41.8365 44.3416 41.6848 44.407C41.2118 44.6093 40.8221 44.3922 40.7507 43.885C40.7255 43.702 40.7373 43.5146 40.7373 43.3287C40.7344 39.3753 40.7344 35.4233 40.7344 31.4699ZM42.018 42.7843C48.5549 39.0094 54.9923 35.291 61.5114 31.5264C54.9655 27.7471 48.5237 24.0272 42.018 20.2716C42.018 27.8095 42.018 35.2434 42.018 42.7843Z" fill="white"/>
</svg>
