<svg width="146" height="132" viewBox="0 0 146 132" fill="none" xmlns="http://www.w3.org/2000/svg">
<path d="M55.3249 20V8.64H59.4529C60.6903 8.64 61.7249 8.896 62.5569 9.408C63.3889 9.90933 64.0129 10.592 64.4289 11.456C64.8449 12.3093 65.0529 13.2587 65.0529 14.304C65.0529 15.456 64.8236 16.4587 64.3649 17.312C63.9063 18.1653 63.2556 18.8267 62.4129 19.296C61.5809 19.7653 60.5943 20 59.4529 20H55.3249ZM62.8289 14.304C62.8289 13.568 62.6956 12.9227 62.4289 12.368C62.1623 11.8027 61.7783 11.3653 61.2769 11.056C60.7756 10.736 60.1676 10.576 59.4529 10.576H57.5329V18.064H59.4529C60.1783 18.064 60.7916 17.904 61.2929 17.584C61.7943 17.2533 62.1729 16.8053 62.4289 16.24C62.6956 15.664 62.8289 15.0187 62.8289 14.304ZM66.0447 17.52C66.0447 16.976 66.194 16.5013 66.4927 16.096C66.802 15.68 67.2287 15.36 67.7727 15.136C68.3167 14.912 68.9407 14.8 69.6447 14.8C69.9967 14.8 70.354 14.8267 70.7167 14.88C71.0794 14.9333 71.394 15.0187 71.6607 15.136V14.688C71.6607 14.1547 71.5007 13.744 71.1807 13.456C70.8714 13.168 70.4074 13.024 69.7887 13.024C69.33 13.024 68.8927 13.104 68.4767 13.264C68.0607 13.424 67.6234 13.6587 67.1647 13.968L66.4767 12.56C67.0314 12.1973 67.5967 11.9253 68.1727 11.744C68.7594 11.5627 69.3727 11.472 70.0127 11.472C71.2074 11.472 72.1354 11.7707 72.7967 12.368C73.4687 12.9653 73.8047 13.8187 73.8047 14.928V17.6C73.8047 17.824 73.842 17.984 73.9167 18.08C74.002 18.176 74.1354 18.2347 74.3167 18.256V20C74.1247 20.032 73.9487 20.0587 73.7887 20.08C73.6394 20.1013 73.5114 20.112 73.4047 20.112C72.978 20.112 72.6527 20.016 72.4287 19.824C72.2154 19.632 72.082 19.3973 72.0287 19.12L71.9807 18.688C71.618 19.1573 71.1647 19.52 70.6207 19.776C70.0767 20.032 69.522 20.16 68.9567 20.16C68.402 20.16 67.9007 20.048 67.4527 19.824C67.0154 19.5893 66.6687 19.2747 66.4127 18.88C66.1674 18.4747 66.0447 18.0213 66.0447 17.52ZM71.2607 17.952C71.378 17.824 71.474 17.696 71.5487 17.568C71.6234 17.44 71.6607 17.3227 71.6607 17.216V16.368C71.4047 16.2613 71.1274 16.1813 70.8287 16.128C70.53 16.064 70.2474 16.032 69.9807 16.032C69.426 16.032 68.9674 16.1547 68.6047 16.4C68.2527 16.6347 68.0767 16.9493 68.0767 17.344C68.0767 17.5573 68.1354 17.76 68.2527 17.952C68.37 18.144 68.5407 18.2987 68.7647 18.416C68.9887 18.5333 69.2554 18.592 69.5647 18.592C69.8847 18.592 70.1994 18.5333 70.5087 18.416C70.818 18.288 71.0687 18.1333 71.2607 17.952ZM75.9682 20V11.616H78.1122V20H75.9682ZM75.9682 10.448V8.32H78.1122V10.448H75.9682ZM80.1903 8.32H82.3343V17.312C82.3343 17.696 82.3983 17.9573 82.5263 18.096C82.6543 18.224 82.8303 18.288 83.0543 18.288C83.225 18.288 83.401 18.2667 83.5823 18.224C83.7636 18.1813 83.9236 18.128 84.0623 18.064L84.3503 19.696C84.0623 19.8347 83.7263 19.9413 83.3423 20.016C82.9583 20.0907 82.6116 20.128 82.3023 20.128C81.6303 20.128 81.1076 19.952 80.7343 19.6C80.3716 19.2373 80.1903 18.7253 80.1903 18.064V8.32ZM85.2142 21.632C85.4062 21.6747 85.5822 21.712 85.7422 21.744C85.9129 21.776 86.0569 21.792 86.1742 21.792C86.3769 21.792 86.5422 21.7387 86.6702 21.632C86.8089 21.536 86.9422 21.3547 87.0702 21.088C87.1982 20.832 87.3315 20.4693 87.4702 20L84.1582 11.616H86.3822L88.6382 17.808L90.6222 11.616H92.6702L89.1502 21.664C89.0222 22.0373 88.8249 22.3733 88.5582 22.672C88.3022 22.9813 87.9769 23.2213 87.5822 23.392C87.1982 23.5733 86.7662 23.664 86.2862 23.664C86.1155 23.664 85.9449 23.648 85.7742 23.616C85.6035 23.5947 85.4169 23.552 85.2142 23.488V21.632Z" fill="#070323"/>
<rect x="0.875" y="41.25" width="71.5" height="25.5" rx="12.75" fill="white"/>
<path d="M20.5574 53.988C20.5574 54.7393 20.4384 55.423 20.2004 56.039C19.9624 56.655 19.6264 57.1823 19.1924 57.621C18.7584 58.0597 18.2381 58.4003 17.6314 58.643C17.0248 58.881 16.3528 59 15.6154 59H11.8634V48.969H15.6154C16.3528 48.969 17.0248 49.0903 17.6314 49.333C18.2381 49.571 18.7584 49.9117 19.1924 50.355C19.6264 50.7937 19.9624 51.321 20.2004 51.937C20.4384 52.553 20.5574 53.2367 20.5574 53.988ZM19.1644 53.988C19.1644 53.372 19.0804 52.8213 18.9124 52.336C18.7444 51.8507 18.5064 51.44 18.1984 51.104C17.8904 50.768 17.5171 50.5113 17.0784 50.334C16.6398 50.1567 16.1521 50.068 15.6154 50.068H13.2284V57.901H15.6154C16.1521 57.901 16.6398 57.8123 17.0784 57.635C17.5171 57.4577 17.8904 57.2033 18.1984 56.872C18.5064 56.536 18.7444 56.1253 18.9124 55.64C19.0804 55.1547 19.1644 54.604 19.1644 53.988ZM25.1554 51.797C25.5801 51.797 25.9721 51.8693 26.3314 52.014C26.6908 52.154 27.0011 52.3593 27.2624 52.63C27.5238 52.896 27.7268 53.2273 27.8714 53.624C28.0208 54.016 28.0954 54.464 28.0954 54.968C28.0954 55.164 28.0744 55.2947 28.0324 55.36C27.9904 55.4253 27.9111 55.458 27.7944 55.458H23.0764C23.0858 55.906 23.1464 56.2957 23.2584 56.627C23.3704 56.9583 23.5244 57.236 23.7204 57.46C23.9164 57.6793 24.1498 57.845 24.4204 57.957C24.6911 58.0643 24.9944 58.118 25.3304 58.118C25.6431 58.118 25.9114 58.083 26.1354 58.013C26.3641 57.9383 26.5601 57.859 26.7234 57.775C26.8868 57.691 27.0221 57.614 27.1294 57.544C27.2414 57.4693 27.3371 57.432 27.4164 57.432C27.5191 57.432 27.5984 57.4717 27.6544 57.551L28.0044 58.006C27.8504 58.1927 27.6661 58.356 27.4514 58.496C27.2368 58.6313 27.0058 58.7433 26.7584 58.832C26.5158 58.9207 26.2638 58.986 26.0024 59.028C25.7411 59.0747 25.4821 59.098 25.2254 59.098C24.7354 59.098 24.2828 59.0163 23.8674 58.853C23.4568 58.685 23.0998 58.4423 22.7964 58.125C22.4978 57.803 22.2644 57.4063 22.0964 56.935C21.9284 56.4637 21.8444 55.9223 21.8444 55.311C21.8444 54.8163 21.9191 54.3543 22.0684 53.925C22.2224 53.4957 22.4418 53.1247 22.7264 52.812C23.0111 52.4947 23.3588 52.2473 23.7694 52.07C24.1801 51.888 24.6421 51.797 25.1554 51.797ZM25.1834 52.714C24.5814 52.714 24.1078 52.889 23.7624 53.239C23.4171 53.5843 23.2024 54.065 23.1184 54.681H26.9754C26.9754 54.3917 26.9358 54.128 26.8564 53.89C26.7771 53.6473 26.6604 53.4397 26.5064 53.267C26.3524 53.0897 26.1634 52.9543 25.9394 52.861C25.7201 52.763 25.4681 52.714 25.1834 52.714ZM28.7565 51.909H29.7785C29.8765 51.909 29.9582 51.9347 30.0235 51.986C30.0888 52.0373 30.1355 52.098 30.1635 52.168L31.9625 56.732C32.0278 56.9 32.0792 57.068 32.1165 57.236C32.1538 57.404 32.1888 57.5697 32.2215 57.733C32.2588 57.5697 32.2985 57.404 32.3405 57.236C32.3825 57.068 32.4362 56.9 32.5015 56.732L34.3215 52.168C34.3495 52.0933 34.3938 52.0327 34.4545 51.986C34.5198 51.9347 34.5992 51.909 34.6925 51.909H35.6655L32.7745 59H31.6475L28.7565 51.909ZM39.5858 51.797C40.0105 51.797 40.4025 51.8693 40.7618 52.014C41.1212 52.154 41.4315 52.3593 41.6928 52.63C41.9542 52.896 42.1572 53.2273 42.3018 53.624C42.4512 54.016 42.5258 54.464 42.5258 54.968C42.5258 55.164 42.5048 55.2947 42.4628 55.36C42.4208 55.4253 42.3415 55.458 42.2248 55.458H37.5068C37.5162 55.906 37.5768 56.2957 37.6888 56.627C37.8008 56.9583 37.9548 57.236 38.1508 57.46C38.3468 57.6793 38.5802 57.845 38.8508 57.957C39.1215 58.0643 39.4248 58.118 39.7608 58.118C40.0735 58.118 40.3418 58.083 40.5658 58.013C40.7945 57.9383 40.9905 57.859 41.1538 57.775C41.3172 57.691 41.4525 57.614 41.5598 57.544C41.6718 57.4693 41.7675 57.432 41.8468 57.432C41.9495 57.432 42.0288 57.4717 42.0848 57.551L42.4348 58.006C42.2808 58.1927 42.0965 58.356 41.8818 58.496C41.6672 58.6313 41.4362 58.7433 41.1888 58.832C40.9462 58.9207 40.6942 58.986 40.4328 59.028C40.1715 59.0747 39.9125 59.098 39.6558 59.098C39.1658 59.098 38.7132 59.0163 38.2978 58.853C37.8872 58.685 37.5302 58.4423 37.2268 58.125C36.9282 57.803 36.6948 57.4063 36.5268 56.935C36.3588 56.4637 36.2748 55.9223 36.2748 55.311C36.2748 54.8163 36.3495 54.3543 36.4988 53.925C36.6528 53.4957 36.8722 53.1247 37.1568 52.812C37.4415 52.4947 37.7892 52.2473 38.1998 52.07C38.6105 51.888 39.0725 51.797 39.5858 51.797ZM39.6138 52.714C39.0118 52.714 38.5382 52.889 38.1928 53.239C37.8475 53.5843 37.6328 54.065 37.5488 54.681H41.4058C41.4058 54.3917 41.3662 54.128 41.2868 53.89C41.2075 53.6473 41.0908 53.4397 40.9368 53.267C40.7828 53.0897 40.5938 52.9543 40.3698 52.861C40.1505 52.763 39.8985 52.714 39.6138 52.714ZM45.6466 48.689V59H44.4006V48.689H45.6466ZM50.8527 51.797C51.3707 51.797 51.8373 51.8833 52.2527 52.056C52.6727 52.2287 53.0273 52.4737 53.3167 52.791C53.6107 53.1083 53.8347 53.4933 53.9887 53.946C54.1473 54.394 54.2267 54.8957 54.2267 55.451C54.2267 56.011 54.1473 56.515 53.9887 56.963C53.8347 57.411 53.6107 57.7937 53.3167 58.111C53.0273 58.4283 52.6727 58.6733 52.2527 58.846C51.8373 59.014 51.3707 59.098 50.8527 59.098C50.3347 59.098 49.8657 59.014 49.4457 58.846C49.0303 58.6733 48.6757 58.4283 48.3817 58.111C48.0877 57.7937 47.8613 57.411 47.7027 56.963C47.544 56.515 47.4647 56.011 47.4647 55.451C47.4647 54.8957 47.544 54.394 47.7027 53.946C47.8613 53.4933 48.0877 53.1083 48.3817 52.791C48.6757 52.4737 49.0303 52.2287 49.4457 52.056C49.8657 51.8833 50.3347 51.797 50.8527 51.797ZM50.8527 58.125C51.5527 58.125 52.0753 57.8917 52.4207 57.425C52.766 56.9537 52.9387 56.298 52.9387 55.458C52.9387 54.6133 52.766 53.9553 52.4207 53.484C52.0753 53.0127 51.5527 52.777 50.8527 52.777C50.498 52.777 50.19 52.8377 49.9287 52.959C49.6673 53.0803 49.448 53.2553 49.2707 53.484C49.098 53.7127 48.9673 53.995 48.8787 54.331C48.7947 54.6623 48.7527 55.038 48.7527 55.458C48.7527 55.878 48.7947 56.2537 48.8787 56.585C48.9673 56.9163 49.098 57.1963 49.2707 57.425C49.448 57.649 49.6673 57.8217 49.9287 57.943C50.19 58.0643 50.498 58.125 50.8527 58.125ZM55.902 61.401V51.909H56.644C56.8213 51.909 56.9333 51.9953 56.98 52.168L57.085 53.008C57.3883 52.6393 57.7336 52.343 58.121 52.119C58.513 51.895 58.9633 51.783 59.472 51.783C59.878 51.783 60.2466 51.8623 60.578 52.021C60.9093 52.175 61.1916 52.406 61.425 52.714C61.6583 53.0173 61.838 53.3953 61.964 53.848C62.09 54.3007 62.153 54.821 62.153 55.409C62.153 55.9317 62.083 56.4193 61.943 56.872C61.803 57.32 61.6023 57.7097 61.341 58.041C61.0796 58.3677 60.7576 58.6267 60.375 58.818C59.997 59.0047 59.57 59.098 59.094 59.098C58.6553 59.098 58.2796 59.0257 57.967 58.881C57.659 58.7363 57.386 58.531 57.148 58.265V61.401H55.902ZM59.059 52.791C58.653 52.791 58.296 52.8843 57.988 53.071C57.6846 53.2577 57.4046 53.5213 57.148 53.862V57.292C57.3766 57.6 57.6263 57.817 57.897 57.943C58.1723 58.069 58.478 58.132 58.814 58.132C59.472 58.132 59.9783 57.8963 60.333 57.425C60.6876 56.9537 60.865 56.2817 60.865 55.409C60.865 54.947 60.823 54.5503 60.739 54.219C60.6596 53.8877 60.543 53.617 60.389 53.407C60.235 53.1923 60.046 53.036 59.822 52.938C59.598 52.84 59.3436 52.791 59.059 52.791Z" fill="#323232"/>
<rect x="0.875" y="41.25" width="71.5" height="25.5" rx="12.75" stroke="#323232" stroke-width="1.5"/>
<rect x="0.875" y="73.25" width="71.5" height="25.5" rx="12.75" fill="white"/>
<path d="M19.5509 85.988C19.5509 86.7393 19.4319 87.423 19.1939 88.039C18.9559 88.655 18.6199 89.1823 18.1859 89.621C17.7519 90.0597 17.2316 90.4003 16.6249 90.643C16.0182 90.881 15.3462 91 14.6089 91H10.8569V80.969H14.6089C15.3462 80.969 16.0182 81.0903 16.6249 81.333C17.2316 81.571 17.7519 81.9117 18.1859 82.355C18.6199 82.7937 18.9559 83.321 19.1939 83.937C19.4319 84.553 19.5509 85.2367 19.5509 85.988ZM18.1579 85.988C18.1579 85.372 18.0739 84.8213 17.9059 84.336C17.7379 83.8507 17.4999 83.44 17.1919 83.104C16.8839 82.768 16.5106 82.5113 16.0719 82.334C15.6332 82.1567 15.1456 82.068 14.6089 82.068H12.2219V89.901H14.6089C15.1456 89.901 15.6332 89.8123 16.0719 89.635C16.5106 89.4577 16.8839 89.2033 17.1919 88.872C17.4999 88.536 17.7379 88.1253 17.9059 87.64C18.0739 87.1547 18.1579 86.604 18.1579 85.988ZM24.1489 83.797C24.5736 83.797 24.9656 83.8693 25.3249 84.014C25.6843 84.154 25.9946 84.3593 26.2559 84.63C26.5173 84.896 26.7203 85.2273 26.8649 85.624C27.0143 86.016 27.0889 86.464 27.0889 86.968C27.0889 87.164 27.0679 87.2947 27.0259 87.36C26.9839 87.4253 26.9046 87.458 26.7879 87.458H22.0699C22.0793 87.906 22.1399 88.2957 22.2519 88.627C22.3639 88.9583 22.5179 89.236 22.7139 89.46C22.9099 89.6793 23.1433 89.845 23.4139 89.957C23.6846 90.0643 23.9879 90.118 24.3239 90.118C24.6366 90.118 24.9049 90.083 25.1289 90.013C25.3576 89.9383 25.5536 89.859 25.7169 89.775C25.8803 89.691 26.0156 89.614 26.1229 89.544C26.2349 89.4693 26.3306 89.432 26.4099 89.432C26.5126 89.432 26.5919 89.4717 26.6479 89.551L26.9979 90.006C26.8439 90.1927 26.6596 90.356 26.4449 90.496C26.2303 90.6313 25.9993 90.7433 25.7519 90.832C25.5093 90.9207 25.2573 90.986 24.9959 91.028C24.7346 91.0747 24.4756 91.098 24.2189 91.098C23.7289 91.098 23.2763 91.0163 22.8609 90.853C22.4503 90.685 22.0933 90.4423 21.7899 90.125C21.4913 89.803 21.2579 89.4063 21.0899 88.935C20.9219 88.4637 20.8379 87.9223 20.8379 87.311C20.8379 86.8163 20.9126 86.3543 21.0619 85.925C21.2159 85.4957 21.4353 85.1247 21.7199 84.812C22.0046 84.4947 22.3523 84.2473 22.7629 84.07C23.1736 83.888 23.6356 83.797 24.1489 83.797ZM24.1769 84.714C23.5749 84.714 23.1013 84.889 22.7559 85.239C22.4106 85.5843 22.1959 86.065 22.1119 86.681H25.9689C25.9689 86.3917 25.9293 86.128 25.8499 85.89C25.7706 85.6473 25.6539 85.4397 25.4999 85.267C25.3459 85.0897 25.1569 84.9543 24.9329 84.861C24.7136 84.763 24.4616 84.714 24.1769 84.714ZM27.75 83.909H28.772C28.87 83.909 28.9517 83.9347 29.017 83.986C29.0823 84.0373 29.129 84.098 29.157 84.168L30.956 88.732C31.0213 88.9 31.0727 89.068 31.11 89.236C31.1473 89.404 31.1823 89.5697 31.215 89.733C31.2523 89.5697 31.292 89.404 31.334 89.236C31.376 89.068 31.4297 88.9 31.495 88.732L33.315 84.168C33.343 84.0933 33.3873 84.0327 33.448 83.986C33.5133 83.9347 33.5927 83.909 33.686 83.909H34.659L31.768 91H30.641L27.75 83.909ZM45.8251 80.969V82.11H42.5841V91H41.2261V82.11H37.9711V80.969H45.8251ZM48.5253 83.797C48.95 83.797 49.342 83.8693 49.7013 84.014C50.0607 84.154 50.371 84.3593 50.6323 84.63C50.8937 84.896 51.0967 85.2273 51.2413 85.624C51.3907 86.016 51.4653 86.464 51.4653 86.968C51.4653 87.164 51.4443 87.2947 51.4023 87.36C51.3603 87.4253 51.281 87.458 51.1643 87.458H46.4463C46.4557 87.906 46.5163 88.2957 46.6283 88.627C46.7403 88.9583 46.8943 89.236 47.0903 89.46C47.2863 89.6793 47.5197 89.845 47.7903 89.957C48.061 90.0643 48.3643 90.118 48.7003 90.118C49.013 90.118 49.2813 90.083 49.5053 90.013C49.734 89.9383 49.93 89.859 50.0933 89.775C50.2567 89.691 50.392 89.614 50.4993 89.544C50.6113 89.4693 50.707 89.432 50.7863 89.432C50.889 89.432 50.9683 89.4717 51.0243 89.551L51.3743 90.006C51.2203 90.1927 51.036 90.356 50.8213 90.496C50.6067 90.6313 50.3757 90.7433 50.1283 90.832C49.8857 90.9207 49.6337 90.986 49.3723 91.028C49.111 91.0747 48.852 91.098 48.5953 91.098C48.1053 91.098 47.6527 91.0163 47.2373 90.853C46.8267 90.685 46.4697 90.4423 46.1663 90.125C45.8677 89.803 45.6343 89.4063 45.4663 88.935C45.2983 88.4637 45.2143 87.9223 45.2143 87.311C45.2143 86.8163 45.289 86.3543 45.4383 85.925C45.5923 85.4957 45.8117 85.1247 46.0963 84.812C46.381 84.4947 46.7287 84.2473 47.1393 84.07C47.55 83.888 48.012 83.797 48.5253 83.797ZM48.5533 84.714C47.9513 84.714 47.4777 84.889 47.1323 85.239C46.787 85.5843 46.5723 86.065 46.4883 86.681H50.3453C50.3453 86.3917 50.3057 86.128 50.2263 85.89C50.147 85.6473 50.0303 85.4397 49.8763 85.267C49.7223 85.0897 49.5333 84.9543 49.3093 84.861C49.09 84.763 48.838 84.714 48.5533 84.714ZM57.2601 85.078C57.2041 85.1807 57.1178 85.232 57.0011 85.232C56.9311 85.232 56.8518 85.2063 56.7631 85.155C56.6745 85.1037 56.5648 85.0477 56.4341 84.987C56.3081 84.9217 56.1565 84.8633 55.9791 84.812C55.8018 84.756 55.5918 84.728 55.3491 84.728C55.1391 84.728 54.9501 84.756 54.7821 84.812C54.6141 84.8633 54.4695 84.9357 54.3481 85.029C54.2315 85.1223 54.1405 85.232 54.0751 85.358C54.0145 85.4793 53.9841 85.6123 53.9841 85.757C53.9841 85.939 54.0355 86.0907 54.1381 86.212C54.2455 86.3333 54.3855 86.4383 54.5581 86.527C54.7308 86.6157 54.9268 86.695 55.1461 86.765C55.3655 86.8303 55.5895 86.9027 55.8181 86.982C56.0515 87.0567 56.2778 87.1407 56.4971 87.234C56.7165 87.3273 56.9125 87.444 57.0851 87.584C57.2578 87.724 57.3955 87.8967 57.4981 88.102C57.6055 88.3027 57.6591 88.5453 57.6591 88.83C57.6591 89.1567 57.6008 89.46 57.4841 89.74C57.3675 90.0153 57.1948 90.2557 56.9661 90.461C56.7375 90.6617 56.4575 90.8203 56.1261 90.937C55.7948 91.0537 55.4121 91.112 54.9781 91.112C54.4835 91.112 54.0355 91.0327 53.6341 90.874C53.2328 90.7107 52.8921 90.503 52.6121 90.251L52.9061 89.775C52.9435 89.7143 52.9878 89.6677 53.0391 89.635C53.0905 89.6023 53.1581 89.586 53.2421 89.586C53.3261 89.586 53.4148 89.6187 53.5081 89.684C53.6015 89.7493 53.7135 89.8217 53.8441 89.901C53.9795 89.9803 54.1405 90.0527 54.3271 90.118C54.5185 90.1833 54.7565 90.216 55.0411 90.216C55.2838 90.216 55.4961 90.1857 55.6781 90.125C55.8601 90.0597 56.0118 89.9733 56.1331 89.866C56.2545 89.7587 56.3431 89.635 56.3991 89.495C56.4598 89.355 56.4901 89.2057 56.4901 89.047C56.4901 88.851 56.4365 88.69 56.3291 88.564C56.2265 88.4333 56.0888 88.3237 55.9161 88.235C55.7435 88.1417 55.5451 88.0623 55.3211 87.997C55.1018 87.927 54.8755 87.8547 54.6421 87.78C54.4135 87.7053 54.1871 87.6213 53.9631 87.528C53.7438 87.43 53.5478 87.3087 53.3751 87.164C53.2025 87.0193 53.0625 86.842 52.9551 86.632C52.8525 86.4173 52.8011 86.1583 52.8011 85.855C52.8011 85.5843 52.8571 85.3253 52.9691 85.078C53.0811 84.826 53.2445 84.6067 53.4591 84.42C53.6738 84.2287 53.9375 84.077 54.2501 83.965C54.5628 83.853 54.9198 83.797 55.3211 83.797C55.7878 83.797 56.2055 83.8717 56.5741 84.021C56.9475 84.1657 57.2695 84.3663 57.5401 84.623L57.2601 85.078ZM61.5594 91.112C60.9994 91.112 60.5678 90.9557 60.2644 90.643C59.9658 90.3303 59.8164 89.88 59.8164 89.292V84.952H58.9624C58.8878 84.952 58.8248 84.931 58.7734 84.889C58.7221 84.8423 58.6964 84.7723 58.6964 84.679V84.182L59.8584 84.035L60.1454 81.844C60.1548 81.774 60.1851 81.718 60.2364 81.676C60.2878 81.6293 60.3531 81.606 60.4324 81.606H61.0624V84.049H63.0924V84.952H61.0624V89.208C61.0624 89.5067 61.1348 89.7283 61.2794 89.873C61.4241 90.0177 61.6108 90.09 61.8394 90.09C61.9701 90.09 62.0821 90.0737 62.1754 90.041C62.2734 90.0037 62.3574 89.964 62.4274 89.922C62.4974 89.88 62.5558 89.8427 62.6024 89.81C62.6538 89.7727 62.6981 89.754 62.7354 89.754C62.8008 89.754 62.8591 89.7937 62.9104 89.873L63.2744 90.468C63.0598 90.6687 62.8008 90.8273 62.4974 90.944C62.1941 91.056 61.8814 91.112 61.5594 91.112Z" fill="#323232"/>
<rect x="0.875" y="73.25" width="71.5" height="25.5" rx="12.75" stroke="#323232" stroke-width="1.5"/>
<rect x="0.875" y="105.25" width="71.5" height="25.5" rx="12.75" fill="white"/>
<path d="M10.9664 112.969H12.0514C12.1727 112.969 12.2707 112.999 12.3454 113.06C12.4201 113.121 12.4761 113.198 12.5134 113.291L15.3484 120.368C15.4137 120.527 15.4721 120.699 15.5234 120.886C15.5794 121.073 15.6331 121.266 15.6844 121.467C15.7264 121.266 15.7707 121.073 15.8174 120.886C15.8687 120.699 15.9271 120.527 15.9924 120.368L18.8134 113.291C18.8461 113.212 18.9021 113.139 18.9814 113.074C19.0607 113.004 19.1587 112.969 19.2754 112.969H20.3674L16.2794 123H15.0544L10.9664 112.969ZM25.9894 123H25.4364C25.315 123 25.217 122.981 25.1424 122.944C25.0677 122.907 25.0187 122.827 24.9954 122.706L24.8554 122.048C24.6687 122.216 24.4867 122.368 24.3094 122.503C24.132 122.634 23.9454 122.746 23.7494 122.839C23.5534 122.928 23.3434 122.995 23.1194 123.042C22.9 123.089 22.655 123.112 22.3844 123.112C22.109 123.112 21.85 123.075 21.6074 123C21.3694 122.921 21.1617 122.804 20.9844 122.65C20.807 122.496 20.6647 122.302 20.5574 122.069C20.4547 121.831 20.4034 121.551 20.4034 121.229C20.4034 120.949 20.4804 120.681 20.6344 120.424C20.7884 120.163 21.0357 119.932 21.3764 119.731C21.7217 119.53 22.172 119.367 22.7274 119.241C23.2827 119.11 23.9617 119.036 24.7644 119.017V118.464C24.7644 117.913 24.6454 117.498 24.4074 117.218C24.174 116.933 23.8264 116.791 23.3644 116.791C23.061 116.791 22.8044 116.831 22.5944 116.91C22.389 116.985 22.2094 117.071 22.0554 117.169C21.906 117.262 21.7754 117.349 21.6634 117.428C21.556 117.503 21.4487 117.54 21.3414 117.54C21.2574 117.54 21.1827 117.519 21.1174 117.477C21.0567 117.43 21.0077 117.374 20.9704 117.309L20.7464 116.91C21.1384 116.532 21.5607 116.25 22.0134 116.063C22.466 115.876 22.9677 115.783 23.5184 115.783C23.915 115.783 24.2674 115.848 24.5754 115.979C24.8834 116.11 25.1424 116.292 25.3524 116.525C25.5624 116.758 25.721 117.041 25.8284 117.372C25.9357 117.703 25.9894 118.067 25.9894 118.464V123ZM22.7554 122.237C22.9747 122.237 23.1754 122.216 23.3574 122.174C23.5394 122.127 23.7097 122.064 23.8684 121.985C24.0317 121.901 24.1857 121.801 24.3304 121.684C24.4797 121.567 24.6244 121.434 24.7644 121.285V119.808C24.1904 119.827 23.7027 119.873 23.3014 119.948C22.9 120.018 22.5734 120.111 22.3214 120.228C22.0694 120.345 21.885 120.482 21.7684 120.641C21.6564 120.8 21.6004 120.977 21.6004 121.173C21.6004 121.36 21.6307 121.521 21.6914 121.656C21.752 121.791 21.8337 121.903 21.9364 121.992C22.039 122.076 22.1604 122.139 22.3004 122.181C22.4404 122.218 22.592 122.237 22.7554 122.237ZM29.4031 112.689V123H28.1571V112.689H29.4031ZM33.1251 115.909V123H31.8791V115.909H33.1251ZM33.4051 113.683C33.4051 113.804 33.3794 113.919 33.3281 114.026C33.2814 114.129 33.2161 114.222 33.1321 114.306C33.0528 114.385 32.9594 114.448 32.8521 114.495C32.7448 114.542 32.6304 114.565 32.5091 114.565C32.3878 114.565 32.2734 114.542 32.1661 114.495C32.0634 114.448 31.9701 114.385 31.8861 114.306C31.8068 114.222 31.7438 114.129 31.6971 114.026C31.6504 113.919 31.6271 113.804 31.6271 113.683C31.6271 113.562 31.6504 113.447 31.6971 113.34C31.7438 113.228 31.8068 113.132 31.8861 113.053C31.9701 112.969 32.0634 112.904 32.1661 112.857C32.2734 112.81 32.3878 112.787 32.5091 112.787C32.6304 112.787 32.7448 112.81 32.8521 112.857C32.9594 112.904 33.0528 112.969 33.1321 113.053C33.2161 113.132 33.2814 113.228 33.3281 113.34C33.3794 113.447 33.4051 113.562 33.4051 113.683ZM40.4521 123C40.2748 123 40.1628 122.914 40.1161 122.741L40.0041 121.88C39.7008 122.249 39.3531 122.545 38.9611 122.769C38.5738 122.988 38.1281 123.098 37.6241 123.098C37.2181 123.098 36.8495 123.021 36.5181 122.867C36.1868 122.708 35.9045 122.477 35.6711 122.174C35.4378 121.871 35.2581 121.493 35.1321 121.04C35.0061 120.587 34.9431 120.067 34.9431 119.479C34.9431 118.956 35.0131 118.471 35.1531 118.023C35.2931 117.57 35.4938 117.178 35.7551 116.847C36.0211 116.516 36.3431 116.257 36.7211 116.07C37.0991 115.879 37.5285 115.783 38.0091 115.783C38.4431 115.783 38.8141 115.858 39.1221 116.007C39.4301 116.152 39.7055 116.357 39.9481 116.623V112.689H41.1941V123H40.4521ZM38.0371 122.09C38.4431 122.09 38.7978 121.997 39.1011 121.81C39.4091 121.623 39.6915 121.36 39.9481 121.019V117.589C39.7195 117.281 39.4675 117.066 39.1921 116.945C38.9215 116.819 38.6205 116.756 38.2891 116.756C37.6265 116.756 37.1178 116.992 36.7631 117.463C36.4085 117.934 36.2311 118.606 36.2311 119.479C36.2311 119.941 36.2708 120.338 36.3501 120.669C36.4295 120.996 36.5461 121.266 36.7001 121.481C36.8541 121.691 37.0431 121.845 37.2671 121.943C37.4911 122.041 37.7478 122.09 38.0371 122.09ZM48.6295 123H48.0765C47.9551 123 47.8571 122.981 47.7825 122.944C47.7078 122.907 47.6588 122.827 47.6355 122.706L47.4955 122.048C47.3088 122.216 47.1268 122.368 46.9495 122.503C46.7721 122.634 46.5855 122.746 46.3895 122.839C46.1935 122.928 45.9835 122.995 45.7595 123.042C45.5401 123.089 45.2951 123.112 45.0245 123.112C44.7491 123.112 44.4901 123.075 44.2475 123C44.0095 122.921 43.8018 122.804 43.6245 122.65C43.4471 122.496 43.3048 122.302 43.1975 122.069C43.0948 121.831 43.0435 121.551 43.0435 121.229C43.0435 120.949 43.1205 120.681 43.2745 120.424C43.4285 120.163 43.6758 119.932 44.0165 119.731C44.3618 119.53 44.8121 119.367 45.3675 119.241C45.9228 119.11 46.6018 119.036 47.4045 119.017V118.464C47.4045 117.913 47.2855 117.498 47.0475 117.218C46.8141 116.933 46.4665 116.791 46.0045 116.791C45.7011 116.791 45.4445 116.831 45.2345 116.91C45.0291 116.985 44.8495 117.071 44.6955 117.169C44.5461 117.262 44.4155 117.349 44.3035 117.428C44.1961 117.503 44.0888 117.54 43.9815 117.54C43.8975 117.54 43.8228 117.519 43.7575 117.477C43.6968 117.43 43.6478 117.374 43.6105 117.309L43.3865 116.91C43.7785 116.532 44.2008 116.25 44.6535 116.063C45.1061 115.876 45.6078 115.783 46.1585 115.783C46.5551 115.783 46.9075 115.848 47.2155 115.979C47.5235 116.11 47.7825 116.292 47.9925 116.525C48.2025 116.758 48.3611 117.041 48.4685 117.372C48.5758 117.703 48.6295 118.067 48.6295 118.464V123ZM45.3955 122.237C45.6148 122.237 45.8155 122.216 45.9975 122.174C46.1795 122.127 46.3498 122.064 46.5085 121.985C46.6718 121.901 46.8258 121.801 46.9705 121.684C47.1198 121.567 47.2645 121.434 47.4045 121.285V119.808C46.8305 119.827 46.3428 119.873 45.9415 119.948C45.5401 120.018 45.2135 120.111 44.9615 120.228C44.7095 120.345 44.5251 120.482 44.4085 120.641C44.2965 120.8 44.2405 120.977 44.2405 121.173C44.2405 121.36 44.2708 121.521 44.3315 121.656C44.3921 121.791 44.4738 121.903 44.5765 121.992C44.6791 122.076 44.8005 122.139 44.9405 122.181C45.0805 122.218 45.2321 122.237 45.3955 122.237ZM52.8062 123.112C52.2462 123.112 51.8145 122.956 51.5112 122.643C51.2125 122.33 51.0632 121.88 51.0632 121.292V116.952H50.2092C50.1345 116.952 50.0715 116.931 50.0202 116.889C49.9688 116.842 49.9432 116.772 49.9432 116.679V116.182L51.1052 116.035L51.3922 113.844C51.4015 113.774 51.4318 113.718 51.4832 113.676C51.5345 113.629 51.5998 113.606 51.6792 113.606H52.3092V116.049H54.3392V116.952H52.3092V121.208C52.3092 121.507 52.3815 121.728 52.5262 121.873C52.6708 122.018 52.8575 122.09 53.0862 122.09C53.2168 122.09 53.3288 122.074 53.4222 122.041C53.5202 122.004 53.6042 121.964 53.6742 121.922C53.7442 121.88 53.8025 121.843 53.8492 121.81C53.9005 121.773 53.9448 121.754 53.9822 121.754C54.0475 121.754 54.1058 121.794 54.1572 121.873L54.5212 122.468C54.3065 122.669 54.0475 122.827 53.7442 122.944C53.4408 123.056 53.1282 123.112 52.8062 123.112ZM58.8268 115.797C59.2515 115.797 59.6435 115.869 60.0028 116.014C60.3621 116.154 60.6725 116.359 60.9338 116.63C61.1951 116.896 61.3981 117.227 61.5428 117.624C61.6921 118.016 61.7668 118.464 61.7668 118.968C61.7668 119.164 61.7458 119.295 61.7038 119.36C61.6618 119.425 61.5825 119.458 61.4658 119.458H56.7478C56.7571 119.906 56.8178 120.296 56.9298 120.627C57.0418 120.958 57.1958 121.236 57.3918 121.46C57.5878 121.679 57.8211 121.845 58.0918 121.957C58.3625 122.064 58.6658 122.118 59.0018 122.118C59.3145 122.118 59.5828 122.083 59.8068 122.013C60.0355 121.938 60.2315 121.859 60.3948 121.775C60.5581 121.691 60.6935 121.614 60.8008 121.544C60.9128 121.469 61.0085 121.432 61.0878 121.432C61.1905 121.432 61.2698 121.472 61.3258 121.551L61.6758 122.006C61.5218 122.193 61.3375 122.356 61.1228 122.496C60.9081 122.631 60.6771 122.743 60.4298 122.832C60.1871 122.921 59.9351 122.986 59.6738 123.028C59.4125 123.075 59.1535 123.098 58.8968 123.098C58.4068 123.098 57.9541 123.016 57.5388 122.853C57.1281 122.685 56.7711 122.442 56.4678 122.125C56.1691 121.803 55.9358 121.406 55.7678 120.935C55.5998 120.464 55.5158 119.922 55.5158 119.311C55.5158 118.816 55.5905 118.354 55.7398 117.925C55.8938 117.496 56.1131 117.125 56.3978 116.812C56.6825 116.495 57.0301 116.247 57.4408 116.07C57.8515 115.888 58.3135 115.797 58.8268 115.797ZM58.8548 116.714C58.2528 116.714 57.7791 116.889 57.4338 117.239C57.0885 117.584 56.8738 118.065 56.7898 118.681H60.6468C60.6468 118.392 60.6071 118.128 60.5278 117.89C60.4485 117.647 60.3318 117.44 60.1778 117.267C60.0238 117.09 59.8348 116.954 59.6108 116.861C59.3915 116.763 59.1395 116.714 58.8548 116.714Z" fill="#323232"/>
<rect x="0.875" y="105.25" width="71.5" height="25.5" rx="12.75" stroke="#323232" stroke-width="1.5"/>
<g clip-path="url(#clip0_2578_21246)">
<circle cx="115.499" cy="82.3578" r="18.7319" fill="#B6EBE8"/>
<circle cx="112.682" cy="84.9594" r="18.4717" stroke="#323232" stroke-width="1.56099"/>
<path d="M85.6255 84.4391C85.6255 79.1906 87.1819 74.06 90.0978 69.696C93.0137 65.332 97.1582 61.9307 102.007 59.9222C106.856 57.9137 112.192 57.3882 117.339 58.4121C122.487 59.4361 127.216 61.9634 130.927 65.6747C134.638 69.3859 137.165 74.1143 138.189 79.262C139.213 84.4096 138.688 89.7453 136.679 94.5943C134.671 99.4433 131.269 103.588 126.905 106.504C122.541 109.42 117.411 110.976 112.162 110.976L112.162 109.256C117.071 109.256 121.869 107.8 125.95 105.073C130.031 102.346 133.211 98.4705 135.09 93.9359C136.968 89.4013 137.46 84.4116 136.502 79.5976C135.544 74.7837 133.181 70.3618 129.71 66.8912C126.24 63.4206 121.818 61.057 117.004 60.0995C112.19 59.1419 107.2 59.6334 102.666 61.5117C98.1309 63.39 94.2551 66.5708 91.5282 70.6518C88.8014 74.7328 87.3459 79.5309 87.3459 84.4391H85.6255Z" fill="#323232"/>
<path d="M115.617 107.234C115.085 107.726 111.483 109.748 111.724 110.059C112.703 111.323 114.605 111.853 115.811 112.898" stroke="#323232" stroke-width="1.56099" stroke-linecap="round"/>
<path d="M121.091 82.2472L122.151 83.5429C122.512 83.9844 123.022 84.2788 123.585 84.3709L125.237 84.6412C125.724 84.7208 126.016 85.2262 125.841 85.6874L125.249 87.2534C125.047 87.787 125.047 88.3758 125.249 88.9094L125.841 90.4754C126.016 90.9366 125.724 91.442 125.237 91.5216L123.585 91.7919C123.022 91.884 122.512 92.1784 122.151 92.6199L121.091 93.9156C120.778 94.2972 120.195 94.2972 119.883 93.9156L118.822 92.6199C118.461 92.1784 117.951 91.884 117.388 91.7919L115.736 91.5216C115.249 91.442 114.958 90.9366 115.132 90.4754L115.724 88.9094C115.926 88.3758 115.926 87.787 115.724 87.2534L115.132 85.6874C114.958 85.2261 115.249 84.7208 115.736 84.6412L117.388 84.3709C117.951 84.2788 118.461 83.9844 118.822 83.5429L119.883 82.2472C120.195 81.8655 120.778 81.8655 121.091 82.2472Z" stroke="#323232" stroke-width="1.56099"/>
<path d="M112.82 72.955L113.168 75.7199C113.239 76.2859 113.514 76.8064 113.942 77.1838L116.032 79.0273C116.402 79.3535 116.38 79.9367 115.987 80.2346L113.766 81.918C113.312 82.2626 112.998 82.7613 112.885 83.3204L112.334 86.052C112.236 86.5353 111.72 86.8081 111.266 86.6168L108.698 85.5352C108.172 85.3139 107.583 85.292 107.043 85.4738L104.401 86.3618C103.934 86.5189 103.44 86.2086 103.378 85.7193L103.031 82.9544C102.96 82.3884 102.684 81.8679 102.256 81.4905L100.167 79.647C99.7969 79.3207 99.8186 78.7376 100.212 78.4397L102.432 76.7563C102.887 76.4117 103.2 75.913 103.313 75.3538L103.865 72.6223C103.962 72.1389 104.478 71.8661 104.933 72.0575L107.501 73.139C108.027 73.3604 108.615 73.3823 109.156 73.2005L111.797 72.3125C112.265 72.1553 112.759 72.4657 112.82 72.955Z" stroke="#323232" stroke-width="1.56099"/>
<path d="M107.802 88.9298L108.44 89.4763C108.873 89.8476 109.427 90.048 109.997 90.0399L110.837 90.0279C111.33 90.0209 111.706 90.4673 111.615 90.952L111.46 91.7774C111.355 92.3381 111.459 92.9178 111.751 93.4077L112.181 94.1289C112.434 94.5524 112.235 95.1011 111.77 95.2649L110.978 95.5438C110.44 95.7332 109.989 96.1125 109.711 96.6105L109.302 97.3436C109.061 97.7742 108.487 97.8765 108.112 97.5556L107.475 97.0091C107.042 96.6378 106.488 96.4374 105.918 96.4455L105.078 96.4574C104.585 96.4644 104.209 96.0181 104.3 95.5334L104.454 94.708C104.559 94.1473 104.456 93.5676 104.164 93.0777L103.734 92.3565C103.481 91.933 103.68 91.3843 104.145 91.2205L104.937 90.9416C105.475 90.7522 105.925 90.3729 106.204 89.8749L106.613 89.1417C106.854 88.7112 107.428 88.6088 107.802 88.9298Z" stroke="#323232" stroke-width="1.56099"/>
</g>
<defs>
<clipPath id="clip0_2578_21246">
<rect width="59.75" height="56.1957" fill="white" transform="translate(85.625 57.9022)"/>
</clipPath>
</defs>
</svg>
