<svg width="1369" height="46" viewBox="0 0 1369 46" fill="none" xmlns="http://www.w3.org/2000/svg">
<path d="M1365.51 12.6409C1366.05 12.5322 1366.4 12.0051 1366.29 11.4637C1366.18 10.9222 1365.66 10.5713 1365.12 10.68L1365.51 12.6409ZM1265.88 34.0037C1265.33 34.0755 1264.95 34.5777 1265.02 35.1253C1265.09 35.6729 1265.59 36.0586 1266.14 35.9868L1265.88 34.0037ZM1365.12 10.68C1348.63 13.9904 1340.98 19.4337 1333.39 25.7722L1334.67 27.3076C1342.08 21.1189 1349.43 15.8686 1365.51 12.6409L1365.12 10.68ZM1333.39 25.7722C1329.78 28.7858 1323.76 31.6534 1317.55 33.6274C1311.33 35.6062 1305.14 36.62 1301.19 36.0861L1300.92 38.068C1305.32 38.6622 1311.85 37.5393 1318.16 35.5333C1324.48 33.5226 1330.78 30.5575 1334.67 27.3076L1333.39 25.7722ZM1301.19 36.0861C1297 35.5199 1290.24 34.7331 1283.5 34.2199C1276.8 33.709 1270.02 33.4605 1265.88 34.0037L1266.14 35.9868C1270.05 35.4739 1276.63 35.7022 1283.35 36.2142C1290.04 36.7238 1296.76 37.506 1300.92 38.068L1301.19 36.0861Z" fill="#B6EBE8"/>
<path d="M1350.05 5.70309C1352.51 6.79999 1368.1 8.69497 1367.43 10.4503C1364.66 17.5902 1357.73 23.3281 1353.91 29.9571" stroke="#B6EBE8" stroke-width="2" stroke-linecap="round"/>
<path d="M305.652 38.0189C306.204 38.0286 306.66 37.5889 306.67 37.0367C306.68 36.4845 306.24 36.029 305.688 36.0192L305.652 38.0189ZM241.229 36.0205C240.678 35.9905 240.206 36.4133 240.176 36.9647C240.146 37.5162 240.569 37.9876 241.121 38.0176L241.229 36.0205ZM305.688 36.0192C295.08 35.8319 289.599 37.0405 284.002 38.5556L284.525 40.4861C289.977 39.0102 295.268 37.8355 305.652 38.0189L305.688 36.0192ZM284.002 38.5556C281.346 39.2749 277.219 39.759 273.104 39.9308C268.983 40.1029 265.008 39.9559 262.645 39.4681L262.241 41.4268C264.85 41.9654 269.023 42.1029 273.188 41.929C277.36 41.7548 281.658 41.2624 284.525 40.4861L284.002 38.5556ZM262.645 39.4681C257.692 38.4456 246.428 36.3033 241.229 36.0205L241.121 38.0176C246.141 38.2907 257.251 40.3966 262.241 41.4268L262.645 39.4681Z" fill="#B6EBE8"/>
<path d="M512.797 39.9811C513.349 39.9714 513.805 40.4111 513.814 40.9633C513.824 41.5155 513.384 41.971 512.832 41.9808L512.797 39.9811ZM448.374 41.9795C447.822 42.0095 447.351 41.5867 447.321 41.0353C447.291 40.4838 447.714 40.0124 448.265 39.9824L448.374 41.9795ZM512.832 41.9808C502.225 42.1681 496.743 40.9595 491.147 39.4444L491.67 37.5139C497.121 38.9899 502.412 40.1645 512.797 39.9811L512.832 41.9808ZM491.147 39.4444C488.49 38.7251 484.363 38.241 480.249 38.0692C476.128 37.8971 472.153 38.0441 469.79 38.5319L469.385 36.5732C471.994 36.0346 476.168 35.8971 480.332 36.071C484.504 36.2452 488.802 36.7376 491.67 37.5139L491.147 39.4444ZM469.79 38.5319C464.837 39.5545 453.573 41.6967 448.374 41.9795L448.265 39.9824C453.286 39.7093 464.395 37.6034 469.385 36.5732L469.79 38.5319Z" fill="#B6EBE8"/>
<path d="M653.018 38.0189C652.465 38.0286 652.01 37.5889 652 37.0367C651.99 36.4845 652.43 36.029 652.982 36.0192L653.018 38.0189ZM717.441 36.0205C717.992 35.9905 718.464 36.4133 718.494 36.9647C718.524 37.5162 718.101 37.9876 717.549 38.0176L717.441 36.0205ZM652.982 36.0192C663.59 35.8319 669.071 37.0405 674.668 38.5556L674.145 40.4861C668.693 39.0102 663.402 37.8355 653.018 38.0189L652.982 36.0192ZM674.668 38.5556C677.324 39.2749 681.451 39.759 685.565 39.9308C689.687 40.1029 693.662 39.9559 696.025 39.4681L696.429 41.4268C693.82 41.9654 689.647 42.1029 685.482 41.929C681.31 41.7548 677.012 41.2624 674.145 40.4861L674.668 38.5556ZM696.025 39.4681C700.978 38.4456 712.242 36.3033 717.441 36.0205L717.549 38.0176C712.529 38.2907 701.419 40.3966 696.429 41.4268L696.025 39.4681Z" fill="#B6EBE8"/>
<path d="M830.018 38.0189C829.465 38.0286 829.01 37.5889 829 37.0367C828.99 36.4845 829.43 36.029 829.982 36.0192L830.018 38.0189ZM894.441 36.0205C894.992 35.9905 895.464 36.4133 895.494 36.9647C895.524 37.5162 895.101 37.9876 894.549 38.0176L894.441 36.0205ZM829.982 36.0192C840.59 35.8319 846.071 37.0405 851.668 38.5556L851.145 40.4861C845.693 39.0102 840.402 37.8355 830.018 38.0189L829.982 36.0192ZM851.668 38.5556C854.324 39.2749 858.451 39.759 862.565 39.9308C866.687 40.1029 870.662 39.9559 873.025 39.4681L873.429 41.4268C870.82 41.9654 866.647 42.1029 862.482 41.929C858.31 41.7548 854.012 41.2624 851.145 40.4861L851.668 38.5556ZM873.025 39.4681C877.978 38.4456 889.242 36.3033 894.441 36.0205L894.549 38.0176C889.529 38.2907 878.419 40.3966 873.429 41.4268L873.025 39.4681Z" fill="#B6EBE8"/>
<path d="M1067.8 39.9811C1067.25 39.9703 1066.79 40.4092 1066.78 40.9613C1066.77 41.5135 1067.21 41.9699 1067.76 41.9808L1067.8 39.9811ZM1125.76 41.9791C1126.31 42.0125 1126.79 41.5926 1126.82 41.0413C1126.85 40.49 1126.43 40.0161 1125.88 39.9828L1125.76 41.9791ZM1067.76 41.9808C1077.33 42.1685 1082.28 40.9559 1087.33 39.4367L1086.76 37.5215C1081.86 38.9935 1077.12 40.164 1067.8 39.9811L1067.76 41.9808ZM1087.33 39.4367C1089.7 38.7235 1093.4 38.2405 1097.1 38.069C1100.8 37.8971 1104.36 38.0451 1106.46 38.5272L1106.9 36.5779C1104.53 36.0335 1100.76 35.897 1097 36.0712C1093.24 36.2457 1089.36 36.7391 1086.76 37.5215L1087.33 39.4367ZM1106.46 38.5272C1110.91 39.5489 1121.06 41.6952 1125.76 41.9791L1125.88 39.9828C1121.38 39.7108 1111.4 37.609 1106.9 36.5779L1106.46 38.5272Z" fill="#B6EBE8"/>
</svg>
