<svg width="116" height="108" viewBox="0 0 116 108" fill="none" xmlns="http://www.w3.org/2000/svg">
<g clip-path="url(#clip0_2578_21211)">
<circle cx="58" cy="47" r="36" fill="#B6EBE8"/>
<path d="M102.584 51C102.584 40.9132 99.5929 31.0528 93.9889 22.6659C88.385 14.279 80.4199 7.74221 71.1008 3.88214C61.7818 0.0220745 51.5274 -0.987896 41.6344 0.979951C31.7413 2.9478 22.654 7.80508 15.5215 14.9376C8.38906 22.07 3.53178 31.1574 1.56393 41.0504C-0.403911 50.9434 0.606059 61.1978 4.46613 70.5169C8.3262 79.8359 14.863 87.801 23.2499 93.405C31.6368 99.0089 41.4971 102 51.584 102V98.6936C42.1511 98.6936 32.93 95.8964 25.0868 90.6558C17.2437 85.4151 11.1307 77.9664 7.52084 69.2516C3.91102 60.5367 2.96653 50.9471 4.8068 41.6954C6.64706 32.4438 11.1894 23.9456 17.8595 17.2755C24.5296 10.6055 33.0278 6.06308 42.2794 4.22281C51.5311 2.38254 61.1207 3.32704 69.8355 6.93685C78.5504 10.5467 85.9991 16.6597 91.2398 24.5029C96.4804 32.346 99.2776 41.5671 99.2776 51H102.584Z" fill="#323232"/>
<circle cx="52.584" cy="52" r="35.5" stroke="#323232" stroke-width="3"/>
<path d="M86.1504 67L112.403 82.5489C114.067 83.5339 114.616 85.6808 113.631 87.3439C112.646 89.0071 110.499 89.5568 108.836 88.5718L82.5832 73.0229L86.1504 67Z" fill="#323232"/>
<path d="M45.6448 94.8083C46.666 95.7538 53.5892 99.6396 53.1264 100.237C51.2441 102.668 47.5888 103.685 45.2723 105.694" stroke="#323232" stroke-width="3" stroke-linecap="round"/>
<path d="M66.4231 46.7875C67.0232 46.054 68.1447 46.054 68.7449 46.7875L70.7824 49.2776C71.4766 50.1261 72.4567 50.6919 73.5386 50.8689L76.7138 51.3884C77.6491 51.5414 78.2099 52.5126 77.8747 53.3991L76.737 56.4087C76.3493 57.4341 76.3493 58.5659 76.737 59.5913L77.8747 62.6009C78.2099 63.4874 77.6491 64.4586 76.7138 64.6116L73.5386 65.1311C72.4567 65.3081 71.4766 65.8739 70.7824 66.7224L68.7449 69.2125C68.1447 69.946 67.0232 69.946 66.4231 69.2125L64.3856 66.7224C63.6914 65.8739 62.7113 65.3081 61.6294 65.1311L58.4542 64.6116C57.5189 64.4586 56.9581 63.4874 57.2932 62.6009L58.431 59.5913C58.8187 58.5659 58.8187 57.4341 58.431 56.4087L57.2932 53.3991C56.9581 52.5126 57.5189 51.5414 58.4542 51.3884L61.6294 50.8689C62.7113 50.6919 63.6914 50.1261 64.3856 49.2776L66.4231 46.7875Z" stroke="#323232" stroke-width="3"/>
<path d="M50.8861 27.6944C51.7845 27.3924 52.7342 27.9888 52.8524 28.9291L53.5203 34.2429C53.657 35.3306 54.1861 36.3311 55.0082 37.0563L59.0244 40.5993C59.7351 41.2263 59.6934 42.347 58.9382 42.9195L54.6702 46.1548C53.7966 46.817 53.1947 47.7755 52.9777 48.85L51.9175 54.0996C51.7299 55.0286 50.7385 55.5529 49.865 55.1851L44.9292 53.1066C43.9189 52.6811 42.7879 52.6391 41.7488 52.9885L36.6724 54.6951C35.7741 54.9971 34.8243 54.4007 34.7061 53.4603L34.0383 48.1466C33.9016 47.0588 33.3725 46.0584 32.5504 45.3332L28.5342 41.7902C27.8235 41.1632 27.8651 40.0425 28.6204 39.47L32.8883 36.2347C33.762 35.5724 34.3638 34.614 34.5808 33.5394L35.6411 28.2898C35.8287 27.3609 36.8201 26.8365 37.6935 27.2044L42.6293 29.2829C43.6397 29.7083 44.7706 29.7503 45.8097 29.401L50.8861 27.6944Z" stroke="#323232" stroke-width="3"/>
<path d="M40.9195 60.0378C41.3816 59.2104 42.4857 59.0137 43.2053 59.6305L44.4305 60.6808C45.2628 61.3943 46.327 61.7794 47.4232 61.7639L49.0368 61.7409C49.9845 61.7275 50.7069 62.5853 50.5325 63.5168L50.2355 65.1031C50.0338 66.1807 50.2323 67.2948 50.7939 68.2364L51.6206 69.6224C52.106 70.4363 51.7244 71.4909 50.8304 71.8056L49.3082 72.3415C48.2741 72.7056 47.4085 73.4346 46.8739 74.3917L46.0869 75.8007C45.6248 76.6281 44.5206 76.8248 43.8011 76.208L42.5759 75.1577C41.7435 74.4442 40.6794 74.059 39.5832 74.0746L37.9695 74.0975C37.0219 74.111 36.2995 73.2532 36.4739 72.3216L36.7709 70.7354C36.9726 69.6578 36.7741 68.5437 36.2125 67.6021L35.3858 66.2161C34.9003 65.4022 35.282 64.3476 36.1759 64.0329L37.6982 63.4969C38.7323 63.1329 39.5979 62.4038 40.1325 61.4467L40.9195 60.0378Z" stroke="#323232" stroke-width="3"/>
</g>
<defs>
<clipPath id="clip0_2578_21211">
<rect width="114.831" height="108" fill="white" transform="translate(0.583984)"/>
</clipPath>
</defs>
</svg>
