<svg width="207" height="164" viewBox="0 0 207 164" fill="none" xmlns="http://www.w3.org/2000/svg">
<path d="M73.1605 18.064V20H66.7285V18.064H68.9365V10.672C68.8512 10.8 68.7072 10.944 68.5045 11.104C68.3125 11.2533 68.0885 11.4027 67.8325 11.552C67.5872 11.6907 67.3312 11.808 67.0645 11.904C66.8085 12 66.5738 12.048 66.3605 12.048V10.064C66.6485 10.064 66.9418 9.98933 67.2405 9.84C67.5392 9.69067 67.8165 9.52 68.0725 9.328C68.3285 9.136 68.5312 8.96 68.6805 8.8C68.8405 8.62933 68.9258 8.53867 68.9365 8.528H71.1285V18.064H73.1605ZM74.6043 16.576V14.64H79.4523V16.576H74.6043ZM85.7238 20V17.424H80.9398V15.504L86.3958 8.64H87.8678V15.488H89.2758V17.424H87.8678V20H85.7238ZM83.0998 15.488H85.9638V11.872L83.0998 15.488ZM104.985 11.616H107.017L103.513 20H101.721L100.313 16.4L98.9374 20H97.1294L93.6414 11.616H95.6574L98.1534 17.952L99.1294 15.216L97.6734 11.632H99.4494L100.313 14.192L101.193 11.632H102.969L101.513 15.216L102.505 17.952L104.985 11.616ZM111.774 20.16C111.102 20.16 110.494 20.048 109.95 19.824C109.406 19.5893 108.942 19.2747 108.558 18.88C108.174 18.4747 107.875 18.016 107.662 17.504C107.459 16.9813 107.358 16.432 107.358 15.856C107.358 15.056 107.534 14.3253 107.886 13.664C108.249 13.0027 108.761 12.4747 109.422 12.08C110.094 11.6747 110.883 11.472 111.79 11.472C112.707 11.472 113.491 11.6747 114.142 12.08C114.793 12.4747 115.289 13.0027 115.63 13.664C115.982 14.3147 116.158 15.0187 116.158 15.776C116.158 15.904 116.153 16.0373 116.142 16.176C116.131 16.304 116.121 16.4107 116.11 16.496H109.63C109.673 16.9227 109.795 17.296 109.998 17.616C110.211 17.936 110.478 18.1813 110.798 18.352C111.129 18.512 111.481 18.592 111.854 18.592C112.281 18.592 112.681 18.4907 113.054 18.288C113.438 18.0747 113.699 17.7973 113.838 17.456L115.678 17.968C115.475 18.3947 115.182 18.7733 114.798 19.104C114.425 19.4347 113.982 19.696 113.47 19.888C112.958 20.0693 112.393 20.16 111.774 20.16ZM109.582 15.136H113.966C113.923 14.7093 113.801 14.3413 113.598 14.032C113.406 13.712 113.15 13.4667 112.83 13.296C112.51 13.1147 112.153 13.024 111.758 13.024C111.374 13.024 111.022 13.1147 110.702 13.296C110.393 13.4667 110.137 13.712 109.934 14.032C109.742 14.3413 109.625 14.7093 109.582 15.136ZM121.512 20.16C120.84 20.16 120.232 20.048 119.688 19.824C119.144 19.5893 118.68 19.2747 118.296 18.88C117.912 18.4747 117.613 18.016 117.4 17.504C117.197 16.9813 117.096 16.432 117.096 15.856C117.096 15.056 117.272 14.3253 117.624 13.664C117.987 13.0027 118.499 12.4747 119.16 12.08C119.832 11.6747 120.621 11.472 121.528 11.472C122.445 11.472 123.229 11.6747 123.88 12.08C124.531 12.4747 125.027 13.0027 125.368 13.664C125.72 14.3147 125.896 15.0187 125.896 15.776C125.896 15.904 125.891 16.0373 125.88 16.176C125.869 16.304 125.859 16.4107 125.848 16.496H119.368C119.411 16.9227 119.533 17.296 119.736 17.616C119.949 17.936 120.216 18.1813 120.536 18.352C120.867 18.512 121.219 18.592 121.592 18.592C122.019 18.592 122.419 18.4907 122.792 18.288C123.176 18.0747 123.437 17.7973 123.576 17.456L125.416 17.968C125.213 18.3947 124.92 18.7733 124.536 19.104C124.163 19.4347 123.72 19.696 123.208 19.888C122.696 20.0693 122.131 20.16 121.512 20.16ZM119.32 15.136H123.704C123.661 14.7093 123.539 14.3413 123.336 14.032C123.144 13.712 122.888 13.4667 122.568 13.296C122.248 13.1147 121.891 13.024 121.496 13.024C121.112 13.024 120.76 13.1147 120.44 13.296C120.131 13.4667 119.875 13.712 119.672 14.032C119.48 14.3413 119.363 14.7093 119.32 15.136ZM133.09 20L130.642 16.384L129.506 17.504V20H127.362V8.32H129.506V15.392L132.882 11.632H135.154L132.034 15.184L135.378 20H133.09ZM139.485 20.16C138.771 20.16 138.088 20.0427 137.437 19.808C136.787 19.5733 136.227 19.2267 135.757 18.768L136.525 17.376C137.027 17.7813 137.517 18.08 137.997 18.272C138.488 18.464 138.957 18.56 139.405 18.56C139.821 18.56 140.152 18.4853 140.397 18.336C140.653 18.1867 140.781 17.9627 140.781 17.664C140.781 17.4613 140.712 17.3067 140.573 17.2C140.435 17.0827 140.232 16.9813 139.965 16.896C139.709 16.8107 139.395 16.7147 139.021 16.608C138.403 16.4053 137.885 16.208 137.469 16.016C137.053 15.824 136.739 15.584 136.525 15.296C136.323 14.9973 136.221 14.6187 136.221 14.16C136.221 13.6053 136.36 13.1307 136.637 12.736C136.925 12.3307 137.32 12.016 137.821 11.792C138.333 11.568 138.931 11.456 139.613 11.456C140.211 11.456 140.776 11.552 141.309 11.744C141.843 11.9253 142.328 12.224 142.765 12.64L141.901 14C141.475 13.6693 141.069 13.4293 140.685 13.28C140.301 13.12 139.912 13.04 139.517 13.04C139.293 13.04 139.08 13.0667 138.877 13.12C138.685 13.1733 138.525 13.264 138.397 13.392C138.28 13.5093 138.221 13.68 138.221 13.904C138.221 14.1067 138.275 14.2667 138.381 14.384C138.499 14.4907 138.669 14.5867 138.893 14.672C139.128 14.7573 139.411 14.8533 139.741 14.96C140.413 15.152 140.979 15.3493 141.437 15.552C141.907 15.7547 142.259 16.0053 142.493 16.304C142.728 16.592 142.845 16.992 142.845 17.504C142.845 18.336 142.541 18.9867 141.933 19.456C141.325 19.9253 140.509 20.16 139.485 20.16Z" fill="#070323"/>
<rect x="1.25" y="41.25" width="100.5" height="25.5" rx="12.75" fill="white"/>
<path d="M35.4324 53.988C35.4324 54.7393 35.3134 55.423 35.0754 56.039C34.8374 56.655 34.5014 57.1823 34.0674 57.621C33.6334 58.0597 33.1131 58.4003 32.5064 58.643C31.8998 58.881 31.2278 59 30.4904 59H26.7384V48.969H30.4904C31.2278 48.969 31.8998 49.0903 32.5064 49.333C33.1131 49.571 33.6334 49.9117 34.0674 50.355C34.5014 50.7937 34.8374 51.321 35.0754 51.937C35.3134 52.553 35.4324 53.2367 35.4324 53.988ZM34.0394 53.988C34.0394 53.372 33.9554 52.8213 33.7874 52.336C33.6194 51.8507 33.3814 51.44 33.0734 51.104C32.7654 50.768 32.3921 50.5113 31.9534 50.334C31.5148 50.1567 31.0271 50.068 30.4904 50.068H28.1034V57.901H30.4904C31.0271 57.901 31.5148 57.8123 31.9534 57.635C32.3921 57.4577 32.7654 57.2033 33.0734 56.872C33.3814 56.536 33.6194 56.1253 33.7874 55.64C33.9554 55.1547 34.0394 54.604 34.0394 53.988ZM40.0304 51.797C40.4551 51.797 40.8471 51.8693 41.2064 52.014C41.5658 52.154 41.8761 52.3593 42.1374 52.63C42.3988 52.896 42.6018 53.2273 42.7464 53.624C42.8958 54.016 42.9704 54.464 42.9704 54.968C42.9704 55.164 42.9494 55.2947 42.9074 55.36C42.8654 55.4253 42.7861 55.458 42.6694 55.458H37.9514C37.9608 55.906 38.0214 56.2957 38.1334 56.627C38.2454 56.9583 38.3994 57.236 38.5954 57.46C38.7914 57.6793 39.0248 57.845 39.2954 57.957C39.5661 58.0643 39.8694 58.118 40.2054 58.118C40.5181 58.118 40.7864 58.083 41.0104 58.013C41.2391 57.9383 41.4351 57.859 41.5984 57.775C41.7618 57.691 41.8971 57.614 42.0044 57.544C42.1164 57.4693 42.2121 57.432 42.2914 57.432C42.3941 57.432 42.4734 57.4717 42.5294 57.551L42.8794 58.006C42.7254 58.1927 42.5411 58.356 42.3264 58.496C42.1118 58.6313 41.8808 58.7433 41.6334 58.832C41.3908 58.9207 41.1388 58.986 40.8774 59.028C40.6161 59.0747 40.3571 59.098 40.1004 59.098C39.6104 59.098 39.1578 59.0163 38.7424 58.853C38.3318 58.685 37.9748 58.4423 37.6714 58.125C37.3728 57.803 37.1394 57.4063 36.9714 56.935C36.8034 56.4637 36.7194 55.9223 36.7194 55.311C36.7194 54.8163 36.7941 54.3543 36.9434 53.925C37.0974 53.4957 37.3168 53.1247 37.6014 52.812C37.8861 52.4947 38.2338 52.2473 38.6444 52.07C39.0551 51.888 39.5171 51.797 40.0304 51.797ZM40.0584 52.714C39.4564 52.714 38.9828 52.889 38.6374 53.239C38.2921 53.5843 38.0774 54.065 37.9934 54.681H41.8504C41.8504 54.3917 41.8108 54.128 41.7314 53.89C41.6521 53.6473 41.5354 53.4397 41.3814 53.267C41.2274 53.0897 41.0384 52.9543 40.8144 52.861C40.5951 52.763 40.3431 52.714 40.0584 52.714ZM43.6315 51.909H44.6535C44.7515 51.909 44.8332 51.9347 44.8985 51.986C44.9638 52.0373 45.0105 52.098 45.0385 52.168L46.8375 56.732C46.9028 56.9 46.9542 57.068 46.9915 57.236C47.0288 57.404 47.0638 57.5697 47.0965 57.733C47.1338 57.5697 47.1735 57.404 47.2155 57.236C47.2575 57.068 47.3112 56.9 47.3765 56.732L49.1965 52.168C49.2245 52.0933 49.2688 52.0327 49.3295 51.986C49.3948 51.9347 49.4742 51.909 49.5675 51.909H50.5405L47.6495 59H46.5225L43.6315 51.909ZM54.4608 51.797C54.8855 51.797 55.2775 51.8693 55.6368 52.014C55.9962 52.154 56.3065 52.3593 56.5678 52.63C56.8292 52.896 57.0322 53.2273 57.1768 53.624C57.3262 54.016 57.4008 54.464 57.4008 54.968C57.4008 55.164 57.3798 55.2947 57.3378 55.36C57.2958 55.4253 57.2165 55.458 57.0998 55.458H52.3818C52.3912 55.906 52.4518 56.2957 52.5638 56.627C52.6758 56.9583 52.8298 57.236 53.0258 57.46C53.2218 57.6793 53.4552 57.845 53.7258 57.957C53.9965 58.0643 54.2998 58.118 54.6358 58.118C54.9485 58.118 55.2168 58.083 55.4408 58.013C55.6695 57.9383 55.8655 57.859 56.0288 57.775C56.1922 57.691 56.3275 57.614 56.4348 57.544C56.5468 57.4693 56.6425 57.432 56.7218 57.432C56.8245 57.432 56.9038 57.4717 56.9598 57.551L57.3098 58.006C57.1558 58.1927 56.9715 58.356 56.7568 58.496C56.5422 58.6313 56.3112 58.7433 56.0638 58.832C55.8212 58.9207 55.5692 58.986 55.3078 59.028C55.0465 59.0747 54.7875 59.098 54.5308 59.098C54.0408 59.098 53.5882 59.0163 53.1728 58.853C52.7622 58.685 52.4052 58.4423 52.1018 58.125C51.8032 57.803 51.5698 57.4063 51.4018 56.935C51.2338 56.4637 51.1498 55.9223 51.1498 55.311C51.1498 54.8163 51.2245 54.3543 51.3738 53.925C51.5278 53.4957 51.7472 53.1247 52.0318 52.812C52.3165 52.4947 52.6642 52.2473 53.0748 52.07C53.4855 51.888 53.9475 51.797 54.4608 51.797ZM54.4888 52.714C53.8868 52.714 53.4132 52.889 53.0678 53.239C52.7225 53.5843 52.5078 54.065 52.4238 54.681H56.2808C56.2808 54.3917 56.2412 54.128 56.1618 53.89C56.0825 53.6473 55.9658 53.4397 55.8118 53.267C55.6578 53.0897 55.4688 52.9543 55.2448 52.861C55.0255 52.763 54.7735 52.714 54.4888 52.714ZM60.5216 48.689V59H59.2756V48.689H60.5216ZM65.7277 51.797C66.2457 51.797 66.7123 51.8833 67.1277 52.056C67.5477 52.2287 67.9023 52.4737 68.1917 52.791C68.4857 53.1083 68.7097 53.4933 68.8637 53.946C69.0223 54.394 69.1017 54.8957 69.1017 55.451C69.1017 56.011 69.0223 56.515 68.8637 56.963C68.7097 57.411 68.4857 57.7937 68.1917 58.111C67.9023 58.4283 67.5477 58.6733 67.1277 58.846C66.7123 59.014 66.2457 59.098 65.7277 59.098C65.2097 59.098 64.7407 59.014 64.3207 58.846C63.9053 58.6733 63.5507 58.4283 63.2567 58.111C62.9627 57.7937 62.7363 57.411 62.5777 56.963C62.419 56.515 62.3397 56.011 62.3397 55.451C62.3397 54.8957 62.419 54.394 62.5777 53.946C62.7363 53.4933 62.9627 53.1083 63.2567 52.791C63.5507 52.4737 63.9053 52.2287 64.3207 52.056C64.7407 51.8833 65.2097 51.797 65.7277 51.797ZM65.7277 58.125C66.4277 58.125 66.9503 57.8917 67.2957 57.425C67.641 56.9537 67.8137 56.298 67.8137 55.458C67.8137 54.6133 67.641 53.9553 67.2957 53.484C66.9503 53.0127 66.4277 52.777 65.7277 52.777C65.373 52.777 65.065 52.8377 64.8037 52.959C64.5423 53.0803 64.323 53.2553 64.1457 53.484C63.973 53.7127 63.8423 53.995 63.7537 54.331C63.6697 54.6623 63.6277 55.038 63.6277 55.458C63.6277 55.878 63.6697 56.2537 63.7537 56.585C63.8423 56.9163 63.973 57.1963 64.1457 57.425C64.323 57.649 64.5423 57.8217 64.8037 57.943C65.065 58.0643 65.373 58.125 65.7277 58.125ZM70.777 61.401V51.909H71.519C71.6963 51.909 71.8083 51.9953 71.855 52.168L71.96 53.008C72.2633 52.6393 72.6086 52.343 72.996 52.119C73.388 51.895 73.8383 51.783 74.347 51.783C74.753 51.783 75.1216 51.8623 75.453 52.021C75.7843 52.175 76.0666 52.406 76.3 52.714C76.5333 53.0173 76.713 53.3953 76.839 53.848C76.965 54.3007 77.028 54.821 77.028 55.409C77.028 55.9317 76.958 56.4193 76.818 56.872C76.678 57.32 76.4773 57.7097 76.216 58.041C75.9546 58.3677 75.6326 58.6267 75.25 58.818C74.872 59.0047 74.445 59.098 73.969 59.098C73.5303 59.098 73.1546 59.0257 72.842 58.881C72.534 58.7363 72.261 58.531 72.023 58.265V61.401H70.777ZM73.934 52.791C73.528 52.791 73.171 52.8843 72.863 53.071C72.5596 53.2577 72.2796 53.5213 72.023 53.862V57.292C72.2516 57.6 72.5013 57.817 72.772 57.943C73.0473 58.069 73.353 58.132 73.689 58.132C74.347 58.132 74.8533 57.8963 75.208 57.425C75.5626 56.9537 75.74 56.2817 75.74 55.409C75.74 54.947 75.698 54.5503 75.614 54.219C75.5346 53.8877 75.418 53.617 75.264 53.407C75.11 53.1923 74.921 53.036 74.697 52.938C74.473 52.84 74.2186 52.791 73.934 52.791Z" fill="#323232"/>
<rect x="1.25" y="41.25" width="100.5" height="25.5" rx="12.75" stroke="#323232" stroke-width="1.5"/>
<rect x="1.25" y="73.25" width="100.5" height="25.5" rx="12.75" fill="white"/>
<path d="M46.632 80.969V82.11H43.391V91H42.033V82.11H38.778V80.969H46.632ZM49.3322 83.797C49.7569 83.797 50.1489 83.8693 50.5082 84.014C50.8676 84.154 51.1779 84.3593 51.4392 84.63C51.7006 84.896 51.9036 85.2273 52.0482 85.624C52.1976 86.016 52.2722 86.464 52.2722 86.968C52.2722 87.164 52.2512 87.2947 52.2092 87.36C52.1672 87.4253 52.0879 87.458 51.9712 87.458H47.2532C47.2626 87.906 47.3232 88.2957 47.4352 88.627C47.5472 88.9583 47.7012 89.236 47.8972 89.46C48.0932 89.6793 48.3266 89.845 48.5972 89.957C48.8679 90.0643 49.1712 90.118 49.5072 90.118C49.8199 90.118 50.0882 90.083 50.3122 90.013C50.5409 89.9383 50.7369 89.859 50.9002 89.775C51.0636 89.691 51.1989 89.614 51.3062 89.544C51.4182 89.4693 51.5139 89.432 51.5932 89.432C51.6959 89.432 51.7752 89.4717 51.8312 89.551L52.1812 90.006C52.0272 90.1927 51.8429 90.356 51.6282 90.496C51.4136 90.6313 51.1826 90.7433 50.9352 90.832C50.6926 90.9207 50.4406 90.986 50.1792 91.028C49.9179 91.0747 49.6589 91.098 49.4022 91.098C48.9122 91.098 48.4596 91.0163 48.0442 90.853C47.6336 90.685 47.2766 90.4423 46.9732 90.125C46.6746 89.803 46.4412 89.4063 46.2732 88.935C46.1052 88.4637 46.0212 87.9223 46.0212 87.311C46.0212 86.8163 46.0959 86.3543 46.2452 85.925C46.3992 85.4957 46.6186 85.1247 46.9032 84.812C47.1879 84.4947 47.5356 84.2473 47.9462 84.07C48.3569 83.888 48.8189 83.797 49.3322 83.797ZM49.3602 84.714C48.7582 84.714 48.2846 84.889 47.9392 85.239C47.5939 85.5843 47.3792 86.065 47.2952 86.681H51.1522C51.1522 86.3917 51.1126 86.128 51.0332 85.89C50.9539 85.6473 50.8372 85.4397 50.6832 85.267C50.5292 85.0897 50.3402 84.9543 50.1162 84.861C49.8969 84.763 49.6449 84.714 49.3602 84.714ZM58.067 85.078C58.011 85.1807 57.9247 85.232 57.808 85.232C57.738 85.232 57.6587 85.2063 57.57 85.155C57.4814 85.1037 57.3717 85.0477 57.241 84.987C57.115 84.9217 56.9634 84.8633 56.786 84.812C56.6087 84.756 56.3987 84.728 56.156 84.728C55.946 84.728 55.757 84.756 55.589 84.812C55.421 84.8633 55.2764 84.9357 55.155 85.029C55.0384 85.1223 54.9474 85.232 54.882 85.358C54.8214 85.4793 54.791 85.6123 54.791 85.757C54.791 85.939 54.8424 86.0907 54.945 86.212C55.0524 86.3333 55.1924 86.4383 55.365 86.527C55.5377 86.6157 55.7337 86.695 55.953 86.765C56.1724 86.8303 56.3964 86.9027 56.625 86.982C56.8584 87.0567 57.0847 87.1407 57.304 87.234C57.5234 87.3273 57.7194 87.444 57.892 87.584C58.0647 87.724 58.2024 87.8967 58.305 88.102C58.4124 88.3027 58.466 88.5453 58.466 88.83C58.466 89.1567 58.4077 89.46 58.291 89.74C58.1744 90.0153 58.0017 90.2557 57.773 90.461C57.5444 90.6617 57.2644 90.8203 56.933 90.937C56.6017 91.0537 56.219 91.112 55.785 91.112C55.2904 91.112 54.8424 91.0327 54.441 90.874C54.0397 90.7107 53.699 90.503 53.419 90.251L53.713 89.775C53.7504 89.7143 53.7947 89.6677 53.846 89.635C53.8974 89.6023 53.965 89.586 54.049 89.586C54.133 89.586 54.2217 89.6187 54.315 89.684C54.4084 89.7493 54.5204 89.8217 54.651 89.901C54.7864 89.9803 54.9474 90.0527 55.134 90.118C55.3254 90.1833 55.5634 90.216 55.848 90.216C56.0907 90.216 56.303 90.1857 56.485 90.125C56.667 90.0597 56.8187 89.9733 56.94 89.866C57.0614 89.7587 57.15 89.635 57.206 89.495C57.2667 89.355 57.297 89.2057 57.297 89.047C57.297 88.851 57.2434 88.69 57.136 88.564C57.0334 88.4333 56.8957 88.3237 56.723 88.235C56.5504 88.1417 56.352 88.0623 56.128 87.997C55.9087 87.927 55.6824 87.8547 55.449 87.78C55.2204 87.7053 54.994 87.6213 54.77 87.528C54.5507 87.43 54.3547 87.3087 54.182 87.164C54.0094 87.0193 53.8694 86.842 53.762 86.632C53.6594 86.4173 53.608 86.1583 53.608 85.855C53.608 85.5843 53.664 85.3253 53.776 85.078C53.888 84.826 54.0514 84.6067 54.266 84.42C54.4807 84.2287 54.7444 84.077 55.057 83.965C55.3697 83.853 55.7267 83.797 56.128 83.797C56.5947 83.797 57.0124 83.8717 57.381 84.021C57.7544 84.1657 58.0764 84.3663 58.347 84.623L58.067 85.078ZM62.3664 91.112C61.8064 91.112 61.3747 90.9557 61.0714 90.643C60.7727 90.3303 60.6234 89.88 60.6234 89.292V84.952H59.7694C59.6947 84.952 59.6317 84.931 59.5804 84.889C59.529 84.8423 59.5034 84.7723 59.5034 84.679V84.182L60.6654 84.035L60.9524 81.844C60.9617 81.774 60.992 81.718 61.0434 81.676C61.0947 81.6293 61.16 81.606 61.2394 81.606H61.8694V84.049H63.8994V84.952H61.8694V89.208C61.8694 89.5067 61.9417 89.7283 62.0864 89.873C62.231 90.0177 62.4177 90.09 62.6464 90.09C62.777 90.09 62.889 90.0737 62.9824 90.041C63.0804 90.0037 63.1644 89.964 63.2344 89.922C63.3044 89.88 63.3627 89.8427 63.4094 89.81C63.4607 89.7727 63.505 89.754 63.5424 89.754C63.6077 89.754 63.666 89.7937 63.7174 89.873L64.0814 90.468C63.8667 90.6687 63.6077 90.8273 63.3044 90.944C63.001 91.056 62.6884 91.112 62.3664 91.112Z" fill="#323232"/>
<rect x="1.25" y="73.25" width="100.5" height="25.5" rx="12.75" stroke="#323232" stroke-width="1.5"/>
<rect x="1.25" y="105.25" width="100.5" height="25.5" rx="12.75" fill="white"/>
<path d="M20.0724 117.988C20.0724 118.739 19.9534 119.423 19.7154 120.039C19.4774 120.655 19.1414 121.182 18.7074 121.621C18.2734 122.06 17.753 122.4 17.1464 122.643C16.5397 122.881 15.8677 123 15.1304 123H11.3784V112.969H15.1304C15.8677 112.969 16.5397 113.09 17.1464 113.333C17.753 113.571 18.2734 113.912 18.7074 114.355C19.1414 114.794 19.4774 115.321 19.7154 115.937C19.9534 116.553 20.0724 117.237 20.0724 117.988ZM18.6794 117.988C18.6794 117.372 18.5954 116.821 18.4274 116.336C18.2594 115.851 18.0214 115.44 17.7134 115.104C17.4054 114.768 17.032 114.511 16.5934 114.334C16.1547 114.157 15.667 114.068 15.1304 114.068H12.7434V121.901H15.1304C15.667 121.901 16.1547 121.812 16.5934 121.635C17.032 121.458 17.4054 121.203 17.7134 120.872C18.0214 120.536 18.2594 120.125 18.4274 119.64C18.5954 119.155 18.6794 118.604 18.6794 117.988ZM24.6704 115.797C25.095 115.797 25.487 115.869 25.8464 116.014C26.2057 116.154 26.516 116.359 26.7774 116.63C27.0387 116.896 27.2417 117.227 27.3864 117.624C27.5357 118.016 27.6104 118.464 27.6104 118.968C27.6104 119.164 27.5894 119.295 27.5474 119.36C27.5054 119.425 27.426 119.458 27.3094 119.458H22.5914C22.6007 119.906 22.6614 120.296 22.7734 120.627C22.8854 120.958 23.0394 121.236 23.2354 121.46C23.4314 121.679 23.6647 121.845 23.9354 121.957C24.206 122.064 24.5094 122.118 24.8454 122.118C25.158 122.118 25.4264 122.083 25.6504 122.013C25.879 121.938 26.075 121.859 26.2384 121.775C26.4017 121.691 26.537 121.614 26.6444 121.544C26.7564 121.469 26.852 121.432 26.9314 121.432C27.034 121.432 27.1134 121.472 27.1694 121.551L27.5194 122.006C27.3654 122.193 27.181 122.356 26.9664 122.496C26.7517 122.631 26.5207 122.743 26.2734 122.832C26.0307 122.921 25.7787 122.986 25.5174 123.028C25.256 123.075 24.997 123.098 24.7404 123.098C24.2504 123.098 23.7977 123.016 23.3824 122.853C22.9717 122.685 22.6147 122.442 22.3114 122.125C22.0127 121.803 21.7794 121.406 21.6114 120.935C21.4434 120.464 21.3594 119.922 21.3594 119.311C21.3594 118.816 21.434 118.354 21.5834 117.925C21.7374 117.496 21.9567 117.125 22.2414 116.812C22.526 116.495 22.8737 116.247 23.2844 116.07C23.695 115.888 24.157 115.797 24.6704 115.797ZM24.6984 116.714C24.0964 116.714 23.6227 116.889 23.2774 117.239C22.932 117.584 22.7174 118.065 22.6334 118.681H26.4904C26.4904 118.392 26.4507 118.128 26.3714 117.89C26.292 117.647 26.1754 117.44 26.0214 117.267C25.8674 117.09 25.6784 116.954 25.4544 116.861C25.235 116.763 24.983 116.714 24.6984 116.714ZM29.3452 123V115.909H30.0872C30.2645 115.909 30.3765 115.995 30.4232 116.168L30.5142 116.896C30.7755 116.574 31.0672 116.31 31.3892 116.105C31.7158 115.9 32.0938 115.797 32.5232 115.797C33.0038 115.797 33.3912 115.93 33.6852 116.196C33.9838 116.462 34.1985 116.821 34.3292 117.274C34.4272 117.017 34.5555 116.796 34.7142 116.609C34.8775 116.422 35.0595 116.268 35.2602 116.147C35.4608 116.026 35.6732 115.937 35.8972 115.881C36.1258 115.825 36.3568 115.797 36.5902 115.797C36.9635 115.797 37.2948 115.858 37.5842 115.979C37.8782 116.096 38.1255 116.268 38.3262 116.497C38.5315 116.726 38.6878 117.008 38.7952 117.344C38.9025 117.675 38.9562 118.056 38.9562 118.485V123H37.7102V118.485C37.7102 117.93 37.5888 117.51 37.3462 117.225C37.1035 116.936 36.7512 116.791 36.2892 116.791C36.0838 116.791 35.8878 116.828 35.7012 116.903C35.5192 116.973 35.3582 117.078 35.2182 117.218C35.0782 117.358 34.9662 117.535 34.8822 117.75C34.8028 117.96 34.7632 118.205 34.7632 118.485V123H33.5172V118.485C33.5172 117.916 33.4028 117.491 33.1742 117.211C32.9455 116.931 32.6118 116.791 32.1732 116.791C31.8652 116.791 31.5782 116.875 31.3122 117.043C31.0508 117.206 30.8105 117.43 30.5912 117.715V123H29.3452ZM43.8532 115.797C44.3712 115.797 44.8379 115.883 45.2532 116.056C45.6732 116.229 46.0279 116.474 46.3172 116.791C46.6112 117.108 46.8352 117.493 46.9892 117.946C47.1479 118.394 47.2272 118.896 47.2272 119.451C47.2272 120.011 47.1479 120.515 46.9892 120.963C46.8352 121.411 46.6112 121.794 46.3172 122.111C46.0279 122.428 45.6732 122.673 45.2532 122.846C44.8379 123.014 44.3712 123.098 43.8532 123.098C43.3352 123.098 42.8662 123.014 42.4462 122.846C42.0309 122.673 41.6762 122.428 41.3822 122.111C41.0882 121.794 40.8619 121.411 40.7032 120.963C40.5445 120.515 40.4652 120.011 40.4652 119.451C40.4652 118.896 40.5445 118.394 40.7032 117.946C40.8619 117.493 41.0882 117.108 41.3822 116.791C41.6762 116.474 42.0309 116.229 42.4462 116.056C42.8662 115.883 43.3352 115.797 43.8532 115.797ZM43.8532 122.125C44.5532 122.125 45.0759 121.892 45.4212 121.425C45.7665 120.954 45.9392 120.298 45.9392 119.458C45.9392 118.613 45.7665 117.955 45.4212 117.484C45.0759 117.013 44.5532 116.777 43.8532 116.777C43.4985 116.777 43.1905 116.838 42.9292 116.959C42.6679 117.08 42.4485 117.255 42.2712 117.484C42.0985 117.713 41.9679 117.995 41.8792 118.331C41.7952 118.662 41.7532 119.038 41.7532 119.458C41.7532 119.878 41.7952 120.254 41.8792 120.585C41.9679 120.916 42.0985 121.196 42.2712 121.425C42.4485 121.649 42.6679 121.822 42.9292 121.943C43.1905 122.064 43.4985 122.125 43.8532 122.125ZM48.9025 123V115.909H49.6445C49.8218 115.909 49.9338 115.995 49.9805 116.168L50.0785 116.938C50.3865 116.597 50.7295 116.322 51.1075 116.112C51.4902 115.902 51.9312 115.797 52.4305 115.797C52.8178 115.797 53.1585 115.862 53.4525 115.993C53.7512 116.119 53.9985 116.301 54.1945 116.539C54.3952 116.772 54.5468 117.055 54.6495 117.386C54.7522 117.717 54.8035 118.084 54.8035 118.485V123H53.5575V118.485C53.5575 117.948 53.4338 117.533 53.1865 117.239C52.9438 116.94 52.5705 116.791 52.0665 116.791C51.6978 116.791 51.3525 116.88 51.0305 117.057C50.7132 117.234 50.4192 117.475 50.1485 117.778V123H48.9025ZM60.8818 117.078C60.8258 117.181 60.7395 117.232 60.6228 117.232C60.5528 117.232 60.4735 117.206 60.3848 117.155C60.2961 117.104 60.1865 117.048 60.0558 116.987C59.9298 116.922 59.7781 116.863 59.6008 116.812C59.4235 116.756 59.2135 116.728 58.9708 116.728C58.7608 116.728 58.5718 116.756 58.4038 116.812C58.2358 116.863 58.0911 116.936 57.9698 117.029C57.8531 117.122 57.7621 117.232 57.6968 117.358C57.6361 117.479 57.6058 117.612 57.6058 117.757C57.6058 117.939 57.6571 118.091 57.7598 118.212C57.8671 118.333 58.0071 118.438 58.1798 118.527C58.3525 118.616 58.5485 118.695 58.7678 118.765C58.9871 118.83 59.2111 118.903 59.4398 118.982C59.6731 119.057 59.8995 119.141 60.1188 119.234C60.3381 119.327 60.5341 119.444 60.7068 119.584C60.8795 119.724 61.0171 119.897 61.1198 120.102C61.2271 120.303 61.2808 120.545 61.2808 120.83C61.2808 121.157 61.2225 121.46 61.1058 121.74C60.9891 122.015 60.8165 122.256 60.5878 122.461C60.3591 122.662 60.0791 122.82 59.7478 122.937C59.4165 123.054 59.0338 123.112 58.5998 123.112C58.1051 123.112 57.6571 123.033 57.2558 122.874C56.8545 122.711 56.5138 122.503 56.2338 122.251L56.5278 121.775C56.5651 121.714 56.6095 121.668 56.6608 121.635C56.7121 121.602 56.7798 121.586 56.8638 121.586C56.9478 121.586 57.0365 121.619 57.1298 121.684C57.2231 121.749 57.3351 121.822 57.4658 121.901C57.6011 121.98 57.7621 122.053 57.9488 122.118C58.1401 122.183 58.3781 122.216 58.6628 122.216C58.9055 122.216 59.1178 122.186 59.2998 122.125C59.4818 122.06 59.6335 121.973 59.7548 121.866C59.8761 121.759 59.9648 121.635 60.0208 121.495C60.0815 121.355 60.1118 121.206 60.1118 121.047C60.1118 120.851 60.0581 120.69 59.9508 120.564C59.8481 120.433 59.7105 120.324 59.5378 120.235C59.3651 120.142 59.1668 120.062 58.9428 119.997C58.7235 119.927 58.4971 119.855 58.2638 119.78C58.0351 119.705 57.8088 119.621 57.5848 119.528C57.3655 119.43 57.1695 119.309 56.9968 119.164C56.8241 119.019 56.6841 118.842 56.5768 118.632C56.4741 118.417 56.4228 118.158 56.4228 117.855C56.4228 117.584 56.4788 117.325 56.5908 117.078C56.7028 116.826 56.8661 116.607 57.0808 116.42C57.2955 116.229 57.5591 116.077 57.8718 115.965C58.1845 115.853 58.5415 115.797 58.9428 115.797C59.4095 115.797 59.8271 115.872 60.1958 116.021C60.5691 116.166 60.8911 116.366 61.1618 116.623L60.8818 117.078ZM65.1811 123.112C64.6211 123.112 64.1894 122.956 63.8861 122.643C63.5874 122.33 63.4381 121.88 63.4381 121.292V116.952H62.5841C62.5094 116.952 62.4464 116.931 62.3951 116.889C62.3438 116.842 62.3181 116.772 62.3181 116.679V116.182L63.4801 116.035L63.7671 113.844C63.7765 113.774 63.8068 113.718 63.8581 113.676C63.9094 113.629 63.9748 113.606 64.0541 113.606H64.6841V116.049H66.7141V116.952H64.6841V121.208C64.6841 121.507 64.7565 121.728 64.9011 121.873C65.0458 122.018 65.2325 122.09 65.4611 122.09C65.5918 122.09 65.7038 122.074 65.7971 122.041C65.8951 122.004 65.9791 121.964 66.0491 121.922C66.1191 121.88 66.1775 121.843 66.2241 121.81C66.2755 121.773 66.3198 121.754 66.3571 121.754C66.4225 121.754 66.4808 121.794 66.5321 121.873L66.8961 122.468C66.6814 122.669 66.4224 122.827 66.1191 122.944C65.8158 123.056 65.5031 123.112 65.1811 123.112ZM68.3948 123V115.909H69.1088C69.2441 115.909 69.3374 115.935 69.3888 115.986C69.4401 116.037 69.4751 116.126 69.4938 116.252L69.5778 117.358C69.8204 116.863 70.1191 116.478 70.4738 116.203C70.8331 115.923 71.2531 115.783 71.7338 115.783C71.9298 115.783 72.1071 115.806 72.2658 115.853C72.4244 115.895 72.5714 115.956 72.7068 116.035L72.5458 116.966C72.5131 117.083 72.4408 117.141 72.3288 117.141C72.2634 117.141 72.1631 117.12 72.0278 117.078C71.8924 117.031 71.7034 117.008 71.4608 117.008C71.0268 117.008 70.6628 117.134 70.3688 117.386C70.0794 117.638 69.8368 118.004 69.6408 118.485V123H68.3948ZM79.1295 123H78.5765C78.4552 123 78.3572 122.981 78.2825 122.944C78.2078 122.907 78.1588 122.827 78.1355 122.706L77.9955 122.048C77.8088 122.216 77.6268 122.368 77.4495 122.503C77.2722 122.634 77.0855 122.746 76.8895 122.839C76.6935 122.928 76.4835 122.995 76.2595 123.042C76.0402 123.089 75.7952 123.112 75.5245 123.112C75.2492 123.112 74.9902 123.075 74.7475 123C74.5095 122.921 74.3018 122.804 74.1245 122.65C73.9472 122.496 73.8048 122.302 73.6975 122.069C73.5948 121.831 73.5435 121.551 73.5435 121.229C73.5435 120.949 73.6205 120.681 73.7745 120.424C73.9285 120.163 74.1758 119.932 74.5165 119.731C74.8618 119.53 75.3122 119.367 75.8675 119.241C76.4228 119.11 77.1018 119.036 77.9045 119.017V118.464C77.9045 117.913 77.7855 117.498 77.5475 117.218C77.3142 116.933 76.9665 116.791 76.5045 116.791C76.2012 116.791 75.9445 116.831 75.7345 116.91C75.5292 116.985 75.3495 117.071 75.1955 117.169C75.0462 117.262 74.9155 117.349 74.8035 117.428C74.6962 117.503 74.5888 117.54 74.4815 117.54C74.3975 117.54 74.3228 117.519 74.2575 117.477C74.1968 117.43 74.1478 117.374 74.1105 117.309L73.8865 116.91C74.2785 116.532 74.7008 116.25 75.1535 116.063C75.6062 115.876 76.1078 115.783 76.6585 115.783C77.0552 115.783 77.4075 115.848 77.7155 115.979C78.0235 116.11 78.2825 116.292 78.4925 116.525C78.7025 116.758 78.8612 117.041 78.9685 117.372C79.0758 117.703 79.1295 118.067 79.1295 118.464V123ZM75.8955 122.237C76.1148 122.237 76.3155 122.216 76.4975 122.174C76.6795 122.127 76.8498 122.064 77.0085 121.985C77.1718 121.901 77.3258 121.801 77.4705 121.684C77.6198 121.567 77.7645 121.434 77.9045 121.285V119.808C77.3305 119.827 76.8428 119.873 76.4415 119.948C76.0402 120.018 75.7135 120.111 75.4615 120.228C75.2095 120.345 75.0252 120.482 74.9085 120.641C74.7965 120.8 74.7405 120.977 74.7405 121.173C74.7405 121.36 74.7708 121.521 74.8315 121.656C74.8922 121.791 74.9738 121.903 75.0765 121.992C75.1792 122.076 75.3005 122.139 75.4405 122.181C75.5805 122.218 75.7322 122.237 75.8955 122.237ZM83.3062 123.112C82.7462 123.112 82.3145 122.956 82.0112 122.643C81.7125 122.33 81.5632 121.88 81.5632 121.292V116.952H80.7092C80.6345 116.952 80.5715 116.931 80.5202 116.889C80.4689 116.842 80.4432 116.772 80.4432 116.679V116.182L81.6052 116.035L81.8922 113.844C81.9015 113.774 81.9319 113.718 81.9832 113.676C82.0345 113.629 82.0999 113.606 82.1792 113.606H82.8092V116.049H84.8392V116.952H82.8092V121.208C82.8092 121.507 82.8815 121.728 83.0262 121.873C83.1709 122.018 83.3575 122.09 83.5862 122.09C83.7169 122.09 83.8289 122.074 83.9222 122.041C84.0202 122.004 84.1042 121.964 84.1742 121.922C84.2442 121.88 84.3025 121.843 84.3492 121.81C84.4005 121.773 84.4449 121.754 84.4822 121.754C84.5475 121.754 84.6059 121.794 84.6572 121.873L85.0212 122.468C84.8065 122.669 84.5475 122.827 84.2442 122.944C83.9409 123.056 83.6282 123.112 83.3062 123.112ZM89.3268 115.797C89.7515 115.797 90.1435 115.869 90.5028 116.014C90.8622 116.154 91.1725 116.359 91.4338 116.63C91.6952 116.896 91.8982 117.227 92.0428 117.624C92.1922 118.016 92.2668 118.464 92.2668 118.968C92.2668 119.164 92.2458 119.295 92.2038 119.36C92.1618 119.425 92.0825 119.458 91.9658 119.458H87.2478C87.2572 119.906 87.3178 120.296 87.4298 120.627C87.5418 120.958 87.6958 121.236 87.8918 121.46C88.0878 121.679 88.3212 121.845 88.5918 121.957C88.8625 122.064 89.1658 122.118 89.5018 122.118C89.8145 122.118 90.0828 122.083 90.3068 122.013C90.5355 121.938 90.7315 121.859 90.8948 121.775C91.0582 121.691 91.1935 121.614 91.3008 121.544C91.4128 121.469 91.5085 121.432 91.5878 121.432C91.6905 121.432 91.7698 121.472 91.8258 121.551L92.1758 122.006C92.0218 122.193 91.8375 122.356 91.6228 122.496C91.4082 122.631 91.1772 122.743 90.9298 122.832C90.6872 122.921 90.4352 122.986 90.1738 123.028C89.9125 123.075 89.6535 123.098 89.3968 123.098C88.9068 123.098 88.4542 123.016 88.0388 122.853C87.6282 122.685 87.2712 122.442 86.9678 122.125C86.6692 121.803 86.4358 121.406 86.2678 120.935C86.0998 120.464 86.0158 119.922 86.0158 119.311C86.0158 118.816 86.0905 118.354 86.2398 117.925C86.3938 117.496 86.6132 117.125 86.8978 116.812C87.1825 116.495 87.5302 116.247 87.9408 116.07C88.3515 115.888 88.8135 115.797 89.3268 115.797ZM89.3548 116.714C88.7528 116.714 88.2792 116.889 87.9338 117.239C87.5885 117.584 87.3738 118.065 87.2898 118.681H91.1468C91.1468 118.392 91.1072 118.128 91.0278 117.89C90.9485 117.647 90.8318 117.44 90.6778 117.267C90.5238 117.09 90.3348 116.954 90.1108 116.861C89.8915 116.763 89.6395 116.714 89.3548 116.714Z" fill="#323232"/>
<rect x="1.25" y="105.25" width="100.5" height="25.5" rx="12.75" stroke="#323232" stroke-width="1.5"/>
<rect x="1.25" y="137.25" width="100.5" height="25.5" rx="12.75" fill="white"/>
<path d="M39.0845 149.988C39.0845 150.739 38.9655 151.423 38.7275 152.039C38.4895 152.655 38.1535 153.182 37.7195 153.621C37.2855 154.06 36.7651 154.4 36.1585 154.643C35.5518 154.881 34.8798 155 34.1425 155H30.3905V144.969H34.1425C34.8798 144.969 35.5518 145.09 36.1585 145.333C36.7651 145.571 37.2855 145.912 37.7195 146.355C38.1535 146.794 38.4895 147.321 38.7275 147.937C38.9655 148.553 39.0845 149.237 39.0845 149.988ZM37.6915 149.988C37.6915 149.372 37.6075 148.821 37.4395 148.336C37.2715 147.851 37.0335 147.44 36.7255 147.104C36.4175 146.768 36.0441 146.511 35.6055 146.334C35.1668 146.157 34.6791 146.068 34.1425 146.068H31.7555V153.901H34.1425C34.6791 153.901 35.1668 153.812 35.6055 153.635C36.0441 153.458 36.4175 153.203 36.7255 152.872C37.0335 152.536 37.2715 152.125 37.4395 151.64C37.6075 151.155 37.6915 150.604 37.6915 149.988ZM43.6825 147.797C44.1071 147.797 44.4991 147.869 44.8585 148.014C45.2178 148.154 45.5281 148.359 45.7895 148.63C46.0508 148.896 46.2538 149.227 46.3985 149.624C46.5478 150.016 46.6225 150.464 46.6225 150.968C46.6225 151.164 46.6015 151.295 46.5595 151.36C46.5175 151.425 46.4381 151.458 46.3215 151.458H41.6035C41.6128 151.906 41.6735 152.296 41.7855 152.627C41.8975 152.958 42.0515 153.236 42.2475 153.46C42.4435 153.679 42.6768 153.845 42.9475 153.957C43.2181 154.064 43.5215 154.118 43.8575 154.118C44.1701 154.118 44.4385 154.083 44.6625 154.013C44.8911 153.938 45.0871 153.859 45.2505 153.775C45.4138 153.691 45.5491 153.614 45.6565 153.544C45.7685 153.469 45.8641 153.432 45.9435 153.432C46.0461 153.432 46.1255 153.472 46.1815 153.551L46.5315 154.006C46.3775 154.193 46.1931 154.356 45.9785 154.496C45.7638 154.631 45.5328 154.743 45.2855 154.832C45.0428 154.921 44.7908 154.986 44.5295 155.028C44.2681 155.075 44.0091 155.098 43.7525 155.098C43.2625 155.098 42.8098 155.016 42.3945 154.853C41.9838 154.685 41.6268 154.442 41.3235 154.125C41.0248 153.803 40.7915 153.406 40.6235 152.935C40.4555 152.464 40.3715 151.922 40.3715 151.311C40.3715 150.816 40.4461 150.354 40.5955 149.925C40.7495 149.496 40.9688 149.125 41.2535 148.812C41.5381 148.495 41.8858 148.247 42.2965 148.07C42.7071 147.888 43.1691 147.797 43.6825 147.797ZM43.7105 148.714C43.1085 148.714 42.6348 148.889 42.2895 149.239C41.9441 149.584 41.7295 150.065 41.6455 150.681H45.5025C45.5025 150.392 45.4628 150.128 45.3835 149.89C45.3041 149.647 45.1875 149.44 45.0335 149.267C44.8795 149.09 44.6905 148.954 44.4665 148.861C44.2471 148.763 43.9951 148.714 43.7105 148.714ZM48.3573 157.401V147.909H49.0993C49.2766 147.909 49.3886 147.995 49.4353 148.168L49.5403 149.008C49.8436 148.639 50.1889 148.343 50.5763 148.119C50.9683 147.895 51.4186 147.783 51.9273 147.783C52.3333 147.783 52.7019 147.862 53.0333 148.021C53.3646 148.175 53.6469 148.406 53.8803 148.714C54.1136 149.017 54.2933 149.395 54.4193 149.848C54.5453 150.301 54.6083 150.821 54.6083 151.409C54.6083 151.932 54.5383 152.419 54.3983 152.872C54.2583 153.32 54.0576 153.71 53.7963 154.041C53.5349 154.368 53.2129 154.627 52.8303 154.818C52.4523 155.005 52.0253 155.098 51.5493 155.098C51.1106 155.098 50.7349 155.026 50.4223 154.881C50.1143 154.736 49.8413 154.531 49.6033 154.265V157.401H48.3573ZM51.5143 148.791C51.1083 148.791 50.7513 148.884 50.4433 149.071C50.1399 149.258 49.8599 149.521 49.6033 149.862V153.292C49.8319 153.6 50.0816 153.817 50.3523 153.943C50.6276 154.069 50.9333 154.132 51.2693 154.132C51.9273 154.132 52.4336 153.896 52.7883 153.425C53.1429 152.954 53.3203 152.282 53.3203 151.409C53.3203 150.947 53.2783 150.55 53.1943 150.219C53.1149 149.888 52.9983 149.617 52.8443 149.407C52.6903 149.192 52.5013 149.036 52.2773 148.938C52.0533 148.84 51.7989 148.791 51.5143 148.791ZM57.6079 144.689V155H56.3619V144.689H57.6079ZM62.8139 147.797C63.3319 147.797 63.7986 147.883 64.2139 148.056C64.6339 148.229 64.9886 148.474 65.2779 148.791C65.5719 149.108 65.7959 149.493 65.9499 149.946C66.1086 150.394 66.1879 150.896 66.1879 151.451C66.1879 152.011 66.1086 152.515 65.9499 152.963C65.7959 153.411 65.5719 153.794 65.2779 154.111C64.9886 154.428 64.6339 154.673 64.2139 154.846C63.7986 155.014 63.3319 155.098 62.8139 155.098C62.2959 155.098 61.8269 155.014 61.4069 154.846C60.9916 154.673 60.6369 154.428 60.3429 154.111C60.0489 153.794 59.8226 153.411 59.6639 152.963C59.5052 152.515 59.4259 152.011 59.4259 151.451C59.4259 150.896 59.5052 150.394 59.6639 149.946C59.8226 149.493 60.0489 149.108 60.3429 148.791C60.6369 148.474 60.9916 148.229 61.4069 148.056C61.8269 147.883 62.2959 147.797 62.8139 147.797ZM62.8139 154.125C63.5139 154.125 64.0366 153.892 64.3819 153.425C64.7272 152.954 64.8999 152.298 64.8999 151.458C64.8999 150.613 64.7272 149.955 64.3819 149.484C64.0366 149.013 63.5139 148.777 62.8139 148.777C62.4592 148.777 62.1512 148.838 61.8899 148.959C61.6286 149.08 61.4092 149.255 61.2319 149.484C61.0592 149.713 60.9286 149.995 60.8399 150.331C60.7559 150.662 60.7139 151.038 60.7139 151.458C60.7139 151.878 60.7559 152.254 60.8399 152.585C60.9286 152.916 61.0592 153.196 61.2319 153.425C61.4092 153.649 61.6286 153.822 61.8899 153.943C62.1512 154.064 62.4592 154.125 62.8139 154.125ZM69.7645 157.093C69.7225 157.186 69.6688 157.261 69.6035 157.317C69.5428 157.373 69.4471 157.401 69.3165 157.401H68.3925L69.6875 154.587L66.7615 147.909H67.8395C67.9468 147.909 68.0308 147.937 68.0915 147.993C68.1521 148.044 68.1965 148.103 68.2245 148.168L70.1215 152.634C70.1635 152.737 70.1985 152.839 70.2265 152.942C70.2591 153.045 70.2871 153.15 70.3105 153.257C70.3431 153.15 70.3758 153.045 70.4085 152.942C70.4411 152.839 70.4785 152.734 70.5205 152.627L72.3615 148.168C72.3895 148.093 72.4361 148.033 72.5015 147.986C72.5715 147.935 72.6461 147.909 72.7255 147.909H73.7195L69.7645 157.093Z" fill="#323232"/>
<rect x="1.25" y="137.25" width="100.5" height="25.5" rx="12.75" stroke="#323232" stroke-width="1.5"/>
<g clip-path="url(#clip0_2578_21261)">
<circle cx="160.5" cy="86.9527" r="28.5289" fill="#B6EBE8"/>
<path d="M193.053 107.929C196.5 100.717 197.731 92.6442 196.59 84.7325C195.449 76.8208 191.988 69.4251 186.644 63.4806C181.3 57.536 174.313 53.3096 166.567 51.3359C158.821 49.3622 150.664 49.7298 143.127 52.3921C135.589 55.0545 129.011 59.8921 124.223 66.2932C119.436 72.6942 116.653 80.3713 116.229 88.3535C115.804 96.3358 117.756 104.265 121.838 111.138C125.919 118.01 131.947 123.519 139.16 126.966L140.289 124.602C133.545 121.378 127.908 116.227 124.091 109.8C120.274 103.372 118.448 95.9575 118.845 88.4927C119.242 81.028 121.844 73.8486 126.322 67.8625C130.799 61.8765 136.951 57.3525 143.999 54.8627C151.048 52.373 158.676 52.0292 165.92 53.875C173.164 55.7208 179.698 59.6731 184.695 65.2323C189.693 70.7914 192.93 77.7077 193.997 85.1065C195.063 92.5053 193.912 100.054 190.689 106.799L193.053 107.929Z" fill="#323232"/>
<circle cx="156.208" cy="90.9151" r="28.1327" stroke="#323232" stroke-width="2.37741"/>
<path d="M137.183 119.705C137.59 120.73 141.212 125.874 140.677 126.143C138.501 127.238 135.539 126.716 133.197 127.361" stroke="#323232" stroke-width="2.37741" stroke-linecap="round"/>
<path d="M169.016 86.7843L170.631 88.7577C171.181 89.4301 171.957 89.8785 172.815 90.0187L175.331 90.4304C176.072 90.5516 176.517 91.3213 176.251 92.0238L175.349 94.4088C175.042 95.2215 175.042 96.1183 175.349 96.9309L176.251 99.3159C176.517 100.018 176.072 100.788 175.331 100.909L172.815 101.321C171.957 101.461 171.181 101.91 170.631 102.582L169.016 104.555C168.54 105.137 167.652 105.137 167.176 104.555L165.561 102.582C165.011 101.91 164.235 101.461 163.377 101.321L160.861 100.909C160.12 100.788 159.675 100.018 159.941 99.3159L160.843 96.9309C161.15 96.1183 161.15 95.2215 160.843 94.4088L159.941 92.0238C159.675 91.3213 160.12 90.5516 160.861 90.4304L163.377 90.0187C164.235 89.8785 165.011 89.4301 165.561 88.7577L167.176 86.7843C167.652 86.2031 168.54 86.2031 169.016 86.7843Z" stroke="#323232" stroke-width="2.37741"/>
<path d="M156.42 72.6321L156.95 76.8431C157.058 77.7051 157.477 78.4979 158.129 79.0726L161.312 81.8804C161.875 82.3772 161.842 83.2654 161.243 83.7191L157.861 86.2829C157.169 86.8077 156.692 87.5673 156.52 88.4188L155.68 92.579C155.531 93.3152 154.745 93.7307 154.053 93.4392L150.142 91.792C149.341 91.4549 148.445 91.4216 147.621 91.6984L143.598 93.0509C142.886 93.2902 142.134 92.8175 142.04 92.0724L141.511 87.8613C141.402 86.9993 140.983 86.2065 140.332 85.6318L137.149 82.8241C136.586 82.3273 136.619 81.4391 137.217 80.9854L140.6 78.4215C141.292 77.8967 141.769 77.1372 141.941 76.2856L142.781 72.1255C142.93 71.3893 143.715 70.9738 144.408 71.2653L148.319 72.9124C149.12 73.2496 150.016 73.2829 150.839 73.006L154.862 71.6536C155.574 71.4143 156.327 71.8869 156.42 72.6321Z" stroke="#323232" stroke-width="2.37741"/>
<path d="M148.777 96.962L149.748 97.7943C150.407 98.3598 151.251 98.665 152.119 98.6526L153.398 98.6345C154.149 98.6238 154.722 99.3036 154.583 100.042L154.348 101.299C154.188 102.153 154.346 103.036 154.791 103.782L155.446 104.88C155.83 105.525 155.528 106.361 154.82 106.61L153.613 107.035C152.794 107.324 152.108 107.901 151.684 108.66L151.061 109.776C150.694 110.432 149.819 110.588 149.249 110.099L148.278 109.267C147.619 108.701 146.775 108.396 145.907 108.409L144.628 108.427C143.877 108.437 143.304 107.758 143.442 107.019L143.678 105.762C143.838 104.908 143.68 104.025 143.235 103.279L142.58 102.181C142.195 101.536 142.498 100.7 143.206 100.451L144.413 100.026C145.232 99.7375 145.918 99.1598 146.342 98.4013L146.965 97.2848C147.332 96.6291 148.207 96.4732 148.777 96.962Z" stroke="#323232" stroke-width="2.37741"/>
<rect x="155.328" y="112.627" width="49.8358" height="28.4776" rx="3.95522" fill="#9FCA78"/>
<rect x="150.187" y="116.187" width="50.6269" height="9.49254" rx="3.5597" stroke="#323232" stroke-width="2.37313"/>
<rect x="150.187" y="125.679" width="50.6269" height="9.49254" rx="3.5597" stroke="#323232" stroke-width="2.37313"/>
<rect x="150.187" y="135.172" width="50.6269" height="9.49254" rx="3.5597" stroke="#323232" stroke-width="2.37313"/>
</g>
<defs>
<clipPath id="clip0_2578_21261">
<rect width="92" height="105" fill="white" transform="translate(115 49.5)"/>
</clipPath>
</defs>
</svg>
