<svg width="144" height="109" viewBox="0 0 144 109" fill="none" xmlns="http://www.w3.org/2000/svg">
<rect x="21" y="27" width="82" height="64" rx="4.72339" fill="#FFD27C"/>
<path d="M49.9204 59.0981C52.3493 56.6774 54.6932 54.3458 57.0271 52.0037C57.9117 51.1183 58.8563 50.5943 60.0257 51.396C61.1752 52.1819 61.3651 53.6437 60.2856 54.7597C57.1321 58.0135 53.9286 61.2149 50.6751 64.3586C49.5556 65.4432 48.1812 65.1078 47.3766 63.6879C46.6469 62.399 46.0222 61.0472 45.3725 59.7059C44.7528 58.4274 44.8428 57.2538 46.1272 56.515C47.4466 55.7553 48.3761 56.4259 49.0658 57.6415C49.3107 58.0764 49.5756 58.5113 49.9204 59.0981Z" fill="white"/>
<path d="M54.9204 64.0981C57.3493 61.6774 59.6932 59.3458 62.0271 57.0037C62.9117 56.1183 63.8563 55.5943 65.0257 56.396C66.1752 57.1819 66.3651 58.6437 65.2856 59.7597C62.1321 63.0135 58.9286 66.2149 55.6751 69.3586C54.5556 70.4432 53.1812 70.1078 52.3766 68.6879C51.6469 67.399 51.0222 66.0472 50.3725 64.7059C49.7528 63.4274 49.8428 62.2538 51.1272 61.515C52.4466 60.7553 53.3761 61.4259 54.0658 62.6415C54.3107 63.0764 54.5756 63.5113 54.9204 64.0981Z" fill="#323232"/>
<rect x="17.9883" y="30.7872" width="24.8591" height="3" rx="1.5" transform="rotate(-30 17.9883 30.7872)" fill="#323232"/>
<rect x="37.5273" y="18.8936" width="78.5467" height="3" rx="1.5" fill="#323232"/>
<rect x="116.361" y="18.8936" width="65.3402" height="3" rx="1.5" transform="rotate(90 116.361 18.8936)" fill="#323232"/>
<rect x="94.3496" y="30.7872" width="22" height="3" rx="1.5" transform="rotate(-30 94.3496 30.7872)" fill="#323232"/>
<rect x="94.2969" y="93.3994" width="24.385" height="3" rx="1.5" transform="rotate(-30 94.2969 93.3994)" fill="#323232"/>
<rect x="17.5" y="31.5" width="80.4465" height="63.1274" rx="3.22339" stroke="#323232" stroke-width="3"/>
</svg>
