<svg width="108" height="108" viewBox="0 0 108 108" fill="none" xmlns="http://www.w3.org/2000/svg">
<rect x="27" y="17" width="64" height="64" rx="6" fill="#FF756C"/>
<path d="M42.9453 63V52.848L39.2733 60.24H37.1133L33.4413 52.848V63H29.5053V45.96H33.7773L38.1933 54.864L42.6333 45.96H46.8813V63H42.9453ZM52.8657 45.96L56.8737 58.392L60.8337 45.96H64.9857L58.7937 63H54.9297L48.6897 45.96H52.8657ZM66.8056 63V45.96H74.0776C74.8936 45.96 75.6376 46.128 76.3096 46.464C76.9976 46.784 77.5896 47.224 78.0856 47.784C78.5816 48.328 78.9656 48.944 79.2376 49.632C79.5096 50.32 79.6456 51.024 79.6456 51.744C79.6456 52.72 79.4136 53.648 78.9496 54.528C78.5016 55.408 77.8696 56.128 77.0536 56.688C76.2536 57.232 75.3016 57.504 74.1976 57.504H70.7416V63H66.8056ZM70.7416 54.072H73.9576C74.2616 54.072 74.5416 53.984 74.7976 53.808C75.0536 53.632 75.2616 53.368 75.4216 53.016C75.5816 52.664 75.6616 52.232 75.6616 51.72C75.6616 51.192 75.5656 50.76 75.3736 50.424C75.1976 50.072 74.9656 49.816 74.6776 49.656C74.4056 49.496 74.1176 49.416 73.8136 49.416H70.7416V54.072Z" fill="#070323"/>
<rect x="22" y="21.5" width="64" height="64" rx="4.5" stroke="#323232" stroke-width="3"/>
</svg>
