<svg width="262" height="209" viewBox="0 0 262 209" fill="none" xmlns="http://www.w3.org/2000/svg">
<rect x="15.543" y="46.3926" width="245.611" height="97.845" rx="10" fill="#7687C6"/>
<path d="M245.179 191.194C244.873 192.164 244.554 193.135 244.266 194.105C241.687 202.726 233.917 208.703 224.927 208.972C224.288 208.991 223.65 208.997 223.011 208.997C156.054 208.997 89.0962 209.004 22.1451 208.997C11.5144 208.997 3.3865 203.167 0.81981 193.607C0.28987 191.628 0.0408628 189.52 0.034478 187.471C-0.00383087 132.157 -0.0102157 76.8429 0.0153235 21.529C0.0217084 9.08946 9.01791 0.028004 21.43 0.0216182C88.8664 -0.0103108 156.303 -0.00392502 223.733 0.0216182C234.478 0.028004 242.325 6.43297 244.777 16.9887C244.847 17.2825 245.045 17.5379 245.179 17.8189C245.179 75.6104 245.179 133.402 245.179 191.194ZM239.893 38.7388C161.532 38.7388 83.484 38.7388 5.30195 38.7388C5.30195 39.8244 5.30195 40.6928 5.30195 41.5677C5.30195 89.8508 5.42964 138.134 5.18702 186.417C5.14233 195.529 11.6357 203.825 22.4196 203.799C89.2048 203.608 155.99 203.703 222.781 203.691C224.371 203.691 226.006 203.716 227.532 203.365C235.072 201.628 239.88 195.466 239.886 187.605C239.899 138.766 239.893 89.921 239.893 41.0824C239.893 40.3608 239.893 39.6519 239.893 38.7388ZM239.816 33.1512C239.816 28.8535 239.848 24.8752 239.81 20.8968C239.765 16.3629 238.035 12.5506 234.727 9.45345C231.248 6.19669 227.046 5.36015 222.405 5.36654C163.996 5.42401 105.588 5.40485 47.1799 5.40485C38.2412 5.40485 29.3088 5.36654 20.3701 5.46233C13.8001 5.53257 7.40255 10.0346 6.15751 16.4715C5.11679 21.8483 5.39772 27.487 5.08486 33.1576C83.6372 33.1512 161.564 33.1512 239.816 33.1512Z" fill="white"/>
<path d="M79.1616 153.134C87.0277 157.668 94.5362 162.004 102.038 166.334C102.658 166.691 103.277 167.055 103.896 167.419C105.448 168.326 106.412 169.546 105.32 171.321C104.241 173.065 102.702 172.803 101.157 171.896C100.883 171.736 100.608 171.577 100.334 171.417C91.4459 166.276 82.5583 161.149 73.677 156.002C70.2867 154.035 70.2931 152.093 73.7089 150.114C82.6604 144.935 91.6183 139.763 100.583 134.603C101.196 134.252 101.93 133.639 102.492 133.747C103.532 133.958 104.873 134.379 105.352 135.165C105.735 135.791 105.244 137.215 104.746 138.045C104.337 138.715 103.354 139.054 102.594 139.488C95.5641 143.549 88.5281 147.598 81.4984 151.659C80.8152 152.049 80.1704 152.496 79.1616 153.134Z" fill="white"/>
<path d="M166.077 153.038C158.013 148.37 150.377 143.951 142.741 139.532C142.051 139.136 141.081 138.894 140.742 138.3C140.187 137.329 139.599 136.014 139.842 135.043C140.238 133.447 141.789 133.389 143.207 133.83C143.73 133.996 144.19 134.347 144.675 134.628C153.569 139.756 162.47 144.884 171.357 150.024C174.926 152.087 174.958 154.028 171.44 156.065C162.412 161.289 153.365 166.468 144.343 171.698C142.664 172.675 140.998 173.262 139.829 171.206C138.622 169.079 140.18 168.071 141.808 167.132C149.119 162.93 156.417 158.69 163.715 154.462C164.392 154.073 165.062 153.658 166.077 153.038Z" fill="white"/>
<path d="M53.1301 85.3228C61.8134 85.3228 70.5032 85.3164 79.1865 85.3228C81.7532 85.3228 82.9919 86.1849 82.8705 87.9857C82.7109 90.3229 81.0253 90.6422 79.1163 90.6422C61.7432 90.6294 44.3765 90.6358 27.0034 90.6358C26.7672 90.6358 26.5246 90.6358 26.2883 90.6358C24.5325 90.6294 23.23 89.8376 23.1981 88.0432C23.1598 86.1083 24.4687 85.3101 26.3586 85.3164C35.2781 85.3356 44.2041 85.3228 53.1301 85.3228Z" fill="white"/>
<path d="M53.1685 70.547C44.3958 70.547 35.6167 70.5215 26.8439 70.5662C24.9796 70.5789 23.4281 70.2916 23.1791 68.114C22.9811 66.3835 24.3475 65.349 26.8375 65.3426C44.3064 65.3234 61.7816 65.3362 79.2505 65.3362C79.5697 65.3362 79.8953 65.3234 80.2082 65.3681C81.8044 65.5916 82.9728 66.2941 82.877 68.1076C82.7813 69.8829 81.6575 70.547 79.9783 70.547C71.0332 70.5406 62.1009 70.547 53.1685 70.547Z" fill="white"/>
<path d="M53.1757 105.374C61.6292 105.374 70.0827 105.374 78.5362 105.374C79.2513 105.374 80.1515 105.132 80.6495 105.47C81.5243 106.058 82.6991 106.983 82.731 107.807C82.7629 108.637 81.703 109.729 80.8475 110.304C80.2154 110.726 79.1491 110.54 78.2808 110.54C61.4504 110.553 44.6264 110.553 27.7961 110.54C25.804 110.54 23.5502 110.815 23.1735 108.012C22.9245 106.147 24.393 105.374 27.8152 105.368C36.2687 105.374 44.7222 105.374 53.1757 105.374Z" fill="white"/>
<path d="M117.609 176.851C114.87 176.94 113.925 175.35 114.596 172.758C115.649 168.69 116.747 164.635 117.839 160.58C120.368 151.161 122.877 141.735 125.482 132.342C125.776 131.288 126.472 130.132 127.34 129.532C127.883 129.155 129.523 129.404 129.887 129.922C130.488 130.771 130.832 132.157 130.609 133.159C129.664 137.329 128.464 141.442 127.353 145.58C124.818 154.992 122.283 164.411 119.755 173.824C119.346 175.331 118.918 176.787 117.609 176.851Z" fill="white"/>
<path d="M207.361 85.3225C211.103 85.3225 214.844 85.3608 218.586 85.3097C220.539 85.2842 222.021 85.9483 221.982 88.0428C221.944 89.9777 220.488 90.6482 218.656 90.6482C210.93 90.6355 203.211 90.6355 195.485 90.6482C193.64 90.6546 192.204 89.9011 192.197 87.9981C192.191 85.9355 193.704 85.2778 195.651 85.3097C199.559 85.3672 203.46 85.3225 207.361 85.3225Z" fill="white"/>
<path d="M207.03 70.5471C203.122 70.5471 199.215 70.5024 195.307 70.5662C193.481 70.5982 192.262 69.8319 192.211 68.0439C192.153 66.2048 193.475 65.3682 195.212 65.3618C203.11 65.3363 211.008 65.3363 218.906 65.3555C220.63 65.3555 222.002 66.109 222.002 67.9481C222.002 69.9085 220.668 70.5982 218.765 70.5662C214.851 70.5024 210.937 70.5471 207.03 70.5471Z" fill="white"/>
<path d="M114.315 70.5458C110.407 70.5458 106.5 70.5267 102.592 70.5522C100.837 70.565 99.5916 70.0158 99.5405 68.0426C99.4894 66.0566 100.817 65.3733 102.49 65.3605C110.388 65.3158 118.28 65.3158 126.178 65.3542C127.972 65.3605 129.409 66.1332 129.262 68.1703C129.128 70.0158 127.793 70.5841 126.037 70.5586C122.136 70.5075 118.222 70.5458 114.315 70.5458Z" fill="white"/>
<path d="M114.463 85.3237C118.281 85.3237 122.1 85.3493 125.918 85.311C127.75 85.2918 129.199 85.9049 129.263 87.8589C129.327 89.9726 127.788 90.6367 125.886 90.6367C118.173 90.6367 110.454 90.6431 102.741 90.6303C100.947 90.6303 99.542 89.9982 99.5548 87.9419C99.5675 85.8729 100.959 85.311 102.773 85.3237C106.667 85.3365 110.562 85.3237 114.463 85.3237Z" fill="white"/>
<path d="M160.645 90.6361C156.986 90.6361 153.328 90.617 149.663 90.6425C147.76 90.6553 146.062 90.3807 145.896 88.018C145.768 86.1916 146.975 85.3295 149.529 85.3231C157.005 85.3168 164.488 85.3168 171.965 85.3231C174.347 85.3231 175.905 86.3768 175.7 88.0052C175.419 90.1955 173.823 90.6744 171.863 90.6489C168.128 90.5978 164.386 90.6361 160.645 90.6361Z" fill="white"/>
<path d="M160.823 70.5459C156.916 70.5459 153.008 70.5203 149.101 70.5586C147.383 70.5778 146.023 70.15 145.915 68.1831C145.8 66.095 147.173 65.367 148.973 65.3606C156.788 65.3287 164.603 65.3414 172.418 65.3478C174.225 65.3478 175.719 66.0886 175.662 68.0426C175.604 69.952 174.187 70.6097 172.303 70.5714C168.479 70.4948 164.648 70.5459 160.823 70.5459Z" fill="white"/>
<path d="M114.303 105.38C118.211 105.38 122.119 105.406 126.02 105.368C127.865 105.348 129.263 105.93 129.269 107.96C129.276 109.876 127.865 110.527 126.186 110.527C118.294 110.553 110.402 110.559 102.511 110.521C100.844 110.515 99.5035 109.889 99.5418 107.877C99.5801 105.885 100.844 105.361 102.587 105.374C106.488 105.393 110.396 105.38 114.303 105.38Z" fill="white"/>
<path d="M160.842 105.381C164.75 105.381 168.651 105.419 172.558 105.368C174.372 105.342 175.623 106.128 175.668 107.897C175.713 109.717 174.353 110.528 172.622 110.534C164.731 110.559 156.845 110.566 148.954 110.534C147.281 110.528 145.908 109.914 145.908 107.948C145.908 105.84 147.3 105.349 149.133 105.368C153.034 105.406 156.941 105.374 160.842 105.381Z" fill="white"/>
<path d="M207.082 105.375C210.989 105.375 214.89 105.413 218.798 105.355C220.566 105.33 221.894 105.93 221.977 107.776C222.073 109.787 220.637 110.528 218.823 110.534C211.015 110.554 203.2 110.554 195.391 110.534C193.578 110.528 192.116 109.8 192.199 107.808C192.288 105.828 193.763 105.317 195.595 105.355C199.433 105.426 203.257 105.375 207.082 105.375Z" fill="white"/>
<path d="M194.056 19.4662C194.018 24.1662 190.417 27.5953 185.577 27.5379C180.987 27.4804 177.552 23.9235 177.564 19.2427C177.577 14.5428 181.191 10.9859 185.922 11.0178C190.602 11.0497 194.095 14.6705 194.056 19.4662ZM188.566 18.9298C188.317 17.5185 187.506 16.4266 185.635 16.5607C183.949 16.682 183.043 17.6207 183.094 19.3385C183.151 21.1776 184.179 22.0716 185.986 22.0014C187.723 21.9311 188.495 20.903 188.566 18.9298Z" fill="white"/>
<path d="M216.148 27.5316C211.468 27.5444 207.707 23.8534 207.733 19.2684C207.758 14.843 211.544 11.0562 215.969 11.0179C220.681 10.9796 224.365 14.5429 224.429 19.2109C224.499 23.8725 220.866 27.5188 216.148 27.5316ZM215.471 16.5544C214.277 16.7396 213.211 17.7102 213.306 19.4535C213.396 21.0628 214.405 21.9887 216.116 22.027C218.025 22.0653 218.983 20.8967 218.957 19.262C218.925 17.6208 217.878 16.5033 215.471 16.5544Z" fill="white"/>
<path d="M155.352 27.5313C150.723 27.4866 147.25 23.9808 147.231 19.3255C147.211 14.6256 150.832 11.0048 155.531 11.0176C160.096 11.0304 163.933 14.881 163.869 19.3958C163.812 24.0063 160.077 27.576 155.352 27.5313ZM155.959 22.0204C157.229 21.9693 158.334 21.0561 158.308 19.2872C158.283 17.5695 157.287 16.535 155.448 16.5541C153.698 16.5669 152.753 17.6525 152.702 19.1914C152.651 20.8581 153.552 22.0331 155.959 22.0204Z" fill="white"/>
</svg>
