<svg width="244" height="209" viewBox="0 0 244 209" fill="none" xmlns="http://www.w3.org/2000/svg">
<g clip-path="url(#clip0_496_3992)">
<path d="M131.736 126.384C136.434 126.384 141.132 126.341 145.829 126.396C148.252 126.427 149.627 127.648 149.584 129.516C149.547 131.366 148.098 132.599 145.718 132.605C137.556 132.624 129.393 132.58 121.224 132.568C119.763 132.568 118.296 132.679 116.841 132.574C114.861 132.426 113.48 130.99 113.684 129.3C113.906 127.438 115.04 126.403 116.952 126.396C121.878 126.372 126.804 126.384 131.736 126.384Z" fill="#FFD27C"/>
<path d="M131.651 143.913C128.192 143.913 124.734 143.944 121.275 143.901C118.932 143.87 117.718 142.816 117.681 140.917C117.638 138.932 118.895 137.797 121.349 137.785C128.192 137.754 135.03 137.754 141.873 137.785C144.345 137.797 145.609 138.901 145.591 140.874C145.572 142.828 144.302 143.882 141.805 143.907C138.414 143.938 135.03 143.913 131.651 143.913Z" fill="#FFD27C"/>
<path d="M119.714 121.057C119.017 111.513 115.115 103.221 110.078 95.3849C107.371 91.1739 104.504 87.0678 101.705 82.9185C96.5203 75.2303 91.8162 67.3262 89.6707 58.146C83.2651 30.7532 104.325 4.63057 132.451 5.13613C152.963 5.51221 170.737 20.8887 173.986 41.1296C175.602 51.21 173.949 60.8711 169.116 69.7554C165.374 76.636 160.965 83.1589 156.681 89.7312C151.921 97.031 147.069 104.263 144.843 112.839C144.165 115.435 143.758 118.098 143.179 120.959C127.267 120.959 135.904 121.057 119.714 121.057Z" fill="#FFD27C"/>
<path d="M240.281 194.665C240.127 195.004 239.923 195.325 239.831 195.676C237.636 203.926 231.156 208.988 222.624 208.994C189.338 209.012 156.058 209 122.771 209C89.1772 209 55.589 209 21.9946 209C10.7061 209 3.54826 201.817 3.53593 190.504C3.52977 186.342 3.51744 182.18 3.5421 178.025C3.56059 175.528 4.36207 174.72 6.86516 174.683C9.46072 174.646 12.0563 174.677 14.9478 174.677C14.9478 173.419 14.9478 172.439 14.9478 171.465C14.9478 127.623 14.9786 83.7873 14.9169 39.9453C14.9108 33.4655 17.0563 28.2126 22.3954 24.4271C25.6568 22.1089 29.3682 21.3259 33.314 21.3259C48.7209 21.3382 64.134 21.3012 79.5409 21.3752C81.2733 21.3814 82.2721 20.845 83.3079 19.4516C102.617 -6.51694 141.23 -6.45529 160.583 19.5749C161.575 20.9128 162.55 21.3814 164.183 21.3752C179.744 21.3136 195.312 21.3012 210.873 21.3506C219.831 21.3814 226.705 26.7329 228.468 35.0562C228.844 36.8441 228.838 38.7307 228.838 40.5742C228.857 84.1819 228.85 127.79 228.85 171.403C228.85 172.384 228.85 173.37 228.85 174.683C231.532 174.683 233.98 174.517 236.391 174.751C237.716 174.881 238.98 175.688 240.268 176.188C240.281 182.335 240.281 188.5 240.281 194.665ZM39.658 45.9997C39.658 82.5234 39.658 118.776 39.658 155.151C94.5471 155.151 149.288 155.151 204.134 155.151C204.134 118.72 204.134 82.4124 204.134 46.0737C192.691 46.0737 181.415 46.0737 170.164 46.0737C170.028 48.7186 169.997 51.1848 169.751 53.6324C168.702 64.0211 164.319 73.1212 158.715 81.7219C154.473 88.2387 150.059 94.6445 145.903 101.211C142.457 106.655 140.09 112.567 139.128 118.985C138.912 120.41 138.832 121.519 140.632 122.241C142.969 123.178 144.331 125.256 144.831 127.716C145.663 131.871 143.795 134.855 140.392 137.031C140.601 138.006 140.854 138.893 140.971 139.794C141.551 144.393 138.505 148.74 133.9 148.912C125.903 149.214 117.876 149.208 109.88 148.912C105.373 148.746 102.334 144.51 102.808 139.997C102.913 139.017 103.185 138.061 103.388 137.025C102.901 136.668 102.395 136.322 101.921 135.94C97.3214 132.247 97.7715 125.071 102.993 122.358C104.837 121.402 104.898 120.373 104.64 118.745C103.635 112.413 101.267 106.587 97.8948 101.198C94.6272 95.9824 91.1685 90.8836 87.7283 85.7725C81.7666 76.9129 76.3226 67.8005 74.5594 57.0481C73.9675 53.4413 73.8319 49.7544 73.4743 46.0059C62.2721 45.9997 51.0575 45.9997 39.658 45.9997ZM78.4312 26.5048C77.679 26.5048 76.9947 26.5048 76.3103 26.5048C62.0563 26.5048 47.7961 26.4925 33.5421 26.511C24.917 26.5233 20.1327 31.3446 20.1266 39.9946C20.1204 83.9229 20.1266 127.851 20.1266 171.779C20.1266 172.606 20.1266 173.432 20.1266 174.461C88.0797 174.461 155.774 174.461 223.592 174.461C223.629 173.722 223.696 173.043 223.696 172.365C223.702 127.975 223.702 83.5838 223.684 39.1931C223.684 38.0464 223.616 36.8688 223.345 35.7652C221.921 30.0006 217.291 26.5418 210.866 26.5233C196.378 26.4863 181.89 26.511 167.402 26.5171C166.736 26.5171 166.07 26.5911 165.423 26.6281C166.927 31.3446 168.388 35.9255 169.917 40.7283C170.527 40.7283 171.366 40.7283 172.204 40.7283C183.222 40.7283 194.245 40.7283 205.262 40.7283C208.85 40.7283 209.492 41.3449 209.492 44.8468C209.498 81.9932 209.498 119.14 209.492 156.286C209.492 159.843 208.881 160.435 205.312 160.435C149.67 160.435 94.0292 160.435 38.388 160.435C34.9724 160.435 34.3251 159.806 34.3251 156.403C34.3189 119.183 34.3189 81.9562 34.3251 44.7358C34.3251 41.388 35.0156 40.7345 38.4373 40.7345C49.5347 40.7283 60.6321 40.7345 71.7296 40.7345C72.5557 40.7345 73.3818 40.7345 73.912 40.7345C75.4472 35.8823 76.8837 31.357 78.4312 26.5048ZM114.67 121.057C114.775 110.97 114.393 101.155 112.969 91.3645C112.587 88.7504 111.662 87.5358 108.98 87.2091C107.291 86.9994 105.614 86.1116 104.103 85.2362C100.94 83.405 98.9121 80.6984 98.5298 76.9437C98.2031 73.7192 99.88 70.4701 102.525 69.2185C105.083 68.0039 108.092 68.676 110.472 71.1914C111.52 72.295 112.488 73.5589 113.178 74.9091C114.226 76.9561 115.108 79.1016 115.842 81.278C116.261 82.5172 116.81 82.992 118.123 82.9118C120.194 82.7947 122.303 82.6652 124.356 82.9118C126.68 83.1892 127.55 82.3384 128.444 80.1805C129.8 76.9006 131.649 73.7377 133.789 70.8893C135.379 68.7746 138.018 68.0286 140.7 68.9781C143.333 69.909 144.707 71.9868 145.151 74.6872C145.78 78.4666 144.504 81.7157 141.52 83.8551C139.27 85.4643 136.545 86.5432 133.881 87.3755C132.198 87.8996 131.236 88.4051 131.113 90.2794C130.484 99.9529 129.775 109.62 129.122 119.288C129.085 119.861 129.257 120.453 129.325 120.958C130.916 120.958 132.321 120.958 133.554 120.958C134.134 118.098 134.541 115.434 135.219 112.839C137.451 104.269 142.303 97.0305 147.056 89.7307C151.341 83.1584 155.755 76.6355 159.492 69.7549C164.325 60.8706 165.977 51.2033 164.362 41.1291C161.113 20.8881 143.333 5.50554 122.827 5.13562C94.7012 4.62389 73.6408 30.7466 80.0464 58.1455C82.1919 67.3257 86.896 75.2298 92.081 82.918C94.88 87.0673 97.7468 91.1734 100.453 95.3844C105.49 103.221 109.399 111.513 110.09 121.057C111.637 121.057 112.993 121.057 114.67 121.057ZM8.67773 179.93C8.67773 183.401 8.67773 186.626 8.67773 189.85C8.67773 199.191 13.3818 203.87 22.7653 203.87C88.8751 203.87 154.979 203.87 221.088 203.87C221.933 203.87 222.784 203.889 223.629 203.833C228.807 203.494 233.61 200.208 234.461 195.288C235.324 190.288 235.114 185.103 235.379 179.992C207.654 179.992 153.197 179.992 153.197 179.992L90.6198 179.93C90.6198 179.93 36.0822 179.93 8.67773 179.93ZM122.019 126.384C117.093 126.384 112.161 126.372 107.235 126.39C105.324 126.396 104.189 127.432 103.968 129.294C103.764 130.983 105.145 132.42 107.124 132.568C108.579 132.679 110.046 132.562 111.508 132.562C119.67 132.574 127.833 132.617 136.002 132.599C138.382 132.592 139.831 131.365 139.868 129.51C139.905 127.642 138.536 126.421 136.113 126.39C131.415 126.341 126.717 126.384 122.019 126.384ZM123.425 121.051C124.159 109.953 124.88 99.0959 125.595 88.2017C123.185 88.2017 120.534 88.2017 118.222 88.2017C118.943 99.2315 119.652 110.083 120.367 121.051C121.323 121.051 122.445 121.051 123.425 121.051ZM121.933 143.912C125.318 143.912 128.696 143.937 132.081 143.906C134.578 143.881 135.848 142.827 135.866 140.872C135.885 138.906 134.621 137.796 132.149 137.784C125.305 137.753 118.468 137.753 111.625 137.784C109.171 137.796 107.913 138.93 107.956 140.916C108 142.815 109.208 143.869 111.551 143.9C115.009 143.943 118.474 143.912 121.933 143.912ZM132.815 81.7835C133.043 81.9747 133.277 82.172 133.505 82.3631C134.553 81.9438 135.651 81.6047 136.649 81.0807C138.647 80.0264 140.188 78.5344 140.053 76.0744C140.009 75.3531 139.529 74.4036 138.949 74.0583C138.573 73.8364 137.371 74.3296 137.032 74.8352C135.534 77.0855 134.208 79.453 132.815 81.7835ZM110.201 82.5357C110.46 82.2891 110.712 82.0486 110.971 81.802C109.633 79.5147 108.382 77.1718 106.915 74.9708C106.545 74.4098 105.164 73.8364 104.849 74.0707C104.245 74.5207 103.653 75.6428 103.801 76.3148C104.085 77.5849 104.627 79.0461 105.558 79.8661C106.865 81.0252 108.628 81.6726 110.201 82.5357Z" fill="white"/>
</g>
<defs>
<clipPath id="clip0_496_3992">
<rect width="242.686" height="209" fill="white" transform="translate(0.529297)"/>
</clipPath>
</defs>
</svg>
