<svg width="405" height="297" viewBox="0 0 405 297" fill="none" xmlns="http://www.w3.org/2000/svg">
<path d="M55.2827 134.058L55.281 134.058C55.0076 134.171 54.7007 134.153 54.3096 133.947C53.903 133.733 53.4528 133.336 52.9729 132.775C52.0154 131.657 51.0691 130.042 50.2205 128.471C49.3758 126.908 48.0609 124.339 46.9545 122.157C46.4019 121.066 45.9023 120.074 45.5408 119.354C45.3601 118.995 45.2139 118.703 45.1129 118.501L44.9967 118.269L44.9665 118.209L44.9588 118.193L44.9569 118.19L44.9564 118.189L44.9563 118.188L44.3996 118.466M55.2827 134.058L61.5109 106.213C61.3185 106.239 61.1246 106.174 60.9867 106.037C60.6578 105.71 60.0893 105.01 59.3698 104.077C58.6403 103.132 57.73 101.913 56.7066 100.52C54.6596 97.7331 52.1528 94.24 49.7213 90.8224C47.2894 87.4044 44.9315 84.0601 43.1816 81.5703C42.3066 80.3254 41.5836 79.2941 41.0793 78.574C40.8271 78.2139 40.6296 77.9316 40.4952 77.7393L40.3418 77.5199L40.3025 77.4637L40.2926 77.4495L40.2901 77.4459L40.2894 77.445C40.2893 77.4448 40.2892 77.4447 40.7994 77.0884L40.2892 77.4447C40.1711 77.2755 40.1445 77.0587 40.2182 76.866C40.292 76.6733 40.4565 76.5296 40.6574 76.4825L52.5657 73.6917L49.8821 47.2052C38.1307 48.9099 27.0884 53.4243 18.925 57.5571C14.7727 59.6593 11.3726 61.659 9.01187 63.1322C7.83166 63.8688 6.91163 64.4735 6.28773 64.8933C6.04582 65.0561 5.84845 65.1911 5.69771 65.2951C8.65383 75.576 14.0955 83.2702 20.4904 92.0091L20.4905 92.0092C25.788 99.2527 31.8657 105.749 36.6239 110.438C39.0019 112.782 41.0479 114.671 42.4986 115.974C43.2239 116.626 43.8002 117.131 44.1947 117.472C44.3919 117.643 44.5436 117.773 44.6457 117.859C44.6968 117.903 44.7355 117.936 44.7612 117.957L44.7901 117.982L44.7971 117.988L44.7988 117.989L44.7992 117.989L44.3996 118.466M55.2827 134.058C55.2838 134.057 55.2841 134.057 55.285 134.056C55.2862 134.056 55.2911 134.052 55.2988 134.041C55.3153 134.02 55.343 133.973 55.3697 133.885C55.425 133.701 55.4521 133.418 55.4342 133.034C55.3987 132.272 55.1967 131.283 54.929 130.278C54.6637 129.281 54.3435 128.302 54.0885 127.569C53.9612 127.204 53.8508 126.901 53.7723 126.69C53.7331 126.585 53.7019 126.503 53.6806 126.447L53.6564 126.384L53.6504 126.369L53.6489 126.365L53.6486 126.364L53.6486 126.364C53.5314 126.064 53.6622 125.724 53.9502 125.581C54.2382 125.437 54.5883 125.536 54.7575 125.81C56.2951 128.299 58.6123 131.199 60.73 133.368C61.7904 134.453 62.7809 135.335 63.5829 135.888C63.9863 136.167 64.3147 136.343 64.5614 136.428C64.6519 136.459 64.7173 136.474 64.7625 136.48C64.7675 136.434 64.7705 136.372 64.7681 136.291C64.7588 135.979 64.675 135.529 64.517 134.96C64.2039 133.832 63.6419 132.383 63.0217 130.936C62.4038 129.494 61.7378 128.076 61.2255 127.017C60.9695 126.488 60.7523 126.05 60.5992 125.744C60.5227 125.591 60.4622 125.471 60.421 125.39L60.374 125.297L60.362 125.274L60.359 125.268L60.3583 125.267L60.3582 125.266L60.9119 124.982M55.2827 134.058L60.9119 124.982M44.3996 118.466L44.9563 118.188C44.9181 118.112 44.8647 118.044 44.7992 117.989L44.3996 118.466ZM60.9119 124.982L60.3582 125.266C60.2042 124.966 60.3177 124.598 60.614 124.436C60.9103 124.274 61.2813 124.378 61.4504 124.671C62.3138 126.162 64.5286 128.578 66.7127 130.665C67.7951 131.7 68.8492 132.634 69.6939 133.311C70.1174 133.65 70.479 133.917 70.76 134.099C70.901 134.19 71.0116 134.253 71.0927 134.292C71.1326 134.311 71.1568 134.32 71.1678 134.324C71.5702 134.348 71.7373 134.212 71.7947 134.041C71.8397 133.907 71.866 133.65 71.7513 133.206C71.6375 132.766 71.3946 132.181 70.9555 131.422L70.9546 131.421C70.0488 129.846 68.9523 127.953 68.0819 126.453C67.6468 125.704 67.2683 125.052 66.9986 124.589L66.6822 124.045L66.5974 123.899L66.5755 123.861L66.5699 123.852L66.5685 123.849L66.5682 123.849L66.5681 123.849L67.1058 123.535L66.5681 123.848C66.4079 123.573 66.4811 123.222 66.7377 123.034C66.9942 122.845 67.3513 122.881 67.5656 123.116M60.9119 124.982L67.5656 123.116M67.5656 123.116L67.5659 123.116L67.5673 123.118L67.5804 123.132C67.593 123.145 67.6134 123.166 67.6417 123.195C67.6982 123.251 67.7861 123.337 67.9058 123.447C68.1452 123.665 68.5115 123.978 69.0077 124.343C70.0002 125.072 71.5118 126.006 73.5679 126.806C75.676 127.625 76.9758 127.853 77.6307 127.768C77.7827 127.748 77.8697 127.715 77.9138 127.69C77.9347 127.678 77.9444 127.67 77.9476 127.667C77.9493 127.665 77.95 127.664 77.9501 127.664L77.9503 127.663L77.951 127.661C77.9517 127.659 77.9528 127.656 77.9538 127.65C77.9559 127.639 77.958 127.618 77.9559 127.586C77.9515 127.518 77.9296 127.416 77.8704 127.273C77.8255 127.165 77.6478 126.878 77.3056 126.401C76.9802 125.947 76.5448 125.374 76.0347 124.722C75.0153 123.418 73.7113 121.816 72.4237 120.258C71.1367 118.699 69.8687 117.187 68.9223 116.065C68.4491 115.503 68.0565 115.039 67.7822 114.716C67.645 114.554 67.5374 114.428 67.4642 114.342L67.3806 114.243L67.3593 114.218L67.3539 114.212L67.3526 114.21L67.3522 114.21C67.3522 114.21 67.3521 114.21 67.8258 113.806L67.3521 114.21C67.1478 113.97 67.155 113.615 67.3688 113.384L68.9396 111.684C69.0758 111.537 69.2749 111.464 69.4741 111.489C72.9316 111.923 74.6805 111.738 75.5514 111.392C75.9652 111.227 76.149 111.039 76.2424 110.89C76.341 110.732 76.3812 110.55 76.398 110.323C76.398 110.323 76.4117 110.221 76.1731 110.005C75.935 109.788 75.5236 109.533 74.8833 109.246C73.6092 108.675 71.5897 108.05 68.6897 107.351C65.7998 106.66 63.9759 106.379 62.8858 106.269C62.3412 106.214 61.9824 106.202 61.7674 106.203C61.66 106.203 61.589 106.207 61.5492 106.209C61.5293 106.211 61.5172 106.212 61.5124 106.213L61.5133 106.212L67.5656 123.116Z" stroke="#323232" stroke-width="1.24454" stroke-linejoin="round"/>
<path d="M58.3521 112.59C58.3521 112.59 62.646 118.675 69.2144 111.475" stroke="#323232" stroke-width="1.24454" stroke-miterlimit="10" stroke-linecap="round" stroke-linejoin="round"/>
<path d="M29.3193 79.9799C29.3193 79.9799 34.9298 81.4053 39.3567 77.0527" stroke="#323232" stroke-width="1.24454" stroke-miterlimit="10" stroke-linecap="round" stroke-linejoin="round"/>
<path d="M44.0645 48.1081C44.0645 48.1081 68.0433 45.6596 91.8141 53.4514L110.216 56.1805C110.216 56.1805 141.421 60.8734 150.68 71.3177C150.68 71.3177 163.228 85.2308 166.072 94.4892L141.154 107.777L133.795 95.4328L125.494 150.486C125.494 150.486 93.0893 163.162 44.3872 143.969L56.9103 76.6866C56.9103 76.6866 39.4623 82.6691 36.6185 79.3407C35.8714 79.7546 38.5681 57.7235 44.0645 48.1081Z" fill="#FFD27C"/>
<path d="M138.903 140.095C138.428 140.187 138.219 140.119 138.142 140.061C137.757 139.758 137.547 139.267 137.726 138.624C137.914 137.948 138.556 137.044 140.054 136.106C140.666 135.725 141.375 135.272 142.128 134.79C143.344 134.013 144.678 133.161 145.912 132.412C146.907 131.809 147.813 131.288 148.512 130.943C148.603 130.899 148.688 130.858 148.769 130.821C148.713 130.918 148.652 131.021 148.585 131.131C148.096 131.937 147.363 132.988 146.596 134.042C145.83 135.093 145.039 136.133 144.439 136.911C144.139 137.3 143.887 137.623 143.71 137.849C143.64 137.938 143.582 138.012 143.537 138.069C143.161 138.222 142.702 138.453 142.235 138.69C142.19 138.713 142.144 138.736 142.099 138.759C141.58 139.022 141.032 139.301 140.491 139.542C139.898 139.807 139.352 140.009 138.903 140.095ZM149.555 130.539C149.555 130.539 149.552 130.539 149.547 130.539C149.552 130.539 149.555 130.539 149.555 130.539Z" fill="#FFFAF7" stroke="#323232" stroke-width="1.24454"/>
<path d="M97.4757 52.0657L97.5259 52.0821L97.5782 52.0899L115.979 54.8188L115.98 54.8189L115.98 54.8189L115.984 54.8195L116 54.822L116.066 54.8321C116.124 54.8412 116.211 54.8548 116.326 54.8731C116.555 54.9097 116.892 54.9649 117.326 55.0388C118.193 55.1868 119.443 55.41 120.972 55.7105C124.032 56.3115 128.206 57.2211 132.666 58.4552C137.128 59.6898 141.863 61.2457 146.051 63.1364C150.251 65.0327 153.842 67.2406 156.07 69.7535L156.073 69.7575L156.535 69.3408L156.073 69.7575L156.074 69.7579L156.075 69.7596L156.082 69.7668L156.108 69.796C156.119 69.8088 156.134 69.8247 156.15 69.8437C156.168 69.8634 156.189 69.8864 156.212 69.9127C156.303 70.0157 156.438 70.1684 156.612 70.3664C156.958 70.7623 157.457 71.339 158.065 72.0602C159.28 73.503 160.93 75.5224 162.668 77.829C166.037 82.3 169.677 87.775 171.176 92.2079L147.24 104.972L140.185 93.1372L139.295 91.6433L139.036 93.363L130.789 148.052C130.781 148.054 130.773 148.057 130.766 148.06C130.523 148.145 130.158 148.27 129.675 148.422C128.707 148.727 127.267 149.143 125.383 149.583C121.616 150.464 116.08 151.443 109.025 151.826C95.0108 152.587 74.9967 150.995 50.9485 141.601L63.3775 74.8234L63.5726 73.775L62.5639 74.1209L62.7657 74.7095L62.5638 74.1209L62.5634 74.1211L62.5612 74.1218L62.5523 74.1249L62.5159 74.1372C62.5011 74.1422 62.4831 74.1483 62.4618 74.1555C62.4363 74.1641 62.4062 74.1742 62.3716 74.1858C62.2446 74.2283 62.0575 74.2904 61.8179 74.3684C61.3387 74.5243 60.6501 74.7437 59.8147 74.9967C58.1427 75.5031 55.8875 76.1426 53.5475 76.6781C51.2016 77.215 48.7963 77.6412 46.8159 77.7315C45.8247 77.7767 44.967 77.7362 44.2884 77.5958C43.6318 77.46 43.2141 77.2456 42.9805 76.9967C42.9742 76.8962 42.9716 76.7489 42.9761 76.5487C42.9885 75.9933 43.0518 75.1494 43.1679 74.0773C43.3996 71.9383 43.8358 68.9393 44.4669 65.6247C45.7092 59.1011 47.6884 51.4562 50.3024 46.7207C50.4791 46.7053 50.7272 46.6849 51.0424 46.6616C51.7383 46.6104 52.7611 46.5456 54.0636 46.492C56.6689 46.3847 60.392 46.3224 64.8556 46.5025C73.7869 46.863 85.6629 48.1935 97.4757 52.0657ZM42.9935 77.1197C42.9947 77.1242 42.9952 77.1267 42.9951 77.1268C42.995 77.1269 42.9944 77.1247 42.9935 77.1197Z" stroke="#323232" stroke-width="1.24454"/>
<mask id="path-7-inside-1_2380_23528" fill="white">
<path d="M160.908 150.29C160.908 150.29 166.009 158.643 164.274 160.059C164.274 160.059 160.359 162.303 155.182 153.835C155.182 153.835 160.002 162.125 157.541 162.928C155.08 163.731 149.456 155.021 149.456 155.021C149.456 155.021 152.415 161.921 150.973 164.28C149.52 166.639 143.398 154.511 143.398 154.511"/>
</mask>
<path d="M160.908 150.29C160.908 150.29 166.009 158.643 164.274 160.059C164.274 160.059 160.359 162.303 155.182 153.835C155.182 153.835 160.002 162.125 157.541 162.928C155.08 163.731 149.456 155.021 149.456 155.021C149.456 155.021 152.415 161.921 150.973 164.28C149.52 166.639 143.398 154.511 143.398 154.511" fill="#FFFAF7"/>
<path d="M162.012 149.616C161.64 149.006 160.843 148.813 160.233 149.186C159.623 149.558 159.431 150.355 159.803 150.965L162.012 149.616ZM164.274 160.059L164.918 161.182C164.98 161.146 165.038 161.106 165.093 161.061L164.274 160.059ZM155.182 153.835L156.286 153.16C155.916 152.555 155.128 152.361 154.519 152.724C153.91 153.087 153.706 153.873 154.063 154.486L155.182 153.835ZM149.456 155.021L150.543 154.319C150.178 153.754 149.441 153.563 148.848 153.879C148.254 154.195 148.001 154.913 148.266 155.532L149.456 155.021ZM150.973 164.28L152.075 164.959L152.078 164.955L150.973 164.28ZM144.554 153.928C144.232 153.29 143.453 153.034 142.815 153.356C142.177 153.678 141.921 154.456 142.243 155.095L144.554 153.928ZM160.908 150.29C159.803 150.965 159.803 150.965 159.803 150.965C159.803 150.965 159.803 150.965 159.803 150.965C159.803 150.965 159.803 150.965 159.803 150.965C159.804 150.966 159.805 150.967 159.806 150.969C159.808 150.972 159.811 150.978 159.815 150.985C159.824 150.999 159.837 151.021 159.855 151.051C159.89 151.109 159.942 151.196 160.008 151.309C160.14 151.533 160.328 151.857 160.548 152.25C160.991 153.039 161.558 154.098 162.069 155.192C162.587 156.3 163.018 157.383 163.221 158.236C163.324 158.667 163.35 158.963 163.337 159.139C163.323 159.321 163.286 159.195 163.456 159.056L165.093 161.061C165.696 160.569 165.879 159.872 165.919 159.327C165.959 158.775 165.871 158.186 165.739 157.635C165.474 156.524 164.955 155.253 164.414 154.096C163.867 152.924 163.267 151.806 162.807 150.985C162.576 150.573 162.379 150.233 162.239 149.995C162.169 149.876 162.113 149.783 162.074 149.718C162.055 149.686 162.04 149.661 162.029 149.644C162.024 149.635 162.02 149.628 162.017 149.624C162.016 149.621 162.015 149.62 162.014 149.618C162.013 149.618 162.013 149.617 162.013 149.617C162.013 149.616 162.013 149.616 162.013 149.616C162.012 149.616 162.012 149.616 160.908 150.29ZM164.274 160.059C163.631 158.936 163.632 158.935 163.633 158.935C163.633 158.934 163.635 158.934 163.635 158.933C163.637 158.932 163.638 158.932 163.64 158.931C163.643 158.929 163.645 158.928 163.648 158.926C163.652 158.924 163.656 158.922 163.659 158.92C163.666 158.917 163.669 158.915 163.669 158.915C163.669 158.915 163.657 158.921 163.634 158.93C163.586 158.948 163.493 158.979 163.359 159.002C163.098 159.048 162.653 159.07 162.048 158.885C160.838 158.515 158.784 157.246 156.286 153.16L154.078 154.511C156.757 158.893 159.25 160.736 161.291 161.36C162.312 161.673 163.17 161.663 163.804 161.552C164.118 161.497 164.372 161.419 164.559 161.347C164.652 161.312 164.729 161.278 164.789 161.249C164.819 161.234 164.845 161.221 164.867 161.21C164.877 161.204 164.887 161.199 164.896 161.194C164.9 161.192 164.904 161.19 164.908 161.188C164.91 161.187 164.911 161.185 164.913 161.185C164.914 161.184 164.915 161.183 164.916 161.183C164.917 161.182 164.918 161.182 164.274 160.059ZM155.182 153.835C154.063 154.486 154.063 154.486 154.063 154.486C154.063 154.486 154.063 154.486 154.063 154.486C154.063 154.486 154.063 154.486 154.063 154.487C154.064 154.487 154.064 154.488 154.065 154.49C154.067 154.493 154.07 154.498 154.074 154.505C154.082 154.519 154.094 154.541 154.111 154.57C154.143 154.627 154.192 154.713 154.253 154.823C154.376 155.043 154.549 155.36 154.75 155.744C155.153 156.514 155.66 157.538 156.088 158.575C156.526 159.636 156.841 160.613 156.925 161.321C156.968 161.681 156.935 161.848 156.922 161.888C156.919 161.896 156.932 161.854 156.983 161.801C157.038 161.743 157.1 161.711 157.139 161.698L157.943 164.159C158.692 163.914 159.156 163.355 159.371 162.725C159.565 162.158 159.559 161.546 159.496 161.016C159.369 159.943 158.94 158.698 158.481 157.586C158.012 156.451 157.467 155.351 157.043 154.543C156.831 154.137 156.647 153.8 156.515 153.564C156.449 153.446 156.397 153.352 156.36 153.288C156.342 153.256 156.327 153.231 156.317 153.213C156.312 153.205 156.308 153.198 156.306 153.193C156.304 153.191 156.303 153.189 156.302 153.187C156.302 153.187 156.302 153.186 156.301 153.186C156.301 153.186 156.301 153.185 156.301 153.185C156.301 153.185 156.301 153.185 155.182 153.835ZM157.139 161.698C157.239 161.665 157.221 161.722 156.982 161.623C156.752 161.528 156.439 161.336 156.051 161.024C155.28 160.402 154.412 159.468 153.574 158.452C152.745 157.448 151.986 156.413 151.432 155.625C151.155 155.232 150.931 154.903 150.778 154.674C150.701 154.559 150.641 154.469 150.601 154.408C150.581 154.378 150.567 154.355 150.557 154.34C150.552 154.333 150.548 154.327 150.546 154.324C150.545 154.322 150.544 154.321 150.544 154.32C150.543 154.32 150.543 154.319 150.543 154.319C150.543 154.319 150.543 154.319 150.543 154.319C150.543 154.319 150.543 154.319 149.456 155.021C148.369 155.724 148.369 155.724 148.369 155.724C148.369 155.724 148.369 155.724 148.369 155.724C148.369 155.725 148.37 155.725 148.37 155.726C148.371 155.728 148.372 155.73 148.374 155.732C148.377 155.737 148.382 155.744 148.387 155.753C148.399 155.771 148.416 155.797 148.438 155.83C148.482 155.897 148.546 155.993 148.627 156.115C148.79 156.358 149.025 156.704 149.315 157.115C149.891 157.935 150.692 159.027 151.577 160.1C152.453 161.161 153.452 162.254 154.427 163.04C154.913 163.431 155.444 163.788 155.992 164.015C156.531 164.238 157.227 164.392 157.943 164.159L157.139 161.698ZM149.456 155.021C148.266 155.532 148.266 155.531 148.266 155.531C148.266 155.531 148.266 155.531 148.266 155.531C148.266 155.531 148.266 155.531 148.266 155.531C148.266 155.532 148.267 155.533 148.267 155.534C148.268 155.536 148.27 155.54 148.272 155.546C148.277 155.557 148.284 155.574 148.294 155.598C148.314 155.645 148.343 155.716 148.38 155.807C148.454 155.991 148.56 156.259 148.683 156.588C148.929 157.25 149.241 158.149 149.508 159.112C149.777 160.083 149.988 161.076 150.054 161.936C150.124 162.851 150.008 163.377 149.869 163.605L152.078 164.955C152.659 164.003 152.714 162.782 152.635 161.739C152.551 160.643 152.293 159.469 152.002 158.42C151.71 157.364 151.372 156.39 151.108 155.684C150.976 155.33 150.862 155.04 150.78 154.838C150.739 154.736 150.706 154.657 150.683 154.601C150.672 154.574 150.663 154.552 150.656 154.537C150.653 154.529 150.651 154.523 150.649 154.519C150.648 154.517 150.647 154.515 150.647 154.514C150.646 154.513 150.646 154.513 150.646 154.512C150.646 154.512 150.646 154.512 150.646 154.512C150.646 154.512 150.645 154.511 149.456 155.021ZM149.872 163.601C149.902 163.552 150.016 163.404 150.247 163.329C150.466 163.257 150.626 163.305 150.653 163.314C150.674 163.321 150.63 163.309 150.516 163.222C150.408 163.141 150.271 163.019 150.107 162.849C149.43 162.148 148.588 160.953 147.738 159.594C146.902 158.257 146.105 156.84 145.515 155.752C145.221 155.21 144.98 154.752 144.812 154.43C144.729 154.27 144.664 154.143 144.62 154.057C144.598 154.014 144.581 153.981 144.57 153.96C144.564 153.949 144.56 153.941 144.558 153.935C144.556 153.933 144.555 153.931 144.555 153.93C144.554 153.929 144.554 153.929 144.554 153.928C144.554 153.928 144.554 153.928 144.554 153.928C144.554 153.928 144.554 153.928 143.398 154.511C142.243 155.095 142.243 155.095 142.243 155.095C142.243 155.095 142.243 155.095 142.243 155.096C142.244 155.096 142.244 155.097 142.244 155.098C142.245 155.099 142.247 155.102 142.248 155.105C142.251 155.111 142.256 155.121 142.262 155.133C142.274 155.157 142.292 155.192 142.315 155.237C142.362 155.328 142.43 155.459 142.516 155.626C142.689 155.958 142.937 156.429 143.24 156.987C143.843 158.099 144.668 159.567 145.543 160.967C146.405 162.345 147.367 163.739 148.246 164.648C148.661 165.078 149.197 165.55 149.808 165.761C150.142 165.876 150.583 165.942 151.051 165.789C151.531 165.632 151.863 165.303 152.075 164.959L149.872 163.601Z" fill="#323232" mask="url(#path-7-inside-1_2380_23528)"/>
<path d="M146.484 105.138L159.645 98.3282L171.569 92.1687" stroke="#323232" stroke-width="1.24454" stroke-miterlimit="10" stroke-linecap="round" stroke-linejoin="round"/>
<path d="M143.281 138.563C143.817 135.77 145.092 133.143 149.096 129.445" stroke="#323232" stroke-width="1.24454" stroke-miterlimit="10" stroke-linecap="round" stroke-linejoin="round"/>
<path d="M156.582 123.489C156.582 123.489 163.583 116.807 169.602 116.335" stroke="#323232" stroke-width="1.24454" stroke-miterlimit="10" stroke-linecap="round" stroke-linejoin="round"/>
<path d="M62.75 74.7235C62.75 74.7235 65.0837 61.8179 69.2666 54.7913" stroke="#323232" stroke-width="1.24454" stroke-miterlimit="10" stroke-linecap="round" stroke-linejoin="round"/>
<path d="M61.0687 143.892C61.0687 143.892 32.8728 196.956 32.5412 207.234C32.2096 217.513 70.3398 274.134 72.9924 277.118L88.0787 271.622" stroke="#323232" stroke-width="1.24454" stroke-miterlimit="10" stroke-linecap="round" stroke-linejoin="round"/>
<path d="M81.3047 166.772L85.9466 173.071C85.9466 173.071 86.0741 183.49 86.2017 194.968C86.5332 223.278 87.2729 271.177 88.9307 280.856L118.708 279.032C118.708 279.032 130.619 163.112 131.333 148.523" stroke="#323232" stroke-width="1.24454" stroke-miterlimit="10" stroke-linecap="round" stroke-linejoin="round"/>
<path d="M87.0696 234.589L77.875 210.844L85.8326 195.771" stroke="#323232" stroke-width="1.24454" stroke-miterlimit="10" stroke-linecap="round" stroke-linejoin="round"/>
<path d="M77.0617 275.793L78.3242 283.661L73.7461 286.786C73.7461 286.786 65.5462 290.994 68.9129 293.851C72.2795 296.707 88.8451 294.361 88.8451 294.361L88.0927 271.636L77.0617 275.793Z" fill="#323232" stroke="#323232" stroke-width="1.24454" stroke-miterlimit="10" stroke-linecap="round" stroke-linejoin="round"/>
<path d="M111.352 279.71C111.326 280.178 111.318 280.641 111.31 281.091C111.302 281.479 111.295 281.856 111.278 282.217C111.227 283.257 111.091 284.323 110.64 285.566L110.298 286.511L111.296 286.397C111.365 286.389 111.594 286.396 112.018 286.447C112.417 286.495 112.935 286.574 113.54 286.68C114.751 286.891 116.294 287.208 117.914 287.591C121.182 288.362 124.668 289.379 126.41 290.317C127.058 290.672 127.656 291.062 128.177 291.462L128.179 291.464C129.71 292.629 128.97 295.014 127.104 295.116L89.7268 294.514L89.5631 281.43L111.352 279.71Z" fill="#323232" stroke="#323232" stroke-width="1.24454"/>
<path d="M93.2188 51.1174C93.2188 54.4331 93.4355 61.549 102.898 63.5894C112.322 65.6298 116.9 61.0389 119.196 56.9709" stroke="#323232" stroke-width="1.24454" stroke-miterlimit="10" stroke-linecap="round" stroke-linejoin="round"/>
<path d="M139.639 93.4692L137.828 75.5774" stroke="#323232" stroke-width="1.24454" stroke-miterlimit="10" stroke-linecap="round" stroke-linejoin="round"/>
<path d="M71.8203 206.559C73.9117 207.477 76.0287 208.829 77.8778 210.831" stroke="#323232" stroke-width="1.24454" stroke-miterlimit="10" stroke-linecap="round" stroke-linejoin="round"/>
<mask id="path-21-inside-2_2380_23528" fill="white">
<path d="M86.2017 194.967C86.0614 183.489 85.9466 173.071 85.9466 173.071L81.3047 166.771"/>
</mask>
<path d="M86.2017 194.967C86.0614 183.489 85.9466 173.071 85.9466 173.071L81.3047 166.771" fill="#323232"/>
<path d="M85.9466 173.071L87.1911 173.057L87.1866 172.655L86.9485 172.332L85.9466 173.071ZM87.4461 194.951C87.376 189.213 87.3122 183.74 87.266 179.7C87.2429 177.681 87.2241 176.02 87.2112 174.864C87.2047 174.286 87.1997 173.834 87.1963 173.527C87.1946 173.373 87.1933 173.256 87.1924 173.177C87.192 173.137 87.1916 173.107 87.1914 173.087C87.1913 173.077 87.1912 173.069 87.1912 173.064C87.1911 173.062 87.1911 173.06 87.1911 173.059C87.1911 173.058 87.1911 173.058 87.1911 173.057C87.1911 173.057 87.1911 173.057 87.1911 173.057C87.1911 173.057 87.1911 173.057 85.9466 173.071C84.7021 173.084 84.7021 173.084 84.7021 173.084C84.7021 173.084 84.7021 173.085 84.7021 173.085C84.7021 173.085 84.7021 173.085 84.7022 173.086C84.7022 173.087 84.7022 173.089 84.7022 173.092C84.7023 173.097 84.7024 173.104 84.7025 173.114C84.7027 173.135 84.703 173.165 84.7035 173.204C84.7043 173.283 84.7056 173.401 84.7073 173.554C84.7108 173.862 84.7158 174.314 84.7223 174.892C84.7352 176.048 84.754 177.709 84.7771 179.729C84.8233 183.768 84.8871 189.243 84.9572 194.982L87.4461 194.951ZM86.9485 172.332L82.3066 166.032L80.3028 167.509L84.9447 173.809L86.9485 172.332Z" fill="#323232" mask="url(#path-21-inside-2_2380_23528)"/>
<path d="M159.462 120.034C159.046 120.419 158.685 120.771 158.35 121.098C158.265 121.182 158.181 121.263 158.099 121.343C157.652 121.778 157.242 122.166 156.784 122.543L156.681 122.361C156.391 121.845 155.975 121.106 155.474 120.215C154.817 119.044 154.014 117.609 153.158 116.072C153.938 116.789 154.837 117.573 155.754 118.251C156.884 119.088 158.112 119.601 159.046 119.906C159.192 119.953 159.331 119.996 159.462 120.034Z" fill="#323232" stroke="#323232" stroke-width="1.24454"/>
<path d="M111.209 285.791C111.209 285.791 106.299 282.106 99.9609 285.523" stroke="#323232" stroke-width="1.24454" stroke-miterlimit="10" stroke-linecap="round" stroke-linejoin="round"/>
<path d="M80.2344 284.057C80.2344 284.057 84.8636 281.621 88.7658 284.057" stroke="#323232" stroke-width="1.24454" stroke-miterlimit="10" stroke-linecap="round" stroke-linejoin="round"/>
<path d="M89.0078 282.832L89.4924 292.103" stroke="#323232" stroke-width="1.24454" stroke-miterlimit="10" stroke-linecap="round" stroke-linejoin="round"/>
<path d="M97.4617 47.0878L97.4225 46.8796L97.268 46.7417L97.2678 46.7416L97.2637 46.7375C97.2572 46.7313 97.2448 46.719 97.2271 46.7004C97.1916 46.6632 97.1349 46.6004 97.0621 46.5094C96.9165 46.3275 96.7062 46.0321 96.4735 45.6011C96.0085 44.7403 95.4493 43.3301 95.1419 41.1907C94.5302 36.9335 94.9148 29.7776 99.0439 18.3284C99.1593 18.2637 99.3394 18.1701 99.5882 18.0609C100.098 17.8374 100.896 17.5479 102.02 17.3089C104.266 16.8311 107.821 16.5523 112.969 17.4144L112.969 17.4145C118.1 18.2666 121.366 19.9393 123.336 21.372C124.323 22.0893 124.988 22.7494 125.402 23.2221C125.61 23.4585 125.754 23.6483 125.845 23.775C125.856 23.7908 125.866 23.8057 125.876 23.8195C125.777 34.8632 123.628 41.3481 121.545 45.0519C120.498 46.9143 119.464 48.0793 118.709 48.7717C118.331 49.1182 118.021 49.3474 117.812 49.4869C117.708 49.5566 117.628 49.604 117.578 49.6325C117.553 49.6467 117.536 49.6562 117.526 49.6614L117.519 49.665L117.518 49.6654L117.517 49.6659L117.517 49.666L117.517 49.666L117.516 49.6662L117.311 49.7649L117.219 49.9772L115.499 53.9366C115.493 53.9473 115.484 53.9614 115.474 53.9787C115.445 54.0265 115.401 54.0988 115.341 54.1915C115.22 54.3772 115.038 54.6443 114.794 54.9616C114.306 55.5973 113.576 56.4273 112.612 57.2061C110.69 58.7586 107.859 60.095 104.118 59.3206C101.152 58.705 99.7048 56.7813 98.9806 54.9693C98.616 54.057 98.4388 53.179 98.3534 52.5269C98.3109 52.2019 98.2915 51.9359 98.2828 51.7534C98.2784 51.6623 98.2767 51.5923 98.276 51.5464C98.2757 51.5235 98.2757 51.5067 98.2757 51.4963L98.2757 51.4856L98.2757 51.4849L98.2757 51.4845L98.2757 51.4842L98.2757 51.484L98.2767 51.4219L98.2651 51.3599L97.4617 47.0878ZM125.964 23.9524C125.964 23.9526 125.964 23.9526 125.964 23.9522L125.964 23.9524Z" stroke="#323232" stroke-width="1.24454"/>
<path d="M129.438 23.5088L129.438 23.5092L129.437 23.5094L129.437 23.5094L129.31 23.6186L129.255 23.7778L125.56 34.4703L124.885 34.4194L127.124 23.7647L127.22 23.3082L126.808 23.0881L117.659 18.1927L121.281 13.8054L121.303 13.7794L121.32 13.7531L121.32 13.7529L121.32 13.7529L121.321 13.7518L121.323 13.7491C121.326 13.7445 121.332 13.7361 121.34 13.7243C121.357 13.7006 121.385 13.6634 121.423 13.6156C121.499 13.5197 121.616 13.3822 121.772 13.226C122.087 12.912 122.552 12.5325 123.157 12.2572C124.322 11.7272 126.133 11.523 128.62 13.2565L128.62 13.2566C130.467 14.544 131.383 15.8183 131.772 16.9663C132.16 18.1117 132.049 19.2028 131.711 20.1718C131.37 21.1481 130.803 21.9852 130.31 22.5857C130.065 22.8839 129.843 23.1185 129.683 23.2773C129.603 23.3565 129.54 23.4165 129.497 23.4557C129.476 23.4753 129.46 23.4896 129.45 23.4985L129.439 23.5078L129.438 23.5088Z" fill="#323232" stroke="#323232" stroke-width="1.24454"/>
<path d="M99.1181 18.8416C98.5095 18.7119 98.5095 18.7119 98.5094 18.712L98.5094 18.7124L98.5091 18.7139L98.5078 18.7197L98.5029 18.7427L98.4838 18.8323L98.4114 19.1726L98.1527 20.3881C97.9387 21.3947 97.6533 22.7383 97.3679 24.0863C97.0826 25.4342 96.7971 26.787 96.5829 27.8119C96.4759 28.3241 96.3864 28.7553 96.3237 29.0632C96.2924 29.2169 96.2674 29.3414 96.2501 29.4305C96.2415 29.4747 96.2344 29.5126 96.2292 29.542C96.2266 29.5563 96.2239 29.572 96.2217 29.587C96.2206 29.5942 96.2191 29.6048 96.2177 29.6169L96.2176 29.6176C96.2168 29.6244 96.2131 29.6558 96.2131 29.694C96.2131 30.4052 95.8183 30.4804 95.7835 30.4761C95.7495 30.4719 95.6195 30.4397 95.4774 30.1785C95.3319 29.9111 95.2004 29.4398 95.2004 28.6866C95.2004 27.2292 95.4254 24.9261 95.6553 22.9612C95.7695 21.9844 95.8838 21.1005 95.9696 20.4607C96.0125 20.1409 96.0482 19.8823 96.0731 19.7039L96.1021 19.4987L96.1096 19.4456L96.1116 19.4323L96.112 19.429L96.1121 19.4282L96.1122 19.428L95.4963 19.3389L96.1122 19.428L96.1309 19.2984L96.0959 19.1724C95.3971 16.6575 95.4784 14.7466 95.9744 13.3075C96.4691 11.8722 97.3956 10.8491 98.492 10.139C99.595 9.42445 100.867 9.02982 102.018 8.87077C102.926 8.74517 103.712 8.77251 104.248 8.87603L104.475 16.8784L98.969 18.2374L98.5907 18.3308L98.5095 18.7119L99.1181 18.8416Z" fill="#323232" stroke="#323232" stroke-width="1.24454"/>
<path d="M109.206 3.2005L109.206 3.2003C112.403 1.95458 115.044 2.2648 117.118 3.3302C119.211 4.40593 120.778 6.28028 121.735 8.23611C122.146 9.08499 122.157 10.1018 121.882 11.2124C121.607 12.322 121.059 13.4672 120.434 14.5153C119.81 15.5595 119.124 16.4832 118.591 17.1475C118.326 17.4789 118.1 17.7441 117.941 17.9256C117.925 17.9436 117.91 17.9608 117.896 17.9771L103.776 16.6968C103.81 16.3565 103.862 15.8877 103.936 15.3272C104.096 14.1207 104.359 12.4966 104.775 10.817C105.192 9.13261 105.756 7.41892 106.507 6.01988C107.264 4.60776 108.163 3.60583 109.206 3.2005Z" fill="#323232" stroke="#323232" stroke-width="1.24454"/>
<path d="M96.0021 29.1047L96.0021 29.1047L96.0024 29.1075C96.2528 31.1403 95.7748 32.5304 95.2627 33.4009C95.0042 33.8403 94.7326 34.1545 94.5302 34.3551C94.4917 34.3933 94.4558 34.4273 94.4231 34.4571C93.9513 34.2865 93.6021 33.9182 93.3479 33.3674C93.0407 32.7016 92.8989 31.8132 92.8921 30.8554C92.8853 29.9054 93.0114 28.9355 93.2014 28.1376C93.2962 27.739 93.4048 27.3928 93.5156 27.1194C93.6312 26.8343 93.7324 26.6711 93.7941 26.602C93.927 26.4531 94.0524 26.4191 94.1892 26.4332C94.3567 26.4504 94.5931 26.5506 94.8607 26.7858C95.3952 27.2555 95.8851 28.1192 96.0021 29.1047Z" stroke="#323232" stroke-width="1.24454"/>
<path d="M128.336 35.347C128.557 36.6314 127.992 38.1762 127.032 39.3087C126.211 40.277 125.267 40.769 124.469 40.7126C124.477 40.6421 124.485 40.5656 124.494 40.4837C124.546 40.006 124.624 39.3446 124.731 38.6102C124.948 37.1248 125.272 35.4021 125.703 34.2809C125.902 33.7755 126.155 33.4824 126.381 33.3335C126.599 33.191 126.815 33.1631 127.024 33.2206C127.463 33.3418 128.093 33.9397 128.336 35.347Z" stroke="#323232" stroke-width="1.24454"/>
<path d="M95.1702 35.3329L95.1702 35.3331L95.17 35.3337L95.1686 35.338L95.1623 35.3576C95.1567 35.3754 95.1481 35.4026 95.137 35.4387C95.1148 35.511 95.0825 35.6187 95.0431 35.7572C94.9642 36.0343 94.8571 36.4341 94.7457 36.9198C94.5222 37.8942 94.2845 39.201 94.2183 40.5516C94.1518 41.9106 94.2619 43.2633 94.6948 44.358C95.1181 45.4286 95.8417 46.2403 97.0437 46.6085L97.0449 46.6089C100.205 47.5836 103.997 48.7066 107.578 49.5318C111.18 50.3619 114.492 50.8714 116.724 50.6647C118.374 50.5113 119.909 50.0794 121.065 48.7984C122.229 47.5072 123.11 45.2417 123.173 41.1874L123.174 41.1143L123.192 41.0435L124.894 34.3588C124.686 34.5858 124.445 34.8796 124.173 35.2596C123.706 35.9139 123.193 36.7919 122.611 37.7877C122.564 37.8684 122.516 37.9498 122.468 38.032C121.835 39.1147 121.131 40.3034 120.358 41.3984C119.586 42.4904 118.724 43.52 117.761 44.2705C116.794 45.0239 115.688 45.524 114.451 45.4789C114.45 45.4789 114.45 45.4789 114.45 45.4789L114.473 44.857C110.902 44.7295 103.901 43.4798 100.534 40.1131C99.0932 38.672 97.6394 31.6326 97.1675 28.623L95.1702 35.3329ZM95.1702 35.3329L95.1702 35.3329L95.1867 35.2825L95.1944 35.2298L96.2867 27.7776L95.1702 35.3329Z" fill="#323232" stroke="#323232" stroke-width="1.24454"/>
<path d="M110.689 28.7244L108.164 34.259L112.194 34.9349" stroke="#323232" stroke-width="1.24454" stroke-miterlimit="10" stroke-linecap="round" stroke-linejoin="round"/>
<path d="M105.902 38.4975L105.902 38.4975L105.906 38.496C106.186 38.3834 106.734 38.3169 107.499 38.3313C108.238 38.3451 109.101 38.4319 109.957 38.5696C110.813 38.7072 111.647 38.8932 112.327 39.1002C113.04 39.3172 113.487 39.5295 113.658 39.6775C113.701 39.7147 113.795 39.8318 113.919 40.0848C114.036 40.3235 114.156 40.6323 114.276 40.9961C114.516 41.7228 114.739 42.6167 114.93 43.496C115.12 44.3723 115.276 45.2206 115.385 45.8507C115.41 45.9952 115.432 46.128 115.452 46.247L113.745 46.4341L112.58 41.3254L112.413 40.5912L111.724 40.8938L111.724 40.8939L111.724 40.8939L111.724 40.8939L111.723 40.894L111.722 40.8948L111.71 40.8996C111.7 40.9041 111.683 40.9111 111.661 40.9201C111.618 40.9382 111.552 40.9644 111.47 40.9956C111.305 41.0583 111.075 41.1398 110.813 41.2154C110.263 41.3746 109.682 41.4754 109.284 41.4057C108.829 41.3263 108.263 40.9628 107.755 40.5376C107.514 40.3361 107.309 40.1399 107.163 39.9939C107.091 39.9212 107.034 39.8616 106.996 39.821C106.977 39.8007 106.963 39.7852 106.954 39.7752L106.944 39.7644L106.943 39.7625L106.942 39.7623L106.942 39.7623L106.942 39.7622L106.942 39.7621L106.304 39.0436L105.91 39.9206L104.001 44.1669L102.243 43.8886C102.268 43.8393 102.294 43.7879 102.321 43.7348C102.6 43.1861 102.988 42.4498 103.424 41.6958C103.863 40.9391 104.342 40.1781 104.804 39.5734C105.035 39.271 105.253 39.0186 105.452 38.8285C105.657 38.6318 105.809 38.5343 105.902 38.4975Z" fill="#323232" stroke="#323232" stroke-width="1.24454"/>
<path d="M102.207 24.393C102.207 24.393 103.521 22.1996 105.714 24.1762" stroke="#323232" stroke-width="1.24454" stroke-miterlimit="10" stroke-linecap="round" stroke-linejoin="round"/>
<path d="M118.633 26.6804C118.633 26.6804 120.558 25.3541 121.604 27.9174" stroke="#323232" stroke-width="1.24454" stroke-miterlimit="10" stroke-linecap="round" stroke-linejoin="round"/>
<path d="M103.699 28.0664C103.841 28.0273 104.261 27.9964 104.812 28.1855" stroke="#323232" stroke-width="1.49345" stroke-linecap="round"/>
<path d="M118.141 30.5122C118.288 30.5263 118.696 30.6481 119.15 31.0228" stroke="#323232" stroke-width="1.49345" stroke-linecap="round"/>
<path d="M106.013 158.397L248.857 103.098C253.42 101.334 258.09 104.8 258.232 110.084L261.336 218.726L386.904 208.065C391.647 211.353 391.056 219.191 385.935 221.96L251.844 294.315C249.883 295.373 247.732 295.926 245.504 295.924C226.598 295.91 136.44 295.828 105.186 295.927L100.993 166.444C100.862 162.883 102.924 159.597 106.013 158.397Z" fill="#F9F8F6" stroke="#323232" stroke-width="1.24454" stroke-miterlimit="10" stroke-linecap="round" stroke-linejoin="round"/>
<path d="M119.75 161.997C119.35 162.148 119.091 162.538 119.107 162.966L122.713 259.34C122.739 260.043 123.466 260.497 124.109 260.214L254.797 202.622C255.171 202.457 255.407 202.08 255.39 201.671L251.794 113.542C251.766 112.863 251.083 112.411 250.448 112.651L119.75 161.997Z" fill="#C6C5C8"/>
<path d="M117.874 267.319L114.268 170.945C114.262 170.785 114.359 170.638 114.509 170.582L245.206 121.235C245.445 121.145 245.701 121.315 245.711 121.569L249.307 209.699C249.313 209.852 249.225 209.994 249.085 210.055L118.397 267.647C118.156 267.753 117.883 267.583 117.874 267.319Z" stroke="#323232" stroke-width="1.24454"/>
<path d="M288.809 266.936C288.702 266.997 288.576 267.017 288.455 266.991L276.27 264.332C275.818 264.234 275.733 263.626 276.141 263.407L318.892 240.461C318.969 240.42 319.055 240.4 319.142 240.403L332.456 240.793C332.958 240.807 333.124 241.472 332.689 241.722L288.809 266.936Z" fill="#323232"/>
<mask id="mask0_2380_23528" style="mask-type:alpha" maskUnits="userSpaceOnUse" x="113" y="120" width="137" height="149">
<path d="M117.877 267.318L114.272 170.944C114.266 170.783 114.363 170.637 114.513 170.581L245.21 121.234C245.448 121.144 245.705 121.314 245.715 121.568L249.311 209.697C249.317 209.851 249.229 209.992 249.089 210.054L118.401 267.646C118.16 267.752 117.887 267.581 117.877 267.318Z" fill="#C4C4C4" stroke="#323232" stroke-width="1.24454"/>
</mask>
<g mask="url(#mask0_2380_23528)">
<path d="M117.877 267.318L114.272 170.944C114.266 170.783 114.363 170.637 114.513 170.581L245.21 121.234C245.448 121.144 245.705 121.314 245.715 121.568L249.311 209.697C249.317 209.851 249.229 209.992 249.089 210.054L118.401 267.646C118.16 267.752 117.887 267.581 117.877 267.318Z" stroke="#323232" stroke-width="1.24454" stroke-linejoin="round"/>
</g>
<path d="M256.161 224.701L121.53 287.045C121.165 287.214 121.242 287.785 121.631 287.785L231.22 287.785C231.277 287.785 231.334 287.77 231.386 287.742L365.881 215.914C366.242 215.721 366.125 215.151 365.732 215.185L256.279 224.67C256.239 224.673 256.199 224.684 256.161 224.701Z" stroke="#323232" stroke-width="1.24454"/>
<path d="M156.598 123.476C157.14 123.171 157.14 123.17 157.14 123.17L157.14 123.17L157.139 123.168L157.135 123.161L157.119 123.133L157.057 123.022L156.817 122.596C156.609 122.227 156.31 121.694 155.941 121.038C155.205 119.725 154.195 117.921 153.101 115.954C151.059 112.283 148.73 108.053 147.338 105.392L159.945 98.8811L159.945 98.881L171.337 92.9959C171.448 93.191 171.587 93.438 171.753 93.7317C172.204 94.533 172.846 95.6815 173.61 97.0699C175.14 99.8472 177.157 103.582 179.11 107.415C181.065 111.251 182.95 115.172 184.219 118.327C184.854 119.907 185.327 121.274 185.579 122.333C185.705 122.863 185.771 123.294 185.781 123.624C185.791 123.972 185.736 124.122 185.709 124.165C185.522 124.462 185.046 124.925 184.263 125.531C183.502 126.121 182.512 126.799 181.367 127.533C179.08 128.998 176.21 130.659 173.394 132.224C170.58 133.789 167.828 135.254 165.779 136.328C164.754 136.865 163.906 137.305 163.314 137.609C163.018 137.762 162.786 137.881 162.628 137.961L162.448 138.053L162.402 138.076L162.391 138.082L162.388 138.084L162.387 138.084C162.387 138.084 162.387 138.084 162.669 138.639L162.387 138.084C162.143 138.208 162.009 138.476 162.056 138.746L163.229 145.479C163.248 145.589 163.297 145.692 163.369 145.777L163.842 145.372L163.369 145.777L163.369 145.777L163.37 145.778L163.374 145.783L163.389 145.8L163.446 145.868C163.497 145.928 163.572 146.016 163.667 146.13C163.857 146.356 164.128 146.681 164.451 147.076C165.096 147.867 165.947 148.933 166.77 150.038C167.596 151.148 168.382 152.281 168.906 153.21C169.17 153.678 169.353 154.068 169.446 154.363C169.491 154.502 169.508 154.6 169.512 154.66C169.493 154.669 169.463 154.68 169.418 154.689C169.284 154.716 169.072 154.719 168.772 154.668C168.176 154.567 167.38 154.279 166.493 153.83C164.722 152.933 162.736 151.467 161.459 149.868C161.255 149.613 160.889 149.559 160.62 149.744C160.351 149.929 160.271 150.291 160.436 150.572L160.436 150.572L160.437 150.573L160.439 150.578L160.45 150.595L160.49 150.665C160.526 150.727 160.579 150.818 160.645 150.935C160.778 151.169 160.967 151.506 161.189 151.913C161.632 152.729 162.203 153.826 162.722 154.956C163.243 156.092 163.696 157.233 163.919 158.146C164.031 158.605 164.074 158.967 164.057 159.224C164.049 159.349 164.027 159.428 164.008 159.472C163.999 159.494 163.991 159.505 163.987 159.51C163.983 159.515 163.982 159.516 163.981 159.516C163.793 159.649 163.429 159.716 162.791 159.524C162.172 159.337 161.419 158.94 160.596 158.361C158.955 157.205 157.151 155.404 155.754 153.441C155.565 153.176 155.205 153.101 154.926 153.268C154.648 153.436 154.545 153.789 154.69 154.08L154.69 154.08L154.69 154.081L154.692 154.084L154.699 154.099L154.729 154.159C154.755 154.212 154.793 154.291 154.842 154.392C154.938 154.594 155.076 154.886 155.237 155.242C155.559 155.955 155.973 156.919 156.344 157.931C156.718 158.949 157.04 159.992 157.189 160.868C157.263 161.306 157.29 161.679 157.268 161.974C157.246 162.275 157.177 162.433 157.12 162.506C157.041 162.603 156.857 162.731 156.291 162.502C155.735 162.278 155.025 161.773 154.251 161.02C152.713 159.523 151.079 157.198 150.098 154.756C149.981 154.464 149.664 154.305 149.36 154.387C149.056 154.468 148.86 154.764 148.905 155.076L149.521 154.988L148.905 155.076L148.905 155.076L148.905 155.076L148.905 155.078L148.906 155.084L148.909 155.108L148.923 155.199C148.934 155.278 148.952 155.394 148.974 155.54C149.019 155.834 149.085 156.251 149.168 156.749C149.335 157.742 149.573 159.061 149.857 160.35L149.857 160.353C149.964 160.826 150.098 161.298 150.224 161.733C150.239 161.785 150.254 161.837 150.269 161.888C150.379 162.268 150.479 162.612 150.553 162.921C150.639 163.279 150.676 163.531 150.669 163.691C150.669 163.698 150.669 163.705 150.668 163.711C150.452 163.763 150.069 163.683 149.448 163.177C148.779 162.632 148.035 161.747 147.304 160.685C145.843 158.561 144.54 155.894 144.059 154.287C143.585 152.701 143.375 149.664 143.376 146.533C143.378 143.418 143.588 140.331 143.908 138.681L143.909 138.68C144.414 136.047 145.604 133.532 149.535 129.902L149.149 129.483L149.535 129.902C151.354 128.222 153.957 126.036 156.95 123.99C157.216 123.808 157.299 123.452 157.14 123.171L156.598 123.476ZM150.659 163.778C150.659 163.778 150.659 163.776 150.661 163.773C150.66 163.777 150.659 163.778 150.659 163.778ZM169.511 154.706C169.511 154.706 169.511 154.705 169.512 154.704L169.511 154.706ZM169.538 154.645C169.54 154.642 169.541 154.641 169.541 154.641C169.541 154.641 169.54 154.642 169.538 154.645Z" fill="#FFFAF7" stroke="#323232" stroke-width="1.24454" stroke-linejoin="round"/>
<line x1="342.75" y1="222.519" x2="342.75" y2="91.0186" stroke="#FF756C" stroke-width="0.5" stroke-linecap="round"/>
<line x1="327.75" y1="231.519" x2="327.75" y2="43.0186" stroke="#FF756C" stroke-width="0.5" stroke-linecap="round"/>
<line x1="278.75" y1="231.519" x2="278.75" y2="165.019" stroke="#FF756C" stroke-width="0.5" stroke-linecap="round"/>
<line x1="296.75" y1="246.519" x2="296.75" y2="85.0186" stroke="#FF756C" stroke-width="0.5" stroke-linecap="round"/>
<line x1="226.75" y1="260.519" x2="226.75" y2="87.0186" stroke="#FF756C" stroke-width="0.5" stroke-linecap="round"/>
<line x1="264.75" y1="245.519" x2="264.75" y2="64.0186" stroke="#FF756C" stroke-width="0.5" stroke-linecap="round"/>
<line x1="312.75" y1="224.519" x2="312.75" y2="120.019" stroke="#FF756C" stroke-width="0.5" stroke-linecap="round"/>
<line x1="208.75" y1="279.518" x2="208.75" y2="25.0181" stroke="#FF756C" stroke-width="0.5" stroke-linecap="round"/>
<line x1="191.75" y1="264.519" x2="191.75" y2="48.0188" stroke="#FF756C" stroke-width="0.5" stroke-linecap="round"/>
<line x1="241.75" y1="271.519" x2="241.75" y2="168.019" stroke="#FF756C" stroke-width="0.5" stroke-linecap="round"/>
<path d="M216.317 12.3568C216.941 13.0326 217.878 14.1008 218.655 15.1038C219.045 15.6066 219.384 16.0791 219.623 16.4699C219.743 16.6657 219.829 16.8273 219.883 16.9525C219.943 17.0933 219.937 17.128 219.937 17.0902L221.43 17.0708C221.427 16.8104 221.339 16.5576 221.254 16.3604C221.162 16.1475 221.037 15.9205 220.898 15.6915C220.617 15.2326 220.24 14.7105 219.836 14.1886C219.024 13.142 218.057 12.0401 217.414 11.3434L216.317 12.3568ZM219.937 17.0902C219.935 16.9356 220.015 16.8569 220.007 16.8645C219.994 16.8771 219.938 16.9237 219.8 16.9891C219.528 17.1183 219.109 17.244 218.585 17.3555C217.552 17.5757 216.29 17.7049 215.443 17.7548L215.531 19.2457C216.42 19.1933 217.763 19.0577 218.897 18.8161C219.457 18.6968 220.011 18.5423 220.441 18.3379C220.655 18.2364 220.881 18.1028 221.062 17.9212C221.249 17.7347 221.435 17.448 221.43 17.0708L219.937 17.0902Z" fill="#F94E1E"/>
<path d="M207.113 16.1437C206.489 15.4679 205.552 14.3996 204.774 13.3967C204.384 12.8939 204.045 12.4214 203.807 12.0306C203.687 11.8348 203.601 11.6732 203.547 11.5479C203.486 11.4072 203.492 11.3725 203.493 11.4103L202 11.4297C202.003 11.6901 202.091 11.9429 202.176 12.1401C202.268 12.3529 202.392 12.58 202.532 12.809C202.812 13.2678 203.189 13.79 203.594 14.3119C204.406 15.3585 205.372 16.4603 206.016 17.1571L207.113 16.1437ZM203.493 11.4103C203.495 11.5649 203.415 11.6436 203.423 11.636C203.435 11.6233 203.492 11.5768 203.63 11.5114C203.901 11.3822 204.321 11.2565 204.844 11.145C205.878 10.9248 207.139 10.7956 207.987 10.7457L207.899 9.2548C207.009 9.30722 205.667 9.44282 204.533 9.68434C203.973 9.80373 203.418 9.95816 202.988 10.1626C202.775 10.2641 202.549 10.3977 202.367 10.5793C202.18 10.7658 201.995 11.0525 202 11.4297L203.493 11.4103Z" fill="#F94E1E"/>
<line x1="0.746725" y1="-0.746725" x2="16.2952" y2="-0.746725" transform="matrix(-0.622488 0.78263 -0.711985 -0.702194 216.338 7.30127)" stroke="#F94E1E" stroke-width="1.49345" stroke-linecap="round"/>
<path d="M275.795 148.837C276.204 148.784 276.516 148.408 276.492 147.997C276.468 147.585 276.116 147.294 275.707 147.346L275.795 148.837ZM276.082 156.893C276.484 156.943 276.873 156.65 276.95 156.238C277.027 155.826 276.764 155.451 276.361 155.401L276.082 156.893ZM275.062 156.002L275.201 155.256L275.062 156.002ZM275.707 147.346L274.496 147.501L274.583 148.992L275.795 148.837L275.707 147.346ZM273.336 148.937L273.923 155.698L275.401 155.466L274.815 148.705L273.336 148.937ZM274.922 156.748L276.082 156.893L276.361 155.401L275.201 155.256L274.922 156.748ZM273.923 155.698C273.971 156.251 274.379 156.68 274.922 156.748L275.201 155.256C275.31 155.27 275.392 155.355 275.401 155.466L273.923 155.698ZM274.496 147.501C273.8 147.59 273.276 148.24 273.336 148.937L274.815 148.705C274.827 148.844 274.722 148.974 274.583 148.992L274.496 147.501Z" fill="#F94E1E"/>
<path d="M280.319 154.837C279.91 154.889 279.598 155.266 279.622 155.677C279.646 156.089 279.997 156.38 280.406 156.328L280.319 154.837ZM280.031 146.781C279.629 146.731 279.24 147.024 279.163 147.436C279.086 147.848 279.35 148.223 279.752 148.273L280.031 146.781ZM281.052 147.672L280.912 148.418L281.052 147.672ZM280.406 156.328L281.618 156.173L281.531 154.682L280.319 154.837L280.406 156.328ZM282.777 154.737L282.19 147.976L280.712 148.208L281.299 154.969L282.777 154.737ZM281.191 146.926L280.031 146.781L279.752 148.273L280.912 148.418L281.191 146.926ZM282.19 147.976C282.142 147.423 281.734 146.994 281.191 146.926L280.912 148.418C280.803 148.404 280.722 148.319 280.712 148.208L282.19 147.976ZM281.618 156.173C282.313 156.083 282.837 155.434 282.777 154.737L281.299 154.969C281.287 154.829 281.391 154.699 281.531 154.682L281.618 156.173Z" fill="#F94E1E"/>
<path d="M327.129 31.0842L331.993 34.7505" stroke="#F94E1E" stroke-width="1.49345" stroke-linecap="round"/>
<path d="M328.707 28.3979L334.059 32.0874" stroke="#F94E1E" stroke-width="1.49345" stroke-linecap="round"/>
<path d="M312.404 105.864L308.878 113.257" stroke="#F94E1E" stroke-width="1.49345" stroke-linecap="round"/>
<path d="M315.756 107.011L312.433 115.348" stroke="#F94E1E" stroke-width="1.49345" stroke-linecap="round"/>
<path d="M307.938 107.196L317.182 110.691" stroke="#F94E1E" stroke-width="1.49345" stroke-linecap="round"/>
<path d="M307.078 110.402L316.176 113.642" stroke="#F94E1E" stroke-width="1.49345" stroke-linecap="round"/>
<path d="M298.102 72.7844C298.398 73.805 298.642 76.0614 297.244 76.9223" stroke="#F94E1E" stroke-width="1.49345" stroke-linecap="round"/>
<path d="M298.715 68.5961L298.887 67.7686" stroke="#F94E1E" stroke-width="1.49345" stroke-linecap="round"/>
<path d="M242.298 154.609L242.141 153.796" stroke="#F94E1E" stroke-width="1.49345" stroke-linecap="round"/>
<path d="M242.911 158.421L242.965 157.58" stroke="#F94E1E" stroke-width="1.49345" stroke-linecap="round"/>
<path d="M265.827 48.391C264.181 49.5079 261.188 52.7375 262.382 56.7209" stroke="#F94E1E" stroke-width="1.49345" stroke-linecap="round"/>
<path d="M266.028 58.6527C267.674 57.5358 270.667 54.3062 269.473 50.3228" stroke="#F94E1E" stroke-width="1.49345" stroke-linecap="round"/>
<path d="M346.023 86.6265C346.257 86.9532 346.722 87.0136 347.061 86.7615C347.4 86.5093 347.484 86.04 347.25 85.7133L346.023 86.6265ZM341.649 78.8587L340.906 78.9667L341.649 78.8587ZM343.959 79.0118L343.227 78.9096L343.959 79.0118ZM340.921 84.5529L340.22 84.8451L340.921 84.5529ZM346.751 82.2796C346.787 81.8671 346.483 81.5214 346.072 81.5073C345.662 81.4932 345.3 81.8162 345.265 82.2287L346.751 82.2796ZM347.25 85.7133C345.847 83.7586 344.608 82.4013 343.764 81.357C342.895 80.2813 342.468 79.563 342.392 78.7507L340.906 78.9667C341.025 80.24 341.703 81.2422 342.585 82.3331C343.492 83.4555 344.648 84.7111 346.023 86.6265L347.25 85.7133ZM342.392 78.7507C342.356 78.3672 342.463 78.1957 342.522 78.1314C342.587 78.0602 342.687 78.015 342.81 78.0212C342.933 78.0274 343.056 78.0857 343.139 78.199C343.216 78.3045 343.301 78.5177 343.227 78.9096L344.692 79.1139C344.83 78.3887 344.706 77.75 344.358 77.2747C344.015 76.8072 343.495 76.5555 342.962 76.5286C342.429 76.5016 341.859 76.7 341.444 77.1548C341.023 77.6165 340.839 78.2535 340.906 78.9667L342.392 78.7507ZM343.227 78.9096C343.194 79.0792 343.061 79.2949 342.697 79.6242C342.522 79.7821 342.324 79.9408 342.097 80.1224C341.877 80.2984 341.632 80.4944 341.396 80.7051C340.929 81.1235 340.432 81.6577 340.16 82.3644C339.879 83.0968 339.876 83.918 340.22 84.8451L341.622 84.2607C341.381 83.6103 341.423 83.1674 341.55 82.8365C341.687 82.48 341.961 82.1519 342.358 81.7965C342.555 81.6203 342.765 81.4517 342.991 81.2711C343.21 81.096 343.447 80.9062 343.665 80.7096C344.084 80.3301 344.56 79.8131 344.692 79.1139L343.227 78.9096ZM340.22 84.8451C340.528 85.6749 341.112 86.206 341.85 86.4053C342.561 86.5972 343.329 86.4595 344.008 86.1438C345.354 85.5179 346.597 84.0763 346.751 82.2796L345.265 82.2287C345.164 83.3981 344.336 84.3766 343.438 84.7939C342.995 84.9999 342.599 85.0395 342.307 84.9608C342.043 84.8894 341.786 84.7017 341.622 84.2607L340.22 84.8451Z" fill="#F94E1E"/>
<path d="M234.081 39.3491L237.783 38.7642" stroke="#F94E1E" stroke-width="1.49345" stroke-linecap="round"/>
<path d="M234.315 42.1736L238.057 42.0591" stroke="#F94E1E" stroke-width="1.49345" stroke-linecap="round"/>
<path d="M244.868 42.4959C244.172 42.1694 243.111 41.6323 242.192 41.0865C241.732 40.8129 241.321 40.5452 241.014 40.3073C240.86 40.1882 240.743 40.085 240.662 40.0001C240.572 39.9059 240.563 39.8721 240.573 39.8979L239.199 40.5771C239.284 40.7946 239.432 40.976 239.564 41.1144C239.705 41.2621 239.876 41.4088 240.059 41.5506C240.425 41.8344 240.886 42.1326 241.367 42.4184C242.332 42.9914 243.433 43.5479 244.154 43.8864L244.868 42.4959ZM240.573 39.8979C240.618 40.0119 240.588 40.0986 240.59 40.0937C240.594 40.0823 240.618 40.0255 240.696 39.9192C240.853 39.7068 241.122 39.4333 241.48 39.1242C242.187 38.514 243.099 37.886 243.724 37.4956L243.051 36.2191C242.384 36.6359 241.395 37.3147 240.599 38.0011C240.206 38.3402 239.824 38.7124 239.554 39.0796C239.419 39.2631 239.286 39.4795 239.205 39.7168C239.122 39.9605 239.08 40.2714 239.199 40.5771L240.573 39.8979Z" fill="#F94E1E"/>
<path d="M221.785 69.1717C221.584 69.5151 221.718 69.9707 222.084 70.1892C222.451 70.4078 222.91 70.3066 223.111 69.9632L221.785 69.1717ZM226.443 67.63L226.703 66.9558L226.703 66.9558L226.443 67.63ZM225.123 73.4046L224.689 72.7749L225.123 73.4046ZM225.312 76.9091C225.631 77.1914 226.108 77.1826 226.378 76.8894C226.647 76.5962 226.607 76.1297 226.288 75.8473L225.312 76.9091ZM223.111 69.9632C223.356 69.5447 223.829 68.9544 224.419 68.5661C225.002 68.1821 225.591 68.056 226.183 68.3042L226.703 66.9558C225.456 66.4331 224.33 66.7921 223.517 67.3279C222.71 67.8593 222.105 68.6232 221.785 69.1717L223.111 69.9632ZM226.183 68.3042C226.492 68.4334 226.629 68.6241 226.688 68.9037C226.758 69.233 226.709 69.6935 226.52 70.2344C226.137 71.3292 225.313 72.3884 224.689 72.7749L225.558 74.0342C226.513 73.4434 227.498 72.097 227.955 70.7898C228.186 70.1297 228.315 69.39 228.169 68.699C228.013 67.9582 227.544 67.3084 226.703 66.9558L226.183 68.3042ZM224.689 72.7749C224.235 73.0558 223.945 73.4451 223.848 73.9149C223.755 74.3644 223.855 74.8051 224.007 75.1719C224.304 75.8898 224.888 76.5344 225.312 76.9091L226.288 75.8473C225.959 75.5566 225.573 75.1053 225.404 74.6982C225.323 74.5025 225.316 74.3734 225.332 74.296C225.344 74.239 225.38 74.1443 225.558 74.0342L224.689 72.7749Z" fill="#F94E1E"/>
<path d="M226.98 79.4153C226.88 79.3817 226.639 79.3011 226.478 79.2473" stroke="#F94E1E" stroke-width="1.49345" stroke-linecap="round"/>
<path d="M285.356 100.903L286.078 100.74L285.356 100.903ZM282.154 101.888L281.429 101.892L282.154 101.888ZM282.879 101.884C282.945 101.027 283.432 100.631 283.838 100.536C284.055 100.485 284.245 100.519 284.376 100.6C284.495 100.673 284.603 100.808 284.635 101.066L286.078 100.74C285.994 100.068 285.667 99.5579 285.193 99.2633C284.731 98.9763 284.17 98.9181 283.639 99.0428C282.548 99.2991 281.55 100.326 281.429 101.892L282.879 101.884ZM284.635 101.066C284.734 101.856 284.307 102.356 283.897 102.511C283.689 102.59 283.488 102.582 283.326 102.495C283.17 102.411 282.979 102.216 282.871 101.78L281.461 102.284C281.647 103.034 282.039 103.582 282.581 103.873C283.118 104.16 283.732 104.156 284.284 103.947C285.395 103.526 286.269 102.273 286.078 100.74L284.635 101.066ZM281.429 101.892C281.419 102.025 281.43 102.159 281.461 102.284L282.871 101.78C282.876 101.799 282.878 101.816 282.879 101.831C282.881 101.846 282.881 101.864 282.879 101.884L281.429 101.892Z" fill="#F94E1E"/>
<path d="M288.872 109.695L289.465 110.139L288.872 109.695ZM287.558 108.34C287.291 109.04 287.534 109.371 287.67 109.469C287.758 109.533 287.856 109.554 287.949 109.533C288.035 109.514 288.159 109.45 288.279 109.251L289.465 110.139C288.833 111.184 287.722 111.361 286.909 110.771C286.085 110.174 285.768 108.969 286.249 107.707L287.558 108.34ZM288.279 109.251C288.654 108.633 288.464 108.212 288.335 108.086C288.266 108.017 288.179 107.983 288.071 107.999C287.958 108.017 287.754 108.103 287.513 108.421L286.417 107.402C286.823 106.867 287.314 106.531 287.846 106.449C288.382 106.367 288.889 106.557 289.267 106.928C290.033 107.682 290.15 109.006 289.465 110.139L288.279 109.251ZM286.249 107.707C286.291 107.597 286.349 107.492 286.417 107.402L287.513 108.421C287.524 108.407 287.532 108.395 287.538 108.383C287.545 108.371 287.552 108.357 287.558 108.34L286.249 107.707Z" fill="#F94E1E"/>
<path d="M289.237 101.383L283.134 108.749" stroke="#F94E1E" stroke-width="1.49345" stroke-linecap="round"/>
<path d="M186.374 40.6387C186.15 40.985 186.249 41.4472 186.595 41.6712C186.942 41.8951 187.404 41.796 187.628 41.4497L186.374 40.6387ZM191.327 40.0234L190.796 40.5488L191.327 40.0234ZM197.063 41.7431C197.404 41.5112 197.493 41.0468 197.261 40.7057C197.029 40.3646 196.565 40.2761 196.224 40.5079L197.063 41.7431ZM187.628 41.4497C187.967 40.9247 188.526 40.3787 189.117 40.1414C189.401 40.0274 189.671 39.9922 189.927 40.0396C190.179 40.0863 190.474 40.2233 190.796 40.5488L191.857 39.498C191.351 38.987 190.79 38.6808 190.199 38.5712C189.612 38.4624 189.052 38.5579 188.56 38.7556C187.6 39.1416 186.824 39.9424 186.374 40.6387L187.628 41.4497ZM190.796 40.5488C191.857 41.6197 192.848 42.3477 193.907 42.5674C195.017 42.7973 196.036 42.4412 197.063 41.7431L196.224 40.5079C195.377 41.0832 194.773 41.2216 194.211 41.105C193.598 40.978 192.868 40.5182 191.857 39.498L190.796 40.5488Z" fill="#F94E1E"/>
</svg>
