<svg width="180" height="108" viewBox="0 0 180 108" fill="none" xmlns="http://www.w3.org/2000/svg">
<g clip-path="url(#clip0_2394_17855)">
<rect x="121" y="17" width="55" height="77" rx="3" fill="#FFD27C"/>
<rect x="28.5" y="1.5" width="124" height="105" rx="9.5" stroke="#323232" stroke-width="3"/>
<path d="M139.59 43.6354C136.779 43.6496 133.969 43.6496 131.158 43.6354C130.235 43.6307 129.472 43.3276 128.937 42.7988C128.402 42.27 128.091 41.5105 128.083 40.5832L128.083 40.5831C128.054 37.7729 128.057 34.9626 128.083 32.1522L128.083 32.1522C128.091 31.2234 128.396 30.462 128.927 29.9307C129.458 29.3994 130.219 29.0928 131.149 29.0835L131.149 29.0835C133.959 29.0551 136.77 29.0551 139.58 29.0835L139.58 29.0835C140.53 29.0928 141.293 29.4041 141.82 29.947C142.347 30.49 142.645 31.2708 142.653 32.2301M139.59 43.6354L139.59 43.6975M139.59 43.6354C139.59 43.6354 139.59 43.6354 139.59 43.6354L139.59 43.6975M139.59 43.6354C140.513 43.6295 141.272 43.323 141.803 42.7917C142.333 42.2603 142.641 41.4988 142.651 40.5736C142.661 39.6183 142.658 38.6622 142.656 37.7061C142.655 37.2714 142.653 36.8367 142.653 36.402C142.653 35.9386 142.654 35.4752 142.655 35.0119C142.657 34.0851 142.658 33.1582 142.653 32.2301M139.59 43.6975C141.465 43.6857 142.692 42.452 142.713 40.5743C142.723 39.6186 142.72 38.6618 142.718 37.7054C142.717 37.2708 142.716 36.8363 142.716 36.402C142.716 35.9388 142.716 35.4756 142.717 35.0123C142.719 34.0854 142.72 33.1581 142.716 32.2298M139.59 43.6975L139.581 29.0213M142.653 32.2301L142.716 32.2298M142.653 32.2301C142.653 32.2302 142.653 32.2303 142.653 32.2303L142.716 32.2298M142.716 32.2298C142.699 30.2858 141.508 29.0403 139.581 29.0213M139.581 29.0213C136.77 28.9929 133.959 28.9929 131.148 29.0213H139.581ZM131.292 30.9529L131.292 30.9529C132.244 30.9396 133.198 30.9426 134.15 30.9456C134.558 30.9469 134.966 30.9482 135.373 30.9482C135.805 30.9482 136.238 30.9465 136.671 30.9448C137.599 30.9412 138.528 30.9376 139.458 30.9505L139.458 30.9505C139.935 30.9577 140.275 31.0451 140.495 31.2671C140.714 31.489 140.798 31.831 140.801 32.31V32.31C140.812 35.0025 140.812 37.6926 140.801 40.3828V40.3828C140.798 40.8841 140.71 41.2401 140.482 41.4686C140.254 41.6972 139.9 41.7837 139.403 41.7849M131.292 30.9529L139.403 41.7227M131.292 30.9529C130.805 30.96 130.463 31.0392 130.246 31.2564M131.292 30.9529L130.246 31.2564M139.403 41.7849L139.403 41.7227M139.403 41.7849C139.403 41.7849 139.403 41.7849 139.403 41.7849L139.403 41.7227M139.403 41.7849C136.711 41.7944 134.021 41.7944 131.331 41.7849M139.403 41.7227C136.711 41.7322 134.021 41.7322 131.331 41.7227M131.331 41.7849L131.331 41.7227M131.331 41.7849C131.331 41.7849 131.331 41.7849 131.331 41.7849L131.331 41.7227M131.331 41.7849C130.848 41.7837 130.5 41.702 130.272 41.487C130.044 41.2712 129.953 40.9352 129.95 40.4635L129.95 40.4634C129.931 37.7424 129.933 35.0238 129.947 32.3029L131.331 41.7227M130.246 31.2564C130.028 31.4738 129.95 31.8146 129.947 32.3029L130.246 31.2564Z" fill="#323232" stroke="#9FCA78" stroke-width="0.124368"/>
<rect x="129.038" y="30.487" width="12.4368" height="11.815" fill="#323232"/>
<path d="M133.912 36.8626C135.063 35.7687 136.174 34.715 137.279 33.6565C137.699 33.2563 138.146 33.0195 138.7 33.3818C139.245 33.737 139.335 34.3977 138.823 34.902C137.329 36.3725 135.811 37.8193 134.27 39.24C133.739 39.7302 133.088 39.5786 132.707 38.9369C132.361 38.3544 132.065 37.7435 131.758 37.1373C131.464 36.5595 131.507 36.0291 132.115 35.6953C132.74 35.3519 133.181 35.655 133.507 36.2044C133.623 36.4009 133.749 36.5974 133.912 36.8626Z" fill="white"/>
<path d="M139.59 67.7032C136.779 67.7174 133.969 67.7174 131.158 67.7032C130.235 67.6986 129.472 67.3955 128.937 66.8667C128.402 66.3379 128.091 65.5784 128.083 64.6511L128.083 64.651C128.054 61.8408 128.057 59.0305 128.083 56.2201L128.083 56.2201C128.091 55.2913 128.396 54.5299 128.927 53.9986C129.458 53.4673 130.219 53.1607 131.149 53.1514L131.149 53.1514C133.959 53.123 136.77 53.123 139.58 53.1514L139.58 53.1514C140.53 53.1607 141.293 53.472 141.82 54.0148C142.347 54.5579 142.645 55.3387 142.653 56.298M139.59 67.7032L139.59 67.7654M139.59 67.7032C139.59 67.7032 139.59 67.7032 139.59 67.7032L139.59 67.7654M139.59 67.7032C140.513 67.6974 141.272 67.3909 141.803 66.8596C142.333 66.3281 142.641 65.5667 142.651 64.6414C142.661 63.6862 142.658 62.7301 142.656 61.774C142.655 61.3393 142.653 60.9046 142.653 60.4699C142.653 60.0065 142.654 59.5431 142.655 59.0797C142.657 58.153 142.658 57.2261 142.653 56.298M139.59 67.7654C141.465 67.7536 142.692 66.5199 142.713 64.6421C142.723 63.6865 142.72 62.7297 142.718 61.7733C142.717 61.3387 142.716 60.9042 142.716 60.4699C142.716 60.0067 142.716 59.5435 142.717 59.0801C142.719 58.1532 142.72 57.226 142.716 56.2977M139.59 67.7654L139.581 53.0892M142.653 56.298L142.716 56.2977M142.653 56.298C142.653 56.2981 142.653 56.2981 142.653 56.2982L142.716 56.2977M142.716 56.2977C142.699 54.3536 141.508 53.1081 139.581 53.0892M139.581 53.0892C136.77 53.0608 133.959 53.0608 131.148 53.0892H139.581ZM131.292 55.0208L131.292 55.0208C132.244 55.0075 133.198 55.0105 134.15 55.0135C134.558 55.0148 134.966 55.016 135.373 55.016C135.805 55.016 136.238 55.0144 136.671 55.0127C137.599 55.0091 138.528 55.0055 139.458 55.0184L139.458 55.0184C139.935 55.0256 140.275 55.113 140.495 55.3349C140.714 55.5568 140.798 55.8989 140.801 56.3779V56.3779C140.812 59.0704 140.812 61.7605 140.801 64.4506V64.4506C140.798 64.952 140.71 65.3079 140.482 65.5365C140.254 65.7651 139.9 65.8516 139.403 65.8528M131.292 55.0208L139.403 65.7906M131.292 55.0208C130.805 55.0279 130.463 55.1071 130.246 55.3243M131.292 55.0208L130.246 55.3243M139.403 65.8528L139.403 65.7906M139.403 65.8528C139.403 65.8528 139.403 65.8528 139.403 65.8528L139.403 65.7906M139.403 65.8528C136.711 65.8622 134.021 65.8622 131.331 65.8528M139.403 65.7906C136.711 65.8001 134.021 65.8001 131.331 65.7906M131.331 65.8528L131.331 65.7906M131.331 65.8528C131.331 65.8528 131.331 65.8528 131.331 65.8528L131.331 65.7906M131.331 65.8528C130.848 65.8516 130.5 65.7698 130.272 65.5549C130.044 65.3391 129.953 65.003 129.95 64.5313L129.95 64.5313C129.931 61.8103 129.933 59.0917 129.947 56.3708L131.331 65.7906M130.246 55.3243C130.028 55.5417 129.95 55.8824 129.947 56.3708L130.246 55.3243Z" fill="#323232" stroke="#9FCA78" stroke-width="0.124368"/>
<rect x="129.038" y="54.5547" width="12.4368" height="11.815" fill="#323232"/>
<path d="M133.912 60.9305C135.063 59.8365 136.174 58.7828 137.279 57.7244C137.699 57.3242 138.146 57.0874 138.7 57.4497C139.245 57.8049 139.335 58.4655 138.823 58.9699C137.329 60.4404 135.811 61.8871 134.27 63.3079C133.739 63.798 133.088 63.6465 132.707 63.0048C132.361 62.4223 132.065 61.8114 131.758 61.2052C131.464 60.6274 131.507 60.097 132.115 59.7631C132.74 59.4198 133.181 59.7229 133.507 60.2722C133.623 60.4688 133.749 60.6653 133.912 60.9305Z" fill="white"/>
<rect x="41.5" y="16.5" width="56" height="3" rx="1.5" stroke="#323232" stroke-width="3"/>
<rect x="40" y="33.1577" width="50" height="2" rx="1" fill="#767676"/>
<rect x="40" y="57.1577" width="50" height="2" rx="1" fill="#767676"/>
<rect x="40" y="62.1577" width="74" height="2" rx="1" fill="#767676"/>
<rect x="40" y="38.1577" width="74" height="2" rx="1" fill="#767676"/>
<rect x="40" y="80.0898" width="50" height="2" rx="1" fill="#767676"/>
<rect x="40" y="85.0898" width="74" height="2" rx="1" fill="#767676"/>
<circle cx="25.3807" cy="65.7619" r="19.4286" fill="#B6EBE8"/>
<circle cx="22.1433" cy="63.3333" r="19.8333" stroke="#323232" stroke-width="2.42857"/>
<rect x="21.333" y="42.2856" width="1.61905" height="6.47619" rx="0.809524" fill="#323232"/>
<rect x="21.333" y="77.9048" width="1.61905" height="6.47619" rx="0.809524" fill="#323232"/>
<rect x="43.1904" y="62.5238" width="1.61905" height="6.47619" rx="0.809524" transform="rotate(90 43.1904 62.5238)" fill="#323232"/>
<rect x="7.57129" y="62.5238" width="1.61905" height="6.47619" rx="0.809524" transform="rotate(90 7.57129 62.5238)" fill="#323232"/>
<rect x="21.333" y="60.9912" width="2.42857" height="8.62295" rx="1.21429" transform="rotate(-21.6516 21.333 60.9912)" fill="#323232"/>
<rect x="22.3779" y="60.0952" width="2.42857" height="14.7624" rx="1.21429" transform="rotate(40.5522 22.3779 60.0952)" fill="#323232"/>
<path d="M161.64 83.5576C160.973 83.3872 160.356 83.1303 159.791 82.787C159.232 82.4444 158.767 82.0464 158.397 81.593L159.17 80.7041C159.238 80.6254 159.322 80.5658 159.42 80.5253C159.526 80.4798 159.63 80.4632 159.735 80.4754C159.862 80.4902 159.993 80.5518 160.127 80.6599C160.262 80.7623 160.416 80.8842 160.587 81.0255C160.759 81.1669 160.956 81.3113 161.18 81.4587C161.404 81.6062 161.675 81.7273 161.993 81.8223L162.77 78.0308C162.372 77.8687 161.979 77.6871 161.591 77.4858C161.209 77.2852 160.87 77.0406 160.575 76.7519C160.286 76.4582 160.066 76.106 159.914 75.6954C159.762 75.2849 159.72 74.7889 159.788 74.2075C159.839 73.7744 159.975 73.3628 160.197 72.9727C160.425 72.5777 160.726 72.2373 161.1 71.9517C161.475 71.6661 161.92 71.4466 162.438 71.2933C162.955 71.14 163.534 71.0863 164.175 71.1323L164.397 70.0662C164.424 69.9308 164.497 69.815 164.614 69.7189C164.731 69.6228 164.873 69.5846 165.041 69.6042L165.833 69.6966L165.488 71.3636C166.091 71.5322 166.602 71.7652 167.02 72.0624C167.437 72.3596 167.794 72.6813 168.088 73.0277L167.476 73.7448C167.381 73.8493 167.29 73.9253 167.202 73.9728C167.114 74.0203 167.012 74.0373 166.896 74.0238C166.809 74.0136 166.708 73.9758 166.592 73.9103C166.483 73.8397 166.354 73.7583 166.207 73.6659C166.065 73.5685 165.906 73.4691 165.73 73.3676C165.554 73.2662 165.356 73.1766 165.136 73.0989L164.418 76.6027C164.821 76.7768 165.216 76.9645 165.604 77.1658C165.998 77.3621 166.344 77.5989 166.64 77.8761C166.943 78.1541 167.175 78.4845 167.336 78.8672C167.497 79.2443 167.547 79.7007 167.484 80.2365C167.422 80.7665 167.274 81.2547 167.04 81.7011C166.806 82.1417 166.495 82.5213 166.105 82.8397C165.722 83.1532 165.265 83.3916 164.734 83.555C164.204 83.7183 163.612 83.7849 162.957 83.7547L162.706 84.9992C162.679 85.129 162.607 85.2419 162.49 85.338C162.372 85.4398 162.229 85.4809 162.061 85.4612L161.27 85.3688L161.64 83.5576ZM165.411 80.3237C165.437 80.1071 165.418 79.9143 165.356 79.7452C165.3 79.5711 165.206 79.4129 165.076 79.2706C164.952 79.129 164.799 79.0014 164.618 78.8879C164.438 78.7743 164.239 78.6673 164.021 78.5668L163.32 82.0033C163.944 81.9952 164.431 81.8471 164.782 81.5588C165.14 81.2654 165.35 80.8537 165.411 80.3237ZM161.838 74.239C161.813 74.4556 161.828 74.6509 161.884 74.825C161.94 74.9991 162.027 75.1594 162.145 75.3061C162.27 75.4477 162.419 75.5807 162.592 75.7049C162.767 75.8235 162.959 75.9355 163.17 76.041L163.809 72.9093C163.486 72.912 163.205 72.9486 162.968 73.019C162.731 73.0838 162.532 73.1762 162.371 73.296C162.21 73.4159 162.085 73.5572 161.996 73.7201C161.913 73.8779 161.86 74.0509 161.838 74.239Z" fill="#323232"/>
</g>
<defs>
<clipPath id="clip0_2394_17855">
<rect width="180" height="108" fill="white"/>
</clipPath>
</defs>
</svg>
