<svg width="180" height="108" viewBox="0 0 180 108" fill="none" xmlns="http://www.w3.org/2000/svg">
<circle cx="113.5" cy="58.5" r="36.5" fill="#B6EBE8"/>
<path d="M29.6243 17.1125L29.5244 17.1069L29.5186 17.2125L29.6243 17.2125L29.6243 17.1125ZM29.6243 17.1125C70.1647 17.1092 110.382 17.1092 150.768 17.1092L30.1779 8.50083C29.8066 10.419 29.7612 12.4017 29.7153 14.4097C29.6948 15.3067 29.6741 16.2088 29.6243 17.1125ZM153.231 8.79041L153.231 8.79104C153.252 8.88038 153.292 8.96083 153.332 9.03286C153.346 9.05776 153.359 9.08108 153.372 9.10361C153.395 9.1432 153.416 9.18036 153.436 9.21938V9.37098V9.54575V9.72051V9.89527V10.07V10.2448V10.4196V10.5943V10.7691V10.9438V11.1186V11.2934V11.4681V11.6429V11.8176V11.9924V12.1672V12.3419V12.5167V12.6914V12.8662V13.041V13.2157V13.3905V13.5653V13.74V13.9148V14.0895V14.2643V14.4391V14.6138V14.7886V14.9633V15.1381V15.3129V15.4876V15.6624V15.8372V16.0119V16.1867V16.3614V16.5362V16.711V16.8857V17.0605V17.2352V17.41V17.5848V17.7595V17.9343V18.109V18.2838V18.4586V18.6333V18.8081V18.9829V19.1576V19.3324V19.5071V19.6819V19.8567V20.0314V20.2062V20.3809V20.5557V20.7305V20.9052V21.08V21.2548V21.4295V21.6043V21.779V21.9538V22.1286V22.3033V22.4781V22.6528V22.8276V23.0024V23.1771V23.3519V23.5266V23.7014V23.8762V24.0509V24.2257V24.4005V24.5752V24.75V24.9247V25.0995V25.2743V25.449V25.6238V25.7985V25.9733V26.1481V26.3228V26.4976V26.6723V26.8471V27.0219V27.1966V27.3714V27.5462V27.7209V27.8957V28.0704V28.2452V28.42V28.5947V28.7695V28.9442V29.119V29.2938V29.4685V29.6433V29.8181V29.9928V30.1676V30.3423V30.5171V30.6919V30.8666V31.0414V31.2161V31.3909V31.5657V31.7404V31.9152V32.09V32.2647V32.4395V32.6142V32.789V32.9638V33.1385V33.3133V33.488V33.6628V33.8376V34.0123V34.1871V34.3618V34.5366V34.7114V34.8861V35.0609V35.2357V35.4104V35.5852V35.7599V35.9347V36.1095V36.2842V36.459V36.6337V36.8085V36.9833V37.158V37.3328V37.5075V37.6823V37.8571V38.0318V38.2066V38.3814V38.5561V38.7309V38.9056V39.0804V39.2552V39.4299V39.6047V39.7794V39.9542V40.129V40.3037V40.4785V40.6533V40.828V41.0028V41.1775V41.3523V41.5271V41.7018V41.8766V42.0513V42.2261V42.4009V42.5756V42.7504V42.9251V43.0999V43.2747V43.4494V43.6242V43.799V43.9737V44.1485V44.3232V44.498V44.6728V44.8475V45.0223V45.197V45.3718V45.5466V45.7213V45.8961V46.0709V46.2456V46.4204V46.5951V46.7699V46.9447V47.1194V47.2942V47.4689V47.6437V47.8185V47.9932V48.168V48.3428V48.5175V48.6923V48.867V49.0418V49.2166V49.3913V49.5661V49.7408V49.9156V50.0904V50.2651V50.4399V50.6146V50.7894V50.9642V51.1389V51.3137V51.4885V51.6632V51.838V52.0127V52.1875V52.3623V52.537V52.7118V52.8865V53.0613V53.2361V53.4108V53.5856V53.7603V53.9351V54.1099V54.2846V54.4594V54.6342V54.8089V54.9837V55.1584V55.3332V55.508V55.6827V55.8575V56.0322V56.207V56.3818V56.5565V56.7313V56.9061V57.0808V57.2556V57.4303V57.6051V57.7799V57.9546V58.1294V58.3041V58.4789V58.6537V58.8284V59.0032V59.1779V59.3527V59.5275V59.7022V59.877V60.0518V60.2265V60.4013V60.576V60.7508V60.9256V61.1003V61.2751V61.4498V61.6246V61.7994V61.9741V62.1489V62.3237V62.4984V62.6732V62.8479V63.0227V63.1975V63.3722V63.547V63.7217V63.8965V64.0713V64.246V64.4208V64.5956V64.7703V64.9451V65.1198V65.2946V65.4694V65.6441V65.8189V65.9936V66.1684V66.3432V66.5179V66.6927V66.8674V67.0422V67.217V67.3917V67.5665V67.7412V67.916V68.0908V68.2655V68.4403V68.6151V68.7898V68.9646V69.1393V69.3141V69.4889V69.6636V69.8384V70.0131V70.1879V70.3627V70.5374V70.7122V70.887V71.0617V71.2365V71.4112V71.586V71.7608V71.9355V72.1103V72.285V72.4598V72.6346V72.8093V72.9841V73.1589V73.3336V73.5084V73.6831V73.8579V74.0327V74.2074V74.3822V74.5569V74.7317V74.9065V75.0812V75.256V75.4307V75.6055V75.7803V75.955V76.1298V76.3046V76.4793V76.6541V76.8288V77.0036V77.1784V77.3531V77.5279V77.7026V77.8774V78.0522V78.2269V78.4017V78.5765V78.7512V78.926V79.1007V79.2755V79.4503V79.625V79.7998V79.9745V80.1493V80.3241V80.4988V80.6736V80.8484V81.0231V81.1979V81.3726V81.5474V81.7222V81.8969V82.0717V82.2464V82.4212V82.596V82.7707V82.9455V83.1202V83.295V83.4698V83.6445V83.8193V83.994V84.1688V84.3436V84.5183V84.6931V84.8679V85.0426V85.2174V85.3921V85.5669V85.7417V85.9164V86.0912V86.2659V86.4407V86.6155V86.7902V86.965V87.1398V87.3145V87.4893V87.664V87.8388V88.0136V88.1883V88.3631V88.5378V88.7126V88.8874V89.0621V89.2369V89.4117V89.5864V89.7612V89.9359V90.1107V90.2855V90.4602V90.635V90.8097V90.9845V91.1593V91.334V91.5088V91.6835V91.8583V92.0331V92.2078V92.3826V92.5574V92.7321V92.9069V93.0816V93.2564V93.4312V93.6059V93.7807V93.9554V94.1302V94.305V94.4797V94.6545V94.8292V95.004V95.1788V95.3535V95.5283V95.7031V95.8778V96.0526V96.2273V96.4021V96.5769V96.7516V96.9264V97.1011V97.2759V97.4507V97.6254V97.8002V97.975V98.1497V98.3245V98.4992V98.6586C153.392 98.7962 153.348 98.934 153.304 99.072C153.19 99.4302 153.075 99.7895 152.969 100.148C151.65 104.556 147.677 107.612 143.08 107.749C142.752 107.759 142.424 107.762 142.095 107.762C130.576 107.762 119.057 107.763 107.538 107.763C84.501 107.764 61.4643 107.765 38.429 107.762C32.9826 107.762 28.8313 104.779 27.5197 99.8938C27.2487 98.8815 27.1211 97.8026 27.1178 96.7523C27.098 68.2052 27.0947 39.6581 27.1079 11.1111C27.1112 4.74578 31.7098 0.114424 38.06 0.111157C72.8635 0.0946786 107.667 0.0979743 142.467 0.111157C145.22 0.112793 147.596 0.933614 149.44 2.42554C151.284 3.91758 152.602 6.08542 153.231 8.79041ZM150.907 19.9929V19.8929H150.807H150.57H150.333H150.096H149.86H149.623H149.386H149.149H148.912H148.675H148.438H148.201H147.964H147.727H147.49H147.253H147.016H146.78H146.543H146.306H146.069H145.832H145.595H145.358H145.121H144.884H144.648H144.411H144.174H143.937H143.7H143.463H143.226H142.99H142.753H142.516H142.279H142.042H141.805H141.569H141.332H141.095H140.858H140.621H140.384H140.148H139.911H139.674H139.437H139.2H138.964H138.727H138.49H138.253H138.016H137.78H137.543H137.306H137.069H136.833H136.596H136.359H136.122H135.886H135.649H135.412H135.175H134.939H134.702H134.465H134.228H133.992H133.755H133.518H133.282H133.045H132.808H132.571H132.335H132.098H131.861H131.625H131.388H131.151H130.915H130.678H130.441H130.204H129.968H129.731H129.494H129.258H129.021H128.784H128.548H128.311H128.074H127.838H127.601H127.365H127.128H126.891H126.655H126.418H126.181H125.945H125.708H125.471H125.235H124.998H124.762H124.525H124.288H124.052H123.815H123.578H123.342H123.105H122.869H122.632H122.395H122.159H121.922H121.686H121.449H121.213H120.976H120.739H120.503H120.266H120.03H119.793H119.557H119.32H119.083H118.847H118.61H118.374H118.137H117.901H117.664H117.428H117.191H116.954H116.718H116.481H116.245H116.008H115.772H115.535H115.299H115.062H114.826H114.589H114.353H114.116H113.88H113.643H113.407H113.17H112.934H112.697H112.461H112.224H111.988H111.751H111.515H111.278H111.042H110.805H110.569H110.332H110.096H109.859H109.623H109.386H109.15H108.913H108.677H108.44H108.204H107.967H107.731H107.495H107.258H107.022H106.785H106.549H106.312H106.076H105.839H105.603H105.367H105.13H104.894H104.657H104.421H104.184H103.948H103.711H103.475H103.239H103.002H102.766H102.529H102.293H102.056H101.82H101.584H101.347H101.111H100.874H100.638H100.402H100.165H99.9288H99.6924H99.4559H99.2195H98.9831H98.7467H98.5103H98.2739H98.0376H97.8012H97.5648H97.3284H97.092H96.8556H96.6192H96.3828H96.1464H95.9101H95.6737H95.4373H95.2009H94.9645H94.7282H94.4918H94.2554H94.019H93.7827H93.5463H93.3099H93.0736H92.8372H92.6008H92.3645H92.1281H91.8917H91.6554H91.419H91.1827H90.9463H90.7099H90.4736H90.2372H90.0009H89.7645H89.5282H89.2918H89.0555H88.8191H88.5828H88.3464H88.1101H87.8737H87.6374H87.4011H87.1647H86.9284H86.692H86.4557H86.2193H85.983H85.7467H85.5103H85.274H85.0377H84.8013H84.565H84.3287H84.0923H83.856H83.6197H83.3834H83.147H82.9107H82.6744H82.438H82.2017H81.9654H81.7291H81.4928H81.2564H81.0201H80.7838H80.5475H80.3112H80.0748H79.8385H79.6022H79.3659H79.1296H78.8932H78.6569H78.4206H78.1843H77.948H77.7117H77.4754H77.2391H77.0027H76.7664H76.5301H76.2938H76.0575H75.8212H75.5849H75.3486H75.1123H74.876H74.6397H74.4033H74.167H73.9307H73.6944H73.4581H73.2218H72.9855H72.7492H72.5129H72.2766H72.0403H71.804H71.5677H71.3314H71.0951H70.8588H70.6225H70.3862H70.1499H69.9136H69.6773H69.441H69.2047H68.9684H68.7321H68.4958H68.2595H68.0232H67.7869H67.5506H67.3143H67.078H66.8417H66.6054H66.3691H66.1328H65.8965H65.6602H65.4239H65.1876H64.9513H64.715H64.4787H64.2424H64.0061H63.7698H63.5335H63.2972H63.0609H62.8246H62.5883H62.352H62.1157H61.8793H61.643H61.4067H61.1704H60.9341H60.6978H60.4615H60.2252H59.9889H59.7526H59.5163H59.28H59.0437H58.8074H58.5711H58.3348H58.0985H57.8622H57.6259H57.3896H57.1533H56.917H56.6806H56.4443H56.208H55.9717H55.7354H55.4991H55.2628H55.0265H54.7902H54.5539H54.3175H54.0812H53.8449H53.6086H53.3723H53.136H52.8997H52.6633H52.427H52.1907H51.9544H51.7181H51.4818H51.2454H51.0091H50.7728H50.5365H50.3001H50.0638H49.8275H49.5912H49.3548H49.1185H48.8822H48.6459H48.4095H48.1732H47.9369H47.7005H47.4642H47.2279H46.9915H46.7552H46.5189H46.2825H46.0462H45.8099H45.5735H45.3372H45.1009H44.8645H44.6282H44.3918H44.1555H43.9191H43.6828H43.4464H43.2101H42.9737H42.7374H42.501H42.2647H42.0283H41.792H41.5556H41.3193H41.0829H40.8466H40.6102H40.3738H40.1375H39.9011H39.6648H39.4284H39.192H38.9557H38.7193H38.4829H38.2465H38.0102H37.7738H37.5374H37.3011H37.0647H36.8283H36.5919H36.3555H36.1192H35.8828H35.6464H35.41H35.1736H34.9372H34.7008H34.4644H34.228H33.9917H33.7553H33.5189H33.2825H33.0461H32.8097H32.5733H32.3369H32.1004H31.864H31.6276H31.3912H31.1548H30.9184H30.682H30.4456H30.2091H29.9727H29.7363H29.6363V19.9929V19.9962V19.9994V20.0027V20.006V20.0093V20.0125V20.0158V20.0191V20.0223V20.0256V20.0288V20.0321V20.0353V20.0386V20.0418V20.0451V20.0483V20.0516V20.0548V20.058V20.0613V20.0645V20.0677V20.0709V20.0742V20.0774V20.0806V20.0838V20.087V20.0902V20.0934V20.0966V20.0998V20.103V20.1062V20.1094V20.1126V20.1158V20.119V20.1222V20.1254V20.1286V20.1317V20.1349V20.1381V20.1413V20.1444V20.1476V20.1508V20.1539V20.1571V20.1602V20.1634V20.1665V20.1697V20.1728V20.176V20.1791V20.1823V20.1854V20.1886V20.1917V20.1948V20.198V20.2011V20.2042V20.2073V20.2104V20.2136V20.2167V20.2198V20.2229V20.226V20.2291V20.2322V20.2353V20.2384V20.2415V20.2446V20.2477V20.2508V20.2539V20.257V20.2601V20.2632V20.2663V20.2693V20.2724V20.2755V20.2786V20.2816V20.2847V20.2878V20.2908V20.2939V20.297V20.3V20.3031V20.3061V20.3092V20.3122V20.3153V20.3183V20.3214V20.3244V20.3275V20.3305V20.3335V20.3366V20.3396V20.3426V20.3457V20.3487V20.3517V20.3547V20.3578V20.3608V20.3638V20.3668V20.3698V20.3728V20.3759V20.3789V20.3819V20.3849V20.3879V20.3909V20.3939V20.3969V20.3999V20.4029V20.4058V20.4088V20.4118V20.4148V20.4178V20.4208V20.4237V20.4267V20.4297V20.4327V20.4356V20.4386V20.4416V20.4445V20.4475V20.4505V20.4534V20.4564V20.4593V20.4623V20.4653V20.4682V20.4712V20.4741V20.4771V20.48V20.4829V20.4859V20.4888V20.4918V20.4947V20.4976V20.5006V20.5035V20.5064V20.5093V20.5123V20.5152V20.5181V20.521V20.524V20.5269V20.5298V20.5327V20.5356V20.5385V20.5414V20.5443V20.5472V20.5502V20.5531V20.556V20.5589V20.5618V20.5646V20.5675V20.5704V20.5733V20.5762V20.5791V20.582V20.5849V20.5878V20.5906V20.5935V20.5964V20.5993V20.6021V20.605V20.6079V20.6108V20.6136V20.6165V20.6194V20.6222V20.6251V20.628V20.6308V20.6337V20.6365V20.6394V20.6422V20.6451V20.6479V20.6508V20.6536V20.6565V20.6593V20.6622V20.665V20.6679V20.6707V20.6735V20.6764V20.6792V20.6821V20.6849V20.6877V20.6905V20.6934V20.6962V20.699V20.7019V20.7047V20.7075V20.7103V20.7131V20.716V20.7188V20.7216V20.7244V20.7272V20.73V20.7328V20.7356V20.7384V20.7413V20.7441V20.7469V20.7497V20.7525V20.7553V20.7581V20.7609V20.7637V20.7665V20.7692V20.772V20.7748V20.7776V20.7804V20.7832V20.786V20.7888V20.7915V20.7943V20.7971V20.7999V20.8027V20.8054V20.8082V20.811V20.8138V20.8165V20.8193V20.8221V20.8249V20.8276V20.8304V20.8332V20.8359V20.8387V20.8415V20.8442V20.847V20.8497V20.8525V20.8553V20.858V20.8608V20.8635V20.8663V20.869V20.8718V20.8745V20.8773V20.88V20.8828V20.8855V20.8883V20.891V20.8937V20.8965V20.8992V20.902V20.9047V20.9074V20.9102V20.9129V20.9157V20.9184V20.9211V20.9239V20.9266V20.9293V20.932V20.9348V20.9375V20.9402V20.943V20.9457V20.9484V20.9511V20.9538V20.9566V20.9593V20.962V20.9647V20.9674V20.9702V20.9729V20.9756V20.9783V20.981V20.9837V20.9864V20.9892V20.9919V20.9946V20.9973V21V21.0027V21.0054V21.0081V21.0108V21.0135V21.0162V21.0189V21.0216V21.0243V21.027V21.0297V21.0324V21.0351V21.0378V21.0405V21.0432V21.0459V21.0486V21.0513V21.054V21.0567V21.0594V21.0621V21.0647V21.0674V21.0701V21.0728V21.0755V21.0782V21.0809V21.0836V21.0862V21.0889V21.0916V21.0943V21.097V21.0997V21.1023V21.105V21.1077V21.1104V21.1131V21.1157V21.1184V21.1211V21.1238V21.1264V21.1291V21.1318V21.1345V21.1371V21.1398V21.1425V21.1451V21.1478V21.1505V21.1532V21.1558V21.1585V21.1612V21.1638V21.1665V21.1692V21.1718V21.1745V21.1772V21.1798V21.1825V21.1852V21.1878V21.1905V21.1932V21.1958V21.1985V21.2011V21.2038V21.2065V21.2091V21.2118V21.2144V21.2171V21.2198V21.2224V21.2251V21.2277V21.2304V21.2331V21.2357V21.2384V21.241V21.2437V21.2463V21.249V21.2516V21.2543V21.257V21.2596V21.2623V21.2649V21.2676V21.2702V21.2729V21.2755V21.2782V21.2808V21.2835V21.2861V21.2888V21.2914V21.2941V21.2967V21.2994V21.302V21.3047V21.3073V21.31V21.3126V21.3153V21.3179V21.3206V21.3232V21.3259V21.3285V21.3312V21.3338V21.3365V21.3391V21.3418V21.3444V21.347V21.3497V21.3523V21.355V21.3576V21.3603V21.3629V21.3656V21.3682V21.3709V21.3735V21.3762V21.3788V21.3814V21.3841V21.3867V21.3894V21.392V21.3947V21.3973V21.4V21.4026V21.4053V21.4079V21.4105V21.4132V21.4158V21.4185V21.4211V21.4238V21.4264V21.4291V21.4317V21.4343V21.437V21.4396V21.4423V21.4449V21.4476V21.4502V21.4529C29.6363 27.8424 29.6406 34.2319 29.645 40.6214C29.6575 59.1506 29.6701 77.6794 29.577 96.2083C29.5537 100.959 32.9427 105.293 38.5709 105.28C63.587 105.208 88.6031 105.214 113.621 105.221C123.072 105.223 132.524 105.225 141.976 105.224C142.029 105.224 142.082 105.224 142.135 105.224C142.903 105.225 143.701 105.225 144.45 105.053C148.389 104.146 150.901 100.924 150.904 96.8219C150.909 77.9213 150.908 59.019 150.908 40.1176C150.908 33.8124 150.907 27.5073 150.907 21.2024V21.2002V21.198V21.1958V21.1937V21.1915V21.1893V21.1871V21.1849V21.1828V21.1806V21.1784V21.1762V21.174V21.1719V21.1697V21.1675V21.1653V21.1631V21.161V21.1588V21.1566V21.1544V21.1522V21.1501V21.1479V21.1457V21.1435V21.1413V21.1392V21.137V21.1348V21.1326V21.1304V21.1283V21.1261V21.1239V21.1217V21.1195V21.1174V21.1152V21.113V21.1108V21.1086V21.1065V21.1043V21.1021V21.0999V21.0977V21.0956V21.0934V21.0912V21.089V21.0868V21.0846V21.0825V21.0803V21.0781V21.0759V21.0737V21.0716V21.0694V21.0672V21.065V21.0628V21.0606V21.0585V21.0563V21.0541V21.0519V21.0497V21.0475V21.0454V21.0432V21.041V21.0388V21.0366V21.0344V21.0323V21.0301V21.0279V21.0257V21.0235V21.0213V21.0191V21.0169V21.0148V21.0126V21.0104V21.0082V21.006V21.0038V21.0016V20.9994V20.9972V20.9951V20.9929V20.9907V20.9885V20.9863V20.9841V20.9819V20.9797V20.9775V20.9753V20.9731V20.9709V20.9687V20.9666V20.9644V20.9622V20.96V20.9578V20.9556V20.9534V20.9512V20.949V20.9468V20.9446V20.9424V20.9402V20.938V20.9358V20.9336V20.9314V20.9292V20.927V20.9248V20.9226V20.9204V20.9182V20.916V20.9137V20.9115V20.9093V20.9071V20.9049V20.9027V20.9005V20.8983V20.8961V20.8939V20.8917V20.8895V20.8872V20.885V20.8828V20.8806V20.8784V20.8762V20.874V20.8717V20.8695V20.8673V20.8651V20.8629V20.8607V20.8584V20.8562V20.854V20.8518V20.8495V20.8473V20.8451V20.8429V20.8406V20.8384V20.8362V20.834V20.8317V20.8295V20.8273V20.8251V20.8228V20.8206V20.8184V20.8161V20.8139V20.8117V20.8094V20.8072V20.805V20.8027V20.8005V20.7982V20.796V20.7938V20.7915V20.7893V20.787V20.7848V20.7825V20.7803V20.7781V20.7758V20.7736V20.7713V20.7691V20.7668V20.7646V20.7623V20.7601V20.7578V20.7556V20.7533V20.751V20.7488V20.7465V20.7443V20.742V20.7397V20.7375V20.7352V20.733V20.7307V20.7284V20.7262V20.7239V20.7216V20.7194V20.7171V20.7148V20.7125V20.7103V20.708V20.7057V20.7035V20.7012V20.6989V20.6966V20.6943V20.6921V20.6898V20.6875V20.6852V20.6829V20.6806V20.6784V20.6761V20.6738V20.6715V20.6692V20.6669V20.6646V20.6623V20.66V20.6577V20.6554V20.6531V20.6508V20.6485V20.6462V20.6439V20.6416V20.6393V20.637V20.6347V20.6324V20.6301V20.6278V20.6255V20.6232V20.6208V20.6185V20.6162V20.6139V20.6116V20.6093V20.6069V20.6046V20.6023V20.6V20.5976V20.5953V20.593V20.5907V20.5883V20.586V20.5837V20.5813V20.579V20.5767V20.5743V20.572V20.5696V20.5673V20.565V20.5626V20.5603V20.5579V20.5556V20.5532V20.5509V20.5485V20.5462V20.5438V20.5414V20.5391V20.5367V20.5344V20.532V20.5296V20.5273V20.5249V20.5226V20.5202V20.5178V20.5154V20.5131V20.5107V20.5083V20.5059V20.5036V20.5012V20.4988V20.4964V20.494V20.4917V20.4893V20.4869V20.4845V20.4821V20.4797V20.4773V20.4749V20.4725V20.4701V20.4677V20.4653V20.4629V20.4605V20.4581V20.4557V20.4533V20.4509V20.4485V20.4461V20.4436V20.4412V20.4388V20.4364V20.434V20.4315V20.4291V20.4267V20.4243V20.4218V20.4194V20.417V20.4145V20.4121V20.4097V20.4072V20.4048V20.4023V20.3999V20.3975V20.395V20.3926V20.3901V20.3877V20.3852V20.3828V20.3803V20.3778V20.3754V20.3729V20.3705V20.368V20.3655V20.3631V20.3606V20.3581V20.3556V20.3532V20.3507V20.3482V20.3457V20.3432V20.3408V20.3383V20.3358V20.3333V20.3308V20.3283V20.3258V20.3233V20.3208V20.3183V20.3158V20.3133V20.3108V20.3083V20.3058V20.3033V20.3008V20.2983V20.2957V20.2932V20.2907V20.2882V20.2857V20.2831V20.2806V20.2781V20.2756V20.273V20.2705V20.268V20.2654V20.2629V20.2603V20.2578V20.2552V20.2527V20.2501V20.2476V20.245V20.2425V20.2399V20.2374V20.2348V20.2322V20.2297V20.2271V20.2245V20.222V20.2194V20.2168V20.2142V20.2117V20.2091V20.2065V20.2039V20.2013V20.1987V20.1961V20.1935V20.191V20.1884V20.1858V20.1832V20.1805V20.1779V20.1753V20.1727V20.1701V20.1675V20.1649V20.1623V20.1596V20.157V20.1544V20.1518V20.1491V20.1465V20.1439V20.1412V20.1386V20.136V20.1333V20.1307V20.128V20.1254V20.1227V20.1201V20.1174V20.1148V20.1121V20.1095V20.1068V20.1041V20.1015V20.0988V20.0961V20.0934V20.0908V20.0881V20.0854V20.0827V20.08V20.0773V20.0747V20.072V20.0693V20.0666V20.0639V20.0612V20.0585V20.0558V20.0531V20.0503V20.0476V20.0449V20.0422V20.0395V20.0368V20.034V20.0313V20.0286V20.0258V20.0231V20.0204V20.0176V20.0149V20.0121V20.0094V20.0067V20.0039V20.0012V19.9984V19.9956V19.9929Z" fill="#323232" stroke="white" stroke-width="0.2"/>
<path d="M122.777 14.1123C125.222 14.1414 127.033 12.4133 127.052 10.0458C127.071 7.62385 125.311 5.80248 122.953 5.78639L122.777 14.1123ZM122.777 14.1123C120.465 14.0833 118.734 12.2942 118.741 9.9315M122.777 14.1123L118.741 9.9315M118.741 9.9315C118.747 7.56188 120.566 5.77028 122.953 5.78639L118.741 9.9315ZM124.418 9.7733L124.419 9.76275L124.417 9.75236C124.35 9.3758 124.207 9.02928 123.944 8.7859C123.678 8.54017 123.303 8.41114 122.799 8.4473L122.799 8.4473C122.347 8.47979 121.985 8.62292 121.741 8.88687C121.495 9.15126 121.381 9.52251 121.394 9.98363L121.394 9.98379C121.41 10.4759 121.556 10.8581 121.835 11.1114C122.113 11.3642 122.508 11.4736 122.991 11.4549L122.991 11.4549C123.459 11.4359 123.813 11.2865 124.053 10.9939C124.289 10.7052 124.4 10.2924 124.418 9.7733Z" fill="#323232" stroke="white" stroke-width="0.2"/>
<path d="M142.726 9.91631L142.726 9.91617C142.694 7.56303 140.838 5.7671 138.461 5.78643C136.232 5.80574 134.322 7.71594 134.309 9.94502L142.726 9.91631ZM142.726 9.91631C142.761 12.2652 140.932 14.1026 138.552 14.1091C136.19 14.1155 134.296 12.2538 134.309 9.94504L142.726 9.91631ZM138.201 8.44382L138.201 8.44293L138.187 8.44498C137.858 8.49608 137.544 8.65603 137.318 8.92627C137.091 9.19746 136.96 9.57326 136.986 10.0455L136.986 10.0456C137.01 10.4811 137.16 10.8349 137.429 11.0819C137.698 11.3282 138.075 11.4579 138.533 11.4682L138.534 11.4682C139.047 11.4785 139.447 11.3261 139.715 11.0479C139.983 10.7706 140.109 10.3809 140.102 9.9396L140.102 9.93922C140.093 9.49432 139.946 9.10815 139.627 8.83854C139.309 8.57062 138.836 8.43033 138.201 8.44382Z" fill="#323232" stroke="white" stroke-width="0.2"/>
<path d="M111.47 10.009L111.47 10.0088C111.502 7.73563 109.567 5.79274 107.266 5.7863L111.47 10.009ZM111.47 10.009C111.441 12.3311 109.56 14.1315 107.175 14.1089C104.841 14.0864 103.092 12.3219 103.082 9.97357L111.47 10.009ZM107.222 8.44366C106.75 8.44714 106.375 8.5961 106.115 8.85844C105.856 9.12021 105.72 9.48484 105.706 9.90145L105.706 9.90171C105.693 10.3499 105.807 10.7479 106.102 11.0318C106.395 11.3148 106.852 11.4681 107.487 11.4648V11.4648L107.491 11.4647C107.842 11.4506 108.174 11.3171 108.417 11.0607C108.66 10.8037 108.806 10.431 108.8 9.95276L108.8 9.95272C108.793 9.49071 108.655 9.1075 108.382 8.84124C108.11 8.57492 107.716 8.43855 107.222 8.44366ZM107.222 8.44366C107.223 8.44366 107.223 8.44366 107.223 8.44366L107.223 8.54365L107.222 8.44366C107.222 8.44366 107.222 8.44366 107.222 8.44366ZM103.082 9.97357C103.073 7.60351 104.896 5.77986 107.266 5.7863L103.082 9.97357Z" fill="#323232" stroke="white" stroke-width="0.2"/>
<path d="M53.0672 36.6769C53.0672 38.0669 53.079 39.4592 53.0648 40.8492C53.0435 42.7269 51.8169 43.9606 49.9415 43.9724C47.1308 43.9866 44.3202 43.9866 41.5095 43.9724C39.6365 43.963 38.3886 42.7411 38.372 40.8587C38.3436 38.048 38.3459 35.2373 38.372 32.4266C38.3886 30.5417 39.6128 29.3152 41.5 29.2962C44.3107 29.2678 47.1214 29.2678 49.9321 29.2962C51.8595 29.3152 53.0506 30.5607 53.0672 32.5047C53.0743 33.897 53.0672 35.287 53.0672 36.6769ZM45.7243 31.2852C44.3651 31.2852 43.0036 31.271 41.6444 31.29C40.676 31.3042 40.3658 31.6073 40.361 32.5781C40.3468 35.2988 40.3445 38.0172 40.3634 40.7379C40.3705 41.6708 40.7257 41.9952 41.6823 41.9976C44.3722 42.0071 47.0622 42.0071 49.7545 41.9976C50.7395 41.9952 51.0852 41.6519 51.09 40.6574C51.1018 37.9675 51.1018 35.2775 51.09 32.5852C51.0852 31.6357 50.7537 31.3018 49.8089 31.2876C48.445 31.2687 47.0859 31.2852 45.7243 31.2852Z" fill="#323232"/>
<rect x="39.3906" y="30.762" width="12.4368" height="11.815" fill="#323232"/>
<path d="M44.2649 37.1378C45.4157 36.0438 46.5262 34.9901 47.632 33.9316C48.0512 33.5315 48.4987 33.2947 49.0528 33.657C49.5974 34.0122 49.6874 34.6728 49.1759 35.1772C47.6818 36.6476 46.1639 38.0944 44.6224 39.5152C44.092 40.0053 43.4409 39.8538 43.0596 39.2121C42.7139 38.6296 42.4179 38.0186 42.1101 37.4125C41.8165 36.8347 41.8591 36.3043 42.4677 35.9704C43.0928 35.6271 43.5332 35.9302 43.86 36.4795C43.976 36.676 44.1015 36.8726 44.2649 37.1378Z" fill="white"/>
<path d="M53.0672 60.7451C53.0672 62.135 53.079 63.5273 53.0648 64.9173C53.0435 66.795 51.8169 68.0287 49.9415 68.0406C47.1308 68.0548 44.3202 68.0548 41.5095 68.0406C39.6365 68.0311 38.3886 66.8092 38.372 64.9268C38.3436 62.1161 38.3459 59.3054 38.372 56.4947C38.3886 54.6098 39.6128 53.3833 41.5 53.3643C44.3107 53.3359 47.1214 53.3359 49.9321 53.3643C51.8595 53.3833 53.0506 54.6288 53.0672 56.5728C53.0743 57.9652 53.0672 59.3551 53.0672 60.7451ZM45.7243 55.3534C44.3651 55.3534 43.0036 55.3392 41.6444 55.3581C40.676 55.3723 40.3658 55.6754 40.361 56.6462C40.3468 59.3669 40.3445 62.0853 40.3634 64.806C40.3705 65.739 40.7257 66.0634 41.6823 66.0657C44.3722 66.0752 47.0622 66.0752 49.7545 66.0657C50.7395 66.0634 51.0852 65.72 51.09 64.7255C51.1018 62.0356 51.1018 59.3456 51.09 56.6533C51.0852 55.7038 50.7537 55.3699 49.8089 55.3557C48.445 55.3368 47.0859 55.3534 45.7243 55.3534Z" fill="#323232"/>
<rect x="39.3906" y="54.8301" width="12.4368" height="11.815" fill="#323232"/>
<path d="M53.0672 84.8129C53.0672 86.2029 53.079 87.5952 53.0648 88.9852C53.0435 90.8629 51.8169 92.0966 49.9415 92.1084C47.1308 92.1226 44.3202 92.1226 41.5095 92.1084C39.6365 92.099 38.3886 90.8771 38.372 88.9946C38.3436 86.1839 38.3459 83.3733 38.372 80.5626C38.3886 78.6777 39.6128 77.4511 41.5 77.4322C44.3107 77.4038 47.1214 77.4038 49.9321 77.4322C51.8595 77.4511 53.0506 78.6967 53.0672 80.6407C53.0743 82.033 53.0672 83.423 53.0672 84.8129ZM45.7243 79.4212C44.3651 79.4212 43.0036 79.407 41.6444 79.426C40.676 79.4402 40.3658 79.7433 40.361 80.7141C40.3468 83.4348 40.3445 86.1532 40.3634 88.8739C40.3705 89.8068 40.7257 90.1312 41.6823 90.1336C44.3722 90.1431 47.0622 90.1431 49.7545 90.1336C50.7395 90.1312 51.0852 89.7879 51.09 88.7934C51.1018 86.1034 51.1018 83.4135 51.09 80.7212C51.0852 79.7717 50.7537 79.4378 49.8089 79.4236C48.445 79.4047 47.0859 79.4212 45.7243 79.4212Z" fill="#323232"/>
<rect x="40.6094" y="64.1208" width="12" height="2.43" rx="1.215" transform="rotate(-45 40.6094 64.1208)" fill="white"/>
<rect x="49.0957" y="65.8394" width="12" height="2.43" rx="1.215" transform="rotate(-135 49.0957 65.8394)" fill="white"/>
<mask id="path-14-outside-1_2394_17962" maskUnits="userSpaceOnUse" x="78.6997" y="28.714" width="59.3771" height="64.0834" fill="black">
<rect fill="white" x="78.6997" y="28.714" width="59.3771" height="64.0834"/>
<path d="M131.135 42.5612C131.377 42.7902 131.599 43.0391 131.37 43.3976C131.124 43.7638 130.808 43.6597 130.476 43.5224C127.83 42.4405 125.112 41.6643 122.202 41.9539C121.253 42.0442 120.352 42.333 119.479 42.8814C120.221 44.0452 120.626 45.3056 120.548 46.6909C120.465 48.0883 119.935 49.2916 119.005 50.3596C120.73 52.4441 121.761 54.8525 122.363 57.5311C123.049 57.01 123.674 56.5075 124.325 56.0428C124.513 55.9048 124.793 55.8147 125.024 55.8176C126.584 55.8854 128.155 55.9987 129.728 56.0709C130.105 56.0865 130.405 56.1982 130.408 56.6294C130.41 56.9907 130.135 57.1795 129.648 57.1647C128.214 57.0884 126.773 56.9955 125.334 56.9314C125.119 56.9208 124.856 57.0031 124.685 57.1334C124.075 57.5584 123.512 58.0422 122.899 58.4793C122.656 58.6526 122.576 58.8308 122.618 59.1236C123.033 62.2317 122.784 65.2869 121.955 68.3205C121.861 68.6461 121.922 68.8491 122.182 69.0704C123.078 69.8202 123.954 70.5898 124.846 71.3517C125.129 71.582 125.248 71.8484 125.246 72.2219C125.25 73.6795 125.271 75.1294 125.287 76.5914C125.292 77.0925 125.106 77.3701 124.746 77.3469C124.276 77.3244 124.212 76.9818 124.207 76.5916C124.194 75.2692 124.197 73.9391 124.159 72.6077C124.148 72.3816 124.028 72.1152 123.868 71.9584C123.205 71.3513 122.517 70.7762 121.834 70.1889C121.739 70.1122 121.64 70.0476 121.459 69.9107C121.191 70.6293 120.966 71.3081 120.697 71.9568C119.617 74.564 118.122 76.8917 116.234 78.9899C116.073 79.1657 115.997 79.4425 115.951 79.6752C115.893 80.0142 115.929 80.3601 115.875 80.6869C115.538 82.4749 115.888 84.1032 116.807 85.6377C117.231 86.3362 117.525 87.1251 117.877 87.8666C118.046 88.2207 118.062 88.5455 117.665 88.7306C117.301 88.9002 117.066 88.6878 116.904 88.3503C116.189 86.8219 115.461 85.289 114.749 83.7484C114.667 83.5653 114.656 83.3391 114.659 83.1463C114.702 82.2608 114.756 81.3797 114.819 80.4045C114.462 80.7016 114.159 80.9634 113.833 81.2163C111.261 83.2404 108.433 84.6697 105.148 84.9027C100.003 85.2477 96.1551 83.025 93.4826 78.6743C92.2571 76.6788 91.5878 74.4744 91.2312 72.1645C91.209 72.0037 91.1823 71.8551 91.1394 71.6033C90.6091 72.2934 90.1151 72.8861 89.672 73.5254C89.3842 73.9314 89.0411 74.1919 88.5916 74.3713C87.225 74.958 85.8778 75.5659 84.5187 76.1693C84.4571 76.188 84.4029 76.2233 84.3413 76.2419C84.0105 76.3961 83.6981 76.3908 83.5383 76.0123C83.3739 75.6461 83.5742 75.4017 83.917 75.252C84.8627 74.8413 85.783 74.3519 86.7541 74.02C88.0468 73.5583 88.9679 72.7364 89.8025 71.6326C90.6281 70.5532 91.066 69.5237 91.0512 68.1315C91.0219 65.2362 91.7312 62.4494 92.7783 59.7469C92.8236 59.6251 92.869 59.5033 92.9325 59.3328C92.7748 59.3157 92.6622 59.2876 92.536 59.2961C91.6228 59.289 90.7142 59.2697 89.7994 59.3036C89.5801 59.3051 89.311 59.4407 89.1544 59.6042C88.2811 60.5549 87.4227 61.5389 86.5688 62.5107C86.48 62.6024 86.4045 62.7684 86.3023 62.7859C86.0814 62.8284 85.7869 62.8852 85.6084 62.7772C85.3385 62.6212 85.3347 62.3008 85.535 62.0565C86.6103 60.8204 87.693 59.601 88.7877 58.3861C88.9022 58.2623 89.1636 58.221 89.3589 58.2104C90.5815 58.1941 91.7876 58.1855 93.0086 58.2102C93.309 58.2111 93.467 58.1173 93.5998 57.8339C94.9657 54.9727 96.8128 52.4709 99.1608 50.3497C99.2872 50.2303 99.3299 49.9689 99.3379 49.7638C99.3488 49.5876 99.2501 49.4122 99.2444 49.2437C99.239 47.7163 98.5175 46.6434 97.2155 45.8814C96.4776 45.4403 95.8346 44.8542 95.1449 44.3201C94.7506 44.0208 94.6657 43.698 94.9202 43.4183C95.2214 43.0867 95.505 43.2061 95.8003 43.4409C97.0297 44.3977 98.2682 45.3303 99.481 46.2949C99.6819 46.4529 99.8495 46.7371 99.9165 46.9978C100.11 47.7632 100.246 48.5351 100.417 49.3613C102.624 47.7285 104.979 46.5805 107.636 46.1272C107.763 43.0684 109.296 41.1154 112.25 40.121C111.924 39.5282 111.659 38.9166 111.294 38.3924C110.218 36.8407 108.708 35.7932 107.047 34.967C105.892 34.3982 104.667 33.9424 103.468 33.4544C103.161 33.3261 102.835 33.2464 102.867 32.8286C102.897 32.382 103.237 32.3143 103.599 32.2965C104.499 32.6317 105.399 32.9669 106.3 33.3021C106.49 33.4146 106.681 33.5271 106.876 33.6275C109.683 35.0468 112.228 36.7292 113.308 39.9601C115.453 39.8157 117.297 40.5162 118.728 41.9226C119.327 41.6738 119.839 41.4348 120.37 41.2579C122.16 40.6347 123.99 40.6778 125.829 40.9881C126.704 41.1337 127.576 41.3613 128.45 41.5479C129.334 41.8908 130.234 42.226 131.135 42.5612ZM120.189 70.4224C121.035 68.1858 121.551 65.8818 121.696 63.5091C121.939 59.5505 121.323 55.7712 119.144 52.4084C116.693 48.6392 113.217 46.7767 108.697 47.1324C105.35 47.3841 102.489 48.8986 100.012 51.1103C95.4397 55.2047 92.9675 60.4136 92.2566 66.4724C91.7894 70.4447 92.3017 74.2825 94.2762 77.791C96.2283 81.2495 99.1116 83.4184 103.124 83.8027C106.291 84.108 109.159 83.1233 111.776 81.3798C115.811 78.6938 118.463 74.9108 120.189 70.4224ZM118.242 49.5072C119.648 48.2278 119.876 45.7057 118.757 43.7915C117.429 41.5219 114.538 40.4736 112.035 41.3585C110.002 42.0852 108.549 44.1514 108.782 45.9854C112.452 45.7846 115.609 46.96 118.242 49.5072Z"/>
</mask>
<path d="M131.135 42.5612C131.377 42.7902 131.599 43.0391 131.37 43.3976C131.124 43.7638 130.808 43.6597 130.476 43.5224C127.83 42.4405 125.112 41.6643 122.202 41.9539C121.253 42.0442 120.352 42.333 119.479 42.8814C120.221 44.0452 120.626 45.3056 120.548 46.6909C120.465 48.0883 119.935 49.2916 119.005 50.3596C120.73 52.4441 121.761 54.8525 122.363 57.5311C123.049 57.01 123.674 56.5075 124.325 56.0428C124.513 55.9048 124.793 55.8147 125.024 55.8176C126.584 55.8854 128.155 55.9987 129.728 56.0709C130.105 56.0865 130.405 56.1982 130.408 56.6294C130.41 56.9907 130.135 57.1795 129.648 57.1647C128.214 57.0884 126.773 56.9955 125.334 56.9314C125.119 56.9208 124.856 57.0031 124.685 57.1334C124.075 57.5584 123.512 58.0422 122.899 58.4793C122.656 58.6526 122.576 58.8308 122.618 59.1236C123.033 62.2317 122.784 65.2869 121.955 68.3205C121.861 68.6461 121.922 68.8491 122.182 69.0704C123.078 69.8202 123.954 70.5898 124.846 71.3517C125.129 71.582 125.248 71.8484 125.246 72.2219C125.25 73.6795 125.271 75.1294 125.287 76.5914C125.292 77.0925 125.106 77.3701 124.746 77.3469C124.276 77.3244 124.212 76.9818 124.207 76.5916C124.194 75.2692 124.197 73.9391 124.159 72.6077C124.148 72.3816 124.028 72.1152 123.868 71.9584C123.205 71.3513 122.517 70.7762 121.834 70.1889C121.739 70.1122 121.64 70.0476 121.459 69.9107C121.191 70.6293 120.966 71.3081 120.697 71.9568C119.617 74.564 118.122 76.8917 116.234 78.9899C116.073 79.1657 115.997 79.4425 115.951 79.6752C115.893 80.0142 115.929 80.3601 115.875 80.6869C115.538 82.4749 115.888 84.1032 116.807 85.6377C117.231 86.3362 117.525 87.1251 117.877 87.8666C118.046 88.2207 118.062 88.5455 117.665 88.7306C117.301 88.9002 117.066 88.6878 116.904 88.3503C116.189 86.8219 115.461 85.289 114.749 83.7484C114.667 83.5653 114.656 83.3391 114.659 83.1463C114.702 82.2608 114.756 81.3797 114.819 80.4045C114.462 80.7016 114.159 80.9634 113.833 81.2163C111.261 83.2404 108.433 84.6697 105.148 84.9027C100.003 85.2477 96.1551 83.025 93.4826 78.6743C92.2571 76.6788 91.5878 74.4744 91.2312 72.1645C91.209 72.0037 91.1823 71.8551 91.1394 71.6033C90.6091 72.2934 90.1151 72.8861 89.672 73.5254C89.3842 73.9314 89.0411 74.1919 88.5916 74.3713C87.225 74.958 85.8778 75.5659 84.5187 76.1693C84.4571 76.188 84.4029 76.2233 84.3413 76.2419C84.0105 76.3961 83.6981 76.3908 83.5383 76.0123C83.3739 75.6461 83.5742 75.4017 83.917 75.252C84.8627 74.8413 85.783 74.3519 86.7541 74.02C88.0468 73.5583 88.9679 72.7364 89.8025 71.6326C90.6281 70.5532 91.066 69.5237 91.0512 68.1315C91.0219 65.2362 91.7312 62.4494 92.7783 59.7469C92.8236 59.6251 92.869 59.5033 92.9325 59.3328C92.7748 59.3157 92.6622 59.2876 92.536 59.2961C91.6228 59.289 90.7142 59.2697 89.7994 59.3036C89.5801 59.3051 89.311 59.4407 89.1544 59.6042C88.2811 60.5549 87.4227 61.5389 86.5688 62.5107C86.48 62.6024 86.4045 62.7684 86.3023 62.7859C86.0814 62.8284 85.7869 62.8852 85.6084 62.7772C85.3385 62.6212 85.3347 62.3008 85.535 62.0565C86.6103 60.8204 87.693 59.601 88.7877 58.3861C88.9022 58.2623 89.1636 58.221 89.3589 58.2104C90.5815 58.1941 91.7876 58.1855 93.0086 58.2102C93.309 58.2111 93.467 58.1173 93.5998 57.8339C94.9657 54.9727 96.8128 52.4709 99.1608 50.3497C99.2872 50.2303 99.3299 49.9689 99.3379 49.7638C99.3488 49.5876 99.2501 49.4122 99.2444 49.2437C99.239 47.7163 98.5175 46.6434 97.2155 45.8814C96.4776 45.4403 95.8346 44.8542 95.1449 44.3201C94.7506 44.0208 94.6657 43.698 94.9202 43.4183C95.2214 43.0867 95.505 43.2061 95.8003 43.4409C97.0297 44.3977 98.2682 45.3303 99.481 46.2949C99.6819 46.4529 99.8495 46.7371 99.9165 46.9978C100.11 47.7632 100.246 48.5351 100.417 49.3613C102.624 47.7285 104.979 46.5805 107.636 46.1272C107.763 43.0684 109.296 41.1154 112.25 40.121C111.924 39.5282 111.659 38.9166 111.294 38.3924C110.218 36.8407 108.708 35.7932 107.047 34.967C105.892 34.3982 104.667 33.9424 103.468 33.4544C103.161 33.3261 102.835 33.2464 102.867 32.8286C102.897 32.382 103.237 32.3143 103.599 32.2965C104.499 32.6317 105.399 32.9669 106.3 33.3021C106.49 33.4146 106.681 33.5271 106.876 33.6275C109.683 35.0468 112.228 36.7292 113.308 39.9601C115.453 39.8157 117.297 40.5162 118.728 41.9226C119.327 41.6738 119.839 41.4348 120.37 41.2579C122.16 40.6347 123.99 40.6778 125.829 40.9881C126.704 41.1337 127.576 41.3613 128.45 41.5479C129.334 41.8908 130.234 42.226 131.135 42.5612ZM120.189 70.4224C121.035 68.1858 121.551 65.8818 121.696 63.5091C121.939 59.5505 121.323 55.7712 119.144 52.4084C116.693 48.6392 113.217 46.7767 108.697 47.1324C105.35 47.3841 102.489 48.8986 100.012 51.1103C95.4397 55.2047 92.9675 60.4136 92.2566 66.4724C91.7894 70.4447 92.3017 74.2825 94.2762 77.791C96.2283 81.2495 99.1116 83.4184 103.124 83.8027C106.291 84.108 109.159 83.1233 111.776 81.3798C115.811 78.6938 118.463 74.9108 120.189 70.4224ZM118.242 49.5072C119.648 48.2278 119.876 45.7057 118.757 43.7915C117.429 41.5219 114.538 40.4736 112.035 41.3585C110.002 42.0852 108.549 44.1514 108.782 45.9854C112.452 45.7846 115.609 46.96 118.242 49.5072Z" fill="#323232"/>
<path d="M131.135 42.5612C131.377 42.7902 131.599 43.0391 131.37 43.3976C131.124 43.7638 130.808 43.6597 130.476 43.5224C127.83 42.4405 125.112 41.6643 122.202 41.9539C121.253 42.0442 120.352 42.333 119.479 42.8814C120.221 44.0452 120.626 45.3056 120.548 46.6909C120.465 48.0883 119.935 49.2916 119.005 50.3596C120.73 52.4441 121.761 54.8525 122.363 57.5311C123.049 57.01 123.674 56.5075 124.325 56.0428C124.513 55.9048 124.793 55.8147 125.024 55.8176C126.584 55.8854 128.155 55.9987 129.728 56.0709C130.105 56.0865 130.405 56.1982 130.408 56.6294C130.41 56.9907 130.135 57.1795 129.648 57.1647C128.214 57.0884 126.773 56.9955 125.334 56.9314C125.119 56.9208 124.856 57.0031 124.685 57.1334C124.075 57.5584 123.512 58.0422 122.899 58.4793C122.656 58.6526 122.576 58.8308 122.618 59.1236C123.033 62.2317 122.784 65.2869 121.955 68.3205C121.861 68.6461 121.922 68.8491 122.182 69.0704C123.078 69.8202 123.954 70.5898 124.846 71.3517C125.129 71.582 125.248 71.8484 125.246 72.2219C125.25 73.6795 125.271 75.1294 125.287 76.5914C125.292 77.0925 125.106 77.3701 124.746 77.3469C124.276 77.3244 124.212 76.9818 124.207 76.5916C124.194 75.2692 124.197 73.9391 124.159 72.6077C124.148 72.3816 124.028 72.1152 123.868 71.9584C123.205 71.3513 122.517 70.7762 121.834 70.1889C121.739 70.1122 121.64 70.0476 121.459 69.9107C121.191 70.6293 120.966 71.3081 120.697 71.9568C119.617 74.564 118.122 76.8917 116.234 78.9899C116.073 79.1657 115.997 79.4425 115.951 79.6752C115.893 80.0142 115.929 80.3601 115.875 80.6869C115.538 82.4749 115.888 84.1032 116.807 85.6377C117.231 86.3362 117.525 87.1251 117.877 87.8666C118.046 88.2207 118.062 88.5455 117.665 88.7306C117.301 88.9002 117.066 88.6878 116.904 88.3503C116.189 86.8219 115.461 85.289 114.749 83.7484C114.667 83.5653 114.656 83.3391 114.659 83.1463C114.702 82.2608 114.756 81.3797 114.819 80.4045C114.462 80.7016 114.159 80.9634 113.833 81.2163C111.261 83.2404 108.433 84.6697 105.148 84.9027C100.003 85.2477 96.1551 83.025 93.4826 78.6743C92.2571 76.6788 91.5878 74.4744 91.2312 72.1645C91.209 72.0037 91.1823 71.8551 91.1394 71.6033C90.6091 72.2934 90.1151 72.8861 89.672 73.5254C89.3842 73.9314 89.0411 74.1919 88.5916 74.3713C87.225 74.958 85.8778 75.5659 84.5187 76.1693C84.4571 76.188 84.4029 76.2233 84.3413 76.2419C84.0105 76.3961 83.6981 76.3908 83.5383 76.0123C83.3739 75.6461 83.5742 75.4017 83.917 75.252C84.8627 74.8413 85.783 74.3519 86.7541 74.02C88.0468 73.5583 88.9679 72.7364 89.8025 71.6326C90.6281 70.5532 91.066 69.5237 91.0512 68.1315C91.0219 65.2362 91.7312 62.4494 92.7783 59.7469C92.8236 59.6251 92.869 59.5033 92.9325 59.3328C92.7748 59.3157 92.6622 59.2876 92.536 59.2961C91.6228 59.289 90.7142 59.2697 89.7994 59.3036C89.5801 59.3051 89.311 59.4407 89.1544 59.6042C88.2811 60.5549 87.4227 61.5389 86.5688 62.5107C86.48 62.6024 86.4045 62.7684 86.3023 62.7859C86.0814 62.8284 85.7869 62.8852 85.6084 62.7772C85.3385 62.6212 85.3347 62.3008 85.535 62.0565C86.6103 60.8204 87.693 59.601 88.7877 58.3861C88.9022 58.2623 89.1636 58.221 89.3589 58.2104C90.5815 58.1941 91.7876 58.1855 93.0086 58.2102C93.309 58.2111 93.467 58.1173 93.5998 57.8339C94.9657 54.9727 96.8128 52.4709 99.1608 50.3497C99.2872 50.2303 99.3299 49.9689 99.3379 49.7638C99.3488 49.5876 99.2501 49.4122 99.2444 49.2437C99.239 47.7163 98.5175 46.6434 97.2155 45.8814C96.4776 45.4403 95.8346 44.8542 95.1449 44.3201C94.7506 44.0208 94.6657 43.698 94.9202 43.4183C95.2214 43.0867 95.505 43.2061 95.8003 43.4409C97.0297 44.3977 98.2682 45.3303 99.481 46.2949C99.6819 46.4529 99.8495 46.7371 99.9165 46.9978C100.11 47.7632 100.246 48.5351 100.417 49.3613C102.624 47.7285 104.979 46.5805 107.636 46.1272C107.763 43.0684 109.296 41.1154 112.25 40.121C111.924 39.5282 111.659 38.9166 111.294 38.3924C110.218 36.8407 108.708 35.7932 107.047 34.967C105.892 34.3982 104.667 33.9424 103.468 33.4544C103.161 33.3261 102.835 33.2464 102.867 32.8286C102.897 32.382 103.237 32.3143 103.599 32.2965C104.499 32.6317 105.399 32.9669 106.3 33.3021C106.49 33.4146 106.681 33.5271 106.876 33.6275C109.683 35.0468 112.228 36.7292 113.308 39.9601C115.453 39.8157 117.297 40.5162 118.728 41.9226C119.327 41.6738 119.839 41.4348 120.37 41.2579C122.16 40.6347 123.99 40.6778 125.829 40.9881C126.704 41.1337 127.576 41.3613 128.45 41.5479C129.334 41.8908 130.234 42.226 131.135 42.5612ZM120.189 70.4224C121.035 68.1858 121.551 65.8818 121.696 63.5091C121.939 59.5505 121.323 55.7712 119.144 52.4084C116.693 48.6392 113.217 46.7767 108.697 47.1324C105.35 47.3841 102.489 48.8986 100.012 51.1103C95.4397 55.2047 92.9675 60.4136 92.2566 66.4724C91.7894 70.4447 92.3017 74.2825 94.2762 77.791C96.2283 81.2495 99.1116 83.4184 103.124 83.8027C106.291 84.108 109.159 83.1233 111.776 81.3798C115.811 78.6938 118.463 74.9108 120.189 70.4224ZM118.242 49.5072C119.648 48.2278 119.876 45.7057 118.757 43.7915C117.429 41.5219 114.538 40.4736 112.035 41.3585C110.002 42.0852 108.549 44.1514 108.782 45.9854C112.452 45.7846 115.609 46.96 118.242 49.5072Z" stroke="#323232" mask="url(#path-14-outside-1_2394_17962)"/>
<circle cx="109" cy="62" r="36" stroke="#323232" stroke-width="2"/>
<path d="M142.566 77L168.819 92.5489C170.483 93.5339 171.032 95.6808 170.047 97.3439C169.062 99.0071 166.915 99.5568 165.252 98.5718L138.999 83.0229L142.566 77Z" fill="#323232"/>
</svg>
