<svg width="180" height="108" viewBox="0 0 180 108" fill="none" xmlns="http://www.w3.org/2000/svg">
<circle cx="139.5" cy="73.5" r="30.5" fill="#FF756C"/>
<path d="M153.696 98.7986C153.537 99.3002 153.372 99.8017 153.224 100.303C151.891 104.758 147.876 107.847 143.23 107.985C142.9 107.995 142.57 107.999 142.24 107.999C107.64 107.999 73.0401 108.002 38.4434 107.999C32.95 107.999 28.75 104.986 27.4236 100.046C27.1498 99.023 27.0211 97.934 27.0178 96.8748C26.998 68.2915 26.9947 39.7083 27.0079 11.125C27.0112 4.69695 31.66 0.014471 38.0739 0.0111711C72.9214 -0.00532808 107.769 -0.00202824 142.613 0.0111711C148.166 0.014471 152.221 3.32421 153.488 8.77885C153.524 8.93065 153.626 9.06264 153.696 9.20783C153.696 39.0714 153.696 68.935 153.696 98.7986ZM150.964 20.0181C110.471 20.0181 70.14 20.0181 29.7398 20.0181C29.7398 20.5791 29.7398 21.0279 29.7398 21.48C29.7398 46.4301 29.8057 71.3802 29.6804 96.3303C29.6573 101.039 33.0127 105.326 38.5853 105.312C73.0962 105.213 107.607 105.263 142.121 105.256C142.943 105.256 143.788 105.27 144.576 105.088C148.473 104.191 150.957 101.006 150.96 96.9441C150.967 71.7069 150.964 46.4664 150.964 21.2292C150.964 20.8563 150.964 20.49 150.964 20.0181ZM150.924 17.1308C150.924 14.91 150.941 12.8542 150.921 10.7984C150.898 8.45547 150.004 6.48546 148.295 4.88504C146.496 3.20212 144.325 2.76984 141.927 2.77314C111.745 2.80284 81.5623 2.79294 51.3801 2.79294C46.761 2.79294 42.1452 2.77314 37.5262 2.82264C34.1312 2.85894 30.8252 5.18533 30.1819 8.51157C29.6441 11.29 29.7893 14.2038 29.6276 17.1341C70.2192 17.1308 110.488 17.1308 150.924 17.1308Z" fill="#323232"/>
<path d="M127.278 10.0592C127.258 12.4878 125.397 14.2599 122.897 14.2302C120.524 14.2005 118.749 12.3625 118.756 9.94367C118.762 7.51498 120.63 5.67697 123.075 5.69347C125.493 5.70997 127.298 7.58098 127.278 10.0592ZM124.441 9.78198C124.312 9.05271 123.893 8.48844 122.926 8.55773C122.055 8.62043 121.587 9.10551 121.613 9.99317C121.643 10.9435 122.174 11.4055 123.108 11.3692C124.005 11.3329 124.404 10.8016 124.441 9.78198Z" fill="#323232"/>
<path d="M138.694 14.2269C136.276 14.2335 134.333 12.3262 134.346 9.95692C134.359 7.67012 136.315 5.71332 138.602 5.69352C141.037 5.67372 142.941 7.51503 142.974 9.92722C143.01 12.3361 141.132 14.2203 138.694 14.2269ZM138.345 8.55448C137.728 8.65018 137.177 9.15175 137.226 10.0526C137.272 10.8842 137.794 11.3626 138.678 11.3824C139.664 11.4022 140.159 10.7984 140.146 9.95362C140.129 9.10556 139.588 8.52808 138.345 8.55448Z" fill="#323232"/>
<path d="M107.277 14.2268C104.885 14.2037 103.09 12.3921 103.08 9.98647C103.07 7.55779 104.941 5.68678 107.369 5.69338C109.728 5.69998 111.711 7.68978 111.678 10.0228C111.648 12.4053 109.718 14.2499 107.277 14.2268ZM107.59 11.379C108.247 11.3526 108.818 10.8807 108.804 9.96667C108.791 9.07902 108.277 8.54444 107.326 8.55434C106.422 8.56094 105.934 9.12191 105.908 9.91718C105.881 10.7784 106.346 11.3856 107.59 11.379Z" fill="#323232"/>
<mask id="path-6-inside-1_2394_17888" fill="white">
<rect x="38" y="62" width="56" height="37" rx="2"/>
</mask>
<rect x="38" y="62" width="56" height="37" rx="2" stroke="#323232" stroke-width="5" mask="url(#path-6-inside-1_2394_17888)"/>
<rect x="103" y="87" width="39" height="12" rx="2" fill="#323232"/>
<path d="M93 65L39 96" stroke="#323232" stroke-width="2.5"/>
<path d="M39 65L93 96" stroke="#323232" stroke-width="2.5"/>
<path d="M164.446 33.5547C165.838 33.5646 173.571 31.7677 173.632 32.521C173.88 35.5851 171.866 38.8009 171.509 41.8458" stroke="#323232" stroke-width="3" stroke-linecap="round"/>
<path d="M122.496 84.5559C134.034 61.2196 146.029 80.3351 156.532 69.7668C167.035 59.1984 158.038 45.1134 171.041 34.5444" stroke="#323232" stroke-width="3" stroke-linecap="round"/>
<rect x="38" y="29" width="77" height="2" rx="1" fill="#323232"/>
<rect x="38" y="40" width="46" height="2" rx="1" fill="#767676"/>
<rect x="38" y="45" width="46" height="2" rx="1" fill="#767676"/>
</svg>
