<svg width="180" height="108" viewBox="0 0 180 108" fill="none" xmlns="http://www.w3.org/2000/svg">
<g clip-path="url(#clip0_2394_17990)">
<path d="M87.6871 66.7948C91.4935 45.454 76.9747 24.6991 55.64 20.9824C34.2516 17.2562 13.4708 31.8589 9.89821 53.1307C6.31607 74.4562 20.5702 94.8315 41.7757 98.7135C63.0691 102.6 83.8826 88.125 87.6871 66.7948Z" fill="#FFD27C"/>
<path d="M29.7122 16.6117L29.6123 16.6062L29.6065 16.7117L29.7122 16.7117L29.7122 16.6117ZM29.7122 16.6117C70.2526 16.6084 110.47 16.6084 150.856 16.6084L30.2658 8.0001C29.8945 9.91824 29.8491 11.9009 29.8032 13.909C29.7827 14.806 29.762 15.7081 29.7122 16.6117ZM153.319 8.28968L153.319 8.29031C153.34 8.37964 153.38 8.4601 153.42 8.53213C153.434 8.55703 153.447 8.58035 153.46 8.60288C153.483 8.64247 153.504 8.67963 153.524 8.71865V8.87025V9.04501V9.21977V9.39454V9.5693V9.74406V9.91882V10.0936V10.2683V10.4431V10.6179V10.7926V10.9674V11.1421V11.3169V11.4917V11.6664V11.8412V12.016V12.1907V12.3655V12.5402V12.715V12.8898V13.0645V13.2393V13.414V13.5888V13.7636V13.9383V14.1131V14.2879V14.4626V14.6374V14.8121V14.9869V15.1617V15.3364V15.5112V15.6859V15.8607V16.0355V16.2102V16.385V16.5597V16.7345V16.9093V17.084V17.2588V17.4336V17.6083V17.7831V17.9578V18.1326V18.3074V18.4821V18.6569V18.8316V19.0064V19.1812V19.3559V19.5307V19.7055V19.8802V20.055V20.2297V20.4045V20.5793V20.754V20.9288V21.1035V21.2783V21.4531V21.6278V21.8026V21.9773V22.1521V22.3269V22.5016V22.6764V22.8512V23.0259V23.2007V23.3754V23.5502V23.725V23.8997V24.0745V24.2492V24.424V24.5988V24.7735V24.9483V25.1231V25.2978V25.4726V25.6473V25.8221V25.9969V26.1716V26.3464V26.5211V26.6959V26.8707V27.0454V27.2202V27.3949V27.5697V27.7445V27.9192V28.094V28.2688V28.4435V28.6183V28.793V28.9678V29.1426V29.3173V29.4921V29.6668V29.8416V30.0164V30.1911V30.3659V30.5406V30.7154V30.8902V31.0649V31.2397V31.4145V31.5892V31.764V31.9387V32.1135V32.2883V32.463V32.6378V32.8125V32.9873V33.1621V33.3368V33.5116V33.6864V33.8611V34.0359V34.2106V34.3854V34.5602V34.7349V34.9097V35.0844V35.2592V35.434V35.6087V35.7835V35.9582V36.133V36.3078V36.4825V36.6573V36.8321V37.0068V37.1816V37.3563V37.5311V37.7059V37.8806V38.0554V38.2301V38.4049V38.5797V38.7544V38.9292V39.104V39.2787V39.4535V39.6282V39.803V39.9778V40.1525V40.3273V40.502V40.6768V40.8516V41.0263V41.2011V41.3759V41.5506V41.7254V41.9001V42.0749V42.2497V42.4244V42.5992V42.7739V42.9487V43.1235V43.2982V43.473V43.6477V43.8225V43.9973V44.172V44.3468V44.5216V44.6963V44.8711V45.0458V45.2206V45.3954V45.5701V45.7449V45.9196V46.0944V46.2692V46.4439V46.6187V46.7934V46.9682V47.143V47.3177V47.4925V47.6673V47.842V48.0168V48.1915V48.3663V48.5411V48.7158V48.8906V49.0653V49.2401V49.4149V49.5896V49.7644V49.9392V50.1139V50.2887V50.4634V50.6382V50.813V50.9877V51.1625V51.3372V51.512V51.6868V51.8615V52.0363V52.211V52.3858V52.5606V52.7353V52.9101V53.0849V53.2596V53.4344V53.6091V53.7839V53.9587V54.1334V54.3082V54.4829V54.6577V54.8325V55.0072V55.182V55.3568V55.5315V55.7063V55.881V56.0558V56.2306V56.4053V56.5801V56.7548V56.9296V57.1044V57.2791V57.4539V57.6286V57.8034V57.9782V58.1529V58.3277V58.5025V58.6772V58.852V59.0267V59.2015V59.3763V59.551V59.7258V59.9005V60.0753V60.2501V60.4248V60.5996V60.7744V60.9491V61.1239V61.2986V61.4734V61.6482V61.8229V61.9977V62.1724V62.3472V62.522V62.6967V62.8715V63.0462V63.221V63.3958V63.5705V63.7453V63.9201V64.0948V64.2696V64.4443V64.6191V64.7939V64.9686V65.1434V65.3181V65.4929V65.6677V65.8424V66.0172V66.1919V66.3667V66.5415V66.7162V66.891V67.0658V67.2405V67.4153V67.59V67.7648V67.9396V68.1143V68.2891V68.4638V68.6386V68.8134V68.9881V69.1629V69.3377V69.5124V69.6872V69.8619V70.0367V70.2115V70.3862V70.561V70.7357V70.9105V71.0853V71.26V71.4348V71.6096V71.7843V71.9591V72.1338V72.3086V72.4834V72.6581V72.8329V73.0076V73.1824V73.3572V73.5319V73.7067V73.8814V74.0562V74.231V74.4057V74.5805V74.7553V74.93V75.1048V75.2795V75.4543V75.6291V75.8038V75.9786V76.1533V76.3281V76.5029V76.6776V76.8524V77.0272V77.2019V77.3767V77.5514V77.7262V77.901V78.0757V78.2505V78.4252V78.6V78.7748V78.9495V79.1243V79.299V79.4738V79.6486V79.8233V79.9981V80.1729V80.3476V80.5224V80.6971V80.8719V81.0467V81.2214V81.3962V81.5709V81.7457V81.9205V82.0952V82.27V82.4447V82.6195V82.7943V82.969V83.1438V83.3186V83.4933V83.6681V83.8428V84.0176V84.1924V84.3671V84.5419V84.7166V84.8914V85.0662V85.2409V85.4157V85.5905V85.7652V85.94V86.1147V86.2895V86.4643V86.639V86.8138V86.9885V87.1633V87.3381V87.5128V87.6876V87.8624V88.0371V88.2119V88.3866V88.5614V88.7362V88.9109V89.0857V89.2604V89.4352V89.61V89.7847V89.9595V90.1342V90.309V90.4838V90.6585V90.8333V91.008V91.1828V91.3576V91.5323V91.7071V91.8819V92.0566V92.2314V92.4061V92.5809V92.7557V92.9304V93.1052V93.2799V93.4547V93.6295V93.8042V93.979V94.1538V94.3285V94.5033V94.678V94.8528V95.0276V95.2023V95.3771V95.5518V95.7266V95.9014V96.0761V96.2509V96.4257V96.6004V96.7752V96.9499V97.1247V97.2995V97.4742V97.649V97.8237V97.9985V98.1578C153.48 98.2954 153.436 98.4333 153.392 98.5713C153.278 98.9294 153.163 99.2887 153.057 99.6476C151.738 104.055 147.765 107.111 143.168 107.248C142.84 107.258 142.512 107.262 142.183 107.262C130.664 107.262 119.145 107.262 107.626 107.262C84.5889 107.263 61.5521 107.264 38.5169 107.262C33.0705 107.262 28.9192 104.278 27.6076 99.3931C27.3366 98.3807 27.209 97.3019 27.2057 96.2516C27.1859 67.7045 27.1826 39.1574 27.1958 10.6103C27.1991 4.24504 31.7977 -0.386308 38.1478 -0.389575C72.9514 -0.406054 107.755 -0.402758 142.555 -0.389575C145.308 -0.38794 147.684 0.432881 149.528 1.92481C151.372 3.41685 152.69 5.58468 153.319 8.28968ZM150.995 19.4921V19.3921H150.895H150.658H150.421H150.184H149.947H149.71H149.474H149.237H149H148.763H148.526H148.289H148.052H147.815H147.578H147.341H147.104H146.867H146.631H146.394H146.157H145.92H145.683H145.446H145.209H144.972H144.735H144.499H144.262H144.025H143.788H143.551H143.314H143.077H142.841H142.604H142.367H142.13H141.893H141.656H141.42H141.183H140.946H140.709H140.472H140.236H139.999H139.762H139.525H139.288H139.052H138.815H138.578H138.341H138.104H137.868H137.631H137.394H137.157H136.921H136.684H136.447H136.21H135.974H135.737H135.5H135.263H135.027H134.79H134.553H134.316H134.08H133.843H133.606H133.369H133.133H132.896H132.659H132.423H132.186H131.949H131.712H131.476H131.239H131.002H130.766H130.529H130.292H130.056H129.819H129.582H129.346H129.109H128.872H128.636H128.399H128.162H127.926H127.689H127.452H127.216H126.979H126.742H126.506H126.269H126.033H125.796H125.559H125.323H125.086H124.849H124.613H124.376H124.14H123.903H123.666H123.43H123.193H122.957H122.72H122.483H122.247H122.01H121.774H121.537H121.3H121.064H120.827H120.591H120.354H120.118H119.881H119.644H119.408H119.171H118.935H118.698H118.462H118.225H117.989H117.752H117.515H117.279H117.042H116.806H116.569H116.333H116.096H115.86H115.623H115.387H115.15H114.914H114.677H114.441H114.204H113.968H113.731H113.495H113.258H113.022H112.785H112.549H112.312H112.076H111.839H111.603H111.366H111.13H110.893H110.657H110.42H110.184H109.947H109.711H109.474H109.238H109.001H108.765H108.528H108.292H108.055H107.819H107.582H107.346H107.11H106.873H106.637H106.4H106.164H105.927H105.691H105.454H105.218H104.982H104.745H104.509H104.272H104.036H103.799H103.563H103.326H103.09H102.854H102.617H102.381H102.144H101.908H101.672H101.435H101.199H100.962H100.726H100.489H100.253H100.017H99.7802H99.5438H99.3074H99.071H98.8346H98.5982H98.3618H98.1254H97.8891H97.6527H97.4163H97.1799H96.9435H96.7071H96.4707H96.2343H95.9979H95.7616H95.5252H95.2888H95.0524H94.816H94.5797H94.3433H94.1069H93.8706H93.6342H93.3978H93.1614H92.9251H92.6887H92.4523H92.216H91.9796H91.7433H91.5069H91.2705H91.0342H90.7978H90.5615H90.3251H90.0888H89.8524H89.6161H89.3797H89.1434H88.907H88.6707H88.4343H88.198H87.9616H87.7253H87.4889H87.2526H87.0163H86.7799H86.5436H86.3072H86.0709H85.8346H85.5982H85.3619H85.1256H84.8892H84.6529H84.4166H84.1802H83.9439H83.7076H83.4712H83.2349H82.9986H82.7623H82.5259H82.2896H82.0533H81.817H81.5806H81.3443H81.108H80.8717H80.6354H80.399H80.1627H79.9264H79.6901H79.4538H79.2175H78.9811H78.7448H78.5085H78.2722H78.0359H77.7996H77.5633H77.3269H77.0906H76.8543H76.618H76.3817H76.1454H75.9091H75.6728H75.4365H75.2002H74.9639H74.7275H74.4912H74.2549H74.0186H73.7823H73.546H73.3097H73.0734H72.8371H72.6008H72.3645H72.1282H71.8919H71.6556H71.4193H71.183H70.9467H70.7104H70.4741H70.2378H70.0015H69.7652H69.5289H69.2926H69.0563H68.82H68.5837H68.3474H68.1111H67.8748H67.6385H67.4022H67.1659H66.9296H66.6933H66.457H66.2207H65.9844H65.7481H65.5118H65.2755H65.0392H64.8029H64.5666H64.3302H64.094H63.8577H63.6213H63.385H63.1487H62.9124H62.6761H62.4398H62.2035H61.9672H61.7309H61.4946H61.2583H61.022H60.7857H60.5494H60.3131H60.0768H59.8405H59.6042H59.3679H59.1316H58.8953H58.659H58.4227H58.1864H57.9501H57.7138H57.4775H57.2412H57.0048H56.7685H56.5322H56.2959H56.0596H55.8233H55.587H55.3507H55.1144H54.8781H54.6417H54.4054H54.1691H53.9328H53.6965H53.4602H53.2239H52.9875H52.7512H52.5149H52.2786H52.0423H51.806H51.5696H51.3333H51.097H50.8607H50.6244H50.388H50.1517H49.9154H49.6791H49.4427H49.2064H48.9701H48.7338H48.4974H48.2611H48.0248H47.7884H47.5521H47.3158H47.0794H46.8431H46.6068H46.3704H46.1341H45.8978H45.6614H45.4251H45.1887H44.9524H44.7161H44.4797H44.2434H44.007H43.7707H43.5343H43.298H43.0616H42.8253H42.5889H42.3526H42.1162H41.8799H41.6435H41.4072H41.1708H40.9345H40.6981H40.4617H40.2254H39.989H39.7526H39.5163H39.2799H39.0435H38.8072H38.5708H38.3344H38.0981H37.8617H37.6253H37.3889H37.1526H36.9162H36.6798H36.4434H36.207H35.9707H35.7343H35.4979H35.2615H35.0251H34.7887H34.5523H34.3159H34.0795H33.8431H33.6068H33.3704H33.134H32.8976H32.6611H32.4247H32.1883H31.9519H31.7155H31.4791H31.2427H31.0063H30.7699H30.5335H30.297H30.0606H29.8242H29.7242V19.4921V19.4954V19.4987V19.502V19.5053V19.5085V19.5118V19.5151V19.5183V19.5216V19.5248V19.5281V19.5314V19.5346V19.5379V19.5411V19.5443V19.5476V19.5508V19.5541V19.5573V19.5605V19.5638V19.567V19.5702V19.5734V19.5766V19.5799V19.5831V19.5863V19.5895V19.5927V19.5959V19.5991V19.6023V19.6055V19.6087V19.6119V19.6151V19.6183V19.6215V19.6246V19.6278V19.631V19.6342V19.6374V19.6405V19.6437V19.6469V19.65V19.6532V19.6563V19.6595V19.6627V19.6658V19.669V19.6721V19.6753V19.6784V19.6815V19.6847V19.6878V19.691V19.6941V19.6972V19.7003V19.7035V19.7066V19.7097V19.7128V19.716V19.7191V19.7222V19.7253V19.7284V19.7315V19.7346V19.7377V19.7408V19.7439V19.747V19.7501V19.7532V19.7563V19.7594V19.7624V19.7655V19.7686V19.7717V19.7748V19.7778V19.7809V19.784V19.787V19.7901V19.7932V19.7962V19.7993V19.8024V19.8054V19.8085V19.8115V19.8146V19.8176V19.8207V19.8237V19.8267V19.8298V19.8328V19.8358V19.8389V19.8419V19.8449V19.848V19.851V19.854V19.857V19.8601V19.8631V19.8661V19.8691V19.8721V19.8751V19.8781V19.8811V19.8841V19.8871V19.8901V19.8931V19.8961V19.8991V19.9021V19.9051V19.9081V19.9111V19.9141V19.9171V19.92V19.923V19.926V19.929V19.9319V19.9349V19.9379V19.9408V19.9438V19.9468V19.9497V19.9527V19.9557V19.9586V19.9616V19.9645V19.9675V19.9704V19.9734V19.9763V19.9793V19.9822V19.9851V19.9881V19.991V19.994V19.9969V19.9998V20.0028V20.0057V20.0086V20.0115V20.0145V20.0174V20.0203V20.0232V20.0261V20.0291V20.032V20.0349V20.0378V20.0407V20.0436V20.0465V20.0494V20.0523V20.0552V20.0581V20.061V20.0639V20.0668V20.0697V20.0726V20.0755V20.0784V20.0813V20.0841V20.087V20.0899V20.0928V20.0957V20.0985V20.1014V20.1043V20.1072V20.11V20.1129V20.1158V20.1186V20.1215V20.1244V20.1272V20.1301V20.1329V20.1358V20.1387V20.1415V20.1444V20.1472V20.1501V20.1529V20.1558V20.1586V20.1614V20.1643V20.1671V20.17V20.1728V20.1756V20.1785V20.1813V20.1842V20.187V20.1898V20.1926V20.1955V20.1983V20.2011V20.2039V20.2068V20.2096V20.2124V20.2152V20.218V20.2209V20.2237V20.2265V20.2293V20.2321V20.2349V20.2377V20.2405V20.2433V20.2461V20.2489V20.2517V20.2545V20.2573V20.2601V20.2629V20.2657V20.2685V20.2713V20.2741V20.2769V20.2797V20.2825V20.2852V20.288V20.2908V20.2936V20.2964V20.2992V20.3019V20.3047V20.3075V20.3103V20.313V20.3158V20.3186V20.3214V20.3241V20.3269V20.3297V20.3324V20.3352V20.338V20.3407V20.3435V20.3462V20.349V20.3518V20.3545V20.3573V20.36V20.3628V20.3655V20.3683V20.371V20.3738V20.3765V20.3793V20.382V20.3848V20.3875V20.3903V20.393V20.3958V20.3985V20.4012V20.404V20.4067V20.4095V20.4122V20.4149V20.4177V20.4204V20.4231V20.4259V20.4286V20.4313V20.434V20.4368V20.4395V20.4422V20.4449V20.4477V20.4504V20.4531V20.4558V20.4586V20.4613V20.464V20.4667V20.4694V20.4721V20.4749V20.4776V20.4803V20.483V20.4857V20.4884V20.4911V20.4938V20.4965V20.4993V20.502V20.5047V20.5074V20.5101V20.5128V20.5155V20.5182V20.5209V20.5236V20.5263V20.529V20.5317V20.5344V20.5371V20.5398V20.5425V20.5452V20.5479V20.5506V20.5532V20.5559V20.5586V20.5613V20.564V20.5667V20.5694V20.5721V20.5748V20.5774V20.5801V20.5828V20.5855V20.5882V20.5909V20.5936V20.5962V20.5989V20.6016V20.6043V20.607V20.6096V20.6123V20.615V20.6177V20.6203V20.623V20.6257V20.6284V20.6311V20.6337V20.6364V20.6391V20.6417V20.6444V20.6471V20.6498V20.6524V20.6551V20.6578V20.6604V20.6631V20.6658V20.6684V20.6711V20.6738V20.6764V20.6791V20.6818V20.6844V20.6871V20.6898V20.6924V20.6951V20.6977V20.7004V20.7031V20.7057V20.7084V20.7111V20.7137V20.7164V20.719V20.7217V20.7243V20.727V20.7297V20.7323V20.735V20.7376V20.7403V20.7429V20.7456V20.7483V20.7509V20.7536V20.7562V20.7589V20.7615V20.7642V20.7668V20.7695V20.7721V20.7748V20.7774V20.7801V20.7827V20.7854V20.788V20.7907V20.7934V20.796V20.7987V20.8013V20.8039V20.8066V20.8092V20.8119V20.8145V20.8172V20.8198V20.8225V20.8251V20.8278V20.8304V20.8331V20.8357V20.8384V20.841V20.8437V20.8463V20.849V20.8516V20.8543V20.8569V20.8595V20.8622V20.8648V20.8675V20.8701V20.8728V20.8754V20.8781V20.8807V20.8834V20.886V20.8886V20.8913V20.8939V20.8966V20.8992V20.9019V20.9045V20.9072V20.9098V20.9125V20.9151V20.9177V20.9204V20.923V20.9257V20.9283V20.931V20.9336V20.9363V20.9389V20.9416V20.9442V20.9468V20.9495V20.9521C29.7242 27.3417 29.7285 33.7312 29.7329 40.1207C29.7454 58.6498 29.758 77.1786 29.6649 95.7076C29.6416 100.459 33.0306 104.792 38.6588 104.779C63.6749 104.707 88.691 104.714 113.708 104.72C123.16 104.722 132.612 104.725 142.064 104.723C142.117 104.723 142.17 104.723 142.223 104.723C142.991 104.724 143.789 104.725 144.538 104.552C148.477 103.645 150.989 100.423 150.992 96.3212C150.997 77.4206 150.996 58.5182 150.996 39.6168C150.995 33.3116 150.995 27.0065 150.995 20.7017V20.6995V20.6973V20.6951V20.6929V20.6908V20.6886V20.6864V20.6842V20.682V20.6798V20.6777V20.6755V20.6733V20.6711V20.6689V20.6668V20.6646V20.6624V20.6602V20.658V20.6559V20.6537V20.6515V20.6493V20.6471V20.645V20.6428V20.6406V20.6384V20.6362V20.6341V20.6319V20.6297V20.6275V20.6253V20.6232V20.621V20.6188V20.6166V20.6144V20.6123V20.6101V20.6079V20.6057V20.6035V20.6014V20.5992V20.597V20.5948V20.5926V20.5905V20.5883V20.5861V20.5839V20.5817V20.5796V20.5774V20.5752V20.573V20.5708V20.5686V20.5665V20.5643V20.5621V20.5599V20.5577V20.5555V20.5534V20.5512V20.549V20.5468V20.5446V20.5424V20.5403V20.5381V20.5359V20.5337V20.5315V20.5293V20.5271V20.525V20.5228V20.5206V20.5184V20.5162V20.514V20.5118V20.5097V20.5075V20.5053V20.5031V20.5009V20.4987V20.4965V20.4943V20.4921V20.4899V20.4878V20.4856V20.4834V20.4812V20.479V20.4768V20.4746V20.4724V20.4702V20.468V20.4658V20.4636V20.4614V20.4592V20.457V20.4548V20.4526V20.4504V20.4482V20.4461V20.4439V20.4417V20.4395V20.4373V20.4351V20.4328V20.4306V20.4284V20.4262V20.424V20.4218V20.4196V20.4174V20.4152V20.413V20.4108V20.4086V20.4064V20.4042V20.402V20.3998V20.3976V20.3954V20.3931V20.3909V20.3887V20.3865V20.3843V20.3821V20.3799V20.3777V20.3754V20.3732V20.371V20.3688V20.3666V20.3644V20.3621V20.3599V20.3577V20.3555V20.3533V20.351V20.3488V20.3466V20.3444V20.3421V20.3399V20.3377V20.3355V20.3332V20.331V20.3288V20.3266V20.3243V20.3221V20.3199V20.3176V20.3154V20.3132V20.3109V20.3087V20.3065V20.3042V20.302V20.2997V20.2975V20.2953V20.293V20.2908V20.2885V20.2863V20.2841V20.2818V20.2796V20.2773V20.2751V20.2728V20.2706V20.2683V20.2661V20.2638V20.2616V20.2593V20.2571V20.2548V20.2526V20.2503V20.2481V20.2458V20.2435V20.2413V20.239V20.2368V20.2345V20.2322V20.23V20.2277V20.2254V20.2232V20.2209V20.2186V20.2164V20.2141V20.2118V20.2095V20.2073V20.205V20.2027V20.2004V20.1982V20.1959V20.1936V20.1913V20.189V20.1868V20.1845V20.1822V20.1799V20.1776V20.1753V20.173V20.1708V20.1685V20.1662V20.1639V20.1616V20.1593V20.157V20.1547V20.1524V20.1501V20.1478V20.1455V20.1432V20.1409V20.1386V20.1363V20.134V20.1317V20.1294V20.1271V20.1247V20.1224V20.1201V20.1178V20.1155V20.1132V20.1108V20.1085V20.1062V20.1039V20.1016V20.0992V20.0969V20.0946V20.0923V20.0899V20.0876V20.0853V20.0829V20.0806V20.0783V20.0759V20.0736V20.0712V20.0689V20.0666V20.0642V20.0619V20.0595V20.0572V20.0548V20.0525V20.0501V20.0478V20.0454V20.0431V20.0407V20.0384V20.036V20.0336V20.0313V20.0289V20.0266V20.0242V20.0218V20.0194V20.0171V20.0147V20.0123V20.01V20.0076V20.0052V20.0028V20.0005V19.9981V19.9957V19.9933V19.9909V19.9885V19.9861V19.9838V19.9814V19.979V19.9766V19.9742V19.9718V19.9694V19.967V19.9646V19.9622V19.9598V19.9574V19.955V19.9526V19.9501V19.9477V19.9453V19.9429V19.9405V19.9381V19.9357V19.9332V19.9308V19.9284V19.926V19.9235V19.9211V19.9187V19.9162V19.9138V19.9114V19.9089V19.9065V19.9041V19.9016V19.8992V19.8967V19.8943V19.8918V19.8894V19.8869V19.8845V19.882V19.8796V19.8771V19.8746V19.8722V19.8697V19.8673V19.8648V19.8623V19.8598V19.8574V19.8549V19.8524V19.85V19.8475V19.845V19.8425V19.84V19.8375V19.8351V19.8326V19.8301V19.8276V19.8251V19.8226V19.8201V19.8176V19.8151V19.8126V19.8101V19.8076V19.8051V19.8026V19.8V19.7975V19.795V19.7925V19.79V19.7875V19.7849V19.7824V19.7799V19.7774V19.7748V19.7723V19.7698V19.7672V19.7647V19.7621V19.7596V19.7571V19.7545V19.752V19.7494V19.7469V19.7443V19.7417V19.7392V19.7366V19.7341V19.7315V19.7289V19.7264V19.7238V19.7212V19.7187V19.7161V19.7135V19.7109V19.7083V19.7058V19.7032V19.7006V19.698V19.6954V19.6928V19.6902V19.6876V19.685V19.6824V19.6798V19.6772V19.6746V19.672V19.6694V19.6668V19.6642V19.6615V19.6589V19.6563V19.6537V19.651V19.6484V19.6458V19.6431V19.6405V19.6379V19.6352V19.6326V19.6299V19.6273V19.6247V19.622V19.6194V19.6167V19.614V19.6114V19.6087V19.6061V19.6034V19.6007V19.5981V19.5954V19.5927V19.59V19.5874V19.5847V19.582V19.5793V19.5766V19.5739V19.5712V19.5685V19.5658V19.5631V19.5604V19.5577V19.555V19.5523V19.5496V19.5469V19.5442V19.5415V19.5387V19.536V19.5333V19.5306V19.5278V19.5251V19.5224V19.5196V19.5169V19.5142V19.5114V19.5087V19.5059V19.5032V19.5004V19.4977V19.4949V19.4921Z" fill="#323232" stroke="white" stroke-width="0.2"/>
<path d="M124.863 13.6116C127.308 13.6406 129.119 11.9126 129.138 9.54503C129.157 7.12312 127.397 5.30175 125.039 5.28565L124.863 13.6116ZM124.863 13.6116C122.551 13.5826 120.82 11.7935 120.827 9.43077M124.863 13.6116L120.827 9.43077M120.827 9.43077C120.833 7.06115 122.652 5.26955 125.039 5.28565L120.827 9.43077ZM126.504 9.27256L126.504 9.26202L126.503 9.25163C126.436 8.87507 126.293 8.52854 126.03 8.28517C125.764 8.03944 125.389 7.9104 124.885 7.94656L124.884 7.94657C124.433 7.97906 124.071 8.12219 123.827 8.38614C123.581 8.65053 123.467 9.02178 123.48 9.4829L123.48 9.48305C123.496 9.97514 123.642 10.3574 123.921 10.6107C124.199 10.8635 124.594 10.9729 125.077 10.9542L125.077 10.9541C125.545 10.9352 125.899 10.7857 126.138 10.4932C126.375 10.2044 126.486 9.79162 126.504 9.27256Z" fill="#323232" stroke="white" stroke-width="0.2"/>
<path d="M144.814 9.41557L144.814 9.41543C144.782 7.06229 142.926 5.26637 140.549 5.2857C138.32 5.305 136.41 7.21521 136.397 9.44428L144.814 9.41557ZM144.814 9.41557C144.849 11.7645 143.02 13.6019 140.64 13.6083C138.278 13.6148 136.384 11.753 136.397 9.4443L144.814 9.41557ZM140.289 7.94308L140.289 7.9422L140.275 7.94424C139.946 7.99535 139.631 8.1553 139.406 8.42554C139.179 8.69673 139.048 9.07253 139.074 9.54479L139.074 9.54485C139.098 9.98032 139.248 10.3341 139.517 10.5811C139.786 10.8275 140.163 10.9572 140.621 10.9674L140.621 10.9674C141.135 10.9778 141.534 10.8253 141.803 10.5472C142.071 10.2699 142.197 9.88012 142.19 9.43887L142.19 9.43849C142.181 8.99359 142.034 8.60742 141.714 8.33781C141.397 8.06989 140.924 7.9296 140.289 7.94308Z" fill="#323232" stroke="white" stroke-width="0.2"/>
<path d="M113.558 9.50825L113.558 9.50808C113.59 7.2349 111.655 5.29201 109.354 5.28556L113.558 9.50825ZM113.558 9.50825C113.529 11.8304 111.648 13.6308 109.263 13.6082C106.929 13.5857 105.18 11.8211 105.17 9.47284L113.558 9.50825ZM109.31 7.94292C108.838 7.94641 108.463 8.09537 108.203 8.3577C107.944 8.61948 107.808 8.98411 107.794 9.40072L107.794 9.40097C107.781 9.84914 107.895 10.2471 108.189 10.5311C108.483 10.814 108.94 10.9674 109.575 10.964V10.9641L109.579 10.9639C109.929 10.9498 110.262 10.8164 110.505 10.56C110.748 10.3029 110.894 9.9303 110.887 9.45203L110.887 9.45199C110.881 8.98998 110.743 8.60676 110.47 8.34051C110.198 8.07419 109.804 7.93782 109.31 7.94292ZM109.31 7.94292C109.31 7.94292 109.31 7.94292 109.311 7.94292L109.311 8.04292L109.31 7.94293C109.31 7.94293 109.31 7.94292 109.31 7.94292ZM105.17 9.47284C105.161 7.10278 106.984 5.27913 109.354 5.28556L105.17 9.47284Z" fill="#323232" stroke="white" stroke-width="0.2"/>
<path d="M146.716 47.6019C147.496 43.2287 144.52 38.9756 140.149 38.2139C135.766 37.4503 131.507 40.4427 130.775 44.8018C130.041 49.1718 132.962 53.3472 137.307 54.1427C141.671 54.9391 145.936 51.9729 146.716 47.6019Z" fill="#B6EBE8"/>
<path d="M91.9013 71.1982L91.9019 71.1991C93.0722 72.9004 94.2469 74.5967 95.4437 76.2728L95.4439 76.2731C95.5982 76.4897 95.7647 76.5823 95.9219 76.6036C96.0837 76.6256 96.2831 76.5785 96.5094 76.4233L96.5102 76.4227C97.3739 75.8347 98.2294 75.2353 99.0874 74.6341C99.3635 74.4407 99.6398 74.2471 99.9168 74.0536C99.3293 73.2123 98.7479 72.3804 98.1686 71.5515C97.2866 70.2895 96.4094 69.0343 95.5228 67.7632C95.2431 67.9564 94.9608 68.1502 94.6769 68.3451C93.8009 68.9463 92.9101 69.5577 92.0367 70.195C91.8468 70.3338 91.7586 70.4917 91.7372 70.6452C91.7155 70.8014 91.7578 70.9911 91.9013 71.1982Z" fill="white" stroke="white" stroke-width="0.572767"/>
<path d="M139.346 34.3513C144.16 35.19 147.445 39.8842 146.586 44.7025C145.727 49.5182 141.018 52.7916 136.214 51.915L139.346 34.3513ZM139.346 34.3513C134.511 33.5091 129.814 36.8181 129.009 41.6101M139.346 34.3513L129.009 41.6101M129.009 41.6101C128.199 46.4321 131.425 51.0381 136.213 51.9149L129.009 41.6101Z" stroke="#323232" stroke-width="2"/>
<path d="M99.7428 59.4245C98.3767 60.361 97.2319 61.1592 96.0729 61.9311C94.8926 62.7159 94.3517 63.7687 94.5318 65.2037C94.5614 65.4365 94.3464 65.7915 94.1364 65.946C93.1067 66.7103 92.035 67.4173 90.9917 68.1648C89.3131 69.3655 89.035 71.0173 90.2147 72.7207C91.275 74.2558 92.3431 75.7876 93.4147 77.3129C94.6282 79.0388 96.2724 79.3202 98.0286 78.1097C99.0364 77.4151 100.048 76.7235 101.039 76.0045C101.407 75.736 101.683 75.6785 102.128 75.9167C103.217 76.4971 104.316 76.4206 105.344 75.694C106.553 74.8386 107.763 73.9809 109.137 73.0104C109.265 73.5853 109.432 73.9918 109.428 74.3964C109.406 77.3618 109.533 80.3442 109.262 83.2887C108.938 86.7643 108.267 90.2086 107.731 93.6629C107.548 94.8483 108.044 95.361 109.179 95.0563C117.495 92.8215 124.825 88.9131 130.611 82.3928C134.292 78.2459 136.921 73.4729 138.972 68.36C139.915 66.0092 140.754 63.6184 141.697 61.2676C141.902 60.759 142.257 60.2299 142.687 59.9015C150.131 54.1841 156.373 47.3587 161.55 39.5474C165.441 33.6772 168.596 27.4292 171.184 20.8884C171.581 19.8857 171.179 19.231 170.148 19.2557C156.559 19.5831 143.494 22.2151 131.24 28.2738C128.605 29.5763 126.106 31.1496 123.527 32.564C123.089 32.8034 122.558 32.9883 122.069 32.9958C117.238 33.0702 112.403 32.9543 107.598 33.6496C95.7006 35.3735 86.5217 41.464 79.5292 51.0797C78.1257 53.0095 78.3058 53.3686 80.6769 53.7726C86.5167 54.7644 92.3031 55.9766 97.7676 58.3684C98.3828 58.6393 98.9579 59.0025 99.7428 59.4245ZM160.053 38.2447C151.313 51.3212 140.049 61.3267 125.812 67.5696C120.684 60.2235 115.635 52.991 110.546 45.7017C121.407 34.4608 134.679 27.3539 149.93 23.7066C151.216 31.5499 152.933 34.0149 160.053 38.2447ZM111.398 74.0226C116.464 73.1726 121.223 71.6445 125.844 69.6914C130.439 67.748 134.801 65.3504 139.027 62.6468C138.142 65.098 137.234 67.4907 136.218 69.838C132.04 79.5006 125.292 86.6528 115.525 90.7946C113.746 91.5485 111.906 92.1635 109.915 92.9126C111.028 86.5256 111.901 80.3684 111.398 74.0226ZM119.603 34.9945C111.574 41.1479 104.674 48.2232 99.4959 56.9823C93.7617 54.322 87.6588 53.025 81.4827 51.8855C81.5518 51.7106 81.5655 51.6206 81.6145 51.5583C86.2635 45.4228 91.9407 40.6035 99.2047 37.809C104.413 35.8066 109.845 35.1261 115.375 35.0224C116.785 34.9943 118.194 35.0015 119.603 34.9945ZM108.876 47.2925C113.867 54.453 118.733 61.4325 123.634 68.4608C119.609 70.077 115.446 71.3323 111.128 72.0549C110.923 72.0894 110.584 71.8773 110.445 71.682C107.412 67.366 104.392 63.0382 101.399 58.6938C101.248 58.4773 101.236 58.0131 101.365 57.7825C101.948 56.7443 102.547 55.7017 103.251 54.7443C105.09 52.2453 106.988 49.7876 108.876 47.2925ZM168.926 21.2582C168.458 22.3571 168.104 23.3438 167.629 24.2685C165.643 28.1183 163.623 31.9501 161.608 35.7827C161.411 36.1552 161.248 36.5242 160.622 36.287C155.862 34.49 151.989 28.9674 151.99 23.8489C151.989 23.6164 152.289 23.2198 152.506 23.1732C157.868 22.0466 163.291 21.445 168.926 21.2582ZM100.526 61.1709C102.998 64.7161 105.378 68.1288 107.793 71.5906C106.615 72.416 105.391 73.3019 104.133 74.1391C103.601 74.4921 103.07 74.3951 102.685 73.8431C100.683 70.974 98.6826 68.1053 96.6828 65.2343C96.2714 64.6443 96.4059 64.1162 96.954 63.7139C98.1521 62.8423 99.3673 61.995 100.526 61.1709ZM100.315 74.1241C99.1025 74.9718 97.8953 75.8276 96.6708 76.6614C96.1366 77.0258 95.5909 76.9759 95.21 76.4411C94.0098 74.7602 92.8335 73.0646 91.6654 71.3633C91.3175 70.8557 91.3846 70.3203 91.8673 69.9656C93.1072 69.0588 94.383 68.2034 95.5938 67.3672C97.1741 69.6277 98.7181 71.8392 100.315 74.1241Z" fill="#323232"/>
<path d="M89.7188 75.3619C84.4422 81.1923 73.685 89.9333 64.3137 90.6982" stroke="#323232" stroke-width="2" stroke-linecap="round"/>
<path d="M87.9922 72.1035C81.3808 76.361 68.7206 82.0036 59.4728 80.305" stroke="#323232" stroke-width="2" stroke-linecap="round"/>
<path d="M93.1738 79.5359C86.9325 84.3194 77.3433 94.3279 75.8167 103.606" stroke="#323232" stroke-width="2" stroke-linecap="round"/>
<path d="M53.1531 36.1762C53.1531 37.5662 53.1649 38.9585 53.1507 40.3484C53.1294 42.2262 51.9029 43.4599 50.0275 43.4717C47.2168 43.4859 44.4061 43.4859 41.5954 43.4717C39.7224 43.4622 38.4745 42.2404 38.4579 40.3579C38.4295 37.5472 38.4319 34.7365 38.4579 31.9258C38.4745 30.041 39.6987 28.8144 41.5859 28.7955C44.3966 28.7671 47.2073 28.7671 50.018 28.7955C51.9455 28.8144 53.1365 30.0599 53.1531 32.004C53.1602 33.3963 53.1531 34.7863 53.1531 36.1762ZM45.8103 30.7845C44.4511 30.7845 43.0895 30.7703 41.7304 30.7892C40.7619 30.8035 40.4517 31.1065 40.447 32.0774C40.4328 34.7981 40.4304 37.5164 40.4493 40.2372C40.4564 41.1701 40.8116 41.4945 41.7683 41.4969C44.4582 41.5064 47.1481 41.5064 49.8404 41.4969C50.8255 41.4945 51.1712 41.1512 51.1759 40.1566C51.1877 37.4667 51.1877 34.7768 51.1759 32.0845C51.1712 31.135 50.8397 30.8011 49.8949 30.7869C48.531 30.7679 47.1718 30.7845 45.8103 30.7845Z" fill="#323232"/>
<rect x="39.4766" y="30.2612" width="12.4368" height="11.815" fill="#323232"/>
<path d="M44.3508 36.637C45.5016 35.5431 46.6122 34.4894 47.718 33.4309C48.1371 33.0307 48.5846 32.794 49.1387 33.1562C49.6833 33.5114 49.7733 34.1721 49.2618 34.6764C47.7677 36.1469 46.2499 37.5937 44.7084 39.0144C44.178 39.5046 43.5268 39.353 43.1456 38.7113C42.7999 38.1288 42.5039 37.5179 42.196 36.9117C41.9024 36.334 41.945 35.8035 42.5536 35.4697C43.1787 35.1263 43.6191 35.4294 43.9459 35.9788C44.0619 36.1753 44.1874 36.3718 44.3508 36.637Z" fill="white"/>
<path d="M53.1531 60.2443C53.1531 61.6343 53.1649 63.0266 53.1507 64.4166C53.1294 66.2943 51.9029 67.528 50.0275 67.5398C47.2168 67.554 44.4061 67.554 41.5954 67.5398C39.7224 67.5303 38.4745 66.3085 38.4579 64.426C38.4295 61.6153 38.4319 58.8046 38.4579 55.994C38.4745 54.1091 39.6987 52.8825 41.5859 52.8636C44.3966 52.8352 47.2073 52.8352 50.018 52.8636C51.9455 52.8825 53.1365 54.1281 53.1531 56.0721C53.1602 57.4644 53.1531 58.8544 53.1531 60.2443ZM45.8103 54.8526C44.4511 54.8526 43.0895 54.8384 41.7304 54.8574C40.7619 54.8716 40.4517 55.1747 40.447 56.1455C40.4328 58.8662 40.4304 61.5846 40.4493 64.3053C40.4564 65.2382 40.8116 65.5626 41.7683 65.565C44.4582 65.5745 47.1481 65.5745 49.8404 65.565C50.8255 65.5626 51.1712 65.2193 51.1759 64.2248C51.1877 61.5348 51.1877 58.8449 51.1759 56.1526C51.1712 55.2031 50.8397 54.8692 49.8949 54.855C48.531 54.8361 47.1718 54.8526 45.8103 54.8526Z" fill="#323232"/>
<rect x="39.4766" y="54.3293" width="12.4368" height="11.815" fill="#323232"/>
<path d="M44.3508 60.7049C45.5016 59.6109 46.6122 58.5572 47.718 57.4988C48.1371 57.0986 48.5846 56.8618 49.1387 57.2241C49.6833 57.5793 49.7733 58.2399 49.2618 58.7443C47.7677 60.2148 46.2499 61.6616 44.7084 63.0823C44.178 63.5724 43.5268 63.4209 43.1456 62.7792C42.7999 62.1967 42.5039 61.5858 42.196 60.9796C41.9024 60.4018 41.945 59.8714 42.5536 59.5375C43.1787 59.1942 43.6191 59.4973 43.9459 60.0466C44.0619 60.2432 44.1874 60.4397 44.3508 60.7049Z" fill="white"/>
<path d="M53.1531 84.3122C53.1531 85.7022 53.1649 87.0945 53.1507 88.4844C53.1294 90.3622 51.9029 91.5959 50.0275 91.6077C47.2168 91.6219 44.4061 91.6219 41.5954 91.6077C39.7224 91.5982 38.4745 90.3764 38.4579 88.4939C38.4295 85.6832 38.4319 82.8725 38.4579 80.0618C38.4745 78.177 39.6987 76.9504 41.5859 76.9315C44.3966 76.9031 47.2073 76.9031 50.018 76.9315C51.9455 76.9504 53.1365 78.1959 53.1531 80.14C53.1602 81.5323 53.1531 82.9222 53.1531 84.3122ZM45.8103 78.9205C44.4511 78.9205 43.0895 78.9063 41.7304 78.9252C40.7619 78.9394 40.4517 79.2425 40.447 80.2134C40.4328 82.9341 40.4304 85.6524 40.4493 88.3731C40.4564 89.3061 40.8116 89.6305 41.7683 89.6329C44.4582 89.6423 47.1481 89.6423 49.8404 89.6329C50.8255 89.6305 51.1712 89.2872 51.1759 88.2926C51.1877 85.6027 51.1877 82.9128 51.1759 80.2205C51.1712 79.2709 50.8397 78.9371 49.8949 78.9229C48.531 78.9039 47.1718 78.9205 45.8103 78.9205Z" fill="#323232"/>
<rect x="39.4766" y="78.397" width="12.4368" height="11.815" fill="#323232"/>
<path d="M44.3508 84.7728C45.5016 83.6788 46.6122 82.6251 47.718 81.5667C48.1371 81.1665 48.5846 80.9297 49.1387 81.292C49.6833 81.6472 49.7733 82.3078 49.2618 82.8122C47.7677 84.2826 46.2499 85.7294 44.7084 87.1502C44.178 87.6403 43.5268 87.4888 43.1456 86.8471C42.7999 86.2646 42.5039 85.6536 42.196 85.0475C41.9024 84.4697 41.945 83.9393 42.5536 83.6054C43.1787 83.2621 43.6191 83.5652 43.9459 84.1145C44.0619 84.311 44.1874 84.5076 44.3508 84.7728Z" fill="white"/>
</g>
<defs>
<clipPath id="clip0_2394_17990">
<rect width="180" height="108" fill="white"/>
</clipPath>
</defs>
</svg>
