<svg width="180" height="108" viewBox="0 0 180 108" fill="none" xmlns="http://www.w3.org/2000/svg">
<rect x="35.0312" y="23.9734" width="126.919" height="50.5611" rx="5.16746" fill="#7687C6"/>
<path d="M153.696 98.7986C153.537 99.3002 153.372 99.8017 153.224 100.303C151.891 104.758 147.876 107.847 143.23 107.985C142.9 107.995 142.57 107.999 142.24 107.999C107.64 107.999 73.0401 108.002 38.4434 107.999C32.95 107.999 28.75 104.986 27.4236 100.046C27.1498 99.023 27.0211 97.934 27.0178 96.8748C26.998 68.2915 26.9947 39.7083 27.0079 11.125C27.0112 4.69695 31.66 0.014471 38.0739 0.0111711C72.9214 -0.00532808 107.769 -0.00202824 142.613 0.0111711C148.166 0.014471 152.221 3.32421 153.488 8.77885C153.524 8.93065 153.626 9.06264 153.696 9.20783C153.696 39.0714 153.696 68.935 153.696 98.7986ZM150.964 20.0181C110.471 20.0181 70.14 20.0181 29.7398 20.0181C29.7398 20.5791 29.7398 21.0279 29.7398 21.48C29.7398 46.4301 29.8057 71.3802 29.6804 96.3303C29.6573 101.039 33.0127 105.326 38.5853 105.312C73.0962 105.213 107.607 105.263 142.121 105.256C142.943 105.256 143.788 105.27 144.576 105.088C148.473 104.191 150.957 101.006 150.96 96.9441C150.967 71.7069 150.964 46.4664 150.964 21.2292C150.964 20.8563 150.964 20.49 150.964 20.0181ZM150.924 17.1308C150.924 14.91 150.941 12.8542 150.921 10.7984C150.898 8.45547 150.004 6.48546 148.295 4.88504C146.496 3.20212 144.325 2.76984 141.927 2.77314C111.745 2.80284 81.5623 2.79294 51.3801 2.79294C46.761 2.79294 42.1452 2.77314 37.5262 2.82264C34.1312 2.85894 30.8252 5.18533 30.1819 8.51157C29.6441 11.29 29.7893 14.2038 29.6276 17.1341C70.2192 17.1308 110.488 17.1308 150.924 17.1308Z" fill="#323232"/>
<path d="M67.9065 79.1313C71.9713 81.4742 75.8513 83.7148 79.728 85.9521C80.048 86.1369 80.3681 86.325 80.6881 86.5131C81.4898 86.9817 81.988 87.6119 81.4239 88.5293C80.8663 89.4301 80.0711 89.2949 79.2727 88.8263C79.1308 88.7438 78.989 88.6613 78.8471 88.5788C74.2544 85.9224 69.6618 83.2726 65.0724 80.613C63.3204 79.5966 63.3237 78.5935 65.0889 77.5705C69.7145 74.8943 74.3435 72.2215 78.9758 69.5552C79.2925 69.3737 79.6719 69.0569 79.9623 69.113C80.5 69.2219 81.1929 69.4397 81.4404 69.8456C81.6383 70.169 81.3843 70.9048 81.1269 71.3338C80.9158 71.6803 80.4077 71.8552 80.015 72.0796C76.3825 74.1783 72.7466 76.2704 69.1141 78.3691C68.761 78.5704 68.4278 78.8013 67.9065 79.1313Z" fill="#323232"/>
<path d="M112.819 79.0821C108.652 76.6699 104.706 74.3864 100.76 72.1029C100.404 71.8983 99.9024 71.773 99.7276 71.4661C99.4405 70.9645 99.137 70.2847 99.2624 69.7831C99.4669 68.9582 100.269 68.9285 101.001 69.1562C101.272 69.242 101.509 69.4235 101.76 69.5687C106.356 72.2184 110.955 74.8682 115.548 77.5246C117.392 78.5904 117.409 79.5936 115.591 80.6462C110.925 83.3455 106.25 86.0217 101.588 88.7242C100.721 89.2291 99.8595 89.5327 99.2558 88.4702C98.6322 87.3713 99.4372 86.8499 100.279 86.3649C104.056 84.1936 107.827 82.0025 111.599 79.818C111.948 79.6167 112.295 79.4022 112.819 79.0821Z" fill="#323232"/>
<path d="M54.454 44.0906C58.9411 44.0906 63.4315 44.0873 67.9186 44.0906C69.2449 44.0906 69.885 44.536 69.8223 45.4666C69.7398 46.6743 68.8688 46.8393 67.8823 46.8393C58.9048 46.8327 49.9306 46.836 40.9532 46.836C40.8311 46.836 40.7057 46.836 40.5836 46.836C39.6763 46.8327 39.0032 46.4236 38.9868 45.4963C38.967 44.4965 39.6433 44.084 40.6199 44.0873C45.2291 44.0972 49.8415 44.0906 54.454 44.0906Z" fill="#323232"/>
<path d="M54.4745 36.4547C49.9412 36.4547 45.4046 36.4415 40.8714 36.4646C39.9079 36.4712 39.1062 36.3227 38.9775 35.1974C38.8753 34.3032 39.5813 33.7686 40.8681 33.7653C49.895 33.7554 58.9253 33.762 67.9522 33.762C68.1172 33.762 68.2855 33.7554 68.4471 33.7785C69.272 33.894 69.8757 34.257 69.8263 35.1941C69.7768 36.1115 69.1961 36.4547 68.3284 36.4547C63.706 36.4514 59.0902 36.4547 54.4745 36.4547Z" fill="#323232"/>
<path d="M54.4794 54.4517C58.8477 54.4517 63.216 54.4517 67.5843 54.4517C67.9539 54.4517 68.4191 54.3263 68.6764 54.5012C69.1284 54.8048 69.7355 55.2833 69.752 55.709C69.7685 56.1379 69.2208 56.7022 68.7787 56.9992C68.4521 57.217 67.9011 57.1213 67.4524 57.1213C58.7553 57.1279 50.0616 57.1279 41.3646 57.1213C40.3352 57.1213 39.1705 57.2632 38.9759 55.8146C38.8472 54.851 39.606 54.4517 41.3745 54.4484C45.7428 54.4517 50.1111 54.4517 54.4794 54.4517Z" fill="#323232"/>
<path d="M87.7756 91.3869C86.3602 91.4331 85.8719 90.6114 86.2183 89.2717C86.7627 87.1697 87.3302 85.0743 87.8944 82.9789C89.2009 78.1116 90.4976 73.241 91.8437 68.387C91.9955 67.8425 92.3551 67.2452 92.8038 66.9351C93.0842 66.7404 93.9322 66.869 94.1202 67.1363C94.4304 67.5752 94.6085 68.2913 94.4931 68.8094C94.0048 70.9642 93.3845 73.0893 92.8104 75.2276C91.5006 80.0915 90.1907 84.9588 88.8842 89.8228C88.673 90.6015 88.452 91.3539 87.7756 91.3869Z" fill="#323232"/>
<path d="M134.152 44.0904C136.086 44.0904 138.019 44.1102 139.953 44.0838C140.962 44.0706 141.728 44.4137 141.708 45.4961C141.688 46.4959 140.936 46.8424 139.989 46.8424C135.997 46.8358 132.008 46.8358 128.016 46.8424C127.062 46.8457 126.32 46.4563 126.316 45.473C126.313 44.4071 127.095 44.0673 128.101 44.0838C130.121 44.1135 132.136 44.0904 134.152 44.0904Z" fill="#323232"/>
<path d="M133.983 36.4546C131.964 36.4546 129.945 36.4315 127.925 36.4645C126.982 36.481 126.352 36.085 126.325 35.1611C126.295 34.2107 126.978 33.7784 127.876 33.7751C131.957 33.7619 136.038 33.7619 140.12 33.7718C141.01 33.7718 141.72 34.1612 141.72 35.1116C141.72 36.1246 141.03 36.481 140.047 36.4645C138.025 36.4315 136.002 36.4546 133.983 36.4546Z" fill="#323232"/>
<path d="M86.0719 36.4546C84.0527 36.4546 82.0335 36.4447 80.0143 36.4579C79.107 36.4645 78.4637 36.1807 78.4373 35.161C78.4109 34.1348 79.0971 33.7817 79.9615 33.7751C84.0428 33.752 88.1208 33.752 92.2021 33.7718C93.1292 33.7751 93.8715 34.1744 93.7956 35.227C93.7263 36.1807 93.0368 36.4744 92.1295 36.4612C90.1136 36.4348 88.0911 36.4546 86.0719 36.4546Z" fill="#323232"/>
<path d="M86.1493 44.0906C88.1223 44.0906 90.0953 44.1038 92.0683 44.084C93.0152 44.0741 93.7641 44.3908 93.7971 45.4006C93.8301 46.4928 93.035 46.836 92.0518 46.836C88.0662 46.836 84.0773 46.8393 80.0917 46.8327C79.1646 46.8327 78.4388 46.506 78.4454 45.4435C78.452 44.3743 79.1712 44.084 80.1082 44.0906C82.1208 44.0972 84.1334 44.0906 86.1493 44.0906Z" fill="#323232"/>
<path d="M110.013 46.8359C108.122 46.8359 106.232 46.826 104.338 46.8392C103.355 46.8458 102.477 46.7039 102.391 45.4829C102.325 44.5392 102.949 44.0937 104.269 44.0904C108.132 44.0871 111.999 44.0871 115.863 44.0904C117.093 44.0904 117.898 44.6349 117.793 45.4763C117.648 46.6082 116.823 46.8557 115.81 46.8425C113.88 46.8161 111.946 46.8359 110.013 46.8359Z" fill="#323232"/>
<path d="M110.104 36.4546C108.085 36.4546 106.066 36.4414 104.046 36.4612C103.159 36.4711 102.456 36.25 102.4 35.2337C102.341 34.1546 103.05 33.7784 103.98 33.7751C108.019 33.7586 112.057 33.7652 116.095 33.7685C117.029 33.7685 117.801 34.1513 117.772 35.1611C117.742 36.1477 117.009 36.4876 116.036 36.4678C114.06 36.4282 112.08 36.4546 110.104 36.4546Z" fill="#323232"/>
<path d="M86.065 54.4551C88.0842 54.4551 90.1034 54.4683 92.1193 54.4485C93.0728 54.4386 93.7953 54.7389 93.7986 55.7882C93.8019 56.7782 93.0728 57.1147 92.205 57.1147C88.1271 57.1279 84.0491 57.1313 79.9711 57.1115C79.11 57.1082 78.4171 56.7848 78.4369 55.7453C78.4567 54.7158 79.11 54.4452 80.0107 54.4518C82.0266 54.4617 84.0458 54.4551 86.065 54.4551Z" fill="#323232"/>
<path d="M110.114 54.4553C112.133 54.4553 114.149 54.4751 116.168 54.4487C117.105 54.4355 117.752 54.8414 117.775 55.7554C117.798 56.6959 117.095 57.1149 116.201 57.1182C112.123 57.1314 108.048 57.1347 103.97 57.1182C103.106 57.1149 102.396 56.7982 102.396 55.7818C102.396 54.6929 103.116 54.4388 104.063 54.4487C106.079 54.4685 108.098 54.452 110.114 54.4553Z" fill="#323232"/>
<path d="M134.009 54.452C136.028 54.452 138.044 54.4718 140.063 54.4421C140.977 54.4289 141.663 54.7391 141.706 55.6927C141.756 56.7322 141.013 57.1149 140.076 57.1182C136.041 57.1281 132.003 57.1281 127.968 57.1182C127.031 57.1149 126.275 56.7388 126.318 55.7092C126.364 54.6863 127.126 54.4223 128.073 54.4421C130.056 54.4784 132.033 54.452 134.009 54.452Z" fill="#323232"/>
<path d="M127.277 10.0592C127.257 12.4878 125.396 14.2599 122.896 14.2302C120.523 14.2005 118.748 12.3625 118.755 9.94367C118.761 7.51498 120.629 5.67697 123.074 5.69347C125.492 5.70997 127.297 7.58098 127.277 10.0592ZM124.44 9.78198C124.311 9.05271 123.892 8.48844 122.925 8.55773C122.054 8.62043 121.586 9.10551 121.612 9.99317C121.642 10.9435 122.173 11.4055 123.107 11.3692C124.004 11.3329 124.403 10.8016 124.44 9.78198Z" fill="#323232"/>
<path d="M138.694 14.2269C136.276 14.2335 134.333 12.3262 134.346 9.95692C134.359 7.67012 136.315 5.71332 138.602 5.69352C141.037 5.67372 142.941 7.51503 142.974 9.92722C143.01 12.3361 141.132 14.2203 138.694 14.2269ZM138.345 8.55448C137.728 8.65018 137.177 9.15175 137.226 10.0526C137.272 10.8842 137.794 11.3626 138.678 11.3824C139.664 11.4022 140.159 10.7984 140.146 9.95362C140.129 9.10556 139.588 8.52808 138.345 8.55448Z" fill="#323232"/>
<path d="M107.277 14.2268C104.885 14.2037 103.09 12.3921 103.08 9.98647C103.07 7.55779 104.941 5.68678 107.369 5.69338C109.728 5.69998 111.711 7.68978 111.678 10.0228C111.648 12.4053 109.718 14.2499 107.277 14.2268ZM107.59 11.379C108.247 11.3526 108.818 10.8807 108.804 9.96667C108.791 9.07902 108.277 8.54444 107.326 8.55434C106.422 8.56094 105.934 9.12191 105.908 9.91718C105.881 10.7784 106.346 11.3856 107.59 11.379Z" fill="#323232"/>
</svg>
