<svg width="650" height="579" viewBox="0 0 650 579" fill="none" xmlns="http://www.w3.org/2000/svg">
<path d="M573.288 40.5887C573.912 41.2645 574.849 42.3328 575.626 43.3357C576.016 43.8385 576.355 44.311 576.594 44.7018C576.713 44.8977 576.799 45.0593 576.853 45.1845C576.914 45.3253 576.908 45.36 576.908 45.3221L578.401 45.3027C578.398 45.0423 578.31 44.7896 578.224 44.5923C578.133 44.3795 578.008 44.1525 577.868 43.9235C577.588 43.4646 577.211 42.9425 576.806 42.4205C575.995 41.3739 575.028 40.2721 574.385 39.5753L573.288 40.5887ZM576.908 45.3221C576.906 45.1675 576.986 45.0888 576.978 45.0965C576.965 45.1091 576.908 45.1556 576.771 45.221C576.499 45.3502 576.079 45.4759 575.556 45.5874C574.523 45.8077 573.261 45.9368 572.414 45.9868L572.502 47.4776C573.391 47.4252 574.734 47.2896 575.867 47.0481C576.428 46.9287 576.982 46.7743 577.412 46.5698C577.626 46.4684 577.852 46.3347 578.033 46.1532C578.22 45.9667 578.406 45.6799 578.401 45.3027L576.908 45.3221Z" fill="#F94E1E"/>
<path d="M564.084 44.3756C563.459 43.6998 562.523 42.6316 561.745 41.6287C561.355 41.1258 561.016 40.6533 560.777 40.2625C560.658 40.0667 560.572 39.9051 560.518 39.7799C560.457 39.6391 560.463 39.6044 560.464 39.6422L558.97 39.6616C558.974 39.922 559.062 40.1748 559.147 40.3721C559.239 40.5849 559.363 40.8119 559.503 41.0409C559.783 41.4998 560.16 42.0219 560.565 42.5438C561.376 43.5904 562.343 44.6923 562.987 45.389L564.084 44.3756ZM560.464 39.6422C560.466 39.7969 560.386 39.8755 560.393 39.8679C560.406 39.8553 560.463 39.8087 560.6 39.7433C560.872 39.6141 561.292 39.4884 561.815 39.3769C562.849 39.1567 564.11 39.0275 564.958 38.9776L564.87 37.4867C563.98 37.5392 562.637 37.6748 561.504 37.9163C560.944 38.0357 560.389 38.1901 559.959 38.3945C559.746 38.496 559.52 38.6297 559.338 38.8112C559.151 38.9977 558.965 39.2845 558.97 39.6616L560.464 39.6422Z" fill="#F94E1E"/>
<line x1="0.746725" y1="-0.746725" x2="16.2952" y2="-0.746725" transform="matrix(-0.622488 0.78263 -0.711985 -0.702194 573.309 35.5332)" stroke="#F94E1E" stroke-width="1.49345" stroke-linecap="round"/>
<path d="M45.7652 175.53C46.1743 175.478 46.4864 175.101 46.4623 174.69C46.4383 174.278 46.0872 173.987 45.6781 174.039L45.7652 175.53ZM46.0526 183.586C46.4551 183.636 46.8438 183.343 46.921 182.931C46.9981 182.519 46.7344 182.144 46.3319 182.094L46.0526 183.586ZM45.0323 182.695L45.172 181.949L45.0323 182.695ZM45.6781 174.039L44.4663 174.194L44.5534 175.685L45.7652 175.53L45.6781 174.039ZM43.307 175.63L43.8935 182.391L45.3718 182.159L44.7853 175.398L43.307 175.63ZM44.8927 183.441L46.0526 183.586L46.3319 182.094L45.172 181.949L44.8927 183.441ZM43.8935 182.391C43.9415 182.944 44.3495 183.373 44.8927 183.441L45.172 181.949C45.2806 181.963 45.3622 182.048 45.3718 182.159L43.8935 182.391ZM44.4663 174.194C43.7709 174.283 43.2465 174.933 43.307 175.63L44.7853 175.398C44.7974 175.538 44.6925 175.667 44.5534 175.685L44.4663 174.194Z" fill="#F94E1E"/>
<path d="M50.2895 181.53C49.8804 181.582 49.5683 181.959 49.5924 182.37C49.6164 182.782 49.9675 183.073 50.3766 183.021L50.2895 181.53ZM50.0021 173.474C49.5996 173.424 49.2108 173.717 49.1337 174.129C49.0566 174.541 49.3203 174.916 49.7228 174.966L50.0021 173.474ZM51.0224 174.365L50.8827 175.111L51.0224 174.365ZM50.3766 183.021L51.5884 182.866L51.5013 181.375L50.2895 181.53L50.3766 183.021ZM52.7477 181.43L52.1612 174.669L50.6829 174.901L51.2694 181.662L52.7477 181.43ZM51.162 173.619L50.0021 173.474L49.7228 174.966L50.8827 175.111L51.162 173.619ZM52.1612 174.669C52.1132 174.116 51.7052 173.687 51.162 173.619L50.8827 175.111C50.7741 175.097 50.6925 175.012 50.6829 174.901L52.1612 174.669ZM51.5884 182.866C52.2838 182.777 52.8082 182.127 52.7477 181.43L51.2694 181.662C51.2573 181.522 51.3622 181.393 51.5013 181.375L51.5884 182.866Z" fill="#F94E1E"/>
<path d="M425.001 64.9248L429.865 68.5911" stroke="#F94E1E" stroke-width="1.49345" stroke-linecap="round"/>
<path d="M426.579 62.2383L431.931 65.9277" stroke="#F94E1E" stroke-width="1.49345" stroke-linecap="round"/>
<path d="M6.08798 292.871L2.56194 300.264" stroke="#F94E1E" stroke-width="1.49345" stroke-linecap="round"/>
<path d="M9.44004 294.018L6.11689 302.355" stroke="#F94E1E" stroke-width="1.49345" stroke-linecap="round"/>
<path d="M1.6217 294.203L10.8657 297.699" stroke="#F94E1E" stroke-width="1.49345" stroke-linecap="round"/>
<path d="M0.762329 297.409L9.86005 300.649" stroke="#F94E1E" stroke-width="1.49345" stroke-linecap="round"/>
<path d="M648.102 253.016C648.399 254.037 648.643 256.293 647.244 257.154" stroke="#F94E1E" stroke-width="1.49345" stroke-linecap="round"/>
<path d="M648.715 248.828L648.887 248" stroke="#F94E1E" stroke-width="1.49345" stroke-linecap="round"/>
<path d="M195.266 28.8409L195.109 28.0278" stroke="#F94E1E" stroke-width="1.49345" stroke-linecap="round"/>
<path d="M195.879 32.6531L195.933 31.812" stroke="#F94E1E" stroke-width="1.49345" stroke-linecap="round"/>
<path d="M102.826 320.622C101.18 321.739 98.1869 324.969 99.3813 328.952" stroke="#F94E1E" stroke-width="1.49345" stroke-linecap="round"/>
<path d="M103.027 330.884C104.673 329.767 107.666 326.537 106.472 322.554" stroke="#F94E1E" stroke-width="1.49345" stroke-linecap="round"/>
<path d="M325.357 578.512C325.591 578.839 326.056 578.899 326.395 578.647C326.734 578.395 326.819 577.926 326.584 577.599L325.357 578.512ZM320.983 570.744L320.24 570.852L320.983 570.744ZM323.294 570.897L322.561 570.795L323.294 570.897ZM320.255 576.438L319.554 576.731L320.255 576.438ZM326.086 574.165C326.121 573.753 325.817 573.407 325.407 573.393C324.996 573.379 324.634 573.702 324.599 574.114L326.086 574.165ZM326.584 577.599C325.181 575.644 323.942 574.287 323.098 573.243C322.229 572.167 321.802 571.449 321.726 570.636L320.24 570.852C320.359 572.125 321.037 573.128 321.919 574.219C322.826 575.341 323.982 576.597 325.357 578.512L326.584 577.599ZM321.726 570.636C321.69 570.253 321.797 570.081 321.856 570.017C321.921 569.946 322.021 569.9 322.144 569.907C322.267 569.913 322.39 569.971 322.473 570.084C322.55 570.19 322.635 570.403 322.561 570.795L324.027 570.999C324.164 570.274 324.04 569.636 323.692 569.16C323.35 568.693 322.83 568.441 322.297 568.414C321.763 568.387 321.194 568.585 320.778 569.04C320.357 569.502 320.173 570.139 320.24 570.852L321.726 570.636ZM322.561 570.795C322.529 570.965 322.395 571.18 322.031 571.51C321.857 571.668 321.659 571.826 321.432 572.008C321.212 572.184 320.966 572.38 320.731 572.591C320.263 573.009 319.766 573.543 319.494 574.25C319.213 574.982 319.21 575.804 319.554 576.731L320.956 576.146C320.715 575.496 320.757 575.053 320.884 574.722C321.021 574.365 321.295 574.037 321.692 573.682C321.889 573.506 322.099 573.337 322.325 573.157C322.544 572.982 322.782 572.792 322.999 572.595C323.419 572.216 323.894 571.699 324.027 570.999L322.561 570.795ZM319.554 576.731C319.863 577.56 320.446 578.091 321.184 578.291C321.895 578.483 322.663 578.345 323.342 578.029C324.688 577.403 325.931 575.962 326.086 574.165L324.599 574.114C324.498 575.284 323.67 576.262 322.773 576.679C322.33 576.885 321.933 576.925 321.642 576.846C321.377 576.775 321.12 576.587 320.956 576.146L319.554 576.731Z" fill="#F94E1E"/>
<path d="M57.0831 514.585L60.7855 514" stroke="#F94E1E" stroke-width="1.49345" stroke-linecap="round"/>
<path d="M57.3175 517.41L61.0587 517.295" stroke="#F94E1E" stroke-width="1.49345" stroke-linecap="round"/>
<path d="M67.87 517.732C67.1745 517.405 66.113 516.868 65.1944 516.323C64.7338 516.049 64.3232 515.781 64.0159 515.543C63.862 515.424 63.7452 515.321 63.6642 515.236C63.5743 515.142 63.5653 515.108 63.5754 515.134L62.2012 515.813C62.2863 516.031 62.4339 516.212 62.5659 516.35C62.707 516.498 62.8776 516.645 63.0607 516.787C63.4273 517.071 63.8884 517.369 64.3694 517.654C65.3339 518.228 66.4346 518.784 67.1557 519.123L67.87 517.732ZM63.5754 515.134C63.62 515.248 63.5905 515.335 63.5922 515.33C63.5961 515.318 63.6203 515.262 63.6986 515.155C63.8548 514.943 64.124 514.669 64.4822 514.36C65.1894 513.75 66.101 513.122 66.7259 512.732L66.0531 511.455C65.386 511.872 64.397 512.551 63.6016 513.237C63.2085 513.576 62.8259 513.949 62.5557 514.316C62.4207 514.499 62.288 514.716 62.207 514.953C62.1239 515.197 62.0816 515.508 62.2012 515.813L63.5754 515.134Z" fill="#F94E1E"/>
<path d="M329.707 2.99986C329.506 3.34325 329.64 3.79879 330.006 4.01735C330.372 4.2359 330.832 4.1347 331.033 3.79131L329.707 2.99986ZM334.365 1.45809L334.625 0.783903L334.625 0.783903L334.365 1.45809ZM333.045 7.23268L332.611 6.60303L333.045 7.23268ZM333.234 10.7372C333.553 11.0195 334.03 11.0107 334.299 10.7175C334.569 10.4244 334.529 9.95778 334.21 9.67544L333.234 10.7372ZM331.033 3.79131C331.278 3.3728 331.751 2.78252 332.341 2.39422C332.924 2.01026 333.513 1.88412 334.105 2.13228L334.625 0.783903C333.378 0.261187 332.252 0.620274 331.439 1.15603C330.632 1.68743 330.027 2.45134 329.707 2.99986L331.033 3.79131ZM334.105 2.13228C334.413 2.2615 334.551 2.45218 334.61 2.7318C334.679 3.0611 334.631 3.5216 334.442 4.06252C334.059 5.15733 333.235 6.21649 332.611 6.60303L333.479 7.86233C334.434 7.27148 335.42 5.92515 335.877 4.61791C336.108 3.95781 336.237 3.21814 336.091 2.52708C335.935 1.78635 335.466 1.13648 334.625 0.783903L334.105 2.13228ZM332.611 6.60303C332.157 6.88389 331.867 7.27321 331.77 7.74305C331.677 8.19254 331.777 8.63321 331.929 9.00001C332.226 9.7179 332.81 10.3625 333.234 10.7372L334.21 9.67544C333.881 9.38472 333.495 8.93345 333.326 8.52635C333.245 8.33066 333.238 8.20156 333.254 8.12416C333.265 8.06711 333.301 7.97243 333.479 7.86233L332.611 6.60303Z" fill="#F94E1E"/>
<path d="M334.902 13.2432C334.802 13.2096 334.561 13.129 334.4 13.0752" stroke="#F94E1E" stroke-width="1.49345" stroke-linecap="round"/>
<path d="M561.358 159.139L562.08 158.976L561.358 159.139ZM558.156 160.124L557.431 160.128L558.156 160.124ZM558.881 160.121C558.947 159.263 559.434 158.868 559.84 158.772C560.057 158.721 560.247 158.755 560.378 158.836C560.497 158.91 560.605 159.044 560.637 159.302L562.08 158.976C561.996 158.304 561.669 157.794 561.195 157.5C560.733 157.213 560.172 157.154 559.641 157.279C558.55 157.535 557.552 158.562 557.431 160.128L558.881 160.121ZM560.637 159.302C560.736 160.093 560.309 160.592 559.899 160.748C559.691 160.827 559.49 160.818 559.328 160.731C559.172 160.647 558.981 160.453 558.873 160.017L557.463 160.52C557.649 161.271 558.041 161.819 558.583 162.109C559.12 162.396 559.735 162.392 560.286 162.183C561.397 161.762 562.271 160.51 562.08 158.976L560.637 159.302ZM557.431 160.128C557.421 160.261 557.432 160.396 557.463 160.52L558.873 160.017C558.878 160.035 558.88 160.052 558.881 160.068C558.883 160.083 558.883 160.1 558.881 160.121L557.431 160.128Z" fill="#F94E1E"/>
<path d="M564.874 167.932L565.467 168.375L564.874 167.932ZM563.56 166.576C563.293 167.276 563.536 167.607 563.672 167.706C563.76 167.769 563.859 167.79 563.951 167.77C564.037 167.751 564.161 167.686 564.281 167.488L565.467 168.375C564.835 169.42 563.725 169.597 562.911 169.008C562.087 168.41 561.77 167.205 562.251 165.943L563.56 166.576ZM564.281 167.488C564.656 166.869 564.466 166.449 564.337 166.322C564.268 166.254 564.181 166.219 564.073 166.236C563.96 166.253 563.757 166.34 563.515 166.657L562.419 165.638C562.825 165.103 563.316 164.767 563.848 164.686C564.384 164.603 564.892 164.793 565.269 165.165C566.035 165.918 566.152 167.243 565.467 168.375L564.281 167.488ZM562.251 165.943C562.293 165.833 562.351 165.729 562.419 165.638L563.515 166.657C563.526 166.644 563.534 166.631 563.54 166.619C563.547 166.607 563.554 166.593 563.56 166.576L562.251 165.943Z" fill="#F94E1E"/>
<path d="M565.239 159.619L559.136 166.986" stroke="#F94E1E" stroke-width="1.49345" stroke-linecap="round"/>
<g clip-path="url(#clip0_2711_29503)">
<rect x="355.885" y="163.722" width="181.58" height="137.75" rx="6.26136" fill="#FFD27C"/>
<rect x="178.273" y="440.545" width="320.727" height="137.455" rx="6.26136" fill="#B6EBE8"/>
<mask id="path-29-outside-1_2711_29503" maskUnits="userSpaceOnUse" x="122.222" y="83.4546" width="400" height="422" fill="black">
<rect fill="white" x="122.222" y="83.4546" width="400" height="422"/>
<path d="M520.865 474.562C520.369 476.132 519.853 477.702 519.388 479.272C515.215 493.219 502.644 502.889 488.101 503.323C487.068 503.353 486.035 503.364 485.002 503.364C376.68 503.364 268.359 503.374 160.047 503.364C142.849 503.364 129.7 493.932 125.548 478.467C124.691 475.264 124.288 471.855 124.277 468.539C124.215 379.054 124.205 209.769 124.246 120.284C124.257 100.159 138.81 85.4999 158.89 85.4896C267.987 85.4379 377.083 85.4482 486.169 85.4896C503.553 85.4999 516.248 95.8616 520.214 112.938C520.328 113.414 520.648 113.827 520.865 114.281C520.865 207.775 520.865 381.068 520.865 474.562ZM512.312 148.125C385.543 148.125 259.279 148.125 132.799 148.125C132.799 149.881 132.799 151.286 132.799 152.701C132.799 230.812 133.005 388.723 132.613 466.834C132.541 481.576 143.045 494.996 160.491 494.955C268.534 494.645 376.577 494.8 484.63 494.779C487.202 494.779 489.846 494.82 492.315 494.252C504.514 491.442 512.292 481.473 512.302 468.756C512.323 389.746 512.312 230.926 512.312 151.916C512.312 150.749 512.312 149.602 512.312 148.125ZM512.188 139.086C512.188 132.133 512.24 125.697 512.178 119.261C512.106 111.926 509.307 105.759 503.956 100.748C498.327 95.4794 491.53 94.1261 484.021 94.1364C389.53 94.2294 295.039 94.1984 200.548 94.1984C186.087 94.1984 171.636 94.1364 157.176 94.2914C146.547 94.405 136.197 101.688 134.183 112.102C132.499 120.8 132.954 129.922 132.448 139.096C259.527 139.086 385.594 139.086 512.188 139.086Z"/>
</mask>
<path d="M520.865 474.562C520.369 476.132 519.853 477.702 519.388 479.272C515.215 493.219 502.644 502.889 488.101 503.323C487.068 503.353 486.035 503.364 485.002 503.364C376.68 503.364 268.359 503.374 160.047 503.364C142.849 503.364 129.7 493.932 125.548 478.467C124.691 475.264 124.288 471.855 124.277 468.539C124.215 379.054 124.205 209.769 124.246 120.284C124.257 100.159 138.81 85.4999 158.89 85.4896C267.987 85.4379 377.083 85.4482 486.169 85.4896C503.553 85.4999 516.248 95.8616 520.214 112.938C520.328 113.414 520.648 113.827 520.865 114.281C520.865 207.775 520.865 381.068 520.865 474.562ZM512.312 148.125C385.543 148.125 259.279 148.125 132.799 148.125C132.799 149.881 132.799 151.286 132.799 152.701C132.799 230.812 133.005 388.723 132.613 466.834C132.541 481.576 143.045 494.996 160.491 494.955C268.534 494.645 376.577 494.8 484.63 494.779C487.202 494.779 489.846 494.82 492.315 494.252C504.514 491.442 512.292 481.473 512.302 468.756C512.323 389.746 512.312 230.926 512.312 151.916C512.312 150.749 512.312 149.602 512.312 148.125ZM512.188 139.086C512.188 132.133 512.24 125.697 512.178 119.261C512.106 111.926 509.307 105.759 503.956 100.748C498.327 95.4794 491.53 94.1261 484.021 94.1364C389.53 94.2294 295.039 94.1984 200.548 94.1984C186.087 94.1984 171.636 94.1364 157.176 94.2914C146.547 94.405 136.197 101.688 134.183 112.102C132.499 120.8 132.954 129.922 132.448 139.096C259.527 139.086 385.594 139.086 512.188 139.086Z" fill="#323232"/>
<path d="M520.865 474.562C520.369 476.132 519.853 477.702 519.388 479.272C515.215 493.219 502.644 502.889 488.101 503.323C487.068 503.353 486.035 503.364 485.002 503.364C376.68 503.364 268.359 503.374 160.047 503.364C142.849 503.364 129.7 493.932 125.548 478.467C124.691 475.264 124.288 471.855 124.277 468.539C124.215 379.054 124.205 209.769 124.246 120.284C124.257 100.159 138.81 85.4999 158.89 85.4896C267.987 85.4379 377.083 85.4482 486.169 85.4896C503.553 85.4999 516.248 95.8616 520.214 112.938C520.328 113.414 520.648 113.827 520.865 114.281C520.865 207.775 520.865 381.068 520.865 474.562ZM512.312 148.125C385.543 148.125 259.279 148.125 132.799 148.125C132.799 149.881 132.799 151.286 132.799 152.701C132.799 230.812 133.005 388.723 132.613 466.834C132.541 481.576 143.045 494.996 160.491 494.955C268.534 494.645 376.577 494.8 484.63 494.779C487.202 494.779 489.846 494.82 492.315 494.252C504.514 491.442 512.292 481.473 512.302 468.756C512.323 389.746 512.312 230.926 512.312 151.916C512.312 150.749 512.312 149.602 512.312 148.125ZM512.188 139.086C512.188 132.133 512.24 125.697 512.178 119.261C512.106 111.926 509.307 105.759 503.956 100.748C498.327 95.4794 491.53 94.1261 484.021 94.1364C389.53 94.2294 295.039 94.1984 200.548 94.1984C186.087 94.1984 171.636 94.1364 157.176 94.2914C146.547 94.405 136.197 101.688 134.183 112.102C132.499 120.8 132.954 129.922 132.448 139.096C259.527 139.086 385.594 139.086 512.188 139.086Z" stroke="#323232" stroke-width="2.29091" mask="url(#path-29-outside-1_2711_29503)"/>
<mask id="path-30-outside-2_2711_29503" maskUnits="userSpaceOnUse" x="409.48" y="101.278" width="30" height="30" fill="black">
<rect fill="white" x="409.48" y="101.278" width="30" height="30"/>
<path d="M438.16 116.946C438.098 124.55 432.273 130.097 424.443 130.004C417.016 129.911 411.459 124.157 411.48 116.585C411.501 108.981 417.347 103.227 425.001 103.279C432.572 103.33 438.222 109.188 438.16 116.946ZM429.277 116.078C428.874 113.795 427.563 112.029 424.536 112.246C421.809 112.442 420.342 113.961 420.425 116.74C420.518 119.715 422.181 121.161 425.104 121.048C427.914 120.934 429.164 119.271 429.277 116.078Z"/>
</mask>
<path d="M438.16 116.946C438.098 124.55 432.273 130.097 424.443 130.004C417.016 129.911 411.459 124.157 411.48 116.585C411.501 108.981 417.347 103.227 425.001 103.279C432.572 103.33 438.222 109.188 438.16 116.946ZM429.277 116.078C428.874 113.795 427.563 112.029 424.536 112.246C421.809 112.442 420.342 113.961 420.425 116.74C420.518 119.715 422.181 121.161 425.104 121.048C427.914 120.934 429.164 119.271 429.277 116.078Z" fill="#323232"/>
<path d="M438.16 116.946C438.098 124.55 432.273 130.097 424.443 130.004C417.016 129.911 411.459 124.157 411.48 116.585C411.501 108.981 417.347 103.227 425.001 103.279C432.572 103.33 438.222 109.188 438.16 116.946ZM429.277 116.078C428.874 113.795 427.563 112.029 424.536 112.246C421.809 112.442 420.342 113.961 420.425 116.74C420.518 119.715 422.181 121.161 425.104 121.048C427.914 120.934 429.164 119.271 429.277 116.078Z" stroke="#323232" stroke-width="2.29091" mask="url(#path-30-outside-2_2711_29503)"/>
<mask id="path-31-outside-3_2711_29503" maskUnits="userSpaceOnUse" x="458.285" y="101.278" width="31" height="30" fill="black">
<rect fill="white" x="458.285" y="101.278" width="31" height="30"/>
<path d="M473.899 129.994C466.328 130.015 460.244 124.044 460.285 116.626C460.326 109.467 466.452 103.341 473.61 103.279C481.233 103.217 487.193 108.981 487.296 116.533C487.409 124.075 481.532 129.973 473.899 129.994ZM472.804 112.236C470.872 112.535 469.148 114.105 469.302 116.926C469.447 119.529 471.079 121.027 473.847 121.089C476.936 121.151 478.485 119.261 478.444 116.616C478.392 113.961 476.698 112.153 472.804 112.236Z"/>
</mask>
<path d="M473.899 129.994C466.328 130.015 460.244 124.044 460.285 116.626C460.326 109.467 466.452 103.341 473.61 103.279C481.233 103.217 487.193 108.981 487.296 116.533C487.409 124.075 481.532 129.973 473.899 129.994ZM472.804 112.236C470.872 112.535 469.148 114.105 469.302 116.926C469.447 119.529 471.079 121.027 473.847 121.089C476.936 121.151 478.485 119.261 478.444 116.616C478.392 113.961 476.698 112.153 472.804 112.236Z" fill="#323232"/>
<path d="M473.899 129.994C466.328 130.015 460.244 124.044 460.285 116.626C460.326 109.467 466.452 103.341 473.61 103.279C481.233 103.217 487.193 108.981 487.296 116.533C487.409 124.075 481.532 129.973 473.899 129.994ZM472.804 112.236C470.872 112.535 469.148 114.105 469.302 116.926C469.447 119.529 471.079 121.027 473.847 121.089C476.936 121.151 478.485 119.261 478.444 116.616C478.392 113.961 476.698 112.153 472.804 112.236Z" stroke="#323232" stroke-width="2.29091" mask="url(#path-31-outside-3_2711_29503)"/>
<mask id="path-32-outside-4_2711_29503" maskUnits="userSpaceOnUse" x="360.407" y="101.278" width="31" height="30" fill="black">
<rect fill="white" x="360.407" y="101.278" width="31" height="30"/>
<path d="M375.545 129.994C368.057 129.921 362.438 124.25 362.407 116.719C362.376 109.115 368.232 103.258 375.835 103.278C383.22 103.299 389.428 109.528 389.325 116.832C389.232 124.291 383.189 130.066 375.545 129.994ZM376.527 121.078C378.582 120.996 380.369 119.518 380.328 116.657C380.287 113.878 378.675 112.204 375.7 112.235C372.87 112.256 371.341 114.012 371.259 116.502C371.176 119.198 372.633 121.099 376.527 121.078Z"/>
</mask>
<path d="M375.545 129.994C368.057 129.921 362.438 124.25 362.407 116.719C362.376 109.115 368.232 103.258 375.835 103.278C383.22 103.299 389.428 109.528 389.325 116.832C389.232 124.291 383.189 130.066 375.545 129.994ZM376.527 121.078C378.582 120.996 380.369 119.518 380.328 116.657C380.287 113.878 378.675 112.204 375.7 112.235C372.87 112.256 371.341 114.012 371.259 116.502C371.176 119.198 372.633 121.099 376.527 121.078Z" fill="#323232"/>
<path d="M375.545 129.994C368.057 129.921 362.438 124.25 362.407 116.719C362.376 109.115 368.232 103.258 375.835 103.278C383.22 103.299 389.428 109.528 389.325 116.832C389.232 124.291 383.189 130.066 375.545 129.994ZM376.527 121.078C378.582 120.996 380.369 119.518 380.328 116.657C380.287 113.878 378.675 112.204 375.7 112.235C372.87 112.256 371.341 114.012 371.259 116.502C371.176 119.198 372.633 121.099 376.527 121.078Z" stroke="#323232" stroke-width="2.29091" mask="url(#path-32-outside-4_2711_29503)"/>
<mask id="path-33-inside-5_2711_29503" fill="white">
<rect x="335.281" y="176.244" width="184.71" height="144.011" rx="6.26136"/>
</mask>
<rect x="335.281" y="176.244" width="184.71" height="144.011" rx="6.26136" stroke="#323232" stroke-width="19.4727" mask="url(#path-33-inside-5_2711_29503)"/>
<mask id="path-34-inside-6_2711_29503" fill="white">
<rect x="161.091" y="423.364" width="326.455" height="80.1818" rx="6.26136"/>
</mask>
<rect x="161.091" y="423.364" width="326.455" height="80.1818" rx="6.26136" stroke="#323232" stroke-width="19.4727" mask="url(#path-34-inside-6_2711_29503)"/>
<rect x="171.181" y="276.426" width="115.835" height="25.0455" rx="6.26136" fill="#FF756C"/>
<mask id="path-36-inside-7_2711_29503" fill="white">
<rect x="158.652" y="282.688" width="122.097" height="31.3068" rx="6.26136"/>
</mask>
<rect x="158.652" y="282.688" width="122.097" height="31.3068" rx="6.26136" stroke="#323232" stroke-width="15.6534" mask="url(#path-36-inside-7_2711_29503)"/>
<rect x="161.091" y="182.818" width="143.182" height="17.1818" rx="8.59091" fill="#323232"/>
<rect x="247" y="377.545" width="148.909" height="17.1818" rx="8.59091" fill="#323232"/>
<rect x="158.652" y="226.335" width="115.835" height="6.26136" rx="3.13068" fill="#767676"/>
<rect x="158.652" y="241.988" width="75.1364" height="6.26136" rx="3.13068" fill="#767676"/>
<rect x="235.545" y="406.182" width="171.818" height="5.72727" rx="2.86364" fill="#767676"/>
<path d="M552.373 350.871C552.149 351.217 552.248 351.679 552.594 351.903C552.941 352.127 553.403 352.028 553.627 351.682L552.373 350.871ZM557.326 350.255L556.795 350.781L557.326 350.255ZM563.062 351.975C563.403 351.743 563.492 351.279 563.26 350.938C563.028 350.597 562.564 350.508 562.223 350.74L563.062 351.975ZM553.627 351.682C553.966 351.157 554.525 350.611 555.116 350.373C555.4 350.259 555.67 350.224 555.926 350.272C556.178 350.318 556.473 350.455 556.795 350.781L557.856 349.73C557.35 349.219 556.789 348.913 556.198 348.803C555.611 348.694 555.051 348.79 554.559 348.988C553.599 349.374 552.823 350.174 552.373 350.871L553.627 351.682ZM556.795 350.781C557.856 351.852 558.847 352.58 559.906 352.799C561.016 353.029 562.035 352.673 563.062 351.975L562.223 350.74C561.376 351.315 560.772 351.454 560.21 351.337C559.597 351.21 558.867 350.75 557.856 349.73L556.795 350.781Z" fill="#F94E1E"/>
</g>
<path d="M94.9826 111.119C92.3306 108.505 89.8202 106.034 87.1359 103.388C88.758 101.315 90.3673 99.133 92.1182 97.0603C93.3734 95.5734 93.5086 94.228 92.6074 92.4579C91.4165 90.1084 90.4188 87.6365 89.5884 85.139C88.964 83.2594 87.8955 82.429 85.9515 82.2745C83.3123 82.075 80.6925 81.6501 77.8988 81.3025C77.8988 77.672 77.8988 74.1059 77.8988 70.3725C80.7955 70.0056 83.6406 69.6 86.4987 69.3039C88.0564 69.143 88.8932 68.3899 89.4275 66.9158C90.4124 64.2058 91.5002 61.528 92.7361 58.9275C93.4506 57.4212 93.412 56.2304 92.3628 54.943C90.5862 52.7672 88.8932 50.5272 87.329 48.5253C89.9618 45.8925 92.4979 43.3563 95.1629 40.685C96.9781 42.1075 99.186 43.7104 101.252 45.487C102.842 46.8516 104.258 46.8001 106.067 45.8539C108.256 44.7081 110.592 43.7876 112.948 43.0216C114.764 42.4294 115.826 41.5733 115.98 39.5456C116.186 36.8356 116.637 34.145 117.004 31.2998C120.596 31.2998 124.091 31.2998 127.934 31.2998C128.236 33.7201 128.668 36.2241 128.828 38.7474C128.983 41.142 129.929 42.5131 132.375 43.1503C134.602 43.7297 136.791 44.6695 138.799 45.8088C140.814 46.9546 142.32 46.7422 144 45.2552C145.925 43.5623 148.03 42.0754 149.968 40.5691C152.504 43.1761 154.95 45.6865 157.653 48.4673C156.224 50.3019 154.589 52.5548 152.787 54.6662C151.512 56.166 151.429 57.4727 152.343 59.2429C153.585 61.6568 154.512 64.2316 155.439 66.7935C155.993 68.3319 156.842 69.1752 158.529 69.3297C161.316 69.5807 164.084 70.0056 167 70.3725C167 74.003 167 77.5047 167 81.2896C164.438 81.6308 161.85 82.1072 159.237 82.2745C157.093 82.4161 155.922 83.2336 155.291 85.3707C154.596 87.7395 153.63 90.0762 152.439 92.239C151.377 94.1701 151.519 95.5991 152.941 97.2213C154.673 99.2039 156.205 101.367 157.827 103.452C155.175 105.995 152.633 108.428 149.877 111.067C148.107 109.683 145.97 108.151 143.988 106.426C142.314 104.971 140.833 104.688 138.793 105.86C136.656 107.083 134.3 108.048 131.925 108.705C129.826 109.284 129.073 110.488 128.88 112.451C128.622 115.084 128.268 117.704 127.953 120.414C124.252 120.414 120.737 120.414 117.017 120.414C116.637 117.524 116.193 114.685 115.916 111.827C115.748 110.127 114.867 109.349 113.322 108.801C110.689 107.855 108.101 106.754 105.572 105.564C104.078 104.862 102.881 104.875 101.587 105.943C99.4242 107.72 97.1777 109.407 94.9826 111.119ZM141.973 75.8182C141.966 65.0426 133.257 56.2947 122.52 56.2754C111.809 56.2561 103.003 64.9911 102.9 75.7216C102.797 86.4714 111.706 95.3867 122.546 95.3674C133.296 95.3416 141.973 86.6131 141.973 75.8182Z" fill="#767676"/>
<mask id="path-44-outside-8_2711_29503" maskUnits="userSpaceOnUse" x="67" y="27" width="101" height="101" fill="black">
<rect fill="white" x="67" y="27" width="101" height="101"/>
<path d="M89.469 37.0134C90.5247 37.4125 91.4388 37.6958 92.2949 38.1077C92.8614 38.3845 93.3506 38.8351 93.8591 39.2278C99.1889 43.341 99.2018 43.3668 105.311 40.4444C105.864 40.1804 106.334 39.3114 106.456 38.6484C106.855 36.5178 107.003 34.3421 107.37 32.205C107.834 29.5143 109.43 28.111 112.166 28.0531C115.706 27.9823 119.247 27.9823 122.781 28.0531C125.568 28.111 127.241 29.6624 127.679 32.411C127.744 32.8101 127.75 33.2156 127.801 33.6082C128.69 40.2319 128.677 40.2577 135.004 42.6201C135.597 42.8454 136.575 42.678 137.109 42.3111C138.828 41.1331 140.399 39.7298 142.079 38.4939C144.525 36.6851 146.604 36.7817 148.786 38.8802C151.277 41.2747 153.71 43.7337 156.111 46.2248C158.12 48.3039 158.249 50.3895 156.646 52.7519C156.465 53.0158 156.298 53.3119 156.06 53.5115C152.166 56.8072 151.457 60.5986 154.38 64.8599C154.882 65.5938 155.751 66.3405 156.581 66.5271C158.532 66.9648 160.572 66.9777 162.548 67.3189C165.567 67.8403 166.848 69.3852 166.887 72.4299C166.926 75.8093 166.926 79.1887 166.887 82.5617C166.848 85.6772 165.426 87.2801 162.355 87.7757C162.194 87.8015 162.033 87.8336 161.873 87.8208C156.877 87.4667 153.588 89.327 152.442 94.5474C152.166 95.7962 152.095 96.5558 152.912 97.5085C154.219 99.034 155.461 100.618 156.626 102.259C158.287 104.596 158.133 106.713 156.137 108.786C153.743 111.277 151.297 113.73 148.812 116.131C146.636 118.229 144.563 118.313 142.098 116.549C141.834 116.362 141.557 116.182 141.345 115.944C138.056 112.166 134.329 111.457 130.157 114.419C129.475 114.901 128.703 115.642 128.542 116.382C128.098 118.416 127.995 120.521 127.686 122.587C127.274 125.368 125.594 126.9 122.813 126.945C119.272 127.003 115.732 126.996 112.198 126.945C109.456 126.906 107.86 125.542 107.383 122.838C107.023 120.785 106.804 118.699 106.534 116.626C106.489 116.311 106.521 115.97 106.437 115.667C106.019 114.174 98.9508 111.844 97.7084 112.796C96.0477 114.071 94.4577 115.429 92.7584 116.639C90.396 118.326 88.3233 118.171 86.2505 116.156C83.7079 113.691 81.2039 111.194 78.745 108.651C76.8976 106.733 76.801 104.525 78.3137 102.304C78.539 101.976 78.7514 101.609 79.054 101.358C82.9033 98.0814 83.4891 94.335 80.5924 90.1767C80.0774 89.4429 79.2278 88.664 78.4038 88.4773C76.5371 88.0525 74.5738 88.0396 72.6684 87.7628C69.598 87.3187 68.1175 85.6837 68.0531 82.5875C67.9823 79.208 67.9823 75.8286 68.0531 72.4556C68.1175 69.3144 69.495 67.7952 72.6427 67.2609C74.0653 67.0228 75.52 66.7074 76.9426 66.7589C79.3243 66.8425 80.1032 65.5873 81.2361 63.624C83.4376 59.8262 82.5235 57.1355 79.6848 54.4513C79.054 53.8527 78.539 53.0931 78.0884 52.34C76.8847 50.3316 76.8911 48.3104 78.5519 46.5788C81.1653 43.8495 83.8302 41.1653 86.5853 38.5776C87.3384 37.8567 88.4777 37.5284 89.469 37.0134ZM89.9969 112.803C92.1855 111.091 94.4384 109.398 96.6077 107.608C97.9015 106.54 99.0988 106.527 100.592 107.228C103.122 108.426 105.71 109.526 108.342 110.466C109.887 111.02 110.763 111.792 110.936 113.492C111.22 116.343 111.657 119.182 112.037 122.079C115.758 122.079 119.272 122.079 122.974 122.079C123.296 119.369 123.65 116.749 123.901 114.116C124.087 112.153 124.847 110.955 126.945 110.37C129.321 109.713 131.677 108.747 133.814 107.524C135.854 106.353 137.341 106.643 139.008 108.091C140.984 109.81 143.128 111.348 144.898 112.732C147.653 110.093 150.189 107.66 152.848 105.117C151.226 103.031 149.694 100.869 147.962 98.886C146.54 97.2574 146.398 95.8348 147.46 93.9037C148.651 91.7409 149.61 89.4043 150.312 87.0355C150.943 84.8984 152.114 84.0809 154.258 83.9393C156.871 83.7719 159.459 83.2956 162.021 82.9544C162.021 79.1694 162.021 75.6677 162.021 72.0372C159.105 71.6703 156.337 71.2455 153.55 70.9944C151.857 70.8399 151.013 69.9967 150.46 68.4582C149.539 65.8963 148.606 63.3215 147.364 60.9076C146.449 59.1374 146.533 57.8307 147.808 56.3309C149.61 54.2196 151.245 51.9666 152.674 50.1321C149.971 47.3513 147.524 44.8408 144.988 42.2338C143.044 43.7401 140.939 45.2271 139.021 46.92C137.335 48.4069 135.835 48.6129 133.82 47.4736C131.818 46.3342 129.623 45.3944 127.396 44.8151C124.95 44.1778 124.004 42.8067 123.849 40.4122C123.688 37.8889 123.257 35.3849 122.954 32.9645C119.111 32.9645 115.61 32.9645 112.024 32.9645C111.657 35.8161 111.207 38.5068 111.001 41.2104C110.846 43.2445 109.784 44.1006 107.969 44.6863C105.613 45.4524 103.276 46.3728 101.088 47.5186C99.2791 48.4649 97.8629 48.5164 96.273 47.1517C94.2067 45.3815 92.0052 43.7723 90.1836 42.3497C87.5186 45.0146 84.9824 47.5573 82.3497 50.19C83.9139 52.1919 85.6133 54.432 87.3835 56.6077C88.4327 57.8951 88.4713 59.0859 87.7568 60.5922C86.5209 63.1928 85.433 65.8706 84.4482 68.5805C83.9139 70.0611 83.0707 70.8077 81.5193 70.9687C78.6613 71.2712 75.8161 71.6703 72.9195 72.0372C72.9195 75.7771 72.9195 79.3368 72.9195 82.9673C75.7132 83.3149 78.333 83.7397 80.9722 83.9393C82.9162 84.0873 83.9847 84.9241 84.6091 86.8037C85.4395 89.3077 86.4372 91.7731 87.6281 94.1226C88.5292 95.8928 88.3941 97.2446 87.1388 98.7251C85.388 100.798 83.7787 102.98 82.1566 105.053C84.8408 107.718 87.3448 110.189 89.9969 112.803Z"/>
</mask>
<path d="M89.469 37.0134C90.5247 37.4125 91.4388 37.6958 92.2949 38.1077C92.8614 38.3845 93.3506 38.8351 93.8591 39.2278C99.1889 43.341 99.2018 43.3668 105.311 40.4444C105.864 40.1804 106.334 39.3114 106.456 38.6484C106.855 36.5178 107.003 34.3421 107.37 32.205C107.834 29.5143 109.43 28.111 112.166 28.0531C115.706 27.9823 119.247 27.9823 122.781 28.0531C125.568 28.111 127.241 29.6624 127.679 32.411C127.744 32.8101 127.75 33.2156 127.801 33.6082C128.69 40.2319 128.677 40.2577 135.004 42.6201C135.597 42.8454 136.575 42.678 137.109 42.3111C138.828 41.1331 140.399 39.7298 142.079 38.4939C144.525 36.6851 146.604 36.7817 148.786 38.8802C151.277 41.2747 153.71 43.7337 156.111 46.2248C158.12 48.3039 158.249 50.3895 156.646 52.7519C156.465 53.0158 156.298 53.3119 156.06 53.5115C152.166 56.8072 151.457 60.5986 154.38 64.8599C154.882 65.5938 155.751 66.3405 156.581 66.5271C158.532 66.9648 160.572 66.9777 162.548 67.3189C165.567 67.8403 166.848 69.3852 166.887 72.4299C166.926 75.8093 166.926 79.1887 166.887 82.5617C166.848 85.6772 165.426 87.2801 162.355 87.7757C162.194 87.8015 162.033 87.8336 161.873 87.8208C156.877 87.4667 153.588 89.327 152.442 94.5474C152.166 95.7962 152.095 96.5558 152.912 97.5085C154.219 99.034 155.461 100.618 156.626 102.259C158.287 104.596 158.133 106.713 156.137 108.786C153.743 111.277 151.297 113.73 148.812 116.131C146.636 118.229 144.563 118.313 142.098 116.549C141.834 116.362 141.557 116.182 141.345 115.944C138.056 112.166 134.329 111.457 130.157 114.419C129.475 114.901 128.703 115.642 128.542 116.382C128.098 118.416 127.995 120.521 127.686 122.587C127.274 125.368 125.594 126.9 122.813 126.945C119.272 127.003 115.732 126.996 112.198 126.945C109.456 126.906 107.86 125.542 107.383 122.838C107.023 120.785 106.804 118.699 106.534 116.626C106.489 116.311 106.521 115.97 106.437 115.667C106.019 114.174 98.9508 111.844 97.7084 112.796C96.0477 114.071 94.4577 115.429 92.7584 116.639C90.396 118.326 88.3233 118.171 86.2505 116.156C83.7079 113.691 81.2039 111.194 78.745 108.651C76.8976 106.733 76.801 104.525 78.3137 102.304C78.539 101.976 78.7514 101.609 79.054 101.358C82.9033 98.0814 83.4891 94.335 80.5924 90.1767C80.0774 89.4429 79.2278 88.664 78.4038 88.4773C76.5371 88.0525 74.5738 88.0396 72.6684 87.7628C69.598 87.3187 68.1175 85.6837 68.0531 82.5875C67.9823 79.208 67.9823 75.8286 68.0531 72.4556C68.1175 69.3144 69.495 67.7952 72.6427 67.2609C74.0653 67.0228 75.52 66.7074 76.9426 66.7589C79.3243 66.8425 80.1032 65.5873 81.2361 63.624C83.4376 59.8262 82.5235 57.1355 79.6848 54.4513C79.054 53.8527 78.539 53.0931 78.0884 52.34C76.8847 50.3316 76.8911 48.3104 78.5519 46.5788C81.1653 43.8495 83.8302 41.1653 86.5853 38.5776C87.3384 37.8567 88.4777 37.5284 89.469 37.0134ZM89.9969 112.803C92.1855 111.091 94.4384 109.398 96.6077 107.608C97.9015 106.54 99.0988 106.527 100.592 107.228C103.122 108.426 105.71 109.526 108.342 110.466C109.887 111.02 110.763 111.792 110.936 113.492C111.22 116.343 111.657 119.182 112.037 122.079C115.758 122.079 119.272 122.079 122.974 122.079C123.296 119.369 123.65 116.749 123.901 114.116C124.087 112.153 124.847 110.955 126.945 110.37C129.321 109.713 131.677 108.747 133.814 107.524C135.854 106.353 137.341 106.643 139.008 108.091C140.984 109.81 143.128 111.348 144.898 112.732C147.653 110.093 150.189 107.66 152.848 105.117C151.226 103.031 149.694 100.869 147.962 98.886C146.54 97.2574 146.398 95.8348 147.46 93.9037C148.651 91.7409 149.61 89.4043 150.312 87.0355C150.943 84.8984 152.114 84.0809 154.258 83.9393C156.871 83.7719 159.459 83.2956 162.021 82.9544C162.021 79.1694 162.021 75.6677 162.021 72.0372C159.105 71.6703 156.337 71.2455 153.55 70.9944C151.857 70.8399 151.013 69.9967 150.46 68.4582C149.539 65.8963 148.606 63.3215 147.364 60.9076C146.449 59.1374 146.533 57.8307 147.808 56.3309C149.61 54.2196 151.245 51.9666 152.674 50.1321C149.971 47.3513 147.524 44.8408 144.988 42.2338C143.044 43.7401 140.939 45.2271 139.021 46.92C137.335 48.4069 135.835 48.6129 133.82 47.4736C131.818 46.3342 129.623 45.3944 127.396 44.8151C124.95 44.1778 124.004 42.8067 123.849 40.4122C123.688 37.8889 123.257 35.3849 122.954 32.9645C119.111 32.9645 115.61 32.9645 112.024 32.9645C111.657 35.8161 111.207 38.5068 111.001 41.2104C110.846 43.2445 109.784 44.1006 107.969 44.6863C105.613 45.4524 103.276 46.3728 101.088 47.5186C99.2791 48.4649 97.8629 48.5164 96.273 47.1517C94.2067 45.3815 92.0052 43.7723 90.1836 42.3497C87.5186 45.0146 84.9824 47.5573 82.3497 50.19C83.9139 52.1919 85.6133 54.432 87.3835 56.6077C88.4327 57.8951 88.4713 59.0859 87.7568 60.5922C86.5209 63.1928 85.433 65.8706 84.4482 68.5805C83.9139 70.0611 83.0707 70.8077 81.5193 70.9687C78.6613 71.2712 75.8161 71.6703 72.9195 72.0372C72.9195 75.7771 72.9195 79.3368 72.9195 82.9673C75.7132 83.3149 78.333 83.7397 80.9722 83.9393C82.9162 84.0873 83.9847 84.9241 84.6091 86.8037C85.4395 89.3077 86.4372 91.7731 87.6281 94.1226C88.5292 95.8928 88.3941 97.2446 87.1388 98.7251C85.388 100.798 83.7787 102.98 82.1566 105.053C84.8408 107.718 87.3448 110.189 89.9969 112.803Z" fill="#323232"/>
<path d="M89.469 37.0134C90.5247 37.4125 91.4388 37.6958 92.2949 38.1077C92.8614 38.3845 93.3506 38.8351 93.8591 39.2278C99.1889 43.341 99.2018 43.3668 105.311 40.4444C105.864 40.1804 106.334 39.3114 106.456 38.6484C106.855 36.5178 107.003 34.3421 107.37 32.205C107.834 29.5143 109.43 28.111 112.166 28.0531C115.706 27.9823 119.247 27.9823 122.781 28.0531C125.568 28.111 127.241 29.6624 127.679 32.411C127.744 32.8101 127.75 33.2156 127.801 33.6082C128.69 40.2319 128.677 40.2577 135.004 42.6201C135.597 42.8454 136.575 42.678 137.109 42.3111C138.828 41.1331 140.399 39.7298 142.079 38.4939C144.525 36.6851 146.604 36.7817 148.786 38.8802C151.277 41.2747 153.71 43.7337 156.111 46.2248C158.12 48.3039 158.249 50.3895 156.646 52.7519C156.465 53.0158 156.298 53.3119 156.06 53.5115C152.166 56.8072 151.457 60.5986 154.38 64.8599C154.882 65.5938 155.751 66.3405 156.581 66.5271C158.532 66.9648 160.572 66.9777 162.548 67.3189C165.567 67.8403 166.848 69.3852 166.887 72.4299C166.926 75.8093 166.926 79.1887 166.887 82.5617C166.848 85.6772 165.426 87.2801 162.355 87.7757C162.194 87.8015 162.033 87.8336 161.873 87.8208C156.877 87.4667 153.588 89.327 152.442 94.5474C152.166 95.7962 152.095 96.5558 152.912 97.5085C154.219 99.034 155.461 100.618 156.626 102.259C158.287 104.596 158.133 106.713 156.137 108.786C153.743 111.277 151.297 113.73 148.812 116.131C146.636 118.229 144.563 118.313 142.098 116.549C141.834 116.362 141.557 116.182 141.345 115.944C138.056 112.166 134.329 111.457 130.157 114.419C129.475 114.901 128.703 115.642 128.542 116.382C128.098 118.416 127.995 120.521 127.686 122.587C127.274 125.368 125.594 126.9 122.813 126.945C119.272 127.003 115.732 126.996 112.198 126.945C109.456 126.906 107.86 125.542 107.383 122.838C107.023 120.785 106.804 118.699 106.534 116.626C106.489 116.311 106.521 115.97 106.437 115.667C106.019 114.174 98.9508 111.844 97.7084 112.796C96.0477 114.071 94.4577 115.429 92.7584 116.639C90.396 118.326 88.3233 118.171 86.2505 116.156C83.7079 113.691 81.2039 111.194 78.745 108.651C76.8976 106.733 76.801 104.525 78.3137 102.304C78.539 101.976 78.7514 101.609 79.054 101.358C82.9033 98.0814 83.4891 94.335 80.5924 90.1767C80.0774 89.4429 79.2278 88.664 78.4038 88.4773C76.5371 88.0525 74.5738 88.0396 72.6684 87.7628C69.598 87.3187 68.1175 85.6837 68.0531 82.5875C67.9823 79.208 67.9823 75.8286 68.0531 72.4556C68.1175 69.3144 69.495 67.7952 72.6427 67.2609C74.0653 67.0228 75.52 66.7074 76.9426 66.7589C79.3243 66.8425 80.1032 65.5873 81.2361 63.624C83.4376 59.8262 82.5235 57.1355 79.6848 54.4513C79.054 53.8527 78.539 53.0931 78.0884 52.34C76.8847 50.3316 76.8911 48.3104 78.5519 46.5788C81.1653 43.8495 83.8302 41.1653 86.5853 38.5776C87.3384 37.8567 88.4777 37.5284 89.469 37.0134ZM89.9969 112.803C92.1855 111.091 94.4384 109.398 96.6077 107.608C97.9015 106.54 99.0988 106.527 100.592 107.228C103.122 108.426 105.71 109.526 108.342 110.466C109.887 111.02 110.763 111.792 110.936 113.492C111.22 116.343 111.657 119.182 112.037 122.079C115.758 122.079 119.272 122.079 122.974 122.079C123.296 119.369 123.65 116.749 123.901 114.116C124.087 112.153 124.847 110.955 126.945 110.37C129.321 109.713 131.677 108.747 133.814 107.524C135.854 106.353 137.341 106.643 139.008 108.091C140.984 109.81 143.128 111.348 144.898 112.732C147.653 110.093 150.189 107.66 152.848 105.117C151.226 103.031 149.694 100.869 147.962 98.886C146.54 97.2574 146.398 95.8348 147.46 93.9037C148.651 91.7409 149.61 89.4043 150.312 87.0355C150.943 84.8984 152.114 84.0809 154.258 83.9393C156.871 83.7719 159.459 83.2956 162.021 82.9544C162.021 79.1694 162.021 75.6677 162.021 72.0372C159.105 71.6703 156.337 71.2455 153.55 70.9944C151.857 70.8399 151.013 69.9967 150.46 68.4582C149.539 65.8963 148.606 63.3215 147.364 60.9076C146.449 59.1374 146.533 57.8307 147.808 56.3309C149.61 54.2196 151.245 51.9666 152.674 50.1321C149.971 47.3513 147.524 44.8408 144.988 42.2338C143.044 43.7401 140.939 45.2271 139.021 46.92C137.335 48.4069 135.835 48.6129 133.82 47.4736C131.818 46.3342 129.623 45.3944 127.396 44.8151C124.95 44.1778 124.004 42.8067 123.849 40.4122C123.688 37.8889 123.257 35.3849 122.954 32.9645C119.111 32.9645 115.61 32.9645 112.024 32.9645C111.657 35.8161 111.207 38.5068 111.001 41.2104C110.846 43.2445 109.784 44.1006 107.969 44.6863C105.613 45.4524 103.276 46.3728 101.088 47.5186C99.2791 48.4649 97.8629 48.5164 96.273 47.1517C94.2067 45.3815 92.0052 43.7723 90.1836 42.3497C87.5186 45.0146 84.9824 47.5573 82.3497 50.19C83.9139 52.1919 85.6133 54.432 87.3835 56.6077C88.4327 57.8951 88.4713 59.0859 87.7568 60.5922C86.5209 63.1928 85.433 65.8706 84.4482 68.5805C83.9139 70.0611 83.0707 70.8077 81.5193 70.9687C78.6613 71.2712 75.8161 71.6703 72.9195 72.0372C72.9195 75.7771 72.9195 79.3368 72.9195 82.9673C75.7132 83.3149 78.333 83.7397 80.9722 83.9393C82.9162 84.0873 83.9847 84.9241 84.6091 86.8037C85.4395 89.3077 86.4372 91.7731 87.6281 94.1226C88.5292 95.8928 88.3941 97.2446 87.1388 98.7251C85.388 100.798 83.7787 102.98 82.1566 105.053C84.8408 107.718 87.3448 110.189 89.9969 112.803Z" stroke="#323232" stroke-width="0.808163" mask="url(#path-44-outside-8_2711_29503)"/>
<mask id="path-45-outside-9_2711_29503" maskUnits="userSpaceOnUse" x="96.9075" y="56.9536" width="41" height="41" fill="black">
<rect fill="white" x="96.9075" y="56.9536" width="41" height="41"/>
<path d="M136.987 77.5029C136.994 88.2977 128.317 97.0263 117.554 97.0456C106.714 97.0649 97.8054 88.1561 97.9084 77.3999C98.0113 66.6694 106.824 57.9343 117.528 57.9536C128.272 57.973 136.981 66.7273 136.987 77.5029ZM117.355 92.2822C125.607 92.3402 132.295 85.7294 132.295 77.5157C132.295 69.4051 125.703 62.775 117.599 62.7363C109.373 62.6913 102.646 69.3407 102.64 77.5093C102.64 85.6006 109.237 92.2243 117.355 92.2822Z"/>
</mask>
<path d="M136.987 77.5029C136.994 88.2977 128.317 97.0263 117.554 97.0456C106.714 97.0649 97.8054 88.1561 97.9084 77.3999C98.0113 66.6694 106.824 57.9343 117.528 57.9536C128.272 57.973 136.981 66.7273 136.987 77.5029ZM117.355 92.2822C125.607 92.3402 132.295 85.7294 132.295 77.5157C132.295 69.4051 125.703 62.775 117.599 62.7363C109.373 62.6913 102.646 69.3407 102.64 77.5093C102.64 85.6006 109.237 92.2243 117.355 92.2822Z" fill="#323232"/>
<path d="M136.987 77.5029C136.994 88.2977 128.317 97.0263 117.554 97.0456C106.714 97.0649 97.8054 88.1561 97.9084 77.3999C98.0113 66.6694 106.824 57.9343 117.528 57.9536C128.272 57.973 136.981 66.7273 136.987 77.5029ZM117.355 92.2822C125.607 92.3402 132.295 85.7294 132.295 77.5157C132.295 69.4051 125.703 62.775 117.599 62.7363C109.373 62.6913 102.646 69.3407 102.64 77.5093C102.64 85.6006 109.237 92.2243 117.355 92.2822Z" stroke="#323232" stroke-width="1.21224" mask="url(#path-45-outside-9_2711_29503)"/>
<path d="M500.795 539.344C497.178 535.78 493.755 532.41 490.094 528.802C492.306 525.976 494.501 523 496.888 520.173C498.6 518.146 498.784 516.311 497.556 513.897C495.932 510.693 494.571 507.323 493.439 503.917C492.587 501.354 491.13 500.222 488.479 500.011C484.88 499.739 481.308 499.16 477.498 498.686C477.498 493.735 477.498 488.872 477.498 483.781C481.448 483.281 485.328 482.728 489.225 482.324C491.35 482.104 492.491 481.077 493.219 479.067C494.562 475.372 496.046 471.72 497.731 468.174C498.705 466.12 498.653 464.496 497.222 462.741C494.799 459.774 492.491 456.719 490.358 453.989C493.948 450.399 497.406 446.941 501.04 443.298C503.516 445.238 506.526 447.423 509.344 449.846C511.512 451.707 513.443 451.637 515.91 450.346C518.894 448.784 522.081 447.529 525.293 446.484C527.769 445.677 529.217 444.509 529.428 441.744C529.708 438.049 530.323 434.38 530.823 430.5C535.721 430.5 540.488 430.5 545.728 430.5C546.14 433.8 546.728 437.215 546.948 440.656C547.159 443.921 548.449 445.791 551.784 446.66C554.822 447.45 557.806 448.731 560.545 450.285C563.292 451.847 565.346 451.558 567.637 449.53C570.262 447.222 573.132 445.194 575.774 443.14C579.232 446.695 582.568 450.118 586.255 453.91C584.306 456.412 582.076 459.484 579.619 462.363C577.881 464.408 577.767 466.19 579.013 468.604C580.707 471.896 581.971 475.407 583.235 478.9C583.99 480.998 585.149 482.148 587.448 482.359C591.249 482.701 595.024 483.281 599 483.781C599 488.732 599 493.507 599 498.668C595.506 499.133 591.978 499.783 588.414 500.011C585.491 500.204 583.893 501.319 583.033 504.233C582.085 507.463 580.769 510.65 579.145 513.599C577.696 516.232 577.889 518.181 579.829 520.393C582.191 523.096 584.28 526.046 586.492 528.89C582.875 532.357 579.408 535.675 575.651 539.274C573.237 537.387 570.323 535.297 567.62 532.945C565.337 530.961 563.318 530.575 560.536 532.173C557.622 533.84 554.409 535.157 551.17 536.052C548.308 536.842 547.281 538.484 547.018 541.161C546.667 544.751 546.184 548.324 545.754 552.019C540.707 552.019 535.914 552.019 530.841 552.019C530.323 548.078 529.717 544.207 529.34 540.31C529.112 537.992 527.909 536.93 525.802 536.184C522.212 534.894 518.684 533.393 515.234 531.769C513.197 530.812 511.565 530.83 509.801 532.287C506.851 534.709 503.788 537.009 500.795 539.344ZM564.872 491.207C564.863 476.513 552.987 464.584 538.346 464.558C523.74 464.531 511.732 476.443 511.591 491.075C511.451 505.734 523.599 517.891 538.381 517.865C553.04 517.83 564.872 505.927 564.872 491.207Z" fill="#767676"/>
<mask id="path-47-outside-10_2711_29503" maskUnits="userSpaceOnUse" x="463" y="425" width="137" height="137" fill="black">
<rect fill="white" x="463" y="425" width="137" height="137"/>
<path d="M493.276 438.291C494.716 438.835 495.962 439.221 497.129 439.783C497.902 440.161 498.569 440.775 499.262 441.311C506.53 446.92 506.548 446.955 514.878 442.97C515.633 442.61 516.274 441.425 516.44 440.521C516.985 437.615 517.187 434.648 517.687 431.734C518.319 428.065 520.496 426.151 524.226 426.072C529.054 425.976 533.882 425.976 538.701 426.072C542.502 426.151 544.784 428.267 545.381 432.015C545.468 432.559 545.477 433.112 545.547 433.648C546.759 442.68 546.741 442.715 555.37 445.936C556.177 446.244 557.512 446.015 558.24 445.515C560.584 443.909 562.725 441.995 565.016 440.31C568.352 437.843 571.187 437.975 574.163 440.837C577.56 444.102 580.878 447.455 584.152 450.852C586.891 453.687 587.066 456.531 584.881 459.753C584.635 460.113 584.407 460.516 584.082 460.788C578.771 465.283 577.806 470.453 581.791 476.264C582.475 477.264 583.66 478.282 584.793 478.537C587.452 479.134 590.235 479.151 592.93 479.617C597.046 480.328 598.793 482.434 598.846 486.586C598.899 491.194 598.899 495.803 598.846 500.402C598.793 504.651 596.853 506.836 592.666 507.512C592.447 507.547 592.227 507.591 592.008 507.574C585.197 507.091 580.711 509.628 579.149 516.747C578.771 518.449 578.675 519.485 579.789 520.784C581.571 522.865 583.265 525.024 584.854 527.262C587.119 530.449 586.908 533.336 584.187 536.163C580.922 539.56 577.586 542.904 574.198 546.178C571.231 549.04 568.405 549.154 565.043 546.749C564.683 546.494 564.305 546.249 564.016 545.924C559.53 540.771 554.448 539.806 548.76 543.843C547.83 544.502 546.776 545.511 546.557 546.521C545.951 549.294 545.811 552.165 545.389 554.982C544.828 558.774 542.537 560.863 538.745 560.925C533.917 561.004 529.089 560.995 524.27 560.925C520.531 560.872 518.354 559.011 517.704 555.325C517.213 552.525 516.914 549.681 516.546 546.854C516.484 546.424 516.528 545.959 516.414 545.546C515.844 543.51 506.206 540.332 504.511 541.631C502.247 543.369 500.079 545.222 497.761 546.872C494.54 549.172 491.714 548.961 488.887 546.213C485.42 542.852 482.005 539.446 478.652 535.979C476.133 533.363 476.001 530.352 478.064 527.324C478.371 526.876 478.661 526.376 479.074 526.033C484.323 521.565 485.121 516.457 481.171 510.786C480.469 509.786 479.311 508.724 478.187 508.469C475.641 507.89 472.964 507.872 470.366 507.495C466.179 506.889 464.16 504.66 464.072 500.437C463.976 495.829 463.976 491.221 464.072 486.621C464.16 482.338 466.039 480.266 470.331 479.538C472.271 479.213 474.255 478.783 476.194 478.853C479.442 478.967 480.504 477.255 482.049 474.578C485.051 469.399 483.805 465.73 479.934 462.07C479.074 461.254 478.371 460.218 477.757 459.191C476.115 456.452 476.124 453.696 478.389 451.335C481.953 447.613 485.587 443.953 489.344 440.424C490.371 439.441 491.924 438.993 493.276 438.291ZM493.996 541.64C496.98 539.305 500.052 536.997 503.01 534.557C504.775 533.099 506.407 533.082 508.444 534.039C511.894 535.671 515.422 537.172 519.012 538.454C521.119 539.209 522.313 540.262 522.55 542.579C522.936 546.468 523.533 550.339 524.051 554.289C529.124 554.289 533.917 554.289 538.964 554.289C539.403 550.593 539.886 547.021 540.228 543.431C540.483 540.754 541.518 539.121 544.38 538.322C547.619 537.427 550.832 536.11 553.746 534.442C556.528 532.845 558.556 533.24 560.829 535.215C563.524 537.559 566.447 539.656 568.861 541.544C572.618 537.945 576.076 534.627 579.702 531.16C577.49 528.316 575.401 525.366 573.039 522.663C571.099 520.442 570.906 518.502 572.355 515.869C573.979 512.919 575.286 509.733 576.243 506.503C577.103 503.589 578.701 502.474 581.624 502.281C585.188 502.053 588.716 501.403 592.21 500.938C592.21 495.776 592.21 491.001 592.21 486.051C588.234 485.55 584.459 484.971 580.658 484.629C578.35 484.418 577.2 483.268 576.445 481.17C575.19 477.677 573.917 474.166 572.223 470.874C570.977 468.46 571.091 466.678 572.829 464.633C575.286 461.754 577.516 458.682 579.465 456.18C575.778 452.388 572.442 448.965 568.984 445.41C566.333 447.464 563.463 449.491 560.847 451.8C558.547 453.828 556.502 454.109 553.755 452.555C551.025 451.001 548.032 449.72 544.994 448.93C541.659 448.061 540.369 446.191 540.158 442.926C539.938 439.485 539.35 436.07 538.938 432.77C533.697 432.77 528.922 432.77 524.033 432.77C523.533 436.658 522.918 440.327 522.638 444.014C522.427 446.788 520.979 447.955 518.503 448.754C515.291 449.799 512.104 451.054 509.12 452.616C506.653 453.907 504.722 453.977 502.554 452.116C499.736 449.702 496.734 447.508 494.25 445.568C490.616 449.202 487.158 452.669 483.568 456.259C485.701 458.989 488.018 462.044 490.432 465.01C491.863 466.766 491.915 468.39 490.941 470.444C489.256 473.99 487.772 477.642 486.429 481.337C485.701 483.356 484.551 484.374 482.435 484.594C478.538 485.006 474.658 485.55 470.708 486.051C470.708 491.151 470.708 496.005 470.708 500.955C474.518 501.429 478.09 502.009 481.689 502.281C484.34 502.483 485.797 503.624 486.649 506.187C487.781 509.601 489.142 512.963 490.766 516.167C491.994 518.581 491.81 520.424 490.098 522.443C487.711 525.27 485.516 528.245 483.304 531.072C486.965 534.706 490.379 538.076 493.996 541.64Z"/>
</mask>
<path d="M493.276 438.291C494.716 438.835 495.962 439.221 497.129 439.783C497.902 440.161 498.569 440.775 499.262 441.311C506.53 446.92 506.548 446.955 514.878 442.97C515.633 442.61 516.274 441.425 516.44 440.521C516.985 437.615 517.187 434.648 517.687 431.734C518.319 428.065 520.496 426.151 524.226 426.072C529.054 425.976 533.882 425.976 538.701 426.072C542.502 426.151 544.784 428.267 545.381 432.015C545.468 432.559 545.477 433.112 545.547 433.648C546.759 442.68 546.741 442.715 555.37 445.936C556.177 446.244 557.512 446.015 558.24 445.515C560.584 443.909 562.725 441.995 565.016 440.31C568.352 437.843 571.187 437.975 574.163 440.837C577.56 444.102 580.878 447.455 584.152 450.852C586.891 453.687 587.066 456.531 584.881 459.753C584.635 460.113 584.407 460.516 584.082 460.788C578.771 465.283 577.806 470.453 581.791 476.264C582.475 477.264 583.66 478.282 584.793 478.537C587.452 479.134 590.235 479.151 592.93 479.617C597.046 480.328 598.793 482.434 598.846 486.586C598.899 491.194 598.899 495.803 598.846 500.402C598.793 504.651 596.853 506.836 592.666 507.512C592.447 507.547 592.227 507.591 592.008 507.574C585.197 507.091 580.711 509.628 579.149 516.747C578.771 518.449 578.675 519.485 579.789 520.784C581.571 522.865 583.265 525.024 584.854 527.262C587.119 530.449 586.908 533.336 584.187 536.163C580.922 539.56 577.586 542.904 574.198 546.178C571.231 549.04 568.405 549.154 565.043 546.749C564.683 546.494 564.305 546.249 564.016 545.924C559.53 540.771 554.448 539.806 548.76 543.843C547.83 544.502 546.776 545.511 546.557 546.521C545.951 549.294 545.811 552.165 545.389 554.982C544.828 558.774 542.537 560.863 538.745 560.925C533.917 561.004 529.089 560.995 524.27 560.925C520.531 560.872 518.354 559.011 517.704 555.325C517.213 552.525 516.914 549.681 516.546 546.854C516.484 546.424 516.528 545.959 516.414 545.546C515.844 543.51 506.206 540.332 504.511 541.631C502.247 543.369 500.079 545.222 497.761 546.872C494.54 549.172 491.714 548.961 488.887 546.213C485.42 542.852 482.005 539.446 478.652 535.979C476.133 533.363 476.001 530.352 478.064 527.324C478.371 526.876 478.661 526.376 479.074 526.033C484.323 521.565 485.121 516.457 481.171 510.786C480.469 509.786 479.311 508.724 478.187 508.469C475.641 507.89 472.964 507.872 470.366 507.495C466.179 506.889 464.16 504.66 464.072 500.437C463.976 495.829 463.976 491.221 464.072 486.621C464.16 482.338 466.039 480.266 470.331 479.538C472.271 479.213 474.255 478.783 476.194 478.853C479.442 478.967 480.504 477.255 482.049 474.578C485.051 469.399 483.805 465.73 479.934 462.07C479.074 461.254 478.371 460.218 477.757 459.191C476.115 456.452 476.124 453.696 478.389 451.335C481.953 447.613 485.587 443.953 489.344 440.424C490.371 439.441 491.924 438.993 493.276 438.291ZM493.996 541.64C496.98 539.305 500.052 536.997 503.01 534.557C504.775 533.099 506.407 533.082 508.444 534.039C511.894 535.671 515.422 537.172 519.012 538.454C521.119 539.209 522.313 540.262 522.55 542.579C522.936 546.468 523.533 550.339 524.051 554.289C529.124 554.289 533.917 554.289 538.964 554.289C539.403 550.593 539.886 547.021 540.228 543.431C540.483 540.754 541.518 539.121 544.38 538.322C547.619 537.427 550.832 536.11 553.746 534.442C556.528 532.845 558.556 533.24 560.829 535.215C563.524 537.559 566.447 539.656 568.861 541.544C572.618 537.945 576.076 534.627 579.702 531.16C577.49 528.316 575.401 525.366 573.039 522.663C571.099 520.442 570.906 518.502 572.355 515.869C573.979 512.919 575.286 509.733 576.243 506.503C577.103 503.589 578.701 502.474 581.624 502.281C585.188 502.053 588.716 501.403 592.21 500.938C592.21 495.776 592.21 491.001 592.21 486.051C588.234 485.55 584.459 484.971 580.658 484.629C578.35 484.418 577.2 483.268 576.445 481.17C575.19 477.677 573.917 474.166 572.223 470.874C570.977 468.46 571.091 466.678 572.829 464.633C575.286 461.754 577.516 458.682 579.465 456.18C575.778 452.388 572.442 448.965 568.984 445.41C566.333 447.464 563.463 449.491 560.847 451.8C558.547 453.828 556.502 454.109 553.755 452.555C551.025 451.001 548.032 449.72 544.994 448.93C541.659 448.061 540.369 446.191 540.158 442.926C539.938 439.485 539.35 436.07 538.938 432.77C533.697 432.77 528.922 432.77 524.033 432.77C523.533 436.658 522.918 440.327 522.638 444.014C522.427 446.788 520.979 447.955 518.503 448.754C515.291 449.799 512.104 451.054 509.12 452.616C506.653 453.907 504.722 453.977 502.554 452.116C499.736 449.702 496.734 447.508 494.25 445.568C490.616 449.202 487.158 452.669 483.568 456.259C485.701 458.989 488.018 462.044 490.432 465.01C491.863 466.766 491.915 468.39 490.941 470.444C489.256 473.99 487.772 477.642 486.429 481.337C485.701 483.356 484.551 484.374 482.435 484.594C478.538 485.006 474.658 485.55 470.708 486.051C470.708 491.151 470.708 496.005 470.708 500.955C474.518 501.429 478.09 502.009 481.689 502.281C484.34 502.483 485.797 503.624 486.649 506.187C487.781 509.601 489.142 512.963 490.766 516.167C491.994 518.581 491.81 520.424 490.098 522.443C487.711 525.27 485.516 528.245 483.304 531.072C486.965 534.706 490.379 538.076 493.996 541.64Z" fill="#323232"/>
<path d="M493.276 438.291C494.716 438.835 495.962 439.221 497.129 439.783C497.902 440.161 498.569 440.775 499.262 441.311C506.53 446.92 506.548 446.955 514.878 442.97C515.633 442.61 516.274 441.425 516.44 440.521C516.985 437.615 517.187 434.648 517.687 431.734C518.319 428.065 520.496 426.151 524.226 426.072C529.054 425.976 533.882 425.976 538.701 426.072C542.502 426.151 544.784 428.267 545.381 432.015C545.468 432.559 545.477 433.112 545.547 433.648C546.759 442.68 546.741 442.715 555.37 445.936C556.177 446.244 557.512 446.015 558.24 445.515C560.584 443.909 562.725 441.995 565.016 440.31C568.352 437.843 571.187 437.975 574.163 440.837C577.56 444.102 580.878 447.455 584.152 450.852C586.891 453.687 587.066 456.531 584.881 459.753C584.635 460.113 584.407 460.516 584.082 460.788C578.771 465.283 577.806 470.453 581.791 476.264C582.475 477.264 583.66 478.282 584.793 478.537C587.452 479.134 590.235 479.151 592.93 479.617C597.046 480.328 598.793 482.434 598.846 486.586C598.899 491.194 598.899 495.803 598.846 500.402C598.793 504.651 596.853 506.836 592.666 507.512C592.447 507.547 592.227 507.591 592.008 507.574C585.197 507.091 580.711 509.628 579.149 516.747C578.771 518.449 578.675 519.485 579.789 520.784C581.571 522.865 583.265 525.024 584.854 527.262C587.119 530.449 586.908 533.336 584.187 536.163C580.922 539.56 577.586 542.904 574.198 546.178C571.231 549.04 568.405 549.154 565.043 546.749C564.683 546.494 564.305 546.249 564.016 545.924C559.53 540.771 554.448 539.806 548.76 543.843C547.83 544.502 546.776 545.511 546.557 546.521C545.951 549.294 545.811 552.165 545.389 554.982C544.828 558.774 542.537 560.863 538.745 560.925C533.917 561.004 529.089 560.995 524.27 560.925C520.531 560.872 518.354 559.011 517.704 555.325C517.213 552.525 516.914 549.681 516.546 546.854C516.484 546.424 516.528 545.959 516.414 545.546C515.844 543.51 506.206 540.332 504.511 541.631C502.247 543.369 500.079 545.222 497.761 546.872C494.54 549.172 491.714 548.961 488.887 546.213C485.42 542.852 482.005 539.446 478.652 535.979C476.133 533.363 476.001 530.352 478.064 527.324C478.371 526.876 478.661 526.376 479.074 526.033C484.323 521.565 485.121 516.457 481.171 510.786C480.469 509.786 479.311 508.724 478.187 508.469C475.641 507.89 472.964 507.872 470.366 507.495C466.179 506.889 464.16 504.66 464.072 500.437C463.976 495.829 463.976 491.221 464.072 486.621C464.16 482.338 466.039 480.266 470.331 479.538C472.271 479.213 474.255 478.783 476.194 478.853C479.442 478.967 480.504 477.255 482.049 474.578C485.051 469.399 483.805 465.73 479.934 462.07C479.074 461.254 478.371 460.218 477.757 459.191C476.115 456.452 476.124 453.696 478.389 451.335C481.953 447.613 485.587 443.953 489.344 440.424C490.371 439.441 491.924 438.993 493.276 438.291ZM493.996 541.64C496.98 539.305 500.052 536.997 503.01 534.557C504.775 533.099 506.407 533.082 508.444 534.039C511.894 535.671 515.422 537.172 519.012 538.454C521.119 539.209 522.313 540.262 522.55 542.579C522.936 546.468 523.533 550.339 524.051 554.289C529.124 554.289 533.917 554.289 538.964 554.289C539.403 550.593 539.886 547.021 540.228 543.431C540.483 540.754 541.518 539.121 544.38 538.322C547.619 537.427 550.832 536.11 553.746 534.442C556.528 532.845 558.556 533.24 560.829 535.215C563.524 537.559 566.447 539.656 568.861 541.544C572.618 537.945 576.076 534.627 579.702 531.16C577.49 528.316 575.401 525.366 573.039 522.663C571.099 520.442 570.906 518.502 572.355 515.869C573.979 512.919 575.286 509.733 576.243 506.503C577.103 503.589 578.701 502.474 581.624 502.281C585.188 502.053 588.716 501.403 592.21 500.938C592.21 495.776 592.21 491.001 592.21 486.051C588.234 485.55 584.459 484.971 580.658 484.629C578.35 484.418 577.2 483.268 576.445 481.17C575.19 477.677 573.917 474.166 572.223 470.874C570.977 468.46 571.091 466.678 572.829 464.633C575.286 461.754 577.516 458.682 579.465 456.18C575.778 452.388 572.442 448.965 568.984 445.41C566.333 447.464 563.463 449.491 560.847 451.8C558.547 453.828 556.502 454.109 553.755 452.555C551.025 451.001 548.032 449.72 544.994 448.93C541.659 448.061 540.369 446.191 540.158 442.926C539.938 439.485 539.35 436.07 538.938 432.77C533.697 432.77 528.922 432.77 524.033 432.77C523.533 436.658 522.918 440.327 522.638 444.014C522.427 446.788 520.979 447.955 518.503 448.754C515.291 449.799 512.104 451.054 509.12 452.616C506.653 453.907 504.722 453.977 502.554 452.116C499.736 449.702 496.734 447.508 494.25 445.568C490.616 449.202 487.158 452.669 483.568 456.259C485.701 458.989 488.018 462.044 490.432 465.01C491.863 466.766 491.915 468.39 490.941 470.444C489.256 473.99 487.772 477.642 486.429 481.337C485.701 483.356 484.551 484.374 482.435 484.594C478.538 485.006 474.658 485.55 470.708 486.051C470.708 491.151 470.708 496.005 470.708 500.955C474.518 501.429 478.09 502.009 481.689 502.281C484.34 502.483 485.797 503.624 486.649 506.187C487.781 509.601 489.142 512.963 490.766 516.167C491.994 518.581 491.81 520.424 490.098 522.443C487.711 525.27 485.516 528.245 483.304 531.072C486.965 534.706 490.379 538.076 493.996 541.64Z" stroke="#323232" stroke-width="1.10204" mask="url(#path-47-outside-10_2711_29503)"/>
<mask id="path-48-outside-11_2711_29503" maskUnits="userSpaceOnUse" x="503.783" y="465.846" width="56" height="56" fill="black">
<rect fill="white" x="503.783" y="465.846" width="56" height="56"/>
<path d="M558.074 493.504C558.083 508.225 546.25 520.127 531.574 520.153C516.792 520.18 504.644 508.031 504.784 493.364C504.925 478.731 516.941 466.82 531.539 466.846C546.189 466.873 558.065 478.81 558.074 493.504ZM531.302 513.658C542.555 513.737 551.675 504.722 551.675 493.522C551.675 482.462 542.687 473.421 531.635 473.368C520.417 473.307 511.245 482.374 511.236 493.513C511.236 504.547 520.233 513.579 531.302 513.658Z"/>
</mask>
<path d="M558.074 493.504C558.083 508.225 546.25 520.127 531.574 520.153C516.792 520.18 504.644 508.031 504.784 493.364C504.925 478.731 516.941 466.82 531.539 466.846C546.189 466.873 558.065 478.81 558.074 493.504ZM531.302 513.658C542.555 513.737 551.675 504.722 551.675 493.522C551.675 482.462 542.687 473.421 531.635 473.368C520.417 473.307 511.245 482.374 511.236 493.513C511.236 504.547 520.233 513.579 531.302 513.658Z" fill="#323232"/>
<path d="M558.074 493.504C558.083 508.225 546.25 520.127 531.574 520.153C516.792 520.18 504.644 508.031 504.784 493.364C504.925 478.731 516.941 466.82 531.539 466.846C546.189 466.873 558.065 478.81 558.074 493.504ZM531.302 513.658C542.555 513.737 551.675 504.722 551.675 493.522C551.675 482.462 542.687 473.421 531.635 473.368C520.417 473.307 511.245 482.374 511.236 493.513C511.236 504.547 520.233 513.579 531.302 513.658Z" stroke="#323232" stroke-width="1.65306" mask="url(#path-48-outside-11_2711_29503)"/>
<defs>
<clipPath id="clip0_2711_29503">
<rect width="441" height="418.091" fill="white" transform="translate(121 85.4546)"/>
</clipPath>
</defs>
</svg>
