<svg width="77" height="73" viewBox="0 0 77 73" fill="none" xmlns="http://www.w3.org/2000/svg">
<g clip-path="url(#clip0_2488_21509)">
<rect x="41.0117" y="13.6658" width="31.7044" height="24.0516" rx="1.09325" fill="#FFD27C"/>
<rect x="10" y="62" width="56" height="24" rx="1.09325" fill="#B6EBE8"/>
<path d="M69.913 67.9694L69.9177 67.9547V67.9393L69.9177 36.4863L69.9177 5.03325V5.01061L69.908 4.99018C69.8932 4.95933 69.8748 4.92708 69.8589 4.89939C69.8526 4.88841 69.8467 4.87815 69.8416 4.86897C69.8216 4.83264 69.808 4.80345 69.8013 4.77551C69.4506 3.26608 68.7127 2.04809 67.6733 1.20724C66.6336 0.366165 65.2979 -0.0929795 63.7598 -0.0938935C44.7129 -0.101109 25.6643 -0.102912 6.61573 -0.0938936L6.61572 -0.0938935C3.05404 -0.0920611 0.46866 2.51273 0.466828 6.0812L0.466828 6.0812C0.459614 21.7056 0.461418 51.2634 0.472239 66.8878L0.472239 66.888C0.474067 67.4746 0.545295 68.0786 0.697471 68.647L0.69749 68.6471C1.43551 71.3958 3.77482 73.0683 6.81776 73.0683C19.4254 73.0695 32.0338 73.0691 44.6425 73.0687C50.9469 73.0685 57.2514 73.0683 63.5559 73.0683C63.7369 73.0683 63.9183 73.0665 64.1 73.061C66.6824 72.984 68.9146 71.2668 69.6556 68.7905L69.6557 68.7902C69.7133 68.5955 69.7754 68.4012 69.8378 68.2058C69.8629 68.1272 69.8881 68.0485 69.913 67.9694ZM2.16013 11.0427V11.0424H2.18953H2.31892H2.44832H2.57771H2.70711H2.8365H2.96589H3.09528H3.22467H3.35406H3.48345H3.61284H3.74223H3.87161H4.001H4.13038H4.25977H4.38915H4.51853H4.64792H4.7773H4.90668H5.03606H5.16544H5.29481H5.42419H5.55357H5.68294H5.81232H5.94169H6.07107H6.20044H6.32981H6.45919H6.58856H6.71793H6.8473H6.97667H7.10604H7.2354H7.36477H7.49414H7.6235H7.75287H7.88223H8.0116H8.14096H8.27032H8.39969H8.52905H8.65841H8.78777H8.91713H9.04649H9.17585H9.30521H9.43456H9.56392H9.69328H9.82263H9.95199H10.0813H10.2107H10.3401H10.4694H10.5988H10.7281H10.8575H10.9868H11.1162H11.2455H11.3749H11.5042H11.6336H11.7629H11.8923H12.0216H12.151H12.2803H12.4097H12.539H12.6683H12.7977H12.927H13.0564H13.1857H13.3151H13.4444H13.5738H13.7031H13.8324H13.9618H14.0911H14.2205H14.3498H14.4791H14.6085H14.7378H14.8672H14.9965H15.1258H15.2552H15.3845H15.5139H15.6432H15.7725H15.9019H16.0312H16.1605H16.2899H16.4192H16.5486H16.6779H16.8072H16.9366H17.0659H17.1952H17.3246H17.4539H17.5832H17.7126H17.8419H17.9712H18.1006H18.2299H18.3592H18.4886H18.6179H18.7472H18.8766H19.0059H19.1352H19.2646H19.3939H19.5232H19.6526H19.7819H19.9112H20.0406H20.1699H20.2992H20.4286H20.5579H20.6872H20.8166H20.9459H21.0752H21.2045H21.3339H21.4632H21.5925H21.7219H21.8512H21.9805H22.1099H22.2392H22.3685H22.4979H22.6272H22.7565H22.8859H23.0152H23.1445H23.2738H23.4032H23.5325H23.6618H23.7912H23.9205H24.0498H24.1792H24.3085H24.4378H24.5672H24.6965H24.8258H24.9552H25.0845H25.2138H25.3432H25.4725H25.6018H25.7312H25.8605H25.9898H26.1192H26.2485H26.3778H26.5072H26.6365H26.7658H26.8952H27.0245H27.1538H27.2832H27.4125H27.5419H27.6712H27.8005H27.9299H28.0592H28.1885H28.3179H28.4472H28.5766H28.7059H28.8352H28.9646H29.0939H29.2233H29.3526H29.4819H29.6113H29.7406H29.87H29.9993H30.1286H30.258H30.3873H30.5167H30.646H30.7754H30.9047H31.034H31.1634H31.2927H31.4221H31.5514H31.6808H31.8101H31.9395H32.0688H32.1982H32.3275H32.4569H32.5862H32.7156H32.8449H32.9743H33.1036H33.233H33.3623H33.4917H33.621H33.7504H33.8797H34.0091H34.1385H34.2678H34.3972H34.5265H34.6559H34.7852H34.9146H35.044H35.1733H35.3027H35.432H35.5614H35.6908H35.8201H35.9495H36.0789H36.2082H36.3376H36.467H36.5963H36.7257H36.8551H36.9844H37.1138H37.2432H37.3725H37.5019H37.6313H37.7607H37.89H38.0194H38.1488H38.2782H38.4075H38.5369H38.6663H38.7957H38.9251H39.0544H39.1838H39.3132H39.4426H39.572H39.7013H39.8307H39.9601H40.0895H40.2189H40.3483H40.4777H40.6071H40.7365H40.8658H40.9952H41.1246H41.254H41.3834H41.5128H41.6422H41.7716H41.901H42.0304H42.1598H42.2892H42.4186H42.548H42.6774H42.8068H42.9362H43.0656H43.195H43.3244H43.4538H43.5833H43.7127H43.8421H43.9715H44.1009H44.2303H44.3597H44.4892H44.6186H44.748H44.8774H45.0068H45.1362H45.2657H45.3951H45.5245H45.6539H45.7834H45.9128H46.0422H46.1717H46.3011H46.4305H46.56H46.6894H46.8188H46.9483H47.0777H47.2071H47.3366H47.466H47.5955H47.7249H47.8543H47.9838H48.1132H48.2427H48.3721H48.5016H48.631H48.7605H48.8899H49.0194H49.1488H49.2783H49.4078H49.5372H49.6667H49.7961H49.9256H50.0551H50.1845H50.314H50.4435H50.5729H50.7024H50.8319H50.9614H51.0908H51.2203H51.3498H51.4793H51.6087H51.7382H51.8677H51.9972H52.1267H52.2561H52.3856H52.5151H52.6446H52.7741H52.9036H53.0331H53.1626H53.2921H53.4216H53.5511H53.6806H53.8101H53.9396H54.0691H54.1986H54.3281H54.4576H54.5871H54.7166H54.8461H54.9757H55.1052H55.2347H55.3642H55.4937H55.6233H55.7528H55.8823H56.0118H56.1414H56.2709H56.4004H56.5299H56.6595H56.789H56.9186H57.0481H57.1776H57.3072H57.4367H57.5663H57.6958H57.8254H57.9549H58.0845H58.214H58.3436H58.4731H58.6027H58.7322H58.8618H58.9914H59.1209H59.2505H59.38H59.5096H59.6392H59.7688H59.8983H60.0279H60.1575H60.2871H60.4166H60.5462H60.6758H60.8054H60.935H61.0646H61.1942H61.3237H61.4533H61.5829H61.7125H61.8421H61.9717H62.1013H62.2309H62.3605H62.4902H62.6198H62.7494H62.879H63.0086H63.1382H63.2678H63.3975H63.5271H63.6567H63.7863H63.916H64.0456H64.1752H64.3048H64.4345H64.5641H64.6938H64.8234H64.953H65.0827H65.2123H65.342H65.4716H65.6013H65.7309H65.8606H65.9902H66.1199H66.2496H66.3792H66.5089H66.6386H66.7682H66.8979H67.0276H67.1572H67.2869H67.4166H67.5463H67.676H67.8056H67.9353H68.065H68.1947H68.2244V11.0437V11.0452V11.0466V11.048V11.0494V11.0509V11.0523V11.0537V11.0551V11.0565V11.0579V11.0594V11.0608V11.0622V11.0636V11.065V11.0664V11.0678V11.0692V11.0706V11.072V11.0735V11.0749V11.0763V11.0777V11.0791V11.0805V11.0819V11.0832V11.0846V11.086V11.0874V11.0888V11.0902V11.0916V11.093V11.0944V11.0958V11.0972V11.0985V11.0999V11.1013V11.1027V11.1041V11.1055V11.1068V11.1082V11.1096V11.111V11.1123V11.1137V11.1151V11.1165V11.1178V11.1192V11.1206V11.1219V11.1233V11.1247V11.126V11.1274V11.1288V11.1301V11.1315V11.1328V11.1342V11.1356V11.1369V11.1383V11.1396V11.141V11.1423V11.1437V11.145V11.1464V11.1477V11.1491V11.1504V11.1518V11.1531V11.1545V11.1558V11.1572V11.1585V11.1599V11.1612V11.1625V11.1639V11.1652V11.1666V11.1679V11.1692V11.1706V11.1719V11.1732V11.1746V11.1759V11.1772V11.1785V11.1799V11.1812V11.1825V11.1839V11.1852V11.1865V11.1878V11.1892V11.1905V11.1918V11.1931V11.1944V11.1958V11.1971V11.1984V11.1997V11.201V11.2023V11.2036V11.205V11.2063V11.2076V11.2089V11.2102V11.2115V11.2128V11.2141V11.2154V11.2167V11.218V11.2193V11.2206V11.222V11.2233V11.2246V11.2259V11.2272V11.2285V11.2297V11.231V11.2323V11.2336V11.2349V11.2362V11.2375V11.2388V11.2401V11.2414V11.2427V11.244V11.2453V11.2466V11.2478V11.2491V11.2504V11.2517V11.253V11.2543V11.2555V11.2568V11.2581V11.2594V11.2607V11.262V11.2632V11.2645V11.2658V11.2671V11.2683V11.2696V11.2709V11.2722V11.2734V11.2747V11.276V11.2773V11.2785V11.2798V11.2811V11.2823V11.2836V11.2849V11.2861V11.2874V11.2887V11.2899V11.2912V11.2925V11.2937V11.295V11.2963V11.2975V11.2988V11.3V11.3013V11.3026V11.3038V11.3051V11.3063V11.3076V11.3088V11.3101V11.3114V11.3126V11.3139V11.3151V11.3164V11.3176V11.3189V11.3201V11.3214V11.3226V11.3239V11.3251V11.3264V11.3276V11.3289V11.3301V11.3314V11.3326V11.3338V11.3351V11.3363V11.3376V11.3388V11.3401V11.3413V11.3425V11.3438V11.345V11.3463V11.3475V11.3487V11.35V11.3512V11.3525V11.3537V11.3549V11.3562V11.3574V11.3586V11.3599V11.3611V11.3623V11.3636V11.3648V11.366V11.3673V11.3685V11.3697V11.371V11.3722V11.3734V11.3746V11.3759V11.3771V11.3783V11.3796V11.3808V11.382V11.3832V11.3845V11.3857V11.3869V11.3881V11.3894V11.3906V11.3918V11.393V11.3942V11.3955V11.3967V11.3979V11.3991V11.4003V11.4016V11.4028V11.404V11.4052V11.4064V11.4077V11.4089V11.4101V11.4113V11.4125V11.4137V11.415V11.4162V11.4174V11.4186V11.4198V11.421V11.4222V11.4235V11.4247V11.4259V11.4271V11.4283V11.4295V11.4307V11.4319V11.4332V11.4344V11.4356V11.4368V11.438V11.4392V11.4404V11.4416V11.4428V11.444V11.4452V11.4465V11.4477V11.4489V11.4501V11.4513V11.4525V11.4537V11.4549V11.4561V11.4573V11.4585V11.4597V11.4609V11.4621V11.4633V11.4645V11.4657V11.4669V11.4681V11.4693V11.4705V11.4717V11.4729V11.4742V11.4754V11.4766V11.4778V11.479V11.4802V11.4814V11.4826V11.4838V11.485V11.4862V11.4874V11.4886V11.4898V11.491V11.4922V11.4934V11.4945V11.4957V11.4969V11.4981V11.4993V11.5005V11.5017V11.5029V11.5041V11.5053V11.5065V11.5077V11.5089V11.5101V11.5113V11.5125V11.5137V11.5149V11.5161V11.5173V11.5185V11.5197V11.5209V11.5221V11.5233V11.5245V11.5257V11.5269V11.528V11.5292V11.5304V11.5316V11.5328V11.534V11.5352V11.5364V11.5376V11.5388V11.54V11.5412V11.5424V11.5436V11.5448V11.546V11.5472V11.5483V11.5495V11.5507V11.5519V11.5531V11.5543V11.5555V11.5567V11.5579V11.5591V11.5603V11.5615V11.5627V11.5639V11.565V11.5662V11.5674V11.5686V11.5698V11.571V11.5722V11.5734V11.5746V11.5758V11.577V11.5782V11.5794V11.5806V11.5818V11.5829V11.5841V11.5853V11.5865V11.5877V11.5889V11.5901V11.5913V11.5925V11.5937V11.5949V11.5961V11.5973V11.5985V11.5997V11.6008V11.602V11.6032V11.6044C68.2244 14.6921 68.2245 18.4779 68.2246 22.6493C68.2249 37.1151 68.2254 56.218 68.2226 66.9255C68.2208 69.1009 66.8935 70.8 64.8104 71.2799C64.4182 71.3701 63.9985 71.3698 63.5737 71.3694C63.5461 71.3694 63.5186 71.3693 63.491 71.3693C58.3175 71.3703 53.1442 71.369 47.9709 71.3677C34.2786 71.3642 20.5868 71.3607 6.89508 71.4C3.91157 71.4071 2.11528 69.1164 2.12766 66.5906C2.18043 56.0896 2.17119 37.3288 2.16414 23.0275C2.16204 18.7542 2.16013 14.8791 2.16013 11.7415V11.7401V11.7386V11.7372V11.7357V11.7343V11.7328V11.7314V11.7299V11.7285V11.727V11.7256V11.7241V11.7227V11.7213V11.7198V11.7184V11.7169V11.7155V11.714V11.7126V11.7111V11.7097V11.7082V11.7068V11.7053V11.7039V11.7024V11.701V11.6995V11.6981V11.6966V11.6952V11.6937V11.6923V11.6908V11.6894V11.688V11.6865V11.6851V11.6836V11.6822V11.6807V11.6793V11.6778V11.6764V11.6749V11.6735V11.672V11.6706V11.6691V11.6677V11.6662V11.6648V11.6633V11.6619V11.6604V11.659V11.6575V11.6561V11.6546V11.6532V11.6517V11.6503V11.6488V11.6474V11.6459V11.6445V11.643V11.6416V11.6401V11.6387V11.6372V11.6357V11.6343V11.6328V11.6314V11.6299V11.6285V11.627V11.6256V11.6241V11.6227V11.6212V11.6198V11.6183V11.6168V11.6154V11.6139V11.6125V11.611V11.6096V11.6081V11.6067V11.6052V11.6037V11.6023V11.6008V11.5994V11.5979V11.5965V11.595V11.5935V11.5921V11.5906V11.5892V11.5877V11.5862V11.5848V11.5833V11.5819V11.5804V11.5789V11.5775V11.576V11.5746V11.5731V11.5716V11.5702V11.5687V11.5672V11.5658V11.5643V11.5629V11.5614V11.5599V11.5585V11.557V11.5555V11.5541V11.5526V11.5511V11.5497V11.5482V11.5467V11.5453V11.5438V11.5423V11.5409V11.5394V11.5379V11.5364V11.535V11.5335V11.532V11.5306V11.5291V11.5276V11.5261V11.5247V11.5232V11.5217V11.5203V11.5188V11.5173V11.5158V11.5144V11.5129V11.5114V11.5099V11.5084V11.507V11.5055V11.504V11.5025V11.5011V11.4996V11.4981V11.4966V11.4951V11.4937V11.4922V11.4907V11.4892V11.4877V11.4862V11.4848V11.4833V11.4818V11.4803V11.4788V11.4773V11.4758V11.4744V11.4729V11.4714V11.4699V11.4684V11.4669V11.4654V11.4639V11.4624V11.4609V11.4595V11.458V11.4565V11.455V11.4535V11.452V11.4505V11.449V11.4475V11.446V11.4445V11.443V11.4415V11.44V11.4385V11.437V11.4355V11.434V11.4325V11.431V11.4295V11.428V11.4265V11.425V11.4235V11.422V11.4205V11.419V11.4175V11.4159V11.4144V11.4129V11.4114V11.4099V11.4084V11.4069V11.4054V11.4039V11.4023V11.4008V11.3993V11.3978V11.3963V11.3948V11.3933V11.3917V11.3902V11.3887V11.3872V11.3857V11.3841V11.3826V11.3811V11.3796V11.378V11.3765V11.375V11.3735V11.3719V11.3704V11.3689V11.3674V11.3658V11.3643V11.3628V11.3612V11.3597V11.3582V11.3566V11.3551V11.3536V11.352V11.3505V11.349V11.3474V11.3459V11.3444V11.3428V11.3413V11.3397V11.3382V11.3367V11.3351V11.3336V11.332V11.3305V11.3289V11.3274V11.3258V11.3243V11.3227V11.3212V11.3196V11.3181V11.3165V11.315V11.3134V11.3119V11.3103V11.3088V11.3072V11.3057V11.3041V11.3025V11.301V11.2994V11.2979V11.2963V11.2947V11.2932V11.2916V11.29V11.2885V11.2869V11.2853V11.2838V11.2822V11.2806V11.2791V11.2775V11.2759V11.2743V11.2728V11.2712V11.2696V11.268V11.2665V11.2649V11.2633V11.2617V11.2601V11.2585V11.257V11.2554V11.2538V11.2522V11.2506V11.249V11.2474V11.2459V11.2443V11.2427V11.2411V11.2395V11.2379V11.2363V11.2347V11.2331V11.2315V11.2299V11.2283V11.2267V11.2251V11.2235V11.2219V11.2203V11.2187V11.2171V11.2155V11.2139V11.2123V11.2107V11.2091V11.2074V11.2058V11.2042V11.2026V11.201V11.1994V11.1978V11.1961V11.1945V11.1929V11.1913V11.1896V11.188V11.1864V11.1848V11.1831V11.1815V11.1799V11.1783V11.1766V11.175V11.1734V11.1717V11.1701V11.1685V11.1668V11.1652V11.1636V11.1619V11.1603V11.1586V11.157V11.1553V11.1537V11.1521V11.1504V11.1488V11.1471V11.1455V11.1438V11.1422V11.1405V11.1388V11.1372V11.1355V11.1339V11.1322V11.1306V11.1289V11.1272V11.1256V11.1239V11.1222V11.1206V11.1189V11.1172V11.1156V11.1139V11.1122V11.1106V11.1089V11.1072V11.1055V11.1038V11.1022V11.1005V11.0988V11.0971V11.0954V11.0938V11.0921V11.0904V11.0887V11.087V11.0853V11.0836V11.0819V11.0802V11.0785V11.0768V11.0751V11.0735V11.0717V11.07V11.0683V11.0666V11.0649V11.0632V11.0615V11.0598V11.0581V11.0564V11.0547V11.053V11.0513V11.0495V11.0478V11.0461V11.0444V11.0427ZM2.39997 4.67165L2.39998 4.67164C2.74105 2.90826 4.50028 1.66235 6.31746 1.64292C8.28059 1.62189 10.2425 1.62376 12.2057 1.62563C12.7668 1.62616 13.3279 1.6267 13.8893 1.6267C17.1891 1.6267 20.4889 1.62691 23.7887 1.62713C36.9873 1.62799 50.186 1.62886 63.3847 1.61587C64.6841 1.61409 65.8407 1.84824 66.797 2.74329C67.7119 3.60004 68.1886 4.65115 68.201 5.90364C68.2083 6.66984 68.2065 7.43564 68.2046 8.23077C68.2037 8.56915 68.2029 8.91284 68.2028 9.26413C46.1677 9.26413 24.2236 9.26414 2.10425 9.26593C2.12794 8.7998 2.1385 8.33732 2.14896 7.87896C2.17396 6.78424 2.19842 5.713 2.39997 4.67165Z" fill="#323232" stroke="#323232" stroke-width="0.2"/>
<path d="M55.4772 5.49934L55.4772 5.49932C55.4884 4.09155 54.4596 3.02153 53.0802 3.01212L53.0802 3.01212C51.6891 3.00273 50.6225 4.05154 50.6188 5.43512C50.615 6.81031 51.6275 7.86156 52.9809 7.8785L52.981 7.8785C54.4006 7.89536 55.4659 6.88503 55.4772 5.49934ZM52.5288 4.96903C52.6281 4.862 52.7839 4.79351 53.0055 4.77755C53.2481 4.76016 53.4083 4.82236 53.5162 4.92212C53.6245 5.02235 53.6922 5.17181 53.7259 5.35407C53.7152 5.61718 53.6582 5.80023 53.561 5.91909C53.4656 6.03581 53.3189 6.1056 53.0935 6.11471L53.0976 6.21463L53.0937 6.1147C52.8546 6.124 52.6836 6.06896 52.571 5.96673C52.4588 5.86494 52.3881 5.70157 52.3805 5.45933L52.2806 5.46245L52.3805 5.45948C52.3739 5.23472 52.43 5.07563 52.5288 4.96903Z" fill="#323232" stroke="#323232" stroke-width="0.2"/>
<path d="M64.0564 5.42503C64.0376 4.05047 62.951 3.00089 61.566 3.01215L61.5659 3.01215C60.2616 3.02345 59.1478 4.13722 59.1403 5.44206L59.1403 5.44208C59.1327 6.79474 60.2421 7.88048 61.6176 7.87673C63.0047 7.87298 64.077 6.7987 64.0564 5.42503ZM64.0564 5.42503L63.9564 5.4264M64.0564 5.42503C64.0564 5.42499 64.0564 5.42494 64.0564 5.4249L63.9564 5.4264M63.9564 5.4264C63.9384 4.10784 62.8978 3.10132 61.5668 3.11215C60.317 3.12297 59.2475 4.19261 59.2403 5.44264C59.2331 6.73775 60.2953 7.78034 61.6173 7.77673C62.9501 7.77312 63.9763 6.74316 63.9564 5.4264ZM61.1073 5.95109C60.9956 5.84876 60.9261 5.69646 60.9146 5.4894C60.9023 5.26561 60.9645 5.09961 61.0606 4.98453C61.156 4.87017 61.2903 4.79975 61.435 4.77587C61.7569 4.77011 61.9715 4.8425 62.1056 4.95561C62.2385 5.06779 62.3067 5.2323 62.3108 5.44259C62.3141 5.65398 62.2539 5.82381 62.1425 5.9391C62.0319 6.05363 61.8588 6.12686 61.6104 6.12189C61.3859 6.11684 61.2196 6.05403 61.1073 5.95109Z" fill="#323232" stroke="#323232" stroke-width="0.2"/>
<path d="M44.4435 7.87665L44.4435 7.87665L46.8503 5.47863L46.9503 5.48005C46.9503 5.47999 46.9503 5.47994 46.9503 5.47988C46.9691 4.14782 45.8392 3.01583 44.4952 3.01207L44.4952 3.01207C43.1124 3.00831 42.0448 4.07606 42.0504 5.4592L42.0504 5.4592C42.056 6.82843 43.0809 7.86349 44.4435 7.87665ZM44.4723 4.77595L44.4726 4.77595C44.7135 4.77343 44.8854 4.83976 44.9977 4.9495C45.1101 5.05932 45.1762 5.22556 45.1795 5.44941C45.1828 5.67742 45.1136 5.84024 45.0123 5.94716C44.9108 6.05431 44.7695 6.11334 44.6135 6.12C44.2893 6.12143 44.0858 6.04283 43.9649 5.92633C43.8448 5.81065 43.7893 5.64135 43.796 5.4241C43.8026 5.22629 43.866 5.06699 43.9749 4.95717C44.0832 4.84791 44.2463 4.7776 44.4723 4.77595Z" fill="#323232" stroke="#323232" stroke-width="0.2"/>
<mask id="path-7-inside-1_2488_21509" fill="white">
<rect x="37.4141" y="15.8521" width="32.251" height="25.1448" rx="1.09325"/>
</mask>
<rect x="37.4141" y="15.8521" width="32.251" height="25.1448" rx="1.09325" stroke="#323232" stroke-width="3.4" mask="url(#path-7-inside-1_2488_21509)"/>
<mask id="path-8-inside-2_2488_21509" fill="white">
<rect x="7" y="59" width="57" height="14" rx="1.09325"/>
</mask>
<rect x="7" y="59" width="57" height="14" rx="1.09325" stroke="#323232" stroke-width="3.4" mask="url(#path-8-inside-2_2488_21509)"/>
<rect x="8.76172" y="33.3442" width="20.2252" height="4.37302" rx="1.09325" fill="#FF756C"/>
<mask id="path-10-inside-3_2488_21509" fill="white">
<rect x="6.57422" y="34.4375" width="21.3185" height="5.46627" rx="1.09325"/>
</mask>
<rect x="6.57422" y="34.4375" width="21.3185" height="5.46627" rx="1.09325" stroke="#323232" stroke-width="2.73313" mask="url(#path-10-inside-3_2488_21509)"/>
<rect x="7" y="17" width="25" height="3" rx="1.5" fill="#323232"/>
<rect x="22" y="51" width="26" height="3" rx="1.5" fill="#323232"/>
<rect x="6.57422" y="24.5981" width="20.2252" height="1.09325" rx="0.546627" fill="#767676"/>
<rect x="6.57422" y="27.3313" width="13.119" height="1.09325" rx="0.546627" fill="#767676"/>
<rect x="20" y="56" width="30" height="1" rx="0.5" fill="#767676"/>
</g>
<defs>
<clipPath id="clip0_2488_21509">
<rect width="77" height="73" fill="white"/>
</clipPath>
</defs>
</svg>
