<svg width="77" height="56" viewBox="0 0 77 56" fill="none" xmlns="http://www.w3.org/2000/svg">
<rect x="3" width="69" height="38" rx="19" fill="#7687C6"/>
<circle cx="47" cy="22.1501" r="15" fill="#FFD27C"/>
<rect x="0.75" y="3.90015" width="69.5" height="36.5" rx="18.25" stroke="#323232" stroke-width="1.5"/>
<circle cx="51.5" cy="22.6501" r="14.75" stroke="#323232" stroke-width="1.5"/>
<path d="M16.3357 12.4482C16.3662 12.4378 16.3828 12.4375 16.3875 12.4376C16.392 12.4377 16.3933 12.4383 16.3944 12.4388C16.3967 12.4397 16.4219 12.4515 16.4514 12.4999C16.5162 12.6065 16.5343 12.7818 16.448 12.9348C14.6047 16.2012 14.3511 20.3161 16.1241 23.9777C17.8971 27.6394 21.2825 29.9923 24.9881 30.5718C25.1616 30.599 25.2879 30.7219 25.3313 30.8388C25.3511 30.892 25.3447 30.9191 25.344 30.9215C25.3438 30.922 25.3437 30.9225 25.3434 30.9232C25.3429 30.9242 25.3421 30.9256 25.3406 30.9276C25.3378 30.9314 25.3273 30.9442 25.3002 30.9617C24.9552 31.1846 24.5928 31.389 24.2133 31.5727C19.1523 34.0233 13.0157 31.8522 10.5174 26.6926C8.01902 21.533 10.1214 15.3725 15.1823 12.9219C15.5618 12.7382 15.9469 12.5805 16.3357 12.4482Z" stroke="#323232" stroke-width="1.5"/>
</svg>
