<svg width="78" height="58" viewBox="0 0 78 58" fill="none" xmlns="http://www.w3.org/2000/svg">
<rect x="18" width="56" height="32" rx="2" fill="#B6EBE8"/>
<rect x="5" y="18" width="15" height="20" rx="1" fill="#7687C6"/>
<path d="M0.999078 20.7656C1.5203 19.8007 2.34222 19.459 3.42475 19.5193C4.76789 19.5796 6.11103 19.5394 7.57445 19.5394C7.57445 19.1575 7.57445 18.8761 7.57445 18.5745C7.57445 13.5089 7.57445 8.42314 7.57445 3.35749C7.5544 2.01067 7.71478 1.84985 9.01782 1.84985C29.3253 1.84985 49.6528 1.84985 69.9603 1.84985C71.2633 1.84985 71.4037 2.01067 71.4037 3.33739C71.4037 6.77479 71.4037 10.2122 71.4037 13.6697C71.4037 13.9712 71.4037 14.2527 71.4037 14.6145C72.5864 14.6145 73.6489 14.6346 74.7314 14.6145C76.8364 14.5341 77.9991 16.0819 77.9991 17.871C77.9389 28.8063 77.9389 39.7216 77.9991 50.657C78.0191 52.6471 76.6158 53.9537 74.7314 53.9336C68.978 53.8733 63.2045 53.9135 57.451 53.9135C55.306 53.9135 54.2034 52.828 54.2034 50.6771C54.2034 47.8427 54.2034 45.0084 54.2034 42.1539C54.2034 41.8926 54.2034 41.6112 54.2034 41.3096C51.6174 41.3096 49.1316 41.3096 46.6057 41.3096C46.6057 44.2445 46.6057 47.1392 46.6057 50.1544C46.8463 50.1544 47.0668 50.1544 47.3073 50.1544C48.9311 50.1544 50.5549 50.1544 52.1988 50.1544C52.9605 50.1544 53.2613 50.4359 53.2613 51.1997C53.2813 52.828 53.2813 54.4562 53.2613 56.1046C53.2412 56.8885 52.9405 57.1499 52.0384 57.1499C49.753 57.1499 47.4878 57.1499 45.2024 57.1499C39.1883 57.1499 33.1743 57.1499 27.1602 57.1499C25.9173 57.1499 25.7169 56.9488 25.6968 55.7226C25.6968 54.3356 25.6968 52.9687 25.6968 51.5817C25.6968 50.3554 25.8973 50.1745 27.1402 50.1544C28.8241 50.1544 30.488 50.1544 32.1719 50.1343C32.212 50.1343 32.2722 50.1142 32.3524 50.074C32.3524 47.1794 32.3524 44.2847 32.3524 41.3096C27.7416 41.3096 23.1308 41.3096 18.3797 41.3096C18.3797 41.8323 18.3797 42.375 18.3797 42.9178C18.3797 44.7471 18.3797 46.5763 18.3797 48.4257C18.3797 50.0539 17.6981 50.7374 16.0342 50.7374C11.8043 50.7374 7.57445 50.7173 3.32451 50.7575C2.22194 50.7575 1.44011 50.4158 0.958984 49.4107C0.999078 39.8623 0.999078 30.314 0.999078 20.7656ZM13.9894 19.5193C14.7312 19.5193 15.3927 19.5193 16.0743 19.5193C17.7983 19.5193 18.4198 20.1425 18.4198 21.8913C18.4198 25.8916 18.4198 29.8717 18.4198 33.872C18.4198 34.1735 18.4198 34.4549 18.4198 34.7967C30.3878 34.7967 42.2555 34.7967 54.2235 34.7967C54.2235 34.4348 54.2235 34.1534 54.2235 33.8519C54.2235 28.5048 54.2235 23.1577 54.2235 17.8107C54.2235 15.7603 55.3461 14.6346 57.3909 14.6346C59.6362 14.6145 61.9014 14.6346 64.1467 14.6346C64.4073 14.6346 64.688 14.6346 64.9887 14.6346C64.9887 12.4837 64.9887 10.4132 64.9887 8.36283C47.9689 8.36283 30.9892 8.36283 14.0095 8.36283C13.9894 12.0616 13.9894 15.7201 13.9894 19.5193ZM55.9074 43.1791C62.7234 43.1791 69.4591 43.1791 76.255 43.1791C76.255 36.3043 76.255 29.4496 76.255 22.5949C69.4591 22.5949 62.7033 22.5949 55.9074 22.5949C55.9074 29.4697 55.9074 36.2842 55.9074 43.1791ZM69.6997 3.61881C49.5125 3.61881 29.4255 3.61881 9.31853 3.61881C9.31853 8.92568 9.31853 14.1923 9.31853 19.459C10.3209 19.459 11.2831 19.459 12.2855 19.459C12.2855 19.1173 12.2855 18.856 12.2855 18.5745C12.2855 14.9562 12.2855 11.3379 12.2855 7.71957C12.2855 6.83509 12.526 6.59387 13.388 6.59387C30.7887 6.59387 48.2094 6.59387 65.6101 6.59387C66.4521 6.59387 66.6926 6.8552 66.6926 7.73968C66.6926 9.74985 66.6926 11.76 66.6926 13.7702C66.6926 14.0315 66.6926 14.313 66.6926 14.5542C67.7551 14.5542 68.7174 14.5542 69.6796 14.5542C69.6997 10.8756 69.6997 7.27733 69.6997 3.61881ZM2.72311 41.2292C7.37398 41.2292 11.9848 41.2292 16.6156 41.2292C16.6156 36.3043 16.6156 31.4196 16.6156 26.5549C11.9447 26.5549 7.33389 26.5549 2.72311 26.5549C2.72311 31.4598 2.72311 36.3244 2.72311 41.2292ZM76.275 44.9883C69.4391 44.9883 62.6833 44.9883 55.8673 44.9883C55.8673 46.8778 55.8673 48.7071 55.8673 50.5565C55.8673 51.8229 56.2081 52.1847 57.451 52.1847C60.9392 52.1847 64.4073 52.1847 67.8955 52.1847C70.2209 52.1847 72.5463 52.1847 74.8918 52.1847C75.7739 52.1847 76.2349 51.8631 76.255 51.1394C76.3151 49.089 76.275 47.0588 76.275 44.9883ZM54.1834 36.6259C42.2355 36.6259 30.3477 36.6259 18.4799 36.6259C18.4799 37.631 18.4799 38.5959 18.4799 39.5407C30.4078 39.5407 42.2956 39.5407 54.1834 39.5407C54.1834 38.5557 54.1834 37.631 54.1834 36.6259ZM51.4971 51.8832C43.4583 51.8832 35.4997 51.8832 27.501 51.8832C27.501 53.0893 27.501 54.2351 27.501 55.3809C35.5398 55.3809 43.4984 55.3809 51.4971 55.3809C51.4971 54.215 51.4971 53.0893 51.4971 51.8832ZM76.2951 20.8259C76.2951 19.6801 76.3352 18.5946 76.275 17.5292C76.235 16.7453 75.814 16.3834 74.9921 16.3834C73.3883 16.3834 71.7846 16.3834 70.1808 16.3834C65.8507 16.3834 61.5206 16.3834 57.1904 16.3834C56.3886 16.3834 55.9074 16.7252 55.8874 17.4287C55.8272 18.5544 55.8673 19.6801 55.8673 20.846C62.7033 20.8259 69.4391 20.8259 76.2951 20.8259ZM34.1566 41.3096C34.1566 44.2847 34.1566 47.1995 34.1566 50.1142C37.765 50.1142 41.2933 50.1142 44.8416 50.1142C44.8416 47.1593 44.8416 44.2646 44.8416 41.3298C43.9996 41.3298 43.2178 41.3298 42.3558 41.3298C42.3558 41.8122 42.3558 42.2544 42.3558 42.6967C42.3558 43.5812 42.4159 44.4656 42.2956 45.33C42.0951 46.7773 40.6919 47.7422 39.1483 47.6015C37.7851 47.4809 36.6825 46.2748 36.6424 44.8677C36.6224 43.7018 36.6424 42.5158 36.6424 41.3298C35.7603 41.3096 34.9986 41.3096 34.1566 41.3096ZM2.72311 48.9483C7.37398 48.9483 11.9848 48.9483 16.6356 48.9483C16.6356 46.9582 16.6356 45.0084 16.6356 43.0183C11.9848 43.0183 7.37398 43.0183 2.72311 43.0183C2.72311 45.0084 2.72311 46.9582 2.72311 48.9483ZM16.6356 21.2481C11.9647 21.2481 7.37398 21.2481 2.72311 21.2481C2.72311 22.414 2.72311 23.5397 2.72311 24.7056C7.35393 24.7056 11.9848 24.7056 16.6356 24.7056C16.6356 23.5598 16.6356 22.4341 16.6356 21.2481ZM38.3063 41.2895C38.3063 42.4957 38.2662 43.6415 38.3263 44.7873C38.3464 45.4305 38.7874 45.8527 39.449 45.8929C40.1105 45.913 40.5916 45.531 40.6317 44.8878C40.6919 43.7018 40.6518 42.5158 40.6518 41.2895C39.8499 41.2895 39.1282 41.2895 38.3063 41.2895Z" fill="#323232"/>
<path d="M66.0519 50.8984C65.4305 50.8984 64.809 50.9185 64.1876 50.8984C63.2854 50.8783 62.684 50.2953 62.6439 49.4108C62.6239 48.8279 62.6239 48.265 62.6439 47.6821C62.684 46.8378 63.2453 46.2548 64.0673 46.2347C65.4104 46.1945 66.7736 46.1945 68.1167 46.2347C68.9587 46.2548 69.52 46.878 69.5601 47.7424C69.5802 48.265 69.5802 48.7877 69.5601 49.3103C69.5401 50.235 68.9387 50.8582 68.0165 50.8783C67.355 50.9185 66.7135 50.8984 66.0519 50.8984ZM67.8361 47.9434C66.6132 47.9434 65.4705 47.9434 64.3479 47.9434C64.3479 48.3856 64.3479 48.7676 64.3479 49.1897C65.5307 49.1897 66.6734 49.1897 67.8361 49.1897C67.8361 48.7475 67.8361 48.3655 67.8361 47.9434Z" fill="#323232"/>
<path d="M66.0314 19.4391C65.45 19.4391 64.8887 19.4391 64.3073 19.4391C63.7661 19.419 63.4453 19.0974 63.4453 18.5948C63.4453 18.0923 63.7861 17.7707 64.3274 17.7707C65.5101 17.7707 66.6729 17.7506 67.8556 17.7707C68.3969 17.7707 68.6976 18.0923 68.6976 18.6149C68.6976 19.1376 68.3568 19.4391 67.8356 19.4391C67.2342 19.4391 66.6328 19.4391 66.0314 19.4391Z" fill="#323232"/>
<path d="M9.69844 43.6013C10.1996 43.6616 10.7008 43.6415 11.1819 43.7621C12.2644 44.0838 12.7857 45.1492 12.5852 46.496C12.4248 47.5614 11.6229 48.285 10.5404 48.3252C9.95904 48.3453 9.39773 48.3453 8.81637 48.3252C7.55342 48.285 6.71145 47.3403 6.69141 45.9934C6.69141 44.6265 7.47323 43.7219 8.77628 43.6415C9.07698 43.6214 9.37769 43.6415 9.67839 43.6415C9.69844 43.6415 9.69844 43.6214 9.69844 43.6013ZM9.73853 45.3502C9.45787 45.3502 9.15717 45.2899 8.91661 45.3703C8.73619 45.4306 8.49562 45.6718 8.47558 45.8527C8.45553 46.0738 8.59586 46.5362 8.71614 46.5362C9.35764 46.5965 9.99914 46.5965 10.6406 46.5563C10.7409 46.5563 10.8812 46.3151 10.9213 46.1743C11.0616 45.511 10.801 45.3301 9.73853 45.3502Z" fill="#323232"/>
<path d="M9.71887 23.8614C9.29789 23.8614 8.85686 23.8815 8.43588 23.8614C7.87456 23.8212 7.51372 23.5197 7.55381 22.9568C7.57386 22.4342 7.9347 22.1527 8.45592 22.1527C9.27784 22.1527 10.0998 22.1326 10.9417 22.1527C11.463 22.1728 11.8037 22.4342 11.8238 22.9769C11.8438 23.5398 11.503 23.8011 11.0019 23.8614C10.5608 23.8815 10.1399 23.8413 9.71887 23.8614C9.71887 23.8413 9.71887 23.8413 9.71887 23.8614Z" fill="#323232"/>
</svg>
