<svg width="299" height="239" viewBox="0 0 299 239" fill="none" xmlns="http://www.w3.org/2000/svg">
<rect x="17.7734" y="53.0522" width="280.866" height="111.89" rx="11.4354" fill="#7687C6"/>
<path d="M280.372 218.638C280.022 219.748 279.657 220.858 279.328 221.967C276.379 231.826 267.493 238.661 257.213 238.968C256.483 238.989 255.753 238.997 255.022 238.997C178.454 238.997 101.885 239.004 25.3238 238.997C13.1672 238.997 3.8726 232.33 0.937486 221.398C0.331479 219.134 0.0467283 216.724 0.039427 214.38C-0.00438076 151.127 -0.0116821 87.873 0.0175231 24.6193C0.0248244 10.3942 10.3123 0.0320237 24.5061 0.0247213C101.622 -0.0117908 178.739 -0.00448842 255.847 0.0247213C268.136 0.0320237 277.109 7.35636 279.913 19.4273C279.993 19.7632 280.219 20.0553 280.372 20.3766C280.372 86.4636 280.372 152.551 280.372 218.638ZM274.327 44.2994C184.718 44.2994 95.4673 44.2994 6.06299 44.2994C6.06299 45.5408 6.06299 46.5339 6.06299 47.5343C6.06299 102.748 6.20902 157.962 5.93157 213.175C5.88046 223.596 13.3059 233.082 25.6378 233.053C102.009 232.834 178.381 232.943 254.76 232.928C256.578 232.928 258.447 232.958 260.192 232.556C268.815 230.57 274.312 223.523 274.32 214.534C274.334 158.685 274.327 102.828 274.327 46.9793C274.327 46.1542 274.327 45.3436 274.327 44.2994ZM274.239 37.9097C274.239 32.9952 274.276 28.4458 274.232 23.8964C274.181 18.7116 272.202 14.3521 268.42 10.8104C264.441 7.08617 259.637 6.12955 254.329 6.13686C187.537 6.20258 120.744 6.18067 53.9522 6.18067C43.7304 6.18067 33.5158 6.13685 23.294 6.24639C15.781 6.32672 8.46512 11.4749 7.04137 18.8358C5.85125 24.9844 6.17251 31.4325 5.81475 37.917C95.6425 37.9097 184.755 37.9097 274.239 37.9097Z" fill="#323232"/>
<path d="M90.5238 175.115C99.519 180.3 108.105 185.258 116.684 190.209C117.393 190.618 118.101 191.034 118.809 191.45C120.583 192.487 121.686 193.882 120.437 195.912C119.203 197.906 117.444 197.606 115.677 196.569C115.363 196.387 115.049 196.204 114.735 196.022C104.572 190.143 94.4081 184.279 84.252 178.394C80.375 176.145 80.3823 173.925 84.2885 171.661C94.5249 165.739 104.769 159.824 115.02 153.923C115.721 153.522 116.56 152.821 117.203 152.945C118.393 153.186 119.926 153.668 120.474 154.566C120.912 155.281 120.35 156.91 119.78 157.859C119.313 158.626 118.188 159.013 117.32 159.51C109.281 164.154 101.235 168.784 93.1961 173.428C92.4149 173.873 91.6774 174.385 90.5238 175.115Z" fill="#323232"/>
<path d="M189.914 175.006C180.693 169.668 171.96 164.614 163.228 159.561C162.439 159.108 161.33 158.831 160.943 158.152C160.307 157.042 159.636 155.537 159.913 154.427C160.366 152.602 162.14 152.536 163.761 153.04C164.36 153.23 164.885 153.631 165.44 153.953C175.611 159.817 185.789 165.681 195.952 171.559C200.034 173.918 200.07 176.138 196.047 178.467C185.723 184.44 175.377 190.363 165.061 196.343C163.14 197.461 161.235 198.132 159.899 195.781C158.519 193.349 160.3 192.196 162.162 191.122C170.522 186.317 178.867 181.468 187.213 176.634C187.987 176.189 188.753 175.714 189.914 175.006Z" fill="#323232"/>
<path d="M60.7548 97.5708C70.6845 97.5708 80.6216 97.5635 90.5514 97.5708C93.4865 97.5708 94.9029 98.5566 94.7642 100.616C94.5817 103.289 92.6541 103.654 90.471 103.654C70.6042 103.639 50.7447 103.646 30.8779 103.646C30.6078 103.646 30.3303 103.646 30.0602 103.646C28.0523 103.639 26.5628 102.734 26.5263 100.682C26.4825 98.469 27.9793 97.5562 30.1405 97.5635C40.3404 97.5854 50.5476 97.5708 60.7548 97.5708Z" fill="#323232"/>
<path d="M60.8001 80.673C50.7682 80.673 40.7289 80.6438 30.6969 80.6949C28.5649 80.7095 26.7907 80.3809 26.506 77.8908C26.2796 75.9118 27.8421 74.7288 30.6896 74.7215C50.666 74.6996 70.6496 74.7142 90.6259 74.7142C90.991 74.7142 91.3633 74.6996 91.7211 74.7508C93.5464 75.0063 94.8826 75.8096 94.773 77.8835C94.6635 79.9136 93.3785 80.673 91.4583 80.673C81.2292 80.6657 71.0146 80.673 60.8001 80.673Z" fill="#323232"/>
<path d="M60.8103 120.5C70.4772 120.5 80.1441 120.5 89.8111 120.5C90.6288 120.5 91.6583 120.222 92.2278 120.609C93.2281 121.281 94.5715 122.34 94.608 123.282C94.6445 124.231 93.4325 125.48 92.4541 126.137C91.7313 126.619 90.512 126.407 89.519 126.407C70.2728 126.422 51.0339 126.422 31.7877 126.407C29.5097 126.407 26.9323 126.721 26.5016 123.516C26.2168 121.383 27.8961 120.5 31.8096 120.492C41.4765 120.5 51.1434 120.5 60.8103 120.5Z" fill="#323232"/>
<path d="M134.494 202.236C131.361 202.338 130.281 200.52 131.047 197.555C132.252 192.903 133.508 188.266 134.756 183.629C137.648 172.858 140.517 162.08 143.496 151.338C143.832 150.133 144.628 148.811 145.621 148.125C146.241 147.694 148.118 147.979 148.534 148.57C149.22 149.542 149.615 151.126 149.359 152.273C148.278 157.041 146.906 161.744 145.635 166.476C142.737 177.24 139.838 188.011 136.947 198.775C136.48 200.498 135.99 202.163 134.494 202.236Z" fill="#323232"/>
<path d="M237.124 97.5701C241.402 97.5701 245.681 97.6139 249.959 97.5555C252.194 97.5262 253.888 98.2857 253.844 100.681C253.8 102.894 252.135 103.66 250.04 103.66C241.205 103.646 232.378 103.646 223.543 103.66C221.433 103.668 219.791 102.806 219.783 100.63C219.776 98.2711 221.506 97.5189 223.733 97.5555C228.202 97.6212 232.663 97.5701 237.124 97.5701Z" fill="#323232"/>
<path d="M236.749 80.6727C232.281 80.6727 227.812 80.6216 223.344 80.6946C221.256 80.7311 219.861 79.8548 219.803 77.8101C219.737 75.707 221.249 74.7504 223.234 74.7431C232.266 74.7139 241.298 74.7139 250.33 74.7358C252.301 74.7358 253.871 75.5975 253.871 77.7006C253.871 79.9424 252.345 80.7311 250.169 80.6946C245.693 80.6216 241.218 80.6727 236.749 80.6727Z" fill="#323232"/>
<path d="M130.723 80.6725C126.255 80.6725 121.786 80.6506 117.318 80.6798C115.31 80.6944 113.886 80.0664 113.828 77.8099C113.769 75.5389 115.288 74.7575 117.201 74.7429C126.233 74.6918 135.257 74.6918 144.289 74.7356C146.34 74.7429 147.983 75.6265 147.815 77.956C147.662 80.0664 146.136 80.7163 144.128 80.6871C139.667 80.6287 135.191 80.6725 130.723 80.6725Z" fill="#323232"/>
<path d="M130.894 97.5708C135.26 97.5708 139.627 97.6 143.993 97.5562C146.088 97.5343 147.746 98.2353 147.819 100.47C147.892 102.887 146.132 103.646 143.956 103.646C135.136 103.646 126.309 103.654 117.489 103.639C115.437 103.639 113.831 102.916 113.846 100.565C113.86 98.1988 115.452 97.5562 117.526 97.5708C121.979 97.5854 126.433 97.5708 130.894 97.5708Z" fill="#323232"/>
<path d="M183.705 103.646C179.521 103.646 175.337 103.624 171.146 103.653C168.971 103.668 167.028 103.354 166.839 100.652C166.693 98.5635 168.073 97.5777 170.993 97.5704C179.543 97.5631 188.1 97.5631 196.65 97.5704C199.373 97.5704 201.155 98.7753 200.921 100.637C200.6 103.142 198.774 103.69 196.533 103.661C192.262 103.602 187.983 103.646 183.705 103.646Z" fill="#323232"/>
<path d="M183.906 80.6725C179.437 80.6725 174.969 80.6433 170.501 80.6872C168.537 80.7091 166.981 80.2198 166.857 77.9706C166.726 75.5828 168.296 74.7503 170.355 74.743C179.291 74.7065 188.228 74.7211 197.165 74.7284C199.231 74.7284 200.94 75.5754 200.874 77.81C200.808 79.9934 199.187 80.7456 197.034 80.7018C192.66 80.6141 188.279 80.6725 183.906 80.6725Z" fill="#323232"/>
<path d="M130.708 120.507C135.176 120.507 139.644 120.537 144.106 120.493C146.216 120.471 147.815 121.135 147.822 123.457C147.829 125.648 146.216 126.393 144.295 126.393C135.271 126.422 126.247 126.43 117.222 126.386C115.317 126.378 113.783 125.663 113.827 123.363C113.871 121.084 115.317 120.485 117.31 120.5C121.771 120.522 126.239 120.507 130.708 120.507Z" fill="#323232"/>
<path d="M183.927 120.507C188.396 120.507 192.857 120.551 197.325 120.493C199.399 120.464 200.83 121.362 200.881 123.385C200.932 125.466 199.377 126.393 197.398 126.401C188.374 126.43 179.357 126.437 170.332 126.401C168.419 126.393 166.85 125.692 166.85 123.443C166.85 121.033 168.441 120.471 170.537 120.493C174.998 120.537 179.466 120.5 183.927 120.507Z" fill="#323232"/>
<path d="M236.806 120.5C241.275 120.5 245.736 120.544 250.204 120.478C252.227 120.449 253.745 121.136 253.84 123.246C253.95 125.546 252.307 126.393 250.233 126.401C241.304 126.422 232.367 126.422 223.438 126.401C221.364 126.393 219.692 125.561 219.787 123.282C219.889 121.019 221.576 120.435 223.671 120.478C228.059 120.559 232.433 120.5 236.806 120.5Z" fill="#323232"/>
<path d="M221.91 22.2605C221.866 27.6351 217.748 31.5565 212.214 31.4908C206.964 31.425 203.036 27.3576 203.051 22.0049C203.065 16.6303 207.198 12.5629 212.608 12.5994C217.96 12.6359 221.954 16.7764 221.91 22.2605ZM215.631 21.6471C215.346 20.0332 214.419 18.7845 212.28 18.9379C210.352 19.0766 209.315 20.1501 209.374 22.1144C209.439 24.2175 210.615 25.2399 212.681 25.1595C214.667 25.0792 215.551 23.9035 215.631 21.6471Z" fill="#323232"/>
<path d="M247.176 31.4836C241.824 31.4982 237.524 27.2774 237.553 22.0342C237.582 16.9736 241.912 12.6433 246.972 12.5995C252.36 12.5557 256.573 16.6304 256.646 21.9685C256.726 27.2993 252.572 31.469 247.176 31.4836ZM246.402 18.9307C245.037 19.1425 243.817 20.2524 243.927 22.246C244.029 24.0862 245.183 25.1451 247.139 25.1889C249.323 25.2327 250.418 23.8963 250.389 22.0269C250.352 20.1502 249.155 18.8723 246.402 18.9307Z" fill="#323232"/>
<path d="M177.651 31.4832C172.357 31.4321 168.385 27.4231 168.363 22.0996C168.341 16.725 172.481 12.5846 177.855 12.5992C183.075 12.6138 187.464 17.0171 187.391 22.1799C187.325 27.4523 183.054 31.5344 177.651 31.4832ZM178.344 25.1812C179.797 25.1228 181.06 24.0786 181.031 22.0558C181.002 20.0915 179.863 18.9085 177.76 18.9304C175.76 18.945 174.679 20.1864 174.621 21.9463C174.562 23.8522 175.592 25.1959 178.344 25.1812Z" fill="#323232"/>
</svg>
