<svg width="108" height="108" viewBox="0 0 108 108" fill="none" xmlns="http://www.w3.org/2000/svg">
<rect y="8" width="100" height="100" rx="24" fill="#FFD27C"/>
<rect x="9" y="1" width="98" height="98" rx="23" stroke="#323232" stroke-width="2"/>
<path d="M48.6893 80.448C46.2573 80.448 44.0386 80.1493 42.0333 79.552C40.0706 78.912 38.3426 78.016 36.8493 76.864C35.3986 75.6693 34.2466 74.2613 33.3932 72.64L38.0013 66.816C38.4279 67.7547 39.1106 68.672 40.0493 69.568C40.9879 70.464 42.1613 71.1893 43.5693 71.744C44.9773 72.2987 46.5773 72.576 48.3693 72.576C50.1186 72.576 51.6333 72.32 52.9133 71.808C54.1933 71.296 55.1746 70.592 55.8573 69.696C56.5826 68.7573 56.9453 67.6267 56.9453 66.304C56.9453 64.896 56.4973 63.7013 55.6013 62.72C54.7479 61.7387 53.4679 60.992 51.7613 60.48C50.0546 59.968 47.9639 59.712 45.4893 59.712H43.3773V53.312H45.6173C48.6893 53.312 51.1426 52.7787 52.9773 51.712C54.8546 50.6453 55.7933 49.1307 55.7933 47.168C55.7933 45.9733 55.4733 44.9493 54.8333 44.096C54.1933 43.2 53.3399 42.5387 52.2733 42.112C51.2066 41.6427 50.0333 41.408 48.7533 41.408C46.6199 41.408 44.7213 41.92 43.0573 42.944C41.4359 43.9253 40.1986 45.2053 39.3453 46.784L33.7773 40.576C34.7159 39.2107 35.9959 38.0587 37.6173 37.12C39.2386 36.1387 41.0519 35.3707 43.0573 34.816C45.1053 34.2613 47.2173 33.984 49.3933 33.984C52.4226 33.984 55.1106 34.5173 57.4573 35.584C59.8039 36.608 61.6386 38.016 62.9613 39.808C64.2839 41.6 64.9453 43.648 64.9453 45.952C64.9453 47.6587 64.5826 49.216 63.8573 50.624C63.1746 52.032 62.1933 53.2053 60.9133 54.144C59.6333 55.0827 58.1186 55.7653 56.3693 56.192C58.2466 56.4907 59.8893 57.1947 61.2973 58.304C62.7479 59.3707 63.8573 60.736 64.6253 62.4C65.4359 64.0213 65.8413 65.792 65.8413 67.712C65.8413 70.4 65.0733 72.6827 63.5373 74.56C62.0439 76.4373 59.9959 77.888 57.3933 78.912C54.8333 79.936 51.9319 80.448 48.6893 80.448Z" fill="white"/>
<path fill-rule="evenodd" clip-rule="evenodd" d="M49.4361 73.4618L49.4116 73.4538C47.2522 72.7497 45.3166 71.7521 43.626 70.4479L43.6008 70.4285L43.5762 70.4082C41.9258 69.049 40.6022 67.4345 39.6218 65.5719L39.0156 64.4201L46.4644 55.0057L47.8204 57.9888C48.1179 58.6433 48.6288 59.3582 49.4286 60.1217C50.1517 60.8119 51.094 61.4082 52.3007 61.8836C53.4365 62.331 54.7813 62.5764 56.3677 62.5764C57.9282 62.5764 59.1792 62.3473 60.1689 61.9514C61.1881 61.5437 61.8456 61.0345 62.2648 60.4843L62.273 60.4735C62.6967 59.9253 62.9437 59.2382 62.9437 58.3044C62.9437 57.3629 62.6609 56.6584 62.1227 56.0689L62.1063 56.051L62.0904 56.0327C61.5612 55.4241 60.6588 54.8382 59.185 54.396C57.7214 53.957 55.8373 53.7124 53.4877 53.7124H49.3757V43.3124H53.6157C56.4829 43.3124 58.5478 42.8104 59.9704 41.9834L59.979 41.9784L59.9876 41.9735C61.3156 41.2189 61.7917 40.328 61.7917 39.1684C61.7917 38.3519 61.5811 37.7623 61.2317 37.2964L61.2177 37.2778L61.2042 37.2589C60.7965 36.6881 60.2565 36.2604 59.5289 35.9693L59.4973 35.9567L59.4662 35.943C58.6774 35.5959 57.7818 35.4084 56.7517 35.4084C54.9532 35.4084 53.4239 35.8353 52.1038 36.6477L52.0976 36.6516L52.0913 36.6554C50.7568 37.4631 49.7775 38.4878 49.1031 39.7354L47.7519 42.235L39.236 32.7402L40.1276 31.4433C41.2518 29.808 42.7596 28.4658 44.5966 27.3994C46.3848 26.3193 48.3643 25.4857 50.5225 24.8888L50.5328 24.8859C52.7556 24.2839 55.0436 23.9844 57.3917 23.9844C60.6513 23.9844 63.6247 24.5579 66.2693 25.7573C68.8826 26.9001 71.0109 28.51 72.5688 30.6207C74.1546 32.7691 74.9437 35.2367 74.9437 37.9524C74.9437 39.944 74.5196 41.8117 73.6447 43.5188C72.8181 45.2148 71.6268 46.6334 70.0944 47.7572C69.9412 47.8695 69.7856 47.9784 69.6276 48.0841C69.9283 48.2795 70.2216 48.489 70.5071 48.7128C72.2138 49.9744 73.5245 51.5915 74.4265 53.534C75.3748 55.4417 75.8397 57.5115 75.8397 59.7124C75.8397 62.804 74.9467 65.5445 73.0923 67.8162C71.3481 70.0045 68.9967 71.6424 66.1287 72.7716C63.2963 73.9036 60.1384 74.4484 56.6877 74.4484C54.0929 74.4484 51.6785 74.1298 49.4607 73.4692L49.4361 73.4618ZM65.3917 70.9124C67.9943 69.8884 70.0423 68.4377 71.5357 66.5604C73.0717 64.683 73.8397 62.4004 73.8397 59.7124C73.8397 57.7924 73.4343 56.0217 72.6237 54.4004C71.8557 52.7364 70.7463 51.371 69.2957 50.3044C68.7576 49.8804 68.1852 49.5157 67.5786 49.2101C66.5978 48.7162 65.5275 48.3769 64.3677 48.1924C65.5306 47.9087 66.5897 47.512 67.5452 47.0021C68.0271 46.7449 68.4826 46.459 68.9117 46.1444C70.1917 45.2057 71.173 44.0324 71.8557 42.6244C72.581 41.2164 72.9437 39.659 72.9437 37.9524C72.9437 35.6484 72.2823 33.6004 70.9597 31.8084C69.637 30.0164 67.8023 28.6084 65.4557 27.5844C63.109 26.5177 60.421 25.9844 57.3917 25.9844C55.2157 25.9844 53.1037 26.2617 51.0557 26.8164C49.0503 27.371 47.237 28.139 45.6157 29.1204C43.9943 30.059 42.7143 31.211 41.7757 32.5764L47.3437 38.7844C47.6739 38.1735 48.0616 37.6073 48.5068 37.0858C49.2121 36.2598 50.0617 35.546 51.0557 34.9444C52.7197 33.9204 54.6183 33.4084 56.7517 33.4084C58.0317 33.4084 59.205 33.643 60.2717 34.1124C61.3383 34.539 62.1917 35.2004 62.8317 36.0964C63.4717 36.9497 63.7917 37.9737 63.7917 39.1684C63.7917 41.131 62.853 42.6457 60.9757 43.7124C59.141 44.779 56.6877 45.3124 53.6157 45.3124H51.3757V51.7124H53.4877C55.9623 51.7124 58.053 51.9684 59.7597 52.4804C61.4663 52.9924 62.7463 53.739 63.5997 54.7204C64.4957 55.7017 64.9437 56.8964 64.9437 58.3044C64.9437 59.627 64.581 60.7577 63.8557 61.6964C63.173 62.5924 62.1917 63.2964 60.9117 63.8084C59.6317 64.3204 58.117 64.5764 56.3677 64.5764C54.5757 64.5764 52.9757 64.299 51.5677 63.7444C50.1597 63.1897 48.9863 62.4644 48.0477 61.5684C47.7121 61.2481 47.4093 60.9251 47.1392 60.5994C46.6537 60.0139 46.2738 59.4195 45.9997 58.8164L41.3917 64.6404C42.245 66.2617 43.397 67.6697 44.8477 68.8644C46.341 70.0164 48.069 70.9124 50.0317 71.5524C52.037 72.1497 54.2557 72.4484 56.6877 72.4484C59.9303 72.4484 62.8317 71.9364 65.3917 70.9124Z" fill="#323232"/>
</svg>
