<svg width="108" height="108" viewBox="0 0 108 108" fill="none" xmlns="http://www.w3.org/2000/svg">
<rect y="8" width="100" height="100" rx="24" fill="#FFD27C"/>
<rect x="9" y="1" width="98" height="98" rx="23" stroke="#323232" stroke-width="2"/>
<path d="M48.6893 80.448C46.2573 80.448 44.0386 80.1493 42.0333 79.552C40.0706 78.912 38.3426 78.016 36.8493 76.864C35.3986 75.6693 34.2466 74.2613 33.3932 72.64L38.0013 66.816C38.4279 67.7547 39.1106 68.672 40.0493 69.568C40.9879 70.464 42.1613 71.1893 43.5693 71.744C44.9773 72.2987 46.5773 72.576 48.3693 72.576C50.1186 72.576 51.6333 72.32 52.9133 71.808C54.1933 71.296 55.1746 70.592 55.8573 69.696C56.5826 68.7573 56.9453 67.6267 56.9453 66.304C56.9453 64.896 56.4973 63.7013 55.6013 62.72C54.7479 61.7387 53.4679 60.992 51.7613 60.48C50.0546 59.968 47.9639 59.712 45.4893 59.712H43.3773V53.312H45.6173C48.6893 53.312 51.1426 52.7787 52.9773 51.712C54.8546 50.6453 55.7933 49.1307 55.7933 47.168C55.7933 45.9733 55.4733 44.9493 54.8333 44.096C54.1933 43.2 53.3399 42.5387 52.2733 42.112C51.2066 41.6427 50.0333 41.408 48.7533 41.408C46.6199 41.408 44.7213 41.92 43.0573 42.944C41.4359 43.9253 40.1986 45.2053 39.3453 46.784L33.7773 40.576C34.7159 39.2107 35.9959 38.0587 37.6173 37.12C39.2386 36.1387 41.0519 35.3707 43.0573 34.816C45.1053 34.2613 47.2173 33.984 49.3933 33.984C52.4226 33.984 55.1106 34.5173 57.4573 35.584C59.8039 36.608 61.6386 38.016 62.9613 39.808C64.2839 41.6 64.9453 43.648 64.9453 45.952C64.9453 47.6587 64.5826 49.216 63.8573 50.624C63.1746 52.032 62.1933 53.2053 60.9133 54.144C59.6333 55.0827 58.1186 55.7653 56.3693 56.192C58.2466 56.4907 59.8893 57.1947 61.2973 58.304C62.7479 59.3707 63.8573 60.736 64.6253 62.4C65.4359 64.0213 65.8413 65.792 65.8413 67.712C65.8413 70.4 65.0733 72.6827 63.5373 74.56C62.0439 76.4373 59.9959 77.888 57.3933 78.912C54.8333 79.936 51.9319 80.448 48.6893 80.448Z" fill="white"/>
<path d="M50.0333 71.552L49.4132 73.4535L49.4377 73.4614L49.4623 73.4688L50.0333 71.552ZM44.8493 68.864L43.5778 70.4079L43.6024 70.4281L43.6276 70.4476L44.8493 68.864ZM41.3932 64.64L39.8248 63.399L39.0172 64.4197L39.6234 65.5715L41.3932 64.64ZM46.0013 58.816L47.822 57.9884L46.466 55.0053L44.4328 57.575L46.0013 58.816ZM48.0493 61.568L46.6683 63.0147L46.6683 63.0147L48.0493 61.568ZM51.5693 63.744L52.3023 61.8832L52.3023 61.8832L51.5693 63.744ZM60.9133 63.808L60.1705 61.951L60.1705 61.951L60.9133 63.808ZM63.8573 61.696L62.2746 60.4731L62.2664 60.4839L63.8573 61.696ZM63.6013 54.72L62.092 56.0324L62.1079 56.0506L62.1243 56.0685L63.6013 54.72ZM59.7613 52.48L60.3359 50.5643L60.3359 50.5643L59.7613 52.48ZM51.3773 51.712H49.3773V53.712H51.3773V51.712ZM51.3773 45.312V43.312H49.3773V45.312H51.3773ZM60.9773 43.712L59.9892 41.9731L59.9806 41.978L59.972 41.983L60.9773 43.712ZM62.8333 36.096L61.2058 37.2585L61.2193 37.2774L61.2333 37.296L62.8333 36.096ZM60.2733 34.112L59.4678 35.9426L59.4989 35.9563L59.5305 35.969L60.2733 34.112ZM51.0573 34.944L52.0929 36.655L52.0992 36.6512L52.1054 36.6473L51.0573 34.944ZM47.3453 38.784L45.8564 40.1194L47.7535 42.2346L49.1047 39.735L47.3453 38.784ZM41.7773 32.576L40.1292 31.4429L39.2376 32.7398L40.2884 33.9114L41.7773 32.576ZM45.6173 29.12L46.6193 30.8509L46.6362 30.8411L46.6529 30.831L45.6173 29.12ZM51.0573 26.816L50.5344 24.8855L50.5241 24.8884L51.0573 26.816ZM65.4573 27.584L64.6296 29.4047L64.6435 29.411L64.6574 29.4171L65.4573 27.584ZM70.9613 31.808L72.5704 30.6203L72.5704 30.6203L70.9613 31.808ZM71.8573 42.624L70.0793 41.7081L70.0682 41.7296L70.0576 41.7515L71.8573 42.624ZM68.9133 46.144L70.096 47.7568L70.096 47.7568L68.9133 46.144ZM64.3693 48.192L63.8953 46.249L64.055 50.1672L64.3693 48.192ZM69.2973 50.304L68.0595 51.875L68.0857 51.8956L68.1125 51.9153L69.2973 50.304ZM72.6253 54.4L70.8093 55.2381L70.8224 55.2665L70.8364 55.2944L72.6253 54.4ZM71.5373 66.56L69.9893 65.2935L69.9806 65.3042L69.972 65.315L71.5373 66.56ZM65.3933 70.912L64.661 69.0508L64.6505 69.055L65.3933 70.912ZM56.6893 70.448C54.42 70.448 52.397 70.1693 50.6042 69.6352L49.4623 73.4688C51.6801 74.1294 54.0945 74.448 56.6893 74.448V70.448ZM50.6533 69.6505C48.8873 69.0747 47.367 68.2803 46.0709 67.2804L43.6276 70.4476C45.3182 71.7517 47.2538 72.7493 49.4132 73.4535L50.6533 69.6505ZM46.1207 67.3201C44.8698 66.29 43.8894 65.0885 43.1631 63.7085L39.6234 65.5715C40.6038 67.4342 41.9274 69.0487 43.5778 70.4079L46.1207 67.3201ZM42.9617 65.881L47.5697 60.057L44.4328 57.575L39.8248 63.399L42.9617 65.881ZM44.1805 59.6436C44.7363 60.8664 45.5908 61.9862 46.6683 63.0147L49.4302 60.1213C48.6304 59.3578 48.1195 58.6429 47.822 57.9884L44.1805 59.6436ZM46.6683 63.0147C47.8225 64.1165 49.2269 64.9709 50.8362 65.6048L52.3023 61.8832C51.0956 61.4078 50.1533 60.8115 49.4302 60.1213L46.6683 63.0147ZM50.8362 65.6048C52.5164 66.2667 54.3716 66.576 56.3693 66.576V62.576C54.7829 62.576 53.4381 62.3306 52.3023 61.8832L50.8362 65.6048ZM56.3693 66.576C58.3074 66.576 60.0857 66.2931 61.656 65.665L60.1705 61.951C59.1808 62.3469 57.9298 62.576 56.3693 62.576V66.576ZM61.656 65.665C63.1968 65.0486 64.502 64.1499 65.4481 62.9081L62.2664 60.4839C61.8472 61.0341 61.1897 61.5434 60.1705 61.951L61.656 65.665ZM65.4398 62.9189C66.4669 61.5898 66.9453 60.0155 66.9453 58.304H62.9453C62.9453 59.2378 62.6983 59.9249 62.2747 60.4731L65.4398 62.9189ZM66.9453 58.304C66.9453 56.4295 66.332 54.7447 65.0782 53.3715L62.1243 56.0685C62.6625 56.658 62.9453 57.3625 62.9453 58.304H66.9453ZM65.1105 53.4076C63.9331 52.0537 62.2754 51.1462 60.3359 50.5643L59.1866 54.3957C60.6604 54.8378 61.5628 55.4237 62.092 56.0324L65.1105 53.4076ZM60.3359 50.5643C58.3862 49.9794 56.089 49.712 53.4893 49.712V53.712C55.8389 53.712 57.723 53.9566 59.1866 54.3957L60.3359 50.5643ZM53.4893 49.712H51.3773V53.712H53.4893V49.712ZM53.3773 51.712V45.312H49.3773V51.712H53.3773ZM51.3773 47.312H53.6173V43.312H51.3773V47.312ZM53.6173 47.312C56.894 47.312 59.7357 46.7473 61.9825 45.441L59.972 41.983C58.5494 42.8101 56.4845 43.312 53.6173 43.312V47.312ZM61.9653 45.4509C64.392 44.0721 65.7933 41.9337 65.7933 39.168H61.7933C61.7933 40.3277 61.3172 41.2186 59.9892 41.9731L61.9653 45.4509ZM65.7933 39.168C65.7933 37.5951 65.3638 36.1367 64.4333 34.896L61.2333 37.296C61.5827 37.7619 61.7933 38.3515 61.7933 39.168H65.7933ZM64.4607 34.9335C63.5884 33.7123 62.4217 32.8173 61.016 32.255L59.5305 35.969C60.2581 36.26 60.7981 36.6877 61.2058 37.2585L64.4607 34.9335ZM61.0787 32.2814C59.7342 31.6898 58.2831 31.408 56.7533 31.408V35.408C57.7834 35.408 58.679 35.5956 59.4678 35.9426L61.0787 32.2814ZM56.7533 31.408C54.285 31.408 52.017 32.005 50.0091 33.2407L52.1054 36.6473C53.4255 35.8349 54.9548 35.408 56.7533 35.408V31.408ZM50.0216 33.233C48.1135 34.3879 46.6181 35.9233 45.5858 37.833L49.1047 39.735C49.7791 38.4874 50.7584 37.4627 52.0929 36.655L50.0216 33.233ZM48.8341 37.4486L43.2661 31.2406L40.2884 33.9114L45.8564 40.1194L48.8341 37.4486ZM43.4253 33.7091C44.175 32.6187 45.2213 31.6602 46.6193 30.8509L44.6152 27.3891C42.7705 28.4571 41.2569 29.8026 40.1292 31.4429L43.4253 33.7091ZM46.6529 30.831C48.1029 29.9533 49.7446 29.2542 51.5904 28.7436L50.5241 24.8884C48.3592 25.4872 46.3742 26.324 44.5816 27.409L46.6529 30.831ZM51.5801 28.7465C53.4533 28.2391 55.3893 27.984 57.3933 27.984V23.984C55.0452 23.984 52.7572 24.2835 50.5344 24.8855L51.5801 28.7465ZM57.3933 27.984C60.1866 27.984 62.5845 28.4751 64.6296 29.4047L66.2849 25.7633C63.6367 24.5596 60.6586 23.984 57.3933 23.984V27.984ZM64.6574 29.4171C66.7311 30.322 68.2674 31.5261 69.3521 32.9957L72.5704 30.6203C71.0098 28.5059 68.8767 26.894 66.2571 25.7509L64.6574 29.4171ZM69.3521 32.9957C70.4117 34.4313 70.9453 36.0597 70.9453 37.952H74.9453C74.9453 35.2363 74.1561 32.7687 72.5704 30.6203L69.3521 32.9957ZM70.9453 37.952C70.9453 39.3653 70.6476 40.605 70.0793 41.7081L73.6352 43.5399C74.5176 41.827 74.9453 39.952 74.9453 37.952H70.9453ZM70.0576 41.7515C69.5193 42.8617 68.7516 43.7824 67.7305 44.5312L70.096 47.7568C71.6349 46.6282 72.8299 45.2023 73.6569 43.4965L70.0576 41.7515ZM67.7305 44.5312C66.6894 45.2947 65.4232 45.8763 63.8953 46.249L64.8432 50.135C66.814 49.6543 68.5771 48.8707 70.096 47.7568L67.7305 44.5312ZM64.055 50.1672C65.6162 50.4155 66.9361 50.9899 68.0595 51.875L70.535 48.733C68.8424 47.3995 66.877 46.5658 64.6835 46.2168L64.055 50.1672ZM68.1125 51.9153C69.2858 52.778 70.1804 53.8753 70.8093 55.2381L74.4412 53.5619C73.5341 51.5967 72.2101 49.9633 70.482 48.6927L68.1125 51.9153ZM70.8364 55.2944C71.5 56.6217 71.8413 58.0836 71.8413 59.712H75.8413C75.8413 57.5004 75.3718 55.421 74.4141 53.5056L70.8364 55.2944ZM71.8413 59.712C71.8413 61.9915 71.201 63.8126 69.9893 65.2935L73.0852 67.8265C74.9455 65.5527 75.8413 62.8085 75.8413 59.712H71.8413ZM69.972 65.315C68.7314 66.8746 66.9915 68.1339 64.661 69.0509L66.1255 72.7731C69.0003 71.6421 71.3565 70 73.1025 67.805L69.972 65.315ZM64.6505 69.055C62.3644 69.9695 59.7215 70.448 56.6893 70.448V74.448C60.1423 74.448 63.3021 73.9025 66.136 72.769L64.6505 69.055Z" fill="#323232"/>
</svg>
