<svg width="108" height="108" viewBox="0 0 108 108" fill="none" xmlns="http://www.w3.org/2000/svg">
<rect y="8" width="100" height="100" rx="24" fill="#FFD27C"/>
<rect x="9" y="1" width="98" height="98" rx="23" stroke="#323232" stroke-width="2"/>
<path d="M49.4973 80.64C46.2119 80.64 43.2466 79.936 40.6013 78.528C37.9986 77.0773 35.9933 75.136 34.5853 72.704L39.5133 67.584C40.7506 69.248 42.2439 70.5707 43.9933 71.552C45.7853 72.5333 47.6413 73.024 49.5613 73.024C51.0973 73.024 52.4626 72.704 53.6573 72.064C54.8519 71.424 55.7693 70.528 56.4093 69.376C57.0919 68.224 57.4333 66.9013 57.4333 65.408C57.4333 63.9573 57.1133 62.6773 56.4733 61.568C55.8333 60.416 54.9586 59.5413 53.8493 58.944C52.7399 58.304 51.4813 57.984 50.0733 57.984C48.7079 57.984 47.4066 58.304 46.1693 58.944C44.9319 59.5413 43.9506 60.416 43.2253 61.568H35.7373L40.9853 34.56H63.3853V42.368H47.1933L45.4013 52.544C45.9133 51.9893 46.6599 51.5413 47.6413 51.2C48.6226 50.816 49.8386 50.624 51.2893 50.624C54.1479 50.624 56.7079 51.264 58.9693 52.544C61.2306 53.7813 63.0013 55.488 64.2812 57.664C65.6039 59.84 66.2653 62.3573 66.2653 65.216C66.2653 68.2453 65.5186 70.9333 64.0253 73.28C62.5746 75.584 60.5906 77.3973 58.0733 78.72C55.5986 80 52.7399 80.64 49.4973 80.64Z" fill="white"/>
<path d="M48.6013 70.528L47.6275 72.275L47.6445 72.2844L47.6616 72.2935L48.6013 70.528ZM42.5853 64.704L41.1443 63.3171L40.0996 64.4024L40.8544 65.7061L42.5853 64.704ZM47.5133 59.584L49.1182 58.3906L47.7095 56.4961L46.0723 58.1971L47.5133 59.584ZM51.9933 63.552L51.0147 65.2963L51.0237 65.3013L51.0326 65.3062L51.9933 63.552ZM61.6573 64.064L62.6017 65.827L62.6017 65.827L61.6573 64.064ZM64.4093 61.376L62.6887 60.3564L62.6745 60.3804L62.6609 60.4047L64.4093 61.376ZM64.4733 53.568L62.7249 54.5393L62.7328 54.5534L62.7409 54.5674L64.4733 53.568ZM61.8493 50.944L60.8498 52.6764L60.8752 52.691L60.9011 52.7049L61.8493 50.944ZM54.1693 50.944L55.0387 52.7451L55.0636 52.7331L55.0881 52.7204L54.1693 50.944ZM51.2253 53.568V55.568H52.3294L52.9177 54.6336L51.2253 53.568ZM43.7373 53.568L41.774 53.1865L41.3112 55.568H43.7373V53.568ZM48.9853 26.56V24.56H47.3365L47.022 26.1785L48.9853 26.56ZM71.3853 26.56H73.3853V24.56H71.3853V26.56ZM71.3853 34.368V36.368H73.3853V34.368H71.3853ZM55.1933 34.368V32.368H53.5147L53.2236 34.0211L55.1933 34.368ZM53.4013 44.544L51.4316 44.1971L50.25 50.9064L54.8709 45.9006L53.4013 44.544ZM55.6413 43.2L56.2983 45.089L56.3344 45.0764L56.37 45.0625L55.6413 43.2ZM66.9693 44.544L65.9841 46.2845L65.9966 46.2916L66.0092 46.2985L66.9693 44.544ZM72.2812 49.664L70.5574 50.678L70.5647 50.6905L70.5722 50.7028L72.2812 49.664ZM72.0253 65.28L70.3379 64.2062L70.3328 64.2144L72.0253 65.28ZM66.0733 70.72L66.9921 72.4965L67.0035 72.4905L66.0733 70.72ZM57.4973 70.64C54.5074 70.64 51.8698 70.0021 49.5409 68.7625L47.6616 72.2935C50.6234 73.8699 53.9164 74.64 57.4973 74.64V70.64ZM49.575 68.781C47.2674 67.4949 45.5325 65.8029 44.3161 63.7019L40.8544 65.7061C42.454 68.4691 44.7297 70.6598 47.6275 72.275L49.575 68.781ZM44.0262 66.0909L48.9542 60.9709L46.0723 58.1971L41.1443 63.3171L44.0262 66.0909ZM45.9083 60.7774C47.3076 62.6592 49.0118 64.1727 51.0147 65.2963L52.9718 61.8077C51.476 60.9686 50.1936 59.8368 49.1182 58.3906L45.9083 60.7774ZM51.0326 65.3062C53.0996 66.4381 55.2839 67.024 57.5613 67.024V63.024C55.9986 63.024 54.4709 62.6285 52.9539 61.7978L51.0326 65.3062ZM57.5613 67.024C59.3823 67.024 61.0797 66.6423 62.6017 65.827L60.7128 62.301C59.8454 62.7657 58.8122 63.024 57.5613 63.024V67.024ZM62.6017 65.827C64.1246 65.0111 65.3256 63.8448 66.1576 62.3473L62.6609 60.4047C62.2129 61.2112 61.5793 61.8369 60.7128 62.301L62.6017 65.827ZM66.1298 62.3956C67.0159 60.9004 67.4333 59.2177 67.4333 57.408H63.4333C63.4333 58.5849 63.168 59.5476 62.6887 60.3564L66.1298 62.3956ZM67.4333 57.408C67.4333 55.6539 67.0432 54.0204 66.2056 52.5686L62.7409 54.5674C63.1833 55.3343 63.4333 56.2608 63.4333 57.408H67.4333ZM66.2216 52.5967C65.4048 51.1266 64.2594 49.9703 62.7975 49.1831L60.9011 52.7049C61.6578 53.1124 62.2617 53.7054 62.7249 54.5393L66.2216 52.5967ZM62.8487 49.2116C61.4059 48.3792 59.7963 47.984 58.0733 47.984V51.984C59.1662 51.984 60.074 52.2288 60.8498 52.6764L62.8487 49.2116ZM58.0733 47.984C56.3815 47.984 54.7658 48.3838 53.2504 49.1676L55.0881 52.7204C56.0474 52.2242 57.0343 51.984 58.0733 51.984V47.984ZM53.2998 49.1429C51.7279 49.9017 50.46 51.0298 49.5328 52.5024L52.9177 54.6336C53.4412 53.8022 54.136 53.1809 55.0387 52.7451L53.2998 49.1429ZM51.2253 51.568H43.7373V55.568H51.2253V51.568ZM45.7005 53.9495L50.9485 26.9415L47.022 26.1785L41.774 53.1865L45.7005 53.9495ZM48.9853 28.56H71.3853V24.56H48.9853V28.56ZM69.3853 26.56V34.368H73.3853V26.56H69.3853ZM71.3853 32.368H55.1933V36.368H71.3853V32.368ZM53.2236 34.0211L51.4316 44.1971L55.3709 44.8909L57.1629 34.7149L53.2236 34.0211ZM54.8709 45.9006C55.0918 45.6612 55.5164 45.3609 56.2983 45.089L54.9842 41.311C53.8034 41.7217 52.7347 42.3175 51.9316 43.1874L54.8709 45.9006ZM56.37 45.0625C57.0496 44.7966 58.0004 44.624 59.2893 44.624V40.624C57.6767 40.624 56.1956 40.8354 54.9125 41.3375L56.37 45.0625ZM59.2893 44.624C61.8381 44.624 64.0526 45.1913 65.9841 46.2845L67.9544 42.8035C65.3632 41.3367 62.4578 40.624 59.2893 40.624V44.624ZM66.0092 46.2985C67.9608 47.3664 69.4645 48.8201 70.5574 50.678L74.0051 48.65C72.538 46.1559 70.5004 44.1963 67.9293 42.7895L66.0092 46.2985ZM70.5722 50.7028C71.682 52.5286 72.2653 54.6776 72.2653 57.216H76.2653C76.2653 54.037 75.5259 51.1514 73.9903 48.6252L70.5722 50.7028ZM72.2653 57.216C72.2653 59.9002 71.6089 62.209 70.3379 64.2062L73.7126 66.3538C75.4282 63.6577 76.2653 60.5905 76.2653 57.216H72.2653ZM70.3328 64.2144C69.0782 66.2069 67.3631 67.783 65.143 68.9495L67.0035 72.4905C69.8181 71.0116 72.071 68.9611 73.7177 66.3456L70.3328 64.2144ZM65.1544 68.9436C63.007 70.0543 60.4726 70.64 57.4973 70.64V74.64C61.0072 74.64 64.1902 73.9457 66.9921 72.4964L65.1544 68.9436Z" fill="#323232"/>
</svg>
