<svg width="243" height="181" viewBox="0 0 243 181" fill="none" xmlns="http://www.w3.org/2000/svg">
<rect x="198.708" y="15.5249" width="31.84" height="31.2814" rx="2.79299" transform="rotate(-7.3286 198.708 15.5249)" fill="#C6C5C8"/>
<path d="M197.573 17.6106L197.573 17.6105C197.679 17.5677 197.782 17.5246 197.892 17.4789C197.958 17.4511 198.027 17.4223 198.1 17.392C198.049 16.9927 197.996 16.5937 197.944 16.1949C197.819 15.2558 197.696 14.3178 197.587 13.3791C197.098 9.13195 198.575 5.68749 201.968 3.0911L201.968 3.09109C203.4 1.99509 205.05 1.33386 206.853 1.13571L197.573 17.6106ZM197.573 17.6106C194.552 18.8459 192.06 21.964 192.624 26.0233L192.624 26.0233C193.152 29.8224 193.637 33.6251 194.122 37.4286C194.508 40.464 194.895 43.4999 195.305 46.5346L195.305 46.5347C195.432 47.477 195.742 48.4463 196.193 49.283M197.573 17.6106L196.193 49.283M196.193 49.283C197.671 52.0282 201 53.6257 204.214 53.2185C210.813 52.3826 217.41 51.5284 224.005 50.6745L225.416 50.4918L196.193 49.283ZM223.538 14.4897C226.979 15.2259 229.293 17.7343 229.74 21.2076C229.999 23.2206 230.254 25.2341 230.509 27.2474C231.116 32.0374 231.723 36.827 232.381 41.6095C232.968 45.8774 230.059 49.239 226.59 50.2285C226.209 50.3385 225.816 50.4403 225.416 50.4918L223.538 14.4897ZM223.538 14.4897C223.238 14.4254 222.932 14.3756 222.623 14.3254C222.509 14.3068 222.394 14.2882 222.279 14.2687C222.227 13.8581 222.175 13.4495 222.124 13.0425C222.007 12.1179 221.892 11.2015 221.766 10.2882C221.024 4.90071 216.996 1.03525 211.602 0.726037L211.602 0.726035C210.443 0.659916 209.264 0.819534 208.101 0.977061C207.683 1.03375 207.266 1.09017 206.853 1.1357L223.538 14.4897Z" stroke="#323232" stroke-width="0.223439"/>
<path d="M211.614 0.537867L211.614 0.537871C217.102 0.852456 221.2 4.78962 221.954 10.2624C222.08 11.1777 222.196 12.0955 222.312 13.0203C222.358 13.381 222.403 13.7427 222.45 14.1058C222.516 14.1167 222.582 14.1276 222.649 14.1384C222.96 14.1891 223.274 14.2401 223.579 14.3054C227.098 15.0582 229.471 17.6289 229.928 21.1834C230.187 23.1972 230.442 25.2111 230.698 27.2247C231.304 32.0142 231.911 36.8021 232.569 41.5837C233.171 45.9604 230.185 49.3973 226.643 50.4094L226.643 50.4094C226.26 50.5184 225.855 50.6235 225.443 50.6782L225.442 50.6783L224.03 50.8612C217.434 51.7152 210.837 52.5694 204.24 53.4051C200.955 53.8213 197.547 52.1916 196.029 49.3721C195.567 48.5149 195.25 47.5238 195.119 46.5597L195.119 46.5597C194.706 43.4977 194.316 40.4391 193.926 37.382C193.444 33.6034 192.963 29.827 192.437 26.0492L192.437 26.0492C191.86 21.8908 194.416 18.6979 197.502 17.4363L197.503 17.4361C197.63 17.3842 197.757 17.3316 197.895 17.274C197.85 16.9228 197.803 16.5715 197.757 16.2203C197.633 15.2805 197.509 14.3408 197.4 13.4006C196.903 9.08725 198.409 5.57646 201.855 2.94136C203.315 1.82446 204.995 1.15047 206.834 0.948366L211.614 0.537867ZM211.614 0.537867C210.435 0.470628 209.23 0.633945 208.061 0.792235M211.614 0.537867L208.061 0.792235M210.075 17.3033L210.071 17.2689C209.647 17.3233 209.223 17.3775 208.799 17.4317C207.578 17.5877 206.359 17.7435 205.14 17.9046C204.585 17.9781 204.032 18.0472 203.479 18.1161C202.082 18.2905 200.693 18.4638 199.314 18.7053L199.314 18.7053C196.049 19.2747 193.748 22.3418 194.15 25.5455L194.15 25.5456C194.921 31.6961 195.719 37.8433 196.517 43.9911C196.621 44.793 196.725 45.5949 196.829 46.3969C197.003 47.7404 197.55 48.9017 198.54 49.8327L198.54 49.8328C200.159 51.3578 202.098 51.9312 204.287 51.6586C210.253 50.9128 216.216 50.1387 222.18 49.3646C222.926 49.2677 223.672 49.1709 224.418 49.0741L224.418 49.0741C225.002 48.9989 225.587 48.8851 226.16 48.7412L210.075 17.3033ZM210.075 17.3033L210.373 17.265M210.075 17.3033L210.373 17.265M210.373 17.265C211.472 17.1236 212.57 16.9771 213.666 16.8306C216.24 16.4869 218.809 16.1438 221.388 15.8695L221.388 15.8695C224.168 15.5728 226.903 17.3252 227.852 19.8638C228.017 20.3086 228.121 20.791 228.184 21.2755L228.184 21.2758M210.373 17.265L228.184 21.2758M228.184 21.2758C229.077 28.1504 229.961 35.0261 230.841 41.9026C231.241 45.0213 229.228 47.9646 226.16 48.7411L228.184 21.2758ZM220.131 9.95632L220.131 9.95624C219.502 5.82812 215.933 2.50013 211.766 2.29453C210.397 2.22752 209.004 2.40874 207.596 2.59205C207.427 2.61405 207.257 2.63607 207.088 2.6577C202.143 3.2892 198.574 7.80694 199.095 12.7344L199.095 12.7344C199.2 13.7236 199.333 14.7075 199.466 15.6992C199.515 16.0635 199.565 16.4288 199.613 16.7959L199.617 16.7953L199.625 16.7943L199.634 16.7932L199.642 16.7921L199.65 16.7911L199.659 16.79L199.667 16.7889L199.675 16.7878L199.684 16.7868L199.692 16.7857L199.7 16.7846L199.709 16.7835L199.717 16.7825L199.725 16.7814L199.734 16.7803L199.742 16.7793L199.75 16.7782L199.759 16.7771L199.767 16.776L199.775 16.775L199.784 16.7739L199.792 16.7728L199.8 16.7718L199.809 16.7707L199.817 16.7696L199.825 16.7686L199.834 16.7675L199.842 16.7664L199.85 16.7653L199.859 16.7643L199.867 16.7632L199.875 16.7621L199.883 16.7611L199.892 16.76L199.9 16.7589L199.908 16.7579L199.917 16.7568L199.925 16.7557L199.933 16.7547L199.942 16.7536L199.95 16.7525L199.958 16.7515L199.967 16.7504L199.975 16.7493L199.983 16.7483L199.991 16.7472L200 16.7461L200.008 16.7451L200.016 16.744L200.025 16.7429L200.033 16.7419L200.041 16.7408L200.049 16.7397L200.058 16.7387L200.066 16.7376L200.074 16.7365L200.083 16.7355L200.091 16.7344L200.099 16.7333L200.107 16.7323L200.116 16.7312L200.124 16.7301L200.132 16.7291L200.141 16.728L200.149 16.7269L200.157 16.7259L200.165 16.7248L200.174 16.7238L200.182 16.7227L200.19 16.7216L200.199 16.7206L200.207 16.7195L200.215 16.7184L200.223 16.7174L200.232 16.7163L200.24 16.7152L200.248 16.7142L200.256 16.7131L200.265 16.7121L200.273 16.711L200.281 16.7099L200.289 16.7089L200.298 16.7078L200.306 16.7067L200.314 16.7057L200.322 16.7046L200.331 16.7036L200.339 16.7025L200.347 16.7014L200.355 16.7004L200.364 16.6993L200.372 16.6982L200.38 16.6972L200.388 16.6961L200.397 16.6951L200.405 16.694L200.413 16.6929L200.421 16.6919L200.43 16.6908L200.438 16.6898L200.446 16.6887L200.454 16.6876L200.463 16.6866L200.471 16.6855L200.479 16.6845L200.487 16.6834L200.496 16.6823L200.504 16.6813L200.512 16.6802L200.52 16.6792L200.529 16.6781L200.537 16.677L200.545 16.676L200.553 16.6749L200.562 16.6739L200.57 16.6728L200.578 16.6717L200.586 16.6707L200.595 16.6696L200.603 16.6686L200.611 16.6675L200.619 16.6665L200.627 16.6654L200.636 16.6643L200.644 16.6633L200.652 16.6622L200.66 16.6612L200.669 16.6601L200.677 16.659L200.685 16.658L200.693 16.6569L200.701 16.6559L200.71 16.6548L200.718 16.6538L200.726 16.6527L200.734 16.6516L200.743 16.6506L200.751 16.6495L200.759 16.6485L200.767 16.6474L200.775 16.6464L200.784 16.6453L200.792 16.6442L200.8 16.6432L200.808 16.6421L200.817 16.6411L200.825 16.64L200.833 16.639L200.841 16.6379L200.849 16.6369L200.858 16.6358L200.866 16.6347L200.874 16.6337L200.882 16.6326L200.89 16.6316L200.899 16.6305L200.907 16.6295L200.915 16.6284L200.923 16.6273L200.931 16.6263L200.94 16.6252L200.948 16.6242L200.956 16.6231L200.964 16.6221L200.972 16.621L200.981 16.62L200.989 16.6189L200.997 16.6179L201.005 16.6168L201.013 16.6157L201.022 16.6147L201.03 16.6136L201.038 16.6126L201.046 16.6115L201.054 16.6105L201.063 16.6094L201.071 16.6084L201.079 16.6073L201.087 16.6063L201.095 16.6052L201.104 16.6041L201.112 16.6031L201.12 16.602L201.128 16.601L201.136 16.5999L201.145 16.5989L201.153 16.5978L201.161 16.5968L201.169 16.5957L201.177 16.5947L201.186 16.5936L201.194 16.5926L201.202 16.5915L201.21 16.5904L201.218 16.5894L201.227 16.5883L201.235 16.5873L201.243 16.5862L201.251 16.5852L201.259 16.5841L201.267 16.5831L201.276 16.582L201.284 16.581L201.292 16.5799L201.3 16.5789L201.308 16.5778L201.317 16.5768L201.325 16.5757L201.333 16.5747L201.341 16.5736L201.349 16.5725L201.358 16.5715L201.366 16.5704L201.374 16.5694L201.382 16.5683L201.39 16.5673L201.398 16.5662L201.407 16.5652L201.415 16.5641L201.423 16.5631L201.431 16.562L201.439 16.561L201.448 16.5599L201.456 16.5589L201.464 16.5578L201.472 16.5568L201.48 16.5557L201.488 16.5547L201.497 16.5536L201.505 16.5526L201.513 16.5515L201.521 16.5504L201.529 16.5494L201.538 16.5483L201.546 16.5473L201.554 16.5462L201.562 16.5452L201.57 16.5441L201.578 16.5431L201.587 16.542L201.595 16.541L201.603 16.5399L201.611 16.5389L201.619 16.5378L201.627 16.5368L201.636 16.5357L201.644 16.5347L201.652 16.5336L201.66 16.5326L201.668 16.5315L201.677 16.5305L201.685 16.5294L201.693 16.5284L201.701 16.5273L201.709 16.5263L201.717 16.5252L201.726 16.5242L201.734 16.5231L201.742 16.5221L201.75 16.521L201.758 16.52L201.766 16.5189L201.775 16.5178L201.783 16.5168L201.791 16.5157L201.799 16.5147L201.807 16.5136L201.816 16.5126L201.824 16.5115L201.832 16.5105L201.84 16.5094L201.848 16.5084L201.856 16.5073L201.865 16.5063L201.873 16.5052L201.881 16.5042L201.889 16.5031L201.897 16.5021L201.905 16.501L201.914 16.5L201.922 16.4989L201.93 16.4979L201.938 16.4968L201.946 16.4958L201.954 16.4947L201.963 16.4937L201.971 16.4926L201.979 16.4916L201.987 16.4905L201.995 16.4895L202.004 16.4884L202.012 16.4874L202.02 16.4863L202.028 16.4853L202.036 16.4842L202.044 16.4832L202.053 16.4821L202.061 16.4811L202.069 16.48L202.077 16.479L202.085 16.4779L202.093 16.4768L202.102 16.4758L202.11 16.4747L202.118 16.4737L202.126 16.4726L202.134 16.4716L202.143 16.4705L202.151 16.4695L202.159 16.4684L202.167 16.4674L202.175 16.4663L202.183 16.4653L202.192 16.4642L202.2 16.4632L202.208 16.4621L202.216 16.4611L202.224 16.46L202.232 16.459L202.241 16.4579L202.249 16.4569L202.257 16.4558L202.265 16.4548L202.273 16.4537L202.282 16.4527L202.29 16.4516L202.298 16.4506L202.306 16.4495L202.314 16.4485L202.322 16.4474L202.331 16.4463L202.339 16.4453L202.347 16.4442L202.355 16.4432L202.363 16.4421L202.372 16.4411L202.38 16.44L202.388 16.439L202.396 16.4379L202.404 16.4369L202.412 16.4358L202.421 16.4348L202.429 16.4337L202.437 16.4327L202.445 16.4316L202.453 16.4306L202.462 16.4295L202.47 16.4285L202.478 16.4274L202.486 16.4264L202.494 16.4253L202.502 16.4242L202.511 16.4232L202.519 16.4221L202.527 16.4211L202.535 16.42L202.543 16.419L202.552 16.4179L202.56 16.4169L202.568 16.4158L202.576 16.4148L202.584 16.4137L202.593 16.4127L202.601 16.4116L202.609 16.4106L202.617 16.4095L202.625 16.4084L202.634 16.4074L202.642 16.4063L202.65 16.4053L202.658 16.4042L202.666 16.4032L202.674 16.4021L202.683 16.4011L202.691 16.4L202.699 16.399L202.707 16.3979L202.715 16.3969L202.724 16.3958L202.732 16.3947L202.74 16.3937L202.748 16.3926L202.756 16.3916L202.765 16.3905L202.773 16.3895L202.781 16.3884L202.789 16.3874L202.797 16.3863L202.806 16.3853L202.814 16.3842L202.822 16.3831L202.83 16.3821L202.838 16.381L202.847 16.38L202.855 16.3789L202.863 16.3779L202.871 16.3768L202.879 16.3758L202.888 16.3747L202.896 16.3736L202.904 16.3726L202.912 16.3715L202.921 16.3705L202.929 16.3694L202.937 16.3684L202.945 16.3673L202.953 16.3663L202.962 16.3652L202.97 16.3641L202.978 16.3631L202.986 16.362L202.994 16.361L203.003 16.3599L203.011 16.3589L203.019 16.3578L203.027 16.3567L203.036 16.3557L203.044 16.3546L203.052 16.3536L203.06 16.3525L203.068 16.3515L203.077 16.3504L203.085 16.3493L203.093 16.3483L203.101 16.3472L203.109 16.3462L203.118 16.3451L203.126 16.3441L203.134 16.343L203.142 16.3419L203.151 16.3409L203.159 16.3398L203.167 16.3388L203.175 16.3377L203.184 16.3367L203.192 16.3356L203.2 16.3345L203.208 16.3335L203.216 16.3324L203.225 16.3314L203.232 16.3304C203.191 16.0105 203.149 15.6926 203.107 15.3762C202.987 14.463 202.868 13.5621 202.763 12.6609C202.438 9.85697 203.985 7.27867 206.677 6.51282L206.677 6.51281C207.789 6.19683 208.966 6.0881 210.1 5.98342C210.285 5.96636 210.469 5.94941 210.651 5.93169L220.131 9.95632ZM220.131 9.95632C220.284 10.959 220.407 11.9634 220.532 12.9875C220.578 13.3599 220.624 13.7349 220.672 14.1133M220.131 9.95632L220.672 14.1133M220.672 14.1133C219.448 14.2707 218.28 14.421 217.057 14.5795C217.041 14.4527 217.025 14.327 217.007 14.2045L220.672 14.1133ZM211.405 7.39423C210.355 7.36068 209.295 7.51295 208.243 7.66398C208.042 7.69283 207.841 7.72164 207.641 7.7491C205.627 8.02487 204.053 9.89177 204.186 11.9178L211.395 7.69407M211.405 7.39423L211.395 7.69407C211.395 7.69407 211.395 7.69407 211.395 7.69407M211.405 7.39423C213.199 7.45222 214.701 8.82633 215.022 10.5865L211.405 7.39423ZM211.395 7.69407C210.375 7.66145 209.344 7.80918 208.292 7.96008C208.089 7.98913 207.886 8.01829 207.681 8.04631L207.681 8.04632C205.818 8.30147 204.363 10.0347 204.485 11.8983L204.485 11.8984C204.551 12.911 204.688 13.9127 204.826 14.9264C204.881 15.324 204.935 15.7234 204.986 16.1261C208.403 15.6852 211.819 15.2458 215.279 14.8008C215.232 14.4211 215.189 14.0467 215.146 13.6763C215.026 12.6411 214.91 11.6378 214.727 10.6405L214.727 10.6403C214.43 9.01051 213.04 7.74728 211.395 7.69407ZM208.061 0.792235C207.647 0.848419 207.237 0.90397 206.834 0.948353L208.061 0.792235Z" fill="#323232" stroke="#323232" stroke-width="0.6"/>
<rect x="198.415" y="22.8047" width="25.3532" height="25.3532" rx="2.96878" transform="rotate(-7.3286 198.415 22.8047)" stroke="#323232" stroke-width="3"/>
<path d="M216.063 30.5177L216.063 30.5177C216.194 31.8032 215.694 32.8719 214.718 33.6798L214.718 33.6802C214.588 33.7876 214.55 33.8405 214.536 33.8777C214.526 33.9043 214.512 33.9654 214.565 34.1292C214.565 34.1294 214.565 34.1295 214.565 34.1297L214.28 34.2221L216.063 30.5177ZM216.063 30.5177C215.875 28.6761 214.337 27.4551 212.286 27.3032L216.063 30.5177ZM212.597 33.9373L212.597 33.9372C212.51 33.6565 212.49 33.3766 212.598 33.1156C212.706 32.855 212.921 32.667 213.192 32.523L213.192 32.5228C213.86 32.1687 214.25 31.6608 214.227 30.9242C214.207 30.2936 213.939 29.8144 213.519 29.5151C213.094 29.2124 212.483 29.0733 211.75 29.1925L211.75 29.1925C210.814 29.3441 210.084 30.0892 210.031 30.8211L210.031 30.8217C209.995 31.303 210.111 31.7079 210.348 32.0234C210.586 32.34 210.964 32.5903 211.494 32.7275C211.825 32.8125 212.088 32.9614 212.254 33.2124C212.416 33.4572 212.452 33.7502 212.438 34.0512C212.388 35.2231 212.351 36.3961 212.313 37.5814C212.303 37.8892 212.294 38.1978 212.284 38.5074L212.288 38.5069L212.292 38.5063L212.297 38.5057L212.301 38.5051L212.306 38.5045L212.31 38.504L212.315 38.5034L212.319 38.5028L212.324 38.5022L212.329 38.5016L212.333 38.5011L212.338 38.5005L212.342 38.4999L212.347 38.4993L212.351 38.4987L212.356 38.4982L212.36 38.4976L212.365 38.497L212.369 38.4964L212.374 38.4958L212.378 38.4953L212.383 38.4947L212.387 38.4941L212.392 38.4935L212.396 38.493L212.4 38.4924L212.405 38.4918L212.409 38.4912L212.414 38.4906L212.418 38.4901L212.423 38.4895L212.427 38.4889L212.432 38.4883L212.436 38.4878L212.441 38.4872L212.445 38.4866L212.45 38.486L212.454 38.4854L212.459 38.4849L212.463 38.4843L212.468 38.4837L212.472 38.4831L212.477 38.4826L212.481 38.482L212.486 38.4814L212.49 38.4808L212.495 38.4802L212.499 38.4797L212.504 38.4791L212.508 38.4785L212.513 38.4779L212.517 38.4774L212.522 38.4768L212.526 38.4762L212.531 38.4756L212.535 38.4751L212.54 38.4745L212.544 38.4739L212.549 38.4733L212.553 38.4728L212.558 38.4722L212.562 38.4716L212.566 38.471L212.571 38.4704L212.575 38.4699L212.58 38.4693L212.584 38.4687L212.589 38.4681L212.593 38.4676L212.598 38.467L212.602 38.4664L212.607 38.4658L212.611 38.4653L212.616 38.4647L212.62 38.4641L212.625 38.4635L212.629 38.463L212.634 38.4624L212.638 38.4618L212.643 38.4612L212.647 38.4607L212.652 38.4601L212.656 38.4595L212.66 38.4589L212.665 38.4584L212.669 38.4578L212.674 38.4572L212.678 38.4566L212.683 38.4561L212.687 38.4555L212.692 38.4549L212.696 38.4543L212.701 38.4538L212.705 38.4532L212.71 38.4526L212.714 38.452L212.719 38.4515L212.723 38.4509L212.728 38.4503L212.732 38.4497L212.736 38.4492L212.741 38.4486L212.745 38.448L212.75 38.4474L212.754 38.4469L212.759 38.4463L212.763 38.4457L212.768 38.4451L212.772 38.4446L212.777 38.444L212.781 38.4434L212.786 38.4429L212.79 38.4423L212.794 38.4417L212.799 38.4411L212.803 38.4406L212.808 38.44L212.812 38.4394L212.817 38.4388L212.821 38.4383L212.826 38.4377L212.83 38.4371L212.835 38.4365L212.839 38.436L212.844 38.4354L212.848 38.4348L212.853 38.4342L212.857 38.4337L212.861 38.4331L212.866 38.4325L212.87 38.4319L212.875 38.4314L212.879 38.4308L212.884 38.4302L212.888 38.4296L212.893 38.4291L212.897 38.4285L212.902 38.4279L212.906 38.4274L212.911 38.4268L212.915 38.4262L212.919 38.4256L212.924 38.4251L212.928 38.4245L212.933 38.4239L212.937 38.4233L212.942 38.4228L212.946 38.4222L212.951 38.4216L212.955 38.421L212.96 38.4205L212.964 38.4199L212.969 38.4193L212.973 38.4187L212.977 38.4182L212.982 38.4176L212.986 38.417L212.991 38.4165L212.995 38.4159L213 38.4153L213.004 38.4147L213.009 38.4142L213.013 38.4136L213.018 38.413L213.022 38.4124L213.027 38.4119L213.031 38.4113L213.035 38.4107L213.04 38.4101L213.044 38.4096L213.049 38.409L213.053 38.4084L213.058 38.4078L213.062 38.4073L213.067 38.4067L213.071 38.4061L213.076 38.4055L213.08 38.405L213.085 38.4044L213.089 38.4038L213.093 38.4033L213.098 38.4027L213.102 38.4021L213.107 38.4015L213.111 38.401L213.116 38.4004L213.12 38.3998L213.125 38.3992L213.129 38.3987L213.134 38.3981L213.138 38.3975L213.143 38.3969L213.147 38.3964L213.151 38.3958L213.156 38.3952L213.16 38.3946L213.165 38.3941L213.169 38.3935L213.174 38.3929L213.178 38.3923L213.183 38.3918L213.187 38.3912L213.192 38.3906L213.196 38.39L213.201 38.3895L213.205 38.3889L213.21 38.3883L213.214 38.3877L213.218 38.3872L213.223 38.3866L213.227 38.386L213.232 38.3854L213.236 38.3849L213.241 38.3843L213.245 38.3837L213.25 38.3831L213.254 38.3826L213.259 38.382L213.263 38.3814L213.268 38.3808L213.272 38.3803L213.277 38.3797L213.281 38.3791L213.286 38.3785L213.29 38.378L213.294 38.3774L213.299 38.3768L213.303 38.3762L213.308 38.3757L213.312 38.3751L213.317 38.3745L213.321 38.3739L213.326 38.3734L213.33 38.3728L213.335 38.3722L213.339 38.3716L213.344 38.3711L213.348 38.3705L213.353 38.3699L213.357 38.3693L213.362 38.3688L213.366 38.3682L213.371 38.3676L213.375 38.367L213.38 38.3665L213.384 38.3659L213.388 38.3653L213.393 38.3647L213.397 38.3642L213.402 38.3636L213.406 38.363L213.411 38.3624L213.415 38.3619L213.42 38.3613L213.424 38.3607L213.429 38.3601L213.433 38.3595L213.438 38.359L213.442 38.3584L213.478 38.3538L213.483 38.3532L213.487 38.3526L213.492 38.352L213.496 38.3515L213.501 38.3509L213.505 38.3503L213.51 38.3497L213.514 38.3492L213.519 38.3486L213.523 38.348L213.528 38.3474L213.532 38.3468L213.537 38.3463L213.541 38.3457L213.546 38.3451L213.55 38.3445L213.555 38.344L213.559 38.3434L213.564 38.3428L213.568 38.3422L213.573 38.3416L213.577 38.3411L213.582 38.3405L213.586 38.3399L213.591 38.3393L213.595 38.3387L213.6 38.3382L213.604 38.3376L213.609 38.337L213.613 38.3364L213.618 38.3358L213.622 38.3353L213.627 38.3347L213.631 38.3341L213.636 38.3335L213.64 38.333L213.645 38.3324L213.649 38.3318L213.654 38.3312L213.658 38.3306L213.663 38.3301L213.667 38.3295L213.672 38.3289L213.676 38.3283L213.681 38.3277L213.685 38.3271L213.69 38.3266L213.694 38.326L213.699 38.3254L213.703 38.3248L213.708 38.3242L213.712 38.3237L213.717 38.3231L213.721 38.3225L213.726 38.3219L213.73 38.3213L213.735 38.3208L213.739 38.3202L213.744 38.3196L213.748 38.319L213.753 38.3184L213.758 38.3178L213.762 38.3173L213.767 38.3167L213.771 38.3161L213.776 38.3155L213.78 38.3149L213.785 38.3144L213.789 38.3138L213.794 38.3132L213.798 38.3126L213.803 38.312L213.807 38.3114L213.812 38.3109L213.816 38.3103L213.821 38.3097L213.825 38.3091L213.83 38.3085L213.835 38.3079L213.839 38.3074L213.844 38.3068L213.848 38.3062L213.853 38.3056L213.857 38.305L213.862 38.3044L213.866 38.3038L213.871 38.3033L213.875 38.3027L213.88 38.3021L213.885 38.3015L213.889 38.3009L213.894 38.3003L213.895 38.3002C213.852 38.1528 213.81 38.0069 213.768 37.862C213.613 37.327 213.463 36.8073 213.309 36.2874L212.597 33.9373ZM212.597 33.9373C212.839 34.7196 213.076 35.5024 213.309 36.2874L212.597 33.9373ZM211.62 40.4147L211.621 40.4146L212.285 27.3032C210.546 27.1738 208.744 28.4828 208.304 30.1861L208.304 30.1863C207.862 31.9014 208.701 33.4964 210.434 34.2949L210.434 34.2949C210.562 34.3539 210.587 34.3895 210.592 34.3974L210.592 34.3975C210.594 34.4002 210.611 34.4292 210.591 34.548L210.591 34.548L210.59 34.5494C210.55 34.7917 210.547 35.0473 210.544 35.2744C210.543 35.3409 210.542 35.4049 210.54 35.4654C210.531 35.7581 210.522 36.0511 210.513 36.3441C210.481 37.3383 210.45 38.3344 210.428 39.3298L210.428 39.3299C210.421 39.6701 210.473 40.0021 210.713 40.2184C210.951 40.4337 211.286 40.4526 211.62 40.4147Z" fill="#323232" stroke="#323232" stroke-width="0.6"/>
<circle cx="32.7777" cy="118.97" r="23.2104" transform="rotate(8.48926 32.7777 118.97)" fill="#FF756C"/>
<path d="M21.6032 118.941L21.6032 118.941C21.0879 118.532 20.5725 118.122 20.0556 117.711C18.5511 116.515 17.0334 115.309 15.4674 114.065C15.6178 113.997 15.7411 113.941 15.8708 113.891L15.8708 113.891L15.8721 113.89C17.0511 113.425 18.2303 112.961 19.4098 112.497L19.4101 112.497L19.4105 112.497C20.5897 112.033 21.7689 111.569 22.9478 111.104C23.0041 111.082 23.0651 111.062 23.1344 111.039L23.1379 111.038C23.204 111.016 23.2775 110.992 23.3489 110.965C23.4893 110.91 23.6587 110.83 23.7797 110.685L23.7808 110.683C23.8911 110.55 24.0065 110.366 24.0839 110.182C24.1226 110.09 24.155 109.99 24.1699 109.891C24.1843 109.794 24.1853 109.677 24.1382 109.566C24.0523 109.362 23.873 109.214 23.7068 109.11C23.5344 109.001 23.3396 108.918 23.175 108.858L23.175 108.858L23.1729 108.858C22.9964 108.795 22.8134 108.853 22.7013 108.895C22.6376 108.919 22.5744 108.947 22.5195 108.972L22.5088 108.977C22.4558 109.001 22.4112 109.021 22.3698 109.037L22.3694 109.037C19.3627 110.217 16.3575 111.402 13.354 112.589L13.3538 112.589C13.0536 112.708 12.8053 112.843 12.6217 112.999C12.4366 113.157 12.3047 113.348 12.2696 113.576C12.2345 113.803 12.3029 114.025 12.4326 114.23C12.5611 114.433 12.7579 114.634 13.0086 114.834L13.0087 114.834C14.6162 116.116 16.225 117.397 17.834 118.677C18.7329 119.392 19.6319 120.108 20.5307 120.823C20.5308 120.824 20.5309 120.824 20.531 120.824L20.6467 120.916L20.7621 121.009C20.7622 121.009 20.7623 121.009 20.7624 121.009C20.9935 121.195 21.2651 121.358 21.56 121.385C21.8767 121.415 22.1718 121.286 22.4221 120.99L22.4225 120.989C22.6747 120.69 22.7534 120.375 22.6622 120.067C22.5778 119.782 22.3602 119.55 22.1284 119.363C21.9541 119.222 21.7789 119.081 21.6032 118.941Z" fill="#323232" stroke="#323232" stroke-width="0.5"/>
<path d="M35.7707 110.771L35.7707 110.771C35.8733 110.821 35.9606 110.887 36.0339 110.947C36.0666 110.973 36.0987 111.001 36.1283 111.026C36.1319 111.029 36.1355 111.033 36.1391 111.036C36.1725 111.064 36.203 111.09 36.2334 111.114L36.0775 111.31M35.7707 110.771L43.7642 117.099C41.6434 115.41 39.5195 113.724 37.3964 112.038C37.0085 111.73 36.6208 111.422 36.233 111.114L36.0775 111.31M35.7707 110.771L35.7694 110.771L35.7707 110.771ZM36.0775 111.31C36.0396 111.28 36.0026 111.248 35.9655 111.216C35.8688 111.133 35.7722 111.05 35.6608 110.996L37.2408 112.234C36.853 111.926 36.4653 111.618 36.0775 111.31ZM43.4476 119.397L43.4475 119.397C42.0568 119.947 40.6668 120.493 39.2773 121.038C37.6373 121.682 35.9979 122.326 34.3582 122.976L34.2662 122.743L34.3586 122.976C34.0755 123.088 33.7452 123.195 33.4357 123.154C33.2733 123.132 33.1164 123.07 32.9788 122.951C32.8432 122.835 32.7388 122.674 32.6615 122.474L32.6614 122.473C32.5817 122.267 32.552 122.073 32.5798 121.893C32.6079 121.71 32.6922 121.561 32.8046 121.442C33.0153 121.218 33.3397 121.087 33.6022 120.984L33.6026 120.984C35.5179 120.233 37.4317 119.475 39.3455 118.717C39.8808 118.505 40.4162 118.293 40.9515 118.081L40.9521 118.081C41.079 118.031 41.2054 117.979 41.3542 117.916C39.1996 116.199 37.1491 114.565 35.0986 112.931C35.0599 112.901 35.0141 112.87 34.9593 112.834C34.9484 112.827 34.9369 112.82 34.9251 112.812C34.8811 112.784 34.8322 112.753 34.7866 112.721C34.6775 112.645 34.5286 112.528 34.4605 112.353M43.4476 119.397L34.3346 111.12C34.2485 111.328 34.2565 111.563 34.2906 111.767C34.3257 111.975 34.394 112.182 34.4605 112.353M43.4476 119.397C43.7559 119.275 44.0102 119.138 44.197 118.978M43.4476 119.397L44.197 118.978M34.4605 112.353C34.4605 112.353 34.4605 112.353 34.4605 112.353L34.6936 112.263L34.4606 112.353C34.4606 112.353 34.4606 112.353 34.4605 112.353ZM44.197 118.978C44.3857 118.817 44.5188 118.622 44.5502 118.389M44.197 118.978L44.5502 118.389M44.5502 118.389C44.5815 118.156 44.5058 117.931 44.3689 117.722M44.5502 118.389L44.3689 117.722M44.3689 117.722C44.233 117.515 44.0268 117.308 43.7642 117.099L44.3689 117.722Z" fill="#323232" stroke="#323232" stroke-width="0.5"/>
<path d="M25.744 123.351L25.744 123.351C25.2759 123.297 24.9095 123.113 24.7365 122.764C24.5689 122.426 24.6256 122.014 24.8006 121.602L24.8006 121.602C25.254 120.534 25.7176 119.472 26.1805 118.41C26.2419 118.27 26.3033 118.129 26.3647 117.988L26.5939 118.088M25.744 123.351L31.7282 109.175C31.6396 108.998 31.1443 108.846 30.9593 108.937M25.744 123.351L25.748 123.351C26.0655 123.383 26.2924 123.221 26.4493 123.023C26.598 122.834 26.7089 122.584 26.8039 122.367L26.8041 122.367C28.0189 119.576 29.2359 116.784 30.4527 113.994L30.4528 113.994C30.5915 113.675 30.7325 113.356 30.8739 113.036C31.2735 112.132 31.6754 111.222 32.0348 110.299L32.0351 110.298C32.1098 110.104 32.1288 109.878 32.1122 109.668C32.0957 109.457 32.0417 109.241 31.9515 109.062L25.744 123.351ZM26.5939 118.088L26.3646 117.988C26.5671 117.523 26.7694 117.058 26.9717 116.592C27.9835 114.265 28.9958 111.936 30.0276 109.617L30.0277 109.617C30.1836 109.268 30.4868 108.891 30.8489 108.713C30.849 108.713 30.849 108.713 30.8491 108.713L30.9593 108.937M26.5939 118.088C26.5325 118.229 26.4711 118.37 26.4097 118.51C25.9467 119.572 25.4836 120.633 25.0308 121.7C24.7042 122.469 24.9227 123.004 25.7728 123.103L30.9593 108.937M26.5939 118.088C26.7964 117.623 26.9987 117.157 27.2011 116.692C28.2129 114.364 29.2247 112.037 30.256 109.719C30.3953 109.407 30.6635 109.082 30.9593 108.937" fill="#323232" stroke="#323232" stroke-width="0.5"/>
<circle cx="29.0969" cy="115.412" r="23.4958" transform="rotate(8.48926 29.0969 115.412)" stroke="#323232" stroke-width="3"/>
<path d="M4 163C4 156.925 8.92487 152 15 152H40.3846L40.8011 152.692C44.6154 159.035 44.6154 166.965 40.8011 173.308L40.3846 174H15C8.92486 174 4 169.075 4 163V163Z" fill="#323232"/>
<path d="M40 152H78.0769L78.2952 152.347C82.3931 158.858 82.3931 167.142 78.2952 173.653L78.0769 174H40L40.2183 173.653C44.3161 167.142 44.3161 158.858 40.2183 152.347L40 152Z" fill="#767676"/>
<path d="M78 152H116.077L116.295 152.347C120.393 158.858 120.393 167.142 116.295 173.653L116.077 174H78L78.2183 173.653C82.3161 167.142 82.3161 158.858 78.2183 152.347L78 152Z" fill="#323232"/>
<path d="M116 152H153.231L153.55 152.518C157.505 158.946 157.505 167.054 153.55 173.482L153.231 174H116L116.319 173.482C120.275 167.054 120.275 158.946 116.319 152.518L116 152Z" fill="#767676"/>
<path d="M153 152H189.385L189.801 152.692C193.615 159.035 193.615 166.965 189.801 173.308L189.385 174H153L153.416 173.308C157.231 166.965 157.231 159.035 153.416 152.692L153 152Z" fill="#323232"/>
<path d="M189 152H220.308L221.243 153.808C224.227 159.573 224.227 166.427 221.243 172.192L220.308 174H189L189.936 172.192C192.919 166.427 192.919 159.573 189.936 153.808L189 152Z" fill="#767676"/>
<path d="M216 149.491C216 147.759 218.051 146.846 219.338 148.004L234.348 161.513C235.231 162.308 235.231 163.692 234.348 164.487L219.338 177.996C218.051 179.154 216 178.241 216 176.509V149.491Z" fill="#767676"/>
<rect x="78" y="25" width="94" height="93" rx="3.74737" fill="#9FCA78"/>
<path d="M74.4066 124C73.7888 124 73.1624 123.88 72.6627 123.517C71.3186 122.539 70.8366 121.138 70.8399 119.267C70.8894 79.0556 70.8749 75.0784 70.8788 34.8672C70.8788 31.284 72.0668 30.1035 75.6805 30.1035C82.3443 30.0997 89.0043 30.0883 95.6681 30.1188C96.5705 30.1226 97.0694 29.9093 97.5149 29.0221C99.1789 25.7054 101.917 23.8548 105.66 23.653C107.118 23.573 108.588 23.6416 110.252 23.6416C110.252 22.4154 110.226 21.3873 110.256 20.3592C110.359 16.7303 113.005 14.0914 116.615 14.0228C118.138 13.9924 119.662 13.9924 121.185 14.0228C124.638 14.0876 127.247 16.4865 127.532 19.9213C127.631 21.0903 127.548 22.2707 127.548 23.6035C128.964 23.6035 130.145 23.5959 131.325 23.6035C135.529 23.6339 138.56 25.5265 140.506 29.2658C140.727 29.6923 141.507 30.0616 142.033 30.0655C148.742 30.1188 155.452 30.0997 162.161 30.1035C165.752 30.1035 166.925 31.2878 166.925 34.9053C166.925 75.1165 166.913 79.0936 166.955 119.305C166.958 121.273 166.431 122.744 164.865 123.694C164.496 123.918 164.062 124 163.63 124C133.889 124 104.148 124 74.4066 124ZM141.332 33.405C141.332 34.5626 141.374 35.5564 141.325 36.5503C141.214 38.656 140.079 39.7984 137.966 39.8022C125.259 39.8213 112.552 39.8251 99.8453 39.8022C97.6558 39.7984 96.5743 38.6332 96.521 36.4018C96.4982 35.4231 96.5172 34.4445 96.5172 33.4088C95.8737 33.3821 95.451 33.344 95.0283 33.344C88.5549 33.3402 82.0815 33.3745 75.612 33.3136C74.3477 33.3022 74.0241 33.6639 74.0279 34.9167C74.0621 75.0861 74.0613 79.0137 74.0271 119.183C74.0271 120.508 74.3926 120.855 75.7025 120.851C104.494 120.817 133.289 120.817 162.081 120.847C163.352 120.847 163.779 120.565 163.775 119.206C163.737 79.0365 163.745 75.1089 163.742 34.9395V34.9395C163.742 34.0789 162.997 33.405 162.137 33.405C155.171 33.405 148.346 33.405 141.332 33.405ZM138.076 36.5731C138.076 35.2404 138.141 34.0561 138.065 32.8795C137.84 29.3724 135.24 26.8516 131.721 26.8326C123.157 26.7945 114.589 26.8021 106.026 26.8326C103.345 26.844 101.403 28.1806 100.283 30.5948C99.3922 32.5139 99.7006 34.5549 99.7692 36.5731C112.59 36.5731 125.24 36.5731 138.076 36.5731ZM113.462 23.4778C117.137 23.4778 120.705 23.4778 124.36 23.4778C124.36 22.3659 124.399 21.3721 124.353 20.3858C124.269 18.5695 123.134 17.3281 121.337 17.2291C119.73 17.1377 118.112 17.1491 116.501 17.2253C114.875 17.3052 113.626 18.4171 113.481 19.9251C113.375 21.0827 113.462 22.2669 113.462 23.4778Z" fill="#323232"/>
<path d="M79.4665 101.895L79.4665 101.895L102.991 101.763L102.891 101.762C102.891 101.762 102.891 101.762 102.891 101.762C102.874 103.242 102.374 104.466 101.517 105.322C100.659 106.179 99.4357 106.674 97.9561 106.682C93.4365 106.704 88.9168 106.704 84.3972 106.682C82.9496 106.674 81.7274 106.192 80.8629 105.358C79.9987 104.524 79.4852 103.333 79.4665 101.895ZM82.4613 88.4573L82.4613 88.4574L82.4613 101.44C82.4613 101.44 82.4613 101.44 82.4613 101.44C82.4652 102.256 82.6021 102.834 82.9649 103.204C83.3283 103.574 83.8948 103.713 84.6932 103.717H84.6933C89.0193 103.736 93.3492 103.736 97.6752 103.717H97.6753C98.471 103.713 99.0368 103.568 99.4017 103.195C99.7659 102.824 99.9071 102.248 99.9148 101.444V101.444C99.928 99.9559 99.9248 98.4713 99.9215 96.9898C99.9201 96.3323 99.9186 95.6754 99.9186 95.019C99.9186 94.3768 99.9203 93.7341 99.9219 93.091C99.9259 91.5466 99.9298 90.0006 99.911 88.4568C99.9014 87.6869 99.7649 87.1334 99.4125 86.7748C99.0596 86.4157 98.513 86.2752 97.7439 86.2713C93.3683 86.2447 88.9926 86.2447 84.6208 86.2713C83.8408 86.2752 83.2928 86.4033 82.9433 86.7575C82.5942 87.1113 82.4671 87.6664 82.4613 88.4573Z" fill="#323232" stroke="#9FCA78" stroke-width="0.2"/>
<rect x="107.362" y="92.9355" width="49.482" height="3" rx="1.5" fill="#323232"/>
<rect x="107.362" y="58.7695" width="49.482" height="3" rx="1.5" fill="#323232"/>
<path d="M79.4634 67.2358L79.4634 67.2359C79.4766 68.7271 79.9768 69.9485 80.8369 70.7989C81.6971 71.6493 82.9254 72.1367 84.4094 72.1442C88.929 72.167 93.4485 72.167 97.9681 72.1442C99.4537 72.1348 100.674 71.642 101.527 70.7874C102.381 69.9329 102.874 68.7084 102.891 67.2205C102.891 67.2205 102.891 67.2205 102.891 67.2204L102.991 67.2216C103.007 65.6847 103.003 64.146 102.999 62.608C102.997 61.9092 102.995 61.2104 102.995 60.5121C102.995 59.7671 102.996 59.0222 102.998 58.2771C103 56.7866 103.003 55.2954 102.995 53.8026L79.4634 67.2358ZM79.4634 67.2358C79.4177 62.7166 79.4215 58.1973 79.4634 53.6779L79.4634 53.6778C79.4766 52.1842 79.9677 50.9598 80.8212 50.1054C81.6747 49.2509 82.8991 48.7579 84.3946 48.7429L84.3946 48.7429C88.9139 48.6972 93.4332 48.6972 97.9525 48.7429L97.9525 48.7429C99.4805 48.7579 100.707 49.2585 101.555 50.1315C102.403 51.0048 102.882 52.2606 102.895 53.8034L79.4634 67.2358ZM84.6245 51.7492L84.6245 51.7492C86.1555 51.7278 87.6889 51.7326 89.2206 51.7374C89.8764 51.7395 90.532 51.7415 91.1869 51.7415C91.8828 51.7415 92.5786 51.7388 93.2747 51.7361C94.7672 51.7304 96.2606 51.7246 97.7569 51.7454L97.757 51.7454C98.5235 51.7569 99.0708 51.8975 99.4236 52.2544C99.7762 52.6112 99.9117 53.1613 99.9156 53.9316V53.9316C99.9346 58.2615 99.9346 62.5875 99.9156 66.9136V66.9136C99.9117 67.7198 99.7707 68.2922 99.4037 68.6597C99.0366 69.0273 98.4669 69.1665 97.6683 69.1684C93.3385 69.1836 89.0125 69.1836 84.6865 69.1684C83.911 69.1665 83.3504 69.035 82.985 68.6893C82.6183 68.3423 82.4716 67.8019 82.4659 67.0434L82.4659 67.0433L84.6245 51.7492ZM84.6245 51.7492C83.8415 51.7606 83.292 51.8879 82.9421 52.2372M84.6245 51.7492L82.9421 52.2372M82.9421 52.2372C82.592 52.5869 82.4659 53.1348 82.462 53.9201L82.9421 52.2372ZM84.3936 48.6429L84.3937 48.6459L84.3936 48.6429Z" fill="#323232" stroke="#9FCA78" stroke-width="0.2"/>
<rect x="81" y="51" width="20" height="19" fill="#323232"/>
<path d="M88.8403 61.253C90.691 59.4938 92.4769 57.7993 94.2551 56.0972C94.9291 55.4536 95.6488 55.0728 96.5399 55.6554C97.4157 56.2266 97.5604 57.289 96.7379 58.1001C94.3351 60.4648 91.8942 62.7914 89.4153 65.0761C88.5623 65.8644 87.5152 65.6207 86.9021 64.5887C86.3462 63.652 85.8702 62.6696 85.3752 61.6947C84.903 60.7656 84.9715 59.9127 85.9501 59.3757C86.9554 58.8236 87.6637 59.311 88.1892 60.1944C88.3758 60.5105 88.5776 60.8265 88.8403 61.253Z" fill="white"/>
</svg>
