<svg width="976" height="119" viewBox="0 0 976 119" fill="none" xmlns="http://www.w3.org/2000/svg">
<path d="M948.805 47.8172C952.37 49.067 974.404 49.9112 973.657 52.4457C970.616 62.7549 961.579 71.586 957.006 81.3025" stroke="#B6EBE8" stroke-width="3" stroke-linecap="round"/>
<path d="M2.73934 44.3179C1.9401 44.1 1.1155 44.5712 0.897562 45.3705C0.679621 46.1697 1.15086 46.9943 1.95011 47.2122L2.73934 44.3179ZM427.965 95.0381L427.694 96.5135L427.965 95.0381ZM971.88 55.6733C972.652 55.3742 973.036 54.5054 972.737 53.7329C972.438 52.9604 971.569 52.5766 970.797 52.8757L971.88 55.6733ZM715.404 43.6083L715.533 45.1028L715.404 43.6083ZM192.894 85.24C220.404 86.3865 283.584 80.5245 336.598 72.6826C363.115 68.7603 387.177 64.3299 403.025 60.0086C410.895 57.8627 416.933 55.695 420.204 53.5389C421.036 52.9905 421.756 52.401 422.288 51.7588C422.821 51.1161 423.234 50.3375 423.28 49.441C423.377 47.55 421.877 46.2371 420.195 45.3398L418.783 47.9868C419.494 48.3661 419.898 48.6979 420.107 48.947C420.297 49.1728 420.284 49.2737 420.284 49.2873C420.281 49.3313 420.254 49.5116 419.979 49.8437C419.703 50.1765 419.245 50.5779 418.553 51.034C415.728 52.8958 410.124 54.9633 402.236 57.1143C386.567 61.3868 362.649 65.7966 336.159 69.7149C283.16 77.5545 220.223 83.3763 193.019 82.2426L192.894 85.24ZM420.195 45.3398C406.881 38.2371 392.541 39.3699 382.408 43.5754C377.352 45.6738 373.223 48.5863 370.786 51.7568C368.348 54.9279 367.416 58.685 369.629 61.963L372.115 60.2842C370.916 58.5072 371.142 56.2155 373.164 53.5853C375.186 50.9545 378.819 48.313 383.558 46.3463C393.015 42.4214 406.397 41.3791 418.783 47.9868L420.195 45.3398ZM369.629 61.963C373.224 67.2868 382.208 74.8904 392.913 81.6254C403.655 88.3838 416.407 94.4433 427.694 96.5135L428.236 93.5627C417.478 91.5897 405.097 85.7468 394.51 79.0862C383.887 72.4022 375.347 65.0702 372.115 60.2842L369.629 61.963ZM1.95011 47.2122C55.1707 61.7246 137.98 82.9514 192.894 85.24L193.019 82.2426C138.505 79.9707 56.0335 58.8504 2.73934 44.3179L1.95011 47.2122ZM427.694 96.5135C442.439 99.2178 461.285 97.8602 482.776 94.2383C504.293 90.6121 528.613 84.6875 554.35 78.1627C605.883 65.0982 663.123 49.626 715.533 45.1028L715.275 42.1139C662.562 46.6632 605.04 62.217 553.612 75.2547C527.869 81.781 503.659 87.6766 482.278 91.2801C460.87 94.8879 442.448 96.1694 428.236 93.5627L427.694 96.5135ZM715.533 45.1028C756.673 41.5521 801.162 51.6013 845.333 58.9054C889.353 66.1848 933.017 70.7199 971.88 55.6733L970.797 52.8757C932.774 67.5969 889.855 63.2272 845.822 55.9456C801.939 48.689 756.904 38.5211 715.275 42.1139L715.533 45.1028Z" fill="#B6EBE8"/>
</svg>
