<svg width="108" height="108" viewBox="0 0 108 108" fill="none" xmlns="http://www.w3.org/2000/svg">
<rect y="8" width="100" height="100" rx="24" fill="#FFD27C"/>
<rect x="9" y="1" width="98" height="98" rx="23" stroke="#323232" stroke-width="2"/>
<path d="M64.2645 72.256V80H38.5365V72.256H47.3685V42.688C47.0272 43.2 46.4512 43.776 45.6405 44.416C44.8725 45.0133 43.9765 45.6107 42.9525 46.208C41.9712 46.7627 40.9472 47.232 39.8805 47.616C38.8565 48 37.9178 48.192 37.0645 48.192V40.256C38.2165 40.256 39.3898 39.9573 40.5845 39.36C41.7792 38.7627 42.8885 38.08 43.9125 37.312C44.9365 36.544 45.7472 35.84 46.3445 35.2C46.9845 34.5173 47.3258 34.1547 47.3685 34.112H56.1365V72.256H64.2645Z" fill="white"/>
<path fill-rule="evenodd" clip-rule="evenodd" d="M74.2664 62.2563V74.0003H44.5384V62.2563H53.3704V39.0648C52.9248 39.358 52.4551 39.6483 51.9622 39.9359L51.9504 39.9427L51.9385 39.9494C50.8623 40.5577 49.7398 41.0725 48.5721 41.4937C47.3881 41.9364 46.2124 42.1923 45.0664 42.1923H43.0664V30.2563H45.0664C45.8619 30.2563 46.7307 30.0521 47.692 29.5714C48.784 29.0254 49.7905 28.4053 50.7144 27.7123C51.6832 26.9857 52.3947 26.3602 52.8843 25.8357L52.8873 25.8324C53.5048 25.1738 53.8833 24.7709 53.9562 24.6981L54.542 24.1123H66.1384V62.2563H74.2664ZM47.8824 39.6163C48.9491 39.2323 49.9731 38.763 50.9544 38.2083C51.8598 37.6802 52.6651 37.152 53.3704 36.6238C53.4628 36.5547 53.5535 36.4855 53.6424 36.4163C54.4531 35.7763 55.0291 35.2003 55.3704 34.6883V64.2563H46.5384V72.0003H72.2664V64.2563H64.1384V26.1123H55.3704C55.3277 26.155 54.9864 26.5176 54.3464 27.2003C53.7491 27.8403 52.9384 28.5443 51.9144 29.3123C50.8904 30.0803 49.7811 30.763 48.5864 31.3603C47.3917 31.9576 46.2184 32.2563 45.0664 32.2563V40.1923C45.6878 40.1923 46.3545 40.0905 47.0664 39.8868C47.3321 39.8108 47.6041 39.7207 47.8824 39.6163Z" fill="#323232"/>
</svg>
