<svg width="108" height="108" viewBox="0 0 108 108" fill="none" xmlns="http://www.w3.org/2000/svg">
<rect y="8" width="100" height="100" rx="24" fill="#FFD27C"/>
<rect x="9" y="1" width="98" height="98" rx="23" stroke="#323232" stroke-width="2"/>
<path d="M49.4973 80.64C46.2119 80.64 43.2466 79.936 40.6013 78.528C37.9986 77.0773 35.9933 75.136 34.5853 72.704L39.5133 67.584C40.7506 69.248 42.2439 70.5707 43.9933 71.552C45.7853 72.5333 47.6413 73.024 49.5613 73.024C51.0973 73.024 52.4626 72.704 53.6573 72.064C54.8519 71.424 55.7693 70.528 56.4093 69.376C57.0919 68.224 57.4333 66.9013 57.4333 65.408C57.4333 63.9573 57.1133 62.6773 56.4733 61.568C55.8333 60.416 54.9586 59.5413 53.8493 58.944C52.7399 58.304 51.4813 57.984 50.0733 57.984C48.7079 57.984 47.4066 58.304 46.1693 58.944C44.9319 59.5413 43.9506 60.416 43.2253 61.568H35.7373L40.9853 34.56H63.3853V42.368H47.1933L45.4013 52.544C45.9133 51.9893 46.6599 51.5413 47.6413 51.2C48.6226 50.816 49.8386 50.624 51.2893 50.624C54.1479 50.624 56.7079 51.264 58.9693 52.544C61.2306 53.7813 63.0013 55.488 64.2812 57.664C65.6039 59.84 66.2653 62.3573 66.2653 65.216C66.2653 68.2453 65.5186 70.9333 64.0253 73.28C62.5746 75.584 60.5906 77.3973 58.0733 78.72C55.5986 80 52.7399 80.64 49.4973 80.64Z" fill="white"/>
<path fill-rule="evenodd" clip-rule="evenodd" d="M47.6464 72.284L47.6295 72.2745C44.7317 70.6594 42.456 68.4687 40.8563 65.7056L40.1016 64.402L47.7114 56.4957L49.1201 58.3902C50.1933 59.8335 51.4728 60.9637 52.9647 61.8023C54.4788 62.6297 56.0035 63.0236 57.5632 63.0236C58.8141 63.0236 59.8474 62.7653 60.7147 62.3006C61.5812 61.8364 62.2148 61.2108 62.6629 60.4043L62.6764 60.3799L62.6906 60.356C63.1699 59.5472 63.4352 58.5845 63.4352 57.4076C63.4352 56.2603 63.1852 55.3338 62.7428 54.567L62.7347 54.553L62.7269 54.5389C62.2636 53.705 61.6597 53.112 60.903 52.7045L60.8771 52.6906L60.8517 52.6759C60.0759 52.2283 59.1681 51.9836 58.0752 51.9836C57.0363 51.9836 56.0493 52.2238 55.09 52.72L55.0655 52.7327L55.0407 52.7447C54.1379 53.1805 53.4431 53.8018 52.9196 54.6332L52.3313 55.5676H41.3131L47.3384 24.5596H73.3872V36.3676H56.8737L56.0622 40.9758C57.0554 40.7314 58.1398 40.6236 59.2912 40.6236C62.4545 40.6236 65.3557 41.334 67.9438 42.7959C70.5047 44.1999 72.5355 46.153 73.9997 48.637C75.5302 51.1604 76.2672 54.0418 76.2672 57.2156C76.2672 60.5884 75.431 63.6543 73.717 66.3494C72.0704 68.9629 69.8185 71.012 67.0054 72.4901L66.994 72.496C64.1922 73.9453 61.0091 74.6396 57.4992 74.6396C53.9184 74.6396 50.6253 73.8695 47.6635 72.2931L47.6464 72.284ZM72.0272 65.2796C73.5205 62.9329 74.2672 60.2449 74.2672 57.2156C74.2672 54.3569 73.6058 51.8396 72.2832 49.6636C71.0032 47.4876 69.2325 45.7809 66.9712 44.5436C64.7098 43.2636 62.1498 42.6236 59.2912 42.6236C57.855 42.6236 56.6488 42.8118 55.6726 43.1881C55.6628 43.1919 55.653 43.1957 55.6432 43.1996C54.6618 43.5409 53.9152 43.9889 53.4032 44.5436L55.1952 34.3676H71.3872V26.5596H48.9872L43.7392 53.5676H51.2272C51.9525 52.4156 52.9338 51.5409 54.1712 50.9436C55.4085 50.3036 56.7098 49.9836 58.0752 49.9836C59.4832 49.9836 60.7418 50.3036 61.8512 50.9436C62.9605 51.5409 63.8352 52.4156 64.4752 53.5676C65.1152 54.6769 65.4352 55.9569 65.4352 57.4076C65.4352 58.9009 65.0938 60.2236 64.4112 61.3756C63.7712 62.5276 62.8538 63.4236 61.6592 64.0636C60.4645 64.7036 59.0992 65.0236 57.5632 65.0236C55.6432 65.0236 53.7872 64.5329 51.9952 63.5516C50.8208 62.8928 49.7619 62.0802 48.8183 61.1138C48.3562 60.6406 47.9219 60.1305 47.5152 59.5836L42.5872 64.7036C43.9952 67.1356 46.0005 69.0769 48.6032 70.5276C51.2485 71.9356 54.2138 72.6396 57.4992 72.6396C60.7418 72.6396 63.6005 71.9996 66.0752 70.7196C68.5925 69.3969 70.5765 67.5836 72.0272 65.2796Z" fill="#323232"/>
</svg>
