<svg width="108" height="108" viewBox="0 0 108 108" fill="none" xmlns="http://www.w3.org/2000/svg">
<rect y="8" width="100" height="100" rx="24" fill="#FFD27C"/>
<rect x="9" y="1" width="98" height="98" rx="23" stroke="#323232" stroke-width="2"/>
<path d="M52.05 80V69.696H32.914V62.016L54.738 34.56H60.626V61.952H66.258V69.696H60.626V80H52.05ZM41.554 61.952H53.01V47.488L41.554 61.952Z" fill="white"/>
<path d="M60.05 72H58.05V74H60.05V72ZM60.05 61.696H62.05V59.696H60.05V61.696ZM40.914 61.696H38.914V63.696H40.914V61.696ZM40.914 54.016L39.3484 52.7715L38.914 53.318V54.016H40.914ZM62.738 26.56V24.56H61.7729L61.1724 25.3155L62.738 26.56ZM68.626 26.56H70.626V24.56H68.626V26.56ZM68.626 53.952H66.626V55.952H68.626V53.952ZM74.258 53.952H76.258V51.952H74.258V53.952ZM74.258 61.696V63.696H76.258V61.696H74.258ZM68.626 61.696V59.696H66.626V61.696H68.626ZM68.626 72V74H70.626V72H68.626ZM49.554 53.952L47.9862 52.7102L45.4186 55.952H49.554V53.952ZM61.01 53.952V55.952H63.01V53.952H61.01ZM61.01 39.488H63.01V33.7416L59.4422 38.2462L61.01 39.488ZM62.05 72V61.696H58.05V72H62.05ZM60.05 59.696H40.914V63.696H60.05V59.696ZM42.914 61.696V54.016H38.914V61.696H42.914ZM42.4796 55.2605L64.3036 27.8045L61.1724 25.3155L39.3484 52.7715L42.4796 55.2605ZM62.738 28.56H68.626V24.56H62.738V28.56ZM66.626 26.56V53.952H70.626V26.56H66.626ZM68.626 55.952H74.258V51.952H68.626V55.952ZM72.258 53.952V61.696H76.258V53.952H72.258ZM74.258 59.696H68.626V63.696H74.258V59.696ZM66.626 61.696V72H70.626V61.696H66.626ZM68.626 70H60.05V74H68.626V70ZM49.554 55.952H61.01V51.952H49.554V55.952ZM63.01 53.952V39.488H59.01V53.952H63.01ZM59.4422 38.2462L47.9862 52.7102L51.1218 55.1938L62.5778 40.7298L59.4422 38.2462Z" fill="#323232"/>
</svg>
