<svg width="108" height="108" viewBox="0 0 108 108" fill="none" xmlns="http://www.w3.org/2000/svg">
<rect y="8" width="100" height="100" rx="24" fill="#FFD27C"/>
<rect x="9" y="1" width="98" height="98" rx="23" stroke="#323232" stroke-width="2"/>
<path d="M64.2645 72.256V80H38.5365V72.256H47.3685V42.688C47.0272 43.2 46.4512 43.776 45.6405 44.416C44.8725 45.0133 43.9765 45.6107 42.9525 46.208C41.9712 46.7627 40.9472 47.232 39.8805 47.616C38.8565 48 37.9178 48.192 37.0645 48.192V40.256C38.2165 40.256 39.3898 39.9573 40.5845 39.36C41.7792 38.7627 42.8885 38.08 43.9125 37.312C44.9365 36.544 45.7472 35.84 46.3445 35.2C46.9845 34.5173 47.3258 34.1547 47.3685 34.112H56.1365V72.256H64.2645Z" fill="white"/>
<path d="M72.2645 64.256H74.2645V62.256H72.2645V64.256ZM72.2645 72V74H74.2645V72H72.2645ZM46.5365 72H44.5365V74H46.5365V72ZM46.5365 64.256V62.256H44.5365V64.256H46.5365ZM55.3685 64.256V66.256H57.3685V64.256H55.3685ZM55.3685 34.688H57.3685V28.0825L53.7044 33.5786L55.3685 34.688ZM53.6405 36.416L54.8684 37.9947L54.8741 37.9903L54.8798 37.9858L53.6405 36.416ZM50.9525 38.208L51.9366 39.9491L51.9485 39.9424L51.9602 39.9356L50.9525 38.208ZM47.8805 39.616L47.2031 37.7342L47.1906 37.7387L47.1783 37.7433L47.8805 39.616ZM45.0645 40.192H43.0645V42.192H45.0645V40.192ZM45.0645 32.256V30.256H43.0645V32.256H45.0645ZM48.5845 31.36L49.4789 33.1489L49.4789 33.1489L48.5845 31.36ZM54.3445 27.2L52.8854 25.8321L52.8824 25.8354L54.3445 27.2ZM55.3685 26.112V24.112H54.5401L53.9543 24.6978L55.3685 26.112ZM64.1365 26.112H66.1365V24.112H64.1365V26.112ZM64.1365 64.256H62.1365V66.256H64.1365V64.256ZM70.2645 64.256V72H74.2645V64.256H70.2645ZM72.2645 70H46.5365V74H72.2645V70ZM48.5365 72V64.256H44.5365V72H48.5365ZM46.5365 66.256H55.3685V62.256H46.5365V66.256ZM57.3685 64.256V34.688H53.3685V64.256H57.3685ZM53.7044 33.5786C53.5321 33.837 53.1428 34.2608 52.4012 34.8462L54.8798 37.9858C55.7595 37.2912 56.5222 36.563 57.0326 35.7974L53.7044 33.5786ZM52.4126 34.8373C51.7278 35.37 50.908 35.9185 49.9448 36.4804L51.9602 39.9356C53.045 39.3028 54.0172 38.6567 54.8684 37.9947L52.4126 34.8373ZM49.9684 36.4669C49.0857 36.9658 48.1643 37.3882 47.2031 37.7342L48.5579 41.4978C49.73 41.0758 50.8566 40.5595 51.9366 39.9491L49.9684 36.4669ZM47.1783 37.7433C46.3185 38.0657 45.6211 38.192 45.0645 38.192V42.192C46.2146 42.192 47.3945 41.9343 48.5827 41.4887L47.1783 37.7433ZM47.0645 40.192V32.256H43.0645V40.192H47.0645ZM45.0645 34.256C46.573 34.256 48.0508 33.8629 49.4789 33.1489L47.6901 29.5711C46.7288 30.0518 45.86 30.256 45.0645 30.256V34.256ZM49.4789 33.1489C50.7763 32.5002 51.9884 31.755 53.1125 30.912L50.7125 27.712C49.7886 28.405 48.7821 29.0251 47.6901 29.5711L49.4789 33.1489ZM53.1125 30.912C54.1918 30.1026 55.1015 29.3201 55.8066 28.5646L52.8824 25.8354C52.3928 26.3599 51.6812 26.9854 50.7125 27.712L53.1125 30.912ZM55.8036 28.5679C56.1233 28.2268 56.3676 27.9666 56.5369 27.7867C56.7239 27.588 56.7893 27.5197 56.7827 27.5262L53.9543 24.6978C53.8814 24.7706 53.5029 25.1735 52.8854 25.8321L55.8036 28.5679ZM55.3685 28.112H64.1365V24.112H55.3685V28.112ZM62.1365 26.112V64.256H66.1365V26.112H62.1365ZM64.1365 66.256H72.2645V62.256H64.1365V66.256Z" fill="#323232"/>
</svg>
