<svg width="108" height="108" viewBox="0 0 108 108" fill="none" xmlns="http://www.w3.org/2000/svg">
<rect y="8" width="100" height="100" rx="24" fill="#FFD27C"/>
<rect x="9" y="1" width="98" height="98" rx="23" stroke="#323232" stroke-width="2"/>
<path d="M33.6553 80C33.6553 77.3973 33.8259 75.1147 34.1673 73.152C34.5086 71.1467 35.0419 69.376 35.7673 67.84C36.5353 66.2613 37.5166 64.8747 38.7113 63.68C39.9059 62.4853 41.3779 61.3547 43.1273 60.288C44.6206 59.4347 46.1566 58.6027 47.7353 57.792C49.3566 56.9813 50.8499 56.128 52.2153 55.232C53.6233 54.336 54.7539 53.312 55.6073 52.16C56.5033 51.008 56.9513 49.6 56.9513 47.936C56.9513 46.656 56.6739 45.568 56.1193 44.672C55.6073 43.7333 54.8393 43.008 53.8153 42.496C52.8339 41.984 51.6393 41.728 50.2313 41.728C48.6099 41.728 47.0953 42.0267 45.6873 42.624C44.3219 43.1787 43.0846 43.8827 41.9753 44.736C40.9086 45.5467 39.9913 46.3573 39.2233 47.168L33.8473 41.536C34.4446 40.8533 35.2553 40.0853 36.2793 39.232C37.3459 38.3787 38.6046 37.5467 40.0553 36.736C41.5486 35.9253 43.2339 35.264 45.1113 34.752C46.9886 34.24 49.0579 33.984 51.3193 33.984C54.6473 33.984 57.4419 34.5813 59.7033 35.776C61.9646 36.928 63.6713 38.528 64.8232 40.576C66.0179 42.5813 66.6153 44.9067 66.6153 47.552C66.6153 49.472 66.2953 51.1787 65.6553 52.672C65.0579 54.1227 64.2259 55.4027 63.1593 56.512C62.0926 57.6213 60.8979 58.624 59.5753 59.52C58.2526 60.3733 56.8873 61.2053 55.4793 62.016C53.2606 63.2107 51.4686 64.256 50.1033 65.152C48.7379 66.048 47.6499 66.88 46.8393 67.648C46.0713 68.416 45.4739 69.184 45.0473 69.952C44.6633 70.6773 44.3219 71.4453 44.0233 72.256H66.6793V80H33.6553Z" fill="white"/>
<path d="M41.6553 72H39.6553V74H41.6553V72ZM42.1673 65.152L44.1377 65.4947L44.1389 65.4876L42.1673 65.152ZM43.7673 59.84L41.9688 58.9651L41.9637 58.9755L41.9588 58.986L43.7673 59.84ZM46.7113 55.68L45.297 54.2658L45.297 54.2658L46.7113 55.68ZM51.1273 52.288L50.135 50.5515L50.1103 50.5656L50.086 50.5804L51.1273 52.288ZM55.7353 49.792L54.8408 48.0031L54.8312 48.008L54.8216 48.0129L55.7353 49.792ZM60.2153 47.232L59.1415 45.5447L59.1297 45.5522L59.1179 45.5599L60.2153 47.232ZM63.6073 44.16L62.0285 42.9321L62.0141 42.9507L62.0001 42.9695L63.6073 44.16ZM64.1193 36.672L62.3635 37.6297L62.3898 37.678L62.4187 37.7247L64.1193 36.672ZM61.8153 34.496L60.8901 36.2692L60.9054 36.2771L60.9208 36.2849L61.8153 34.496ZM53.6873 34.624L54.44 36.4769L54.4542 36.4712L54.4684 36.4652L53.6873 34.624ZM49.9753 36.736L51.1854 38.3284L51.1947 38.3212L49.9753 36.736ZM47.2233 39.168L45.7765 40.549L47.2287 42.0703L48.6752 40.5435L47.2233 39.168ZM41.8473 33.536L40.3421 32.219L39.1384 33.5947L40.4005 34.917L41.8473 33.536ZM44.2793 31.232L43.0299 29.6703L43.0142 29.6828L42.9989 29.6956L44.2793 31.232ZM48.0553 28.736L47.1011 26.9783L47.0903 26.9841L47.0796 26.9901L48.0553 28.736ZM53.1113 26.752L53.6375 28.6815L53.6375 28.6815L53.1113 26.752ZM67.7033 27.776L66.769 29.5444L66.7822 29.5513L66.7954 29.5581L67.7033 27.776ZM72.8232 32.576L71.0801 33.5565L71.0923 33.5782L71.105 33.5996L72.8232 32.576ZM73.6553 44.672L71.817 43.8842L71.8113 43.8973L71.8059 43.9105L73.6553 44.672ZM71.1593 48.512L72.6009 49.8982L72.6009 49.8982L71.1593 48.512ZM67.5753 51.52L68.6595 53.2006L68.6784 53.1884L68.6969 53.1758L67.5753 51.52ZM63.4793 54.016L64.4275 55.7769L64.4525 55.7634L64.4772 55.7492L63.4793 54.016ZM58.1033 57.152L59.2006 58.8241L59.2006 58.8241L58.1033 57.152ZM54.8393 59.648L53.4638 58.1961L53.4441 58.2147L53.425 58.2338L54.8393 59.648ZM53.0473 61.952L51.2989 60.9807L51.2891 60.9984L51.2797 61.0162L53.0473 61.952ZM52.0233 64.256L50.1466 63.5646L49.155 66.256H52.0233V64.256ZM74.6793 64.256H76.6793V62.256H74.6793V64.256ZM74.6793 72V74H76.6793V72H74.6793ZM43.6553 72C43.6553 69.4795 43.8209 67.316 44.1377 65.4947L40.1968 64.8093C39.8309 66.9134 39.6553 69.3152 39.6553 72H43.6553ZM44.1389 65.4876C44.4555 63.6275 44.9417 62.0368 45.5757 60.694L41.9588 58.986C41.1422 60.7152 40.5617 62.6658 40.1956 64.8164L44.1389 65.4876ZM45.5657 60.7149C46.2403 59.3282 47.0941 58.1256 48.1255 57.0942L45.297 54.2658C43.9391 55.6237 42.8302 57.1944 41.9688 58.9651L45.5657 60.7149ZM48.1255 57.0942C49.1871 56.0326 50.5271 54.9964 52.1685 53.9956L50.086 50.5804C48.2288 51.7129 46.6247 52.9381 45.297 54.2658L48.1255 57.0942ZM52.1195 54.0245C53.5862 53.1864 55.0959 52.3686 56.6489 51.5711L54.8216 48.0129C53.2173 48.8367 51.655 49.6829 50.135 50.5515L52.1195 54.0245ZM56.6297 51.5809C58.3134 50.739 59.8753 49.8473 61.3126 48.9041L59.1179 45.5599C57.8245 46.4087 56.3998 47.2237 54.8408 48.0031L56.6297 51.5809ZM61.289 48.9193C62.8704 47.913 64.1934 46.7288 65.2144 45.3505L62.0001 42.9695C61.3145 43.8952 60.3762 44.759 59.1415 45.5447L61.289 48.9193ZM65.186 45.3879C66.3926 43.8365 66.9513 41.9793 66.9513 39.936H62.9513C62.9513 41.2207 62.6139 42.1795 62.0285 42.9321L65.186 45.3879ZM66.9513 39.936C66.9513 38.3642 66.6085 36.8933 65.8198 35.6193L62.4187 37.7247C62.7394 38.2426 62.9513 38.9478 62.9513 39.936H66.9513ZM65.875 35.7143C65.1534 34.3913 64.0717 33.3881 62.7097 32.7071L60.9208 36.2849C61.6068 36.6279 62.0611 37.0754 62.3635 37.6297L65.875 35.7143ZM62.7404 32.7228C61.4063 32.0268 59.876 31.728 58.2313 31.728V35.728C59.4025 35.728 60.2616 35.9412 60.8901 36.2692L62.7404 32.7228ZM58.2313 31.728C56.3579 31.728 54.5759 32.0745 52.9062 32.7828L54.4684 36.4652C55.6146 35.9789 56.8619 35.728 58.2313 35.728V31.728ZM52.9345 32.7711C51.4111 33.3899 50.0153 34.1819 48.7558 35.1508L51.1947 38.3212C52.1538 37.5834 53.2327 36.9674 54.44 36.4769L52.9345 32.7711ZM48.7651 35.1437C47.6286 36.0074 46.6269 36.8894 45.7713 37.7925L48.6752 40.5435C49.3556 39.8252 50.1886 39.0859 51.1854 38.3283L48.7651 35.1437ZM48.67 37.787L43.294 32.155L40.4005 34.917L45.7765 40.549L48.67 37.787ZM43.3524 34.853C43.8568 34.2765 44.5825 33.5827 45.5596 32.7684L42.9989 29.6956C41.928 30.5879 41.0324 31.4301 40.3421 32.219L43.3524 34.853ZM45.5286 32.7937C46.4932 32.0221 47.6566 31.2499 49.0309 30.4819L47.0796 26.9901C45.5526 27.8434 44.1986 28.7353 43.0299 29.6703L45.5286 32.7937ZM49.0094 30.4937C50.3493 29.7663 51.8879 29.1587 53.6375 28.6815L52.585 24.8225C50.5799 25.3693 48.7479 26.0843 47.1011 26.9783L49.0094 30.4937ZM53.6375 28.6815C55.3182 28.2231 57.2077 27.984 59.3193 27.984V23.984C56.9082 23.984 54.6589 24.2569 52.585 24.8225L53.6375 28.6815ZM59.3193 27.984C62.4166 27.984 64.8692 28.5407 66.769 29.5444L68.6375 26.0076C66.0146 24.6219 62.8779 23.984 59.3193 23.984V27.984ZM66.7954 29.5581C68.7348 30.5461 70.137 31.8799 71.0801 33.5565L74.5664 31.5955C73.2055 29.1761 71.1944 27.3099 68.6111 25.9939L66.7954 29.5581ZM71.105 33.5996C72.0917 35.2558 72.6153 37.218 72.6153 39.552H76.6153C76.6153 36.5954 75.9441 33.9069 74.5415 31.5524L71.105 33.5996ZM72.6153 39.552C72.6153 41.2496 72.3327 42.6808 71.817 43.8842L75.4935 45.4598C76.2578 43.6766 76.6153 41.6944 76.6153 39.552H72.6153ZM71.8059 43.9105C71.3022 45.1338 70.607 46.2008 69.7176 47.1258L72.6009 49.8982C73.8449 48.6045 74.8137 47.1115 75.5046 45.4335L71.8059 43.9105ZM69.7176 47.1258C68.7515 48.1305 67.6648 49.0436 66.4536 49.8642L68.6969 53.1758C70.131 52.2044 71.4337 51.1121 72.6009 49.8982L69.7176 47.1258ZM66.491 49.8394C65.1975 50.6739 63.861 51.4884 62.4813 52.2828L64.4772 55.7492C65.9135 54.9223 67.3076 54.0728 68.6595 53.2006L66.491 49.8394ZM62.5311 52.2551C60.2855 53.4642 58.4382 54.54 57.0059 55.4799L59.2006 58.8241C60.499 57.972 62.2356 56.9572 64.4275 55.7769L62.5311 52.2551ZM57.0059 55.4799C55.5825 56.4141 54.3899 57.3187 53.4638 58.1961L56.2147 61.0999C56.9099 60.4413 57.8934 59.6819 59.2006 58.8241L57.0059 55.4799ZM53.425 58.2338C52.5553 59.1035 51.8342 60.0173 51.2989 60.9807L54.7956 62.9233C55.1137 62.3507 55.5872 61.7285 56.2535 61.0622L53.425 58.2338ZM51.2797 61.0162C50.8518 61.8245 50.4745 62.6745 50.1466 63.5646L53.8999 64.9474C54.1693 64.2162 54.4747 63.5302 54.8148 62.8878L51.2797 61.0162ZM52.0233 66.256H74.6793V62.256H52.0233V66.256ZM72.6793 64.256V72H76.6793V64.256H72.6793ZM74.6793 70H41.6553V74H74.6793V70Z" fill="#323232"/>
</svg>
