<svg width="265" height="195" viewBox="0 0 265 195" fill="none" xmlns="http://www.w3.org/2000/svg">
<ellipse cx="149.5" cy="109" rx="63.5" ry="64" transform="rotate(-180 149.5 109)" fill="#B6EBE8"/>
<rect x="129" y="42" width="3" height="15" rx="1.5" fill="#323232"/>
<rect x="129" y="141" width="3" height="15" rx="1.5" fill="#323232"/>
<rect x="187.5" y="97.5" width="3" height="15" rx="1.5" transform="rotate(90 187.5 97.5)" fill="#323232"/>
<rect x="88.5" y="97.5" width="3" height="15" rx="1.5" transform="rotate(90 88.5 97.5)" fill="#323232"/>
<circle cx="131" cy="99" r="63" transform="rotate(-180 131 99)" stroke="#C6C5C8" stroke-width="22"/>
<rect x="130.664" y="90.9595" width="4.6073" height="24.5382" rx="2.30365" transform="rotate(-21.6516 130.664 90.9595)" fill="#323232"/>
<rect x="133.312" y="89" width="4.6073" height="42.009" rx="2.30365" transform="rotate(40.5522 133.312 89)" fill="#323232"/>
<path d="M177.355 42.1397C176.042 40.8461 174.8 39.6227 173.471 38.3133C174.274 37.2874 175.071 36.2073 175.937 35.1814C176.559 34.4455 176.625 33.7796 176.179 32.9035C175.59 31.7406 175.096 30.5171 174.685 29.281C174.376 28.3507 173.847 27.9397 172.885 27.8632C171.579 27.7644 170.282 27.5542 168.899 27.3821C168.899 25.5852 168.899 23.8202 168.899 21.9723C170.333 21.7907 171.741 21.59 173.156 21.4434C173.927 21.3638 174.341 20.991 174.606 20.2614C175.093 18.9201 175.631 17.5947 176.243 16.3076C176.597 15.5621 176.578 14.9727 176.058 14.3355C175.179 13.2586 174.341 12.1499 173.567 11.159C174.87 9.85595 176.125 8.60067 177.444 7.27848C178.343 7.98259 179.436 8.7759 180.458 9.65524C181.245 10.3307 181.946 10.3052 182.841 9.83684C183.925 9.26973 185.081 8.81413 186.247 8.435C187.146 8.14189 187.671 7.71815 187.748 6.71456C187.85 5.37326 188.073 4.04151 188.254 2.6333C190.032 2.6333 191.762 2.6333 193.664 2.6333C193.814 3.83124 194.027 5.07059 194.107 6.3195C194.183 7.50469 194.652 8.18331 195.862 8.49872C196.965 8.78546 198.048 9.25062 199.042 9.81454C200.039 10.3816 200.785 10.2765 201.616 9.54054C202.569 8.70262 203.611 7.96666 204.57 7.22114C205.825 8.51146 207.036 9.754 208.374 11.1304C207.667 12.0384 206.857 13.1535 205.965 14.1985C205.334 14.9408 205.293 15.5876 205.745 16.4637C206.36 17.6585 206.819 18.9329 207.278 20.2009C207.552 20.9623 207.972 21.3797 208.807 21.4562C210.187 21.5804 211.557 21.7907 213 21.9723C213 23.7692 213 25.5024 213 27.3758C211.732 27.5446 210.451 27.7804 209.158 27.8632C208.097 27.9333 207.517 28.3379 207.205 29.3957C206.861 30.5681 206.383 31.7246 205.793 32.7951C205.268 33.7509 205.338 34.4582 206.042 35.2611C206.899 36.2424 207.657 37.3129 208.46 38.3451C207.147 39.6036 205.889 40.8079 204.525 42.1142C203.649 41.4292 202.591 40.6709 201.61 39.8171C200.782 39.097 200.049 38.9568 199.039 39.5367C197.981 40.142 196.815 40.6199 195.639 40.9449C194.601 41.2316 194.228 41.8274 194.132 42.7992C194.005 44.1022 193.83 45.3989 193.674 46.7402C191.842 46.7402 190.102 46.7402 188.261 46.7402C188.073 45.3097 187.853 43.9047 187.716 42.4901C187.633 41.649 187.197 41.2635 186.432 40.9927C185.129 40.5244 183.848 39.9796 182.596 39.3901C181.857 39.0429 181.264 39.0492 180.624 39.5781C179.553 40.4574 178.441 41.2922 177.355 42.1397ZM200.613 24.6677C200.61 19.3343 196.299 15.0045 190.985 14.995C185.683 14.9854 181.325 19.3088 181.274 24.6199C181.223 29.9405 185.632 34.3531 190.997 34.3435C196.318 34.3308 200.613 30.0106 200.613 24.6677Z" fill="#767676"/>
<mask id="path-10-outside-1_2334_18318" maskUnits="userSpaceOnUse" x="163" y="0" width="51" height="51" fill="black">
<rect fill="white" x="163" width="51" height="51"/>
<path d="M174.626 5.46119C175.149 5.65872 175.601 5.79891 176.025 6.00281C176.305 6.13981 176.547 6.36283 176.799 6.55717C179.437 8.59303 179.443 8.60577 182.467 7.15933C182.741 7.0287 182.973 6.59859 183.034 6.27043C183.231 5.21587 183.305 4.139 183.486 3.08125C183.716 1.74951 184.506 1.05496 185.86 1.02628C187.612 0.991239 189.365 0.991239 191.114 1.02628C192.493 1.05496 193.322 1.82278 193.538 3.1832C193.57 3.38074 193.573 3.58145 193.599 3.7758C194.038 7.05419 194.032 7.06693 197.164 8.23619C197.457 8.3477 197.941 8.26487 198.206 8.08327C199.056 7.50023 199.834 6.80568 200.665 6.19397C201.876 5.29871 202.905 5.3465 203.985 6.38513C205.218 7.57032 206.422 8.78737 207.611 10.0204C208.605 11.0494 208.668 12.0817 207.875 13.251C207.786 13.3816 207.703 13.5281 207.585 13.6269C205.658 15.2581 205.307 17.1347 206.754 19.2438C207.002 19.607 207.432 19.9766 207.843 20.069C208.809 20.2856 209.819 20.292 210.797 20.4609C212.291 20.7189 212.925 21.4836 212.944 22.9905C212.963 24.6632 212.963 26.3358 212.944 28.0053C212.925 29.5473 212.221 30.3406 210.701 30.586C210.621 30.5987 210.542 30.6146 210.462 30.6083C207.99 30.433 206.362 31.3538 205.795 33.9376C205.658 34.5557 205.623 34.9317 206.027 35.4032C206.674 36.1583 207.289 36.942 207.866 37.7544C208.688 38.911 208.611 39.9592 207.623 40.985C206.438 42.218 205.228 43.4319 203.998 44.6203C202.921 45.6589 201.895 45.7003 200.675 44.8274C200.544 44.735 200.407 44.6458 200.302 44.5279C198.674 42.6577 196.829 42.3072 194.765 43.7728C194.427 44.0117 194.045 44.3781 193.965 44.7445C193.745 45.7513 193.694 46.7931 193.541 47.8158C193.337 49.1922 192.506 49.9504 191.13 49.9727C189.377 50.0014 187.625 49.9982 185.876 49.9727C184.519 49.9536 183.728 49.2782 183.493 47.9401C183.314 46.9237 183.206 45.8915 183.072 44.8656C183.05 44.7095 183.066 44.5406 183.024 44.3909C182.817 43.6517 179.319 42.4984 178.704 42.9699C177.882 43.6007 177.095 44.273 176.254 44.872C175.085 45.7067 174.059 45.6302 173.033 44.633C171.775 43.4128 170.535 42.1766 169.318 40.9181C168.404 39.9687 168.356 38.8759 169.105 37.7768C169.216 37.6143 169.321 37.4327 169.471 37.3084C171.376 35.6867 171.666 33.8325 170.233 31.7743C169.978 31.4111 169.557 31.0256 169.149 30.9332C168.225 30.723 167.254 30.7166 166.311 30.5796C164.791 30.3598 164.058 29.5505 164.026 28.018C163.991 26.3454 163.991 24.6727 164.026 23.0033C164.058 21.4485 164.74 20.6966 166.298 20.4322C167.002 20.3143 167.722 20.1582 168.426 20.1837C169.605 20.2251 169.99 19.6038 170.551 18.6321C171.641 16.7524 171.188 15.4206 169.783 14.0921C169.471 13.7958 169.216 13.4198 168.993 13.047C168.397 12.053 168.401 11.0526 169.223 10.1956C170.516 8.84472 171.835 7.51616 173.199 6.23539C173.572 5.87856 174.135 5.71607 174.626 5.46119ZM174.887 42.9731C175.971 42.1256 177.086 41.2877 178.159 40.402C178.8 39.8731 179.392 39.8668 180.131 40.214C181.384 40.8066 182.664 41.3514 183.967 41.8166C184.732 42.0906 185.165 42.4729 185.251 43.314C185.392 44.7254 185.608 46.1304 185.796 47.5641C187.638 47.5641 189.377 47.5641 191.209 47.5641C191.369 46.2228 191.544 44.9261 191.668 43.6231C191.76 42.6513 192.136 42.0587 193.175 41.7688C194.351 41.4438 195.517 40.9659 196.574 40.3606C197.584 39.7807 198.32 39.9241 199.146 40.641C200.124 41.4916 201.185 42.2531 202.061 42.9381C203.424 41.6318 204.68 40.4275 205.995 39.169C205.193 38.1368 204.434 37.0663 203.577 36.085C202.873 35.2789 202.803 34.5748 203.329 33.619C203.918 32.5485 204.393 31.392 204.74 30.2196C205.052 29.1618 205.632 28.7572 206.693 28.6871C207.987 28.6043 209.267 28.3685 210.535 28.1996C210.535 26.3263 210.535 24.5931 210.535 22.7962C209.092 22.6146 207.722 22.4043 206.343 22.2801C205.505 22.2036 205.087 21.7862 204.813 21.0248C204.358 19.7568 203.896 18.4824 203.281 17.2876C202.829 16.4115 202.87 15.7647 203.501 15.0224C204.393 13.9774 205.202 12.8623 205.909 11.9543C204.571 10.5779 203.361 9.33536 202.105 8.04503C201.143 8.79056 200.101 9.52652 199.152 10.3644C198.317 11.1004 197.575 11.2024 196.578 10.6384C195.587 10.0745 194.5 9.60936 193.398 9.32262C192.187 9.00721 191.719 8.32859 191.643 7.1434C191.563 5.89449 191.349 4.65513 191.2 3.4572C189.298 3.4572 187.564 3.4572 185.79 3.4572C185.608 4.8686 185.385 6.20034 185.283 7.53846C185.207 8.54524 184.681 8.96897 183.783 9.2589C182.617 9.63803 181.46 10.0936 180.377 10.6607C179.482 11.1291 178.781 11.1546 177.994 10.4791C176.971 9.60299 175.881 8.80649 174.98 8.10238C173.661 9.42138 172.405 10.6799 171.102 11.9829C171.877 12.9738 172.718 14.0825 173.594 15.1594C174.113 15.7966 174.132 16.386 173.779 17.1315C173.167 18.4186 172.628 19.744 172.141 21.0853C171.877 21.8181 171.459 22.1877 170.691 22.2673C169.277 22.4171 167.869 22.6146 166.435 22.7962C166.435 24.6473 166.435 26.4091 166.435 28.206C167.818 28.3781 169.114 28.5883 170.421 28.6871C171.383 28.7604 171.912 29.1746 172.221 30.1049C172.632 31.3442 173.125 32.5645 173.715 33.7273C174.161 34.6035 174.094 35.2726 173.473 36.0053C172.606 37.0312 171.81 38.1113 171.007 39.1372C172.335 40.4562 173.575 41.6796 174.887 42.9731Z"/>
</mask>
<path d="M174.626 5.46119C175.149 5.65872 175.601 5.79891 176.025 6.00281C176.305 6.13981 176.547 6.36283 176.799 6.55717C179.437 8.59303 179.443 8.60577 182.467 7.15933C182.741 7.0287 182.973 6.59859 183.034 6.27043C183.231 5.21587 183.305 4.139 183.486 3.08125C183.716 1.74951 184.506 1.05496 185.86 1.02628C187.612 0.991239 189.365 0.991239 191.114 1.02628C192.493 1.05496 193.322 1.82278 193.538 3.1832C193.57 3.38074 193.573 3.58145 193.599 3.7758C194.038 7.05419 194.032 7.06693 197.164 8.23619C197.457 8.3477 197.941 8.26487 198.206 8.08327C199.056 7.50023 199.834 6.80568 200.665 6.19397C201.876 5.29871 202.905 5.3465 203.985 6.38513C205.218 7.57032 206.422 8.78737 207.611 10.0204C208.605 11.0494 208.668 12.0817 207.875 13.251C207.786 13.3816 207.703 13.5281 207.585 13.6269C205.658 15.2581 205.307 17.1347 206.754 19.2438C207.002 19.607 207.432 19.9766 207.843 20.069C208.809 20.2856 209.819 20.292 210.797 20.4609C212.291 20.7189 212.925 21.4836 212.944 22.9905C212.963 24.6632 212.963 26.3358 212.944 28.0053C212.925 29.5473 212.221 30.3406 210.701 30.586C210.621 30.5987 210.542 30.6146 210.462 30.6083C207.99 30.433 206.362 31.3538 205.795 33.9376C205.658 34.5557 205.623 34.9317 206.027 35.4032C206.674 36.1583 207.289 36.942 207.866 37.7544C208.688 38.911 208.611 39.9592 207.623 40.985C206.438 42.218 205.228 43.4319 203.998 44.6203C202.921 45.6589 201.895 45.7003 200.675 44.8274C200.544 44.735 200.407 44.6458 200.302 44.5279C198.674 42.6577 196.829 42.3072 194.765 43.7728C194.427 44.0117 194.045 44.3781 193.965 44.7445C193.745 45.7513 193.694 46.7931 193.541 47.8158C193.337 49.1922 192.506 49.9504 191.13 49.9727C189.377 50.0014 187.625 49.9982 185.876 49.9727C184.519 49.9536 183.728 49.2782 183.493 47.9401C183.314 46.9237 183.206 45.8915 183.072 44.8656C183.05 44.7095 183.066 44.5406 183.024 44.3909C182.817 43.6517 179.319 42.4984 178.704 42.9699C177.882 43.6007 177.095 44.273 176.254 44.872C175.085 45.7067 174.059 45.6302 173.033 44.633C171.775 43.4128 170.535 42.1766 169.318 40.9181C168.404 39.9687 168.356 38.8759 169.105 37.7768C169.216 37.6143 169.321 37.4327 169.471 37.3084C171.376 35.6867 171.666 33.8325 170.233 31.7743C169.978 31.4111 169.557 31.0256 169.149 30.9332C168.225 30.723 167.254 30.7166 166.311 30.5796C164.791 30.3598 164.058 29.5505 164.026 28.018C163.991 26.3454 163.991 24.6727 164.026 23.0033C164.058 21.4485 164.74 20.6966 166.298 20.4322C167.002 20.3143 167.722 20.1582 168.426 20.1837C169.605 20.2251 169.99 19.6038 170.551 18.6321C171.641 16.7524 171.188 15.4206 169.783 14.0921C169.471 13.7958 169.216 13.4198 168.993 13.047C168.397 12.053 168.401 11.0526 169.223 10.1956C170.516 8.84472 171.835 7.51616 173.199 6.23539C173.572 5.87856 174.135 5.71607 174.626 5.46119ZM174.887 42.9731C175.971 42.1256 177.086 41.2877 178.159 40.402C178.8 39.8731 179.392 39.8668 180.131 40.214C181.384 40.8066 182.664 41.3514 183.967 41.8166C184.732 42.0906 185.165 42.4729 185.251 43.314C185.392 44.7254 185.608 46.1304 185.796 47.5641C187.638 47.5641 189.377 47.5641 191.209 47.5641C191.369 46.2228 191.544 44.9261 191.668 43.6231C191.76 42.6513 192.136 42.0587 193.175 41.7688C194.351 41.4438 195.517 40.9659 196.574 40.3606C197.584 39.7807 198.32 39.9241 199.146 40.641C200.124 41.4916 201.185 42.2531 202.061 42.9381C203.424 41.6318 204.68 40.4275 205.995 39.169C205.193 38.1368 204.434 37.0663 203.577 36.085C202.873 35.2789 202.803 34.5748 203.329 33.619C203.918 32.5485 204.393 31.392 204.74 30.2196C205.052 29.1618 205.632 28.7572 206.693 28.6871C207.987 28.6043 209.267 28.3685 210.535 28.1996C210.535 26.3263 210.535 24.5931 210.535 22.7962C209.092 22.6146 207.722 22.4043 206.343 22.2801C205.505 22.2036 205.087 21.7862 204.813 21.0248C204.358 19.7568 203.896 18.4824 203.281 17.2876C202.829 16.4115 202.87 15.7647 203.501 15.0224C204.393 13.9774 205.202 12.8623 205.909 11.9543C204.571 10.5779 203.361 9.33536 202.105 8.04503C201.143 8.79056 200.101 9.52652 199.152 10.3644C198.317 11.1004 197.575 11.2024 196.578 10.6384C195.587 10.0745 194.5 9.60936 193.398 9.32262C192.187 9.00721 191.719 8.32859 191.643 7.1434C191.563 5.89449 191.349 4.65513 191.2 3.4572C189.298 3.4572 187.564 3.4572 185.79 3.4572C185.608 4.8686 185.385 6.20034 185.283 7.53846C185.207 8.54524 184.681 8.96897 183.783 9.2589C182.617 9.63803 181.46 10.0936 180.377 10.6607C179.482 11.1291 178.781 11.1546 177.994 10.4791C176.971 9.60299 175.881 8.80649 174.98 8.10238C173.661 9.42138 172.405 10.6799 171.102 11.9829C171.877 12.9738 172.718 14.0825 173.594 15.1594C174.113 15.7966 174.132 16.386 173.779 17.1315C173.167 18.4186 172.628 19.744 172.141 21.0853C171.877 21.8181 171.459 22.1877 170.691 22.2673C169.277 22.4171 167.869 22.6146 166.435 22.7962C166.435 24.6473 166.435 26.4091 166.435 28.206C167.818 28.3781 169.114 28.5883 170.421 28.6871C171.383 28.7604 171.912 29.1746 172.221 30.1049C172.632 31.3442 173.125 32.5645 173.715 33.7273C174.161 34.6035 174.094 35.2726 173.473 36.0053C172.606 37.0312 171.81 38.1113 171.007 39.1372C172.335 40.4562 173.575 41.6796 174.887 42.9731Z" fill="#323232"/>
<path d="M174.626 5.46119C175.149 5.65872 175.601 5.79891 176.025 6.00281C176.305 6.13981 176.547 6.36283 176.799 6.55717C179.437 8.59303 179.443 8.60577 182.467 7.15933C182.741 7.0287 182.973 6.59859 183.034 6.27043C183.231 5.21587 183.305 4.139 183.486 3.08125C183.716 1.74951 184.506 1.05496 185.86 1.02628C187.612 0.991239 189.365 0.991239 191.114 1.02628C192.493 1.05496 193.322 1.82278 193.538 3.1832C193.57 3.38074 193.573 3.58145 193.599 3.7758C194.038 7.05419 194.032 7.06693 197.164 8.23619C197.457 8.3477 197.941 8.26487 198.206 8.08327C199.056 7.50023 199.834 6.80568 200.665 6.19397C201.876 5.29871 202.905 5.3465 203.985 6.38513C205.218 7.57032 206.422 8.78737 207.611 10.0204C208.605 11.0494 208.668 12.0817 207.875 13.251C207.786 13.3816 207.703 13.5281 207.585 13.6269C205.658 15.2581 205.307 17.1347 206.754 19.2438C207.002 19.607 207.432 19.9766 207.843 20.069C208.809 20.2856 209.819 20.292 210.797 20.4609C212.291 20.7189 212.925 21.4836 212.944 22.9905C212.963 24.6632 212.963 26.3358 212.944 28.0053C212.925 29.5473 212.221 30.3406 210.701 30.586C210.621 30.5987 210.542 30.6146 210.462 30.6083C207.99 30.433 206.362 31.3538 205.795 33.9376C205.658 34.5557 205.623 34.9317 206.027 35.4032C206.674 36.1583 207.289 36.942 207.866 37.7544C208.688 38.911 208.611 39.9592 207.623 40.985C206.438 42.218 205.228 43.4319 203.998 44.6203C202.921 45.6589 201.895 45.7003 200.675 44.8274C200.544 44.735 200.407 44.6458 200.302 44.5279C198.674 42.6577 196.829 42.3072 194.765 43.7728C194.427 44.0117 194.045 44.3781 193.965 44.7445C193.745 45.7513 193.694 46.7931 193.541 47.8158C193.337 49.1922 192.506 49.9504 191.13 49.9727C189.377 50.0014 187.625 49.9982 185.876 49.9727C184.519 49.9536 183.728 49.2782 183.493 47.9401C183.314 46.9237 183.206 45.8915 183.072 44.8656C183.05 44.7095 183.066 44.5406 183.024 44.3909C182.817 43.6517 179.319 42.4984 178.704 42.9699C177.882 43.6007 177.095 44.273 176.254 44.872C175.085 45.7067 174.059 45.6302 173.033 44.633C171.775 43.4128 170.535 42.1766 169.318 40.9181C168.404 39.9687 168.356 38.8759 169.105 37.7768C169.216 37.6143 169.321 37.4327 169.471 37.3084C171.376 35.6867 171.666 33.8325 170.233 31.7743C169.978 31.4111 169.557 31.0256 169.149 30.9332C168.225 30.723 167.254 30.7166 166.311 30.5796C164.791 30.3598 164.058 29.5505 164.026 28.018C163.991 26.3454 163.991 24.6727 164.026 23.0033C164.058 21.4485 164.74 20.6966 166.298 20.4322C167.002 20.3143 167.722 20.1582 168.426 20.1837C169.605 20.2251 169.99 19.6038 170.551 18.6321C171.641 16.7524 171.188 15.4206 169.783 14.0921C169.471 13.7958 169.216 13.4198 168.993 13.047C168.397 12.053 168.401 11.0526 169.223 10.1956C170.516 8.84472 171.835 7.51616 173.199 6.23539C173.572 5.87856 174.135 5.71607 174.626 5.46119ZM174.887 42.9731C175.971 42.1256 177.086 41.2877 178.159 40.402C178.8 39.8731 179.392 39.8668 180.131 40.214C181.384 40.8066 182.664 41.3514 183.967 41.8166C184.732 42.0906 185.165 42.4729 185.251 43.314C185.392 44.7254 185.608 46.1304 185.796 47.5641C187.638 47.5641 189.377 47.5641 191.209 47.5641C191.369 46.2228 191.544 44.9261 191.668 43.6231C191.76 42.6513 192.136 42.0587 193.175 41.7688C194.351 41.4438 195.517 40.9659 196.574 40.3606C197.584 39.7807 198.32 39.9241 199.146 40.641C200.124 41.4916 201.185 42.2531 202.061 42.9381C203.424 41.6318 204.68 40.4275 205.995 39.169C205.193 38.1368 204.434 37.0663 203.577 36.085C202.873 35.2789 202.803 34.5748 203.329 33.619C203.918 32.5485 204.393 31.392 204.74 30.2196C205.052 29.1618 205.632 28.7572 206.693 28.6871C207.987 28.6043 209.267 28.3685 210.535 28.1996C210.535 26.3263 210.535 24.5931 210.535 22.7962C209.092 22.6146 207.722 22.4043 206.343 22.2801C205.505 22.2036 205.087 21.7862 204.813 21.0248C204.358 19.7568 203.896 18.4824 203.281 17.2876C202.829 16.4115 202.87 15.7647 203.501 15.0224C204.393 13.9774 205.202 12.8623 205.909 11.9543C204.571 10.5779 203.361 9.33536 202.105 8.04503C201.143 8.79056 200.101 9.52652 199.152 10.3644C198.317 11.1004 197.575 11.2024 196.578 10.6384C195.587 10.0745 194.5 9.60936 193.398 9.32262C192.187 9.00721 191.719 8.32859 191.643 7.1434C191.563 5.89449 191.349 4.65513 191.2 3.4572C189.298 3.4572 187.564 3.4572 185.79 3.4572C185.608 4.8686 185.385 6.20034 185.283 7.53846C185.207 8.54524 184.681 8.96897 183.783 9.2589C182.617 9.63803 181.46 10.0936 180.377 10.6607C179.482 11.1291 178.781 11.1546 177.994 10.4791C176.971 9.60299 175.881 8.80649 174.98 8.10238C173.661 9.42138 172.405 10.6799 171.102 11.9829C171.877 12.9738 172.718 14.0825 173.594 15.1594C174.113 15.7966 174.132 16.386 173.779 17.1315C173.167 18.4186 172.628 19.744 172.141 21.0853C171.877 21.8181 171.459 22.1877 170.691 22.2673C169.277 22.4171 167.869 22.6146 166.435 22.7962C166.435 24.6473 166.435 26.4091 166.435 28.206C167.818 28.3781 169.114 28.5883 170.421 28.6871C171.383 28.7604 171.912 29.1746 172.221 30.1049C172.632 31.3442 173.125 32.5645 173.715 33.7273C174.161 34.6035 174.094 35.2726 173.473 36.0053C172.606 37.0312 171.81 38.1113 171.007 39.1372C172.335 40.4562 173.575 41.6796 174.887 42.9731Z" stroke="#323232" stroke-width="0.4" mask="url(#path-10-outside-1_2334_18318)"/>
<mask id="path-11-outside-2_2334_18318" maskUnits="userSpaceOnUse" x="177.803" y="14.8257" width="21" height="21" fill="black">
<rect fill="white" x="177.803" y="14.8257" width="21" height="21"/>
<path d="M198.145 25.5016C198.149 30.8445 193.854 35.1647 188.527 35.1743C183.162 35.1838 178.752 30.7744 178.803 25.4506C178.854 20.1395 183.216 15.8161 188.514 15.8257C193.832 15.8353 198.142 20.1682 198.145 25.5016ZM188.428 32.8166C192.513 32.8453 195.823 29.5733 195.823 25.5079C195.823 21.4936 192.56 18.212 188.549 18.1929C184.477 18.1706 181.148 21.4617 181.145 25.5048C181.145 29.5096 184.411 32.7879 188.428 32.8166Z"/>
</mask>
<path d="M198.145 25.5016C198.149 30.8445 193.854 35.1647 188.527 35.1743C183.162 35.1838 178.752 30.7744 178.803 25.4506C178.854 20.1395 183.216 15.8161 188.514 15.8257C193.832 15.8353 198.142 20.1682 198.145 25.5016ZM188.428 32.8166C192.513 32.8453 195.823 29.5733 195.823 25.5079C195.823 21.4936 192.56 18.212 188.549 18.1929C184.477 18.1706 181.148 21.4617 181.145 25.5048C181.145 29.5096 184.411 32.7879 188.428 32.8166Z" fill="#323232"/>
<path d="M198.145 25.5016C198.149 30.8445 193.854 35.1647 188.527 35.1743C183.162 35.1838 178.752 30.7744 178.803 25.4506C178.854 20.1395 183.216 15.8161 188.514 15.8257C193.832 15.8353 198.142 20.1682 198.145 25.5016ZM188.428 32.8166C192.513 32.8453 195.823 29.5733 195.823 25.5079C195.823 21.4936 192.56 18.212 188.549 18.1929C184.477 18.1706 181.148 21.4617 181.145 25.5048C181.145 29.5096 184.411 32.7879 188.428 32.8166Z" stroke="#323232" stroke-width="0.6" mask="url(#path-11-outside-2_2334_18318)"/>
<circle cx="237.269" cy="108.97" r="23.2104" transform="rotate(8.48926 237.269 108.97)" fill="#FF756C"/>
<mask id="path-13-outside-3_2334_18318" maskUnits="userSpaceOnUse" x="214.99" y="96.5076" width="14.9243" height="15.7657" fill="black">
<rect fill="white" x="214.99" y="96.5076" width="14.9243" height="15.7657"/>
<path d="M219.481 104.006C221.702 105.769 223.821 107.454 225.938 109.137C226.113 109.276 226.288 109.417 226.462 109.558C226.899 109.909 227.141 110.331 226.722 110.828C226.308 111.317 225.845 111.165 225.41 110.814C225.332 110.752 225.255 110.69 225.177 110.628C222.67 108.631 220.161 106.637 217.655 104.638C216.699 103.875 216.79 103.275 217.937 102.821C220.94 101.635 223.945 100.45 226.951 99.2697C227.157 99.1895 227.412 99.034 227.581 99.0934C227.892 99.2065 228.287 99.3985 228.399 99.6631C228.488 99.8741 228.271 100.291 228.078 100.525C227.921 100.713 227.602 100.772 227.347 100.871C224.989 101.801 222.629 102.728 220.271 103.658C220.042 103.747 219.822 103.855 219.481 104.006Z"/>
</mask>
<path d="M219.481 104.006C221.702 105.769 223.821 107.454 225.938 109.137C226.113 109.276 226.288 109.417 226.462 109.558C226.899 109.909 227.141 110.331 226.722 110.828C226.308 111.317 225.845 111.165 225.41 110.814C225.332 110.752 225.255 110.69 225.177 110.628C222.67 108.631 220.161 106.637 217.655 104.638C216.699 103.875 216.79 103.275 217.937 102.821C220.94 101.635 223.945 100.45 226.951 99.2697C227.157 99.1895 227.412 99.034 227.581 99.0934C227.892 99.2065 228.287 99.3985 228.399 99.6631C228.488 99.8741 228.271 100.291 228.078 100.525C227.921 100.713 227.602 100.772 227.347 100.871C224.989 101.801 222.629 102.728 220.271 103.658C220.042 103.747 219.822 103.855 219.481 104.006Z" fill="#323232"/>
<path d="M219.481 104.006C221.702 105.769 223.821 107.454 225.938 109.137C226.113 109.276 226.288 109.417 226.462 109.558C226.899 109.909 227.141 110.331 226.722 110.828C226.308 111.317 225.845 111.165 225.41 110.814C225.332 110.752 225.255 110.69 225.177 110.628C222.67 108.631 220.161 106.637 217.655 104.638C216.699 103.875 216.79 103.275 217.937 102.821C220.94 101.635 223.945 100.45 226.951 99.2697C227.157 99.1895 227.412 99.034 227.581 99.0934C227.892 99.2065 228.287 99.3985 228.399 99.6631C228.488 99.8741 228.271 100.291 228.078 100.525C227.921 100.713 227.602 100.772 227.347 100.871C224.989 101.801 222.629 102.728 220.271 103.658C220.042 103.747 219.822 103.855 219.481 104.006Z" stroke="#323232" mask="url(#path-13-outside-3_2334_18318)"/>
<mask id="path-14-outside-4_2334_18318" maskUnits="userSpaceOnUse" x="236.078" y="99.6106" width="14.9243" height="15.7657" fill="black">
<rect fill="white" x="236.078" y="99.6106" width="14.9243" height="15.7657"/>
<path d="M246.329 107.982C244.054 106.169 241.899 104.452 239.744 102.735C239.549 102.581 239.261 102.462 239.184 102.263C239.057 101.937 238.936 101.504 239.056 101.215C239.252 100.74 239.734 100.794 240.151 100.996C240.305 101.071 240.431 101.201 240.568 101.31C243.078 103.304 245.591 105.298 248.099 107.295C249.106 108.097 249.026 108.698 247.846 109.165C244.817 110.362 241.784 111.544 238.756 112.743C238.193 112.968 237.651 113.072 237.385 112.383C237.11 111.671 237.638 111.431 238.184 111.216C240.636 110.256 243.085 109.283 245.534 108.313C245.761 108.224 245.987 108.127 246.329 107.982Z"/>
</mask>
<path d="M246.329 107.982C244.054 106.169 241.899 104.452 239.744 102.735C239.549 102.581 239.261 102.462 239.184 102.263C239.057 101.937 238.936 101.504 239.056 101.215C239.252 100.74 239.734 100.794 240.151 100.996C240.305 101.071 240.431 101.201 240.568 101.31C243.078 103.304 245.591 105.298 248.099 107.295C249.106 108.097 249.026 108.698 247.846 109.165C244.817 110.362 241.784 111.544 238.756 112.743C238.193 112.968 237.651 113.072 237.385 112.383C237.11 111.671 237.638 111.431 238.184 111.216C240.636 110.256 243.085 109.283 245.534 108.313C245.761 108.224 245.987 108.127 246.329 107.982Z" fill="#323232"/>
<path d="M246.329 107.982C244.054 106.169 241.899 104.452 239.744 102.735C239.549 102.581 239.261 102.462 239.184 102.263C239.057 101.937 238.936 101.504 239.056 101.215C239.252 100.74 239.734 100.794 240.151 100.996C240.305 101.071 240.431 101.201 240.568 101.31C243.078 103.304 245.591 105.298 248.099 107.295C249.106 108.097 249.026 108.698 247.846 109.165C244.817 110.362 241.784 111.544 238.756 112.743C238.193 112.968 237.651 113.072 237.385 112.383C237.11 111.671 237.638 111.431 238.184 111.216C240.636 110.256 243.085 109.283 245.534 108.313C245.761 108.224 245.987 108.127 246.329 107.982Z" stroke="#323232" mask="url(#path-14-outside-4_2334_18318)"/>
<mask id="path-15-outside-5_2334_18318" maskUnits="userSpaceOnUse" x="228.107" y="97.1473" width="9.43291" height="17.8471" fill="black">
<rect fill="white" x="228.107" y="97.1473" width="9.43291" height="17.8471"/>
<path d="M230.263 113.103C229.413 113.004 229.194 112.469 229.521 111.7C230.034 110.492 230.56 109.29 231.084 108.088C232.299 105.296 233.509 102.5 234.746 99.7191C234.886 99.4072 235.154 99.0824 235.45 98.937C235.635 98.8456 236.13 98.9982 236.218 99.1747C236.365 99.4647 236.407 99.9086 236.292 100.208C235.808 101.452 235.248 102.667 234.714 103.894C233.497 106.684 232.28 109.476 231.065 112.267C230.869 112.713 230.67 113.143 230.263 113.103Z"/>
</mask>
<path d="M230.263 113.103C229.413 113.004 229.194 112.469 229.521 111.7C230.034 110.492 230.56 109.29 231.084 108.088C232.299 105.296 233.509 102.5 234.746 99.7191C234.886 99.4072 235.154 99.0824 235.45 98.937C235.635 98.8456 236.13 98.9982 236.218 99.1747C236.365 99.4647 236.407 99.9086 236.292 100.208C235.808 101.452 235.248 102.667 234.714 103.894C233.497 106.684 232.28 109.476 231.065 112.267C230.869 112.713 230.67 113.143 230.263 113.103Z" fill="#323232"/>
<path d="M230.263 113.103C229.413 113.004 229.194 112.469 229.521 111.7C230.034 110.492 230.56 109.29 231.084 108.088C232.299 105.296 233.509 102.5 234.746 99.7191C234.886 99.4072 235.154 99.0824 235.45 98.937C235.635 98.8456 236.13 98.9982 236.218 99.1747C236.365 99.4647 236.407 99.9086 236.292 100.208C235.808 101.452 235.248 102.667 234.714 103.894C233.497 106.684 232.28 109.476 231.065 112.267C230.869 112.713 230.67 113.143 230.263 113.103Z" stroke="#323232" mask="url(#path-15-outside-5_2334_18318)"/>
<circle cx="233.588" cy="105.412" r="23.4958" transform="rotate(8.48926 233.588 105.412)" stroke="#323232" stroke-width="3"/>
<path d="M24.3799 113.38C24.3799 109.282 27.7019 105.96 31.7999 105.96H81.6199C85.7178 105.96 89.0399 109.282 89.0399 113.38V120.8H24.3799V113.38Z" fill="#7687C6"/>
<mask id="path-18-outside-6_2334_18318" maskUnits="userSpaceOnUse" x="19.1401" y="99.6599" width="68" height="76" fill="black">
<rect fill="white" x="19.1401" y="99.6599" width="68" height="76"/>
<path d="M27.6577 174.86C26.5317 174.408 25.3113 174.107 24.2952 173.477C21.5843 171.793 20.1594 169.265 20.1556 166.056C20.1324 149.811 20.1401 133.566 20.1478 117.319C20.1498 112.52 24.0811 108.582 28.8782 108.529C29.5511 108.522 30.224 108.528 31.0145 108.528C31.0145 108.213 31.0088 107.935 31.0165 107.658C31.0493 106.43 30.9741 105.186 31.1437 103.977C31.4329 101.897 33.3128 100.543 35.4781 100.705C37.4004 100.85 39.0354 102.604 39.0701 104.593C39.0913 105.87 39.0739 107.147 39.0739 108.475C48.5235 108.475 57.9306 108.475 67.4303 108.475C67.4303 107.208 67.4072 105.938 67.4361 104.667C67.4747 103.023 68.2536 101.806 69.719 101.092C71.165 100.387 72.586 100.559 73.8721 101.509C74.9981 102.341 75.4762 103.525 75.4859 104.906C75.4955 106.084 75.4878 107.262 75.4878 108.458C76.6716 108.528 77.8015 108.52 78.9121 108.67C83.0517 109.233 86.3352 112.985 86.3526 117.176C86.3757 123.09 86.3603 129.004 86.3603 134.918C86.3603 145.13 86.2967 155.341 86.3873 165.55C86.4316 170.456 82.9784 174.143 79.0162 174.742C78.9545 174.752 78.9024 174.821 78.8465 174.862C61.7849 174.86 44.7213 174.86 27.6577 174.86ZM21.7771 125.039C21.7771 125.35 21.7771 125.588 21.7771 125.823C21.7771 139.073 21.7752 152.324 21.7848 165.574C21.7848 166.221 21.8195 166.885 21.9583 167.513C22.7411 171.041 25.5908 173.236 29.3641 173.236C45.2901 173.239 61.2161 173.239 77.1421 173.23C77.788 173.23 78.4493 173.185 79.076 173.04C82.5947 172.227 84.7291 169.404 84.7291 165.576C84.7349 152.326 84.731 139.075 84.731 125.825C84.731 125.57 84.731 125.315 84.731 125.037C63.7091 125.039 42.8009 125.039 21.7771 125.039ZM67.4303 110.248C57.9345 110.248 48.5312 110.248 39.072 110.248C39.072 111.22 39.0952 112.133 39.0682 113.047C38.993 115.456 36.685 117.277 34.3289 116.802C32.3449 116.402 31.057 114.824 31.0184 112.73C31.003 111.896 31.0165 111.063 31.0165 110.227C30.0524 110.227 29.2079 110.19 28.3692 110.233C25.0394 110.405 22.0759 113.258 21.8638 116.591C21.7424 118.49 21.7906 120.402 21.779 122.308C21.7732 123.463 21.6479 123.355 22.8202 123.355C43.1075 123.357 63.3948 123.357 83.6802 123.357C83.8248 123.357 83.9714 123.341 84.1141 123.359C84.5807 123.413 84.7445 123.226 84.7388 122.747C84.7156 121.008 84.7426 119.272 84.7214 117.534C84.7137 116.981 84.6713 116.419 84.5498 115.882C83.6918 112.093 80.3601 109.555 75.4897 110.299C75.4897 111.123 75.509 111.964 75.4859 112.802C75.4184 115.141 73.6137 116.937 71.3925 116.896C69.1425 116.856 67.4419 115.05 67.4323 112.69C67.4284 111.896 67.4303 111.102 67.4303 110.248ZM37.4428 108.802H37.4447C37.4447 107.452 37.4794 106.1 37.4351 104.75C37.3869 103.311 36.3168 102.277 35.0057 102.32C33.6541 102.362 32.7016 103.396 32.6978 104.854C32.6901 107.483 32.692 110.113 32.6997 112.742C32.6997 113.026 32.7248 113.325 32.8115 113.594C33.1759 114.735 34.2441 115.365 35.4723 115.193C36.5713 115.038 37.3888 114.111 37.4331 112.852C37.4775 111.502 37.4428 110.152 37.4428 108.802ZM73.8123 108.813C73.8123 107.463 73.8239 106.111 73.8084 104.761C73.7949 103.396 72.8637 102.403 71.5506 102.322C70.2993 102.245 69.1309 103.207 69.0981 104.553C69.0306 107.371 69.0268 110.194 69.1 113.012C69.1367 114.414 70.2473 115.28 71.6297 115.206C72.8772 115.141 73.7949 114.136 73.8084 112.79C73.8219 111.467 73.8123 110.14 73.8123 108.813Z"/>
</mask>
<path d="M27.6577 174.86C26.5317 174.408 25.3113 174.107 24.2952 173.477C21.5843 171.793 20.1594 169.265 20.1556 166.056C20.1324 149.811 20.1401 133.566 20.1478 117.319C20.1498 112.52 24.0811 108.582 28.8782 108.529C29.5511 108.522 30.224 108.528 31.0145 108.528C31.0145 108.213 31.0088 107.935 31.0165 107.658C31.0493 106.43 30.9741 105.186 31.1437 103.977C31.4329 101.897 33.3128 100.543 35.4781 100.705C37.4004 100.85 39.0354 102.604 39.0701 104.593C39.0913 105.87 39.0739 107.147 39.0739 108.475C48.5235 108.475 57.9306 108.475 67.4303 108.475C67.4303 107.208 67.4072 105.938 67.4361 104.667C67.4747 103.023 68.2536 101.806 69.719 101.092C71.165 100.387 72.586 100.559 73.8721 101.509C74.9981 102.341 75.4762 103.525 75.4859 104.906C75.4955 106.084 75.4878 107.262 75.4878 108.458C76.6716 108.528 77.8015 108.52 78.9121 108.67C83.0517 109.233 86.3352 112.985 86.3526 117.176C86.3757 123.09 86.3603 129.004 86.3603 134.918C86.3603 145.13 86.2967 155.341 86.3873 165.55C86.4316 170.456 82.9784 174.143 79.0162 174.742C78.9545 174.752 78.9024 174.821 78.8465 174.862C61.7849 174.86 44.7213 174.86 27.6577 174.86ZM21.7771 125.039C21.7771 125.35 21.7771 125.588 21.7771 125.823C21.7771 139.073 21.7752 152.324 21.7848 165.574C21.7848 166.221 21.8195 166.885 21.9583 167.513C22.7411 171.041 25.5908 173.236 29.3641 173.236C45.2901 173.239 61.2161 173.239 77.1421 173.23C77.788 173.23 78.4493 173.185 79.076 173.04C82.5947 172.227 84.7291 169.404 84.7291 165.576C84.7349 152.326 84.731 139.075 84.731 125.825C84.731 125.57 84.731 125.315 84.731 125.037C63.7091 125.039 42.8009 125.039 21.7771 125.039ZM67.4303 110.248C57.9345 110.248 48.5312 110.248 39.072 110.248C39.072 111.22 39.0952 112.133 39.0682 113.047C38.993 115.456 36.685 117.277 34.3289 116.802C32.3449 116.402 31.057 114.824 31.0184 112.73C31.003 111.896 31.0165 111.063 31.0165 110.227C30.0524 110.227 29.2079 110.19 28.3692 110.233C25.0394 110.405 22.0759 113.258 21.8638 116.591C21.7424 118.49 21.7906 120.402 21.779 122.308C21.7732 123.463 21.6479 123.355 22.8202 123.355C43.1075 123.357 63.3948 123.357 83.6802 123.357C83.8248 123.357 83.9714 123.341 84.1141 123.359C84.5807 123.413 84.7445 123.226 84.7388 122.747C84.7156 121.008 84.7426 119.272 84.7214 117.534C84.7137 116.981 84.6713 116.419 84.5498 115.882C83.6918 112.093 80.3601 109.555 75.4897 110.299C75.4897 111.123 75.509 111.964 75.4859 112.802C75.4184 115.141 73.6137 116.937 71.3925 116.896C69.1425 116.856 67.4419 115.05 67.4323 112.69C67.4284 111.896 67.4303 111.102 67.4303 110.248ZM37.4428 108.802H37.4447C37.4447 107.452 37.4794 106.1 37.4351 104.75C37.3869 103.311 36.3168 102.277 35.0057 102.32C33.6541 102.362 32.7016 103.396 32.6978 104.854C32.6901 107.483 32.692 110.113 32.6997 112.742C32.6997 113.026 32.7248 113.325 32.8115 113.594C33.1759 114.735 34.2441 115.365 35.4723 115.193C36.5713 115.038 37.3888 114.111 37.4331 112.852C37.4775 111.502 37.4428 110.152 37.4428 108.802ZM73.8123 108.813C73.8123 107.463 73.8239 106.111 73.8084 104.761C73.7949 103.396 72.8637 102.403 71.5506 102.322C70.2993 102.245 69.1309 103.207 69.0981 104.553C69.0306 107.371 69.0268 110.194 69.1 113.012C69.1367 114.414 70.2473 115.28 71.6297 115.206C72.8772 115.141 73.7949 114.136 73.8084 112.79C73.8219 111.467 73.8123 110.14 73.8123 108.813Z" fill="#323232"/>
<path d="M27.6577 174.86C26.5317 174.408 25.3113 174.107 24.2952 173.477C21.5843 171.793 20.1594 169.265 20.1556 166.056C20.1324 149.811 20.1401 133.566 20.1478 117.319C20.1498 112.52 24.0811 108.582 28.8782 108.529C29.5511 108.522 30.224 108.528 31.0145 108.528C31.0145 108.213 31.0088 107.935 31.0165 107.658C31.0493 106.43 30.9741 105.186 31.1437 103.977C31.4329 101.897 33.3128 100.543 35.4781 100.705C37.4004 100.85 39.0354 102.604 39.0701 104.593C39.0913 105.87 39.0739 107.147 39.0739 108.475C48.5235 108.475 57.9306 108.475 67.4303 108.475C67.4303 107.208 67.4072 105.938 67.4361 104.667C67.4747 103.023 68.2536 101.806 69.719 101.092C71.165 100.387 72.586 100.559 73.8721 101.509C74.9981 102.341 75.4762 103.525 75.4859 104.906C75.4955 106.084 75.4878 107.262 75.4878 108.458C76.6716 108.528 77.8015 108.52 78.9121 108.67C83.0517 109.233 86.3352 112.985 86.3526 117.176C86.3757 123.09 86.3603 129.004 86.3603 134.918C86.3603 145.13 86.2967 155.341 86.3873 165.55C86.4316 170.456 82.9784 174.143 79.0162 174.742C78.9545 174.752 78.9024 174.821 78.8465 174.862C61.7849 174.86 44.7213 174.86 27.6577 174.86ZM21.7771 125.039C21.7771 125.35 21.7771 125.588 21.7771 125.823C21.7771 139.073 21.7752 152.324 21.7848 165.574C21.7848 166.221 21.8195 166.885 21.9583 167.513C22.7411 171.041 25.5908 173.236 29.3641 173.236C45.2901 173.239 61.2161 173.239 77.1421 173.23C77.788 173.23 78.4493 173.185 79.076 173.04C82.5947 172.227 84.7291 169.404 84.7291 165.576C84.7349 152.326 84.731 139.075 84.731 125.825C84.731 125.57 84.731 125.315 84.731 125.037C63.7091 125.039 42.8009 125.039 21.7771 125.039ZM67.4303 110.248C57.9345 110.248 48.5312 110.248 39.072 110.248C39.072 111.22 39.0952 112.133 39.0682 113.047C38.993 115.456 36.685 117.277 34.3289 116.802C32.3449 116.402 31.057 114.824 31.0184 112.73C31.003 111.896 31.0165 111.063 31.0165 110.227C30.0524 110.227 29.2079 110.19 28.3692 110.233C25.0394 110.405 22.0759 113.258 21.8638 116.591C21.7424 118.49 21.7906 120.402 21.779 122.308C21.7732 123.463 21.6479 123.355 22.8202 123.355C43.1075 123.357 63.3948 123.357 83.6802 123.357C83.8248 123.357 83.9714 123.341 84.1141 123.359C84.5807 123.413 84.7445 123.226 84.7388 122.747C84.7156 121.008 84.7426 119.272 84.7214 117.534C84.7137 116.981 84.6713 116.419 84.5498 115.882C83.6918 112.093 80.3601 109.555 75.4897 110.299C75.4897 111.123 75.509 111.964 75.4859 112.802C75.4184 115.141 73.6137 116.937 71.3925 116.896C69.1425 116.856 67.4419 115.05 67.4323 112.69C67.4284 111.896 67.4303 111.102 67.4303 110.248ZM37.4428 108.802H37.4447C37.4447 107.452 37.4794 106.1 37.4351 104.75C37.3869 103.311 36.3168 102.277 35.0057 102.32C33.6541 102.362 32.7016 103.396 32.6978 104.854C32.6901 107.483 32.692 110.113 32.6997 112.742C32.6997 113.026 32.7248 113.325 32.8115 113.594C33.1759 114.735 34.2441 115.365 35.4723 115.193C36.5713 115.038 37.3888 114.111 37.4331 112.852C37.4775 111.502 37.4428 110.152 37.4428 108.802ZM73.8123 108.813C73.8123 107.463 73.8239 106.111 73.8084 104.761C73.7949 103.396 72.8637 102.403 71.5506 102.322C70.2993 102.245 69.1309 103.207 69.0981 104.553C69.0306 107.371 69.0268 110.194 69.1 113.012C69.1367 114.414 70.2473 115.28 71.6297 115.206C72.8772 115.141 73.7949 114.136 73.8084 112.79C73.8219 111.467 73.8123 110.14 73.8123 108.813Z" stroke="#323232" stroke-width="1.272" mask="url(#path-18-outside-6_2334_18318)"/>
<mask id="path-19-outside-7_2334_18318" maskUnits="userSpaceOnUse" x="25.3633" y="129.926" width="56" height="40" fill="black">
<rect fill="white" x="25.3633" y="129.926" width="56" height="40"/>
<path d="M53.2292 168.792C44.7476 168.792 36.264 168.792 27.7824 168.792C26.4925 168.792 26.3633 168.664 26.3633 167.399C26.3633 155.716 26.3633 144.033 26.3633 132.348C26.3633 131.06 26.4905 130.927 27.7611 130.927C35.9285 130.925 44.0978 130.927 52.2652 130.927C61.0592 130.927 69.8532 130.927 78.6453 130.927C80.0239 130.927 80.1434 131.044 80.1434 132.395C80.1434 144.078 80.1434 155.761 80.1434 167.446C80.1434 168.63 79.9872 168.79 78.8207 168.79C70.2909 168.794 61.761 168.792 53.2292 168.792ZM39.347 132.607C35.5371 132.607 31.7966 132.607 28.0369 132.607C28.0369 136.188 28.0369 139.72 28.0369 143.29C31.8256 143.29 35.568 143.29 39.347 143.29C39.347 139.716 39.347 136.184 39.347 132.607ZM78.4602 143.29C78.4602 139.703 78.4602 136.153 78.4602 132.605C74.6618 132.605 70.9194 132.605 67.1616 132.605C67.1616 136.184 67.1616 139.716 67.1616 143.29C70.9406 143.29 74.6811 143.29 78.4602 143.29ZM28.0542 156.448C28.0542 160.043 28.0542 163.591 28.0542 167.125C31.8603 167.125 35.6007 167.125 39.3432 167.125C39.3432 163.538 39.3432 160.006 39.3432 156.448C35.5583 156.448 31.8178 156.448 28.0542 156.448ZM67.1481 167.123C70.9657 167.123 74.7081 167.123 78.4582 167.123C78.4582 163.537 78.4582 160.002 78.4582 156.46C74.658 156.46 70.9156 156.46 67.1481 156.46C67.1481 160.039 67.1481 163.556 67.1481 167.123ZM41.0939 143.28C44.8748 143.28 48.6115 143.28 52.377 143.28C52.377 139.697 52.377 136.165 52.377 132.601C48.598 132.601 44.8575 132.601 41.0939 132.601C41.0939 136.178 41.0939 139.711 41.0939 143.28ZM65.3974 143.292C65.3974 139.67 65.3974 136.14 65.3974 132.617C61.6029 132.617 57.8624 132.617 54.1451 132.617C54.1451 136.209 54.1451 139.742 54.1451 143.292C57.9203 143.292 61.6396 143.292 65.3974 143.292ZM52.3558 167.156C52.3558 163.544 52.3558 159.992 52.3558 156.448C48.5748 156.448 44.8536 156.448 41.117 156.448C41.117 160.043 41.117 163.589 41.117 167.156C44.8845 167.156 48.5864 167.156 52.3558 167.156ZM65.4128 156.45C61.6029 156.45 57.8836 156.45 54.1586 156.45C54.1586 160.048 54.1586 163.594 54.1586 167.133C57.9434 167.133 61.6627 167.133 65.4128 167.133C65.4128 163.558 65.4128 160.027 65.4128 156.45ZM39.3412 154.708C39.3412 151.454 39.3412 148.257 39.3412 145.045C35.5525 145.045 31.8082 145.045 28.0388 145.045C28.0388 148.288 28.0388 151.483 28.0388 154.708C31.8159 154.708 35.5448 154.708 39.3412 154.708ZM67.1462 154.685C70.9657 154.685 74.7081 154.685 78.4582 154.685C78.4582 151.438 78.4582 148.244 78.4582 145.051C74.658 145.051 70.9136 145.051 67.1462 145.051C67.1462 148.282 67.1462 151.459 67.1462 154.685ZM52.3867 145.041C48.5806 145.041 44.8556 145.041 41.0977 145.041C41.0977 148.278 41.0977 151.471 41.0977 154.685C44.8864 154.685 48.6288 154.685 52.3867 154.685C52.3867 151.454 52.3867 148.275 52.3867 145.041ZM54.147 145.038C54.147 148.3 54.147 151.494 54.147 154.696C57.9261 154.696 61.6492 154.696 65.4109 154.696C65.4109 151.463 65.4109 148.269 65.4109 145.038C61.6434 145.038 57.9203 145.038 54.147 145.038Z"/>
</mask>
<path d="M53.2292 168.792C44.7476 168.792 36.264 168.792 27.7824 168.792C26.4925 168.792 26.3633 168.664 26.3633 167.399C26.3633 155.716 26.3633 144.033 26.3633 132.348C26.3633 131.06 26.4905 130.927 27.7611 130.927C35.9285 130.925 44.0978 130.927 52.2652 130.927C61.0592 130.927 69.8532 130.927 78.6453 130.927C80.0239 130.927 80.1434 131.044 80.1434 132.395C80.1434 144.078 80.1434 155.761 80.1434 167.446C80.1434 168.63 79.9872 168.79 78.8207 168.79C70.2909 168.794 61.761 168.792 53.2292 168.792ZM39.347 132.607C35.5371 132.607 31.7966 132.607 28.0369 132.607C28.0369 136.188 28.0369 139.72 28.0369 143.29C31.8256 143.29 35.568 143.29 39.347 143.29C39.347 139.716 39.347 136.184 39.347 132.607ZM78.4602 143.29C78.4602 139.703 78.4602 136.153 78.4602 132.605C74.6618 132.605 70.9194 132.605 67.1616 132.605C67.1616 136.184 67.1616 139.716 67.1616 143.29C70.9406 143.29 74.6811 143.29 78.4602 143.29ZM28.0542 156.448C28.0542 160.043 28.0542 163.591 28.0542 167.125C31.8603 167.125 35.6007 167.125 39.3432 167.125C39.3432 163.538 39.3432 160.006 39.3432 156.448C35.5583 156.448 31.8178 156.448 28.0542 156.448ZM67.1481 167.123C70.9657 167.123 74.7081 167.123 78.4582 167.123C78.4582 163.537 78.4582 160.002 78.4582 156.46C74.658 156.46 70.9156 156.46 67.1481 156.46C67.1481 160.039 67.1481 163.556 67.1481 167.123ZM41.0939 143.28C44.8748 143.28 48.6115 143.28 52.377 143.28C52.377 139.697 52.377 136.165 52.377 132.601C48.598 132.601 44.8575 132.601 41.0939 132.601C41.0939 136.178 41.0939 139.711 41.0939 143.28ZM65.3974 143.292C65.3974 139.67 65.3974 136.14 65.3974 132.617C61.6029 132.617 57.8624 132.617 54.1451 132.617C54.1451 136.209 54.1451 139.742 54.1451 143.292C57.9203 143.292 61.6396 143.292 65.3974 143.292ZM52.3558 167.156C52.3558 163.544 52.3558 159.992 52.3558 156.448C48.5748 156.448 44.8536 156.448 41.117 156.448C41.117 160.043 41.117 163.589 41.117 167.156C44.8845 167.156 48.5864 167.156 52.3558 167.156ZM65.4128 156.45C61.6029 156.45 57.8836 156.45 54.1586 156.45C54.1586 160.048 54.1586 163.594 54.1586 167.133C57.9434 167.133 61.6627 167.133 65.4128 167.133C65.4128 163.558 65.4128 160.027 65.4128 156.45ZM39.3412 154.708C39.3412 151.454 39.3412 148.257 39.3412 145.045C35.5525 145.045 31.8082 145.045 28.0388 145.045C28.0388 148.288 28.0388 151.483 28.0388 154.708C31.8159 154.708 35.5448 154.708 39.3412 154.708ZM67.1462 154.685C70.9657 154.685 74.7081 154.685 78.4582 154.685C78.4582 151.438 78.4582 148.244 78.4582 145.051C74.658 145.051 70.9136 145.051 67.1462 145.051C67.1462 148.282 67.1462 151.459 67.1462 154.685ZM52.3867 145.041C48.5806 145.041 44.8556 145.041 41.0977 145.041C41.0977 148.278 41.0977 151.471 41.0977 154.685C44.8864 154.685 48.6288 154.685 52.3867 154.685C52.3867 151.454 52.3867 148.275 52.3867 145.041ZM54.147 145.038C54.147 148.3 54.147 151.494 54.147 154.696C57.9261 154.696 61.6492 154.696 65.4109 154.696C65.4109 151.463 65.4109 148.269 65.4109 145.038C61.6434 145.038 57.9203 145.038 54.147 145.038Z" fill="#323232"/>
<path d="M53.2292 168.792C44.7476 168.792 36.264 168.792 27.7824 168.792C26.4925 168.792 26.3633 168.664 26.3633 167.399C26.3633 155.716 26.3633 144.033 26.3633 132.348C26.3633 131.06 26.4905 130.927 27.7611 130.927C35.9285 130.925 44.0978 130.927 52.2652 130.927C61.0592 130.927 69.8532 130.927 78.6453 130.927C80.0239 130.927 80.1434 131.044 80.1434 132.395C80.1434 144.078 80.1434 155.761 80.1434 167.446C80.1434 168.63 79.9872 168.79 78.8207 168.79C70.2909 168.794 61.761 168.792 53.2292 168.792ZM39.347 132.607C35.5371 132.607 31.7966 132.607 28.0369 132.607C28.0369 136.188 28.0369 139.72 28.0369 143.29C31.8256 143.29 35.568 143.29 39.347 143.29C39.347 139.716 39.347 136.184 39.347 132.607ZM78.4602 143.29C78.4602 139.703 78.4602 136.153 78.4602 132.605C74.6618 132.605 70.9194 132.605 67.1616 132.605C67.1616 136.184 67.1616 139.716 67.1616 143.29C70.9406 143.29 74.6811 143.29 78.4602 143.29ZM28.0542 156.448C28.0542 160.043 28.0542 163.591 28.0542 167.125C31.8603 167.125 35.6007 167.125 39.3432 167.125C39.3432 163.538 39.3432 160.006 39.3432 156.448C35.5583 156.448 31.8178 156.448 28.0542 156.448ZM67.1481 167.123C70.9657 167.123 74.7081 167.123 78.4582 167.123C78.4582 163.537 78.4582 160.002 78.4582 156.46C74.658 156.46 70.9156 156.46 67.1481 156.46C67.1481 160.039 67.1481 163.556 67.1481 167.123ZM41.0939 143.28C44.8748 143.28 48.6115 143.28 52.377 143.28C52.377 139.697 52.377 136.165 52.377 132.601C48.598 132.601 44.8575 132.601 41.0939 132.601C41.0939 136.178 41.0939 139.711 41.0939 143.28ZM65.3974 143.292C65.3974 139.67 65.3974 136.14 65.3974 132.617C61.6029 132.617 57.8624 132.617 54.1451 132.617C54.1451 136.209 54.1451 139.742 54.1451 143.292C57.9203 143.292 61.6396 143.292 65.3974 143.292ZM52.3558 167.156C52.3558 163.544 52.3558 159.992 52.3558 156.448C48.5748 156.448 44.8536 156.448 41.117 156.448C41.117 160.043 41.117 163.589 41.117 167.156C44.8845 167.156 48.5864 167.156 52.3558 167.156ZM65.4128 156.45C61.6029 156.45 57.8836 156.45 54.1586 156.45C54.1586 160.048 54.1586 163.594 54.1586 167.133C57.9434 167.133 61.6627 167.133 65.4128 167.133C65.4128 163.558 65.4128 160.027 65.4128 156.45ZM39.3412 154.708C39.3412 151.454 39.3412 148.257 39.3412 145.045C35.5525 145.045 31.8082 145.045 28.0388 145.045C28.0388 148.288 28.0388 151.483 28.0388 154.708C31.8159 154.708 35.5448 154.708 39.3412 154.708ZM67.1462 154.685C70.9657 154.685 74.7081 154.685 78.4582 154.685C78.4582 151.438 78.4582 148.244 78.4582 145.051C74.658 145.051 70.9136 145.051 67.1462 145.051C67.1462 148.282 67.1462 151.459 67.1462 154.685ZM52.3867 145.041C48.5806 145.041 44.8556 145.041 41.0977 145.041C41.0977 148.278 41.0977 151.471 41.0977 154.685C44.8864 154.685 48.6288 154.685 52.3867 154.685C52.3867 151.454 52.3867 148.275 52.3867 145.041ZM54.147 145.038C54.147 148.3 54.147 151.494 54.147 154.696C57.9261 154.696 61.6492 154.696 65.4109 154.696C65.4109 151.463 65.4109 148.269 65.4109 145.038C61.6434 145.038 57.9203 145.038 54.147 145.038Z" stroke="#323232" stroke-width="1.272" mask="url(#path-19-outside-7_2334_18318)"/>
<mask id="path-20-outside-8_2334_18318" maskUnits="userSpaceOnUse" x="43.313" y="114.928" width="20" height="4" fill="black">
<rect fill="white" x="43.313" y="114.928" width="20" height="4"/>
<path d="M53.2516 115.932C55.7562 115.932 58.2627 115.932 60.7673 115.932C60.9601 115.932 61.1548 115.92 61.3457 115.941C61.8393 115.995 62.1748 116.268 62.1767 116.772C62.1786 117.282 61.8277 117.54 61.3419 117.604C61.1529 117.629 60.9562 117.616 60.7654 117.616C55.7543 117.616 50.7432 117.616 45.7321 117.616C45.6607 117.616 45.5875 117.616 45.5161 117.616C44.741 117.604 44.3111 117.301 44.313 116.77C44.3149 116.235 44.7352 115.935 45.52 115.934C48.0959 115.93 50.6738 115.932 53.2516 115.932Z"/>
</mask>
<path d="M53.2516 115.932C55.7562 115.932 58.2627 115.932 60.7673 115.932C60.9601 115.932 61.1548 115.92 61.3457 115.941C61.8393 115.995 62.1748 116.268 62.1767 116.772C62.1786 117.282 61.8277 117.54 61.3419 117.604C61.1529 117.629 60.9562 117.616 60.7654 117.616C55.7543 117.616 50.7432 117.616 45.7321 117.616C45.6607 117.616 45.5875 117.616 45.5161 117.616C44.741 117.604 44.3111 117.301 44.313 116.77C44.3149 116.235 44.7352 115.935 45.52 115.934C48.0959 115.93 50.6738 115.932 53.2516 115.932Z" fill="#323232"/>
<path d="M53.2516 115.932C55.7562 115.932 58.2627 115.932 60.7673 115.932C60.9601 115.932 61.1548 115.92 61.3457 115.941C61.8393 115.995 62.1748 116.268 62.1767 116.772C62.1786 117.282 61.8277 117.54 61.3419 117.604C61.1529 117.629 60.9562 117.616 60.7654 117.616C55.7543 117.616 50.7432 117.616 45.7321 117.616C45.6607 117.616 45.5875 117.616 45.5161 117.616C44.741 117.604 44.3111 117.301 44.313 116.77C44.3149 116.235 44.7352 115.935 45.52 115.934C48.0959 115.93 50.6738 115.932 53.2516 115.932Z" stroke="#323232" stroke-width="1.272" mask="url(#path-20-outside-8_2334_18318)"/>
</svg>
