<svg width="108" height="108" viewBox="0 0 108 108" fill="none" xmlns="http://www.w3.org/2000/svg">
<rect y="8" width="100" height="100" rx="24" fill="#FFD27C"/>
<rect x="9" y="1" width="98" height="98" rx="23" stroke="#323232" stroke-width="2"/>
<path d="M33.6553 80C33.6553 77.3973 33.8259 75.1147 34.1673 73.152C34.5086 71.1467 35.0419 69.376 35.7673 67.84C36.5353 66.2613 37.5166 64.8747 38.7113 63.68C39.9059 62.4853 41.3779 61.3547 43.1273 60.288C44.6206 59.4347 46.1566 58.6027 47.7353 57.792C49.3566 56.9813 50.8499 56.128 52.2153 55.232C53.6233 54.336 54.7539 53.312 55.6073 52.16C56.5033 51.008 56.9513 49.6 56.9513 47.936C56.9513 46.656 56.6739 45.568 56.1193 44.672C55.6073 43.7333 54.8393 43.008 53.8153 42.496C52.8339 41.984 51.6393 41.728 50.2313 41.728C48.6099 41.728 47.0953 42.0267 45.6873 42.624C44.3219 43.1787 43.0846 43.8827 41.9753 44.736C40.9086 45.5467 39.9913 46.3573 39.2233 47.168L33.8473 41.536C34.4446 40.8533 35.2553 40.0853 36.2793 39.232C37.3459 38.3787 38.6046 37.5467 40.0553 36.736C41.5486 35.9253 43.2339 35.264 45.1113 34.752C46.9886 34.24 49.0579 33.984 51.3193 33.984C54.6473 33.984 57.4419 34.5813 59.7033 35.776C61.9646 36.928 63.6713 38.528 64.8232 40.576C66.0179 42.5813 66.6153 44.9067 66.6153 47.552C66.6153 49.472 66.2953 51.1787 65.6553 52.672C65.0579 54.1227 64.2259 55.4027 63.1593 56.512C62.0926 57.6213 60.8979 58.624 59.5753 59.52C58.2526 60.3733 56.8873 61.2053 55.4793 62.016C53.2606 63.2107 51.4686 64.256 50.1033 65.152C48.7379 66.048 47.6499 66.88 46.8393 67.648C46.0713 68.416 45.4739 69.184 45.0473 69.952C44.6633 70.6773 44.3219 71.4453 44.0233 72.256H66.6793V80H33.6553Z" fill="white"/>
<path fill-rule="evenodd" clip-rule="evenodd" d="M39.6536 74.0004V72.0004C39.6536 69.3171 39.8291 66.9165 40.1946 64.8133C40.5606 62.6641 41.141 60.7146 41.9571 58.9864L41.9621 58.9759L41.9671 58.9654C42.8285 57.1948 43.9375 55.6241 45.2954 54.2662C46.6231 52.9385 48.2271 51.7133 50.0844 50.5808L50.1086 50.566L50.1333 50.5519C51.6534 49.6833 53.2156 48.8371 54.82 48.0132L54.8296 48.0083L54.8392 48.0035C56.3981 47.224 57.8229 46.4091 59.1163 45.5603L59.128 45.5526L59.1398 45.5451C60.3745 44.7594 61.3128 43.8956 61.9985 42.9699L62.0125 42.951L62.0269 42.9325C62.6122 42.1799 62.9496 41.221 62.9496 39.9364C62.9496 38.9482 62.7377 38.243 62.4171 37.7251L62.3881 37.6783L62.3618 37.6301C62.0594 37.0757 61.6052 36.6282 60.9192 36.2852L60.9037 36.2775L60.8885 36.2695C60.2599 35.9416 59.4009 35.7284 58.2296 35.7284C56.8603 35.7284 55.613 35.9792 54.4667 36.4655L54.4526 36.4715L54.4384 36.4773C53.2311 36.9678 52.1522 37.5838 51.193 38.3216L51.1838 38.3287C50.187 39.0863 49.3539 39.8256 48.6735 40.5439L47.2271 42.0707L39.1367 33.5951L40.3404 32.2194C41.0307 31.4305 41.9264 30.5883 42.9972 29.6959L43.0126 29.6831L43.0282 29.6706C44.197 28.7356 45.5509 27.8438 47.078 26.9905L47.0886 26.9845L47.0994 26.9787C48.7462 26.0847 50.5783 25.3697 52.5834 24.8228C54.6573 24.2572 56.9065 23.9844 59.3176 23.9844C62.8703 23.9844 66.0024 24.6202 68.6226 26.001C71.1918 27.3127 73.1941 29.1694 74.5525 31.5741C75.9465 33.9235 76.6136 36.6047 76.6136 39.5524C76.6136 41.6894 76.258 43.6669 75.4977 45.4467C74.807 47.1195 73.84 48.6082 72.5993 49.8986C71.432 51.1125 70.1293 52.2048 68.6953 53.1762L68.6767 53.1888L68.6579 53.201C67.306 54.0732 65.9118 54.9227 64.4755 55.7496L64.4509 55.7638L64.4258 55.7773C62.234 56.9575 60.4974 57.9724 59.1989 58.8245C57.9039 59.6743 56.9267 60.4275 56.2327 61.0818C55.8258 61.4904 55.4915 61.8823 55.2211 62.2564H76.6776V74.0004H39.6536ZM53.0456 61.9524C53.4723 61.1844 54.0696 60.4164 54.8376 59.6484C55.6483 58.8804 56.7363 58.0484 58.1016 57.1524C59.4669 56.2564 61.2589 55.211 63.4776 54.0164C64.8856 53.2057 66.2509 52.3737 67.5736 51.5204C68.8963 50.6244 70.0909 49.6217 71.1576 48.5124C72.2243 47.403 73.0563 46.123 73.6536 44.6724C74.2936 43.179 74.6136 41.4724 74.6136 39.5524C74.6136 36.907 74.0163 34.5817 72.8216 32.5764C71.6696 30.5284 69.9629 28.9284 67.7016 27.7764C65.4403 26.5817 62.6456 25.9844 59.3176 25.9844C57.0563 25.9844 54.9869 26.2404 53.1096 26.7524C51.2323 27.2644 49.5469 27.9257 48.0536 28.7364C46.6029 29.547 45.3443 30.379 44.2776 31.2324C43.2536 32.0857 42.4429 32.8537 41.8456 33.5364L47.2216 39.1684C47.6396 38.7272 48.1017 38.286 48.6082 37.8448C49.0323 37.4754 49.4874 37.1059 49.9736 36.7364C51.0829 35.883 52.3203 35.179 53.6856 34.6244C55.0936 34.027 56.6083 33.7284 58.2296 33.7284C59.6376 33.7284 60.8323 33.9844 61.8136 34.4964C62.8376 35.0084 63.6056 35.7337 64.1176 36.6724C64.6723 37.5684 64.9496 38.6564 64.9496 39.9364C64.9496 41.6004 64.5016 43.0084 63.6056 44.1604C62.7523 45.3124 61.6216 46.3364 60.2136 47.2324C58.8483 48.1284 57.3549 48.9817 55.7336 49.7924C54.1549 50.603 52.6189 51.435 51.1256 52.2884C49.3763 53.355 47.9043 54.4857 46.7096 55.6804C45.5149 56.875 44.5336 58.2617 43.7656 59.8404C43.0403 61.3764 42.5069 63.147 42.1656 65.1524C41.9146 66.5954 41.7559 68.2114 41.6895 70.0004C41.6656 70.6446 41.6536 71.3113 41.6536 72.0004H74.6776V64.2564H52.0216C52.2789 63.558 52.5678 62.8914 52.8884 62.2564C52.94 62.1542 52.9924 62.0529 53.0456 61.9524Z" fill="#323232"/>
</svg>
