<svg width="168" height="110" viewBox="0 0 168 110" fill="none" xmlns="http://www.w3.org/2000/svg">
<path opacity="0.1" d="M5.23569 78.0628L5.23669 78.0659C7.39156 84.6263 10.3088 90.1232 14.0174 94.515C17.713 98.8914 22.0161 102.175 26.9255 104.335C31.7995 106.48 36.9001 107.554 42.2143 107.554C47.5271 107.554 52.6265 106.48 57.4994 104.337C62.4555 102.178 66.7837 98.8939 70.4815 94.515C74.1895 90.1239 77.1064 84.628 79.2612 78.069C81.4786 71.4154 82.5691 63.6138 82.5691 54.6924C82.5691 45.7715 81.4787 37.9703 79.2615 31.3169C77.1078 24.714 74.1921 19.1948 70.4842 14.8028C66.7875 10.3774 62.459 7.06838 57.5004 4.90775C52.6271 2.76398 47.5275 1.69043 42.2143 1.69043C36.9001 1.69043 31.7995 2.7644 26.9255 4.90898C22.0131 7.0704 17.7095 10.3796 14.0147 14.8028C10.3058 19.1959 7.38954 24.7169 5.23569 31.322C3.06687 37.9731 2 45.7724 2 54.6924C2 63.6125 3.06687 71.4118 5.23569 78.0628ZM64.581 35.7464L64.583 35.7541L64.5851 35.7617C65.9446 40.7921 66.641 47.0914 66.641 54.6924C66.641 62.2934 65.9446 68.5927 64.585 73.6231L64.5818 73.6353C63.2564 78.7083 61.4512 82.7059 59.2121 85.6913L59.2079 85.697L59.2037 85.7027C56.9941 88.7078 54.4516 90.8196 51.5868 92.1042C48.6443 93.3764 45.5249 94.0146 42.2143 94.0146C38.9052 94.0146 35.787 93.377 32.8456 92.1059C30.0283 90.8225 27.5073 88.7112 25.2952 85.7027C23.0959 82.7117 21.2885 78.7072 19.9155 73.6292C18.601 68.595 17.9282 62.2932 17.9282 54.6924C17.9282 47.0908 18.6012 40.7884 19.9159 35.7539C21.2895 30.6274 23.0973 26.601 25.2952 23.6118C27.5084 20.6019 30.028 18.5169 32.8405 17.2811L32.8405 17.2812L32.8501 17.2769C35.7914 15.9599 38.9078 15.3 42.2143 15.3C45.5208 15.3 48.6372 15.9599 51.5785 17.2769L51.5871 17.2807L51.5957 17.2844C54.4543 18.5218 56.9941 20.6068 59.2037 23.6118L59.2079 23.6176L59.2121 23.6232C61.4495 26.6064 63.255 30.6254 64.581 35.7464ZM164.218 106.5H165.718V105V97.4117C165.718 95.8026 165.197 94.3727 164.084 93.2595C162.95 92.1254 161.46 91.6257 159.791 91.6257H126.065C124.199 91.6257 122.27 91.7971 120.28 92.1359C119.99 92.1785 119.7 92.2236 119.411 92.2714L142.443 68.7515C142.445 68.7496 142.447 68.7478 142.449 68.7459C145.273 65.9215 147.935 63.1186 150.433 60.3374C153.01 57.5218 155.282 54.628 157.248 51.6554C159.234 48.6521 160.812 45.4976 161.978 42.1932L161.981 42.1867C163.165 38.7819 163.75 35.1241 163.75 31.2249C163.75 26.6448 162.946 22.4969 161.301 18.81C159.673 15.1586 157.418 12.0537 154.533 9.51603C151.657 6.93899 148.272 4.99234 144.397 3.66812C140.527 2.34543 136.38 1.69043 131.967 1.69043C127.513 1.69043 123.345 2.34396 119.475 3.66536C115.608 4.93915 112.143 6.82986 109.093 9.3392L109.083 9.34689C106.068 11.8681 103.562 14.9957 101.559 18.7087L101.555 18.7151C99.5873 22.4051 98.2763 26.6289 97.5998 31.3641L97.3936 32.8073L98.8304 33.0545L105.365 34.1787L105.391 34.1833L105.418 34.1869C107.284 34.4391 109 34.3341 110.347 33.5932L110.358 33.5873L110.368 33.5812C111.799 32.7634 112.742 31.2716 113.362 29.463L113.391 29.3773L113.41 29.2887C113.844 27.2465 114.579 25.3939 115.609 23.7202C116.645 22.0371 117.912 20.5992 119.414 19.3978L119.418 19.3946C120.963 18.1499 122.73 17.1774 124.731 16.4814C126.708 15.7937 128.905 15.4405 131.335 15.4405C133.714 15.4405 135.915 15.7926 137.948 16.4847L137.962 16.4893L137.975 16.4937C139.986 17.1355 141.69 18.109 143.112 19.4052L143.12 19.4125L143.128 19.4196C144.58 20.7054 145.743 22.3614 146.602 24.4244L146.607 24.4348C147.448 26.4127 147.892 28.7813 147.892 31.5762C147.892 34.3807 147.492 37.0104 146.701 39.4737C145.897 41.9287 144.754 44.3753 143.264 46.8138C141.769 49.2612 139.948 51.7215 137.797 54.1939C135.617 56.6521 133.201 59.2301 130.55 61.9281C130.549 61.9293 130.547 61.9306 130.546 61.9319L98.3051 94.3134C98.3049 94.3136 98.3047 94.3138 98.3046 94.314C97.3816 95.2371 96.6749 96.2707 96.2165 97.4167C95.7803 98.5071 95.5471 99.6093 95.5471 100.714V105V106.5H97.0471H164.218Z" stroke="#7687C6" stroke-width="3"/>
</svg>
