<svg width="168" height="110" viewBox="0 0 168 110" fill="none" xmlns="http://www.w3.org/2000/svg">
<path opacity="0.1" d="M5.39975 78.0628L5.40076 78.0659C7.55562 84.6263 10.4729 90.1232 14.1815 94.515C17.8771 98.8914 22.1802 102.175 27.0895 104.335C31.9636 106.48 37.0642 107.554 42.3784 107.554C47.6912 107.554 52.7905 106.48 57.6634 104.337C62.6195 102.178 66.9478 98.8939 70.6455 94.515C74.3535 90.1239 77.2705 84.628 79.4252 78.069C81.6426 71.4154 82.7332 63.6138 82.7332 54.6924C82.7332 45.7715 81.6427 37.9703 79.4256 31.3169C77.2719 24.714 74.3562 19.1948 70.6482 14.8028C66.9516 10.3774 62.6231 7.06838 57.6644 4.90775C52.7912 2.76398 47.6915 1.69043 42.3784 1.69043C37.0642 1.69043 31.9636 2.7644 27.0895 4.90898C22.1772 7.0704 17.8735 10.3796 14.1788 14.8028C10.4699 19.1959 7.5536 24.7169 5.39975 31.322C3.23093 37.9731 2.16406 45.7724 2.16406 54.6924C2.16406 63.6125 3.23093 71.4118 5.39975 78.0628ZM64.745 35.7464L64.747 35.7541L64.7491 35.7617C66.1087 40.7921 66.805 47.0914 66.805 54.6924C66.805 62.2934 66.1087 68.5927 64.7491 73.6231L64.7459 73.6353C63.4205 78.7083 61.6153 82.7059 59.3762 85.6913L59.3719 85.697L59.3677 85.7027C57.1581 88.7078 54.6157 90.8196 51.7509 92.1042C48.8084 93.3764 45.6889 94.0146 42.3784 94.0146C39.0692 94.0146 35.951 93.377 33.0096 92.1059C30.1923 90.8225 27.6713 88.7112 25.4593 85.7027C23.26 82.7117 21.4526 78.7072 20.0796 73.6292C18.7651 68.595 18.0923 62.2932 18.0923 54.6924C18.0923 47.0908 18.7652 40.7884 20.08 35.7539C21.4536 30.6274 23.2614 26.601 25.4593 23.6118C27.6724 20.6019 30.1921 18.5169 33.0046 17.2811L33.0046 17.2812L33.0142 17.2769C35.9555 15.9599 39.0718 15.3 42.3784 15.3C45.6849 15.3 48.8013 15.9599 51.7426 17.2769L51.7511 17.2807L51.7597 17.2844C54.6184 18.5218 57.1582 20.6068 59.3677 23.6118L59.3719 23.6176L59.3762 23.6232C61.6136 26.6064 63.4191 30.6254 64.745 35.7464ZM98.2557 31.3641L98.0495 32.8073L99.4863 33.0545L106.021 34.1787L106.047 34.1833L106.074 34.1869C107.928 34.4374 109.643 34.3404 110.961 33.577L110.971 33.5711L110.981 33.5651C112.34 32.7498 113.273 31.2786 113.934 29.4988L113.973 29.396L113.995 29.2887C114.43 27.2465 115.165 25.3939 116.195 23.7202C117.23 22.0371 118.498 20.5992 120 19.3978L120.004 19.3946C121.548 18.1508 123.313 17.1789 125.312 16.483C127.344 15.7921 129.543 15.4405 131.921 15.4405C134.31 15.4405 136.494 15.7722 138.482 16.4206L138.491 16.4234C140.512 17.0685 142.222 18.0249 143.646 19.281C145.05 20.5203 146.164 22.1048 146.975 24.0688L146.981 24.0815L146.986 24.0942C147.824 26.0212 148.267 28.3388 148.267 31.0844C148.267 33.5356 147.852 35.7268 147.046 37.6785L147.04 37.6915L147.035 37.7045C146.294 39.5997 145.077 41.2404 143.346 42.6333L143.339 42.639L143.332 42.6448C141.655 44.028 139.395 45.1661 136.488 46.0157L136.482 46.0175C133.657 46.8561 130.151 47.3149 125.932 47.3608L124.448 47.3769V48.8607V57.9245V59.4245H125.948C131.12 59.4245 135.256 59.8879 138.4 60.7735L138.405 60.775C141.643 61.6745 144.069 62.8813 145.772 64.3349C147.494 65.8047 148.637 67.5141 149.249 69.4733C149.9 71.5566 150.234 73.8858 150.234 76.4736C150.234 78.4684 149.832 80.5065 149.005 82.5964C148.192 84.6503 146.969 86.5219 145.32 88.2145L145.313 88.2216L145.306 88.2289C143.732 89.8884 141.706 91.2789 139.193 92.3818C136.796 93.4081 133.939 93.9443 130.586 93.9443C126.936 93.9443 124.036 93.3797 121.815 92.3334C119.52 91.2294 117.665 89.9036 116.219 88.3718C114.715 86.7798 113.539 85.1421 112.676 83.4613C111.791 81.6458 111.048 80.0901 110.446 78.7929L110.442 78.7834L110.437 78.7739C109.629 77.0959 108.264 76.0165 106.444 75.6383C104.79 75.2849 103.118 75.5062 101.473 76.2169L96.0735 78.461L94.8089 78.9865L95.2174 80.2936C96.413 84.1194 97.8747 87.6923 99.6052 91.0091L99.6094 91.017C101.377 94.3556 103.641 97.2614 106.4 99.725C109.187 102.213 112.57 104.155 116.519 105.569L116.527 105.572L116.535 105.574C120.529 106.955 125.271 107.624 130.726 107.624C135.512 107.624 140.008 106.923 144.204 105.508L144.214 105.505C148.45 104.044 152.176 101.965 155.373 99.2594L155.383 99.2507C158.589 96.4886 161.105 93.1575 162.927 89.2715C164.814 85.3453 165.741 80.9523 165.741 76.1223C165.741 69.7044 163.996 64.2492 160.421 59.8642C157.653 56.3883 153.842 53.7685 149.062 51.9584C150.272 51.4117 151.423 50.8065 152.514 50.142C154.808 48.7461 156.767 47.042 158.379 45.0284C160.05 43.0013 161.305 40.6572 162.154 38.0136C163.055 35.3072 163.493 32.2888 163.493 28.9766C163.493 24.8979 162.73 21.146 161.179 17.7448C159.639 14.366 157.472 11.4736 154.683 9.08222C151.944 6.69279 148.677 4.86895 144.907 3.59607C141.128 2.32015 137.03 1.69043 132.623 1.69043C128.167 1.69043 123.977 2.34433 120.064 3.66447C116.196 4.93827 112.73 6.82927 109.678 9.3392L109.669 9.34689C106.651 11.8701 104.167 15.001 102.21 18.7183C100.242 22.4076 98.932 26.6302 98.2557 31.3641Z" stroke="#7687C6" stroke-width="3"/>
</svg>
