<svg width="172" height="109" viewBox="0 0 172 109" fill="none" xmlns="http://www.w3.org/2000/svg">
<g opacity="0.1">
<mask id="path-1-outside-1_2909_27903" maskUnits="userSpaceOnUse" x="0" y="0" width="172" height="109" fill="black">
<rect fill="white" width="172" height="109"/>
<path d="M80.5691 54.502C80.5691 63.3081 79.4918 70.9433 77.3371 77.4074C75.2292 83.8246 72.3953 89.1411 68.8354 93.3568C65.2755 97.5725 61.13 100.711 56.399 102.772C51.7149 104.833 46.82 105.863 41.7143 105.863C36.6086 105.863 31.7137 104.833 27.0296 102.772C22.3454 100.711 18.2234 97.5725 14.6635 93.3568C11.1035 89.1411 8.26964 83.8246 6.16179 77.4074C4.05393 70.9433 3 63.3081 3 54.502C3 45.6958 4.05393 38.0607 6.16179 31.5966C8.26964 25.1325 11.1035 19.7926 14.6635 15.5769C18.2234 11.3143 22.3454 8.15254 27.0296 6.09153C31.7137 4.03051 36.6086 3 41.7143 3C46.82 3 51.7149 4.03051 56.399 6.09153C61.13 8.15254 65.2755 11.3143 68.8354 15.5769C72.3953 19.7926 75.2292 25.1325 77.3371 31.5966C79.4918 38.0607 80.5691 45.6958 80.5691 54.502ZM67.641 54.502C67.641 46.82 66.9383 40.3793 65.5331 35.18C64.1747 29.9337 62.301 25.718 59.9121 22.5328C57.5701 19.3476 54.8299 17.0758 51.6915 15.7174C48.5531 14.3122 45.2274 13.6095 41.7143 13.6095C38.2012 13.6095 34.8755 14.3122 31.7371 15.7174C28.6456 17.0758 25.9288 19.3476 23.5867 22.5328C21.2447 25.718 19.371 29.9337 17.9658 35.18C16.6074 40.3793 15.9282 46.82 15.9282 54.502C15.9282 62.1839 16.6074 68.6246 17.9658 73.824C19.371 79.0234 21.2447 83.2157 23.5867 86.4009C25.9288 89.5861 28.6456 91.8813 31.7371 93.2866C34.8755 94.6449 38.2012 95.3242 41.7143 95.3242C45.2274 95.3242 48.5531 94.6449 51.6915 93.2866C54.8299 91.8813 57.5701 89.5861 59.9121 86.4009C62.301 83.2157 64.1747 79.0234 65.5331 73.824C66.9383 68.6246 67.641 62.1839 67.641 54.502ZM142.709 68.4841V26.9593C142.709 25.7414 142.756 24.4065 142.85 22.9544C142.943 21.5023 143.084 20.0268 143.271 18.5279L106.595 68.4841H142.709ZM168.917 68.4841V75.6508C168.917 76.4003 168.683 77.0326 168.214 77.5479C167.793 78.0631 167.114 78.3208 166.177 78.3208H153.67V104.81H142.709V78.3208H98.0226C97.0858 78.3208 96.2661 78.0631 95.5635 77.5479C94.9077 76.9858 94.4861 76.3066 94.2988 75.5103L93.034 69.1165L142.007 4.12419H153.67V68.4841H168.917Z"/>
</mask>
<path d="M80.5691 54.502C80.5691 63.3081 79.4918 70.9433 77.3371 77.4074C75.2292 83.8246 72.3953 89.1411 68.8354 93.3568C65.2755 97.5725 61.13 100.711 56.399 102.772C51.7149 104.833 46.82 105.863 41.7143 105.863C36.6086 105.863 31.7137 104.833 27.0296 102.772C22.3454 100.711 18.2234 97.5725 14.6635 93.3568C11.1035 89.1411 8.26964 83.8246 6.16179 77.4074C4.05393 70.9433 3 63.3081 3 54.502C3 45.6958 4.05393 38.0607 6.16179 31.5966C8.26964 25.1325 11.1035 19.7926 14.6635 15.5769C18.2234 11.3143 22.3454 8.15254 27.0296 6.09153C31.7137 4.03051 36.6086 3 41.7143 3C46.82 3 51.7149 4.03051 56.399 6.09153C61.13 8.15254 65.2755 11.3143 68.8354 15.5769C72.3953 19.7926 75.2292 25.1325 77.3371 31.5966C79.4918 38.0607 80.5691 45.6958 80.5691 54.502ZM67.641 54.502C67.641 46.82 66.9383 40.3793 65.5331 35.18C64.1747 29.9337 62.301 25.718 59.9121 22.5328C57.5701 19.3476 54.8299 17.0758 51.6915 15.7174C48.5531 14.3122 45.2274 13.6095 41.7143 13.6095C38.2012 13.6095 34.8755 14.3122 31.7371 15.7174C28.6456 17.0758 25.9288 19.3476 23.5867 22.5328C21.2447 25.718 19.371 29.9337 17.9658 35.18C16.6074 40.3793 15.9282 46.82 15.9282 54.502C15.9282 62.1839 16.6074 68.6246 17.9658 73.824C19.371 79.0234 21.2447 83.2157 23.5867 86.4009C25.9288 89.5861 28.6456 91.8813 31.7371 93.2866C34.8755 94.6449 38.2012 95.3242 41.7143 95.3242C45.2274 95.3242 48.5531 94.6449 51.6915 93.2866C54.8299 91.8813 57.5701 89.5861 59.9121 86.4009C62.301 83.2157 64.1747 79.0234 65.5331 73.824C66.9383 68.6246 67.641 62.1839 67.641 54.502ZM142.709 68.4841V26.9593C142.709 25.7414 142.756 24.4065 142.85 22.9544C142.943 21.5023 143.084 20.0268 143.271 18.5279L106.595 68.4841H142.709ZM168.917 68.4841V75.6508C168.917 76.4003 168.683 77.0326 168.214 77.5479C167.793 78.0631 167.114 78.3208 166.177 78.3208H153.67V104.81H142.709V78.3208H98.0226C97.0858 78.3208 96.2661 78.0631 95.5635 77.5479C94.9077 76.9858 94.4861 76.3066 94.2988 75.5103L93.034 69.1165L142.007 4.12419H153.67V68.4841H168.917Z" stroke="#7687C6" stroke-width="6" mask="url(#path-1-outside-1_2909_27903)"/>
</g>
</svg>
