<svg width="1920" height="157" viewBox="0 0 1920 157" fill="none" xmlns="http://www.w3.org/2000/svg">
<g clip-path="url(#clip0_2863_17688)">
<path fill-rule="evenodd" clip-rule="evenodd" d="M2025 -51.445L2011 -576H-106L-92 -49.3394C-66.1373 -31.9941 -35.7655 -14.9728 0 1.47034V158H1920V7.55945C1930.95 2.73431 1941.53 -2.19531 1951.75 -7.22937C1981.05 -21.9679 2003.02 -36.7065 2025 -51.445ZM1920 7.55945V-233H0V1.47034C55.4055 26.9429 123.755 51.0278 208.336 72.7798C420.768 129.628 669.827 157 955.512 157C1153.29 157 1343.75 142.261 1526.88 112.784C1691.77 86.2438 1821.03 51.1689 1920 7.55945Z" fill="white"/>
</g>
<defs>
<clipPath id="clip0_2863_17688">
<rect width="1920" height="158" fill="white"/>
</clipPath>
</defs>
</svg>
